<?xml version="1.0" encoding="utf-8"?>
<!-- Generator: Adobe Illustrator 24.2.0, SVG Export Plug-In . SVG Version: 6.00 Build 0)  -->
<svg version="1.1" id="chair"
	xmlns="http://www.w3.org/2000/svg"
	xmlns:xlink="http://www.w3.org/1999/xlink" x="0px" y="0px" viewBox="0 0 328.1 340.6" style="enable-background:new 0 0 328.1 340.6;" xml:space="preserve">
	<style type="text/css">
	.st0{fill:#1E1E1E;}
	</style>
	<path id="main_path" class="st0" d="M132.7,0c2.3-0.1,5.2,1.6,6.8,4.2c1.3,2.1,2,5.8,1.9,10c-0.1,2.4,0.2,3.1,2.3,5.3l2.4,2.6l2-2.3
	c1.1-1.3,2.6-3,3.2-3.9l1.2-1.7l3,1.1c2.5,0.9,5.1,2.2,6.8,3.5c0.1,0.1-0.2,0.5-0.7,0.9c-0.5,0.4-1.4,2.4-1.8,4.3
	c-0.5,2-1.1,4.1-1.3,4.7c-0.4,0.8-0.1,1.1,1.3,1.4c1,0.2,2,0.8,2.3,1.3c0.8,1.4,0.1,11-0.8,11.4c-0.6,0.2-0.7-0.8-0.4-4.4
	c0.2-2.6,0.5-5.1,0.6-5.7c0.4-1.1-1.1-1.5-8.1-2.1c-2.1-0.2-4.2-0.6-4.6-1c-0.9-0.7-1.1-0.3-2.2,5.2c-0.5,2.3-1,4.7-1.3,5.2
	c-0.3,0.8-0.1,1.1,1.1,1.4c1.2,0.3,1.5,0.7,1.2,1.5c-0.3,0.8,0.1,1.2,1.3,1.4c2.3,0.5,6.8,2.8,6.8,3.4c0,0.7,0.4,0.7-6.6-1.3
	c-3.4-1-6.2-1.7-6.3-1.7c-0.1,0.1-0.5,1.8-0.9,3.8c-0.4,2-0.9,3.9-1,4.3c-0.1,0.4,0.8,1,2,1.4c3.2,1,3.2,1.1,2.6,2.6
	c-0.3,0.8-0.7,3-0.9,4.9c-1,9.9-1.2,11-2.2,11c-0.8,0-0.7-2.1,0.3-7.6c0.5-2.6,1-5.7,1.2-6.9l0.4-2.2l-5.3-1.3
	c-2.9-0.7-5.7-1.3-6.2-1.3c-0.6,0-1.1,1.2-1.6,3.8c-0.4,2.1-1,4.5-1.3,5.4c-0.3,0.9-0.7,3.3-0.9,5.2c-0.4,3.3-0.3,3.6,0.7,3.6
	c0.6,0,1.7,0.4,2.5,0.9c1.2,0.9,1.3,0.8,1.3,0c0-0.7,0.4-0.9,1.1-0.7c1.9,0.6,6.4,1.6,10,2.4c4.5,0.9,5.1,1.8,3.8,5.6
	c-0.6,1.6-1.2,4-1.4,5.3c-0.2,1.3-0.5,2.9-0.7,3.5l0,0c-0.3,1.3-1.8,1.3-3.8,0.1c-0.8-0.5-2.2-0.9-3.1-0.9c-0.9,0-3-0.5-4.7-1
	l-3.1-1l0.4-4.5c0.2-2.5,0.5-5.1,0.7-5.7c0.3-0.9,0-1.2-1-1.3c-0.8-0.1-2.1-0.2-2.9-0.4c-0.8-0.1-1.7-0.3-2-0.3
	c-0.4-0.1-0.1-4.8,0.5-7.6c0.2-1.1,1-4.2,1.5-6.3c0.3-1.2,0.7-3.3,0.9-4.8c0.2-1.5,0.6-2.8,0.8-2.9c2-0.8,2.3-1.5,2.9-8.1
	c0.4-4,0.4-4-1.4-4.7c-1-0.4-3.3-0.9-5.1-1.1c-3.1-0.4-3.4-0.3-3.7,0.8c-0.2,0.7-0.6,2.3-0.9,3.6c-0.3,1.3-0.8,3.7-1,5.4
	c-0.2,1.6-0.5,3.1-0.6,3.3c-0.1,0.2,0.8,0.4,2,0.5c2.3,0.2,4.6,1.6,4,2.6c-0.2,0.3-1.3,0.4-2.5,0.2c-1.2-0.2-2.7-0.4-3.3-0.5
	c-0.6-0.1-1.5-0.6-2-1.1c-0.9-0.9-0.9-1.3,0-4.9c0.5-2.2,1-4.3,1-4.8c0-0.5,0.3-1.6,0.7-2.6c0.4-0.9,0.6-1.9,0.6-2.2
	c-0.1-0.3,0.2-1,0.6-1.7c0.5-1,1-1.1,2.3-0.8c0.9,0.2,2.7,0.5,4.1,0.7l2.5,0.2l-0.3-2c-0.2-1.3,0.1-2.7,0.8-4
	c1.1-1.9,1.1-2.2,0.2-3.7c-1-1.8-1.4-1.3,4.6-6.3c1.2-1,2.1-2.4,2.3-3.5c1.4-8.3-1.1-15.6-5.1-15.2c-1.9,0.2-2.4,1.9-1,3.5
	c0.9,1,0.9,1.1,0,1.5c-1.6,0.6-1.9,0.5-2.6-1.3c-0.8-1.8-0.2-4.2,1.2-5.3C131.2,0.2,131.9,0,132.7,0L132.7,0z M173.6,4
	c0.6,0,1.2,0.1,1.5,0.4c0.2,0.2-0.4,1.1-1.5,2c-2.4,2-2.4,4.2-0.2,8c2.6,4.4,7.3,7.9,7.6,5.6c0-0.4,0.2-1.8,0.3-3.1
	c0.1-1.3,0.5-2.6,0.8-3c0.3-0.3,0.6-1.1,0.6-1.7c0-1.3,3.3-4.8,5.4-5.8c2.6-1.2,4.9-0.6,6.4,1.6c1.5,2.3,2.3,5.6,1.7,7.1
	c-0.3,0.8-0.8,0.3-2.1-2.3c-2.2-4.4-3.5-4.7-6.5-1.7c-1.6,1.6-2.6,3.2-3.1,5.3c-0.7,2.9-0.4,4.6,0.6,3.9c0.3-0.2,1.2,0.4,2.1,1.2
	c1.7,1.6,1.8,2.4,0.6,6.9c-0.3,1.2,0.1,2,2.2,4.1c1.4,1.4,3.4,3,4.4,3.5c1,0.5,1.9,1.1,2.1,1.3c0.6,0.7,6,3,6,2.6
	c0-0.2,0.1-1,0.2-1.7c0.3-2.4,1.7-6.8,2.4-7.4c0.5-0.4,1.4-0.2,3,0.5c1.2,0.6,3.5,1.3,5.1,1.5c4.2,0.5,6.2,1.5,5.8,3
	c-0.2,0.7-0.5,2.4-0.7,3.9c-0.4,2.4-0.3,2.6,0.8,2.2c0.7-0.2,3.6-0.5,6.5-0.7c2.9-0.1,6-0.4,6.8-0.6c0.8-0.2,2.4-0.5,3.5-0.6
	c1.1-0.2,2.3-0.5,2.6-0.6c0.3-0.2,1.8-0.5,3.4-0.8c1.6-0.3,3.7-0.8,4.6-1.1c1-0.3,4-1.3,6.7-2.2c2.7-0.9,6.1-2.2,7.5-3
	c1.4-0.8,2.9-1.5,3.4-1.5c0.7,0,2.5-0.8,10.1-4.3c1.3-0.6,2.9-1.1,3.4-1.1c0.5,0,1.1-0.2,1.3-0.5c0.3-0.5,6.2-1.8,8.2-1.8
	c0.5,0,2.9,0,5.4-0.1c4.5-0.1,5.8,0.1,10.5,1.2c1.3,0.3,3,0.7,3.8,0.9c1.5,0.3,6.3,2.7,6.7,3.3c0.2,0.2,1.1,0.8,2.1,1.3
	c1.7,0.9,8.1,7.2,8.1,8c0,0.2,0.8,2,1.8,4.1c4.2,8.4,3,22.1-3,35.4c-1.6,3.6-2.5,5.8-2.5,6.3c0,0.2-0.4,1-0.9,1.8
	c-0.9,1.7-3.5,9.4-4.2,12.6c-0.2,1.1-0.7,2.5-0.9,3c-0.5,1-2.4,12.9-2.7,17.7c-0.1,1.6-0.3,13.4-0.5,26.2
	c-0.1,12.8-0.4,23.4-0.5,23.7c-0.2,0.3-0.5,3.2-0.7,6.5c-0.2,3.3-0.6,7.1-0.9,8.4c-0.3,1.3-0.7,3.8-0.9,5.4
	c-0.2,1.6-0.6,3.7-0.9,4.5c-0.3,0.8-0.8,2.9-1.2,4.5c-0.4,1.6-0.9,3.5-1.2,4.2c-1.1,2.7-3.6,9.7-3.6,10.1c0,0.3-0.7,2-1.5,3.8
	c-0.8,1.8-1.5,3.5-1.5,3.8c0,0.7-4.3,9.2-4.8,9.6c-0.5,0.3-1.8,2.4-4.6,7.4c-1.8,3.1-1.9,3.4-4.5,7.4c-0.9,1.4-1.6,2.7-1.6,2.9
	c0,0.2-1.3,2.2-2.8,4.4c-3.4,4.8-12.4,13.7-17,16.8c-1.8,1.2-3.6,2.5-4,2.9c-0.4,0.4-2,1.3-3.4,2c-1.5,0.7-2.7,1.6-2.7,1.9
	c0,0.3-0.3,0.5-0.8,0.5c-0.4,0-2.4,0.8-4.4,1.8c-2,1-4.2,1.8-4.9,1.8c-0.7,0-1.5,0.3-1.7,0.6c-0.5,0.7-7.9,2.4-12.5,2.8
	c-2,0.2-4.9,0.4-6.4,0.6c-1.5,0.2-6.3,0.5-10.8,0.7c-7.7,0.4-35.1,0.3-40.8-0.1c-6.3-0.5-16.5-2.2-25.2-4.2c-2.1-0.5-4.8-1.1-6-1.2
	c-1.2-0.2-3-0.6-4.2-0.9c-1.2-0.3-2.9-0.7-3.9-0.8c-1-0.2-4.2-0.9-7.2-1.5c-3-0.7-6.9-1.5-8.7-1.9c-1.8-0.4-3.6-1-4-1.2
	c-0.4-0.3-1.5-0.6-2.6-0.7c-1.1-0.1-2.2-0.5-2.6-0.9c-0.3-0.3-1-0.5-1.4-0.3c-0.4,0.2-0.9,0-1.2-0.3c-0.2-0.4-1.1-0.6-2-0.6
	c-0.9,0-2.4-0.4-3.4-0.9c-1-0.5-1.9-0.8-2-0.6c-0.8,0.8-22.1-8.7-27.5-12.3c-1.4-0.9-3.2-1.8-4.1-2c-0.9-0.2-1.8-0.8-2.2-1.4
	c-0.3-0.5-0.6-0.9-0.7-0.8c-0.5,0.4-2.8-0.9-6.1-3.4c-3.8-3-6.5-6.5-5.3-7.2c0.4-0.3-0.1-1.1-1.6-2.2c-3.5-2.7-9.2-8.2-9.2-8.8
	c0-0.3-1.2-2-2.8-3.6c-2.9-3.2-4.1-5.5-3.5-6.5c0.2-0.3,1.4,1,2.8,2.9s2.5,3.6,2.7,3.7c0.1,0.2,0.4-0.3,0.6-1.1
	c0.5-2,2.3-1.4,2.5,0.9c0.2,1.6,0.9,2.4,3.8,4.6c3.5,2.6,5.9,3.9,13.5,7.2c2,0.9,4.1,1.9,4.7,2.2c1.2,0.7,6,2.1,13,3.8
	c2.3,0.6,11.5,3.3,14.9,4.4c2.1,0.7,4.4,1.3,5.2,1.3s1.5,0.2,1.7,0.4c0.2,0.2,0.8,0.5,1.3,0.5c0.5,0.1,2.3,0.4,4,0.8
	c1.8,0.4,4.3,0.8,5.6,1c1.3,0.2,2.6,0.5,2.9,0.7c0.6,0.4,3,0.8,4.6,0.9c0.5,0,1.8,0.3,3,0.5c1.2,0.3,3.2,0.7,4.5,0.9
	c5.3,0.7,7.3,1.1,8.4,1.4c0.7,0.2,5.5,0.4,10.8,0.5c10.4,0.2,16.1,0.6,23.1,1.4c2.5,0.3,8.5,0.4,13.4,0.4c8.3-0.1,8.9-0.1,9.2,1
	c0.2,0.6,0.6,1.1,0.9,1.1c0.3,0,1.1,0.4,1.7,1c1.3,1.2,1.4,0.4,0.2-1.3c-0.5-0.6-0.9-1.4-0.9-1.7c0-0.7,3.8,4.2,4.7,6.2
	c0.6,1.2,0.3,1.1-1.1-0.6c-1-1.1-1.8-1.7-1.8-1.2c0,0.6-0.5,0.3-1.6-0.6l-1.6-1.5l1.3,1.9c2.1,3.1,1.5,3.5-0.8,0.5
	c-1.2-1.5-2.1-3-2.1-3.3c0-0.3-0.7-0.4-1.5-0.2c-1.4,0.3-1.4,0.4-0.6,1.3c1.8,2,0.9,2.6-1,0.6c-1.6-1.7-2-1.8-2.1-1
	c-0.2,1.2-1.3,1.4-1.3,0.3c0-0.6-2-0.8-7.6-0.9c-4.2-0.1-11.2-0.4-15.4-0.8c-4.3-0.4-11.4-0.6-15.7-0.6c-7.6,0.1-11.1-0.3-20.4-2.1
	c-2.4-0.5-5.3-1-6.6-1.2c-4.2-0.6-26.6-5.8-29.6-6.8c-1.7-0.6-3-1-3.9-1.2c-0.3-0.1-1.8-0.5-3.3-1s-3.2-1-3.8-1.1
	c-0.6-0.1-2-0.5-3.1-0.9c-1.1-0.3-2.4-0.8-3.1-0.9c-2.3-0.5-7.8-2.6-11.9-4.5c-3.9-1.8-6.1-2-3.8-0.4c0.6,0.4,1,1.1,1,1.6
	c0,0.7-0.2,0.7-0.8-0.1c-0.9-1.1-2.2-1.4-2.2-0.5c0,1.1,5.7,6.4,8.4,7.9c1.4,0.8,4.3,2.4,6.5,3.6c2.2,1.2,4.4,2.4,5,2.6
	c0.6,0.2,1.1,0.6,1.1,0.9c0,0.3,0.5,0.5,1.1,0.5c0.6,0,1.3,0.4,1.5,0.9c0.2,0.5,0.9,0.9,1.6,0.9c0.7,0,1.2,0.2,1.2,0.5
	c0,0.3,1.8,1.1,4.1,1.9c2.2,0.8,4.7,1.8,5.6,2.2c0.8,0.4,1.9,0.8,2.4,0.8c0.5,0,1.2,0.3,1.5,0.6c0.7,0.7,10.7,4.1,14.2,4.8
	c1.4,0.3,4.1,1,5.9,1.5c1.8,0.5,3.7,1.1,4.2,1.2c0.5,0.1,0.9,0.3,0.9,0.3s0.8,0.2,1.8,0.4c1,0.1,4.5,0.9,7.8,1.7
	c3.3,0.8,7.7,1.8,9.8,2.1s4.5,0.9,5.4,1.3c0.9,0.3,3.1,0.9,4.9,1.1c2.8,0.4,6.6,1.2,10.8,2c0.5,0.1,2.5,0.4,4.5,0.7
	c2,0.3,4.1,0.6,4.8,0.7c1.2,0.2,12.7,1.1,15,1.1c0.9,0,1.2-0.3,1.1-1.3c-0.2-1.7,0.3-1.7,1,0c0.5,1.2,0.9,1.3,6.9,1.4
	c3.5,0,6.4-0.1,6.4-0.3c0-0.2-0.4-1-1-1.7c-0.5-0.8-0.8-1.5-0.6-1.7c0.2-0.2,0.7,0.5,1.3,1.5c0.9,1.8,2.1,2.5,2.1,1.2
	c0-0.4-0.6-1.7-1.3-2.9c-0.9-1.5-1-1.9-0.4-1.4c0.5,0.4,1.3,1.6,1.7,2.7c1,2.5,1.2,2.6,4.2,2.3c2-0.2,2.4-0.4,2.1-1.2
	c-0.3-0.8-0.2-0.8,0.8,0.1c1.4,1.3,3.5,0.7,2.4-0.6c-0.4-0.5-0.8-1.3-0.9-1.8c-0.1-0.5-0.7-1.7-1.4-2.6c-1.3-1.8-1.6-2.6-0.7-2
	c0.3,0.2,1.4,2,2.5,3.9c1,2,2.2,3.6,2.6,3.6c0.9,0.1,4.1,0.1,5.1,0c0.6-0.1,0.4-0.8-0.7-2.8c-0.8-1.5-1.3-2.7-1-2.7
	c0.3,0,1.1,1.2,1.8,2.7c1.7,3.5,2.3,3,0.9-0.6c-1-2.7-2.9-4.6-5.5-5.4c-1.8-0.6-8-4.6-8-5.2c0-0.3-0.3-0.5-0.8-0.5
	c-0.4,0-1.2-0.5-1.8-1.1c-1.9-2-2.8-2.5-3-1.9c-0.2,0.6-6.5-8-6.5-8.9c0-0.2-0.4-0.8-0.8-1.3c-0.8-1-4.1-8-4.2-9.3
	c-0.1-0.4-0.3-1-0.4-1.3c-1.4-2.4-2.8-12.2-2.5-16.5c0.2-1.9,0-3.4-0.5-3.9c-0.6-0.7-0.6-0.8,0.2-0.5c1.4,0.5,1.2-0.6-0.4-2.6
	c-0.8-0.9-1.6-2.2-1.8-2.9c-0.3-0.9,0-0.8,1.4,0.6c3,2.9,2.1,0.4-1-2.8c-1.6-1.6-2.6-2.9-2.2-2.9c0.3,0,1.7,1.1,3,2.4
	c2.3,2.4,2.4,2.4,2.8,1.1c0.7-2.6,0.5-3.3-1.9-5.9c-1.6-1.8-2.2-2.7-1.7-3c0.8-0.5,1.8,0,1.4,0.7c-0.2,0.3,0,0.7,0.4,1
	c0.4,0.3,0.5,0.2,0.3-0.3c-0.7-1.1,0.4-0.8,1.9,0.6c0.8,0.7,1.4,1,1.4,0.7c0-0.3-0.9-1.5-2.1-2.6c-1.2-1.1-2.1-2.3-2.1-2.6
	c0-0.3,1.1,0.5,2.4,1.7c1.3,1.3,2.4,2,2.4,1.7c0-0.4-0.6-1.1-1.4-1.6c-0.9-0.6-1.1-1.1-0.7-1.4c1.1-0.7-1.8-3.6-4.7-4.6
	c-1.4-0.5-2.7-0.8-2.9-0.6c-0.2,0.1-1.4,0-2.7-0.3c-3-0.6-6.9-1.2-10.8-1.5c-4.7-0.4-7.5-0.9-7.8-1.5c-0.7-1.2,14-1,20.1,0.3
	c6.4,1.3,5.8,1.2,9,2.1c5.2,1.5,5.2,1.5,9.8-3.3c2.5-2.6,5.7-5.2,7.9-6.3c2-1.1,3.9-2.1,4.2-2.4c2-1.5,16.7-6.9,20.2-7.5
	c0.9-0.2,2.5-0.4,3.6-0.6c4.2-0.7,19.8-0.4,29.4,0.7l3.5,0.4l-1-2.3c-1.6-3.6-1.7-4.3-0.6-3c0.5,0.6,1.3,2.1,1.7,3.1
	c0.4,1.1,1.1,2,1.5,2c1,0,1,0-0.4-3.3c-1.8-4.2-1-4,1,0.3l1.7,3.6l5.4-0.2c5.4-0.2,10.5-1.6,10.5-3c0-0.3-1.4-3.2-3.1-6.4
	c-1.7-3.2-2.7-5.4-2.1-5c0.5,0.4,2.1,3.1,3.5,6c1.4,2.9,2.6,5.3,2.7,5.4c0.3,0.4,4.2-2.6,6.8-5.3c4.8-5,8.9-12,9.9-17.1
	c0.1-0.7,0.5-2.5,0.9-4.2c0.5-2.5,2-11.6,2.7-16.8c0.6-4.6,1-6.8,1.2-8.1c0.1-0.8,0.4-2.7,0.6-4.2c0.2-1.5,0.6-4.8,0.9-7.4l0.6-4.7
	l-2.7-4.6c-1.5-2.5-2.3-4.2-1.8-3.8c0.5,0.4,1.8,2.3,2.8,4.1l1.9,3.3l1-1.9c0.5-1,1.2-1.7,1.4-1.5c0.2,0.2,0.7-0.8,1-2.2
	c1.2-5,5.6-18.2,6.4-19.4c0.4-0.7,0.8-1.6,0.8-2.1c0-0.5,0.3-1.3,0.7-1.7c0.4-0.4,0.8-1.1,0.8-1.5c0.1-0.4,0.6-2,1.3-3.5
	c2.2-5,2.6-6,2.6-7.5c0-0.8,0.2-1.6,0.5-1.7c1-0.6,1.3-13.8,0.5-17.4c-1.6-6.7-7.4-13.5-14.5-16.8c-1.3-0.6-3.1-1.5-4.1-2
	c-0.9-0.5-1.8-0.8-2-0.6c-0.2,0.2-1.8-0.1-3.7-0.5c-7.9-1.9-18.9-0.6-26.4,3c-1.7,0.8-3.4,1.5-3.7,1.5s-3.4,1.3-6.8,2.9
	c-3.4,1.6-7.4,3.3-8.9,3.8c-3.9,1.3-8,2.5-8.5,2.4c-0.2-0.1-1.1,0.2-2,0.5c-0.9,0.3-2.7,0.7-4,0.9c-1.3,0.2-2.9,0.6-3.6,1
	c-1.8,1-15.5,1.4-17.1,0.6c-0.9-0.5-1.3-0.5-1.3,0c0,0.4-0.3,0.5-0.7,0.2c-0.4-0.3-0.6-1.7-0.4-4.3c0.2-2.6,0.1-3.9-0.4-4.1
	c-0.6-0.2-3.1-0.7-6.1-1.1c-0.7-0.1-1.8-0.5-2.6-0.9c-1.2-0.6-1.5-0.6-1.9,0.1c-0.5,0.8-0.8,3-0.6,4.5c0.2,1.3-1.8,5.3-2.2,4.6
	c-0.2-0.4-1.4-0.9-2.5-1.1c-2.2-0.4-9-3.9-9-4.6c0-0.3-0.3-0.5-0.8-0.5c-0.4,0-2.2-1.5-4-3.3c-2.1-2.1-3.7-3.3-4.7-3.3
	c-1.9,0-1.8,0.6,0.5,2.5l2,1.6l-1.1,2c-0.6,1.1-2.2,4.1-3.5,6.6c-1.3,2.6-2.7,4.6-3.2,4.6s-0.9-0.2-0.9-0.3c0-1,4.9-10.4,5.9-11.3
	l1.2-1.1l-1.6-1.4c-0.9-0.8-1.8-1.4-2.1-1.4c-0.3,0-1.9-1-3.8-2.2c-1.8-1.2-3.4-2.1-3.5-1.9c-1.9,2.7-5.4,9.4-6,11.5
	c-0.5,1.5-1.5,1.3-1.9-0.4c-0.3-1,0.1-2.1,1.1-3.4c0.8-1.1,1.8-2.7,2.3-3.6c0.5-0.9,1-1.6,1.2-1.6c0.2,0,0.8-0.8,1.2-1.8
	c1-2.5,1.9-2.6,5-0.7c4.5,2.9,5.3,3.2,4.9,2.2c-0.2-0.6,0.2-1.1,1.1-1.6c1.4-0.6,1.4-0.8,0.8-2.8c-0.6-1.6-1.4-2.4-3.7-3.5
	c-3.5-1.7-7.7-7-8.4-10.6c-0.4-2.7,0.6-5.9,1.9-5.9c0.5,0,0.8-0.3,0.8-0.6C172.6,4.3,173.1,4.1,173.6,4L173.6,4z M153.7,16.6
	c-0.6,0-0.9,0.1-0.9,0.4c0,0.2-0.8,1.4-1.8,2.6c-2.2,2.5-2.7,4.3-1.8,6c0.4,0.7,0.5,1.5,0.3,1.8c-0.2,0.3,0.3,0.7,1,0.8
	c0.8,0.2,2.5,0.4,3.8,0.6l2.4,0.3l1.7-4.7c0.9-2.6,1.6-4.8,1.6-5.1c0-0.2-1.1-1-2.4-1.6C156.1,17.1,154.6,16.6,153.7,16.6
	L153.7,16.6z M141,19.9c-0.1,0-0.1,0-0.2,0c-0.3,0.2-0.7,1.2-0.9,2.3c-0.2,1.1-0.9,2.6-1.6,3.3c-0.7,0.7-1.2,1.5-1.2,1.7
	c0,0.2-0.9,1.6-2,3.2c-1.1,1.5-2.3,3.8-2.7,5.1c-0.6,2.1-0.5,2.4,0.7,3.4c1.2,0.9,1.3,1.7,1.5,6.7c0.1,3.1,0.1,5.8,0.1,6
	c0,0.2,0.9,0.7,1.9,1.1c1,0.4,1.9,0.7,2,0.7c0.2,0,1.5-6.1,1.9-8.6c0.2-1.7,0.6-2.3,1.5-2.3c0.6,0,1-0.2,0.9-0.5
	c-0.2-0.3,0-1.5,0.3-2.8c0.3-1.3,0.7-3.2,0.9-4.2c0.1-1,0.6-3.2,1-4.8c0.6-2.5,1-3,2.1-3c1.3,0,1.3,0,0.3-1.7
	c-0.6-0.9-1.2-1.7-1.4-1.7c-0.2,0-1.4-1-2.6-2.1C142.5,20.7,141.4,19.9,141,19.9L141,19.9z M184.6,22.1c-0.5-0.1-0.6,0.6-0.3,1.9
	c0.5,2.6,1.1,3.1,2.1,2c0.6-0.8,0.6-1.2-0.2-2.4C185.5,22.6,185,22.1,184.6,22.1L184.6,22.1z M135.8,23.6c-0.2,0-0.8,0.5-1.5,1.1
	c-0.9,0.8-1.5,1.7-1.3,1.9c0.4,0.4,2.9-2.1,2.9-2.9C136,23.6,135.9,23.6,135.8,23.6L135.8,23.6z M155.6,49.7c0,0,0.1,0.1,0.1,0.3
	c0.1,1.2,2.4,2.7,4.2,2.7c0.5,0,1.2,0.2,1.5,0.5c0.3,0.3,1.6,0.8,2.8,1.2c2.3,0.7,4,2.2,3.3,2.8c-0.2,0.2-2.5-0.5-5.2-1.5
	c-6.6-2.6-7-2.6-7.8,1.1c-0.4,1.7-0.6,3.4-0.6,3.9c0,0.6-0.6,0.9-1.7,0.9c-1.3,0-1.8,0.3-2.1,1.4c-0.7,2.5-0.4,2.9,2.5,4.1
	c2.6,1.1,2.8,1.3,1.8,2c-1.2,0.9-3,0.5-5-0.9c-1.8-1.3-2.1-2.7-1.2-5.4c0.5-1.3,0.7-2.4,0.4-2.3c-1.7,0.2-3.1-0.2-3.1-1
	c0-1.1,2.1-1.2,5.3,0l2.4,0.9l0.4-2.9C154.1,54.2,155.3,49.7,155.6,49.7L155.6,49.7z M135.5,74.1c-0.6,0-0.9,1-1.6,4.8
	c-0.5,2.9-0.8,5.4-0.5,5.7c0.2,0.2,1.8,0.8,3.5,1.1s4.3,1.2,5.9,1.8l2.8,1.1v-1.3c0-0.7,0.5-3.2,1.2-5.5c0.9-3,1-4.4,0.5-4.9
	c-0.4-0.4-0.8-0.7-1-0.7c-0.2,0-1.3-0.1-2.5-0.3c-1.2-0.2-3.1-0.5-4.4-0.7c-1.3-0.2-2.8-0.6-3.4-0.9
	C135.8,74.1,135.6,74.1,135.5,74.1L135.5,74.1z M309.7,107.1c0,0-0.1,0.1-0.2,0.3l0,0c-0.2,0.6-0.1,1.4,0,1.8
	c0.2,0.4,0.3-0.1,0.3-1.1C309.8,107.5,309.8,107.1,309.7,107.1L309.7,107.1z M307.6,124.9c-0.3,0.2-0.7,2.4-1,5
	c-0.2,2.6-0.6,5.2-0.7,5.9c-0.2,0.7-0.4,2.1-0.5,3.3c-0.4,4.8-2.7,16.2-3.8,18.9c-3.1,7.3-6,11.9-9.7,15.4c-3,2.9-8.9,6.4-11.5,6.9
	c-1.1,0.2-2.5,0.6-3.1,0.9c-1.5,0.8-9.9,0.7-15.7-0.1c-11.1-1.5-29.6-1.7-34.8-0.3c-2,0.5-12.4,4.5-15.8,6c-1.7,0.8-3.3,1.4-3.5,1.4
	c-0.2,0-1.2,0.6-2.2,1.4c-1,0.8-2.7,1.8-3.7,2.4c-2.2,1.1-7.4,5.9-7.4,6.7c0,0.3-0.7,1.3-1.5,2.2s-1.5,1.9-1.5,2.2s-0.3,0.6-0.7,0.6
	c-0.4,0-0.5,0.2-0.3,0.4c0.2,0.2,0.2,0.7-0.1,1.1c-1.4,1.9-3.5,9.9-4.1,16c-0.7,7.8-0.6,13,0.5,17.1c1.3,4.7,5.7,14.4,8.1,17.7
	c3.6,4.9,10.5,10.7,16.7,13.9c1.8,0.9,3.8,2.1,4.6,2.6c0.9,0.6,1.4,0.7,1.7,0.3c0.3-0.5,0.5-0.5,0.8,0c0.3,0.4-0.3,0.9-1.5,1.3
	l-1.9,0.7l2.9,2.9l0,0c2.7,2.8,3,2.9,5.9,2.8c1.7-0.1,4.5-0.4,6.2-0.7l3.2-0.6l-0.3-2.1c-0.2-1.2-0.5-3.1-0.7-4.2
	c-0.3-1.4-0.2-1.8,0.2-1.2c0.3,0.5,0.8,2.3,1,4.1c0.3,2.6,0.6,3.1,1.6,3.1c1.4,0,1.4-1,0.3-5.3c-0.5-1.7-0.6-3.1-0.4-3.1
	c0.5,0,1.8,4.6,1.8,6.6c0,0.8,0.4,1.2,1.2,1.2c0.7,0,1.2-0.1,1.2-0.2c0-0.1-0.4-1.6-0.9-3.4c-0.5-1.8-0.9-3.7-0.9-4.2
	c0-1.6,0.9,0.5,1.7,3.9c0.7,2.9,0.8,3,2.5,2.8c2.4-0.3,2.6-1.3,1.5-4.7c-0.5-1.5-1-3.1-0.9-3.5c0-1.3,1.7,2.4,2.1,4.6
	c0.3,1.9,0.5,2.2,1.5,1.7c0.9-0.5,1-0.9,0.5-2.8c-1.2-4.8-1.3-5.1-0.6-4.7c0.4,0.2,1,1.9,1.4,3.7c0.5,2.1,0.9,3.1,1.3,2.7
	c0.4-0.4,0.2-2-0.4-4.6c-0.6-2.2-0.9-4.2-0.7-4.3c0.5-0.5,1.5,2.7,1.9,5.6l0.3,2.5l2-0.9c1.1-0.5,4-2.2,6.4-3.9
	c9.6-6.8,12.8-9.9,18.8-18c2.9-3.9,2.9-4,0.7-8.8c-1.8-4.1-0.8-3.6,1.3,0.6c2.3,4.6,1.8,2.3-0.6-3c-0.9-2.1-1.5-3.8-1.2-3.8
	c0.6,0,3.6,5.7,3.6,6.9c0,0.5,0.3,0.9,0.6,0.9c1,0,0.7-1.7-0.9-4.9c-2.1-4.1-1.4-4.5,0.8-0.5c1,1.7,1.9,2.8,2.1,2.5
	c0.2-0.3-0.6-2-1.8-3.7c-2.8-4.1-2.4-5.2,0.4-1.2c1.9,2.7,2.2,3,2.9,2.1c0.7-0.8,0.6-1.6-0.3-5.1c-1.4-5.3-0.8-6,0.8-1
	c0.7,2.2,1.2,3.2,1.2,2.3c0-0.8-0.4-2.6-0.9-3.9s-0.8-2.8-0.8-3.3c0.1-1.2,2.3,3.6,2.3,4.9c0,0.6,0.3,1.1,0.7,1.1
	c0.4,0,0.5-0.3,0.4-0.8c-1.4-3.8-2.9-9-2.7-9.2c0.4-0.4,2.9,6.2,2.9,7.6c0,2.3,1.2,0.7,5.5-7.4c1.4-2.7,1.5-3.2,0.8-4.6
	c-1.7-3.4-3.9-10-3.1-9.1c0.7,0.8,1.5,2.7,3.8,9c0.3,0.7,0.4,0.8,0.8,0c0.3-0.5,0.2-1.3-0.3-2.1c-1.2-1.9-4.6-10.6-4.3-11.3
	c0.1-0.3,1.3,2.2,2.7,5.6c1.8,4.5,2.6,5.9,2.9,5.1c0.3-0.7-0.3-3-1.4-6c-1-2.7-1.7-5-1.6-5.1c0.3-0.3,3.3,5.9,3.3,7
	c0,0.4,0.3,0.8,0.6,0.8c0.9,0,1.9-3,1.3-3.8c-0.8-1.1-2.7-7-2.4-7.3c0.3-0.3,1.4,2.4,2.7,6.4c0.2,0.5,0.9-1.1,1.7-3.4l1.4-4.3
	l-2-4.8c-1.1-2.6-1.9-4.8-1.7-4.8c0.2,0,1.2,1.8,2.2,4c2.2,4.7,3.1,3.5,1-1.3c-1.6-3.7-1.1-4.4,0.6-0.9c1.6,3.4,1.6,1.5,0-2.6
	c-0.7-1.7-1.2-3.4-1.2-3.7c0-1.1,1.1,0.6,1.8,2.8c0.4,1.2,1,2.3,1.3,2.3c0.7,0,0.7-1,0-2.4c-1-1.9-3-7.2-2.7-7.2
	c0.2,0,1.1,1.6,2.1,3.4c1.4,2.7,1.8,3.1,1.8,1.9c0-0.8-0.8-3.2-1.8-5.3c-1-2.1-1.7-4.1-1.6-4.5c0.1-0.4,0.9,0.8,1.8,2.6
	c0.8,1.8,1.5,3,1.6,2.6c0-0.4-0.8-2.5-1.8-4.7c-2.3-5.1-1.9-5.8,0.6-0.9c2.5,4.9,3,4.2,0.6-0.9c-2.1-4.5-2-4.5-1.3-4.5
	c0.3,0,1,1.3,1.6,2.8c0.6,1.5,1.2,2.5,1.3,2.1c0.1-0.4-0.5-2-1.4-3.8c-1.8-3.6-1.6-4.8,0.3-1.4c1.3,2.3,1.4,1.8,0.3-2.2l-0.4-1.5
	l1,1.5l1,1.5l-0.3-1.5c-0.1-0.8-0.7-2.5-1.2-3.8c-1.1-2.6-0.8-3,0.5-0.6l0.9,1.7v-1.5c0-0.8-0.5-2.4-1.1-3.6l-1.1-2.1l-0.4,1.8
	c-0.2,1-0.6,1.9-0.9,2.1c-0.2,0.2-1,1.6-1.7,3.1c-0.7,1.6-1.5,2.9-1.9,2.9c-0.7,0,0.2-2.8,1.4-4.2c1.2-1.4,5.1-14.2,5.7-18.5
	C308.2,140.5,308.3,124.5,307.6,124.9L307.6,124.9z M38.5,133.1c0.1,0,0.2,0,0.3,0c1.3,0.2,2,1.6,0.8,1.8c-3.6,0.4-5.2,6.6-3.7,13.7
	c0.3,1.5,2.8,4,5.5,5.4c1.4,0.8,1.6,0.7,2.7-0.8c1-1.3,1.7-1.6,3.7-1.6c1.4,0,3.1,0.4,3.8,0.9c1.1,0.8,1.4,0.8,2.3-0.3
	c0.6-0.6,1.3-1.2,1.6-1.2c1,0,0.5,1.7-0.7,2.6c-0.8,0.6-1.1,1.3-1,2.3c0.2,1.6,0.6,1.7,2.9,0.6c2.3-1.1,4.6-0.4,5,1.6
	c0.2,0.9,0.6,2.1,0.9,2.7c0.9,1.6,0.7,2.6-0.8,3.6c-1.2,0.8-1.2,1-0.5,1.9c0.5,0.6,1.1,0.9,1.5,0.8c0.4-0.1,1.8,0.1,3.2,0.5l2.6,0.8
	v-2.8c0-3.2,1.1-4.6,3.6-4.5l1.5,0l0,6.6c0,6.3,0.1,6.7,1.8,9.3c4,6.1,4.5,7.8,2.7,8.2c-5.1,1.1-7.2,1.4-11.2,1.5
	c-2.6,0.1-5.2,0.3-6,0.5c-1.2,0.3-1.2,0.5-0.5,1.5c0.8,1.1,1.2,1.1,4.9,0.5c2.2-0.4,6.1-0.8,8.7-1c5.5-0.4,5.8-0.2,6.4,6.7
	c0.4,4.5,0.1,6.1-1,5.4c-0.6-0.4-1.5-5.2-1.5-8.2c0-1.1-0.3-1.6-1.1-1.6c-0.9-0.1-1,0.1-0.4,0.8c0.4,0.5,0.5,1.1,0.3,1.5
	c-0.2,0.4-0.1,1,0.3,1.5c0.4,0.5,0.6,0.9,0.4,0.9c-0.2,0-1.1-1-2-2.2c-0.9-1.2-1.3-2-0.9-1.7c0.5,0.3,0.7,0.2,0.5-0.2
	c-0.1-0.4-0.4-0.7-0.7-0.7c-0.2,0-0.9,0-1.4,0c-0.6,0,0,1.1,2,3.4c1.6,1.9,2.5,3.2,2.1,2.9c-0.6-0.3-0.7-0.2-0.5,0.3
	c0.2,0.5,0.6,0.8,0.9,0.7c0.3-0.1,0.6,0.4,0.6,1.1c0.1,1-0.1,0.9-1.2-0.5c-0.7-0.9-2-2.5-2.8-3.5c-0.9-1-1.1-1.4-0.5-1
	c1.7,1.3,1.2-0.2-0.6-1.9c-1.6-1.6-2.6-1.7-6.1-0.8c-0.8,0.2-2.6,0.5-3.9,0.7c-1.3,0.2-3.7,0.7-5.4,1.1l-3,0.8l0.2,3.8
	c0.1,2.1,0.4,4.7,0.6,5.7l0.4,1.9l4.2-2c2.9-1.4,4.9-2,6.6-1.9c1.3,0.1,2.5-0.2,2.6-0.5c0.1-0.4,0.8-0.5,1.5-0.3
	c1,0.3,1.2,0.1,0.9-0.7c-0.4-0.9-0.3-1,0.5-0.3c0.7,0.6,0.9,0.6,0.9,0c0-0.5,0.3-0.4,0.8,0.3c0.4,0.6,1.1,0.9,1.5,0.7
	c0.4-0.2,0.8-0.1,1,0.2c0.5,0.8-0.3,1.2-3,1.5c-1.2,0.2-2.5,0.6-2.9,0.9c-0.3,0.3-1.8,0.6-3.3,0.6c-1.8,0-3.9,0.6-6.3,1.8
	c-2,1-3.9,1.8-4.2,1.8c-1.5,0-3.9-5.3-3.9-8.6c0-1.1-0.2-1.6-0.5-1.1c-0.7,1.1-4.9,0.3-4.9-1c0-0.5-0.8-1.9-1.8-3.1
	c-1-1.2-1.6-1.6-1.4-1.1c0.6,1.6,0,1.3-1.5-0.9c-1.3-1.8-1.3-1.9-0.1-0.8c1.6,1.4,1.7,0.7,0.3-1.1c-0.6-0.7-0.2-0.5,0.9,0.5
	c1.1,1,1.9,1.5,1.9,1.2c0-0.3,1.1,0.6,2.4,2.1c2.3,2.5,2.5,2.6,3.3,1.5c0.5-0.6,0.9-1.5,0.9-1.9c0-0.4,0.3-0.8,0.7-0.8
	c0.3,0,0.4-0.3,0.2-0.7c-0.3-0.6-0.5-0.5-0.7,0c-0.2,0.6-0.5,0.5-1.4-0.3c-0.6-0.6-1.1-0.8-1.1-0.4c0,0.3,0.4,1,0.9,1.4
	c0.5,0.4,0.9,1,0.9,1.4c0,0.3-0.6-0.1-1.3-1c-0.7-0.9-1.4-1.5-1.6-1.3c-0.2,0.2,0.2,0.9,0.8,1.7l1.1,1.4l-1.4-1.2
	c-0.8-0.7-1.7-1.7-2-2.4c-0.6-1.1-0.5-1.1,0.4-0.4c1.3,1.1,1.3,0.2,0-1.4c-0.8-0.9-0.6-0.8,0.6,0.2c0.9,0.8,1.6,1.2,1.6,0.8
	c0-0.3-0.5-1.1-1.2-1.7c-0.7-0.6-1.1-1.5-0.9-2.1c0.2-0.6-0.3-1.6-1.2-2.4c-0.8-0.8-1.5-1.7-1.5-2c0-0.3,1,0.5,2.2,1.9
	c1.2,1.4,2.3,2.4,2.5,2.2c0.2-0.2-0.4-1.1-1.4-2.1c-1.1-1.2-1.4-1.8-0.9-1.8c0.9,0,4.6,5.3,4.3,6.2c-0.3,0.8,2.4,3.4,3.5,3.4
	c1.5,0,2-1.1,1-2.3c-0.6-0.8-0.4-0.7,0.6,0.1c1.2,1,1.5,1,2.2,0.3c1.6-1.6,0.3-2.3-2.8-1.6c-2.5,0.6-2.7,0.8-2.1,1.6
	c0.5,0.7,0.4,0.7-0.5-0.1c-1.1-0.9-1.2-1.6-1.1-5.7c0.1-4.5,0.1-4.7-1.8-6.6c-1.4-1.4-1.8-2.4-1.7-3.6c0.2-1.8-1.2-3.5-2.3-2.8
	c-0.4,0.2-0.9,1.1-1.2,1.9c-0.5,1.4-0.6,1.4-2.4,0.5c-1-0.5-1.8-0.7-1.8-0.5c0,0.3-0.5-0.2-1.2-0.9c-0.6-0.8-1-1.7-0.8-2
	c0.2-0.3,0.2-1,0-1.5c-0.3-0.7-0.6-0.8-1.2-0.3c-0.9,0.8-1.6,0.3-1.6-1.1c0-1.5-2-3-4-3.2c-1.6-0.1-1.7,0-1.5,1.8
	c0.2,1.6-0.1,2-1.3,2.5c-1.6,0.6-2,1.5-0.9,2.1c1.1,0.7,0.6,2.1-0.6,2.1c-0.7,0-1.8,0.3-2.5,0.7c-0.8,0.4-1.4,0.5-1.8,0
	c-0.7-0.7-2.3-0.3-2.3,0.6c0,0.3,1,1.5,2.2,2.6c2.3,2.1,2.4,3.9,0.3,3.9c-0.7,0-1.4,0.3-1.6,0.6c-0.2,0.3-0.9,0.6-1.5,0.6
	c-1.5,0-3.6,1.8-3.6,3c0,1.2,1.7,3.2,3.1,3.7c1.3,0.5,1.4,1.8,0.1,2.8c-1.3,1.1-1.1,2.2,1,4.1l1.9,1.8l-1.2,1.3
	c-0.9,1-1.2,2-1.1,3.7c0.2,2.5,2.4,6.2,3.3,5.6c0.3-0.2,1.4,0.2,2.3,0.9c1,0.7,1.9,1.2,2,1.2s0.6-0.9,1.1-1.9c1-2.6,1-2.6,2.4-1.3
	c1.3,1.2,4.2,1.6,4.9,0.6c0.2-0.3,0-1.3-0.4-2.2c-0.7-1.4-0.7-1.7,0-2c0.5-0.2,0.9-1,0.9-1.8c0-1.4,1.3-3.1,1.9-2.5
	c0.2,0.2,0.7-0.1,1.1-0.6c1.5-1.8,2.3-1.1,2.3,2c0,1.6,0.1,3.2,0.3,3.5c0.2,0.3,0.5,1.7,0.7,3.1c0.3,2.2,0.9,5.5,1.5,7.5
	c0.3,0.9-0.7,4-2,6.1l0,0l-1.1,1.9l-2.1-2.3c-2.6-2.9-2.7-3.9-0.2-1.5c1.6,1.5,1.8,1.6,1.2,0.4c-0.4-0.7-1-1.4-1.3-1.4
	c-0.3,0-0.6-0.3-0.6-0.7c0-0.4,0.4-0.5,1-0.3c0.9,0.3,0.9,0.2-0.1-0.8c-1.9-2.1-0.4-2.4,2.2-0.5c0.6,0.4,1.2,0.6,1.4,0.4
	c0.2-0.2-0.3-3.1-1.2-6.6c-0.8-3.4-1.5-6.7-1.5-7.3c0-1.1-0.9-1.4-1.5-0.5c-0.2,0.3-0.5,2.2-0.6,4.3c-0.2,2.1-0.4,3.9-0.6,4
	c-0.5,0.5-2.9,0.4-5.2,0c-1.9-0.4-2.2-0.3-2.5,0.8c-0.2,0.8-0.8,1.2-1.8,1.2c-2,0-7.6-3.1-9-4.9c-1.4-1.9-1.5-6.7-0.2-8.2
	c1-1.1,0.9-1.2-0.5-2.8c-1.7-1.8-1.9-2.7-0.9-4.5c0.5-0.9,0.3-1.3-0.8-1.9c-0.7-0.4-1.7-1.2-2.1-1.7c-0.8-1.1-1-3.6-0.3-4.6
	c1-1.4,4-3.3,5.3-3.3c1.8,0,2.3-1.5,0.9-2.5c-2.7-1.9-1.6-6.1,1.4-5.9c3,0.2,4,0,4-1.2c0-0.6,0.4-1.5,0.9-1.9
	c0.6-0.5,0.8-1.3,0.6-2.6c-0.6-3,2.3-5,5.5-3.7c1.6,0.7,1.9,0.6,3.4-1c1.6-1.7,1.7-1.7,3.8-0.8c1.3,0.5,2,0.6,1.7,0.2
	c-0.2-0.4-0.4-1.4-0.4-2.3c0-1.4-0.4-1.9-2.6-2.9c-3.7-1.8-5.5-3.7-6.3-7.2C31.9,141.5,35,133.2,38.5,133.1L38.5,133.1z M65.6,133.7
	c1.5,0,3.6,1.1,5.3,2.8l1.7,1.8l2.1-1c2.5-1.2,4.1-0.9,5.3,1c1.9,2.8-0.6,5.9-4.2,5.2c-2.8-0.5-1.9,1.4,1.7,3.5
	c3.8,2.1,5.6,4.7,5.6,7.6c0,2.2-1.3,5.2-2.5,5.7c-1.7,0.7-2.5-0.2-1-1.1c0.4-0.2,1.1-1.3,1.5-2.5c1.3-3.1,0.2-5.6-3.2-7.9
	c-1.5-1-2.9-1.8-3.2-1.8c-0.2,0-0.7,1-1.1,2.3c-0.4,1.3-1.1,2.7-1.7,3.1c-0.8,0.7-1.2,0.6-2.4-0.9c-0.8-0.9-1.4-2.3-1.4-3.1
	c0-1.5,2-3.3,3.7-3.3c1.4,0,1.4-2.4-0.1-5.3c-1.3-2.5-2.5-3.7-5.2-5.1C65.7,134.1,65.2,133.7,65.6,133.7L65.6,133.7z M78.5,137.9
	c-2.5,0-4.2,3-2.2,3.8c1.5,0.6,2.4,0.4,3.2-0.5C80.5,140,79.8,137.8,78.5,137.9z M91.9,143.7c2.4-0.1,5.6,0.7,5.6,1.3
	c0,0.6-3.4,1.8-5.1,1.8c-0.9,0-1.5,0.5-2,1.7c-1.8,4.6-2.5,10.3-1.3,10.3c0.3,0,0.6,0.3,0.6,0.8c0,2.2,5.5,5.9,9,6
	c2.4,0.1,7-2.3,7.5-3.9c0.4-1.3,0.4-1.3,0.7,0.1c0.5,2.4-2.9,5.3-7,6.1c-3.9,0.7-6.8-0.2-10.4-3.5c-3.4-3.1-4.7-8.1-3.3-12.7
	c0.4-1.5,0.8-3.1,1-3.7C87.5,146,90.1,143.8,91.9,143.7L91.9,143.7z M72,146.2c-1.8,0-2.7,1.6-1.9,3.4c0.3,0.8,0.8,1.4,1.1,1.4
	c0.7,0,1.6-1.4,1.9-3.2C73.4,146.5,73.2,146.2,72,146.2L72,146.2z M61.5,148c0.7,0,1.1,0.4,0.9,1.2c-0.2,0.9-0.8,1.2-2.3,1.2
	c-2.5,0-3.1-0.8-1.1-1.7c0.9-0.4,1.7-0.6,2.2-0.7C61.3,148,61.4,148,61.5,148L61.5,148z M307.6,150.4c-0.1,0-0.1,0-0.2,0.2
	c-0.3,0.4-0.5,1.2-0.5,1.8c0,0.6,0.2,1.1,0.5,1.3c0.3,0.2,0.5-0.6,0.5-1.8C307.9,151,307.8,150.5,307.6,150.4L307.6,150.4z
	 M99.8,151.7c0.2,0.1,0.4,0.5,0.7,1.3c0.7,1.8,1.9,2.2,1.9,0.6c0-0.8,0.1-0.9,0.5-0.2c0.3,0.5,0.4,1.2,0.2,1.6
	c-0.2,0.4-1.1,0.8-2,0.8c-2.2,0-3.3-1.7-2.1-3.4C99.4,151.9,99.7,151.7,99.8,151.7z M47.8,153.1c-0.9,0-1.2,0.2-1.2,0.7
	c0,0.5-0.7,1.1-1.5,1.4c-1.7,0.7-2.1,3-0.6,4.2c0.9,0.7,1.2,2.5,0.6,3.1c-0.2,0.2-1.3,0-2.5-0.5c-3-1.3-3.9-0.9-4.1,1.7
	c-0.2,1.8,0,2.3,1.2,2.8c1,0.5,1.5,1.2,1.6,2.6c0.2,2.6,1.9,2.9,3.6,0.8c1.4-1.8,2.7-1.9,4.5-0.7c0.7,0.5,1.3,0.7,1.5,0.6l-1.4-1.3
	c-0.8-0.7-1.3-1.4-1.1-1.6c0.1-0.1,0.8,0.5,1.4,1.3l1.1,1.5c0,0,0,0,0,0c0.2-0.2,1,0.6,1.8,1.7c2.4,3.2,2.5,4,0.4,1.5
	c-2-2.2-2-2.3-2.1-0.8c-0.1,1.1,0.2,1.6,1.2,1.7c0.8,0.1,1.4,0.8,1.7,1.7c0.4,1.5,0.4,1.5,1.4-0.7c0.5-1.2,1.4-2.3,1.9-2.5
	c0.9-0.4,1.3-1.7,0.4-1.4c-0.7,0.2-3.4-3.1-3.3-3.9l1.4,1.6c0.8,1,1.6,1.9,1.7,2c0.1,0.1,0.1,0,0.1-0.3c0-0.3-0.7-1.2-1.6-2
	l-1.5-1.3c0,0,0,0,0,0l-0.1-0.2l0.2,0.1c0,0,0-0.1,0.1-0.1c0.3-0.2,1.4,0.6,2.4,1.8c1.5,1.7,2.1,2,2.7,1.4c0.6-0.5,0.7-1,0.3-1.9
	c-0.3-0.6-0.5-1.1-0.3-1.1c0.2,0-0.1-0.6-0.6-1.4c-0.7-1.1-0.8-1.5-0.2-1.7c0.6-0.2,0.4-0.8-0.7-2l-1.5-1.7l1.8,1.6
	c1,0.9,2.1,1.5,2.5,1.3c1-0.3,1-2.1,0-3.1c-0.4-0.4-0.5-0.7-0.3-0.7c0.2,0,0.2-0.5-0.2-1.2c-0.8-1.6-2.6-1.5-3.7,0.1
	c-0.9,1.3-0.9,1.3-2.5,0.3c-0.9-0.6-1.6-1.5-1.6-2.1c0-1.9-1.5-3.2-3.8-3.4C48.4,153.1,48,153.1,47.8,153.1L47.8,153.1z
	 M306.5,154.3c-0.3,0.1-0.2,0.7,0.2,1.8c0.4,1,1.4,1.3,1.4,0.5c0-0.3-0.4-1-0.9-1.6C306.9,154.4,306.7,154.3,306.5,154.3
	L306.5,154.3z M306,156.8c-0.1,0-0.1,0.1-0.1,0.3c0,0.5,0.4,1.6,0.9,2.4c0.5,0.9,0.9,1.1,0.9,0.6c0-0.5-0.4-1.6-0.9-2.4
	C306.4,157.1,306.1,156.8,306,156.8z M58.4,158.6c0.1,0.1,0.4,0.3,0.8,0.8c0.7,0.8,1.2,1.8,1.2,2.1c0,0.6-0.8-0.4-1.8-2.4
	C58.3,158.7,58.2,158.6,58.4,158.6L58.4,158.6z M52.8,159.8c0.4,0.1,1.3,0.7,2.8,2c1.5,1.3,2.4,2.4,2.2,2.4c-0.3,0-0.1,0.7,0.5,1.6
	c0.6,0.9,0.7,1.4,0.4,1.2c-0.4-0.2-0.7-0.1-0.7,0.2c0,0.3,0.3,0.8,0.6,1c0.3,0.2,0.6,0.7,0.6,1s-1-0.5-2.3-1.9
	c-3.2-3.7-3.7-4.9-1-2.4c2.6,2.3,1.7,0.9-1.5-2.5C52.8,160.6,52.4,159.7,52.8,159.8L52.8,159.8z M114.4,161.5c0.4,0,0.8,0.2,1.5,0.6
	c1.2,0.8,1.5,1.4,1.5,4c0,1.7-0.3,3.5-0.6,4.2c-0.3,0.6-1,1.2-1.4,1.2c-1.3,0-3.2-1.7-4-3.6c-1-2.3-0.4-4.4,1.5-5.7
	C113.6,161.7,114,161.5,114.4,161.5z M55.1,161.8c-0.2,0,0.2,0.5,0.8,1.2c0.6,0.7,1.2,1.2,1.4,1.2c0.2,0-0.2-0.5-0.8-1.2
	C55.9,162.4,55.2,161.8,55.1,161.8z M71.8,162.7c-0.6,0-0.9,1-1,3.5c-0.1,2.4,0.1,3.9,0.7,4.8c0.8,1.2,0.9,1.1,1-1.9
	C72.7,162.9,72.7,162.7,71.8,162.7z M114.7,163.9c-0.2,0-0.3,0-0.5,0.1c-1.5,0.6-1.8,2.4-0.8,4.1c1.2,1.9,2.7,2.5,2.7,1.1
	c0-0.6,0.2-1.6,0.3-2.2C116.9,165.5,115.8,163.9,114.7,163.9z M52.1,168.2c0.4,0.1,1.1,0.6,2.1,1.6c1.3,1.3,1.9,2.4,1.6,2.8
	c-0.3,0.5-1,0-2.4-1.6C51.9,169.2,51.5,168.1,52.1,168.2z M52,168.4c0,0,0.1,0.3,0.5,0.8c0.8,1,1.3,1.3,1.3,0.8c0-0.1-0.5-0.6-1-1.1
	C52.2,168.6,52,168.4,52,168.4L52,168.4z M65.8,168.9c-0.6,0-1.2,0.1-1.9,0.5c-3.5,1.8-8,8.3-8.7,12.6c-0.2,1.3-0.5,2.9-0.7,3.4
	c-0.3,1.2-0.4,1.2,4.3,0.1c2-0.5,4.3-0.7,5.2-0.6c0.9,0.2,1.8,0.1,2-0.1c0.2-0.2,1.5-0.3,2.8-0.2c1.3,0.1,2.4,0,2.4-0.2
	c0-0.2-0.6-1.3-1.3-2.3c-0.9-1.3-1-1.6-0.3-1.1c0.6,0.5,1,0.6,1,0.3c0-0.3,0.9,0.3,1.9,1.3c1.1,1,1.6,1.3,1.1,0.7
	c-0.4-0.6-0.6-1.3-0.3-1.7c0.3-0.4,0.2-0.6-0.2-0.3c-0.3,0.2-1.1-0.2-1.7-1l-1.1-1.3l1.4,1.1c1.6,1.4,1.8,0.7,0.3-1.1
	c-1-1.2-1-1.2,0-0.4c0.6,0.4,1,0.6,1,0.4c0-0.7,1.7,0.9,3,2.7c0.9,1.2,0.9,1.6,0.3,1.6c-0.5,0-0.7-0.3-0.5-0.6
	c0.2-0.3,0.1-0.4-0.3-0.2c-0.4,0.3-0.6,0.1-0.4-0.4c0.2-0.5-0.1-1.2-0.6-1.6c-1.1-0.9-1.2,0-0.2,1.1c0.6,0.7,0.6,0.7-0.1,0.3
	c-0.6-0.3-0.6-0.1,0.1,0.6c1.4,1.5,4.2,1.7,3.5,0.3c-0.6-1.2-5.7-6.7-5.1-5.6c0.5,1.1,0,0.9-1-0.3c-0.5-0.6-0.5-0.8-0.1-0.6
	c1.1,0.7,1.5-0.6,0.4-1.5c-0.5-0.4-1.6-1.8-2.4-3.1C68.4,170,67.1,169,65.8,168.9L65.8,168.9z M88.9,169.4c0.4,0,0.8,0.3,1.4,0.9
	c1.2,1.1,1.3,1.8,1.2,4.7c-0.1,2.3,0.1,3.8,0.8,4.9c1.2,1.8,1.9,4.8,1.2,4.8c-0.3,0-0.8-0.9-1.2-2.1c-1-2.8-2.3-2.6-3.7,0.4
	c-1.5,3.2-1.6,5.1-0.3,4.1c0.8-0.6,0.9-0.4,0.8,1.3c0,1.1,0,3.2,0,4.6l0.1,2.6l2.3-0.3c1.2-0.2,2.4-0.3,2.7-0.3
	c0.8,0-2.1-9.3-3.2-10.3c-1.2-1.1-0.7-2,0.6-1.1c1.1,0.7,4.2,10,3.8,11.7c-0.3,1.3-0.7,1.5-3.7,1.9c-1.9,0.2-3.9,0.5-4.6,0.6
	c-0.7,0.1-1.4,0.2-1.6,0.3c-1,0.2-0.4-1.1,0.8-1.4c1-0.3,1.2-0.9,1.2-4.1c0-2-0.2-3.4-0.4-3c-0.5,1.3-1.4,0.2-1.4-1.7
	c0-1,0.5-3.1,1.2-4.7l1.2-3l-2.1-2.1c-1.8-1.8-2.1-2.4-1.8-4c0.5-2.3,1.4-3.5,2.7-3.5c0.6,0,1.3-0.3,1.6-0.6
	C88.5,169.5,88.7,169.4,88.9,169.4L88.9,169.4z M102.8,170.6c0.2,0,0.5,0,0.7,0.1c2.1,0.5,3,1.9,2.7,4.4c-0.1,1.4,0.2,2.5,0.9,3.3
	c1.8,1.9,2.6,4.6,1.6,5.2c-0.7,0.4-0.7,1.2,0.1,5l0.9,4.6l1.9-0.2c1.7-0.2,1.9-0.4,2-2.7c0.1-1.7-0.1-2.9-0.8-3.5
	c-1.1-1.1-1.3-5.7-0.2-6.7c0.6-0.6,0.6-0.7,0-0.7c-1,0-0.9-1.5,0.2-3.6c0.5-1,1.4-1.8,2.1-1.8c0.6,0,1.4-0.4,1.7-1
	c0.5-0.8,0.7-0.7,1.7,0.8c1.6,2.3,2.7,8.5,2.4,14.2c-0.2,4.3-0.1,4.7,1,4.7c1.2,0,1.2,0,0,0.9c-0.9,0.7-2.7,0.8-8.7,0.7
	c-4.1-0.1-7.5-0.3-7.5-0.3c0-0.3-0.2-4-0.3-5.2c-0.2-2.4-1.4-0.7-1.5,2c0,1.6-0.3,2.2-0.9,2.2c-1.3,0-1.5-3.6-0.3-5.4
	c1.2-1.8,2.3-1.9,3.6-0.1c0.9,1.3,1,1.3,0.6-1.1c-0.8-4.8-2.3-5.8-4-2.6c-0.8,1.6-1,1.8-1.4,0.9c-0.6-1.4,1.4-4.7,3.3-5.7
	c1.5-0.7,1.5-0.7-0.5-0.8c-2.3,0-4.9-2.3-4.9-4.2C99.4,172.2,101.1,170.6,102.8,170.6L102.8,170.6z M87,171.1
	c-0.2,0-0.4,0.1-0.5,0.2c-1.1,2-0.9,3.8,0.5,5.2c0.8,0.8,1.6,1.5,1.7,1.5c0.6,0,1.5-3.3,1.2-4.5C89.7,172.5,87.9,171.1,87,171.1z
	 M102.9,172.8c-0.8,0.1-1.2,0.9-0.9,2.1c0.4,1.3,1.8,2.1,2.4,1.5c0.7-0.7,0.3-3-0.6-3.4c-0.2-0.1-0.3-0.1-0.5-0.1
	C103.2,172.8,103,172.8,102.9,172.8L102.9,172.8z M116.9,174.4c-0.3,0-1,0.4-1.6,0.8c-0.9,0.7-1.2,1.7-1.2,4.7c0,2.2,0.2,4,0.6,4.2
	c0.4,0.2,0.7,2.2,0.8,4.4c0.1,2.2,0.2,4.1,0.3,4.2c0.1,0.1,0.5-0.2,0.9-0.6c0.4-0.5,0.7-2.3,0.7-4.5c-0.1-3.7,0.6-6,0.8-2.5
	c0,1,0.1,2.2,0.2,2.5c0.1,0.3,0.2,1.5,0.2,2.7c0,1.2,0.3,2.1,0.7,2.1c0.3,0,0.5-0.3,0.3-0.8c-0.1-0.4-0.4-3.9-0.6-7.8
	C118.6,177.4,118,174.4,116.9,174.4L116.9,174.4z M51.6,175.2L51.6,175.2c-1.2,0-1.1,1.2,0.2,2.4c1.5,1.4,2.3,1.2,1-0.2
	c-0.6-0.6-0.9-1.4-0.7-1.7C52.4,175.5,52.1,175.2,51.6,175.2L51.6,175.2z M47.4,175.8c0,0,0.1,0,0.2,0.1c2.7,3.1,3.3,3.9,3.6,5.3
	c0.4,2.1,0.1,2-1.9-0.7c-0.9-1.2-1.2-1.9-0.7-1.4c0.6,0.5,1,0.6,1,0.2c0-0.4-0.3-0.8-0.6-1c-0.3-0.2-0.9-1-1.3-1.7
	C47.4,176.1,47.3,175.8,47.4,175.8L47.4,175.8z M48.2,186.1c-0.2,0,0,0.4,0.6,1.3c1.5,2.1,3.2,3.6,3.2,2.9c0-0.3-0.6-1.1-1.3-1.9
	c-1.2-1.3-1.2-1.4-0.2-1c1.1,0.4,1.1,0.3,0.3-0.6c-0.6-0.7-1-0.8-1.1-0.4c-0.2,0.5-0.5,0.5-1.2-0.1
	C48.3,186.2,48.2,186.1,48.2,186.1L48.2,186.1z M40.4,190.9l1.9,2c1.4,1.5,1.9,1.7,1.9,0.9c0-2.4,1.7,0.8,2,3.7
	c0.2,1.6,0.9,4.6,1.6,6.6c0.7,2,1.5,4.3,1.8,5.3c0.4,1.2,0.3,1.6-0.3,1.6c-1.1,0-4.2-8.5-4.9-13.4c-0.1-0.9-1.1-2.8-2.1-4.2
	L40.4,190.9z M45.7,191.6c-0.1,0,0,0.2,0.1,0.5c0.9,1.9,2.4,3.7,2.5,2.9c0-0.4-0.7-1.5-1.5-2.4C46.2,191.9,45.8,191.6,45.7,191.6z
	 M90.4,192.4c0.3,0,0.6,0.4,0.6,0.9c0,0.5-0.3,0.8-0.6,0.6c-0.3-0.2-0.6-0.6-0.6-0.9C89.8,192.7,90,192.4,90.4,192.4z M40.3,192.7
	c0.1,0,0.4,0.3,0.9,0.9c0.7,0.8,1.2,1.7,1.2,2.1c0,0.7-0.8-0.3-1.8-2.3C40.3,192.9,40.2,192.6,40.3,192.7L40.3,192.7z M72,193.8
	c0,0,0.1,0,0.2,0.1c0.4,0.2,1.6,1.5,2.7,2.9c1.1,1.4,1.7,2.3,1.2,2.1c-0.4-0.3-0.8-0.2-0.8,0.2c0,0.5-0.2,0.5-0.9-0.1
	c-0.5-0.4-0.8-1.1-0.6-1.6c0.2-0.5,0.1-0.7-0.4-0.4c-0.4,0.3-0.5,0.2-0.2-0.3c0.3-0.4,0-1.3-0.7-2C72.1,194.2,71.9,193.8,72,193.8
	L72,193.8z M74.8,194.2c0,0,0.2,0.3,0.5,0.8c0.8,1,1.3,1.3,1.3,0.8c0-0.1-0.5-0.6-1.1-1.1C75,194.4,74.8,194.2,74.8,194.2z
	 M70.5,194.8c0.2,0,0.4,0.2,0.6,0.5c0.3,0.4,0.7,0.7,1,0.6c0.3-0.1,0.6,0.5,0.7,1.3v0c0.2,1.5,0.2,1.5-1.3-0.3
	c-0.8-1-1.3-1.9-1.2-2.1C70.4,194.8,70.4,194.8,70.5,194.8L70.5,194.8z M96.4,197.9c0.2,0,0.4,0,0.7,0.1c0.5,0.2,0.3,0.3-0.4,0.4
	c-0.6,0-1-0.1-0.8-0.3C96,198,96.2,197.9,96.4,197.9L96.4,197.9z M99.1,197.9l3.9,0.1c3,0.1,4.4,0.5,5.9,1.5c1.1,0.8,1.9,1.7,1.9,2
	c0,0.4-0.8-0.1-1.8-1c-1.5-1.4-2.6-1.8-5.9-2.2L99.1,197.9z M183.1,199.9l1.6,2c0.9,1.1,1.5,2.2,1.3,2.5c-0.2,0.2,0.1,0.4,0.6,0.4
	c1.3,0,1.1-0.6-1.3-2.8L183.1,199.9z M186.8,201.7c-0.2,0-0.1,0.2,0.2,0.7c0.8,1,1,1,1.4,0.3c0.2-0.3-0.2-0.7-0.9-0.9
	C187.1,201.7,186.9,201.7,186.8,201.7L186.8,201.7z M294.7,202 M110.7,203.2c0.1-0.1,0,0.2-0.5,0.7c-1,1.3-3.3,1.9-12.3,3.2
	C84.8,209,80,211,73.7,217.5c-0.8,0.8-1.6,1.3-1.8,1.1c-0.5-0.5,3.9-4.9,7.4-7.2c3.5-2.3,10.5-4.2,19.4-5.1
	c6.2-0.6,10.1-1.5,11.5-2.6C110.5,203.4,110.6,203.3,110.7,203.2z M52.4,206.9c0.2,0,0.4,0.1,0.6,0.1c1.1,0.4,1,0.5-0.4,1.6
	c-2.4,1.8-3.2,1.3-1.6-0.9C51.4,207.2,51.8,206.9,52.4,206.9L52.4,206.9z M184.4,209.5c-0.2,0-0.2,0.2,0,0.6c0.4,1,0.8,1.2,0.8,0.4
	c0-0.3-0.3-0.7-0.6-0.9C184.5,209.5,184.4,209.5,184.4,209.5L184.4,209.5z M59.7,211c0.2,0.1,0.2,1.1-0.2,3.1
	c-0.7,4.4-0.5,4.6,4.4,5.8c3.2,0.7,3.9,0.7,5.5,0c1-0.5,1.8-0.7,1.8-0.4c0,0.3-0.6,0.8-1.4,1.1c-1.6,0.8-5.8,0.4-8.7-0.8
	c-2.4-1-3.1-2.8-2.4-5.9C59.1,211.8,59.5,210.9,59.7,211z M38.3,219c0.1,0,0.4,0.1,0.8,0.4c0.7,0.4,1.4,1.1,1.6,1.6
	c0.5,1.3,0.2,1.2-1.5-0.7C38.5,219.3,38.2,219,38.3,219z M47.5,235l1.7,1.8c2,2.1,2.1,2.2,2.1,0.7c0-0.7-0.7-1.4-1.9-1.8L47.5,235z
	 M69.9,270.1c0.1,0,0.2,0,0.3,0.1c1.5,0.6,1.2,1.9-0.6,2.3c-0.9,0.2-2.6,1.5-3.8,2.8c-1.3,1.3-2.8,2.4-3.6,2.4
	c-1.5,0-1.7-0.7-0.5-1.9c0.4-0.5,1-1.3,1.4-2C63.9,272.3,68.3,270,69.9,270.1L69.9,270.1z M269.5,276.2c0.3,0,0.9,0.3,1.9,0.8
	c3.6,1.9,6.8,6.3,6.8,9.7c0,2.9-1.8,1.9-4.2-2.4c-1.2-2.1-2.7-4.4-3.5-5.2c-0.7-0.8-1.3-1.8-1.3-2.4
	C269.2,276.3,269.2,276.1,269.5,276.2L269.5,276.2z M216.4,276.8l0.7,1.9c0.4,1,1.2,2,1.8,2.1c1.6,0.4,1.3-0.3-0.7-2.3L216.4,276.8z
	 M88.3,285.5c0.8,0-0.2,1.6-2.7,4.2c-1.6,1.7-3.3,3.9-3.7,4.7c-1.1,2.2-5.4,8-6.3,8.6c-0.4,0.3-0.8,0.8-0.8,1.3c0,0.4-0.4,1-0.9,1.2
	c-0.5,0.2-0.9,0.7-0.9,1.2s-0.5,1.4-1.1,2c-0.6,0.6-1.6,2.3-2.2,3.8c-0.6,1.5-1.9,4-2.8,5.6c-0.9,1.6-1.7,3.1-1.7,3.4
	c0,0.3-0.3,0.6-0.7,0.6c-0.4,0-0.5,0.4-0.3,0.9c0.2,0.5,0,1.2-0.5,1.5c-0.4,0.4-1,1.4-1.2,2.3c-0.2,0.9-0.9,1.9-1.4,2.4
	c-1.3,1-2,0.8-2.5-0.8c-0.5-1.4,3-11.1,4.1-11.5c0.4-0.1,0.7-0.8,0.7-1.5c0-1,2.9-5.5,6.3-9.6c0.5-0.6,0.9-1.2,0.9-1.4
	c0-0.2,0.3-0.7,0.8-1.1c0.4-0.4,2-2.2,3.4-4s3-3.5,3.3-3.8c0.3-0.4,1.1-1.5,1.7-2.5c1.1-1.8,6.7-6.9,8.1-7.4
	C88.1,285.5,88.2,285.5,88.3,285.5L88.3,285.5z M239.3,294.5c1.3,0,2.6,1.4,4.7,4.9c1.1,1.9,4.1,6.8,6.6,10.8
	c5.8,9.3,6.7,11.3,7.7,15.8c0.4,2,1,3.9,1.2,4.2c0.8,1.3,1.1,7.7,0.5,9.4c-0.2,0.6-0.6,1.1-0.9,1.1c-1.1,0-2.7-2.7-3.2-5.6
	c-0.3-1.7-0.7-3.8-0.9-4.6c-0.2-0.8-0.4-1.9-0.5-2.4c-0.8-4.5-1.2-6.1-1.6-6.3c-0.3-0.2-0.5-1-0.5-1.8c0-0.8-0.3-1.5-0.6-1.5
	c-0.3,0-0.6-0.3-0.6-0.7c0-1-4.6-10.4-5.6-11.4c-0.4-0.4-1.6-2.1-2.5-3.8c-1-1.6-2.4-3.8-3.1-4.9
	C238.4,295.6,238.2,294.4,239.3,294.5L239.3,294.5z"/>
	<g id="small_nodules">
		<g>
			<path class="st0" d="M202.1,49c0.2,0,0.8,0.5,1.4,1.2c0.6,0.7,1,1.2,0.8,1.2s-0.8-0.5-1.4-1.2C202.3,49.6,201.9,49,202.1,49z"/>
			<path class="st0" d="M202.2,51.6c0.1,0,0.4,0.1,0.9,0.4c0.7,0.4,1.4,1,1.6,1.3c0.3,0.5,0.1,0.5-0.8,0c-0.7-0.4-1.4-1-1.6-1.3
			C202.1,51.7,202.1,51.6,202.2,51.6L202.2,51.6z"/>
		</g>
		<g>
			<path class="st0" d="M194.2,56.8c0,0,0.3,0.2,0.8,0.5c0.6,0.5,1.1,0.9,1.1,1.1c0,0.5-0.5,0.2-1.3-0.8
			C194.3,57.1,194.1,56.9,194.2,56.8z"/>
			<path class="st0" d="M193.7,59.3c0.4,0,2.3,1.2,3,2.1c0.5,0.6,0.1,0.5-1.1-0.4C194.4,60.2,193.6,59.5,193.7,59.3
			C193.6,59.3,193.6,59.3,193.7,59.3L193.7,59.3z"/>
			<path class="st0" d="M195,63.4c0.2,0,1.1,0.5,2,1.2c0.8,0.7,1.3,1.2,1.1,1.2c-0.2,0-1.1-0.5-2-1.2C195.3,64,194.8,63.4,195,63.4
			L195,63.4z"/>
			<path class="st0" d="M196.1,66.4c0.2,0,0.8,0.5,1.4,1.2c0.6,0.7,1,1.2,0.8,1.2c-0.2,0-0.8-0.5-1.4-1.2
			C196.3,67,195.9,66.4,196.1,66.4L196.1,66.4z"/>
			<path class="st0" d="M193.7,67.6c0.2,0,0.8,0.5,1.4,1.2c0.6,0.7,1,1.2,0.8,1.2c-0.2,0-0.8-0.5-1.4-1.2S193.5,67.6,193.7,67.6z"/>
		</g>
		<g>
			<path class="st0" d="M222.7,113.1l2.6,1.9c1.4,1.1,2.5,2,2.5,2.2c0,0.5-0.6,0.2-2.8-1.9L222.7,113.1z"/>
			<path class="st0" d="M223.7,116.8c0.2,0,0.8,0.5,1.4,1.2c0.6,0.7,1,1.2,0.8,1.2c-0.2,0-0.8-0.5-1.4-1.2
			C223.9,117.4,223.5,116.8,223.7,116.8z"/>
		</g>
		<g>
			<path class="st0" d="M180.4,110.3c0.1,0,0.3,0.1,0.6,0.3c0.4,0.2,0.6,1,0.6,1.7c0,1.3,0,1.3-0.8-0.2
			C180.1,110.8,180,110.2,180.4,110.3L180.4,110.3z"/>
			<path class="st0" d="M178.6,117.5c0.2,0,0.4,0,0.7,0.1c0.5,0.2,0.3,0.3-0.4,0.4c-0.6,0-1-0.1-0.8-0.3
			C178.2,117.6,178.4,117.5,178.6,117.5L178.6,117.5z"/>
		</g>
		<g>
			<path class="st0" d="M191,184.1c0.7,0,3.8,3,4.5,4.5c0.3,0.7-0.6,0-2.1-1.5c-1.5-1.5-2.6-2.8-2.5-3
			C190.9,184.1,190.9,184.1,191,184.1L191,184.1z"/>
			<path class="st0" d="M193.6,184.6c0.2,0,1.2,0.9,2.3,2.1c1.1,1.2,1.9,2.1,1.7,2.1c-0.2,0-1.2-0.9-2.3-2.1
			C194.2,185.6,193.5,184.6,193.6,184.6z"/>
			<path class="st0" d="M188,185c0.1,0,0.5,0.4,1.3,1.1c1.1,1,2.2,2.3,2.5,2.8c0.9,1.7,0.3,1.2-2.1-1.8
			C188.5,185.7,187.9,185,188,185z"/>
			<path class="st0" d="M186.5,186.7c0.7,0,6.5,6.2,6.5,7c0,0.3-1.3-0.9-2.8-2.6c-1.5-1.7-3.1-3.4-3.4-3.6
			C186.4,187.3,186.3,186.9,186.5,186.7C186.5,186.7,186.5,186.7,186.5,186.7L186.5,186.7z"/>
			<path class="st0" d="M187,191.2c0.1,0,0.4,0.3,1,0.8c0.7,0.6,1.3,1.6,1.3,2.1c0,0.8-0.1,0.8-0.6,0.1c-0.3-0.5-0.9-1.4-1.3-2.1
			C187.1,191.5,187,191.2,187,191.2L187,191.2z"/>
		</g>
		<g>
			<path class="st0" d="M225.7,183.4c0.5,0,0.9,0.3,0.9,0.6c0,0.3-0.4,0.4-0.9,0.2c-0.5-0.2-0.9-0.5-0.9-0.6
			C224.8,183.5,225.2,183.4,225.7,183.4z"/>
			<path class="st0" d="M221.6,184.1L221.6,184.1c0.6,0,1.8,1.4,2.2,2.9c0.4,1.4,0.3,1.3-1.2-0.5c-0.9-1.1-1.5-2.2-1.3-2.4
			C221.5,184.1,221.6,184.1,221.6,184.1"/>
			<path class="st0" d="M220.2,186L220.2,186c0.2,0,0.5,0.3,1,0.7c0.7,0.6,1.2,1.5,1.2,2c0,0.7-0.2,0.7-1.2-0.2
			c-0.7-0.6-1.2-1.5-1.2-2C220,186.2,220,186,220.2,186"/>
			<path class="st0" d="M217.5,186.4c0.7,0.1,1.8,2,1.8,3.3c0,1-0.2,0.8-1.2-0.8c-0.7-1.1-1.1-2.2-0.8-2.4
			C217.4,186.4,217.4,186.4,217.5,186.4L217.5,186.4z"/>
			<path class="st0" d="M213.5,187.9L213.5,187.9c0.6,0,1.6,1.2,1.6,2c0,0.8-0.2,0.7-1.1-0.2c-0.6-0.6-1-1.4-0.8-1.6
			C213.3,187.9,213.4,187.9,213.5,187.9"/>
			<path class="st0" d="M210.7,189.1c0.7,0.1,2.1,1.6,2.1,2.4c0,0.4-0.6,0.1-1.3-0.6c-0.7-0.7-1.2-1.5-1-1.7
			C210.5,189.1,210.6,189,210.7,189.1L210.7,189.1z"/>
			<path class="st0" d="M209.4,190.2c0,0,0.1,0,0.1,0c0.1,0,0.2,0,0.2,0.1c0.3,0.2,0.6,0.6,0.6,1c0,0.3-0.3,0.4-0.6,0.2
			c-0.3-0.2-0.6-0.6-0.6-1C209.2,190.4,209.3,190.3,209.4,190.2L209.4,190.2z"/>
			<path class="st0" d="M207.7,192c0.1,0,0.2,0,0.2,0.1c0.3,0.2,0.6,0.6,0.6,1c0,0.3-0.3,0.4-0.6,0.2c-0.3-0.2-0.6-0.6-0.6-1
			C207.4,192.1,207.5,192,207.7,192L207.7,192z"/>
			<path class="st0" d="M221.6,184.1"/>
			<path class="st0" d="M220.2,186"/>
			<path class="st0" d="M213.5,187.9"/>
		</g>
		<g>
			<path class="st0" d="M307.7,84.5C307.7,84.5,307.7,84.5,307.7,84.5c0.1,0,0.3,0.2,0.6,0.4c0.5,0.4,1,0.6,1.1,0.5
			c0.1-0.1,0.3,0.4,0.3,1.3c0.1,1.6-0.2,1.4-1.7-1.3C307.7,84.8,307.6,84.5,307.7,84.5L307.7,84.5z"/>
			<path class="st0" d="M305.9,86.7C305.9,86.7,305.9,86.7,305.9,86.7c0.6,0.5,1.1,0.6,1.1,0.4c0-1.3,2,2.5,2.2,4.1l0,0
			c0.1,1,0.1,1.7,0,1.6C308,91.2,305.6,86.8,305.9,86.7L305.9,86.7z"/>
			<path class="st0" d="M305.4,88.8c0.3-0.3,3.4,4.7,3.4,5.5c0,0.3-0.8-0.8-1.8-2.4C305.9,90.4,305.2,89,305.4,88.8L305.4,88.8z"/>
			<path class="st0" d="M304.8,90.4c0.6,0,3.6,5.8,3.7,7.2c0.1,0.8,0.3,2.1,0.6,2.7c0.2,0.7-0.4-0.1-1.5-1.7c-1-1.6-1.8-3-1.6-3.2
			c0.2-0.2,0.6,0.3,1,1c0.4,0.7,0.8,1.2,1,1c0.2-0.2-0.5-1.8-1.6-3.7C305.3,91.9,304.6,90.4,304.8,90.4L304.8,90.4z"/>
			<path class="st0" d="M302.5,96c0.6,0.2,3.2,4.3,3.6,5.7c0.2,0.8,0.1,0.8-0.5-0.1C303.2,98,302.1,96.3,302.5,96
			C302.4,96,302.4,96,302.5,96L302.5,96z"/>
			<path class="st0" d="M304.9,96.7C304.9,96.7,304.9,96.7,304.9,96.7c0.4,0.4,1.5,2,2.4,3.7c0.9,1.7,1.4,2.7,1.1,2.4
			c-0.3-0.3-1.4-2-2.3-3.6C305.2,97.7,304.8,96.7,304.9,96.7L304.9,96.7z"/>
			<path class="st0" d="M301,100.6c0.1,0,0.3,0.3,0.8,0.9c1.8,2.6,4.7,8.4,3.5,6.9c-1.5-1.8-1.6-1.2-0.4,1.2c1.5,2.9,0.5,2-1.5-1.4
			c-1.1-1.7-2.3-3.8-2.8-4.5c-0.5-0.7-0.7-1.4-0.5-1.4c0.2,0,1.1,1.1,2,2.4c2.1,3.2,2.6,2.6,0.6-0.8
			C301.4,102.1,300.8,100.7,301,100.6L301,100.6z"/>
			<path class="st0" d="M301.5,107.8c0.6,0,4.3,5.5,4.3,6.3c0,0.3-0.1,0.4-0.2,0.2C303,110.9,301.1,107.8,301.5,107.8z"/>
			<path class="st0" d="M304.9,118.7c-0.3-0.4-0.5-1.5-0.6-2.4c-0.1-1.6-3.6-7.7-4.3-7.7l0,0c0,0,0,0-0.1,0c-0.1,0.1,0.4,1.3,1.2,2.6
			c2.2,3.5,2.3,3.8,2.1,3.8c-0.1,0-1-1.1-1.9-2.5c-0.9-1.4-1.8-2.3-2-2.1c-0.2,0.2,0,0.7,0.4,1.2c0.4,0.5,0.6,1.1,0.4,1.4
			c-0.2,0.3,0.3,1.8,1.2,3.3c1.7,3.1,2.6,3.8,1.1,0.9c-0.5-1-0.8-2-0.7-2.2c0.2-0.2,0.7,0.5,1.2,1.5s1.3,2,1.6,2.2
			C305.1,119.3,305.2,119.2,304.9,118.7z M301,114.7c-0.3-0.2-0.6-0.6-0.6-1c0-0.2,0.1-0.3,0.2-0.3l0,0c0,0,0.1,0,0.1,0
			c0.1,0,0.2,0,0.2,0.1c0.3,0.2,0.6,0.6,0.6,1S301.3,114.9,301,114.7z"/>
			<path class="st0" d="M297,113.4c0.8,0.1,6.4,9.7,6.3,11c0,0.3-1.5-2.1-3.3-5.2C298.2,116.2,296.8,113.6,297,113.4
			C297,113.4,297,113.4,297,113.4L297,113.4z"/>
			<path class="st0" d="M295.9,115.8c0.5,0.2,2.9,3.9,4.4,6.9c0.7,1.4,1.2,2.5,1,2.5C300.9,125.2,295.5,116.1,295.9,115.8
			C295.8,115.8,295.8,115.8,295.9,115.8L295.9,115.8z"/>
			<path class="st0" d="M295,118.8c0.4,0,3.4,4.4,4.8,7.2c0.6,1.2,1.1,2.3,0.9,2.3C300.4,128.2,295,119.5,295,118.8
			C295,118.8,295,118.8,295,118.8L295,118.8z"/>
			<path class="st0" d="M294,120.6c0.7,0.3,6.3,9.4,6.3,10.3c0,0.3-0.6-0.3-1.3-1.4c-1.9-2.9-2.1-1.8-0.3,1.4
			c0.9,1.5,1.6,3.1,1.6,3.4c0,0.8,0,0.9-3.5-5.1c-1.7-2.9-2.9-5.3-2.6-5.3s0.9,0.8,1.5,1.8c0.6,1,1.2,1.7,1.4,1.5
			c0.2-0.2-0.5-1.7-1.6-3.4C294.6,122.3,293.8,120.8,294,120.6C294,120.6,294,120.6,294,120.6L294,120.6z"/>
			<path class="st0" d="M291.5,127.3c0.3-0.3,5.8,8,7.3,11c0.5,1.1,0.9,1.9,0.7,1.9C299.1,140.2,291.2,127.6,291.5,127.3z"/>
			<path class="st0" d="M294.1,127.8c0,0,0.1,0,0.1,0c0.9,0.6,5.5,8.5,5.5,9.5c0,0.4-0.8-0.6-1.7-2.3c-0.9-1.7-2.3-4.1-3.1-5.4
			C294.3,128.6,293.9,127.8,294.1,127.8z"/>
			<path class="st0" d="M292.3,132c0.1,0,0.1,0,0.2,0.1c0.6,0.3,6.2,10.2,6.9,11.9c0.9,2.4-0.3,0.7-3.5-5c-1.9-3.3-3.5-5.9-3.7-5.8
			c-0.1,0.1,0.9,2.4,2.3,5c3.2,5.8,4.3,8.2,3.5,7.7c-0.8-0.5-0.7,0.3,0.3,2.1c0.5,0.8,0.9,1.7,0.9,1.9c0.1,1.2-0.7,0-3.6-5.3
			c-3.4-6.4-3.8-8.2-0.6-2.7c3.4,5.9,2.7,3.6-0.9-3.3c-1.9-3.5-3.1-6.2-2.8-6c0.4,0.2,0.7,0.1,0.7-0.3
			C292,132.2,292.1,132,292.3,132L292.3,132z"/>
		</g>
		<g>
			<polygon class="st0" points="291.1,142.1 291.1,142.1 291.1,142.1 		"/>
			<path class="st0" d="M289.7,145.6L289.7,145.6c0,0,0.1,0,0.1,0.1c1.4,1.1,6.3,9.6,6.3,10.8c0,0.7-0.2,0.6-0.7-0.3
			c-0.4-0.7-2-3.5-3.6-6.3C290.4,147.4,289.5,145.7,289.7,145.6"/>
			<path class="st0" d="M298,153.4c-1-2.9-6.2-11.1-6.9-11.3c-0.1,0-0.1,0.1,0,0.4c0.3,1.1,0.2,1.3-0.4,0.9c-0.4-0.3,0.3,1.4,1.6,3.7
			c1.3,2.3,2.8,5.2,3.5,6.4c1,2.1,1.6,2.7,1.6,1.9c0-0.2-0.4-1.3-0.9-2.6c-0.5-1.2-0.6-1.7-0.1-1.1c0.4,0.6,1.1,1.6,1.5,2.1
			C298.5,154.8,298.5,154.7,298,153.4z M292.9,146.2c-0.2,0-0.6-0.5-0.9-1.2c-0.4-0.7-0.5-1.2-0.3-1.2c0.2,0,0.6,0.5,0.9,1.2
			C292.9,145.7,293.1,146.2,292.9,146.2z M294.7,149.2c-0.2,0-0.6-0.5-0.9-1.2c-0.4-0.7-0.5-1.2-0.3-1.2s0.6,0.5,0.9,1.2
			C294.7,148.7,294.9,149.2,294.7,149.2z"/>
			<g>
				<path class="st0" d="M288.8,148.8c-1.6-2.4-2.7-3.9-2.8-3.8c-0.1,0.1,0.1,0.4,0.5,1.2c0.3,0.6,0.5,1.5,0.3,2
				c-0.2,0.5,1.2,3.5,3.1,6.8c1.9,3.3,3.2,5.3,3,4.4c-0.2-0.8-0.9-2.5-1.6-3.8c-1.7-3.4-0.9-2.7,1.3,1.1c1,1.8,2,3.2,2.2,3
				C295.1,159.5,292.4,154.3,288.8,148.8z M287.7,149.4c-0.4-0.4-0.6-0.9-0.4-1.1c0,0,0.1-0.1,0.2,0l0,0h0h0c0.2,0,0.4,0.3,0.6,0.8
				C288.4,149.9,288.3,150,287.7,149.4z"/>
				<polygon class="st0" points="286,145 286,145 286,145 			"/>
			</g>
			<path class="st0" d="M285,150.6L285,150.6c0.8,0.3,7.5,12.5,7.5,13.8c0,0.8-0.1,0.6-4.2-6.7C286.3,154,284.8,150.8,285,150.6
			C285,150.6,285,150.6,285,150.6"/>
			<path class="st0" d="M285,154.8L285,154.8c0.3-0.3,5.7,9.2,6.5,11.5c0.4,1.2,0.4,1.2-0.5,0C289.6,164.4,284.7,155.1,285,154.8"/>
			<path class="st0" d="M283.8,156.4c0.1,0,0.4,0.2,0.8,0.7c0.8,0.9,4,7.4,4.9,9.6c1.2,3.1,0.2,1.7-2.9-4.1
			C284.5,158.7,283.5,156.5,283.8,156.4z"/>
			<path class="st0" d="M280.7,157.8c0.1,0,0.3,0.3,0.7,0.8c1.2,1.7,6.4,11.4,6.4,12c0,0.8-0.3,0.4-3.5-5.2
			C281.8,161,280.2,157.6,280.7,157.8L280.7,157.8z"/>
			<path class="st0" d="M280.4,160.8L280.4,160.8C280.4,160.8,280.4,160.8,280.4,160.8c0.8,0.4,6.2,10.2,6.2,11
			c0,0.7-1.3-1.3-4.2-6.6C281,162.7,280.2,160.9,280.4,160.8"/>
			<path class="st0" d="M278.6,162.7L278.6,162.7C278.6,162.7,278.6,162.7,278.6,162.7c0.9,0.8,6.2,10,6.2,10.8
			c0,0.9-1.3-1.1-4.2-6.6C279.2,164.5,278.4,162.6,278.6,162.7"/>
			<path class="st0" d="M274.9,165.6c0,0,0.1,0,0.1,0c0.7,0.4,5.5,8.9,5.5,9.6c0,1-0.7,0.1-2.1-2.8c-0.9-1.7-2.1-4.1-2.8-5.2
			C275,166.3,274.7,165.6,274.9,165.6L274.9,165.6z"/>
			<path class="st0" d="M267,167.2c0.3,0,2.1,2.7,4.5,6.9l1.4,2.4l-1.4-1.6c-0.8-0.9-1.8-2.1-2.2-2.7c-0.9-1.3-0.7-0.3,0.7,2.9
			c1.5,3.5,0.5,2.6-1.2-1c-0.8-1.8-1.3-3.6-1.1-3.9c0.2-0.3,0.1-1.1-0.3-1.8C267,167.8,266.9,167.2,267,167.2L267,167.2z"/>
			<path class="st0" d="M273.6,167.4c0.3-0.3,5.2,8.5,5.2,9.2c0,0.7-1.3-1.4-3.5-5.4C274.2,169.3,273.4,167.6,273.6,167.4z"/>
			<path class="st0" d="M270.5,168.1c0.3-0.3,4.6,7.7,4.6,8.6c0,0.3-1.1-1.5-2.4-3.9C271.4,170.3,270.4,168.2,270.5,168.1z"/>
			<path class="st0" d="M264.6,170.4c0.1,0,0.1,0,0.2,0.1c0.6,0.4,3.7,6.5,3.7,7.2c0,0.9-0.6,0.1-1.8-2.5c-0.7-1.6-1.6-3.4-1.9-4
			C264.5,170.6,264.5,170.4,264.6,170.4L264.6,170.4z"/>
			<path class="st0" d="M259.9,176.4L259.9,176.4c0.1,0,0.2,0.2,0.2,0.6c0,0.6-0.1,1-0.3,0.8c-0.2-0.2-0.2-0.7,0-1.1
			C259.8,176.5,259.9,176.4,259.9,176.4"/>
			<path class="st0" d="M286,145"/>
			<path class="st0" d="M289.7,145.6"/>
			<path class="st0" d="M287.4,148.3"/>
			<path class="st0" d="M285,150.6"/>
			<path class="st0" d="M285,154.8"/>
			<path class="st0" d="M280.4,160.8"/>
			<path class="st0" d="M278.6,162.7"/>
			<path class="st0" d="M259.9,176.4"/>
		</g>
		<g>
			<path class="st0" d="M296.1,170.8c0.1,0,0.4,0.2,0.7,0.6c0.4,0.6,0.6,0.6,0.6,0.1c0-0.4,0.3-0.8,0.6-0.8c0.3,0,0.6,0.6,0.6,1.2
			c0,0.7-0.3,1.1-0.6,0.9c-0.3-0.2-0.8,0-1,0.4c-0.3,0.5-0.6,0.3-0.8-0.7C295.9,171.5,295.9,170.8,296.1,170.8L296.1,170.8z"/>
			<path class="st0" d="M294.7,173.4c0.1,0,0.2,0.2,0.2,0.6c0,0.6-0.1,1-0.3,0.8c-0.2-0.2-0.2-0.7,0-1.1
			C294.6,173.5,294.7,173.4,294.7,173.4L294.7,173.4z"/>
		</g>
		<g>
			<path class="st0" d="M297.6,191.6c0.5,0.1,3.1,5.8,3.6,8c0.2,0.8-0.6-0.5-1.8-2.9C298.3,194.3,297.4,192,297.6,191.6
			C297.5,191.6,297.6,191.6,297.6,191.6L297.6,191.6z"/>
			<path class="st0" d="M297.1,196c0.5,0,3.3,6.5,3.2,7.7c0,1.1,0,1.2-2.3-4.5C297.3,197.4,296.9,196,297.1,196z"/>
			<path class="st0" d="M294.7,202L294.7,202c0.4,0,3.9,7.7,3.8,8.6c0,0.4-0.4,0-0.9-0.9C296.4,207.5,294.3,202,294.7,202"/>
			<path class="st0" d="M290.5,214.1c0.2,0,0.5,0.5,0.8,1.2c0.3,0.8,1,2.5,1.5,3.8s1,2.6,1,3c0,1.3-1.1-0.5-2.3-4
			C290.7,216.1,290.3,214.3,290.5,214.1C290.5,214.1,290.5,214.1,290.5,214.1L290.5,214.1z"/>
			<path class="st0" d="M289.9,219c0.5,0.1,2.1,3.7,2,4.8c0,0.4-0.6-0.4-1.2-1.8C290,220.5,289.6,219.2,289.9,219
			C289.8,219,289.9,219,289.9,219z"/>
			<path class="st0" d="M288.9,221.5l0.9,1.5c0.5,0.8,0.9,1.9,0.9,2.4c0,0.8-0.1,0.8-0.5,0c-0.3-0.5-0.7-1.6-0.9-2.4L288.9,221.5z"/>
			<path class="st0" d="M287.4,222.7c0.4-0.2,2.1,3.8,2.1,5.1c0,0.5-0.6-0.2-1.2-1.7C287.7,224.6,287.2,223.1,287.4,222.7
			C287.4,222.7,287.4,222.7,287.4,222.7L287.4,222.7z"/>
			<path class="st0" d="M283.1,232.1c0.1,0,0.2,0.2,0.4,0.6c0.3,0.5,0.7,1.8,0.9,2.9c0.2,1.1,0.2,1.9-0.2,1.9c-0.6,0-1.3-2.8-1.3-4.7
			C283,232.3,283,232.1,283.1,232.1L283.1,232.1z"/>
			<path class="st0" d="M274.9,240.5c0.6,0.3,2.6,5.3,2.6,6.7c0,0.7-0.7-0.4-1.5-2.5c-0.8-2.1-1.3-4-1.2-4.1
			C274.9,240.5,274.9,240.5,274.9,240.5L274.9,240.5z"/>
			<path class="st0" d="M272.8,241c0.6,0,2.1,3.8,2.7,6.6c0.7,3.3-0.6,1.4-1.9-2.8C272.9,242.7,272.5,241,272.8,241z"/>
			<path class="st0" d="M271.5,244c0.6,0,3.1,6.7,3.1,8.2c0,0.4-0.2,0.8-0.5,0.8c-0.3,0-0.8-1.6-1.3-3.4c-0.4-1.9-1-3.9-1.3-4.5
			C271.1,244.4,271.1,244,271.5,244L271.5,244z"/>
			<path class="st0" d="M269.2,247.1c0.1,0,0.3,0.2,0.7,0.8c1,1.4,2.3,4.9,2.2,6.2c0,1.1-2.2-3.5-2.7-5.9
			C269.2,247.6,269.1,247.2,269.2,247.1L269.2,247.1z"/>
			<path class="st0" d="M265.1,251.6c0.5-0.1,2.8,5.3,2.9,6.8c0,0.8-0.1,1.3-0.2,1.2c-0.5-0.5-2.8-6.9-2.7-7.7
			C265,251.7,265.1,251.6,265.1,251.6L265.1,251.6z"/>
			<path class="st0" d="M269.3,251.6c0.4-0.2,1.6,2.8,1.6,4.1c0,0.8-0.3,0.6-0.9-0.8c-0.5-1.1-0.9-2.5-0.8-3
			C269.2,251.7,269.3,251.7,269.3,251.6L269.3,251.6z"/>
			<path class="st0" d="M262.1,251.7c0.5-0.1,2.7,4.9,3.1,7.3l0.4,2.1l-1-2.1c-2-4.2-2.6-6.1-2.6-7.1
			C262,251.8,262.1,251.8,262.1,251.7L262.1,251.7z"/>
			<path class="st0" d="M269.1,256.6c0,1.4-0.1,1.3-0.9-0.6c-0.7-1.9-1-2.9-0.7-2.8h0c0.1,0,0.4,0.3,0.7,0.7
			C268.8,254.5,269.1,255.8,269.1,256.6L269.1,256.6"/>
			<path class="st0" d="M260.6,254.9c0.6,0.2,2.6,4.9,2.6,6.2c0,0.7-0.7-0.4-1.5-2.4C260.9,256.8,260.3,255.1,260.6,254.9
			C260.5,254.9,260.5,254.9,260.6,254.9L260.6,254.9z"/>
			<path class="st0" d="M250.7,258.7c0.4-0.4,2.8,6,2.8,7.3c0,0.5-0.1,0.9-0.3,0.9C252.9,266.8,250.4,259,250.7,258.7L250.7,258.7z" />
			<path class="st0" d="M259.6,259c0.3,0.1,0.6,1,0.8,3.1l0.3,2.7l-0.9-2.7c-0.5-1.5-0.8-2.8-0.6-3C259.4,259,259.5,258.9,259.6,259
			L259.6,259z"/>
			<path class="st0" d="M249.2,259.1c0.7,0,2,4.2,2.3,7.3l0.3,3.8l-1.5-5.4c-0.8-3-1.4-5.5-1.3-5.6
			C249.1,259.1,249.1,259.1,249.2,259.1L249.2,259.1z"/>
			<path class="st0" d="M257.8,261.4c0.1,0,0.3,0.2,0.6,0.7c0.3,0.5,0.5,1.7,0.5,2.7c0,1.7-0.1,1.7-0.8-0.6
			C257.6,262.4,257.5,261.4,257.8,261.4L257.8,261.4z"/>
			<path class="st0" d="M255.4,261.7l0.9,1.8c0.5,1,0.9,2.2,0.9,2.7c0.1,1.7-1.1-0.3-1.5-2.4L255.4,261.7z"/>
			<path class="st0" d="M269.1,256.6"/>
		</g>
		<g>
			<path class="st0" d="M241.4,270.3c0.3,0.1,0.7,1.5,1,3.7c0.3,1.7,0.2,2.5-0.1,2.1c-0.3-0.3-0.7-1.9-0.9-3.6
			C241.1,270.9,241.2,270.2,241.4,270.3L241.4,270.3z"/>
			<path class="st0" d="M222.2,270.5c0.5,0.1,1.8,3.5,2.3,5.9c0.7,3.2-0.6,1.5-1.7-2.4C222.2,272.3,221.9,270.7,222.2,270.5
			C222.1,270.5,222.1,270.5,222.2,270.5L222.2,270.5z"/>
			<path class="st0" d="M225.1,270.5c0.5,0.1,1.8,3.6,2.2,6.1l0,0c0.2,1.3,0.1,2.1-0.2,1.9c-0.3-0.2-0.6-0.8-0.6-1.4
			s-0.4-2.2-0.9-3.7C225.2,272,224.9,270.7,225.1,270.5C225.1,270.5,225.1,270.5,225.1,270.5L225.1,270.5z"/>
			<path class="st0" d="M221.1,271.6c0.7,0,1.9,4.8,1.4,5.6c-0.3,0.4-1.5-3.1-1.9-5.5C220.6,271.7,220.8,271.6,221.1,271.6
			L221.1,271.6z"/>
			<path class="st0" d="M201.4,272.2C201.5,272.2,201.5,272.2,201.4,272.2c0.2,0.1,0.5,0.6,1.1,1.8c0.7,1.4,0.7,1.4-0.2,0.3
			c-0.5-0.6-0.9-1.4-0.9-1.7C201.4,272.4,201.4,272.3,201.4,272.2L201.4,272.2z"/>
			<path class="st0" d="M230,272.5c0,0,0.1,0,0.1,0.1c0.3,0.3,0.7,1.7,0.9,3c0.2,1.6,0.2,2.1-0.2,1.5
			C230.1,275.8,229.5,272.3,230,272.5L230,272.5z"/>
			<path class="st0" d="M228.5,273.2c0.3,0,0.9,1.4,1,2.4c0,0.3-0.2,0.2-0.5-0.3c-0.3-0.5-0.6-1.3-0.5-1.8
			C228.4,273.3,228.5,273.2,228.5,273.2L228.5,273.2z"/>
			<path class="st0" d="M200.4,274c0.4,0,2.8,3.9,2.8,4.5c0,0.6-0.1,0.5-1.7-2.3C200.7,275,200.2,274,200.4,274z"/>
			<path class="st0" d="M207.9,274.6c0.6,0,3,3.7,3,4.5c0,0.6-0.3,0.3-2-2.3C208.1,275.6,207.6,274.6,207.9,274.6z"/>
			<path class="st0" d="M210,274.8L210,274.8c0.6,0.2,3.3,4.3,3.3,5.2c0,0.5-0.8-0.5-1.8-2.1c-1-1.6-1.7-3-1.6-3.1
			C210,274.8,210,274.8,210,274.8L210,274.8z"/>
			<path class="st0" d="M198.6,274.8c0.7,0.2,3.3,4.6,3.3,5.6c0,0.6-0.8-0.4-1.8-2.1c-1-1.8-1.7-3.3-1.6-3.5
			C198.6,274.8,198.6,274.8,198.6,274.8L198.6,274.8z"/>
			<path class="st0" d="M191.9,278.3C191.9,278.3,191.9,278.3,191.9,278.3c0.2,0,0.4,0.2,0.7,0.5c0.5,0.5,1,1.1,1,1.4
			c0,0.9-0.5,0.6-1.3-0.8C191.9,278.6,191.8,278.3,191.9,278.3L191.9,278.3z"/>
			<path class="st0" d="M188.2,278.8c0-0.1,0.3,0.1,0.8,0.5c0.6,0.5,1.1,1.1,1.1,1.5c0,0.3-0.1,0.5-0.2,0.4c-0.1-0.1-0.6-0.8-1.1-1.5
			C188.3,279.2,188.1,278.9,188.2,278.8L188.2,278.8z"/>
			<path class="st0" d="M186.2,279.7c0.1,0,0.1,0,0.2,0.1c0.3,0.2,0.6,0.6,0.6,0.9c0,0.9-0.4,0.7-0.8-0.4
			C186,279.9,186,279.7,186.2,279.7L186.2,279.7z"/>
			<path class="st0" d="M203.1,280c0.3,0,0.6,0.3,0.6,0.6c0,0.3-0.1,0.6-0.3,0.6s-0.4-0.3-0.6-0.6C202.7,280.3,202.8,280,203.1,280
			L203.1,280z"/>
		</g>
		<path class="st0" d="M198.5,203.8c0.5,0,1.3,0.5,1.9,1.1c1,1.1,0.9,1.3-0.3,3.7c-1.2,2.3-2,8.8-2.3,19.4c0,0.6-0.2,1.1-0.4,1.1
		c-0.6,0,0.4-15.7,1.1-18c0.4-1.2,1-2.7,1.5-3.4c0.8-1.2,0.7-1.4-0.8-2.6C198.2,204.3,197.9,203.8,198.5,203.8L198.5,203.8z"/>
		<g>
			<path class="st0" d="M190.3,213.3c0.1,0,0.1,0.4,0.1,1l0,0c0,1-0.1,1.5-0.3,1.1c-0.2-0.4-0.2-1.2,0-1.8
			C190.2,213.4,190.3,213.3,190.3,213.3L190.3,213.3z"/>
			<path class="st0" d="M190.3,217.5c0.1,0,0.1,0.4,0.1,1l0,0c0,1-0.1,1.5-0.3,1.1c-0.2-0.4-0.2-1.2,0-1.8
			C190.2,217.6,190.3,217.5,190.3,217.5L190.3,217.5z"/>
		</g>
		<g>
			<path class="st0" d="M182.2,202c0,0,0.3,0.2,0.8,0.5c0.6,0.5,1.1,0.9,1.1,1c0,0.5-0.5,0.2-1.3-0.8
			C182.3,202.3,182.1,202.1,182.2,202z"/>
			<path class="st0" d="M177.8,208.2c0.1,0,0.3,0,0.4,0c1.5,0.2,5,4,4.9,5.3c-0.1,0.9-0.7,0.5-3-1.9
			C177.5,208.8,177,208.2,177.8,208.2z"/>
		</g>
		<g>
			<path class="st0" d="M187.1,261c0.2,0,0.6,0.3,1.4,1.2c0.8,0.9,1.5,2,1.5,2.4c0,0.4-0.7-0.1-1.5-1.1
			C187.2,262.1,186.8,261.1,187.1,261z"/>
			<path class="st0" d="M193.2,264c0.2,0,0.7,0.4,1,1.1c0.7,1.3,0.7,1.4-0.4,0.4C193.2,264.9,192.9,264.3,193.2,264
			C193.1,264.1,193.2,264.1,193.2,264L193.2,264z"/>
			<path class="st0" d="M197.4,264.6c0,0,0.1,0,0.1,0c0.1,0,0.2,0,0.2,0.1c0.3,0.2,0.6,0.6,0.6,1c0,0.3-0.3,0.4-0.6,0.2
			c-0.3-0.2-0.6-0.6-0.6-1C197.2,264.8,197.3,264.7,197.4,264.6L197.4,264.6z"/>
		</g>
		<g>
			<path class="st0" d="M56,239.5c0.2,0,0.5,0.5,1,1.5c0.5,1.2,1,1.8,1,1.3c0.1-1.8,1.9-0.5,3,2c0.7,1.5,1.2,2.8,1.2,2.9
			c0,0.7-4.3-2-4.5-2.8c-0.2-0.6-0.6-0.9-0.9-0.8c-0.7,0.4-1.4-2.2-1-3.7C55.8,239.7,55.9,239.5,56,239.5L56,239.5z"/>
			<path class="st0" d="M62.3,243c0.1,0,0.2,0.3,0.4,1.1c0.3,0.8,0.5,2,0.5,2.7c0,1-0.1,1-0.5,0.3c-0.3-0.5-0.6-1.7-0.5-2.7
			C62.3,243.4,62.3,243,62.3,243L62.3,243z"/>
			<path class="st0" d="M64.2,243.7c0.2,0.1,0.7,1.1,1.1,2.5c0.5,1.5,0.7,2.6,0.4,2.4C65.1,248.1,63.7,244.1,64.2,243.7
			C64.2,243.6,64.2,243.6,64.2,243.7L64.2,243.7z"/>
			<path class="st0" d="M67,244.8c0,0,0.1,0,0.1,0c0.3,0.1,0.9,1.2,1.4,2.4c0.8,2.2,0.6,2.6-0.7,1.8C67,248.4,66.4,245,67,244.8
			L67,244.8z"/>
			<path class="st0" d="M71.9,246.4c0.2,0,0.7,0.9,1.4,2.6c0.5,1.2,0.8,2.2,0.6,2.2c-0.3,0-2.1-3.8-2.1-4.6
			C71.8,246.5,71.8,246.4,71.9,246.4L71.9,246.4z"/>
			<path class="st0" d="M70.6,246.4c0.3,0,0.6,0.9,0.6,1.9c0,2.2-0.3,2.1-0.8-0.3C70.1,247.1,70.2,246.4,70.6,246.4L70.6,246.4z"/>
			<path class="st0" d="M74.3,247.8c0.1,0,0.3,0.4,0.7,1.1c0.5,0.8,0.9,1.9,0.9,2.4c0,0.7-0.2,0.6-0.9-0.3c-0.5-0.6-0.9-1.7-0.9-2.4
			C74.2,248,74.2,247.7,74.3,247.8L74.3,247.8z"/>
			<path class="st0" d="M76.6,248.5c0.4,0,1.1,1.4,1.1,2.6c0.1,1.2-0.6,0.9-1.1-0.6c-0.3-0.7-0.4-1.6-0.2-1.9
			C76.5,248.5,76.5,248.5,76.6,248.5L76.6,248.5z"/>
			<path class="st0" d="M79.2,248.6c0.4-0.1,2.1,3.2,2.1,4.1c0,0.8-0.7,0.2-1.5-1.5C79.3,250.2,79,249,79.2,248.6
			C79.2,248.6,79.2,248.6,79.2,248.6L79.2,248.6z"/>
			<path class="st0" d="M81.6,249c0.1,0,0.1,0,0.2,0.1c0.3,0.3,0.8,1.4,1,2.4c0.3,1.2,0.2,1.6-0.2,1.2c-0.3-0.3-0.8-1.4-1-2.4
			C81.4,249.4,81.4,249,81.6,249L81.6,249z"/>
			<path class="st0" d="M83.9,250.6c0.1,0,0.2,0.2,0.5,0.6c0.3,0.5,0.6,1.3,0.6,1.8c0,0.8-0.1,0.8-0.6,0c-0.3-0.5-0.6-1.3-0.6-1.8
			C83.8,250.8,83.8,250.6,83.9,250.6L83.9,250.6z"/>
			<path class="st0" d="M88.8,251.4c0.3,0.1,0.9,1,1.2,2.3c0.4,1.4,0.4,1.5-0.5,0.3c-0.5-0.6-0.9-1.6-0.9-2.1
			C88.6,251.5,88.7,251.3,88.8,251.4L88.8,251.4z"/>
			<path class="st0" d="M85.8,251.4c0.3,0,0.8,0.6,1.2,1.5c0.5,1,0.7,1.9,0.4,1.9C86.8,254.8,85.3,251.9,85.8,251.4
			C85.7,251.5,85.8,251.4,85.8,251.4L85.8,251.4z"/>
			<path class="st0" d="M91.2,252.2c0.2,0,0.5,0.4,0.8,1c0.4,1,0.5,1.6,0.1,1.6c-0.7,0-1.4-1.5-1.1-2.4
			C91.1,252.3,91.2,252.2,91.2,252.2z"/>
			<path class="st0" d="M93.9,253c0.3,0,0.7,0.5,0.9,1c0.2,0.6,0.5,1.5,0.8,2c0.3,0.6,0,0.6-0.9-0.2C93.4,254.6,92.9,253,93.9,253z" />
			<path class="st0" d="M96.6,253.2c0.1,0,0.4,0.3,0.7,0.7c0.5,0.6,0.9,1.6,0.9,2.1c0,0.7-0.2,0.7-0.9-0.2c-0.5-0.6-0.9-1.6-0.9-2.1
			C96.4,253.3,96.4,253.1,96.6,253.2L96.6,253.2z"/>
			<path class="st0" d="M98.4,253.2c0.1,0,0.4,0.2,0.7,0.7c0.5,0.6,0.9,1.6,0.9,2.1c0,0.6-0.3,0.4-0.9-0.6
			C98.3,254.1,98.1,253.2,98.4,253.2z"/>
			<path class="st0" d="M100.9,254.4c0.2,0,0.5,0.4,0.9,1c0.4,0.7,0.4,1.3,0.1,1.3C101.2,256.6,100.4,254.8,100.9,254.4
			C100.8,254.4,100.8,254.4,100.9,254.4L100.9,254.4z"/>
		</g>
		<g>
			<path class="st0" d="M155.3,2.1c-0.6-0.6-2.3-1.2-3.8-1.4c-0.7-0.1-1.2-0.1-1.6-0.2h0c-1.2-0.1-1.4,0.3-1.8,1.5
			c-2.1,5.6-2.7,8-2.2,8.5c0.8,0.8,8.6,1.8,9.1,1.1c0.2-0.3,0.2-0.7,0.1-0.8c-0.2-0.2,0.1-2,0.5-4C156.2,3.5,156.2,3,155.3,2.1z
			 M153.7,5.9c-0.5,1.4-0.9,3.2-0.9,4c0,1.3-0.1,1.4-0.9,0.5c-0.5-0.5-1.6-0.9-2.4-0.9c-1.8,0-1.9-1.4-0.4-4.8
			c0.7-1.6,1-2.1,1.7-2.1v0c0.2,0,0.5,0,0.8,0.1C154.6,3.3,154.6,3.2,153.7,5.9z"/>
			<path class="st0" d="M119.5,14.5c1.4,0,2.8,0.2,3.1,0.4c1.5,1.2,0.7,1.8-2.1,1.6l-2.8-0.2l0.2,3.6c0.1,2,0.2,3.6,0.3,3.7
			c0.1,0,1.5,0.3,3.3,0.5l3.1,0.4v-3.9c0-2.1,0.2-4,0.5-4.2c0.3-0.2,0.5,1.8,0.5,4.5v4.8l-2.2,0c-1.2,0-3.4-0.2-4.9-0.4l-2.7-0.4
			l0.2-4.8c0.1-2.6,0.3-4.9,0.4-5C116.8,14.6,118.1,14.5,119.5,14.5L119.5,14.5z"/>
			<path class="st0" d="M101.9,36.6c2,0.1,3.8,0.7,4.3,1.6c0.6,0.9,0.6,6.9,0,7.8c-0.9,1.4-1.6-0.7-1.4-4.2l0.1-3.3h-3.8
			c-4.7,0-5.6-1.2-1.4-1.8C100.5,36.7,101.2,36.6,101.9,36.6L101.9,36.6z"/>
			<path class="st0" d="M98.2,39.4c0.3,0,0.6,0.9,0.6,2.1c0,1.2-0.3,2.1-0.6,2.1c-0.3,0-0.6-0.9-0.6-2.1
			C97.6,40.4,97.8,39.4,98.2,39.4z"/>
			<path class="st0" d="M85.7,43.8c1.2,0.1,2.3,0.6,2.4,1.5c0.1,1.6-0.1,3.9-0.5,4.9c-0.5,1.4-1-0.3-0.7-2.7c0.2-2.1-0.3-2.7-2.6-2.7
			c-0.9,0-1.1,0.4-1.1,2.4c0,1.3-0.3,2.4-0.6,2.4c-0.3,0-0.6-1-0.6-2.3c0-1.8,0.3-2.5,1.5-3.1C84.1,43.9,84.9,43.8,85.7,43.8
			L85.7,43.8z"/>
			<path class="st0" d="M103.6,45.4c1.2,0,1.1,0.2,0.5,1c-0.5,0.5-1.4,0.8-2.3,0.6c-0.9-0.1-1.8-0.3-2.1-0.3
			c-1.3-0.1,0.7-1.2,2.4-1.3C102.7,45.4,103.3,45.4,103.6,45.4L103.6,45.4z"/>
			<path class="st0" d="M84.4,49.1c0.2,0,0.4,0,0.7,0.1c0.5,0.2,0.3,0.3-0.4,0.4c-0.6,0-1-0.1-0.8-0.3C84,49.2,84.2,49.1,84.4,49.1
			L84.4,49.1z"/>
			<path class="st0" d="M109.3,58.7c1.1,0,2.4,0.2,4.2,0.6l2.7,0.7v3.2c0,1.7-0.2,4-0.4,5c-0.7,3.4-1.5,2-1.4-2.3
			c0.1-2.3,0-4.4-0.2-4.5c-0.2-0.2-1.9-0.5-3.7-0.8l-3.4-0.5v3.8c0,3.8-0.8,5.5-1.5,3.3c-0.5-1.7,0.3-6.5,1.3-7.5
			C107.5,59,108.2,58.7,109.3,58.7z"/>
			<path class="st0" d="M163.6,65.2c1.3,0,1.5,0.6,0.5,1.6c-1,1-0.1,3,1.7,3.7l1.6,0.6l-1.5,0c-1.9,0.1-3.3-1-3.7-2.9
			C161.7,66.4,162.3,65.2,163.6,65.2L163.6,65.2z"/>
			<path class="st0" d="M95,68.2l0.4,4.5c0.2,2.5,0.5,4.9,0.7,5.3c0.2,0.6-0.2,0.8-1.4,0.7c-0.9-0.1-2.4-0.2-3.3-0.2
			c-2.6-0.1-1.9-1.3,0.8-1.3c2.5,0,2.5,0,2.1-1.9c-0.2-1-0.4-2.8-0.4-3.9v-2h-3c-1.9,0-2.9-0.2-2.7-0.6c0.2-0.3,1.8-0.6,3.6-0.6
			L95,68.2z"/>
			<path class="st0" d="M108.1,68.9c0.2,0,0.7,0.1,1.4,0.2c1.1,0.2,2.5,0.3,3.1,0.3s1.1,0.3,1.1,0.6c0,1-3.9,0.7-5.1-0.3
			C107.9,69.1,107.7,68.9,108.1,68.9L108.1,68.9z"/>
			<path class="st0" d="M87.7,71.6c0.1,0,0.2,0.1,0.3,0.3c0.3,0.5,0.6,1.9,0.6,3.2c0,1.4-0.2,2.1-0.6,1.9c-0.3-0.2-0.6-1.6-0.6-3.2
			C87.4,72.2,87.5,71.5,87.7,71.6z"/>
			<path class="st0" d="M119.8,74.8c0.9,0,1.2,0.3,0.9,1.1c-0.2,0.7,0,1.3,0.6,1.5c0.7,0.3,0.9,0,0.9-1.2c0-0.9,0.3-1.4,0.6-1.1
			c0.7,0.4,0.8,2.9,0.2,3.5c-0.8,0.8-3.2,0.4-3.8-0.8C118.2,76,118.4,74.8,119.8,74.8L119.8,74.8z"/>
			<path class="st0" d="M155.7,78.4c1.7,0,1.6,1-0.3,1.4c-2.8,0.7-1.6,4.5,1.9,5.8c0.8,0.3,1.7,0.4,2,0.2c0.9-0.6,0.6-3.4-0.4-4.6
			c-0.9-1-0.9-1.1,0-1.1c2.1,0,2.9,4.2,1.2,6.1l0,0c-1.2,1.3-2.1,1.4-4.4,0.2c-1.9-1-3.6-3.7-3.6-5.6
			C152.2,79.6,153.8,78.4,155.7,78.4L155.7,78.4z"/>
			<path class="st0" d="M98.8,86.3c0.3,0,0.7,0.4,1.1,1c0.5,0.8,0.7,0.9,1.1,0.2c0.4-0.7,0.6-0.6,0.9,0.1c0.2,0.5,0,1.2-0.3,1.5
			c-0.4,0.4-1,0.7-1.4,0.7c-1.2,0-2.6-1.7-2.2-2.7C98.2,86.5,98.5,86.2,98.8,86.3L98.8,86.3z"/>
		</g>
		<g>
			<g>
				<polygon class="st0" points="116.5,82.4 116.5,82.4 116.5,82.4 			"/>
				<path class="st0" d="M125.6,86.8c-1.1-1.4-7.5-4.4-9.1-4.4c-0.2,0-0.4,0.1-0.4,0.2c0,0.3,0.7,1.1,1.6,1.8
				c1.9,1.7,1.2,2.4-2.3,2.4c-1.2,0-2.3,0.2-2.3,0.3c0,0.2,0.3,1.5,0.6,2.8c0.3,1.4,0.7,3.3,0.9,4.2c0.3,1.6,0.5,1.7,2.9,1.3
				c1.4-0.2,3.2-0.4,4-0.5c2.3-0.2,2.5-1.2,1.2-5c-0.7-1.9-1-3.6-0.9-3.8c0.7-0.7,4.3,4.2,5.2,6.9c0.5,1.5,1,2.5,1.2,2.2
				C129.1,94.2,127.6,89.2,125.6,86.8z M122,92.6c0.3,0.8,0.2,1-0.5,0.7c-0.5-0.2-1.7,0-2.7,0.4c-2.5,1.1-2.6,1.1-3-0.5
				c-0.8-3.1-0.1-4.6,2.4-5.5c1.3-0.5,2.4-0.8,2.5-0.8c0,0,0.2,1,0.4,2.3C121.4,90.5,121.7,92,122,92.6z"/>
			</g>
			<path class="st0" d="M135.7,90.3l-1.9,1.9c-1.1,1-1.9,2.1-1.9,2.3c0,1,2.8,3.7,4.3,4c3.3,0.8,4.6-3.5,1.9-6.4
			c-0.5-0.6-0.7-1.1-0.4-1.1c1,0,2.6,2.1,2.9,4c0.3,1.5,0.1,2.2-1.2,3.5c-1.1,1.1-2,1.5-2.9,1.2c-0.7-0.2-1.6-0.4-2-0.4
			c-1.4,0-4.4-3.6-4.4-5.3c0-2.1,0.9-2.9,3.7-3.4L135.7,90.3z"/>
			<path class="st0" d="M150.3,98.8c3,0,6,2.5,5.3,4.4c-0.2,0.4-0.5,0.2-0.8-0.5c-1.8-4.4-8.2-3.1-7.2,1.5c0.6,2.5,1.2,2.7,4.2,1.3
			c2.6-1.3,5.3-1.3,6.6,0c0.7,0.7,0.7,0.7-3.2,0.8c-2.4,0.1-2.7,0.3-2.8,1.5c0,0.8,0.2,1.5,0.4,1.7c0.3,0.2,0.5,0.7,0.5,1.2
			c0,0.5-0.3,0.9-0.6,0.9c-0.8,0-2.4-1.5-2.4-2.4c0-0.4-0.2-0.6-0.5-0.6c-1.2,0-3.7-3.3-3.7-4.9C146.2,101.5,148.5,98.8,150.3,98.8
			L150.3,98.8z"/>
			<path class="st0" d="M162,100.4c0.3,0,0.6,0,1,0c2.9,0.1,5.3,1,5.3,2.1c0,0.4-0.5,0.5-1.1,0.3c-0.6-0.2-1.9-0.6-3-0.9
			c-2.6-0.8-3.4,0.1-4.4,5c-0.8,4.4-0.4,5.4,2.2,4.8c1.4-0.3,2.3,0.5,1.7,1.5c-0.8,1.2-3.7,0.6-4.8-0.9c-0.9-1.3-0.9-2-0.3-5.3
			C159.9,101.1,159.9,100.4,162,100.4L162,100.4z"/>
			<path class="st0" d="M136.6,136.1c1.4,0,3,1.4,3,2.7c0,0.8-0.1,0.8-0.9,0c-0.5-0.5-1.2-1-1.5-1c-0.3,0-0.8-0.1-1.2-0.1
			c-1.2-0.1-0.9-1.3,0.4-1.5C136.4,136.1,136.5,136.1,136.6,136.1L136.6,136.1z"/>
			<path class="st0" d="M133,146.8c-0.6-0.8-1.3-2.9-1.7-4.7c-0.7-3.4-2.2-7.2-2.7-7.3l0,0c0,0-0.1,0-0.1,0c-0.2,0.2-0.1,1,0.3,1.8
			c0.5,1.3,0.9,4.5,0.7,6.3c0,0.5-1.1,0.7-3,0.7c-5.3,0-7.7,2.8-6.4,7.9c0.6,2.3,0.9,2.7,2.3,2.9c2.6,0.3,6.8-2.1,8-4.6l1-2.2
			l0.9,2.1c1.2,2.8,1.1,9.8-0.1,12.7c-1,2.4-1.2,4.1-0.5,4.1c0.3,0,0.8-0.6,1.2-1.3C136,159.2,136.1,151.3,133,146.8z M129.3,147.9
			c-1,2.7-3,4.4-5.1,4.4c-1.2,0-2.1-0.4-2.3-0.9c-1.2-3.2,1.2-5.9,4.4-6c0.7,0,1.5,0.1,2.3,0.4C129.8,146.1,129.9,146.4,129.3,147.9
			z"/>
			<path class="st0" d="M148.1,147.5c0.4,0,0.4,0.3,0,0.9c-0.8,1.3-0.3,3.7,0.9,4.2c1.4,0.5,2.1-0.3,1.8-2.1c-0.1-1,0-1.7,0.2-1.7
			c1.1,0,0.7,3.5-0.6,4.9c-1.3,1.4-1.6,1.3-3.1-0.6c-1.6-2-1.5-5.2,0.2-5.5C147.8,147.5,148,147.5,148.1,147.5L148.1,147.5z"/>
			<path class="st0" d="M145.3,155.9c1,0.1,2.1,0.9,2.6,2c0.5,1.2,0.5,1.5-0.1,1.5c-0.5,0-1-0.4-1.2-0.9c-0.2-0.5-0.9-0.9-1.6-0.9
			c-1.3,0-1.6-0.9-0.6-1.5C144.6,156,144.9,155.9,145.3,155.9L145.3,155.9z"/>
			<path class="st0" d="M139.2,157.3c0.8,0.1,2.2,1.4,2.2,2.2c0,0.3-0.4,0.6-0.9,0.6c-1.1,0-2.4-2.2-1.6-2.7
			C139,157.3,139.1,157.3,139.2,157.3L139.2,157.3z"/>
		</g>
		<g>
			<path class="st0" d="M132,105.8c0.3-0.1,1,0.7,2,2.5c1.3,2.3,1.4,4.1,0.5,9.4c-0.6,3.6,1.1,6.2,5.4,8.4c2,1,3.7,2.4,4,3.1
			c0.4,1,0.3,1.3-0.4,1.3c-0.5,0-0.9-0.3-0.9-0.6c0-0.3-0.3-0.6-0.6-0.6c-0.3,0-1.3-0.3-2.3-0.7c-0.9-0.4-2.1-0.8-2.5-0.9
			c-1-0.2-4.1-3.7-5.3-5.9c-0.8-1.5-0.8-2.3-0.2-5.9c0.6-2.9,0.6-5,0.2-7.3C131.6,106.9,131.6,105.9,132,105.8L132,105.8z"/>
			<path class="st0" d="M140.4,103.9c-1.3-1.9-4.2-3-7.4-3.1h0c-2.5-0.1-5.1,0.5-7.2,1.7c-1.3,0.8-2.7,1.1-3.7,0.9
			c-2-0.4-5.3,1.1-5.4,2.5c-0.2,2.3,0.1,3.9,0.8,4.4c0.4,0.2,0.9,2.1,1.2,4.2c0.3,2.3,0.9,4,1.4,4.3c0.5,0.3,0.9,0.9,0.9,1.3
			c0,1.5,4.7,2,7.2,0.8c3.2-1.7,1.5-3-2.1-1.6c-2,0.7-3.6,0-4.7-2.3c-0.7-1.4-0.9-3.6-0.3-4c0.1-0.1,1.2-0.6,2.5-1.2
			c2.2-1,2.3-1.2,2.2-3.6c-0.2-3.8-0.2-3.8,2.8-4.9c3.6-1.4,8.1-0.8,10.9,1.3C141.6,106.3,141.8,106.1,140.4,103.9z M120.1,108.3
			c-0.5,1.7-1.3,1.7-1.7,0.1c-0.2-0.8,0.2-1.6,1.2-2.4c0.9-0.7,1.7-1.1,2.1-1.2c0.4,0,0.4,0.3-0.3,1
			C120.9,106.5,120.3,107.5,120.1,108.3z M123.8,110.7c-0.4,0.4-1.2,0.7-1.8,0.7c-0.9,0-1-0.3-0.5-1.5c0.8-2,2-3.9,2.6-3.9
			c0,0,0,0,0,0h0l0,0C124.9,106,124.6,109.9,123.8,110.7z"/>
			<path class="st0" d="M158.1,132.8c-1.3-1.4-5.1-1.9-6.8-1c-1.7,0.9-3.6,0.4-3.1-1c0.2-0.5,0.4-1.7,0.4-2.7c0-1.5,0.2-1.8,1.5-1.8
			c4.9,0,4.2-7.3-0.9-9.4c-1.3-0.5-2.4-1.3-2.4-1.7s-0.6-1.5-1.2-2.3c-0.7-0.9-1.1-1.8-0.9-2.2c0.2-0.3,0.1-1.1-0.2-1.7
			c-0.6-0.9-0.6-0.9-0.6,0.3c0,1.7-1.2,1.8-1.6,0.1c-0.2-0.7-0.5-1.1-0.8-1.2h0c0,0-0.1,0-0.1,0c-0.2,0.1-0.4,0.3-0.6,0.7
			c-0.5,1.3,0.8,2.9,2.2,2.9c2.1,0,2.6,3.4,0.8,5c-2.1,1.8-1.7,5,0.9,7.3c1.7,1.5,2.2,2.4,2.4,4.6c0.3,2.6,0.2,2.8-1.4,3.5
			c-2,0.9-3.7,4.4-3.2,6.5c0.2,0.8,1,1.7,1.8,2l1.4,0.6l-1.4,2.8c-0.8,1.5-2.5,3.9-3.8,5.4c-1.3,1.4-2.4,2.8-2.4,3.1
			c0,1.3,1.9,0.4,4.7-2.4c1.6-1.6,3.6-4.2,4.2-5.7c1.6-3.3,2-3.6,5.6-3.6c3.2,0,4.1-1.3,1.2-2c-2.9-0.6-3.1-0.8-3.1-1.9
			c0-0.6,0.6-2,1.2-3.1c1.1-1.8,1.5-2,3.1-1.7c1.1,0.2,2.5,0.5,3.1,0.8C159,133.8,159,133.7,158.1,132.8z M145.4,123
			c-0.5-0.6-1-1.8-1.2-2.7c-0.3-1.7,0.9-2.6,2.6-2.5c1.3,0,2.9,0.6,4.3,1.9c1.6,1.4,1.4,4.9-0.3,5.5
			C149.4,125.7,146.9,124.7,145.4,123z M149.1,139.5c0.6,1.3,0.6,1.4-0.7,0.7c-0.7-0.4-1.6-0.7-1.8-0.6c-1.1,0.3-2.8-1.2-2.8-2.6
			c0-2.2,1.9-3.8,4.1-3.8c0,0,0,0,0,0h0c0,0,0,0,0,0c0.5,0,1,0.1,1.5,0.3c0.8,0.3,0.8,0.6,0,2.5
			C148.7,137.5,148.6,138.4,149.1,139.5z"/>
		</g>
		<g>
			<path class="st0" d="M3.3,120c0.1,0,0.2,0,0.3,0c0.5,0.1,0.4,0.6-0.4,1.5c-1.4,1.6-1.2,2.9,0.5,4.1c1.7,1.1,3,0.5,3.5-1.8
			c0.2-0.9,0.3-0.7,0.3,0.6c0.1,1.3-0.3,2.1-1,2.5c-1.3,0.8-2.1,0.8-4,0.1c-3.1-1.2-3.5-5.6-0.5-6.7C2.6,120.2,3,120.1,3.3,120
			L3.3,120z"/>
			<path class="st0" d="M29.3,140.5c0.1,0,0.1,0,0.2,0c0.8,0.1,1.6,2.2,1.2,3.4c-0.6,1.9-3.8,1.6-4.5-0.4c-0.5-1.2-0.4-1.7,0.2-2.1
			c1.2-0.8,1.7-0.6,1.7,0.6c0,1.3,0.6,2,1.3,1.5c0.3-0.2,0.2-0.8-0.1-1.4c-0.4-0.7-0.4-1.3,0-1.5C29.2,140.5,29.2,140.5,29.3,140.5
			L29.3,140.5z"/>
			<path class="st0" d="M25,153.1c-0.3-0.4-0.7-0.6-1.4-0.6c-0.7,0-1.8,0.2-3.4,0.7c-1.6,0.4-2.6,2.9-1.8,4.4c1.4,2.6,7.4,4,8.1,2
			C26.8,158.3,25.9,154.3,25,153.1z M25.9,159.3c-0.5,0.8-2.4,0.4-4.7-0.9c-1-0.6-1.9-1.4-2.1-1.7c-0.2-0.7,2.8-2.7,4.2-2.7
			C24.3,154,26.5,158.4,25.9,159.3z"/>
		</g>
		<g>
			<path class="st0" d="M38.8,240.2c-0.1-0.5-0.1-1.7-0.2-2.8c0-1.1-0.1-2-0.2-2.1c-0.1-0.1-0.1-0.2,0-0.4c0.1-0.1,0-0.5,0-0.7
			c-0.1-0.5-0.1-0.5-1.3-0.3c-2,0.2-5.4,0.1-11-0.4c-0.6-0.1-1.4-0.1-1.9-0.2c-0.5,0-1.2-0.1-1.6-0.2c-0.2,0-0.3-0.1-0.6-0.1h0
			c-0.2,0-0.4,0.1-0.6,0.2c-0.4,0.3-0.4,0.5-0.3,4.6c0,2.4,0.1,4.5,0.1,4.7c0.2,0.7,0.5,5.4,0.5,8.5c0,0.4,0.9,0.7,2.6,0.8
			c0.6,0.1,1.2,0.1,1.3,0.2c0.1,0,0.5,0.1,1,0.2c0.4,0.1,1,0.3,1.3,0.3c0.9,0.1,8.2-0.1,8.2-0.2c0,0,0.3-0.1,0.8-0.1
			c0.4,0,0.8-0.2,0.9-0.3c0.1-0.1,0.4-0.2,0.6-0.2s0.5-0.1,0.6-0.3C39.3,250.6,39.1,242.6,38.8,240.2z M37.6,250.5
			c-0.3,0-0.5,0.1-0.6,0.3c-0.1,0.2-0.4,0.3-0.7,0.4c-0.3,0-1,0.1-1.6,0.2c-2.8,0.3-7,0.1-8.2-0.3c-0.2-0.1-0.8-0.2-1.3-0.2
			c-0.6,0-1.4-0.2-1.7-0.2c-0.8-0.2-0.7,0.2-0.8-3.6c-0.1-2.5-0.2-4-0.4-5c-0.1-0.9-0.2-7.6,0-7.8c0-0.1,0-0.1,0.2-0.1h0
			c0.1,0,0.2,0,0.4,0.1c0.3,0.1,0.6,0.2,0.8,0.2c0.4,0,2.8,0.2,3.7,0.3c1.4,0.2,3.3,0.3,6.5,0.3c2,0,3.6,0.1,3.7,0.1
			c0.1,0.1,0.2,1.5,0.2,3.2c0.1,1.7,0.2,3.2,0.2,3.4c0.1,0.4,0.2,1.2,0.2,4.4C38.2,250.4,38.2,250.5,37.6,250.5z"/>
			<path class="st0" d="M33,235.8c-0.1,0-0.2,0.1-0.4,0.2c-0.3,0.3-0.4,0.5-0.3,1.3c0.1,0.9,0.1,1-0.3,1.1l-0.5,0.1L32,239
			c0.3,0.2,0.5,0.5,0.4,0.7c-0.1,0.3,0.5,0.8,0.9,0.8c0.1,0,0.2-0.2,0.2-0.5c0-0.5,0.1-0.6,0.6-0.3c0.2,0.1,0.2,0.4,0.2,0.9
			c-0.1,0.7-0.1,0.8,0.2,0.8c0.5,0,1-0.5,0.8-0.8c-0.1-0.1,0-0.5,0.2-0.9c0.2-0.4,0.3-0.6,0.1-0.7c-0.1-0.1-0.2-0.6-0.3-1.2
			c0-0.7-0.2-1.1-0.3-1.2c-0.3-0.1-0.6,0.6-0.7,1.4c-0.1,0.8-1,0.7-1-0.1c0-0.2,0-0.6-0.1-1c0-0.4-0.1-0.8-0.2-0.9
			C33.1,235.9,33.1,235.8,33,235.8L33,235.8z"/>
			<path class="st0" d="M31,239.7c-0.4-2.6-0.9-3.2-2.8-3.6c-0.2,0-1.7-0.1-1-0.1h0c1.2,0-2.8,0.2-3.3,0.4c-0.4,0.2-0.4,0.6,0.2,0.8
			c0.5,0.2,0.7,0.9,0.8,3.2c0.1,1.1,0.1,1.1-0.5,1.3c-0.3,0.1-0.6,0.2-0.7,0.3c-0.1,0.2,0.3,0.5,0.9,0.6c0.3,0,0.6,0.1,0.6,0.2
			c0.1,0.1,0.1,1.4,0.1,2.9c0,2.2,0.1,2.8,0.3,3.1c0.4,0.4,0.9,0.3,0.9-0.2c-0.1-0.7-0.1-6.1,0-6.1c0,0,0.4-0.1,0.8-0.2
			c2.1-0.3,2.9-0.6,3.5-1.2C31.1,240.8,31.1,240.7,31,239.7z M28.2,241.2c-0.8,0.1-1.6,0.3-1.7,0.3c-0.3,0.1-0.4-0.1-0.5-1.6
			c-0.1-0.7-0.2-1.5-0.3-1.8c-0.2-0.5-0.2-0.7,0-0.8c0.1-0.1,0.8-0.1,1.1-0.1c-0.2,0-0.2,0-0.1,0c0,0,0,0,0,0h0l0,0
			c0.3,0,0.2,0,0.1,0c0.3,0,1.1,0.1,1.5,0.2c1.1,0.2,1.2,0.4,1.6,2.1C30.2,240.7,30.1,240.9,28.2,241.2z"/>
			<g>
				<polygon class="st0" points="32.7,242 32.7,242 32.7,242 			"/>
				<path class="st0" d="M36.3,246.1c0.4-0.1-0.1-0.7-0.7-0.8c-0.5-0.1-0.7-0.2-0.8-0.6c-0.2-0.7-1-1.9-1.5-2.5
				c-0.2-0.2-0.3-0.3-0.5-0.3c-0.3,0-0.6,0.3-0.8,1.1c-0.3,1.3-0.6,1.8-0.9,1.8c-0.2,0-0.5,0.2-0.7,0.4c-0.3,0.3-0.3,0.4-0.1,0.6
				c0.2,0.1,0.4,0.2,0.5,0.2c0.2,0,0.2,0.1,0.1,0.2c-0.4,0.4-1.4,2.4-1.4,2.6c0,0.1,0.1,0.3,0.2,0.5c0.3,0.3,0.4,0.3,0.8-0.5
				c0.2-0.4,0.5-0.8,0.6-0.8c0.1-0.1,0.2-0.3,0.2-0.5c0-0.2,0.1-0.4,0.2-0.4c0.1,0,0.2-0.2,0.2-0.4c0-0.5,0.4-0.7,1.3-0.7
				c1.1,0,1.1,0.1,1.1,0.3c0,0.1,0.2,0.4,0.4,0.6c0.2,0.2,0.4,0.5,0.4,0.6c0,0.2,0.2,0.5,0.3,0.7c0.3,0.4,0.4,0.4,0.7,0.2
				c0.4-0.3,0.3-0.3-0.1-1.1C35.6,246.5,35.6,246.4,36.3,246.1z M33.8,245.2c-0.1,0-0.4-0.1-0.7-0.1c-0.5-0.1-0.5-0.1-0.4-0.6
				c0.1-0.4,0.2-0.6,0.3-0.6h0c0.2,0,0.3,0.2,0.5,0.6C33.7,244.9,33.8,245.3,33.8,245.2z"/>
			</g>
		</g>
	</g>
</svg>
