<?xml version="1.0" encoding="utf-8"?>
<!-- Generator: Adobe Illustrator 24.2.0, SVG Export Plug-In . SVG Version: 6.00 Build 0)  -->
<svg version="1.1" id="notebook"
	xmlns="http://www.w3.org/2000/svg"
	xmlns:xlink="http://www.w3.org/1999/xlink" x="0px" y="0px" viewBox="0 0 472 322.6" style="enable-background:new 0 0 472 322.6;" xml:space="preserve">
	<style type="text/css">
	.st0{fill:#1E1E1E;}
	</style>
	<g id="main_path" transform="translate(553.35043,73.391724)">
		<path id="rect867" class="st0" d="M-429.7-73.4v9.3c0,10.2,0.2,10-8.7,11.3c-6.3,0.9-6.4,1.2-3.9,15.6c0.8,4.7,1.2,9,0.8,9.6
		c-0.4,0.6-2.2,0.9-4.2,0.7c-6.2-0.7-26.9-4.1-32.2-5.3c-2.8-0.6-10.2-1.5-16.6-1.9c-10-0.6-12.6-0.4-20,2c-5.1,1.6-9,3.6-9.7,4.9
		c-1,1.9-0.9,2.1,0.9,1c1.2-0.7,6-2.3,10.6-3.6c6.9-2,10.5-2.3,18.8-1.8c5.7,0.4,11.9,1.1,13.8,1.7s6.4,1.3,10,1.7
		c3.6,0.4,10.7,1.5,15.9,2.6c6.8,1.4,15.6,1.9,32.1,1.8c12.5,0,23.2-0.4,23.7-0.7c0.6-0.3,4.8-0.1,9.4,0.6c8,1.1,11.9,2.9,18.5,8.6
		c2.4,2,2.7,2.1,5.4,0.3c2.6-1.7,3-1.7,3.6-0.1c0.4,1,0.4,2.6,0,3.6s-0.3,2.7,0.2,3.8s1,4.2,1.1,6.8c0.2,2.6,0.7,6.6,1.2,8.8
		c0.9,4,9,21.4,13.6,29.1c1.2,2.1,3.9,6.9,5.9,10.6c4.2,7.8,5.4,10.1,7,13c1.4,2.6,4,8.2,5.7,12.3c1.2,3.1,1.2,3.2-3.1,3.5
		c-2.4,0.2-4.2,0.9-4,1.5s2.3,1,4.8,0.8c4.7-0.4,6.3,0.8,7.7,5.2c0.6,1.9,0.2,2.7-1.3,3.1c-1.8,0.4-1.6,0.7,0.8,1.7
		c1.9,0.8,3.5,2.9,4.5,5.8c1.8,5.3,4.7,11.8,10.2,23.4c2.2,4.5,5.1,11.8,6.5,16.2c1.5,4.4,3.1,8.3,3.6,8.6c0.6,0.3,1,1.8,1,3.3
		s0.5,3.2,1.2,3.8c0.7,0.7,1.7,2.8,2.2,4.8c1,3.5,0.9,3.7-3.8,4.9c-5,1.3-10.9,4.8-8.1,4.8c0.8,0,3.4-0.8,5.7-1.7
		c5.9-2.5,8.6-2.3,8.6,0.6c0,1.3,0,2.8,0,3.2c0,0.5-2,1.2-4.4,1.6l-4.5,0.7l5.3,0.2c5,0.2,5.4,0.4,6.8,4.6
		c1.5,4.2,3.9,14.3,5.3,22.2l0.7,3.6l-8.5,1.4c-4.7,0.8-14.3,3.2-21.4,5.4s-16.1,4.8-20,5.9c-3.9,1.1-7.9,2.2-8.9,2.5
		c-1.7,0.5-1.8-0.3-0.8-6.2c1.1-6.7,0.5-43.6-1-64.8c-0.7-10.1-1.1-11.1-4.1-13.7c-3.3-2.8-3.3-2.9-1.7-8.1c1.5-5.1,1.5-5.4-1.2-8
		c-1.5-1.4-2.8-2.1-2.8-1.5s-0.6,0.2-1.2-1c-1.8-3.1-3.4-2.5-5.3,2c-2.2,5.1-2.1,10,0.1,12.9c1,1.3,1.3,2.8,0.7,3.5
		c-1.6,2-2.8,8.9-2.8,16.6c0,9.6,1.4,27.2,2.7,33c0.6,2.6,1.6,8.1,2.3,12.4c0.7,4.2,1.4,8.7,1.7,10c0.3,1.3,0.8,4.5,1.2,7.1l0.8,4.8
		l-7.4-0.7c-4.1-0.4-9.8-0.4-12.7,0c-8.1,1-27.5,0.7-54.1-1c-36.8-2.3-51.1-1.6-65.1,2.9c-9.4,3.1-7.6,3.7,3.3,1.2
		c13.8-3.2,28.1-3.9,50-2.6c6.8,0.4,17.7,1,24.1,1.3c6.5,0.3,13.1,0.8,14.7,1.2c4.3,0.9,15.1,0.9,21.8-0.1c8-1.2,14.8-0.9,28.4,1.4
		c3.7,0.6,18.5-2.8,33.4-7.7c4.2-1.4,13.9-3.7,21.5-5.2l13.8-2.7v4c0,2.2-0.1,4-0.3,4c-0.2,0-2.7,0.3-5.6,0.7
		c-12.4,1.4-27.1,4.3-35.7,7c-10.9,3.4-14.2,3.8-10.8,1.1c2.6-2,0.9-2.3-3.5-0.7c-5,1.9-3.4,3.4,3.2,3c5-0.3,5.6-0.1,3.2,0.8
		c-1.6,0.6-4.8,1.9-7.1,2.8c-5.1,2.1-10.7,2.8-12.3,1.6c-0.6-0.5-2.8-1.3-4.7-1.8c-1.9-0.5-4.3-1.2-5.3-1.5
		c-2.5-0.9-62.7-0.7-91.8,0.2c-18.6,0.6-25.9,1.3-31.8,3c-8.8,2.6-5.3,3.2,4.5,0.8c3.7-0.9,12.5-1.7,19.6-1.7s21.2-0.5,31.2-0.9
		c17.8-0.9,20.9-0.9,31.7-0.6c8.4,0.3,4.7,1.4-6.5,2c-5.7,0.3-12.3,1.1-14.6,1.7c-4.8,1.3-10.2,2.1-17.7,2.8
		c-2.9,0.3-6.6,0.8-8.2,1.2s-11.7,0.9-22.4,1.2c-25.7,0.6-36.7,1.7-45.9,4.3c-12.3,3.5-13.2,3.4-13.5-0.7
		c-0.4-5.4-1.8-20.6-2.4-25.9c-0.3-2.6-0.8-7.4-1.2-10.6c-0.3-3.2-0.9-7.2-1.2-8.8s-0.8-6.4-1.2-10.6c-0.3-4.2-1.4-13.7-2.3-21.2
		c-0.9-7.4-2.1-17.8-2.5-23c-1-10.9-0.9-10.3-2.6-21.8c-1.4-9.5-1.9-13.8-3.7-32.7c-0.6-6.6-1.4-12.5-1.7-13.1s-0.9-4.7-1.3-9.1
		c-0.3-4.5-0.9-10.2-1.2-12.8s-0.9-7.4-1.2-10.6c-0.4-3.2-1.4-9.6-2.3-14.1c-3-14.7-3-16.8-0.1-17.5c2.4-0.6,2.3-0.8-0.9-2.5
		c-1.9-1-3.6-1.8-3.8-1.8c-1.2,0-0.3,16.5,1.2,22.9c1.7,7.1,4.1,23.4,4.9,33.6c0.2,2.9,1,9.5,1.7,14.7c2.2,16.3,2.3,17.9,3,28.5
		c0.4,5.7,1.4,13.7,2.4,17.8c0.9,4.1,1.4,7.8,1.2,8.3c-0.3,0.4-0.1,3.2,0.5,6.1c0.5,2.9,1.3,9.2,1.7,14.1c0.7,8.4,1.2,12.6,2.5,20.6
		c0.3,1.9,1.1,9.1,1.7,15.8c0.6,6.7,1.4,13.6,1.7,15.3c1.8,11.3,4.2,43.3,3.4,45.5c-0.9,2.3,4.5,2.3,9.1-0.1c1.9-1,3.9-1.6,4.4-1.2
		c0.5,0.3,3.5-0.2,6.7-1.2s9.8-2,14.6-2.2c4.9-0.2,15.4-0.7,23.5-1.1c22.3-1,37.7-2.5,48.3-4.7c7.9-1.6,17.3-3,19.4-2.9
		c1.3,0.1,6.9-0.3,12.4-0.8c19.6-1.8,28.2-1.5,34,1.4c2.9,1.5,6.6,2.7,8.3,2.7c3.6,0,15.4-5.3,15.4-6.9c0-0.6,4.1-2.2,9.1-3.6
		c12.7-3.6,11.6-3.4,28.5-4.3l15.2-0.8l0.6,2.8c0.3,1.5,0.9,6.8,1.2,11.6c0.6,8,1.2,11.8,2.5,16.2l0,0c1.4,4.5,1.7-0.3,1.1-14.4
		l-0.7-15.9h26.8c14.8,0,31.9-0.1,38-0.2c6.1-0.1,17.9,0.2,26.2,0.7c14.1,0.8,15,0.8,15.1-1.3c0.3-5-0.4-12-3.1-31
		c-0.5-3.6-1.1-7.8-1.3-9.4c-0.2-1.6-0.8-6.4-1.4-10.6c-0.6-4.2-0.8-9.9-0.5-12.7c0.4-4.3,0.9-5,3.2-5c5.3,0,6.5-1.2,6.4-6.3
		c0-7.7-1.2-8.7-7.5-6.4c-5.6,2.1-6.6,1.8-6.6-1.6c0-1.2-0.5-2.2-1.2-2.2s-1.2,1.6-1.2,3.5c0,3.1-0.4,3.5-3.5,3.5
		c-3,0-3.5-0.5-3.5-2.9c0-1.6-0.5-3.2-1.2-3.6c-1.3-0.8-1,3.6,2.1,31.8c1,9.1,2.1,19,2.4,22.1c0.3,3.1,1,5.6,1.6,5.6
		c1.7,0,1.6-7.7-0.1-15.9c-2.5-11.9-4-28.8-2.5-28.8c0.7,0,1.3-1.3,1.3-2.8c0-2.4,0.7-2.9,4.9-3.6c2.7-0.4,6.7-1.9,8.8-3.2
		s3.9-2,3.9-1.4c0,0.5,0.3,3,0.7,5.4l0.6,4.4h-7c-5.1,0-7.5,0.5-8.6,1.9c-1.4,1.7-1.3,1.8,1.2,1.1c2.1-0.7,2.6-0.5,1.9,0.6
		c-0.5,0.8-0.9,5.5-0.9,10.4c0,8.1-0.1,8.5-1,3.8c-0.5-2.8-1.3-5.5-1.8-5.9c-1.6-1.4,0.7,22,3.4,35c1.8,8.8,2.3,13.5,1.5,13.8
		c-2.4,0.8-32,1.9-64.7,2.4c-35,0.6-34.8,0.6-34.8-5.1c0-1.5,0.1-2.7,0.3-2.7c0.2,0,3.5-0.6,7.4-1.3c8.9-1.6,84.2-2.5,84.2-1
		c0,0.6,0.8,1.1,1.8,1.1s1.8,0.6,1.8,1.4s0.3,1.1,0.7,0.7c0.4-0.4-0.3-2-1.5-3.6l-2.2-2.9l-34.1,0.5c-18.8,0.3-39.6,1.1-46.2,1.9
		c-6.6,0.7-12.4,1-12.8,0.7c-0.4-0.4-0.9-2.7-1.2-5.2c-0.3-2.5-1.4-8.6-2.4-13.6s-1.6-9.4-1.2-9.8c0.4-0.4,3.5-0.9,6.9-1.3
		c13.4-1.4,15.7-2.6,3.7-2c-11.9,0.6-12.1,0.6-13.1-2.1c-0.6-1.5-1-2.9-0.9-3s4.3-0.4,9.3-0.8c11.9-0.7,11.8-2.7-0.1-2.2
		c-8.6,0.4-9.2,0.2-10.5-2.4c-1.1-2.3-2.9-7.2-3.3-9.2c-0.5-2.3-5.1-15.4-7.7-21.8c-0.5-1.3-2.2-5.5-3.7-9.4s-3.1-7.2-3.6-7.5
		c-0.5-0.2-0.9-1.1-0.9-2c0-2.4-3.4-12-7-20c-1.8-3.9-3.6-8.4-4.1-10s-1.6-3.7-2.4-4.7s-1.6-2.3-1.8-2.9c-0.7-3.7-7.9-19.1-9.3-20
		c-0.7-0.4-1.2-1.8-1.2-3s-0.5-2.3-1.1-2.3s-1.5-1.2-1.9-2.6c-0.5-1.5-1.2-2.9-1.6-3.2s-1.8-2.7-3-5.3s-3.1-6-4.2-7.6
		s-2.4-4.3-2.9-5.9c-0.5-1.6-1.2-3.2-1.7-3.5c-1.5-1.1-5.3-14.8-7-24.8s-1.5-10.2,24-19.3c7.8-2.8,17.3-6,21.2-7.1
		c3.9-1.1,9.4-2.7,12.4-3.6c8-2.3,23.1-5,32.4-5.6l8.3-0.6l-0.5,3.5c-0.3,1.9,0.2,5.1,1,7.1c1.5,3.7,2,3.8,9.5,1.6
		c2-0.6,3.3,4.1,3.4,12.4c0,3.4,0.3,3.8,1.3,2c0.8-1.3,0.9-4.6,0.3-8.8c-0.5-3.7-0.8-7.2-0.6-7.8s-0.9-0.8-2.4-0.4
		c-1.5,0.3-4.5,1-6.6,1.5l-3.9,0.9l0.4-5.2l0.4-5.2l8.8-1.4c4.9-0.8,9.8-1.1,10.9-0.8c1.1,0.3,2.1,0,2.1-0.7c0-1.4-8.3-1.5-16.5-0.3
		c-3.8,0.6-5.6,0.4-6.5-0.7c-1.6-2.1-18.6-0.2-34.1,3.9c-6.3,1.6-11.6,2.8-11.8,2.7c-0.2-0.2-1.1-3.4-2.1-7.1
		c-1.3-4.9-1.4-6.8-0.4-6.8c0.7,0,2.9-0.8,4.7-1.8c3.1-1.6,15.6-5.3,18-5.3c0.6,0,1.1,1.8,1.1,4c0.2,4.8,1.2,7.7,2.6,7.7
		c0.6,0,1-3,0.9-6.8c-0.1-5.3-0.6-6.8-2.1-7.1c-3.8-0.7-15.7,2.2-22,5.3l-6.3,3.2l0.7,5.3c0.4,2.9,1,6.5,1.4,8
		c0.5,1.7,0.2,2.8-0.9,3.1c-10.7,3.2-30.7,10.1-38.6,13.4c-8.9,3.7-10.1,3.9-11.3,2.2c-1.2-1.7-1.5-1.7-3.1,0.2
		c-1,1.1-2.1,3-2.5,4.1c-1.3,3.8-6.2,3.8-11.1,0.1c-5.7-4.5-7.8-5.3-15.6-6.1l-6.5-0.7l-0.7-7.7c-0.4-4.2-0.6-13.6-0.6-20.8
		l0.1-13.1l-6.5-2.1c-3.6-1.1-11.3-2.2-17.4-2.5L-429.7-73.4z M-202.9-71.1l-10.4,0.3c-9.1,0.3-10.4,0.6-10.4,2.4
		c0,1.9,0.8,2,6.8,1.3c13.4-1.7,12.5-2.2,13.5,8.4c0.5,5.1,0.7,9.5,0.6,9.6c-0.2,0.2-3.5,0.8-7.3,1.5c-3.9,0.7-8.5,1.6-10.3,2
		c-3,0.7-3.2,0.5-3.2-3.4c0-7.8-1.5-18.6-2.6-18.6c-1.7,0,0.1,22.7,1.9,24.1c0.8,0.6,1.8,2.6,2.1,4.4c0.6,3.2,0.6,3.2-6.3,3.2
		c-3.8,0-6.9,0.5-6.9,1.2s4.6,1.2,11.3,1.2h11.3l-0.7,3.4c-0.4,2.1-0.2,3.6,0.7,3.9c1.6,0.5,0.4,4.4-1.4,4.4c-0.7,0-1.2-1.3-1.2-3
		c0-2.9-4-5.7-6.3-4.4c-0.6,0.3-3.7,0.9-7.1,1.3l-6.1,0.8l0.1,9.1c0.2,11.1,1.5,13.2,7.7,12.2c2.4-0.4,6.3-1.6,8.7-2.7
		c3.9-1.9,4.2-2.4,3.9-6.6c-0.3-3.8,0.1-4.8,2.2-5.6c3.2-1.2,4.3-3,2.5-4.2c-0.9-0.6,0.2-1.6,3.2-3l4.6-2.2l-4.5,0.5
		c-4.2,0.5-4.5,0.3-5.1-2.9c-0.6-2.8-1.3-3.5-3.9-3.5c-2.7,0-3.3-0.6-3.8-3.4c-0.4-2.7,0.1-3.7,2.3-4.7c1.5-0.7,4.2-1.3,6-1.3
		c5.8-0.1,11.4-2.7,11.4-5.2c0-1.6,0.8-2.4,2.3-2.4c3.2,0,3.9,4.1,0.8,4.9c-4.2,1.1-6.4,13.1-4.3,23.9c0.8,4,2,4.9,7.5,4.9
		c5.6,0.1,5.4,1.7-0.4,2.8c-3.7,0.7-4,1.1-4.7,6.2s-1,5.5-4.5,5.7c-15.9,1-16.8,2-15.1,16.4c1.4,11.3,2,12.9,4.2,11.1
		c0.8-0.7,2.8-1.2,4.3-1.1c1.6,0.1,5.3-0.2,8.4-0.7l5.6-0.9v4.5c0,2.5,0.3,5.7,0.7,7.2l0,0c0.5,2,1.6,2.6,4.3,2.6
		c4.5,0,13-2.4,14.1-4.1c0.5-0.7,0.9-4.8,0.9-9.1c0-7-0.3-8.1-2.9-10.2c-2.4-1.9-2.9-3.3-2.9-8.3c0-3.3,0.5-6.3,1.2-6.7
		c0.7-0.5,0.7-1.4,0-2.7c-0.6-1.1-1.7-4.2-2.4-7s-1.8-4.9-2.5-4.7s-1.5-0.4-1.9-1.3c-0.4-1.2,1.1-1.5,6.9-1.3c7,0.3,7.5,0.1,8.1-2.6
		c0.6-2.6,1.4-2.9,7.2-3.2l6.6-0.3l0.8,6.8c0.4,3.7,1.1,8,1.5,9.5c0.6,2.3,0.2,2.7-2.4,2.7c-1.9,0-3.1-0.7-3.1-1.7
		c0-2.4-3.7-4.2-8.7-4.2c-7.4,0-7.8,0.5-7.8,10.3v8.8l7.6-0.5c4.2-0.3,8-0.9,8.5-1.4s0.8-2.6,0.6-4.8c-0.2-3.7,0-4,4-4.7l4.3-0.8
		l-0.8-4.9c-0.4-2.7-1.1-7.3-1.5-10.2c-0.8-6.4-2.8-8.1-9.5-8c-7.6,0.1-9-2.3-1.7-2.9c6.8-0.5,7.7-2.7,7-17.5
		c-0.5-9.7-1.1-13.6-2.5-14.9c-2.4-2.4-13.4-3.3-18.6-1.6l-4,1.3l0.6,9.5l0.6,9.5l-4.4-0.3c-4.2-0.2-4.4-0.5-4.4-4.2
		c0-2.2-0.6-4-1.5-4.1c-0.8-0.1-2-0.3-2.6-0.5s-2.1-0.3-3.2-0.4c-1.4-0.1-2.1-1.1-2.1-3.4c0-1.8-0.3-5.2-0.8-7.7L-202.9-71.1z
		 M-426.3-69.9h7c6.1,0,18.8,1.7,19.8,2.7c0.2,0.2,0.7,8,1.1,17.4s1.2,18.1,1.7,19.5c0.9,2.3,0.5,2.6-3.4,3.1
		c-2.4,0.3-8.9,0.6-14.5,0.8l-10.2,0.2l-0.5-5.1c-0.3-2.8-0.6-12.6-0.8-21.8L-426.3-69.9z M-410.1-68.3c-0.1,0-0.2,0.1-0.2,0.1
		c0,0.1,0,0.1,0,0.2s0,0.2,0,0.3c0,0.2,0.1,0.4,0.2,0.6l0.1,0.2c0.1,0.1,0.2,0.2,0.3,0.1c0.1,0,0.1-0.1,0.1-0.2v-0.3
		c0-0.2,0-0.4-0.1-0.6c0-0.1-0.1-0.2-0.2-0.2C-409.9-68.2-410-68.3-410.1-68.3L-410.1-68.3z M-412.3-67.3h-0.1l-0.1,0.1v0.1v0.1
		c0,0.1,0.1,0.2,0.1,0.2c0.1,0.1,0.1,0.1,0.2,0.2s0.2,0.2,0.3,0.2c0,0,0.1,0,0.2,0l0,0l0,0l0.1-0.1v-0.1v-0.1c0-0.1,0-0.1,0-0.2
		c0,0,0-0.1-0.1-0.1c-0.1-0.1-0.1-0.2-0.2-0.3c-0.1-0.1-0.1-0.1-0.2-0.1C-412.1-67.3-412.1-67.3-412.3-67.3L-412.3-67.3z M-407.9-67
		c-0.2,0-0.2,0.1-0.3,0.1c-0.1,0-0.1,0.1-0.2,0.2c0,0.1-0.1,0.1-0.1,0.2v0.1c0,0.1,0,0.1,0.1,0.2c0.1,0.2,0.3,0.2,0.4,0.1
		c0.2-0.1,0.2-0.2,0.3-0.3c0-0.1,0-0.1,0-0.2S-407.7-66.8-407.9-67L-407.9-67L-407.9-67C-407.8-67-407.8-67-407.9-67
		C-407.8-67-407.8-67-407.9-67L-407.9-67z M-412.5-66.6c0,0-0.1,0-0.2,0.1c0,0-0.1,0.1-0.1,0.2v0.1c0,0.1,0.1,0.2,0.2,0.3
		c0,0,0.1,0.1,0.2,0.1s0.2,0,0.3-0.1l0,0V-66c0,0,0,0,0-0.1l0,0c0-0.1,0-0.1,0-0.1c0-0.1-0.1-0.1-0.1-0.1
		C-412.3-66.5-412.3-66.6-412.5-66.6C-412.4-66.6-412.4-66.6-412.5-66.6C-412.4-66.6-412.5-66.6-412.5-66.6L-412.5-66.6z
		 M-406.8-66.1h-0.1c-0.1,0-0.2,0-0.2,0.1c-0.1,0-0.2,0.1-0.2,0.3c0,0.1,0,0.2,0.1,0.2c0.1,0.1,0.2,0.1,0.3,0.1
		c0.2,0,0.2-0.1,0.3-0.2c0,0,0.1,0,0.1-0.1c0,0,0,0,0.1-0.1v-0.1V-66l-0.1-0.1l-0.1-0.1C-406.7-66.1-406.7-66.1-406.8-66.1
		L-406.8-66.1L-406.8-66.1L-406.8-66.1z M-411.1-65.2L-411.1-65.2c-0.1,0-0.2,0-0.2,0.1c-0.1,0.1-0.1,0.1-0.1,0.2v0.1l0,0
		c0,0,0,0,0,0.1c0,0,0,0.1,0.1,0.1l0.1,0.1c0.1,0.1,0.2,0.1,0.3,0.2c0.1,0.1,0.3,0.1,0.4,0.1s0.2,0.1,0.3,0.1h0.1c0,0,0,0,0.1,0v0.1
		l0,0c-0.2,0-0.3,0.2-0.4,0.4s-0.1,0.4-0.2,0.7c-0.1,0.5-0.1,1.2,0,1.8c0,0.2,0.1,0.4,0.1,0.5s0,0.1,0.1,0.2c0,0,0,0,0.1,0l0,0h0.1
		h0.1h0.1h0.1l0,0c0.1-0.1,0.1-0.1,0.1-0.2c0-0.1,0-0.1,0-0.2c0-0.1,0-0.3-0.1-0.5c-0.1-0.8,0-1.6,0.2-2c0-0.1,0-0.1,0.1-0.1
		s0.1,0.1,0.2,0.1c0.1,0.1,0.2,0.1,0.2,0.2c0.1,0,0.2,0.1,0.3,0.1c0.1,0,0.2-0.1,0.3-0.1c0.1-0.1,0.1-0.1,0.2-0.2
		c0.2-0.3,0.3-0.7,0.2-1c-0.1-0.3-0.4-0.6-0.8-0.5h-0.1c-0.2,0-0.5,0.2-0.5,0.4l0,0c-0.1-0.1-0.2-0.1-0.4-0.2
		c-0.2-0.1-0.3-0.1-0.4-0.2C-410.9-65.1-411-65.2-411.1-65.2L-411.1-65.2z M-412-65c0,0-0.2,0-0.1,0h-0.1c-0.1,0-0.1,0.1-0.2,0.1
		c-0.1,0.1-0.3,0.2-0.4,0.4c-0.4,0.4-0.7,0.6-0.8,0.8c-0.2,0.1-0.2,0.2-0.3,0.3c0,0-0.1,0.1-0.1,0.2c-0.1,0.1-0.1,0.2-0.2,0.3
		l-0.3,0.4c-0.1,0.1-0.1,0.3,0,0.3c0.1,0.1,0.2,0.1,0.3,0l0.5-0.3l0,0c0.6-0.4,0.9-0.6,1.4-1.1c0.1-0.1,0.2-0.2,0.3-0.2l0.1-0.1
		c0,0,0.1,0,0,0c0.1,0,0.2,0,0.2-0.1c0,0,0,0,0-0.1c0.1,0,0.1,0,0.1-0.1c0.1,0,0.1-0.1,0.1-0.1c0-0.1,0.1-0.1,0.1-0.2s0.1-0.1,0-0.3
		c0-0.1-0.1-0.2-0.1-0.2s-0.1-0.1-0.2-0.1C-411.8-65-411.9-65-412-65L-412-65z M-177.2-64.8c4.8,0,11.9,1,13.2,2.3
		c1.6,1.6,3,21.7,1.8,25.3c-0.9,2.4-7.1,1.8-8.5-0.9c-0.7-1.3-1-2.8-0.7-3.3c1.4-2.3-3-6.1-7-6.1h-4.1v-8.1c0-5.8,0.5-8.3,1.6-8.7
		C-180.1-64.7-178.8-64.8-177.2-64.8z M-406.3-64.4C-406.3-64.4-406.4-64.4-406.3-64.4c-0.1,0-0.2,0-0.2,0.1l0,0h-0.1
		c-0.1,0-0.2,0-0.3,0c-0.5,0-0.8,0.1-1,0.1c-0.1,0-0.2,0-0.3,0.1c0,0-0.1,0-0.1,0.1s0,0.2,0,0.3c0.1,0.1,0.2,0.1,0.2,0.1
		c0.1,0,0.1,0,0.2,0s0.3,0,0.6,0h0.5v0.1c0.1,0.2,0.3,0.4,0.6,0.5c0.1,0,0.2,0.1,0.3,0.1c0.1,0,0.2,0.1,0.3,0.1c0,0,0.1,0,0.2,0
		s0.2,0.1,0.4,0.1c0.3,0.1,0.8,0.2,1.2,0.2c0.4,0.1,0.7,0.1,1,0.1c0.2,0,0.4,0,0.5,0c0,0,0.1,0,0.2-0.1c0,0,0,0,0.1-0.1l0,0v-0.1
		v-0.1l0,0l0,0c-0.1-0.1-0.1-0.1-0.2-0.1s-0.1-0.1-0.2-0.1c-0.2-0.1-0.5-0.2-0.7-0.3c-0.1,0-0.3-0.1-0.5-0.1c-0.1,0-0.2-0.1-0.3-0.1
		c-0.1,0-0.1-0.1-0.2-0.1c0.1,0,0,0,0,0s0,0-0.1,0s-0.1-0.1-0.2-0.1c-0.2-0.1-0.5-0.2-0.7-0.3c-0.3-0.1-0.5-0.2-0.7-0.3
		C-406.1-64.4-406.2-64.4-406.3-64.4L-406.3-64.4z M-411.7-64.2L-411.7-64.2L-411.7-64.2C-411.7-64.1-411.7-64.1-411.7-64.2
		L-411.7-64.2C-411.8-64.1-411.7-64.1-411.7-64.2C-411.7-64.1-411.7-64.2-411.7-64.2L-411.7-64.2z M-412-64
		C-411.9-64-411.9-64-412-64C-411.9-64-411.9-64-412-64C-411.9-64-412-64-412-64L-412-64z M-411-63c-0.1,0-0.2,0.1-0.3,0.1
		c-0.1,0.1-0.1,0.1-0.1,0.2c-0.1,0.1-0.2,0.2-0.1,0.5v0.1l0,0l0.1,0.1h0.1h0.1c0,0,0,0,0.1,0s0.1-0.1,0.2-0.1l0.1-0.1
		c0.1-0.1,0.2-0.3,0.2-0.4c0-0.1,0-0.1,0-0.2C-410.8-62.9-410.9-63-411-63L-411-63z M-407.4-62.5c-0.1,0-0.2,0.1-0.2,0.2
		c0,0.1,0,0.1,0,0.2l0,0c0,0.1,0,0.1,0.1,0.2c0.1,0.1,0.1,0.1,0.2,0.1s0.2,0,0.2-0.1c0.1-0.1,0.1-0.2,0.1-0.3s-0.1-0.1-0.1-0.2
		l-0.1-0.1l0,0l0,0C-407.3-62.5-407.4-62.5-407.4-62.5L-407.4-62.5L-407.4-62.5z M-408.7-61.9C-408.7-61.9-408.8-61.9-408.7-61.9
		c-0.2,0.1-0.3,0.1-0.3,0.2c0,0.1,0,0.2,0,0.2c0,0.2,0.1,0.4,0.1,0.6c0,0.1,0.1,0.2,0.2,0.3c0,0,0,0,0.1,0.1c0,0,0,0,0.1,0h0.1h0.1
		c0,0,0,0,0.1,0c0,0,0-0.1,0.1-0.1c0-0.1,0-0.2,0-0.3s0-0.2-0.1-0.4c0-0.1-0.1-0.3-0.1-0.3s0-0.1-0.1-0.1
		C-408.6-61.9-408.6-61.9-408.7-61.9L-408.7-61.9z M-409.8-60.1h-0.1c0,0-0.1,0.1-0.1,0.2v0.1c0,0.1,0,0.1,0,0.1
		c0.3,0.5,0.8,0.9,1.5,1.3c0.1,0,0.1,0.1,0.2,0.2c0.1,0.1,0.1,0.2,0.3,0.2l0,0l0,0c0.5,0.4,0.8,0.8,0.9,1.4c0,0.3,0.1,0.6,0.1,0.7
		c0,0.2-0.2,0.4-0.3,0.7s-0.3,0.4-0.3,0.5c-0.1,0.1-0.1,0.2-0.2,0.2l0,0c-0.1-0.1-0.2-0.2-0.3-0.2c-0.1,0-0.2,0.1-0.3,0.1
		c0,0,0,0,0,0.1l0,0c-0.1,0-0.1,0.1-0.1,0.2c0,0.1,0,0.1,0,0.1c0,0.1,0.1,0.2,0.2,0.2l0,0c-0.3,0.2-0.6,0.4-0.7,0.5
		c-0.1,0-0.2,0.1-0.2,0.1l0,0c-0.1,0-0.1-0.1-0.2-0.1s-0.2,0-0.3,0.1c-0.1,0.1-0.1,0.1-0.1,0.2c0,0.1,0,0.1,0,0.2
		c0,0.1,0,0.2,0.1,0.4c0.1,0.3,0.2,0.7,0.4,1.3c0.2,0.5,0.2,0.7,0.2,1.1c0,0.5,0,0.9,0,1.1c0,0.1,0,0.2,0,0.2l0,0
		c-0.1,0.1-0.2,0.2-0.1,0.4c0-0.1,0,0,0,0s0,0.1-0.1,0.1c-0.1,0.1-0.1,0.1-0.1,0.2c0,0.1-0.1,0.1,0,0.3c0-0.1,0,0,0,0
		c0,0.1,0,0.1-0.1,0.2c-0.1,0.2-0.2,0.5-0.4,0.8c-0.2,0.3-0.7,1-1.1,1.3c-0.1,0.1-0.3,0.3-0.4,0.4c-0.1,0.1-0.3,0.3-0.5,0.4
		c-0.1,0.1-0.2,0.1-0.2,0.2h-0.1l0,0c0,0,0.1,0,0,0s-0.2,0.1-0.2,0.1c-0.1,0-0.1,0.1-0.1,0.2l-0.1,0.1c-0.1,0.1-0.2,0.2-0.3,0.3
		c-0.2,0.2-0.5,0.4-0.6,0.5c0,0-0.3,0.3-0.6,0.5c-0.1,0.1-0.3,0.2-0.4,0.3l-0.1,0.1l0,0l0,0l0,0l0,0l-0.1,0.1
		c-0.1,0.1-0.2,0.2-0.3,0.4c-1.6,1.6-2.6,2.9-3.3,4.4c-0.2,0.4-0.3,0.6-0.4,0.8c0,0.1-0.1,0.2-0.1,0.2v0.1l0,0l0,0v0.1v0.1h0.1h0.1
		h0.1h0.1l0,0l0,0c0,0,0-0.1,0.1-0.1c0-0.1,0.1-0.1,0.1-0.2c0.1-0.2,0.2-0.4,0.4-0.8c0.3-0.6,0.7-1.3,0.9-1.5
		c0.4-0.5,0.8-0.9,1.1-1.2c0.2-0.2,0.3-0.3,0.4-0.4c0.1-0.1,0.2-0.1,0.1-0.1c0.1,0,0.1,0,0.1,0c0.1,0.1,0.1,0.2,0.2,0.4
		s0.1,0.6,0.2,0.8c0.1,0.1,0.1,0.2,0.1,0.2c-0.1,0.1-0.1,0.1-0.1,0.2c0,0.1,0,0.2,0,0.3s0.2,0.9,0.4,1.7c0.2,0.8,0.4,1.8,0.4,2.2
		c0.1,0.4,0.2,1,0.2,1.3c0.1,0.3,0,0.5,0,0.7c-0.1,0.2-0.2,0.4-0.5,0.7c-0.2,0.3-0.4,0.4-0.6,0.5c-0.1,0.1-0.1,0.1-0.2,0
		c-0.4-0.2-1-0.5-1.4-0.5c-0.2,0-0.3,0-0.5,0c-0.2,0.1-0.5,0.2-0.9,0.5c-0.2,0.1-0.5,0.3-0.7,0.3c-0.1,0-0.2,0.1-0.3,0.1
		c-0.1,0-0.2,0.1-0.2,0.2s0,0.2,0,0.3c0,0.1,0.1,0.1,0.2,0.2c0.2,0.2,0.5,0.2,0.7,0.2s0.5-0.1,0.7-0.2l0.1,0.1c0,0,0,0,0.1,0
		c0,0,0,0,0.1,0s0.1,0,0.2-0.1l0,0l0,0c0,0,0,0,0.1,0l0,0h0.1c0.1,0,0.1-0.1,0.2-0.1l0,0c0.1,0,0.2,0.1,0.2,0.1c0.1,0,0.1,0,0.2,0
		h0.1l0,0l0,0l0.1-0.1v-0.1l0,0l0,0l-0.1-0.1c0,0-0.1,0-0.2-0.1l0,0c-0.1,0-0.1,0-0.2,0c0,0,0,0-0.1,0l0,0l-0.1-0.1l0,0l0.1-0.1
		v-0.1c0.1,0,0.1,0.1,0.2,0.1s0.1,0,0.2,0c0,0,0,0,0.1,0s0.1,0.1,0.2,0.1s0.2,0.1,0.2,0.1c0.1,0,0.1,0.1,0.1,0
		c0.1,0.1,0.1,0.1,0.2,0.1s0.1,0,0.2,0c0,0,0,0,0.1,0s0.2,0.1,0.3,0.1c0.2,0.1,0.5,0.2,0.8,0.2c0.2,0,0.3,0,0.5-0.1c0,0,0,0,0-0.1
		c0,0,0.1,0.1,0.2,0.1s0.2,0,0.2-0.1l0,0l0,0h0.1h0.1c0,0,0,0,0.1,0c0,0,0,0,0.1,0l0.1-0.1c0-0.1,0.1-0.1,0.1-0.2s0.1-0.2,0.1-0.2
		s0,0,0-0.1v-0.1l-0.1-0.1l-0.1-0.1l0,0l0,0c0,0,0,0,0-0.1c0,0,0,0,0-0.1l0,0l0,0h-0.1h-0.1l0,0l0,0l0,0l0,0c0-0.1,0.1-0.1,0.1-0.2
		c0-0.1,0-0.1,0-0.2c0,0,0,0,0-0.1s0-0.1,0-0.2c0,0,0,0,0-0.1c0,0,0,0,0.1,0c0.2,0.1,0.4,0.3,0.6,0.5l0.7,0.5l-0.1,0.1
		c-0.1,0.1-0.1,0.1-0.2,0.2s-0.2,0.1-0.1,0.1c-0.1,0-0.3,0.1-0.4,0.2c0,0.1-0.1,0.2-0.1,0.3c0,0.1,0,0.1,0.1,0.2s0.2,0.2,0.3,0.2
		c0.1,0,0.3,0,0.4,0c0.2,0,0.4-0.1,0.6-0.2l0.1,0.1c0.2,0,0.3-0.1,0.4-0.3c0-0.1,0-0.1,0-0.2c0.1,0,0.3,0.1,0.7,0.2
		c0.5,0.2,0.9,0.2,1.1,0.1l0.3-0.1c0.1,0,0.2-0.2,0.2-0.3c0-0.1-0.1-0.2-0.2-0.2l-0.4-0.1c-0.2,0-0.3-0.1-0.3-0.1s0-0.1-0.1-0.1l0,0
		c0.1,0,0.1,0,0.2,0.1c0.2,0.1,0.6,0.2,1,0.3c0.2,0.1,0.4,0.1,0.6,0.1s0.3,0.1,0.4,0.1c0.2,0,0.2-0.1,0.3-0.1
		c0.1-0.1,0.1-0.1,0.2-0.2s0.1-0.1,0.1-0.1s0,0,0.1,0c0.2,0.1,0.4,0.1,0.5,0.2c0.1,0,0.4,0.1,0.6,0.2c0.4,0.1,0.7,0.2,2.2,0.4
		c0.4,0.1,0.7,0.1,0.9,0.1c0.1,0,0.1,0,0.1,0h0.1c0,0,0,0,0.1-0.1l0,0l0,0v-0.1l0,0l0,0c0,0,0-0.1-0.1-0.1l-0.1-0.1
		c-0.1,0-0.2-0.1-0.3-0.1c-0.1,0-0.2-0.1-0.4-0.1c-0.6-0.1-1.6-0.3-2-0.4c-0.2-0.1-0.5-0.1-0.7-0.2c-0.2,0-0.4-0.1-0.6-0.1
		c-0.1,0-0.1,0-0.1,0l-0.1-0.1c-0.1,0-0.1,0-0.2-0.1c-0.1,0-0.2,0-0.4,0c-0.3,0-0.6,0.1-0.8,0.2c-0.1,0.1-0.2,0.1-0.2,0.1
		s-0.1,0-0.2-0.1c-0.1,0-0.2-0.1-0.3-0.1h-0.1c0,0,0,0-0.1,0c-0.1-0.1-0.2-0.1-0.3-0.1c-0.1-0.1-0.3-0.1-0.5-0.2l-0.6-0.2
		c-0.1,0-0.2,0-0.2,0l-0.4,0.3c-0.2,0.2-0.3,0.2-0.3,0.2s0,0-0.1,0c-0.1-0.1-0.3-0.2-0.5-0.3c0,0-0.2-0.1-0.3-0.2
		c-0.2-0.1-0.3-0.3-0.5-0.4c-0.2-0.2-0.4-0.3-0.5-0.4c-0.1-0.1-0.1-0.1-0.2-0.1c0,0-0.1,0-0.2-0.1c0-0.1-0.1-0.3-0.1-0.6
		c-0.1-0.4-0.3-1.6-0.4-2.6c-0.2-0.8-0.2-1.3-0.3-1.5c0-0.1,0-0.2,0-0.2c0.1-0.1,0.1-0.2,0.2-0.3c0-0.1,0-0.2-0.1-0.3
		c0-0.1-0.1-0.2-0.1-0.2l-0.1-0.1c0,0,0-0.1,0-0.2c0-0.3,0-0.7-0.1-1.1c-0.1-0.3-0.1-0.5-0.1-0.5s0,0,0.1-0.2l0.1-0.1c0,0,0,0,0.1,0
		s0.1-0.1,0.2-0.1c0.1-0.1,0.2-0.2,0.4-0.4c0.1-0.2,0.5-0.4,0.8-0.7c0.1-0.1,0.3-0.2,0.4-0.3c0.1,0,0.1-0.1,0.1-0.1l0,0l0,0l0,0
		c0,0,0.1,0,0.1-0.1c0.1,0,0.2-0.1,0.2-0.2c0.1-0.1,0.2-0.1,0.2-0.2c0.1-0.1,0.1-0.1,0.2-0.2c0,0,0.1-0.1,0.2-0.1l0,0
		c0,0,0.1,0.1,0.3,0.2l0.1,0.1c-0.6-0.1-1.1,0.1-1.4,0.6c-0.4,0.5-0.4,1.1-0.2,1.8c-0.1,0-0.1-0.1-0.2-0.1s-0.1,0-0.2,0
		s-0.3,0-0.4,0.1c-0.1,0-0.1,0.1-0.2,0.1c0,0.1-0.1,0.2-0.1,0.3c0,0,0,0.1,0.1,0.2c0,0.1,0.1,0.1,0.2,0.1s0.2,0,0.3,0
		c0.2,0,0.3-0.1,0.4-0.2c0,0,0-0.1,0-0.2c0,0,0,0,0,0.1c0.1,0.2,0.3,0.4,0.4,0.5c-0.1,0-0.1-0.1-0.2-0.1s-0.1,0.1-0.2,0.1l-0.1,0.1
		c-0.1,0.1-0.1,0.2-0.2,0.4c-0.1,0.1-0.1,0.2-0.1,0.3v0.1c0,0,0,0,0,0.1l0,0l0,0l0.1,0.1h0.1c0.1,0,0.2,0,0.2-0.1l0.1-0.1
		c0.1-0.1,0.1-0.2,0.2-0.3s0.1-0.2,0.1-0.3s0.1-0.2,0.1-0.3v-0.1c0.6,0.5,1.4,0.6,2,0.3l0,0v0.1c0,0.1,0,0.1,0,0.2
		c0,0.1,0.1,0.2,0.1,0.3c0,0,0,0.1,0.1,0.1c0,0,0,0,0,0.1h0.1h0.1h0.1h0.1h0.1l0,0l0,0v-0.1v-0.1l0,0c0-0.2-0.1-0.3-0.2-0.4
		c-0.1,0-0.1-0.1-0.2-0.1c0.2-0.1,0.5-0.3,0.6-0.6c0.1-0.1,0.1-0.3,0.1-0.4l0,0c0.1,0.1,0.2,0.2,0.4,0.2c0.1,0,0.2,0,0.2-0.1
		c0.1-0.1,0.1-0.2,0.1-0.3c0-0.2-0.1-0.2-0.2-0.2s-0.1,0-0.2,0s-0.1,0-0.2,0.1c0-0.3,0-0.6-0.1-0.8c-0.2-0.6-0.6-1.1-1.1-1.5
		c-0.1-0.1-0.2-0.1-0.2-0.2c0,0-0.1,0-0.1-0.1l0,0c0-0.1-0.1-0.2-0.2-0.2s-0.1-0.1-0.2-0.1h-0.1c0,0,0,0,0,0.1
		c0-0.1-0.1-0.1-0.1-0.1c0.1-0.1,0.2-0.2,0.3-0.3c0,0,0,0,0.1-0.1c0,0,0.1,0,0,0c0.1,0,0.2,0,0.2-0.1v-0.1c0.1,0,0.1,0,0.2-0.1
		s0.2-0.2,0.3-0.3c0.2-0.2,0.5-0.5,0.7-0.8s0.5-0.6,0.7-0.9c0.1-0.1,0.2-0.3,0.2-0.4c0.1-0.1,0.1-0.2,0.1-0.3l0,0
		c0.1-0.1,0.1-0.1,0.2-0.2c0-0.1,0.1-0.2,0.1-0.3c0-0.2,0.1-0.5,0.1-0.7c0-0.5,0-1.1-0.1-1.5c0-0.2-0.1-0.4-0.2-0.6
		c-0.1-0.3-0.2-0.6-0.3-0.9c-0.1-0.1-0.1-0.3-0.2-0.3c0,0,0-0.1-0.1-0.1c0,0,0,0-0.1-0.1l0,0l0,0c0-0.2-0.1-0.3-0.2-0.4
		c0.1,0,0.1,0,0.2,0s0.1-0.1,0.2-0.1l0.1-0.1c0,0,0,0,0-0.1l0,0l0.1-0.1c0.5-0.3,0.9-0.8,1.2-1.4c0.3-0.6,0.6-1.2,0.6-1.7
		c0-0.3-0.2-0.4-0.3-0.5c-0.1-0.1-0.1-0.1-0.2-0.2c0-0.2,0.1-0.5-0.1-0.8c-0.1-0.2-0.3-0.4-0.5-0.5c-0.2-0.2-0.4-0.3-0.6-0.5l0,0
		c-0.1,0-0.1-0.1-0.1-0.3c-0.1-0.2-0.2-0.4-0.4-0.5c-0.3-0.1-0.7-0.4-1-0.7C-409.6-60-409.7-60.1-409.8-60.1L-409.8-60.1
		C-409.7-60-409.7-60.1-409.8-60.1L-409.8-60.1L-409.8-60.1L-409.8-60.1z M-410.6-59.8l-0.2,0.1l-0.1,0.1c0,0.1,0,0.1,0,0.1
		c0,0.1,0,0.2,0,0.3c0.1,0.4,0.4,0.9,0.9,1.3c0.1,0,0.1,0.1,0.1,0.2c0,0.1,0.1,0.2,0.1,0.3l0,0l0,0l0,0c0.2,0.4,0.4,0.8,0.4,1.1v0.1
		c0,0,0,0.1,0,0c-0.1,0.3-0.6,0.9-1.5,1.4c-0.1,0.1-0.2,0.1-0.3,0.1l0,0c-0.3-0.2-0.5-0.3-0.8-0.4c-0.3-0.1-0.7-0.1-1.3-0.1
		c-1.2,0-1.3,0-2.1,0.3c-0.8,0.3-1.7,0.8-2.3,1.4c-0.7,0.6-1.8,2.1-2.2,3.1c-0.2,0.5-0.5,1.2-0.7,1.6c-0.1,0.2-0.2,0.4-0.2,0.6
		c0,0.1-0.1,0.2-0.1,0.2v0.1l0,0l0,0c0,0,0,0.1-0.1,0.1c0,0.1-0.1,0.1-0.1,0.2c-0.1,0.1-0.1,0.3-0.2,0.6c-0.1,0.5-0.3,1.1-0.4,1.7
		c-0.4,2.3-0.5,3.6-0.4,5c0,0.2,0,0.3,0,0.4c0,0.1,0,0.2,0,0.2v0.1c0,0,0,0,0,0.1l0,0l0,0v0.1l0.1,0.1h0.1h0.1l0,0l0,0l0,0
		c0,0,0,0,0-0.1l0,0c0.1-0.1,0-0.2,0-0.3s0-0.3,0-0.4c-0.1-1.4,0-3,0.5-5.3c0.1-0.3,0.1-0.6,0.2-0.8c0-0.1,0-0.2,0-0.3v-0.1l0,0l0,0
		l0,0l0,0v-0.1c0-0.1,0.1-0.2,0.1-0.3c0.1-0.1,0.1-0.3,0.1-0.4v-0.1l0,0l0,0l0,0l0,0c0,0,0,0,0-0.1s0.1-0.2,0.1-0.4
		c0.1-0.3,0.3-0.8,0.6-1.4c0.5-1,1.4-2.3,2.3-3c0.7-0.5,1.9-1.2,2.4-1.4c0.2-0.1,0.7-0.1,1.1-0.2c0.2,0,0.4,0,0.6,0
		c0.1,0,0.1,0,0.2,0c0,0,0.1,0,0,0c0.1,0.1,0.3,0.1,0.4,0.1c0,0,0.2,0,0.4,0.1c0.1,0,0.1,0.1,0.2,0.1l0,0c0,0.1,0.1,0.1,0.1,0.1
		c0.1,0,0.1,0,0.2,0l0.1,0.1c0.1,0,0.1,0.1,0.2,0.1s0.3,0.1,0.5,0s0.3-0.3,0.3-0.5l0,0c0.1,0,0.2-0.1,0.4-0.3
		c0.7-0.4,1.1-0.9,1.2-1.6c0-0.2-0.1-0.4-0.1-0.5c-0.1-0.1-0.1-0.1-0.1-0.1c0-0.1,0-0.3,0-0.5l0,0c0-0.4-0.3-0.7-0.5-0.9l0,0
		c0-0.1-0.1-0.2-0.1-0.4s-0.1-0.4-0.3-0.6c-0.4-0.4-0.6-0.7-0.7-0.9c0-0.1-0.1-0.1-0.1-0.2c0,0,0-0.1-0.1-0.1l0,0
		C-410.5-59.8-410.5-59.8-410.6-59.8C-410.5-59.8-410.6-59.8-410.6-59.8L-410.6-59.8L-410.6-59.8z M-408.2-54.3
		C-408.2-54.3-408.1-54.3-408.2-54.3C-408.1-54.3-408.2-54.3-408.2-54.3L-408.2-54.3L-408.2-54.3z M-411.7-53.8
		C-411.7-53.7-411.7-53.7-411.7-53.8C-411.6-53.7-411.6-53.7-411.7-53.8C-411.6-53.7-411.6-53.7-411.7-53.8
		C-411.7-53.7-411.7-53.8-411.7-53.8L-411.7-53.8z M-409.3-52.9L-409.3-52.9C-409.4-52.8-409.4-52.8-409.3-52.9
		C-409.4-52.9-409.4-52.9-409.3-52.9C-409.4-52.9-409.4-52.9-409.3-52.9C-409.4-52.9-409.3-52.9-409.3-52.9L-409.3-52.9z
		 M-408.1-52.9L-408.1-52.9L-408.1-52.9C-408.1-52.8-408.1-52.8-408.1-52.9L-408.1-52.9z M-411.1-52L-411.1-52
		c-0.3,0.1-0.3,0.3-0.2,0.5c0.4,0.9,0.6,1.3,0.7,2c0,0.2,0.1,0.4,0.1,0.6c0,0.1,0,0.2,0,0.2s0,0.1,0,0c0,0.1-0.1,0.3,0,0.5v0.1
		c-0.1,0.1-0.2,0.3-0.3,0.5c-0.1,0.1-0.4,0.5-0.6,0.8s-0.7,0.8-0.9,1.1l-0.5,0.6c-0.1,0.1-0.1,0.3,0,0.3c0.1,0.1,0.2,0.1,0.3,0
		l0.5-0.3c0.5-0.3,0.8-0.6,1.5-1.3c0.2-0.2,0.4-0.5,0.5-0.7c0.1-0.1,0.1-0.3,0.2-0.4c0-0.1,0-0.1,0.1-0.2c0-0.1,0-0.1,0-0.2
		c0,0.1,0,0,0,0V-48l0,0c0.1-0.3,0.1-0.6,0.1-0.9c0-0.4-0.1-0.8-0.2-1.1c-0.1-0.2-0.2-0.5-0.3-0.7c-0.1-0.2-0.2-0.5-0.4-0.7
		c-0.1-0.1-0.1-0.2-0.2-0.3l-0.1-0.1C-410.9-52-410.9-52-411.1-52C-411-52-411.1-52-411.1-52L-411.1-52z M-432.9-50.6
		c1.1,0,1.8,0.2,2.1,0.4c0.5,0.5,1.1,6.1,1.5,12.4l0.6,11.5h-5.1h-5.1l-0.8-6.2c-0.4-3.4-1.1-8.6-1.5-11.6l-0.7-5.4l5-0.8
		C-435.3-50.6-434-50.7-432.9-50.6L-432.9-50.6z M-235.1-44.8c-0.2,0-0.3,0.4-0.3,1.3c-0.1,1.2,0.2,1.9,0.6,1.5
		c0.4-0.4,0.4-1.4,0.1-2.3C-234.8-44.6-235-44.8-235.1-44.8z M-179.6-44.4L-179.6-44.4c6.3,0.2,6.1,2.8,5.5,13.6l-0.4,8l-6.1-0.1
		l0,0c-3.3,0-8.6,0.3-11.6,0.7l-5.5,0.8l-0.8-4.4c-0.5-2.4-0.4-7.4,0.2-11l1-6.6l8.8-0.6C-184.6-44.3-181.7-44.5-179.6-44.4z
		 M-410.6-41.3L-410.6-41.3l-0.1,0.1C-410.7-41.2-410.7-41.2-410.6-41.3C-410.7-41.2-410.7-41.2-410.6-41.3
		C-410.7-41.3-410.7-41.3-410.6-41.3L-410.6-41.3L-410.6-41.3L-410.6-41.3z M-410-40.8C-409.9-40.8-409.9-40.8-410-40.8
		C-409.9-40.8-410-40.7-410-40.8C-410-40.7-410-40.8-410-40.8L-410-40.8z M-233.9-40.1c-0.2,0-0.3,0.4-0.3,1.3l0,0
		c-0.1,1.2,0.2,1.9,0.6,1.5c0.4-0.4,0.4-1.4,0.1-2.3C-233.7-39.9-233.8-40-233.9-40.1L-233.9-40.1z M-406.2-31.4L-406.2-31.4
		L-406.2-31.4C-406.1-31.4-406.1-31.3-406.2-31.4C-406.1-31.4-406.2-31.4-406.2-31.4L-406.2-31.4z M-413.2-30.9
		c0.1,0,0.1,0.1,0.1,0.1S-413.1-30.8-413.2-30.9C-413.1-30.8-413.2-30.8-413.2-30.9L-413.2-30.9L-413.2-30.9z M-218.4-26.1
		c0.1,0,0.1,0,0.1,0c0.2,0.2,0.6,3.5,1.1,7.5l0.8,7.2l-5.6,1.9c-8.4,2.9-9.5,2.6-10.4-2.5c-0.4-2.4-0.7-6.1-0.7-8.2
		c0-3.4,0.4-3.8,3.2-3.8c1.8,0,5.1-0.5,7.3-1.2C-220.7-25.7-218.9-26.1-218.4-26.1L-218.4-26.1z M-525.3-22.8c-0.8,0-1,2.1-0.5,5.9
		c0.7,5.7,0.6,5.9-2.2,5.9c-2.3,0-2.9-0.6-2.9-2.9c0-1.6,0.5-3.2,1.2-3.6c0.6-0.4,1.2-1.4,1.1-2.1c0-0.8-1.1-0.1-2.4,1.5
		c-1.3,1.6-2.1,3.8-1.8,5c0.5,1.8-0.2,2.1-5.1,2.1h-5.7l-0.4,8.4c-0.3,7.5-0.1,8.5,2,9.5c1.6,0.7,2.4,2.4,2.6,5.1
		c0.2,3.3-0.1,4-2.4,4.4c-2.2,0.3-2.7,1.2-3,5.7l-0.4,5.4l9.6-1c5.3-0.6,9.8-0.8,10-0.6c0.5,0.5,1.7,9.9,4.3,32
		c1.3,10.8,1.6,12,1.9,7.1c0.2-3.2-0.2-10.9-0.9-17.1c-1.8-14.9-2.1-17.6-3.1-30.4c-0.9-12-0.2-13.7,5.1-12.4
		c2.1,0.5,2.7,0.2,2.7-1.7c0-1.3,0.3-4.1,0.7-6.3c0.5-2.8,0.4-3.6-0.5-2.8c-0.7,0.6-1.4,2.7-1.6,4.6c-0.3,3.1-0.9,3.5-5.1,3.8
		c-5.5,0.4-13,1.5-16.7,2.4c-2.4,0.6-2.6,0.1-2.9-6.4l-0.4-7.1l11.2-0.5c6.1-0.3,11.8,0,12.7,0.6c1,0.7,1.5,0.5,1.5-0.7
		c0-2.2-2.8-3.4-5.5-2.4c-1.3,0.5-1.7,0.3-1.1-0.7C-522.2-14-523.7-22.8-525.3-22.8L-525.3-22.8z M-251.7-16.3
		c-2.5,0-2.8,2.2-2.1,8.4c0.4,4.1,1.4,9.5,2.2,11.9c1.6,4.8,2.6,5.1,10.8,3.7c7.2-1.3,7.7-0.7,7.7,9c0,4.7,0.7,10.1,1.4,11.9l0,0
		c1.4,3.2,1.5,3.1,1.9-3.2c0.5-7.3-1.5-18.1-3.7-19.8c-0.9-0.7-3.9-0.8-8.3,0c-3.8,0.6-7.2,0.8-7.6,0.5c-0.3-0.3-1-3.4-1.5-6.8
		s-1.3-7.9-1.7-10.1c-0.5-2.1-0.4-3.8,0.2-3.7c0.6,0.1,2.4,0.1,4-0.1l2.9-0.3l-2.9-0.9C-249.8-16.1-250.9-16.3-251.7-16.3
		L-251.7-16.3z M-190.6-14.6c2.5,0,4.6,0.4,4.6,0.9s0.4,4.3,0.8,8.5c0.4,4.2,0.8,9.5,0.8,11.7c0.1,5.1-2.4,6.1-3.3,1.3
		c-0.4-2-1-5.2-1.4-7.2c-0.5-2.8-1.5-3.7-4.1-4.3c-3.6-0.7-4.2-2.7-2.7-8.3C-195.3-14.1-194.4-14.6-190.6-14.6z M-365.1-11.6
		c-1.3,0,0.1,24.6,2.1,35.2c0.2,1.3,0.7,8.7,1.1,16.5s0.9,14.9,1.2,15.8c0.3,1,0.9,1.3,1.6,0.6s0.7-3.7,0-8.1
		c-1.1-6.9-2.9-27.3-4.3-48.2c-0.4-5.8-1.1-11.1-1.6-11.6C-365.1-11.5-365.1-11.6-365.1-11.6z M-171.2-10.9c1,0,2.1,0.1,3.2,0.3
		c2.3,0.6,2.9,1.7,3.5,6.2c0.4,3,0.6,5.6,0.5,5.7c-1.3,1-6.7,1.3-8.8,0.5c-1.9-0.7-2.6-2-2.6-4.5c0-1.9-0.3-4.3-0.7-5.3
		C-176.8-9.6-174.3-10.9-171.2-10.9z M-206-10.7c-3.8,0-10.7,2.3-10.7,4c0,1.1,1,1.3,3.2,0.7c1.8-0.4,5.2-0.8,7.6-0.9
		c4.5-0.1,5.2-1.4,1.9-3.4C-204.3-10.5-205.1-10.7-206-10.7z M-200.3-1.4c9.3,0,9.1-0.2,10.1,9.8c0.3,3.2,0.8,6.9,0.9,8.2
		c0.2,2.1-0.5,2.4-5.6,2.5l0,0c-3.2,0.1-9.2,0.5-13.2,0.9l-7.4,0.7v-5c0-2.8-0.3-7-0.7-9.4c-0.7-4.1-0.5-4.4,3.4-6.1
		C-210.4-0.7-205.1-1.4-200.3-1.4L-200.3-1.4z M-528.3,5.6c1.8,0,2.1,0.9,2.1,3.2c0,1.9,0.3,5.8,0.7,8.8l0.7,5.5h-3.6
		c-2.4,0-3.8-0.7-4.1-2.1c-0.4-1.5-0.6-1.4-0.7,0.6c-0.1,1.5-0.9,2.6-1.8,2.6c-0.9,0-3.3,0.3-5.3,0.7c-3.5,0.7-3.7,0.5-3.7-2.9
		c0-3.7,0-3.7,6.4-3.7c3.6,0,6.8-0.6,7.2-1.4c0.5-0.9,0.3-1-0.6-0.5c-0.8,0.5-2.6,0.6-4.1,0.2c-2.1-0.5-2.7-1.6-2.8-4.8
		c-0.1-3.8,0.2-4.2,4.2-5.3C-531.1,6-529.4,5.6-528.3,5.6L-528.3,5.6z M-155.2,12.6c-0.9,0-2.1,0-3.7,0.1l-6.6,0.3v7.6
		c0,8.1-0.7,9.4-5.1,9.4c-2.7,0-2.7,0.1-1.8,9.1c0.5,5,0.8,10.9,0.7,13c-0.1,2.2,0,4.4,0.3,4.9s4.9,0.9,10.1,0.8
		c10.9-0.2,10.9-0.2,11.1-13.4c0-4,0.5-7.4,1.1-7.4c1.5,0,0.1-17.6-1.7-21.5C-151.9,13.4-152.4,12.7-155.2,12.6z M-180.4,13.4
		c2.2,0,2.6,1.8,2.6,7.1c0,7.5-1.1,9.5-5.7,10.8c-6.4,1.8-8.1,1.5-8.8-1.4c-1.4-5.1-0.9-7.9,1.5-7.9c2.8,0,5.1-2.7,4.2-4.9
		c-0.5-1.2,0.6-2.1,3.4-3C-182.1,13.7-181.1,13.4-180.4,13.4z M-155.4,13.7c1.6,0,3.4,4.3,4.1,9.7c0.3,2.8,0.8,5.6,1,6.3
		s-0.1,2-0.6,2.9c-0.9,1.4-1,1.4-1.1,0c0-2.9-3.6-4.6-7.9-3.6l-3.9,0.9v-7.4c0-7.3,0-7.4,3.7-8.1C-158,14-155.9,13.7-155.4,13.7z
		 M-199.3,24.8c-0.7-0.1-0.8,4.4-0.2,14.2c0.5,8.4,0.5,15,0.1,14.6s-1-2.8-1.3-5.3c-1.9-16.3-3.8-16.4-2.7-0.2
		c1.1,15.4,2.3,20.4,4.7,20c2.2-0.4,2.8,3.2,5,27.4c1.6,17.8,1.5,18.2-4.3,18.2c-4.5,0-5.6,2.8-3.9,9.5c0.8,3.1,1.8,6.2,2.3,6.9
		c0.4,0.7,0,1.6-1,2s-1.5,1.2-1.2,1.7c0.3,0.6,3.4-0.1,6.8-1.4c10.1-4,10-4,10.6-0.3c0.5,3.3,0.5,3.2,0.7-0.5c0.2-3.6,0.5-3.8,4.6-4
		c9.1-0.3,9.1-0.3,8.8-3.4c-0.2-1.6-0.4-5.1-0.6-7.6c-0.5-6.4-1.6-8-4.5-6.4c-1.3,0.7-2.8,0.9-3.4,0.6c-1.9-1.2-2.8-15.9-2.9-45.8
		c-0.1-22.3-0.4-29.4-1.6-29.8c-1.1-0.4-1.5,2-1.6,9.3c-0.1,13.9-1.9,17.2-2.1,4c-0.1-5.8-0.5-10.8-0.8-11.1
		c-1.3-1.3-0.2,33.9,1.3,45.2c0.9,6.5,1.9,12.8,2.2,14.1c0.3,1.3,0.8,5.4,1.1,9.1c0.5,5.3,0.2,6.8-1.1,6.8c-1,0-1.8-1.3-1.9-3.2
		l-0.2-3.2l-0.5,3.2c-0.3,1.8-1.2,3.2-2,3.2c-1.1,0-1.6-2.6-1.8-9c-0.1-5-0.4-9.3-0.6-9.7c-0.6-0.9-2.3-19.9-2.3-24.5
		c0-2.3-0.5-3.8-1.4-3.8c-4.8,0-6.9-8.4-2.7-10.6c1.6-0.8,2.2-2,1.7-3.2c-0.4-1.1-1-7.2-1.3-13.7s-1.1-12.4-1.8-13
		C-199.2,24.8-199.3,24.8-199.3,24.8L-199.3,24.8z M-538.2,30.1c-0.8,0-1,1.6-0.6,4.1c0.4,2.3,0.2,4.1-0.4,4.1
		c-0.6,0-1.1,2.1-1.1,4.7c0,4.4,0.2,4.7,3.2,4.7c4.6,0,8.5-1.2,8.5-2.6c0-0.7-0.9-0.8-2.1-0.3c-1.1,0.5-3.5,1-5.3,1.2
		c-2.7,0.3-3.2-0.1-3.2-2.5c0-2.1,0.7-2.9,2.6-3c4.9-0.4,6.2-0.6,9.1-2c2.6-1.2,2.3-1.3-2.9-1.1c-5.8,0.2-5.9,0.2-6.3-3.5
		C-536.8,31.9-537.5,30.1-538.2,30.1L-538.2,30.1z M-153.4,32.6l0.7,3.6c1,5.2,0.9,15.4-0.3,17.3c-1.3,2-15.5,2.9-16,1
		c-0.2-0.7-0.6-5.9-0.9-11.4l-0.5-10l8.5-0.3L-153.4,32.6z M-535.3,52.1c-0.6-0.3,0.7,15.9,3.8,46.9c0.3,3.2,0.8,7,1.1,8.4
		s1.1,8.8,1.8,16.5s2.1,19,3,25.1c2.9,19.6,5.2,39.9,7.4,64.1c0.5,5.8,0.9,7,1.2,4.1c0.2-2.3-0.1-8.6-0.8-14.1s-1.6-14-2-18.8
		c-1.1-14-2.8-29.5-4-35.9c-0.6-3.2-1.7-12.2-2.5-20s-2.1-18.9-3-24.7c-0.9-5.8-1.4-11.7-1.1-12.9c0.3-1.3-0.7-11.3-2.3-22.3
		C-534.1,57.6-535,52.3-535.3,52.1z M-358,58.4c-6,0-10.9,10.4-12.8,27.3c-0.5,4.7-0.7,9-0.5,9.5c0.3,0.5,1.8,0.3,3.4-0.3
		c2.8-1.1,2.9-0.9,2.9,3.4c0,4.1,0.4,4.6,3.8,5.7c6.3,2,10.1,1.7,11.5-0.9c1.5-2.9,1.7-19.5,0.2-23.6c-0.6-1.6-0.8-3.5-0.5-4.3
		C-349.3,73.2-356.4,58.4-358,58.4L-358,58.4z M-185.8,60.6C-185.8,60.6-185.7,60.6-185.8,60.6c0.6,0.6,0.9,3.9,0.7,7.4l-0.4,6.3
		l-0.6-7.3C-186.4,63.2-186.2,60.5-185.8,60.6L-185.8,60.6z M-359.5,63.4c0.6-0.1,1.4,0.4,2.2,1.5c2.8,3.6,5.4,13.3,6.1,22.5
		l0.7,8.4l-4,0.6c-2.2,0.3-4.9,1-6,1.5c-1.7,0.8-2.1,0.2-2.2-3.6C-363.5,74.3-362.3,63.6-359.5,63.4z M-527.1,66.6
		c-0.5-0.1-0.2,7,1.6,30.6c0.4,4.9,1.4,13.3,2.2,18.8c0.9,5.5,2,14,2.4,18.8c0.5,4.9,1.1,8.2,1.4,7.4c0.4-1.2-2-27.2-3.8-40.9
		c-0.3-1.9-1.1-10.4-1.8-18.8C-525.8,74.1-526.7,67-527.1,66.6C-527,66.6-527.1,66.6-527.1,66.6L-527.1,66.6z M-190.7,77.3
		c-0.1,0,0.1,0.5,0.4,1.5c0.4,1.2,0.8,3.3,0.8,4.7c0.2,2.5,0.2,2.5,0.7-0.1c0.3-1.4-0.1-3.6-0.8-4.7
		C-190.2,77.7-190.6,77.2-190.7,77.3L-190.7,77.3z M-366.8,87.6c0.1,0,0.2,0.1,0.3,0.6c0.3,1.1,0.3,2.7,0,3.5s-0.6-0.1-0.5-2.1
		C-367.1,88.4-367,87.7-366.8,87.6L-366.8,87.6z M-187.8,91.3c-0.1,0.1-0.3,1.8-0.3,4.7c0,4.2,0.2,5.9,0.5,3.8s0.3-5.5,0-7.6
		C-187.6,91.6-187.7,91.3-187.8,91.3z M-354.8,98.6c1.6,0,2.8,0.4,2.5,1.3c-0.3,0.8-2.5,1.7-5,1.9c-3.7,0.3-4.3,0.1-3.2-1.2
		C-359.5,99.3-356.8,98.6-354.8,98.6z M-517.5,100L-517.5,100c-0.4,0.3-0.3,3.6,0.2,7.2s1.1,6.4,1.4,6c0.3-0.3,0.2-3.6-0.2-7.2
		C-516.6,102.6-517.2,100-517.5,100L-517.5,100z M-174.3,112.7v3.2c0,1.7,0.3,4.4,0.7,5.8c0.6,2.3,0.3,2.6-2.9,2.6
		c-2,0-6.7,1-10.4,2.2l0,0c-3.8,1.2-7.7,2.6-8.7,3c-1.5,0.6-2.1-0.5-3.2-5.3c-0.8-3.3-1.1-6.5-0.8-7.1s3.4-1,6.8-1
		c3.4,0,8.9-0.7,12.3-1.7L-174.3,112.7z M-351.9,115.9c1,0,2,3.1,1.5,6.4c-0.4,2.4-1.2,4.4-1.8,4.4c-0.6,0-0.8-0.4-0.5-1
		c0.3-0.5-0.2-2.4-1.1-4.3c-1.8-3.5-2.4-7.1-0.7-4.4c0.9,1.4,1.1,1.4,1.6,0C-352.6,116.2-352.2,115.9-351.9,115.9L-351.9,115.9z
		 M-515.1,118.3c-0.2,0-0.1,3.6,0.2,10.7c0.3,7.4,1.4,20.4,2.3,28.8c0.9,8.4,2.5,22.5,3.4,31.2c1.7,16.2,2.7,23,3.5,25.6l0,0
		c0.3,0.8,1,1.5,1.7,1.5c1.5,0,1.5-1.6,0-7.7c-1.2-5.1-1.5-6.7-4.1-28.8c-1.8-14.7-2.8-24-5.3-47.1
		C-514.3,123-514.9,118.3-515.1,118.3L-515.1,118.3z M-349.8,130.3c0.6,0,1.2,0.1,1.6,0.3c0.8,0.3-0.1,0.6-2.1,0.5
		c-1.9,0-2.6-0.3-1.4-0.6C-351.1,130.4-350.4,130.3-349.8,130.3z M-352.1,134c3.3,0,8.3,1.1,7.7,2.1c-0.4,0.6-1,1-1.5,0.9
		c-0.4-0.1-2.9-0.5-5.5-0.9c-3.1-0.5-4.2-1-3.2-1.7C-354.1,134.2-353.2,134.1-352.1,134L-352.1,134z M-350.1,139.7
		c0.7,0,1.5,0.2,2.5,0.6c2.9,1,3.3,1.8,3.8,7.9c0.6,6.3-0.1,8.3-1.8,5.5c-0.4-0.7-2.4-0.9-4.6-0.5l-3.8,0.7l0.7-6.5
		C-352.6,141.5-352.1,139.6-350.1,139.7z M-348.7,154.9c1.8,0,3.6,0.3,4.7,1c1.3,0.8,1.5,6,1.1,27.3c-0.5,26.8-1.5,33.6-4.3,28.4
		c-0.7-1.3-2.1-6.9-3.1-12.3c-1-5.4-2.3-11.8-2.8-14.2c-0.6-2.6-0.5-4.1,0.1-3.8c1.3,0.8,1.3-3.2-0.1-14.7
		c-0.6-4.8-0.7-9.4-0.4-10.3C-353.2,155.5-351,155-348.7,154.9L-348.7,154.9z M-348.6,158.4c-1.3,0-2,0.5-1.6,1.2
		c0.4,0.6,1.8,1.2,3.1,1.2s2-0.5,1.6-1.2C-345.9,159-347.3,158.4-348.6,158.4L-348.6,158.4z M-177.3,174.3c0.1,0,0.1,0.1,0.2,0.3
		c0.3,0.8,0.3,2.1,0,2.9c-0.3,0.8-0.6,0.1-0.6-1.5C-177.6,174.9-177.5,174.2-177.3,174.3z M-516.2,185.4c-0.2,0-0.3,1.5-0.3,4.2l0,0
		c0,3.9,0.2,5.6,0.5,3.8s0.3-4.9,0-7.1C-516,185.8-516.1,185.4-516.2,185.4L-516.2,185.4z M-173.3,199.6c0.6,0,1.3,1.3,1.6,3
		c0.6,3.4-0.8,5.1-1.9,2.2C-174.6,202.1-174.5,199.6-173.3,199.6z M-175.8,209.2c4.8,0,5,0.5,5,1.9c0,2.6-2.4,4-4.6,2.7
		c-0.8-0.5-23.4-0.7-50.2-0.6c-29.4,0.2-48.8-0.1-48.8-0.8c0-1.4,5.7-1.6,38.3-1.7c14.2,0,34.8-0.5,45.6-1
		C-183.3,209.5-178.7,209.2-175.8,209.2z M-283.5,211.9c2.4,0,4.3,0.1,4.7,0.5c0.8,0.8-2.1,1.3-8.4,1.6c-5.3,0.2-9.6,0.1-9.6-0.3
		C-296.7,212.7-288.8,211.9-283.5,211.9z M-501.5,217.4c-0.5,0-1.1,0.1-1.5,0.2c-0.8,0.3-0.1,0.6,1.5,0.6s2.3-0.3,1.5-0.6
		C-500.4,217.5-501,217.4-501.5,217.4z M-347.8,220.2c-0.6,0-1.1,0.3-1.3,0.6c-0.4,0.6,0.4,1.1,1.7,1.1c2.8,0,3.1-0.7,0.7-1.6
		C-347,220.3-347.4,220.2-347.8,220.2z M-515.4,222.2c-0.1,0.1,0,0.6,0.2,1.8c0.3,1.7-0.1,2.6-1.2,2.6c-0.9,0-1.7,0.6-1.7,1.3
		c0,0.9,1.5,1.1,4.4,0.6c2.4-0.4,5.4-0.7,6.7-0.7c3.7,0,1-1.6-3.1-1.8c-2.4-0.1-4.1-1-4.7-2.4C-515.1,222.7-515.3,222.2-515.4,222.2
		L-515.4,222.2z M-386.1,223.3c0.5,0,1.1,0.1,1.5,0.2c0.8,0.3,0.1,0.6-1.5,0.6s-2.3-0.3-1.5-0.6
		C-387.2,223.4-386.7,223.3-386.1,223.3z M-492.1,228c-0.5,0-1.1,0.1-1.5,0.2c-0.8,0.3-0.1,0.6,1.5,0.6s2.3-0.3,1.5-0.6
		C-491,228.1-491.5,228-492.1,228z M-499.1,229.2c-0.7,0-1.5,0.1-2.1,0.2c-1.1,0.3-0.2,0.5,2.1,0.5c2.3,0,3.2-0.2,2.1-0.5
		C-497.6,229.3-498.4,229.2-499.1,229.2z"/>
	</g>
	<g id="small_nodules">
		<g>
			<path class="st0" d="M405.7,300.8c-0.1-0.5-0.1-1.7-0.2-2.8c0-1.1-0.1-2-0.2-2.1s-0.1-0.2,0-0.4c0.1-0.1,0-0.5,0-0.7
			c-0.1-0.5-0.1-0.5-1.3-0.3c-2,0.2-5.2,0.1-10.8-0.4c-0.6-0.1-1.4-0.1-1.9-0.2s-1.2-0.1-1.6-0.2c-0.2,0-0.4-0.1-0.5-0.1l0,0
			c-0.2,0-0.4,0.1-0.6,0.2c-0.3,0.3-0.4,0.5-0.3,4.6c0,2.4,0.1,4.5,0.1,4.7c0.2,0.7,0.4,5.4,0.5,8.5c0,0.4,0.9,0.7,2.5,0.8
			c0.6,0.1,1.2,0.1,1.3,0.2c0.1,0,0.5,0.1,0.9,0.2s1,0.3,1.3,0.3c0.9,0.1,8-0.1,8-0.2c0,0,0.3-0.1,0.7-0.1c0.4,0,0.8-0.2,0.9-0.3
			c0.1-0.1,0.4-0.2,0.6-0.2s0.5-0.1,0.5-0.3C406.2,311.1,406,303.1,405.7,300.8z M404.6,311c-0.3,0-0.5,0.1-0.6,0.3
			s-0.4,0.3-0.7,0.4c-0.3,0-1,0.1-1.6,0.2c-2.8,0.3-6.8,0.1-8-0.3c-0.2-0.1-0.7-0.2-1.3-0.2c-0.6,0-1.3-0.2-1.7-0.2
			c-0.7-0.2-0.7,0.2-0.8-3.6c-0.1-2.5-0.2-4-0.4-5c-0.1-0.9-0.1-7.6,0-7.8c0-0.1,0.1-0.1,0.2-0.1l0,0c0.1,0,0.2,0,0.4,0.1
			c0.2,0.1,0.6,0.2,0.8,0.2c0.4,0,2.8,0.2,3.6,0.3c1.4,0.2,3.3,0.3,6.4,0.3c1.9,0,3.5,0.1,3.6,0.1c0.1,0.1,0.2,1.5,0.2,3.2
			s0.2,3.2,0.2,3.4c0.1,0.4,0.2,1.2,0.2,4.4C405.1,310.9,405.1,311,404.6,311z"/>
			<path class="st0" d="M400,296.3c-0.1,0-0.2,0.1-0.4,0.2c-0.3,0.3-0.4,0.5-0.3,1.3c0.1,0.9,0.1,1-0.3,1.1l-0.4,0.1l0.5,0.4
			c0.3,0.2,0.4,0.5,0.4,0.7c-0.1,0.3,0.4,0.8,0.8,0.8c0.1,0,0.2-0.2,0.2-0.5c0-0.5,0.1-0.6,0.5-0.3c0.2,0.1,0.2,0.4,0.2,0.9
			c-0.1,0.7-0.1,0.8,0.2,0.8c0.4,0,0.9-0.5,0.8-0.8c-0.1-0.1,0-0.5,0.2-0.9s0.2-0.6,0.1-0.7s-0.2-0.6-0.3-1.2c0-0.7-0.1-1.1-0.3-1.2
			c-0.3-0.1-0.6,0.6-0.7,1.4s-0.9,0.7-1-0.1c0-0.2,0-0.6-0.1-1C400.1,296.9,400,296.5,400,296.3C400.2,296.4,400.1,296.3,400,296.3
			L400,296.3z"/>
			<path class="st0" d="M398.1,300.2c-0.4-2.6-0.9-3.2-2.7-3.6c-0.2,0-0.6-0.1-1-0.1l0,0c-1.2,0-2.8,0.2-3.2,0.4
			c-0.4,0.2-0.4,0.6,0.2,0.8c0.5,0.2,0.7,0.9,0.8,3.2c0.1,1.1,0.1,1.1-0.5,1.3c-0.3,0.1-0.6,0.2-0.7,0.3c-0.1,0.2,0.3,0.5,0.9,0.6
			c0.3,0,0.5,0.1,0.6,0.2s0.1,1.4,0.1,2.9c0,2.2,0.1,2.8,0.3,3.1c0.4,0.4,0.9,0.3,0.8-0.2c-0.1-0.7-0.1-6.1,0-6.1
			c0,0,0.4-0.1,0.8-0.2c2-0.3,2.9-0.6,3.4-1.2C398.2,301.3,398.3,301.2,398.1,300.2z M395.4,301.7c-0.8,0.1-1.5,0.3-1.7,0.3
			c-0.3,0.1-0.4-0.1-0.5-1.6c-0.1-0.7-0.2-1.5-0.3-1.8c-0.2-0.5-0.2-0.7,0-0.8c0.2-0.1,0.5-0.2,1-0.2l0,0l0,0l0,0
			c0.5,0,1,0.1,1.6,0.2c1,0.2,1.2,0.4,1.5,2.1C397.4,301.2,397.2,301.4,395.4,301.7z"/>
			<path class="st0" d="M403.3,306.7c0.4-0.1-0.1-0.7-0.7-0.8c-0.5-0.1-0.7-0.2-0.8-0.6c-0.2-0.7-0.9-1.9-1.5-2.5
			c-0.2-0.2-0.3-0.3-0.5-0.3l0,0c-0.3,0-0.5,0.3-0.7,1.1c-0.3,1.3-0.6,1.8-0.9,1.8c-0.2,0-0.5,0.2-0.7,0.4c-0.3,0.3-0.3,0.4-0.1,0.6
			c0.1,0.1,0.4,0.2,0.5,0.2c0.2,0,0.2,0.1,0.1,0.2c-0.3,0.4-1.4,2.4-1.4,2.6c0,0.1,0.1,0.3,0.2,0.5c0.3,0.3,0.4,0.3,0.8-0.5
			c0.2-0.4,0.5-0.8,0.6-0.8c0.1-0.1,0.2-0.3,0.2-0.5s0.1-0.4,0.2-0.4s0.2-0.2,0.2-0.4c0-0.5,0.4-0.7,1.3-0.7c1.1,0,1.1,0.1,1.1,0.3
			c0,0.1,0.2,0.4,0.4,0.6c0.2,0.2,0.4,0.5,0.4,0.6c0,0.2,0.2,0.5,0.3,0.7c0.3,0.4,0.4,0.4,0.7,0.2c0.3-0.3,0.3-0.3-0.1-1.1
			C402.6,307,402.6,306.9,403.3,306.7z M400.8,305.8c-0.1,0-0.4-0.1-0.7-0.1c-0.5-0.1-0.5-0.1-0.4-0.6c0.1-0.4,0.2-0.6,0.3-0.6
			c0.1,0,0.3,0.2,0.5,0.6C400.8,305.4,400.9,305.8,400.8,305.8z"/>
		</g>
		<g>
			<path class="st0" d="M270.4,137.7c-1.1,0-1.9,0.4-1.4,1.1c0.4,0.6,2.2,1.2,3.9,1.2c2.5,0,2.8-0.3,1.4-1.2
			C273.1,138.1,271.6,137.7,270.4,137.7z"/>
			<path class="st0" d="M314,137.9c-1.6,0-3.9,0.1-6.7,0.3c-6.1,0.4-13.8,0.7-17.1,0.7c-5.1,0-5.6,0.2-3.9,1.6
			c1.1,0.9,3.9,1.4,6.5,1.2c2.5-0.2,8.7-0.7,13.9-1.1s9.9-1.2,10.6-1.8C317.8,138.2,316.7,137.9,314,137.9z"/>
			<path class="st0" d="M278.6,140.6c-0.5,0-0.8,0.3-0.8,0.6c0,0.6,0.8,1.1,1.8,1.1s1.8-0.2,1.8-0.5s-0.8-0.8-1.8-1.1
			C279.2,140.6,278.9,140.6,278.6,140.6L278.6,140.6z"/>
			<path class="st0" d="M307.2,159.3c-0.8,0-1.8,0.1-2.9,0.1c-9.8,0.7-13.5,1.7-13.5,3.6c0,2.1,1.2,2.1,4.2,0.1
			c1.3-0.9,4.9-1.6,8.1-1.7c3.2-0.1,6.3-0.7,7-1.3C310.6,159.5,309.6,159.3,307.2,159.3z"/>
			<path class="st0" d="M281.6,159.9c-0.7,0-1,0.9-0.2,2.4c1.3,2.5,5.2,3.2,6.5,1.2c0.4-0.6-0.3-1.2-1.6-1.2c-1.3,0-2.7-0.5-3.1-1.2
			C282.6,160.3,282,160,281.6,159.9L281.6,159.9z"/>
			<path class="st0" d="M335,159.2c-2.5-1.6-4.1-2.2-6.9-2.1c-1,0-2,0.1-3.3,0.2c-6.5,0.7-14.5,3.9-11.9,4.8c0.8,0.3-2.4,3.1-7.1,6.2
			c-11.6,7.8-24.4,21.2-24.4,25.7c0,5.5,1.3,10.6,2.9,11.2c1,0.4,1.3-0.2,0.9-1.7c-0.3-1.2,0-2.3,0.7-2.3s1.3,1,1.3,2.3
			s0.8,3.1,1.9,4.1c1.9,1.9,5.2,2.3,9.6,1.1c3.9-1.1,3.2-2.8-1.2-2.8c-8.4,0-8.1-2.5,0.9-6.4c9.9-4.3,14.7-6.7,14.7-7.5
			c0-0.4,2.3-2,5.2-3.5c6-3.2,18.9-16.1,20.7-20.6C340.5,163.8,339.8,162.3,335,159.2z M296.4,183.4c0.9-0.7,1.4-1.1,1.5-1
			s-0.3,0.5-1,1.5c-0.9,1.1-1.8,2.1-2.1,2.1C293.8,185.9,294.4,185,296.4,183.4z M291.6,190c-0.8,1.7-1.8,3-2.3,3s-0.9,0.8-0.9,1.8
			s-0.5,1.8-1.2,1.8c-1.5,0,1.5-6,4-8.1c0.6-0.5,1-0.8,1.1-0.8C292.6,187.6,292.4,188.3,291.6,190z M328.6,169.9
			c-4.2,0.8-7.2,2.6-7.2,4.4c0,0.6,0.8,1,1.8,1s1.8-0.5,1.8-1c0-0.6,1.1-1.3,2.4-1.7c4-1,2.6,1.4-3.1,5.4c-3,2.1-6.6,4.8-7.9,6
			c-1.4,1.2-5.6,3.7-9.4,5.7c-8.3,4.2-12.6,5.9-12.6,4.9c0-0.4,1.9-3.3,4.2-6.5c2.9-3.9,4.7-5.4,5.6-4.7c0.7,0.6,2.1,0.7,3.1,0.3
			c2.3-1,10.6-6.1,10.6-6.6c0-1.1-7.6,0.3-8,1.5c-0.6,1.8-2.6,1.9-2.6,0.2c0-2.4,9.1-9.3,12.2-9.3c1,0,1.9-0.7,1.9-1.5
			s1.7-2.4,3.9-3.6c1.9-1,3.2-1.5,4.5-1.5c0.8,0,1.6,0.2,2.5,0.6C337.6,165.5,335.8,168.5,328.6,169.9z"/>
		</g>
		<g>
			<path class="st0" d="M321.3,218.6c-2.6,0-4.1,0.1-3.7,0.5c0.5,0.4,3.2,1,6.1,1.2s6.6,0.1,8.2-0.2l2.9-0.6l-2.9-0.3
			C327.7,218.8,323.9,218.6,321.3,218.6z"/>
			<path class="st0" d="M308.7,235.6L308.7,235.6c-4.2,0-8.7,0.4-10.2,1.2c-2.5,1.3-1.7,1.5,6.2,1.3c11.5-0.2,12-0.3,12-1.3
			C316.7,236,312.9,235.7,308.7,235.6L308.7,235.6z"/>
			<path class="st0" d="M307.9,243.9L307.9,243.9c-2.3,0-4.2,0.3-5.1,0.8c-1.4,0.8-2.6,1.8-2.6,2.4s1.9,0.3,4.2-0.5
			c4.3-1.5,6.7-1.5,13.6,0c2.8,0.6,3.6,0.5,2.7-0.5C319.5,244.7,312.8,243.8,307.9,243.9z"/>
			<path class="st0" d="M316,248.3c-1.6,0-2.9,0.5-2.9,1.2s1.6,1.2,3.6,1.2c2.1,0,3.3-0.5,2.9-1.2S317.6,248.3,316,248.3z"/>
		</g>
		<g>
			<path class="st0" d="M238.7,64.8c-0.6,0-0.8,0.3-0.8,1c0,0.6,0.9,1.3,2.1,1.6c3.1,0.7,4.6-0.6,2-1.6
			C240.3,65.1,239.3,64.8,238.7,64.8z"/>
			<path class="st0" d="M224.2,67.2c-0.6,0-1.9,0.3-3.5,1s-1.8,1-0.6,1.1c1,0,2.6-0.4,3.5-1.1C224.8,67.5,224.8,67.2,224.2,67.2
			L224.2,67.2z"/>
			<path class="st0" d="M257.6,68.4c-6.8,0.1-13.9,1.9-13.9,4.3c0,1.2,0.6,1.4,2.1,0.8c3-1.3,11.9-2.7,17.9-3
			c4.4-0.2,4.8-0.3,2.4-1.1C263.7,68.7,260.7,68.4,257.6,68.4L257.6,68.4z"/>
			<path class="st0" d="M257.8,74.7c-0.5,0-1.1,0-1.6,0c-3.7,0.1-8.1,0.7-9.5,1.6c-0.6,0.4,0.2,1.1,1.8,1.5s3.7,0.6,4.7,0.4
			s3.9-0.8,6.4-1.2c4.2-0.8,4.4-0.9,1.9-1.8C260.7,74.8,259.4,74.7,257.8,74.7L257.8,74.7z"/>
			<path class="st0" d="M262,79h-2.4c-1.3,0-3.7,0.5-5.3,1l-2.9,0.9h2.9c1.6,0,4-0.4,5.3-1L262,79z"/>
			<path class="st0" d="M238.8,84.2c-5.7,0-13.4,0.7-14.4,1.7c-1.1,1.1-0.8,1.1,1.4,0c1.6-0.8,3.3-1,4.1-0.4c1.2,0.9,5.5,1,12.9,0.5
			c1.1-0.1,2.1-0.6,2.1-1.1C244.9,84.4,242.2,84.2,238.8,84.2z"/>
			<path class="st0" d="M290.1,90.8c-7.6-0.1-24.5,2.3-26.8,4.5c-0.5,0.5,2.9,0.2,7.6-0.6c4.7-0.8,11.6-1.6,15.3-1.6
			c3.7,0,7-0.6,7.4-1.2C294.2,91.1,292.7,90.8,290.1,90.8z"/>
			<path class="st0" d="M250,94.3c-0.6,0-1.7,0.3-3.3,1c-2.3,1-2.3,1,0.2,1.1c1.4,0,2.9-0.4,3.3-1.1C250.6,94.6,250.5,94.3,250,94.3z
			"/>
			<path class="st0" d="M234.9,95.3c-1,0-1.8,0.5-1.8,1.1s0.8,0.8,1.8,0.5c1-0.4,1.8-0.9,1.8-1.1C236.6,95.5,235.9,95.3,234.9,95.3z" />
			<path class="st0" d="M274,99c-1.3,0-3,0.1-5,0.3c-8,0.8-15.3,2.9-10.6,3c1.3,0,6-0.5,10.5-1.1c6.8-1,8.5-0.9,10,0.6
			c1.9,1.9,5.9,2.3,10.4,1.1c4.6-1.2,1.6-2.8-3.8-2c-3.5,0.5-5.8,0.2-7-0.8C277.6,99.3,276.3,99,274,99z"/>
			<path class="st0" d="M340.5,105.9c-1.4,0-3.3,0.1-5.7,0.3c-5.8,0.3-10.7,1.2-11.5,2.1c-1.1,1.2-0.2,1.4,4.5,0.9
			c3.2-0.3,7.7-0.2,10,0.2c5.1,0.9,7.1,0.3,7.1-2c0-0.9-0.6-1.4-3.2-1.4C341.4,105.9,341,105.9,340.5,105.9L340.5,105.9z"/>
			<path class="st0" d="M289.6,107.6c-7.6,0-14.5,0.6-15.6,1.7c-1.3,1.4-1,1.5,2,0.7c1.9-0.5,10.2-0.9,18.2-0.9
			c9.7,0,12.7-0.3,8.8-0.8C299.1,107.8,294.2,107.6,289.6,107.6z"/>
			<path class="st0" d="M296.4,115.3c-5,0-8,1-8,2.6c0,0.8,1.9,0.9,5,0.4C300.1,117.3,302,115.3,296.4,115.3L296.4,115.3z"/>
		</g>
		<g>
			<path class="st0" d="M421.2,35.3c-1.4,0-3.3,0.7-3.7,1.8c-0.4,1.2,0,1.8,1.4,1.8c1.1,0,3.5,0.7,5.3,1.5c2.6,1.2,3.2,2.3,3.2,5.7
			c0,3.4-0.5,4.4-2.6,5c-6,1.6-7.8,0.9-8.6-3.1c-0.4-2.1-0.6-4.4-0.5-5c0.6-2.9-0.2-6.5-1.2-5.9c-0.9,0.6-1,4.7-0.2,15.8l0,0
			c0.1,1.3,1.6,1.5,6.6,1c3.5-0.4,7-1,7.7-1.4c0.7-0.4,1.2-3.4,1.2-6.7c0-5.5-0.3-6-3.5-7.3c-1.9-0.7-3.5-1.7-3.5-2.3
			C422.7,35.6,422,35.3,421.2,35.3L421.2,35.3z"/>
			<path class="st0" d="M466,46.4c-0.5,0-1,0.1-1.3,0.3c-0.7,0.4,0.5,1.4,2.7,2.2c2.2,0.8,4.1,1.5,4.3,1.6c0.2,0.1,0.3-0.4,0.3-1.1
			C472.1,48.1,468.3,46.4,466,46.4z"/>
			<path class="st0" d="M463.2,50.3c-1.1,0.1-1.8,3.8-0.9,5.2c0.8,1.3,4.2,1.2,6.3-0.2c1.4-0.9,1-1.1-1.5-1.2c-2.2,0-3.2-0.6-2.9-1.7
			c0.2-0.9-0.1-1.9-0.7-2.1C463.3,50.3,463.2,50.3,463.2,50.3L463.2,50.3z"/>
			<path class="st0" d="M426.4,76.1c-1.6-0.9-2.7-1.3-3.9-1.4c-1.2-0.1-2.7,0.2-4.9,0.8l-5.3,1.4l0.6,6c0.3,3.3,0.8,6.6,1,7.4
			c0.5,1.6,6.2,1.9,12.2,0.7c3.5-0.7,3.7-0.9,3.7-6.8C429.8,78.7,429.5,77.9,426.4,76.1z M427.2,84l-0.4,4.8l-5.5,0.4l-5.5,0.4
			l-0.4-5.2c-0.4-4.8-0.2-5.3,2.9-6.5c1.2-0.5,2.3-0.7,3.3-0.7s2,0.3,3,0.7C427.1,79,427.5,79.9,427.2,84z"/>
		</g>
		<g>
			<path class="st0" d="M129.7,150.2c-1.7,0-3.6,0.2-5.6,0.5c-3.7,0.6-6.9,1.1-7.1,1.1s-0.3,0.5-0.3,1c0,0.6,2.2,0.6,5,0.1
			s7.1-1,9.7-1.1c4-0.1,4.3-0.3,2.1-1.2C132.7,150.3,131.3,150.2,129.7,150.2L129.7,150.2z"/>
			<path class="st0" d="M133.5,154.4c-0.9,0-2.3,0.1-4.3,0.2c-3.8,0.3-7.5,1.2-8.2,2c-1.7,1.8,10.1,0.7,13.1-1.3
			C135,154.7,134.9,154.4,133.5,154.4L133.5,154.4z"/>
			<path class="st0" d="M97.8,154.1c-2.7-0.3-6.3-0.5-10.2-0.5c-1.3,0-2.6,0-4,0c-8.9,0.1-18.2,0.8-21,1.8l-4,1.4l2.8,1.6
			c1.5,0.9,5.5,1.6,8.7,1.7l5.9,0.2l-5.2,1c-2.8,0.6-5.5,1.3-5.9,1.8c-0.9,0.9,17.7-0.7,19.3-1.7c0.6-0.4-0.9-1.1-3.5-1.5
			c-4-0.6-3.5-0.8,3.5-1c4.5-0.2,6.9-0.6,5.3-0.9c-5.7-1-4.5-2.1,1.9-1.7c3.6,0.2,7.9,0,9.7-0.5C103.9,155,103.4,154.8,97.8,154.1z
			 M77.1,156.7c-0.6,1-5.2,1.5-5.2,0.6c0-0.2,1.3-0.7,2.9-1c0.4-0.1,0.8-0.2,1.1-0.2C76.8,156.1,77.4,156.3,77.1,156.7z"/>
			<path class="st0" d="M65.9,157.8c0.4,0,0.8,0.1,1,0.3c0.4,0.4-0.3,0.7-1.5,0.6c-1.4-0.1-1.7-0.3-0.7-0.7
			C65.1,157.9,65.5,157.8,65.9,157.8z"/>
			<path class="st0" d="M127.6,160.1c-3.7,0-5.7,1.3-4.3,2.7c1.2,1.2,3.3,0.9,5.7-1C131.2,160.2,131.2,160.1,127.6,160.1L127.6,160.1
			z"/>
			<path class="st0" d="M79.9,166.3c-1,0-2.6,0.1-4.7,0.3c-4.4,0.4-9.1,1.2-10.6,1.8c-2,0.9-0.6,1,5.3,0.5c4.4-0.4,9.1-1.2,10.6-1.8
			C81.7,166.5,81.6,166.3,79.9,166.3L79.9,166.3z"/>
			<path class="st0" d="M74.7,172.1c-0.8,0-2.1,0.1-3.9,0.3c-3.6,0.4-7,1.3-7.6,2c-1.5,1.6,9.3,0.3,12.1-1.5
			C76.2,172.3,76.1,172.1,74.7,172.1L74.7,172.1z"/>
			<g>
				<path class="st0" d="M448.8,11.3c-1.1-0.9-3-1.5-4.8-1.5c-0.3,0-0.5,0-0.8,0c-3.1,0.3-3.5,0.9-3.9,4.8c-0.2,2.4-0.1,5.1,0.2,5.9
				c0.7,1.8,7.8,2.1,9.9,0.4C451.6,19.1,451.2,13.5,448.8,11.3z M445.1,20c-3.2,0-3.6-0.4-3.6-3.4c0-2.5,0.3-3.2,2.3-3.2
				c0.3,0,0.6,0,0.9,0c2.6,0.1,3.3,0.7,3.6,3.4C448.6,19.7,448.3,20,445.1,20z"/>
				<path class="st0" d="M248.3,203.7c1.3-0.8,1.3-1.1,0-1.6c-0.6-0.2-1.5-0.3-2.5-0.3c-2.9,0-6.7,1-6.1,1.9
				C240.5,205,246.2,205,248.3,203.7z"/>
				<path class="st0" d="M247.9,207.2c-3.6,0-7.6,1.3-7.6,2.4c0,1.7,5.2,1.2,7.7-0.7C250.2,207.2,250.2,207.2,247.9,207.2z"/>
				<path class="st0" d="M231.4,213.1c0.3,0,0.5-0.5,0.5-1.2c0.1-0.7-0.5-1.2-1.2-1.2s-0.9,0.5-0.5,1.2
				C230.6,212.5,231.2,213.1,231.4,213.1z"/>
				<path class="st0" d="M248.3,216.3c-2.3-0.2-3.6-0.3-4.4-0.3s-1.2,0.1-1.6,0.3c-0.5,0.2-0.6,0.9-0.2,1.5c0.9,1.5,6.1,1.4,7-0.1
				C249.5,217.1,249.1,216.4,248.3,216.3z"/>
				<path class="st0" d="M236.4,225.6c0.3-1,0.3-1.5,0-1.5c-0.3-0.1-0.9,0.2-1.9,0.9c-1.3,0.8-2.1,1.9-1.8,2.5
				C233.7,229,236,227.8,236.4,225.6z"/>
				<path class="st0" d="M246.3,226c-2.6,0-4.2,1.5-2.9,2.8c1.2,1.2,2.3,0.9,3.9-1C248.5,226.2,248.4,226,246.3,226z"/>
				<path class="st0" d="M227.9,261.4c-1.8,1.8,4.2,1.2,8.2-0.7l3.5-1.8l-5.3,0.7C231.4,260,228.5,260.8,227.9,261.4z"/>
				<path class="st0" d="M236.9,264.3c-0.5,0-1.1,0.1-2,0.2c-1.6,0.3-2.9,1.3-2.9,2.2c0,2,1.2,2,3.8,0
				C238,265.1,238.3,264.3,236.9,264.3z"/>
				<path class="st0" d="M146,174.2c-7.7,0-10.4,0.5-15.2,2.9c-4.8,2.4-7.5,2.9-15.6,3c-10.6,0-15.4,0.8-14.4,2.5
				c0.4,0.6,5.2,0.7,10.7,0.3c7.8-0.6,10.3-0.4,11,0.8c0.8,1.3,1.3,1.3,2.9,0c1.6-1.3,1.8-1.3,1.1,0.5c-0.4,1.2-1.6,1.8-2.8,1.5
				c-2.7-0.7-5,1.3-7.3,6.1c-2.4,5.1-2.1,7.4,1.5,9.3c3.8,2.1,10.5,1.1,17.9-2.6c10.6-5.3,12.9-8.2,2.9-3.6
				c-5,2.3-10.8,4.5-12.9,4.9l-3.8,0.8l2.6-3.4c5.1-6.8,5.8-7.5,7.7-7.5c1.1,0,1.8-0.6,1.6-1.4c-0.2-0.8,2.4-2.4,5.6-3.6
				s8.2-3.3,11-4.7c4.3-2,5.3-2.2,6.2-0.8c1.4,2.2,0.6,4.1-1.4,3.6c-0.9-0.2-1.2,0-0.7,0.5s0.2,1.7-0.5,2.7c-0.8,1,0.6,0,3-2.2
				c2.4-2.2,4.4-4.8,4.4-5.6C161.4,175.5,156,174.2,146,174.2z M126.7,190.2c-0.9,0.5-2.8,2.9-4.2,5.4c-1.4,2.4-3.1,4.4-3.7,4.4
				c-2.2,0-2.5-4-0.5-7.7c1.6-3,3-4,6.1-4.3c0.5,0,1,0,1.4-0.1C128.7,187.8,129.3,188.8,126.7,190.2z M133.6,184.1
				c-1.3,1-3.3,1.7-4.6,1.8c-2.3,0-2.3,0,0-1.7c1.3-0.9,3.4-1.7,4.6-1.8C135.9,182.4,135.9,182.4,133.6,184.1z M144.4,178.3
				c-1.3,1-3.6,1.8-5.3,1.7c-3.7,0-1.4-1.6,4-2.8c1.3-0.2,2.1-0.4,2.5-0.4C146.2,176.8,145.8,177.2,144.4,178.3z M159,179.4
				c-0.6,0.4-1.2-0.1-1.2-1.1s0.6-1.8,1.2-1.8c0.6,0,1.2,0.5,1.2,1.1C160.2,178.2,159.7,179,159,179.4z"/>
			</g>
			<path class="st0" d="M55.5,189.5c-1.3,0-2.4,0.5-2.4,1.2c0,0.6,0.8,1.2,1.7,1.2c0.9,0,2-0.5,2.4-1.2
			C57.6,190,56.8,189.5,55.5,189.5z"/>
			<path class="st0" d="M145.8,207.2c-2.4,0-4.4,0.4-4.4,1.1c0,1.4,3.2,1.4,6.5,0C149.7,207.5,149.3,207.3,145.8,207.2z"/>
			<path class="st0" d="M68,208.4c-0.6,0-0.8,0.4-0.5,1.2c0.5,1.4,2.5,2,13,3.8c1.1,0.2,2.4,0.7,2.8,1.2c1.2,1.2,2.3,1,3.9-0.9
			c1.6-2,0.3-3.1-3.6-3c-3.3,0.1-10-0.9-13.8-2C68.9,208.5,68.3,208.4,68,208.4z"/>
			<path class="st0" d="M148.2,210.2c-1.3,0-3.4,0.8-4,1.9c-0.4,0.6,0.5,1,2,0.7c1.5-0.2,2.9-1,3.1-1.8
			C149.5,210.4,149,210.2,148.2,210.2L148.2,210.2z"/>
			<path class="st0" d="M151.4,213c-0.3,0-0.8,0.5-1.2,1.2c-0.4,0.6-0.2,1.2,0.5,1.2s1.2-0.5,1.2-1.2S151.7,213,151.4,213z"/>
			<path class="st0" d="M77,216.6c-1.9,0-3.5,1.5-4.4,4.3c-0.8,2.4-0.5,2.6,3.9,2.6c3.3,0,5.6,0.8,7.6,2.6c7,6.5,19,16.9,21,18.3
			c1.2,0.9,2.2,2.5,2.1,3.5c-0.1,1.1-0.1,2.4-0.1,2.8c0.3,2.1,2.3,0.6,3.7-2.8c1.3-3.2,1.3-3.9-0.4-5.1c-1.2-0.9-1.7-2.3-1.2-4
			c0.5-2,0.3-2.4-1.2-1.8c-1,0.4-1.9,1.2-1.9,1.8c0,2.5-3,0.5-12-8.1c-5.3-5-10.7-10.3-12.2-11.8C80.2,217.4,78.5,216.6,77,216.6
			L77,216.6z"/>
			<path class="st0" d="M172.6,226c-1.5,0-3.1,0.3-3.5,1c-0.3,0.6-0.3,1.4,0.2,1.8c0.4,0.4,1.5,0.5,2.4,0.2s2.1-0.6,2.7-0.6
			s1.1-0.5,1.1-1.2C175.5,226.4,174.1,226,172.6,226z"/>
			<path class="st0" d="M119.3,240.1c-2.1,0-3.8,0.5-3.8,1.2c0,1.5,3.6,1.5,5.9,0C122.7,240.4,122.2,240.1,119.3,240.1z"/>
			<path class="st0" d="M75.7,245.1c-4.9-0.1-10,1.2-10.6,3c-0.4,1.3,0,1.3,2,0.2c1.4-0.7,3.4-1.3,4.5-1.2s4.7,0.1,7.9-0.1l5.9-0.3
			l-5-1.2C79,245.3,77.4,245.1,75.7,245.1z"/>
			<path class="st0" d="M121.1,246c-0.9,0-2,0.3-3.1,1c-1.4,0.9-1.4,1.3,0,2.8c1.7,1.8,3.9,1.5,2.8-0.4c-0.4-0.6-0.1-1.1,0.6-1.1
			s1.2-0.5,1.2-1.2C122.5,246.4,121.9,246,121.1,246z"/>
			<path class="st0" d="M76.6,250.7c-3.1,0-7,1.4-7,2.5c0,1.6,3.9,1.2,6.4-0.8C77.6,251.2,77.8,250.7,76.6,250.7z"/>
			<path class="st0" d="M165.5,251.9c-0.9,0-1.7,0.3-1.7,1.1c0,0.6,0.9,1.3,2.1,1.5c2.6,0.6,3.1,0.2,2.1-1.4
			C167.4,252.3,166.4,251.9,165.5,251.9L165.5,251.9z"/>
			<path class="st0" d="M83.7,253c-2.3,0-3.1,1.2-1.6,2.7c0.9,0.9,4-0.3,4-1.6C86,253.5,85,253,83.7,253z"/>
			<path class="st0" d="M142.4,261.9c-3.2,0-5.7,0.7-6.4,1.9c-0.4,0.6,2.2,1,5.6,0.9s7.6,0.4,9.3,1c1.6,0.7,6.4,1.6,10.6,2
			c4.2,0.5,8.4,1.3,9.3,1.8c2.6,1.4,3.3,0,0.9-1.7c-1.1-0.8-4.9-1.9-8.2-2.3c-3.3-0.4-9.1-1.6-12.8-2.5
			C147.8,262.2,144.9,261.9,142.4,261.9L142.4,261.9z"/>
			<path class="st0" d="M51.7,269.5c-2.1,0-0.8,1.9,3.1,4.4c2.3,1.5,4.1,3.2,4.1,3.8c0,0.6,0.6,1.2,1.3,1.2c2.5,0,0.4-4.1-3.5-6.7
			C54.5,270.7,52.3,269.5,51.7,269.5z"/>
			<path class="st0" d="M160.8,274.3c-1.3,0-3.4,0.5-4.7,1.1c-2.2,0.9-2.1,1,0.6,1.1c1.6,0,3.7-0.4,4.7-1.1
			C162.8,274.4,162.7,274.3,160.8,274.3z"/>
		</g>
		<g>
			<path class="st0" d="M79.6,61.7c-0.5,0-0.9,0.2-1.2,0.5c-0.4,0.6,0.2,1.4,1.4,1.6c1.1,0.3,4.5,0.5,7.4,0.5h5.3l-5.3-0.8
			c-2.9-0.4-5.9-1.1-6.7-1.6C80.3,61.8,79.9,61.7,79.6,61.7L79.6,61.7z"/>
			<path class="st0" d="M101,63.6c-0.8,0-0.7,0.5,0.4,1.2c2.3,1.5,2.7,1.5,1.8,0C102.7,64.1,101.8,63.5,101,63.6z"/>
			<path class="st0" d="M137.5,63.9c-1.3,0-2.6,0.2-4.1,0.6c-4.1,1.1-4,1.2,3.3,1.2c6.5,0,7.2-0.1,4.4-1.2
			C139.9,64.1,138.8,63.9,137.5,63.9L137.5,63.9z"/>
			<path class="st0" d="M137.7,70.7c-0.6,0-1.3,0.1-1.9,0.2c-1.1,0.3-0.5,0.6,1.4,0.6s2.9-0.2,2.1-0.5
			C138.9,70.8,138.3,70.8,137.7,70.7z"/>
			<path class="st0" d="M108.1,114.2c-2.2,1.7-3.1,2-3.3,0.9c-0.1-0.9-0.3-2.9-0.5-4.5c-0.2-1.6-0.7-6.6-1.2-11.2
			c-1.6-16.3-2.1-17.7-5.3-17.3c-5,0.6-10.8,0.7-20,0.4L69,82.2l3.8-3.2c4.3-3.5,5-6.1,1.6-6.1c-2.1,0-9.6,5.3-10.5,7.4
			c-0.2,0.5-2,1.7-4,2.8c-3.3,1.7-3.7,1.7-4.7,0c-1.8-3.3-2.7-2.1-2.3,3.2c0.3,4.3-0.2,5.9-3.8,10.6c-2.3,3-4.2,5.8-4.2,6.1
			c0,1.7,3.7,0.2,5.7-2.4c1.3-1.6,2.6-2.5,3-2c0.3,0.5,1.2,7.8,2,16.2c1.9,21.3,1.8,20.8,5.6,20c1.8-0.4,6.7-0.9,11-1.2
			s8.3-0.6,8.8-0.7c0.6-0.1,2.3-0.1,3.8,0c2.2,0.1,2.7,0.7,2.2,2.5c-0.8,3,0.4,3,3.8,0c1.6-1.4,4.2-2.3,6.7-2.2
			c4.8,0.2,6.7-1.2,3-2.2c-3.4-0.9-3.2-2.8,0.4-5.5c2.9-2.1,2.9-2.1,2.9,1c0,1.7,0.5,2.8,1.1,2.4c0.6-0.4,1-2.4,1-4.4
			c-0.1-2.4,0.6-4.2,2-5c4.1-2.4,7.7-5.5,7.7-6.6C115.6,111,111.3,111.7,108.1,114.2z M96,124c-5.9,5.7-7.5,6.6-11.1,6.5
			c-2.3-0.1-5.4,0.1-7.1,0.5c-1.7,0.4-6.3,1-10.3,1.3l-7.4,0.6l-0.1-4.4c-0.3-7.3-0.4-9.2-3-29.5c-0.6-4.5-0.2-5.4,2.8-8.4
			c3.8-3.6,11.3-5,25.7-4.7c4.1,0.1,8.2-0.5,9.7-1.4c1.1-0.5,2.1-0.9,2.7-1c0.2,0,0.3,0,0.4,0.1c0.3,0.3,0.9,3.8,1.3,7.6
			c0.4,3.8,1.2,11.3,2,16.6l1.3,9.6L96,124z"/>
			<path class="st0" d="M135.4,88.4c-3.7,0-6.8,0.3-7.7,0.8c-1.7,1,0.2,1.2,8.1,1.1c5.7-0.1,10.7,0.2,11.1,0.6s-1.6,0.8-4.6,0.8
			c-5.6,0-12.5,1.8-14.5,3.9c-0.8,0.8-0.2,0.9,1.8,0.4c1.6-0.4,5.8-1.1,9.4-1.5c8.1-0.9,14-3.2,11.7-4.6
			C149.1,89,141.5,88.4,135.4,88.4z"/>
			<path class="st0" d="M67.5,94.2c-3.9,0-4.2,0.2-2.4,1.6c1.5,1.2,1.7,1.9,0.6,2.9c-2,2-0.1,1.7,3.3-0.5
			C73.1,95.4,72.6,94.1,67.5,94.2z"/>
			<path class="st0" d="M147.2,95.4c-4.5-0.2-16.5,3.8-13.2,4.3c1.5,0.2,2.6,0.9,2.6,1.5c0,0.6,0.9,1.1,2.1,1
			c2.6-0.1,7.3-2.1,5.3-2.2c-2.8-0.2-1.4-2.1,2.4-3.3C149.9,95.6,150,95.5,147.2,95.4z"/>
			<path class="st0" d="M67.6,103.6c-1.4,0-2.9,0.4-3.3,1.1c-0.9,1.4,0.3,1.4,3.5,0C70.1,103.8,70.1,103.7,67.6,103.6L67.6,103.6z"/>
			<path class="st0" d="M152.1,104.9c-1.5,0-3.5,0.1-5.9,0.3c-11.1,0.9-12.1,1.2-11.1,3.7c0.5,1.3,1.7,1.6,5,1
			c2.4-0.4,4.8-1.2,5.5-1.7s3-1.3,5.3-1.7C156.6,105.5,156.6,104.8,152.1,104.9L152.1,104.9z"/>
			<path class="st0" d="M76.4,105.9c-1.8,0-5.1,0.5-8.1,1.3c-2.5,0.7-4.3,1.8-4,2.2c0.5,0.9,11.9-1.6,13.2-2.9
			C78,106.1,77.4,105.9,76.4,105.9L76.4,105.9z"/>
		</g>
	</g>
</svg>
