<?xml version="1.0" encoding="utf-8"?>
<!-- Generator: Adobe Illustrator 24.2.0, SVG Export Plug-In . SVG Version: 6.00 Build 0)  -->
<svg version="1.1" id="chandelier" xmlns="http://www.w3.org/2000/svg" xmlns:xlink="http://www.w3.org/1999/xlink" x="0px" y="0px"
	 viewBox="0 0 190.7 397.3" style="enable-background:new 0 0 190.7 397.3;" xml:space="preserve">
<style type="text/css">
	.st0{fill:#1E1E1E;}
</style>
<path id="main_path" class="st0" d="M110.8,0c0.7,0,1.4,0.2,2.4,0.8c0.7,0.4,1.4,0.5,1.6,0.4c0.7-0.7,7.3,3.9,11.6,7.9
	c0.7,0.7,1.9,1.8,2.7,2.5c2.1,1.8,5.9,6.5,8.8,11c2.8,4.3,7.3,13.3,7.3,14.7c0,0.5,0.2,0.9,0.5,0.9c0.3,0,0.9,1.3,1.3,2.9
	c0.8,3.1,0.8,3.1,1.3,4.3c1.7,4.4,1.8,20.4,0.2,25.2c-1.3,4-2.6,7-3.7,9c-0.5,0.8-1.4,2.5-2,3.6s-2.4,3.5-3.9,5.1
	c-2.2,2.5-2.8,3.5-3,6c-0.5,5.1-1,8.3-1.6,9.9c-0.3,0.8-0.8,2.9-1.1,4.5c-0.9,4.5-2.5,10.1-3.1,10.8c-0.3,0.3-0.6,1-0.6,1.6
	c0,0.6-0.4,1.4-0.9,1.9c-0.5,0.5-1.2,1.7-1.6,2.7c-1.9,4.5-8.5,10.6-18.5,16.8c-1.5,0.9-3.3,2.3-4,3.1c-5.3,5.9-5.3,5.8-4.8,13.2
	c0.4,5.8,2.3,12.1,4.2,14.2c1.6,1.7,2,1.7,4.4-0.1c1.9-1.5,2-1.6,2-6c0-2.5-0.3-5.3-0.6-6.2c-0.3-0.9-0.7-2-0.9-2.5
	c-0.1-0.5-1-3.1-2-5.8c-1.5-4.2-1.6-5-0.9-5.6c1-0.9,0.8-1.2,2.6,4.1c0.8,2.4,1.5,4.3,1.6,4.2c0.1-0.1,0.2-2.6,0.3-5.5
	c0.2-6.7,0.4-7.5,1.8-7.5c1.5,0,1.5,0.6,0.9,11.4c-0.7,11.4-0.5,12.1,2.1,9.7c1.7-1.6,3.7-2.3,7.8-2.8c6.6-0.8,7.8-1,8.1-1.5
	c1-1.6,2-0.3,2.9,3.5c1.4,5.8,1.6,8.9,1,11.4c-0.4,1.4-0.4,2.5,0,3.2c0.6,1.2-0.3,6.4-1.5,9c-1,2-3.7,4.6-6.4,6.4
	c-1.3,0.9-2.2,1.9-2.2,2.6c0,1,2.4,7.6,4.3,12c0.4,0.8,0.9,2,1.1,2.7c0.3,0.7,0.9,2.1,1.4,3.3c0.5,1.2,1.1,3,1.3,4.2
	c0.2,1.2,0.7,2.4,1,2.8c0.3,0.4,0.5,1.1,0.4,1.5c-0.1,0.4,0,1.2,0.3,1.7c1.7,4.1,2.6,7.7,2,8.4c-1.1,1.1-2.4,0.5-3-1.5
	c-0.3-1-0.8-2.3-1-3c-0.3-0.7-1.1-3.1-1.7-5.4c-1.2-4.2-2.9-8.6-4.8-13.2c-1.8-4.3-3.6-10.3-3.8-13c-0.1-0.8-0.9-1-5.2-1.2l-5.2-0.2
	l0.1,6.3c0.1,7.2,0,7.8-1.7,7.8c-1.1,0-1.2-0.2-0.8-4.3c0.7-6.9,1-9.1,1.3-9.6c0.2-0.3-0.2-0.4-1-0.1c-2.2,0.7-7.9,0.8-11.7,0.2
	c-14.8-2.3-18.5-3.3-21.1-5.8c-2.5-2.2-5.4-6.7-6.5-9.8c-1.2-3.5-0.9-15,0.5-20.3c1.1-4,3.7-9.8,4.6-10.1c0.3-0.1,0.5-0.6,0.5-1.1
	c0-0.5,0.2-0.9,0.4-0.9c0.2,0,1.8-1.2,3.4-2.7c1.6-1.5,3.3-2.7,3.8-2.7c0.4,0,0.8-0.2,0.8-0.5c0-0.3,1.9-1.3,4.1-2.2
	c3.8-1.5,4.2-1.8,4.5-3.6c0.2-1.1,1-3.4,1.8-5.2c3.1-6.8,6.3-15.8,6.8-19l0.4-2.6l-2.3,0.4c-1.3,0.2-2.8,0.5-3.5,0.7
	c-3.3,0.7-6.9,0.8-9.1,0.2l-2.5-0.7l1.6-4.3c0.9-2.4,1.8-4.9,2.1-5.5c0.2-0.6,0.6-1,0.7-0.8c0.2,0.2-0.2,2-0.9,4
	c-0.7,2-1.2,3.9-1.2,4.2c0,1,5.8,0.8,6.6-0.1c0.4-0.5,1.1-0.9,1.6-0.9c0.5,0,0.8-0.3,0.8-0.6c0-0.3,0.5-0.7,1.2-0.9
	c1.2-0.4,6.9-7.2,7.8-9.5c0.3-0.7,1.2-2.4,2.1-3.7c3.2-5.1,7.4-15.9,9.3-23.5c0.3-1.3,1.1-4.3,1.7-6.8c2.8-10.9,4.4-28,3.1-34.9
	c-0.3-1.5-0.6-4-0.8-5.6c-0.4-3.5-2.2-9.3-2.9-9.3c-0.3,0-0.5-0.3-0.5-0.7c-0.1-2.5-6.1-6.2-8.6-5.3c-1.7,0.7-8.2,7.1-8.9,8.9
	c-0.1,0.3-1.6,2.9-3.3,5.8c-4.3,7.5-4.3,7.5-1.4,9.9c2.1,1.7,3.2,3.6,2.1,3.6c-0.4,0-3.3-2.6-8-7.1c-3.1-3-3.3-3.9-0.2-1.1
	c1.6,1.4,1.4,1.6,3.4-2.6c1.8-3.7,2.3-4.6,4.8-8.4c3.2-4.9,8-10.1,11.3-11.9C109.3,0.4,110.1,0,110.8,0L110.8,0z M120.3,7.8
	L120.3,7.8c-0.2,0-0.2,0.1-0.2,0.2c3.3,7,3.8,9.4,3.7,19.3c0,5.1-0.2,10.8-0.5,12.6c-0.2,1.8-0.6,4.8-0.8,6.6
	c-0.8,8.1-4.3,22.7-7.3,30.6c-0.2,0.5-0.4,1.2-0.4,1.5c-0.1,0.3-0.3,1.1-0.6,1.8c-0.3,0.7-1.2,3.1-2.1,5.4c-1.4,3.8-3.2,7.2-4.9,9.1
	c-0.3,0.4-1.2,1.7-1.9,2.9c-1.2,2.1-1.2,2.2-0.2,4.5c0.6,1.3,1.3,2.4,1.6,2.4c0.7,0,0.6-0.4-0.4-2.5c-0.5-1-0.8-2.1-0.7-2.5
	c0.1-0.4,0.7,0.6,1.4,2.1c0.6,1.6,1.4,2.8,1.6,2.8c0.7,0,0.6-0.4-0.8-3.1c-0.7-1.3-1.1-2.6-0.9-2.8c0.2-0.2,0.8,0.8,1.4,2.2
	c0.6,1.4,1.3,2.5,1.5,2.5c0.3,0-0.3-1.4-1.1-3.1c-0.9-1.8-1.2-2.8-0.7-2.4c0.5,0.4,1.4,1.8,2,3.1c0.6,1.3,1.2,2.3,1.3,2.2
	c0.1-0.1-0.3-1.4-1-2.8c-0.7-1.4-1.1-2.7-1-2.8c0.4-0.4,2.8,3.5,2.8,4.5c0,0.4,0.3,0.8,0.6,0.8c0.8,0,0.8-0.3-0.3-2.5
	c-0.5-1-0.8-2-0.6-2.2c0.2-0.2,0.9,0.9,1.5,2.3c0.6,1.5,1.2,2.3,1.2,1.9c0-0.4-0.4-1.6-0.9-2.6c-0.5-1-0.8-2-0.6-2.1
	c0.2-0.2,0.8,0.7,1.5,2c1.7,3.2,1.6,2.2-0.3-1.9c-0.8-1.9-1.4-3.6-1.3-3.7c0.1-0.1,1,1.5,2,3.6c1.6,3.5,1.9,3.8,3.2,3.5
	c2.2-0.5,2.6-1.1,1.8-2.6c-0.4-0.7-0.6-1.4-0.4-1.6c0.2-0.2,0.5,0.3,0.7,1c0.4,1.3,1.8,1.7,2.4,0.7c0.2-0.3-0.2-1.7-0.9-3
	c-1.4-2.8-1.6-3.8-0.3-2.1c1,1.4,1.2,0.7,0.3-1.1c-0.6-1.2-0.6-1.2,0.2-0.2c0.6,0.7,1,0.9,1.3,0.4c0.5-0.8,2.1,0.3,2.1,1.4
	c0,0.4-0.4,0.2-0.8-0.4c-0.7-1-0.8-0.9-1.4,0.3c-0.7,1.6-0.4,3,0.6,2.4c0.4-0.3,0.5,0,0.2,0.7c-0.3,0.9-0.3,1,0.3,0.5
	c0.5-0.5,0.5-1,0-1.9c-0.9-1.7-0.8-2.4,0.2-1.1c0.8,1.1,0.9,1.1,1.2-0.3c0.2-0.8,0.4-2,0.5-2.8c0.4-2.9,1.4-1.5,1.5,2
	c0.1,5.3-4.9,24.9-6.5,24.9c-0.3,0-0.5,0.3-0.5,0.8c0,2.5-6.1,10.7-9.4,12.7c-3.5,2-7.4,4-7.4,3.7c0-0.2-0.9,0.1-2.1,0.6
	c-1.2,0.5-2.1,0.8-2.1,0.6c0-0.1-1,0.3-2.1,0.9c-1.2,0.7-2.5,1.2-2.9,1.2c-0.8,0-1.4,0.3-7.4,3.2c-3.2,1.5-8.7,6.7-10.2,9.4
	c-2.3,4.2-3.7,9.9-4.1,15.9c-0.2,3.3-0.5,6.3-0.6,6.7c-0.1,0.4,0,0.9,0.3,1.1c0.3,0.2,0.6,1,0.6,1.7c0,0.7,0.2,1.6,0.5,1.9
	c0.3,0.3,1,2.1,1.6,3.9c1.7,5,3.1,6,10,7.5c4.5,1,5.1,1.1,10.7,1.7c6.2,0.7,6.9,0.7,8.4,0.4c1.4-0.4,1.3-0.5-1.5-2.1
	c-4.2-2.4-8.4-8-9.7-13c-1.5-5.7-0.6-16.7,1.7-22.2c2.4-5.7,8.1-12,14.9-16.5c5.9-3.9,9.9-7.4,13.5-11.8c1.2-1.5,5.7-10.2,5.9-11.5
	c0.1-0.4,0.4-1.4,0.6-2.2c1.2-3.5,3.9-17.4,4.1-20.7c0.1-2-0.2-4.5-0.6-5.7c-0.7-1.9-0.7-2,0.1-0.9c0.5,0.6,0.9,1.4,0.9,1.8
	c0,0.4,0.3,0.3,0.7-0.1c0.5-0.5,0.3-1.2-0.6-2.9c-0.7-1.2-1.2-2.4-1-2.5c0.2-0.2,0-0.8-0.3-1.5c-1.4-2.6,0.7-0.3,2.3,2.6
	c0.9,1.6,1.9,3,2.1,3c0.7,0,0.5-0.6-0.8-2.9c-1.2-2.1-1.2-2.1,0-0.8c0.7,0.7,1.3,1.7,1.5,2.1c0.1,0.4,0.5,0.6,0.7,0.3
	c0.2-0.2,0-1.3-0.6-2.4l-1-2l1.2,1.5c1.6,1.9,1.6,0.9,0-1.5c-1.5-2.2-1.5-3.1-0.2-2c1,0.8,1,0.7,0-0.8c-1.3-2-0.8-2.2,0.9-0.3
	l1.2,1.3l-0.9-1.9c-1.1-2.3-1.2-2.8-0.2-2.2c0.4,0.3,0.5,0.2,0.3-0.3c-0.2-0.4-0.7-0.6-1-0.4c-0.3,0.2-0.8-0.3-1.2-1
	c-0.5-0.9-0.5-1.2,0-0.9c0.4,0.2,0.7,0.1,0.7-0.3c0-0.4,0.7,0.2,1.5,1.3c1.6,2.2,2,3.4,0.8,2.6c-0.4-0.3-0.5-0.2-0.3,0.3
	c0.2,0.4,0.7,0.5,1,0.4c0.3-0.2,0.7,0.1,0.9,0.6c0.2,0.5,0.6,0.9,1,0.9c0.3,0,0.4-0.5,0.2-1.1c-0.2-0.6-0.4-1.5-0.4-1.9
	c0-0.5-0.3-1.2-0.6-1.7c-0.3-0.4-0.5-0.9-0.3-1.1c0.2-0.2,0.9,0.6,1.6,1.7c1.6,2.5,1.7,1.2,0-2c-0.7-1.3-1.1-2.6-0.9-2.8
	c0.2-0.2-0.2-1.2-0.9-2.3c-2-3.3-0.7-2.3,1.6,1.3c1.2,1.8,2.3,3.3,2.4,3.3c0.4,0-0.2-3-0.6-3.5c-0.3-0.2-0.3-0.1,0,0.4
	c0.3,0.5,0.3,0.7-0.1,0.5c-0.5-0.3-0.6-2.2-0.3-4.2c0.1-0.7,1.3,0.1,1.3,0.9c0,0.3-0.3,0.4-0.7,0.2c-0.5-0.3-0.5,0,0,0.9
	c0.8,1.5,1.4,1.7,0.8,0.3c-0.3-0.7-0.2-0.9,0.3-0.6c1.1,0.7,0.9,0-0.9-3.1c-1.6-2.9-1.4-2.9,0.8,0l1.2,1.6l0-2.5
	c0-1.4-0.3-3-0.6-3.6c-0.4-0.8-0.4-1,0.2-0.7c1.1,0.7,0-8.9-1.6-13.2c-1.1-3.1-1.2-3.3-1.7-5.5c-0.2-1.1-0.8-2.2-1.3-2.6
	c-0.5-0.4-0.8-1-0.8-1.3c0-1.1-3.6-8.1-4.5-8.8c-0.5-0.4-0.9-1-0.9-1.3c0-0.3-0.9-1.7-1.9-3.1c-2.6-3.3-3.2-4-2.3-2.3
	c1.3,2.6,0.1,1.3-2.6-2.7c-2.9-4.3-6.5-8.1-8.3-8.7C120.7,7.8,120.5,7.8,120.3,7.8L120.3,7.8z M88.5,30c0.3,0,0.8,0.2,1.8,0.7
	c2.1,1.1,3.3,3.1,1.8,3.1c-0.4,0-1-0.3-1.2-0.6c-0.7-1.2-1.5-0.6-1.9,1.7c-0.2,1.2-0.9,3.2-1.5,4.3c-0.6,1.2-1.2,3-1.5,4.2
	c-0.2,1.2-0.6,2.6-0.9,3.3c-0.5,1.2-2.6,10-2.8,11.7C82.4,59,82.1,61,81.7,63c-0.4,2-0.8,4.9-1,6.4l-0.3,2.8l2.2,0
	c1.2,0,2.6,0.3,3.1,0.6v0c0.7,0.5-0.4,0.5-3.8,0.3c-2.6-0.2-5.8-0.4-7.2-0.4c-1.9,0-2.2-0.2-1.5-0.6c0.5-0.3,1.8-0.5,2.9-0.4
	c1.7,0.2,2.2-0.2,1.9-1.6c-0.1-0.3,0.3-2.4,0.8-4.8c0.5-2.4,1.3-6.6,1.9-9.4c0.5-2.8,1.2-5.9,1.6-6.9c0.3-1,1.2-4.2,2-7.1
	s1.8-5.7,2.2-6.2c0.4-0.5,0.5-1,0.3-1.2c-0.2-0.2,0-0.9,0.5-1.6c0.5-0.7,0.9-1.7,0.9-2.3C88.2,30.3,88.2,30,88.5,30z M83.1,75.4
	c0.6,0,0.9,0.2,0.9,0.4c0,0.4-0.8,0.7-1.7,0.7c-1.3,0-1.8,0.3-2.1,1.3c-0.7,2.6,0.2,17.5,1.2,20.9c1.4,4.7,1.8,5.1,3.6,3.1l1.5-1.6
	l-0.4,2.1c-0.2,1.2-1.1,3.5-1.9,5.2c-0.8,1.7-1.9,3.1-2.3,3.1c-1,0-1.1-0.8-0.1-2.4c0.6-1,0.4-1.8-1.2-5c-2.2-4.3-2.3-5-2.7-17.3
	c-0.2-4.9-0.5-9.1-0.7-9.4c-0.2-0.3,0-0.6,0.5-0.6c0.5,0,2.1-0.2,3.6-0.4c0.5-0.1,0.9-0.1,1.2-0.1C82.7,75.4,82.9,75.4,83.1,75.4
	L83.1,75.4z M103.5,101.2c-0.3,0-0.6,0.4-0.8,1.1c-0.2,0.7-0.7,1.2-1.1,1.2c-0.4,0-1.1,0.4-1.5,0.9c-0.8,1-0.7,1,3.4,0.5
	c1.8-0.2,1.9-0.3,1.2-2C104.4,101.7,103.9,101.2,103.5,101.2L103.5,101.2z M124.3,101.5c-0.3,0-0.8,0.1-1.3,0.3
	c-1,0.3-1.8,0.9-1.8,1.2c0,0.3-0.4,0.5-0.9,0.5c-0.5,0-1.8,0.4-2.8,1c-1,0.5-2.6,1.1-3.4,1.2c-2.2,0.4-3.5,2.1-3.6,5.1
	c-0.2,4.8-1.3,9.4-3.7,15.2c-1.3,3.1-2.4,5.8-2.4,6c0,1.4,6-2.4,9.2-5.9c3.3-3.5,6.7-10.3,9.4-18.6c1-3,1.8-5.6,1.8-5.9
	C124.8,101.5,124.6,101.5,124.3,101.5L124.3,101.5z M108,107.1c-0.3,0-0.5,0.3-0.3,0.6c0.2,0.3,0.5,0.6,0.6,0.6
	c0.1,0,0.3-0.3,0.3-0.6C108.6,107.4,108.3,107.1,108,107.1L108,107.1z M105.4,107.7c-1,0-1.9,0.5-2,1.8c-0.1,0.8-0.5,3.1-0.9,5.1
	c-0.4,2-0.7,3.7-0.8,3.9c-0.2,1.2-2.4,7.6-2.8,8.1c-0.3,0.3-0.5,0.9-0.5,1.4c0,0.6-1.7,4.7-2.8,6.9c-0.3,0.5,0.1,0.6,0.5,0.2
	c0.2-0.2,0.8-0.4,1.5-0.5c4.9-1,4.8-0.9,5.6-4.6c0.4-1.9,0.6-4.3,0.4-5.2l-0.3-1.7l0.8,1.8c0.8,1.7,0.8,1.7,1.2,0.4
	c0.3-0.8,0.1-1.9-0.5-2.8c-1.4-2.2-1.1-3.3,0.3-1.2c1.2,1.7,1.2,1.7,0.9,0.3c-0.2-0.8-0.5-2.2-0.6-3.1c-0.1-0.9-0.5-2-0.9-2.5
	c-0.6-0.7-0.6-0.9,0-0.9c0.4,0,0.6-0.4,0.4-0.9c-0.2-0.5-0.1-0.9,0.3-0.9c0.4,0,0.5-0.4,0.3-0.9c-0.7-1.7,0.7-0.9,1.4,0.9
	c0.4,1,0.9,1.7,1,1.5c0.1-0.1-0.3-1.5-1-3.1c-1.4-3.2-1.3-4.3,0.2-1.7c0.8,1.5,0.9,1.6,0.9,0.4C108,108.7,106.6,107.8,105.4,107.7
	L105.4,107.7z M105.9,113.4c-0.1,0-0.1,0-0.2,0c-0.2,0.2,0,0.7,0.4,1.1c0.6,0.6,0.7,0.5,0.3-0.3
	C106.3,113.7,106.1,113.4,105.9,113.4L105.9,113.4z M105,115L105,115C105,115,105,115,105,115c0,0.3,0.5,1.4,1.2,2.5
	c0.7,1.1,1.2,1.7,1.2,1.4c0-0.3-0.5-1.4-1.2-2.4C105.6,115.6,105.1,115,105,115L105,115z M105.9,118.8c-0.1,0-0.1,0-0.2,0
	c-0.2,0.2,0,0.7,0.4,1.1c0.6,0.6,0.7,0.5,0.3-0.3C106.3,119.1,106.1,118.8,105.9,118.8L105.9,118.8z M97.7,155.4l-0.6,1.8
	c-0.3,1-0.7,2.2-0.9,2.7c-0.7,1.8-0.9,4-0.9,10.3c0,5.6,0.1,6.8,1.4,9.4c1.4,3,2.4,3.9,2.4,2.1c0-0.5,1.2-2.2,2.6-3.8l2.6-2.8
	l-2-2.3c-1.6-1.8-2.3-3.5-3.3-8.1c-0.7-3.2-1.3-6.6-1.3-7.6L97.7,155.4z M131,160.2c-0.1,0-0.2,0-0.3,0c-0.6,0.1-1.3,0.4-2.2,0.8
	c-2,1-4.8,1.6-9.3,1.8c-0.3,0,0.5,1.1,1.7,2.3c3.1,3.3,4,5.2,4.3,9.9c0.3,3.6,0.2,4.5-1.1,6.9c-0.8,1.5-1.6,2.9-1.9,3
	c-0.2,0.1-0.4,0.4-0.4,0.8c0,0.9,0.7,0.7,3.9-1.2c2.5-1.4,3.4-2.5,5.3-5.9l2.3-4.2l-0.2-6.4C132.8,162.4,132.5,160.3,131,160.2
	L131,160.2z M116.6,164.9c-0.2,0-0.3,0-0.5,0.1c-1.3,0.5-1.1,1.9,0.4,3.5v0c0.9,0.9,2.1,1.4,3.6,1.5l2.3,0.1l-1.3-1.8
	C119.7,166.3,117.8,164.9,116.6,164.9L116.6,164.9z M113.1,169.2c0,0-0.1,0.1-0.1,0.2c-0.2,0.4-0.2,1.1,0,1.5
	c0.2,0.4,0.3,0.1,0.3-0.8C113.3,169.5,113.2,169.2,113.1,169.2L113.1,169.2z M115.8,169.5c-0.3,0-0.6,0.3-0.6,0.6
	c0,0.3,0.3,0.6,0.6,0.6c0.3,0,0.6-0.3,0.6-0.6C116.4,169.8,116.1,169.5,115.8,169.5z M120.8,171.5c-1.8,0.1-4.6,0.6-6.4,1.3
	c-1.1,0.4-3.1,1.3-4.5,1.9c-2.6,1.1-6.4,4.3-8.9,7.7c-1.3,1.7-1.3,1.8-0.3,2.9c0.6,0.6,1.8,1.5,2.6,2c0.9,0.5,2,1.3,2.6,1.8
	c0.9,0.9,1,0.9,1-0.2c0-2,7.4-8.8,11.3-10.3c1.1-0.4,2.8-0.8,3.8-0.7l1.8,0.1l-0.4-2.7c-0.2-1.5-0.5-3-0.8-3.3
	c-0.1-0.2-0.5-0.3-1.1-0.3C121.3,171.5,121.1,171.5,120.8,171.5L120.8,171.5z M120.8,179.8c-0.8,0.1-1.5,0.7-1.2,1.5
	c0.2,0.5,0.4,1.3,0.4,1.8c0,1.3,0.9,1,1.8-0.7c0.6-1.1,0.6-1.7,0.1-2.2c-0.2-0.2-0.5-0.4-0.8-0.4C121,179.8,120.9,179.8,120.8,179.8
	L120.8,179.8z M132.9,179.9c-0.2,0-0.6,0.4-0.9,1.1c-1.8,4.4-9.8,8.8-16.7,9.3c-2.2,0.1-4.2,0.3-4.3,0.3c-0.2,0,0.3,0.3,1.1,0.6
	c0.8,0.3,3.5,0.5,6,0.5c5.1-0.1,7.9-1.2,10.8-4.2C130.9,185.4,133.5,180.5,132.9,179.9C133,179.9,132.9,179.9,132.9,179.9
	L132.9,179.9z M116.6,181.9c-0.4,0-1.4,0.8-3.7,3c-1.7,1.6-1.9,2.1-1.3,2.8c0.9,1.1,2.4,1,5.2-0.4c2.1-1.1,2.8-2.3,1.3-2.3
	c-0.5,0-1.2-0.4-1.6-0.9c-0.4-0.5-0.5-0.9-0.2-0.9c0.3,0,0.6-0.4,0.6-0.9C116.8,182.1,116.8,181.9,116.6,181.9L116.6,181.9z
	 M89.4,193.5c0.9,0,0.8,0.4-0.6,4.2c-0.7,1.8-1.3,3.6-1.4,4c-0.1,0.4-0.3,0.9-0.6,1.1c-0.2,0.2-0.4,0.9-0.4,1.4c0,0.6-0.4,1.9-1,3
	c-0.5,1.1-1,2.4-1.1,2.9c-0.1,0.5-0.6,2-1.2,3.3c-0.6,1.3-1.2,3.1-1.3,4c-0.1,0.9-0.5,2.1-0.8,2.7c-0.3,0.6-1,3.2-1.5,5.9
	c-0.5,2.6-1.5,7.4-2.1,10.7c-0.7,3.2-1.3,6.7-1.5,7.8c-0.2,1-0.4,2.6-0.6,3.4c-0.1,0.8-0.4,2.7-0.6,4.2c-0.2,1.5-0.6,3.6-1,4.7
	c-0.3,1.1-0.5,2.1-0.3,2.3c0.2,0.2,0,1.4-0.3,2.8c-0.3,1.4-0.7,3.3-0.8,4.3c-0.2,1.9-0.8,5.2-1.2,7.2c-0.1,0.7-0.4,2-0.5,3
	c-0.2,1-1,4.6-1.9,8.1c-0.9,3.5-1.7,6.8-1.8,7.5c-0.1,0.7-0.2,1.2-0.3,1.2c-0.1,0-0.2,0.4-0.3,0.9c-0.5,2.1-5.2,15.9-5.7,16.5
	c-0.3,0.3-1.6,3.9-2.9,7.8c-1.3,4-3,8.5-3.7,10.2c-0.7,1.6-1.5,3.5-1.7,4.2c-1.3,3.5-4.6,9.6-5.9,11.1c-3.2,3.8-3.6,1.1-0.5-3.4
	c2.1-3.1,5.1-9.2,5.1-10.3c0-0.3,0.7-2.2,1.5-4.1c0.8-1.9,2.5-6.4,3.7-10.1c1.2-3.6,2.4-7.1,2.8-7.8c0.4-0.7,0.7-1.5,0.7-1.8
	c0-0.5,3.4-11.6,5.1-16.9c0.3-1.1,0.7-2.5,0.9-3.2c0.1-0.7,0.4-1.7,0.5-2.3c0.2-0.6,0.5-2.4,0.7-4c0.2-1.6,0.6-3.8,0.9-4.8
	c0.6-1.8,0.6-2.3,1.8-9.2c0.3-2.1,0.8-4.5,0.9-5.4c0.2-0.9,0.6-3.5,0.9-5.8c0.3-2.3,0.8-5.4,1.2-6.9c0.3-1.5,0.7-3.6,0.9-4.8
	c0.1-1.2,0.6-3.6,0.9-5.4c0.4-1.8,0.8-4,1-4.8c0.9-5,3.5-14.8,4.2-16.1c0.5-0.9,0.8-2,0.8-2.6c0-0.6,0.2-1.2,0.5-1.3
	c0.3-0.2,0.7-1.1,0.8-2c0.5-2.6,1.6-5.5,4.9-12.9C87.8,195.6,89,193.5,89.4,193.5L89.4,193.5z M107.8,195.3c1.1,0,1.1,0.9-0.1,2.7
	c-0.5,0.8-0.8,1.5-0.6,1.5c0.2,0,0.1,0.7-0.3,1.7c-0.6,1.6-2.7,11.1-3.2,15.1c-0.2,1.1-0.4,2.2-0.6,2.5c-0.5,0.8-2.5,14.6-4.8,32.4
	c-0.3,2.2-0.8,5.9-1.3,8.4c-0.1,0.8-0.4,2.6-0.6,3.9c-0.2,1.3-0.8,5-1.5,8.1c-0.6,3.1-1.6,8.7-2.1,12.3c-0.5,3.6-1.2,7.4-1.5,8.4
	c-0.6,1.8-1.3,5.9-1.3,7.5c0,0.5-0.2,1.6-0.5,2.4c-0.3,0.8-0.6,2.2-0.8,3c-0.7,4-3.6,15.4-4.1,16.1c-0.3,0.4-0.4,0.8-0.2,0.8
	c0.2,0-0.1,1.4-0.7,3.1c-0.6,1.7-1.5,4.4-1.9,5.9c-4.3,15.1-9.6,28.9-14.1,36.6c-2.1,3.5-5.8,8.4-6.4,8.4c-0.3,0-0.5,0.3-0.5,0.6
	c0,0.3,0.6,0.6,1.2,0.6c1.7,0,6.5,3.4,6.6,4.7c0.1,1.2,0.3,2.7,0.8,4.8c0.6,2.3-0.9,6.3-3.2,8.7c-1.8,1.9-2.5,2.2-4.2,2
	c-1.1-0.1-2.3-0.5-2.7-0.8s-1.6-0.7-2.7-1c-1.5-0.3-2.2-0.9-2.7-2.1c-0.4-1.1-1.5-2-2.9-2.7c-2.2-1-2.4-1-3.9,0.2
	c-0.9,0.7-2.2,1.2-3,1.2c-1.3,0-8.9-3.4-13.1-5.9c-1-0.6-3.2-1.6-4.9-2.3c-1.7-0.7-4.3-2-5.7-3s-3.9-2.3-5.6-3.1
	c-1.6-0.8-3.5-1.9-4.1-2.4c-1.2-1-3.7-5.6-3.3-6c0.1-0.1-0.4-0.3-1.1-0.4c-1.6-0.1-3.7-2.2-3.7-3.6c0-0.5-0.2-0.9-0.5-0.9
	c-0.6,0-1.9-3.6-1.9-5.3c0-0.9,0.6-1.6,1.6-2c0.9-0.4,2.4-1.2,3.3-1.8c1.8-1.2,4.1-1,6.4,0.8c1.1,0.9,1.7,1,2.7,0.4
	c0.7-0.4,2.1-0.9,3.1-1.1c1.5-0.3,1.8-0.7,2-2.2c0.3-2.9-1.6-4.6-5.4-5c-0.3,0-1.4-1-2.5-2.1c-2.1-2.1-2.8-4.7-1.9-7.2
	c0.6-1.7,4-3.9,6.1-3.9c1.6,0,10.8,2.8,15,4.5c4.3,1.8,6.1,2.7,8.1,3.8c2.9,1.6,8.7,4.3,9.4,4.3c1.1,0,5,4.8,6.2,7.6
	c1.1,2.6,1.3,3.3,2,8.3c0.4,2.9-0.6,7.7-2.2,10.3l-1.2,1.9l1.4,0.5c0.8,0.3,1.8,1,2.2,1.5c0.4,0.5,1.1,1,1.5,1
	c0.4,0,0.3-0.3-0.2-0.6c-0.8-0.5-0.7-0.8,0.5-1.9c3.4-3.3,13.3-20.3,13.3-22.9c0-0.4,0.4-1.4,0.8-2.3c0.5-0.9,1.7-4.4,2.7-7.8
	c4.1-13.3,4.9-15.9,5.5-16.9c0.3-0.6,0.5-1.6,0.5-2.2s0.3-1.3,0.6-1.5c0.3-0.2,0.6-0.8,0.6-1.4c0-1.2,0.5-3.9,1.3-6.7
	c1.2-4.3,3.7-15.4,3.9-17.1c0.1-1,0.4-2.2,0.6-2.7s0.6-2.1,0.8-3.6c0.2-1.5,0.6-3.3,0.8-4c0.2-0.7,0.5-2.7,0.7-4.5
	c0.2-1.8,1.2-7.4,2.2-12.5c1.7-9,2.7-15.1,3.3-21.3c0.2-1.6,0.5-4.2,0.7-5.7c0.2-1.5,0.4-3.1,0.5-3.6c0.1-0.5,0.1-1,0.2-1.2
	c0.1-0.2,0.3-1.6,0.4-3.3c0.2-2.6,1.8-11.8,3-17.4c0.2-1,0.7-3.8,1.2-6.2C103.4,202.6,106.1,195.3,107.8,195.3L107.8,195.3z
	 M110.9,213.3c0.2,0,0.3,0.1,0.5,0.3c0.5,0.5,0.6,6.7,0,8.2c-0.9,2.3-1.7,0.6-1.7-3.6C109.8,215.1,110.2,213.3,110.9,213.3
	L110.9,213.3z M111.2,226.5c0.2,0,0.4,0.3,0.4,1c0,0.6,0.1,1.8,0.2,2.6c0.1,0.8-0.1,2-0.4,2.6c-0.5,0.9-0.7,1-1.4,0.3
	c-0.5-0.6-0.7-1.7-0.4-3.5C110,227.8,110.7,226.5,111.2,226.5L111.2,226.5z M110.7,236.7c0.7,0.1,1.1,3.1,1.2,8.8
	c0.1,4.2,0.4,13.1,0.6,19.7c0.2,6.6,0.4,16.4,0.5,21.8c0.1,9.3,0,9.8-1.1,10.3c-0.7,0.3-1.4,0.4-1.6,0.2c-0.8-0.4-1.1-58.1-0.4-59.9
	C110.2,237,110.5,236.7,110.7,236.7L110.7,236.7z M139,238.1c0.3,0,0.6,0.5,1.1,1.8c0.5,1.3,1.4,4,1.9,6c0.5,2,1.2,4,1.5,4.4
	c0.3,0.4,0.4,1,0.2,1.4c-0.2,0.3-0.1,0.6,0.2,0.6c0.3,0,0.6,0.4,0.6,0.9c0,0.5,0.3,1.4,0.6,1.9c0.3,0.6,1.2,2.8,1.9,4.9
	c1,2.9,1.1,3.9,0.6,4.3c-1.6,1-2.8-0.1-3.6-3.2c-0.4-1.7-0.9-3.4-1.1-3.7c-0.2-0.3-1.5-4.5-2.8-9.2c-2.1-7.1-2.3-8.7-1.7-9.6
	C138.6,238.3,138.8,238.1,139,238.1L139,238.1z M150,271.5c0.7,0,4.2,7,4.2,8.4c0,0.6-0.3,1.2-0.8,1.3c-1.5,0.5-2.3-0.3-3.1-3.3
	C149.3,274.5,149.1,271.5,150,271.5z M155.2,284.5c0.2,0,0.5,0.1,0.8,0.2c2.1,1.1,3.2,6.9,1.6,7.9c-0.8,0.5-2.7-1.6-2.9-3.1
	c0-0.5-0.1-1.7-0.2-2.5C154.3,285.4,154.5,284.5,155.2,284.5z M159.9,297.5c0.6,0,1.3,1.2,1.7,3.4c0.2,1.2,0.8,2.9,1.3,3.8
	c0.5,0.9,0.9,2,0.9,2.4c0,0.4,0.6,2.2,1.3,4c2.1,5.4,2.1,5.6,3.5,9.3c0.7,2,1.6,4.1,1.9,4.7c0.3,0.6,1,2.1,1.4,3.3
	c0.4,1.2,1.4,3.7,2.1,5.5c1.2,3.1,1.2,3.3,0.2,4.1c-1.7,1.3-1.9,0.8-6.8-13.7c-1.3-3.8-2.8-8.2-3.5-9.9c-0.6-1.6-1.8-4.8-2.7-6.9
	s-1.7-5.2-1.9-6.7C159,298.6,159.3,297.5,159.9,297.5L159.9,297.5z M110.9,300.9c0.2,0,0.4,0.2,0.7,0.6c0.6,1,0.4,7.2-0.3,8.4
	c-0.9,1.5-1.7-0.6-1.6-4.3C109.8,302.6,110.3,300.9,110.9,300.9z M111.1,312.5c0,0,0.1,0,0.1,0c0.4,0.1,0.7,5.5,0.8,16.2
	c0.1,10,0.4,16.4,0.8,17.2c0.8,1.5,0.8,3.3,0,4.1c-0.8,0.8-2.9,0.3-3-0.6c0-0.7-0.6-14.7-0.7-18.4c-0.1-3.2,0.7-16.6,1.1-17.7
	C110.4,312.8,110.7,312.4,111.1,312.5L111.1,312.5z M14.8,337.2c-1.2,0-2,0.4-3,1.2c-1.3,1-1.7,3.3-0.9,5c0.6,1.4,4.6,3.8,6.3,3.8
	c0.6,0,1.6,0.4,2.2,0.8c0.7,0.4,2,1,2.9,1.2c0.9,0.2,4.5,1.7,7.8,3.3c8.1,3.9,8.2,3.9,8.2,2.4c0-2.4,2.8-5.9,4.6-5.9
	c0.4,0,0.8-0.2,0.8-0.4c0-0.5-14.3-7.6-15.3-7.7c-0.3,0-3.3-0.9-6.7-2C18.4,337.6,16.3,337.1,14.8,337.2L14.8,337.2z M176.9,345.3
	c0.5,0.1,1.5,1.9,2.6,5.1c0.9,2.6,1.9,5.3,2.2,6c0.7,1.5,3.5,8.7,4.9,12.3c0.6,1.5,1.5,3.5,2,4.5c2.6,4.8,2.5,4.5,1.3,5.4
	c-0.6,0.5-1.4,0.9-1.8,0.9c-1,0-2.1-1.3-2.1-2.7c0-1.1-2.2-8.3-3.4-11.1c-0.2-0.5-1-2.5-1.7-4.5c-0.7-2-1.9-5.1-2.6-6.9
	c-0.7-1.8-1.4-4.6-1.6-6.2C176.4,346.1,176.5,345.2,176.9,345.3L176.9,345.3z M21.2,350.7c0,0-0.1,1.4,0,3c0,2,0.3,3,0.8,3
	c0.4,0,1.5,0.3,2.4,0.7c0.9,0.4,2.1,0.8,2.6,0.9c1.1,0.2,5.6,2.2,6,2.6c0.7,0.7,3,1.8,3.9,1.8c0.5,0,0.9,0.3,0.9,0.6
	c0,0.3,0.5,0.6,1.2,0.6c2.3,0,9.5,4.1,10.8,6.2c2.4,3.8,0.9,4.8-1.9,1.3c-1.7-2.2-2.2-2.3-6.5-1.3c-3.8,0.8-6.4,8.9-4.6,14.3
	c0.8,2.3,1.9,3.5,4.3,4.6c2.2,1,5.4,1,5.1,0c-0.1-0.4-0.9-0.8-1.7-0.8c-0.9,0-1.4-0.3-1.3-0.8c0.1-0.4-0.8-1.2-1.9-1.6
	c-2.5-1-2.6-1.2-3.1-4.2c-0.3-1.7-0.1-2.7,0.6-3.5c0.9-1.2,1-1.1,0.6,0.6c-0.2,1-0.1,2.5,0.2,3.3l0.6,1.5l-0.1-1.5
	c0-0.8,0.3-3,0.7-4.9c0.5-2.5,1.1-3.7,2.4-4.6c1.8-1.3,4.3-1.2,4.3,0.1c0,0.7,2.4,2.1,3.5,2.1c1,0,3.2-5.7,3.3-8.4
	c0-0.5-0.2-2.9-0.4-5.4c-0.5-4.4-0.5-4.5-3.5-7.4c-2.7-2.6-3.3-2.9-5.1-2.6c-2,0.3-3.7,1.3-3.7,2.2c0,0.2,0.8,0.8,1.8,1.2
	c1.9,0.8,2.4,2.5,1,4.2c-1,1.2-4.3,1.4-5.2,0.3c-0.4-0.5-2.8-1.7-5.3-2.8c-2.5-1-4.9-2.1-5.2-2.4C28,353.3,21.7,350.7,21.2,350.7
	L21.2,350.7z M40.9,355.7c-0.1,0-0.2,0-0.3,0c-0.1,0-0.2,0-0.2,0.1c-0.1,0.1-0.1,0.5,0.2,0.9c0.5,0.8,2.7,0.9,2.7,0.1
	C43.2,356.4,41.8,355.8,40.9,355.7L40.9,355.7z M7.8,356.1c-1.3,0-2.1,0.5-3,1.8c-1.6,2.2-1.4,3.5,0.2,1.4c0.6-0.8,1.9-1.6,2.8-1.8
	C10.1,357.1,10.1,356.1,7.8,356.1L7.8,356.1z M9.6,358.4c-0.6,0-1.7,0.5-2.7,1.5c-1.2,1.2-1.4,1.9-1.2,3.7c0.2,1.2,0.4,2.4,0.5,2.5
	c0.2,0.2,0.8-1.3,1.3-2.9c0.3-1.2,1.2-2.9,2-3.8C10.1,358.8,10.1,358.5,9.6,358.4L9.6,358.4z M18.5,358.6c-1.6,0-3,0.2-3.3,0.6
	c-0.2,0.3-0.5,0.4-0.8,0.2c-1-0.6-4.7,4.5-5,6.8c-0.5,3.8,2.2,9.1,4.6,9.1c0.4,0,2.2,1,4,2.2c1.8,1.2,6.6,3.9,10.6,5.9l7.3,3.8
	l-1.2-2.2c-1.4-2.6-1.5-4.3-0.3-8.7c1.2-4.6,4.1-8.7,6.2-8.8c1.7,0,0.6-1.2-1.7-1.8c-2.3-0.6-8.5-3.3-12.1-5.2
	c-0.9-0.5-1.6-0.7-1.6-0.6c0,0.2-1-0.1-2.1-0.6C22,358.9,20.1,358.6,18.5,358.6L18.5,358.6z M44,373.8c-0.1,0-0.2,0-0.2,0
	c-0.8,0.5-1.8,4.3-1.8,6.8c0,2.5,1.2,3.7,6,6.1c2.1,1.1,4.1,2.2,4.3,2.6c0.2,0.4,0.5-0.6,0.5-2.1c0-2.9,1.9-7,3.2-7.1
	c0.4,0-0.3-0.4-1.5-0.8c-1.2-0.4-4-1.9-6.1-3.3C46.5,374.7,44.7,373.8,44,373.8L44,373.8z M63.3,379.4l-2.4,0.2
	c-3.9,0.3-7.3,4.2-6.7,7.7c0.1,0.8,0.3,1.8,0.3,2.2c0,0.4,0.6,1.3,1.4,1.9c1.8,1.7,2,1.6,1.8-1.1c-0.2-2.6,1.9-7.5,4.2-9.7
	L63.3,379.4z M65.6,381.3c-1,0-2.2,0.4-2.9,1.2c-0.6,0.7-0.9,1.2-0.8,1.2c0.2,0,0.7-0.4,1.1-1c0.5-0.6,1.3-0.8,2.5-0.6
	c1.1,0.2,1.6,0.1,1.3-0.2C66.7,381.5,66.2,381.3,65.6,381.3L65.6,381.3z M65.7,383.5c-0.3,0-0.7,0.2-1.5,0.8c-1.3,1-1.5,1.5-1.3,4.6
	c0.1,1.9,0.5,3.7,0.9,3.9c1.5,0.9,2.9,0.5,3.5-1.2c1.2-3,1-5.6-0.3-7.1C66.3,383.8,66,383.5,65.7,383.5L65.7,383.5z M61.1,385.8
	l-0.8,2.3c-0.7,1.9-0.7,2.8-0.1,4.5c0.4,1.2,1.2,2.2,1.8,2.4c1.3,0.3,1.3-0.1,0.1-2.5c-0.5-1.1-1-3-0.9-4.3L61.1,385.8z"/>
<g id="small_nodes">
	<g>
		<path class="st0" d="M92.6,382.9c-0.1-0.5-0.1-1.7-0.2-2.8c0-1.1-0.1-2-0.2-2.1c-0.1-0.1-0.1-0.2,0-0.4c0.1-0.1,0-0.5,0-0.7
			c-0.1-0.5-0.1-0.5-1.3-0.3c-2,0.2-5.3,0.1-10.8-0.4c-0.6-0.1-1.4-0.1-1.9-0.2c-0.5,0-1.2-0.1-1.6-0.2c-0.2,0-0.4-0.1-0.5-0.1h0
			c-0.2,0-0.4,0.1-0.6,0.2c-0.3,0.3-0.4,0.5-0.3,4.6c0,2.4,0.1,4.5,0.1,4.7c0.2,0.7,0.4,5.4,0.5,8.5c0,0.4,0.9,0.7,2.5,0.8
			c0.6,0.1,1.2,0.1,1.3,0.2c0.1,0,0.5,0.1,0.9,0.2c0.4,0.1,1,0.3,1.3,0.3c0.9,0.1,8-0.1,8-0.2c0,0,0.3-0.1,0.7-0.1
			c0.4,0,0.8-0.2,0.9-0.3c0.1-0.1,0.4-0.2,0.6-0.2c0.2,0,0.5-0.1,0.6-0.3C93.1,393.3,92.9,385.2,92.6,382.9z M91.5,393.1
			c-0.3,0-0.5,0.1-0.6,0.3c-0.1,0.2-0.4,0.3-0.7,0.4c-0.3,0-1,0.1-1.6,0.2c-2.8,0.3-6.9,0.1-8-0.3c-0.2-0.1-0.7-0.2-1.3-0.2
			c-0.6,0-1.3-0.2-1.7-0.2c-0.7-0.2-0.7,0.2-0.8-3.6c-0.1-2.5-0.2-4-0.4-5c-0.1-0.9-0.1-7.6,0-7.8c0-0.1,0.1-0.1,0.2-0.1l0,0
			c0.1,0,0.2,0,0.4,0.1c0.2,0.1,0.6,0.2,0.8,0.2c0.4,0,2.8,0.2,3.6,0.3c1.4,0.2,3.3,0.3,6.4,0.3c1.9,0,3.5,0.1,3.6,0.1
			c0.1,0.1,0.2,1.5,0.2,3.2c0.1,1.7,0.2,3.2,0.2,3.4c0.1,0.4,0.2,1.2,0.2,4.4C92.1,393,92,393.1,91.5,393.1z"/>
		<path class="st0" d="M86.9,378.4c-0.1,0-0.2,0.1-0.4,0.2c-0.3,0.3-0.4,0.5-0.3,1.3c0.1,0.9,0.1,1-0.3,1.1l-0.4,0.1l0.5,0.4
			c0.3,0.2,0.4,0.5,0.4,0.7c-0.1,0.3,0.4,0.8,0.8,0.8c0.1,0,0.2-0.2,0.2-0.5c0-0.5,0.1-0.6,0.5-0.3c0.2,0.1,0.2,0.4,0.2,0.9
			c-0.1,0.7-0.1,0.8,0.2,0.8c0.4,0,0.9-0.5,0.8-0.8c-0.1-0.1,0-0.5,0.2-0.9c0.2-0.4,0.2-0.6,0.1-0.7c-0.1-0.1-0.2-0.6-0.3-1.2
			c0-0.7-0.1-1.1-0.3-1.2c-0.3-0.1-0.6,0.6-0.7,1.4c-0.1,0.8-0.9,0.7-1-0.1c0-0.2,0-0.6-0.1-1c0-0.4-0.1-0.8-0.2-0.9
			C87.1,378.5,87,378.4,86.9,378.4L86.9,378.4z"/>
		<path class="st0" d="M85,382.3c-0.4-2.6-0.9-3.2-2.7-3.6c-0.2,0-0.6-0.2-1-0.1h0c-1.1,0.3-2.8,0.2-3.2,0.4
			c-0.4,0.2-0.4,0.6,0.2,0.8c0.5,0.2,0.7,0.9,0.8,3.2c0.1,1.1,0.1,1.1-0.5,1.3c-0.3,0.1-0.6,0.2-0.7,0.3c-0.1,0.2,0.3,0.5,0.9,0.6
			c0.3,0,0.6,0.1,0.6,0.2c0.1,0.1,0.1,1.4,0.1,2.9c0,2.2,0.1,2.8,0.3,3.1c0.4,0.4,0.9,0.3,0.8-0.2c-0.1-0.7-0.1-6.1,0-6.1
			c0,0,0.4-0.1,0.8-0.2c2-0.3,2.9-0.6,3.4-1.2C85.1,383.4,85.2,383.3,85,382.3z M82.3,383.8c-0.8,0.1-1.5,0.3-1.7,0.3
			c-0.3,0.1-0.4-0.1-0.5-1.6c-0.1-0.7-0.2-1.5-0.3-1.8c-0.2-0.5-0.2-0.7,0-0.8c0.1-0.1,0.8-0.1,1-0.1c-0.1,0-0.1,0,0,0h0
			c0.1,0,0.1,0,0,0c0.3,0,1.2,0.1,1.6,0.2c1,0.2,1.2,0.4,1.5,2.1C84.2,383.3,84.1,383.5,82.3,383.8z"/>
		<g>
			<path class="st0" d="M86.7,384.6L86.7,384.6C86.7,384.6,86.7,384.7,86.7,384.6C86.8,384.7,86.8,384.6,86.7,384.6z"/>
			<path class="st0" d="M90.2,388.8c0.4-0.1-0.1-0.7-0.7-0.8c-0.5-0.1-0.7-0.2-0.8-0.6c-0.2-0.7-0.9-1.9-1.5-2.5
				c-0.1-0.1-0.3-0.2-0.4-0.2c-0.1,0.1-0.6,0.4-0.8,1c-0.3,1.3-0.6,1.8-0.9,1.8c-0.2,0-0.5,0.2-0.7,0.4c-0.3,0.3-0.3,0.4-0.1,0.6
				c0.2,0.1,0.4,0.2,0.5,0.2c0.2,0,0.2,0.1,0.1,0.2c-0.3,0.4-1.4,2.4-1.4,2.6c0,0.1,0.1,0.3,0.2,0.5c0.3,0.3,0.4,0.3,0.8-0.5
				c0.2-0.4,0.5-0.8,0.6-0.8c0.1-0.1,0.2-0.3,0.2-0.5c0-0.2,0.1-0.4,0.2-0.4c0.1,0,0.2-0.2,0.2-0.4c0-0.5,0.4-0.7,1.3-0.7
				c1.1,0,1.1,0.1,1.1,0.3c0,0.1,0.2,0.4,0.4,0.6s0.4,0.5,0.4,0.6c0,0.2,0.2,0.5,0.3,0.7c0.3,0.4,0.4,0.4,0.7,0.2
				c0.3-0.3,0.3-0.3-0.1-1.1C89.5,389.1,89.5,389,90.2,388.8z M87.7,387.9c-0.1,0-0.4-0.1-0.7-0.1c-0.5-0.1-0.5-0.1-0.4-0.6
				c0.1-0.4,0.2-0.6,0.3-0.6h0h0l0,0c0.1,0,0.3,0.2,0.5,0.6C87.7,387.5,87.8,387.9,87.7,387.9z"/>
		</g>
	</g>
	<g>
		<path class="st0" d="M83.1,257.7c0.5,0,0.8,0.3,0.6,0.6c-0.2,0.3-0.5,0.6-0.6,0.6c-0.1,0-0.4-0.3-0.6-0.6
			C82.3,258,82.6,257.7,83.1,257.7z"/>
		<path class="st0" d="M80.1,260.9c1.1,0,1.7,0.5,0.8,1c-0.5,0.3,0,0.6,1.7,0.9c1.4,0.2,2.7,0.7,2.9,1c0.5,0.8-3.9-0.1-6.3-1.3l-2-1
			l1.6-0.4C79.3,261,79.8,260.9,80.1,260.9L80.1,260.9z"/>
		<path class="st0" d="M84.5,271.1c0.8,0,2,0.3,3.8,0.8c1.1,0.3,1.5,1.4,0.4,1.4c-0.3,0-0.5,0.3-0.2,0.6c0.3,0.4-0.3,0.6-1.6,0.4
			c-1.2-0.1-2-0.5-1.9-0.9c0.1-0.4-0.3-0.8-0.8-0.8c-0.5,0-0.9-0.4-0.9-0.9C83.4,271.3,83.7,271.1,84.5,271.1z"/>
		<path class="st0" d="M75.4,272.4c0.2,0,0.4,0.1,0.7,0.1c2.2,0.5,2.6,0.8,2.2,1.5c-0.4,0.7-0.4,0.7-2.3,0
			C74.1,273.2,73.9,272.3,75.4,272.4z"/>
		<path class="st0" d="M75.4,275.4c0.2,0,0.4,0.1,0.7,0.2c1.3,0.6,4.6,1.6,7.2,2.2c1.1,0.2,1.9,0.7,1.9,1c0,0.7-2.6,0.3-7.1-1.1
			c-1.7-0.6-3.1-1.4-3.1-1.8C75,275.5,75.1,275.4,75.4,275.4z"/>
		<path class="st0" d="M75.9,285.4c0.2,0,0.7,0.1,1.4,0.2c1.1,0.2,2.4,0.3,2.9,0.3c0.5,0,0.7,0.3,0.5,0.6c-0.6,0.9-2.9,0.7-4.2-0.3
			C75.8,285.6,75.5,285.4,75.9,285.4z"/>
		<path class="st0" d="M77,287.9c0.2,0,0.5,0.1,0.9,0.1c2.3,0.4,4,0.7,4.5,0.8c0.2,0,0.5,0.3,0.5,0.6c0,0.8-0.7,0.8-3.9-0.1
			C76.4,288.8,75.4,287.8,77,287.9L77,287.9z"/>
		<path class="st0" d="M80.4,291.3c0.6,0,1.3,0.3,1.5,0.6c0.2,0.3-0.3,0.6-1.2,0.6c-0.8,0-1.5-0.3-1.5-0.6S79.7,291.3,80.4,291.3
			L80.4,291.3z"/>
		<path class="st0" d="M70.6,292.5c1.2,0,4.4,1.3,4.4,1.9c0,1-2.4,0.6-3.7-0.7C70.6,293.1,70.3,292.5,70.6,292.5L70.6,292.5z"/>
		<path class="st0" d="M73.2,295.7c0.7,0,1.8,0.6,1.8,1.1c0,0.7-0.7,0.7-1.8,0c-0.5-0.3-0.7-0.7-0.5-0.9
			C72.8,295.7,73,295.7,73.2,295.7L73.2,295.7z"/>
		<path class="st0" d="M73.7,298.5c0.5,0,1.3,0.3,1.8,0.8c0.4,0.5,1.6,1,2.8,1.2c1.1,0.2,2.2,0.7,2.5,1.1c0.3,0.5-0.1,0.5-1.3,0.3
			c-2.3-0.5-6.2-2.4-6.2-2.9C73.2,298.7,73.4,298.5,73.7,298.5L73.7,298.5z"/>
		<path class="st0" d="M73.4,303.7c0.3,0,0.6,0,0.9,0.1c0.5,0.2,2.7,0.6,4.8,1c3.1,0.5,4,0.9,4.2,1.8c0.2,0.9,0,1-1,0.7
			c-2-0.6-4.5-1.1-5.7-1c-1.8,0.1-4.9-1.7-4-2.3C72.8,303.8,73.1,303.7,73.4,303.7L73.4,303.7z"/>
		<path class="st0" d="M65.9,310.1c0.9-0.1,2.8,0.6,3.7,1.4c1.1,1,0.3,1.1-2.3,0.2c-1-0.4-1.9-0.9-1.9-1.3
			C65.4,310.2,65.6,310.1,65.9,310.1z"/>
		<path class="st0" d="M68.5,312.9c1.2,0,2.5,0.4,2.9,0.9c0.6,0.8,0.5,0.9-0.7,0.9c-0.8,0-2.1-0.4-2.9-0.9l-1.5-0.9L68.5,312.9z"/>
		<path class="st0" d="M68.4,315.9c1.3,0,10.8,3.7,10.8,4.3c0,0.7-0.3,0.6-4.7-0.7C70.5,318.3,66.6,316,68.4,315.9L68.4,315.9z"/>
		<path class="st0" d="M73.7,321.4c0.2,0,0.5,0,1,0.1c1,0.1,1.9,0.5,2,0.9c0.3,1-1.2,0.9-2.6-0.2C73.2,321.5,73,321.4,73.7,321.4
			L73.7,321.4z"/>
		<path class="st0" d="M72,323.7c1.7,0,4.2,1.1,4.2,1.8c0,0.8-1.1,0.8-3.5,0C70.6,324.7,70.2,323.7,72,323.7L72,323.7z"/>
		<path class="st0" d="M61.1,326.1c0.5,0,1.2,0.4,1.7,0.9c0.5,0.5,1.4,0.9,2,0.9c0.6,0,1.3,0.3,1.5,0.7c0.6,1-3.7,0.2-4.9-0.9
			c-0.5-0.5-0.9-1-0.9-1.2C60.6,326.2,60.8,326.1,61.1,326.1z"/>
		<path class="st0" d="M60.8,329.4c1,0.1,2.7,0.7,4.3,1.6c1.6,1,1.7,1.1,0.5,1.1c-0.7,0-1.4,0.3-1.4,0.6c0,0.9-2.3,0.7-4.3-0.4
			c-1.8-1.1-2.5-2.8-0.8-2.2c0.5,0.2,0.9,0,0.9-0.3c0-0.2,0.2-0.3,0.5-0.4C60.6,329.4,60.7,329.4,60.8,329.4z"/>
		<path class="st0" d="M71.3,333.3c0.7,0,1.4,0.3,1.6,0.6c0.2,0.3-0.2,0.6-0.8,0.6c-0.7,0-1.4-0.3-1.6-0.6
			C70.3,333.6,70.7,333.3,71.3,333.3z"/>
		<path class="st0" d="M58.4,333.9c1.7,0,2.8,0.7,2.8,1.8c0,0.8,0.6,1.2,2.1,1.5c1.2,0.2,2,0.6,1.8,0.9c-0.4,0.6-3.6,0.1-6.1-1.1
			c-1.4-0.7-1.8-1.1-1.4-1.6c0.3-0.4,0.4-0.9,0.2-1.1C57.6,334.1,57.8,333.9,58.4,333.9L58.4,333.9z"/>
		<path class="st0" d="M60.9,339.4c0.2,0,0.5,0,0.8,0.1c1,0.2,2,0.4,2.3,0.6c0.3,0.2,1.2,0.5,2,0.6c3.7,0.8,4.3,1,5.1,1.6
			c0.5,0.4,0.7,1,0.5,1.3c-0.2,0.4-0.6,0.2-0.9-0.4c-0.4-0.7-0.8-0.8-1.3-0.4c-0.6,0.5-1.2,0.4-2.4-0.2c-0.9-0.5-2.7-1-3.9-1.3
			c-1.2-0.2-2.4-0.8-2.6-1.3C60.2,339.6,60.3,339.4,60.9,339.4L60.9,339.4z"/>
		<path class="st0" d="M54.8,343.7c0.2,0,0.6,0.2,1,0.7c0.5,0.6,0.5,0.9,0.1,0.9C55.2,345.3,54.3,344.2,54.8,343.7
			C54.8,343.7,54.8,343.7,54.8,343.7L54.8,343.7z"/>
		<path class="st0" d="M50.6,344.7c0.5,0,1.1,0.4,1.5,0.8c0.4,0.4,1.8,1.3,3.1,1.9c1.3,0.6,2.4,1.3,2.4,1.7c0,0.8-3,0-4.2-1.1
			c-0.5-0.5-1.3-0.9-1.6-0.9c-0.4,0-1-0.5-1.3-1.2C49.9,345,49.9,344.7,50.6,344.7L50.6,344.7z"/>
		<path class="st0" d="M58.4,345.3c1,0,1.5,0.2,1.3,0.6c-0.5,0.7-0.9,0.7-2.1,0C56.9,345.5,57.1,345.3,58.4,345.3z"/>
		<path class="st0" d="M58.8,349.2c0.1,0,0.2,0,0.3,0.1c0.5,0.2,0.9,0.5,0.9,0.6c0,0.1-0.4,0.2-0.9,0.2c-0.5,0-0.9-0.3-0.9-0.6
			C58.2,349.3,58.4,349.2,58.8,349.2L58.8,349.2z"/>
		<path class="st0" d="M57.2,351.9c0.2,0,0.5,0.1,1,0.2c2.2,0.6,4.2,1.7,4.2,2.3c0,0.3-0.3,0.5-0.6,0.5c-0.3,0-0.6,0.2-0.5,0.4
			c0,0.2,0,0.7,0,1c0,0.3-0.3,0.4-0.5,0.3c-0.2-0.1-1.6-0.7-3-1.4c-2.4-1.1-3.7-2.7-1.5-1.8c2.4,1,4.4,1.4,4,0.9
			c-0.2-0.3-0.7-0.6-1.1-0.6c-0.4,0-1.2-0.4-1.6-1C57.1,352.2,56.9,351.9,57.2,351.9L57.2,351.9z"/>
		<path class="st0" d="M65.4,354.7c1.4,0,2.4,0.9,2.4,2.2c0,0.7-2,0.3-3.4-0.8l-1.4-1.1l1.8-0.3C65,354.8,65.2,354.7,65.4,354.7
			L65.4,354.7z"/>
	</g>
	<path class="st0" d="M95.1,213.3c0.8,0,2.7,1.3,2.7,1.8c0,1.1-1.7,0.6-2.4-0.6C95,213.9,94.9,213.3,95.1,213.3L95.1,213.3z"/>
	<g>
		<path class="st0" d="M87.5,151.3c0.6,0,1.3,0.2,1.7,0.6c1,0.7,0.9,0.8-0.8,0.8c-2.2,0-3.1-0.9-1.4-1.4
			C87.1,151.3,87.3,151.3,87.5,151.3z"/>
		<path class="st0" d="M88.2,154.1c0.8,0.1,1.7,0.3,2.2,0.7c1,0.8,0.9,0.9-1.9,0.9c-1.6,0-3.4-0.3-3.9-0.6c-0.8-0.5-0.8-0.6,0-0.7
			c0.5,0,1.7-0.2,2.8-0.3C87.6,154.1,87.9,154.1,88.2,154.1L88.2,154.1z"/>
		<path class="st0" d="M81.9,155.1c0.5,0,0.9,0.3,0.9,0.6c0,0.3-0.4,0.6-0.9,0.6c-0.5,0-0.9-0.3-0.9-0.6
			C81,155.4,81.4,155.1,81.9,155.1z"/>
		<path class="st0" d="M81.3,156.9c1.1,0,1.1,1,0.1,1.4c-0.4,0.1-1,0.2-1.2,0C79.6,157.9,80.3,156.9,81.3,156.9z"/>
		<path class="st0" d="M79.2,159.3c0.3,0,0.7,0.3,0.9,0.6c0.2,0.4,1.2,0.6,2.3,0.5c3.4-0.2,4.7,0,4.3,0.6c-0.8,1.2-8.1,0-8.1-1.3
			C78.6,159.4,78.9,159.3,79.2,159.3L79.2,159.3z"/>
		<path class="st0" d="M79.6,162.3c2.5,0,4.4,0.2,4.4,0.6c0,0.8-6.6,0.8-7.8,0C75.6,162.5,76.6,162.3,79.6,162.3z"/>
		<path class="st0" d="M78.3,164.7c3.3,0,4.5,0.9,1.9,1.4c-2.2,0.4-2.5,0.4-3.9,0C73.9,165.5,74.9,164.7,78.3,164.7L78.3,164.7z"/>
		<path class="st0" d="M78,167.5c0.9,0,2.1,0.1,3.5,0.2c2.1,0.2,4.3,0.3,4.9,0.1c0.6-0.2,1.6-0.1,2.2,0.2c0.8,0.4,0.6,0.6-1,0.9
			c-1.2,0.2-2.5,0.3-3.1,0.2c-0.5-0.1-2.8-0.3-4.9-0.3c-2.2-0.1-4-0.3-4-0.5C75.6,167.8,76.4,167.5,78,167.5L78,167.5z"/>
		<path class="st0" d="M80.6,176.3c0.2,0,0.4,0.1,0.4,0.4c0,0.3-0.3,0.6-0.6,0.6c-0.3,0-0.6-0.1-0.6-0.3c0-0.1,0.3-0.4,0.6-0.6
			C80.5,176.4,80.6,176.3,80.6,176.3L80.6,176.3z"/>
		<path class="st0" d="M84.2,178.1c0.2,0,0.3,0.2,0.1,0.4c-0.2,0.3-1.1,0.6-2,0.6c-1.9,0-1.7-0.3,0.6-0.8
			C83.6,178.1,83.9,178.1,84.2,178.1L84.2,178.1z"/>
		<path class="st0" d="M90.4,180.4c3.1,0.1,3.8,0.9,0.3,1.3c-3.5,0.4-4.5,0.3-6.2-0.1c-2.1-0.6-0.6-1,4.4-1.2
			C89.5,180.4,90,180.4,90.4,180.4L90.4,180.4z"/>
	</g>
	<path class="st0" d="M126.8,115.1c0.1,0,0.2,0,0.3,0.2c0.2,0.3,0.7,0.8,1,1c0.3,0.2,0.1,0.5-0.5,0.5c-0.6,0-1-0.5-1-1.1
		C126.6,115.3,126.7,115.1,126.8,115.1L126.8,115.1z"/>
	<g>
		<path class="st0" d="M113,43.4c-1.3-1.1-7.8-3-10.5-3.2c-1.2,0-2.7-0.5-3.3-1.1c-0.6-0.5-1.5-1.1-2-1.2c-0.2,0-0.3,0-0.5,0
			c-1.3,0-3.1,0.7-3.1,1.3c0,0.3-0.5,0.7-1.1,0.9c-1.2,0.4-5.2,8.3-6.3,12.7c-2.4,9,0.1,17,5.2,17c1,0,3.2,0.8,4.9,1.8
			c3.5,1.9,7.5,3,7.5,1.9c0-0.4-0.7-0.8-1.7-1c-1.8-0.4-7.3-3.3-7.3-3.8c0-0.2,0.8-1.1,1.7-2.1c2.2-2.3,2.6-3.2,4.6-9
			c2.1-6.3,2.6-12.2,1.3-14.2c-0.5-0.8-1-1.6-1-1.8c0-0.5,3.3,0.5,5.6,1.7c0.9,0.5,1.8,0.8,2,0.6c0.2-0.2,1.2,0.1,2.3,0.5
			C113.5,45.4,114.6,44.7,113,43.4z M99,58.2c-0.3,0.7-0.9,2.1-1.3,3.3c-1.1,2.8-2.2,4.2-4.4,5.1c-2.3,1-2.8,1-4.2,0v0
			c-1-0.7-1.2-1.6-1.1-5.8c0-5.6,0.3-7.3,1.7-11.4c1.9-5.5,4.2-8.4,6.7-8.6v0c0.2,0,0.3,0,0.5,0c0.4,0,0.8,0.1,1.2,0.3
			C102,42.6,102.4,50.2,99,58.2z"/>
		<path class="st0" d="M103.5,66.3c1.4,0,1.9,0.6,1.1,1.4c-0.5,0.5-1,0.5-2.2,0C101,67.2,101.8,66.3,103.5,66.3L103.5,66.3z"/>
	</g>
	<g>
		<path class="st0" d="M123.7,10.7c0.8-0.2,5.1,5.5,7.3,9.8c1.7,3.3,0.7,2.2-2.6-2.8c-1.7-2.6-3.5-5.1-4-5.5c-0.5-0.4-0.8-1-0.8-1.3
			C123.6,10.8,123.6,10.7,123.7,10.7L123.7,10.7z"/>
		<polygon class="st0" points="124.4,14.1 124.4,14.1 124.4,14.1 		"/>
		<path class="st0" d="M130.5,33.9c-0.6-0.9-0.8-7.2-0.2-7.5c1.1-0.7-0.1-4.3-2.7-8.1c-1.5-2.3-2.9-4.1-3.1-4.1
			c-0.2,0,0.1,0.7,0.6,1.5c0.5,0.8,1.4,2.2,2,3.1l1,1.7l-1.5-1.2l-1.5-1.2l1.1,1.7c0.6,0.9,0.8,1.5,0.4,1.3
			c-0.4-0.2-0.7-0.1-0.7,0.2c0,0.3,0.3,0.8,0.6,1c0.4,0.2,0.5,0.7,0.4,1.1c-0.7,1.7,1.7,3.3,2.8,1.9c0.3-0.4,0.4-0.3,0.2,0.3
			c-0.1,0.5-0.6,0.8-0.9,0.8c-0.9-0.2-0.9,0.2,0,1.8c0.6,1.2,0.6,1.2-0.2,0.5c-1.7-1.4-1.9,1-0.2,3.6c0.8,1.3,1.7,2.3,1.9,2.3
			C130.7,34.5,130.7,34.2,130.5,33.9z M130,23.7c-0.1,0-0.7-0.7-1.3-1.6c-0.5-0.8-0.7-1.3-0.5-1.2l0,0h0l0,0c0,0,0.1,0,0.1,0
			C129,21.4,130.4,23.7,130,23.7z M129.3,31.5c-0.2,0-0.6-0.5-0.9-1.2c-0.4-0.7-0.5-1.2-0.3-1.2s0.6,0.5,0.9,1.2
			C129.4,31,129.5,31.5,129.3,31.5z"/>
		<path class="st0" d="M127.5,32.2c0.2,0,0.7,0.7,1.5,1.9c1.3,2.2,1.5,3.1,0.5,2.5c-0.5-0.3-0.6-0.1-0.3,0.6c0.4,0.9,0.3,1-0.5,0.3
			c-1-0.8-1.3-2.1-0.3-1.5c0.8,0.5,0.8-0.1-0.3-2.1C127.5,32.7,127.3,32.1,127.5,32.2L127.5,32.2z"/>
		<path class="st0" d="M128.1,39c0.2,0,0.4,0.3,0.6,0.8c0.3,0.9,0.3,0.9-0.3,0.3c-0.4-0.4-0.6-0.9-0.4-1.1C128,39,128,38.9,128.1,39
			L128.1,39z"/>
	</g>
	<g>
		<path class="st0" d="M140,43.6c0,0,0.3,0.2,0.7,0.8c0.5,0.6,0.9,1.4,0.9,1.7c0,0.8-0.3,0.4-1.2-1.4C140.1,44,139.9,43.7,140,43.6z
			"/>
		<path class="st0" d="M143.2,46.1c0.1,0,0.1,0,0.2,0.1c0.3,0.2,0.6,0.6,0.6,0.9c0,0.9-0.4,0.7-0.8-0.4
			C143,46.4,143,46.1,143.2,46.1L143.2,46.1z"/>
		<path class="st0" d="M140.5,47.3c0.1,0,0.3,0.3,0.5,0.6c0.3,0.6,0.9,0.9,1.3,0.7c0.4-0.2,0.5-0.1,0.2,0.3
			c-0.2,0.4-0.2,0.7,0.1,0.7c0.3,0,0.5,0.7,0.6,1.6c0.1,1.5,0,1.5-1.3-0.8c-0.8-1.3-1.4-2.7-1.4-3C140.4,47.3,140.5,47.2,140.5,47.3
			L140.5,47.3z"/>
		<path class="st0" d="M141.2,52c0.1,0,0.2,0.1,0.5,0.4c0.4,0.4,0.8,1.7,0.8,2.9l0.1,2.2l-1.1-1.3c-1.3-1.6-1.4-2.8-0.2-1.8
			c1.1,0.9,1.1,0.4,0.2-1.4C141.2,52.3,141.1,52,141.2,52L141.2,52z"/>
		<path class="st0" d="M140.1,56.1c0.1,0,0.5,0.5,0.9,1.2c0.4,0.7,0.4,1.2,0.1,1.2c-0.3,0-0.7-0.5-0.9-1.2
			C140.1,56.7,140,56.1,140.1,56.1z"/>
		<path class="st0" d="M139,59.9c0.1,0,0.2,0.2,0.2,0.6c0,0.6-0.1,1-0.3,0.8c-0.2-0.2-0.2-0.7,0-1.1C138.9,60,138.9,59.9,139,59.9
			L139,59.9z"/>
	</g>
	<path class="st0" d="M144.7,58.2c0.2,0,0.6,0.5,1.1,1.1c0.7,0.8,1.2,1.8,1.2,2C147,62,144.6,59,144.7,58.2
		C144.6,58.2,144.6,58.2,144.7,58.2L144.7,58.2z"/>
	<g>
		<path class="st0" d="M114.9,94.5c0.4,0,2.7,4.7,2.7,5.5c0,0.4-0.1,0.6-0.2,0.5C116.9,100,114.7,94.5,114.9,94.5L114.9,94.5z"/>
		<path class="st0" d="M120.3,94.7c0.4,0.1,2.1,3,2.1,3.7c0,0.2-0.1,0.3-0.3,0.3C121.6,98.7,119.9,95,120.3,94.7
			C120.2,94.7,120.3,94.7,120.3,94.7L120.3,94.7z"/>
		<path class="st0" d="M117.1,95.9c0.1,0,0.5,0.4,1.1,1.3c0.7,1,1.2,2,1.2,2.3c0,0.9-0.6,0.4-1.5-1.3
			C117.2,96.7,116.9,95.9,117.1,95.9z"/>
	</g>
</g>
</svg>
