<?xml version="1.0" encoding="utf-8"?>
<!-- Generator: Adobe Illustrator 24.2.0, SVG Export Plug-In . SVG Version: 6.00 Build 0)  -->
<svg version="1.1" id="children" xmlns="http://www.w3.org/2000/svg" xmlns:xlink="http://www.w3.org/1999/xlink" x="0px" y="0px"
	 viewBox="0 0 409.1 346.4" style="enable-background:new 0 0 409.1 346.4;" xml:space="preserve">
<style type="text/css">
	.st0{fill:#1E1E1E;}
</style>
<path id="main_path" class="st0" d="M268.3,0c-0.9,0-2,0.1-3.4,0.1c-4.2,0.2-7.3,0.8-9.2,1.7c-1.6,0.7-4.1,1.7-5.7,2.1
	c-1.6,0.4-3.3,1.2-3.8,1.8c-0.5,0.5-1.3,1-1.6,1c-0.8,0-7,5.9-7,6.7c0,1.5,1.2,1.2,3.4-0.8c2.6-2.4,6.4-5.2,7.1-5.2
	c0.2,0,1.4-0.4,2.6-0.9c6.3-2.8,15-4,20.8-2.9c2.6,0.5,9.5,3.2,10.9,4.2c0.5,0.4,2.1,1.3,3.5,2c2.8,1.4,10.6,9.4,10.6,10.9
	c0,0.5,0.4,1.1,0.8,1.4c1.6,1,5.2,9.6,5.6,13.4c0.1,1.1,0.4,2.9,0.6,4.1c0.5,2.6,0.5,10.6,0,14.6c-0.7,4.9-0.8,5.5-2,9.8
	c-0.6,2.2-1.3,4.8-1.5,5.8c-0.2,0.9-0.6,2-0.9,2.4c-0.3,0.4-1.2,2.4-1.9,4.6c-0.8,2.2-2.2,5.3-3.1,7.1c-0.9,1.7-1.5,3.3-1.4,3.6
	c0.2,0.3-0.2,0.9-0.7,1.4c-0.8,0.7-0.7,0,0.4-2.8c2.7-6.7,3.5-11,3.7-19.7c0.2-8.3-0.3-11.4-2.5-16.2c-1.9-4.1-6.7-7.2-12.2-8
	c-2.2-0.3-2.7-0.1-3,1.1c-0.4,1.3-0.7,1.4-6.6,1.1c-6.2-0.3-10.6-1.6-15.8-4.7c-2.3-1.4-4.6-5.1-4.5-7.1c0.1-1.3-1.6-3.2-2.3-2.5
	c-0.2,0.2-0.9,0.1-1.4-0.4c-0.9-0.7-1-0.5-0.5,2.1c0.6,3.6-1.6,10.9-4.1,13.6c-0.9,0.9-1.6,2-1.6,2.4c0,0.4-0.6,1.1-1.4,1.5
	c-0.7,0.5-1.4,1.3-1.4,1.8s-0.6,1.4-1.3,2.1c-2.5,2.3-4.3,7.8-4.3,13.3c0,2.8,0.2,5.6,0.6,6.1c0.3,0.5,0.6,1.1,0.7,1.3
	c0,0.2,0.4,1.9,0.8,3.7c1.4,6,1.5,7.2,0.1,11.4c-2.1,6.6-1.6,10,0.9,6.4c0.7-1.1,1.1-1.2,1.1-0.5c0,0.6,0.8,1.7,1.7,2.5
	c2.7,2.5,5.7,3.4,11.4,3.2c3.6-0.1,5.2,0,5.2,0.6c0,0.6,0.2,0.5,0.8,0c2.1-2.1,1.8-0.4-0.6,3.1c-0.1,0.1-0.5,0-1-0.3
	c-1.4-0.8-5.3-1.1-5.3-0.3c0,0.4,0.8,0.9,1.9,1.1c2,0.5,8.5,5,12.1,8.3c1.2,1.1,2.8,3.5,3.7,5.4c1,2.2,2,3.5,2.8,3.5
	c0.7,0,1.2-0.1,1.2-0.3c0-0.8-2.4-5.8-3.6-7.5l-1.4-2l2.3,0.3c1.3,0.2,3.1-0.1,4.2-0.6c2.3-1.2,2.5-2.5,0.3-1.7
	c-0.8,0.3-3.3,0.5-5.5,0.4c-3-0.1-4.3-0.6-5.6-1.7l-1.6-1.5l1.4-2.4l1.4-2.4l-1.7,1.9c-2.4,2.6-2.8,2.3-1.1-0.7l1.5-2.5l-2.1,2.4
	c-1.4,1.7-2.3,2.2-2.8,1.7c-0.5-0.5-0.2-1.4,1-3.2c1.4-2.1,2.1-2.5,4.2-2.6c1.4,0,3.1-0.3,3.9-0.6c1-0.4,1.7-0.1,2.5,1
	c0.7,0.8,1.9,1.5,2.9,1.5c1.4,0,1.6-0.2,1-0.9c-0.4-0.5-1-0.8-1.3-0.6c-0.3,0.2-0.7-0.2-0.9-0.7c-0.7-1.7-0.5-2.3,0.6-2.3
	c0.6,0,3-0.9,5.4-2c5.2-2.3,10.9-7.7,13-12.2c0.8-1.7,1.5-2.7,1.5-2.1c0,0.6-0.4,1.9-1,2.9c-0.6,1.1-0.8,2.2-0.6,2.5
	c0.2,0.3,0.1,0.6-0.3,0.6c-0.8,0-1.4,4.6-0.6,5.3c0.3,0.3-0.2,1.3-1.2,2.1c-1.7,1.6-2.2,2.7-1.1,2.7c0.3,0,2.8-1.4,5.6-3
	c5.7-3.4,5.8-3.4,8.5,2.2c1,2.1,2.8,4.6,3.9,5.6l2.1,1.8l-2,1.6c-4.8,3.7-7,7-7.2,11c-0.1,2.1-0.4,2.5-1.9,2.5c-2,0-7.4,4.7-7.4,6.3
	c0,0.6,0.8,2.3,1.8,3.8c2.1,3.2,4.7,3.7,6.9,1.4l1.3-1.4l0.4,2.3c0.2,1.2,0.8,3.9,1.2,6c0.4,2,0.9,4.2,1.1,4.7
	c0.2,0.6,0.4,1.7,0.5,2.4c1,7.1,6.7,25.9,9.9,32.6c1.6,3.4,1.6,4-0.2,3.7c-1.8-0.3-3.3,1-3.3,3c0,0.9-0.3,1.7-0.6,1.9
	c-0.3,0.2-0.8,1-1,1.8c-0.3,1.1,0.1,1.6,1.9,2.5c1.3,0.6,2.3,1.3,2.3,1.5c0,0.9-16.7,0.6-21.3-0.3c-2.6-0.5-6.4-1.1-8.5-1.3
	c-6.2-0.5-13.8-1.8-14.5-2.5c-0.4-0.4-0.2-0.6,0.5-0.6c0.9,0,1.2-0.6,1.2-2.3c0-2.4-2-4.9-3.5-4.4c-0.5,0.2-1.5-0.3-2.2-0.9
	c-1.6-1.5-2.7-1.6-4-0.2c-0.6,0.6-1.6,1-2.3,1c-1.8,0-2.9,1.3-2.9,3.5c0,1.7-0.2,1.9-2.5,2c-1.4,0.1-3.1,0.1-3.8,0
	c-0.7-0.1-2.3,0.3-3.6,0.9c-2.1,0.9-2.3,0.9-2.4-0.2c0-1-0.2-0.9-1.2,0.3c-1.2,1.5-10.3,6.6-10.8,6.1c-0.2-0.2,0.2-1,0.8-1.9
	c1.2-1.7,1.4-2.9,0.4-2.3c-1,0.6-0.1-1.5,2.7-6.1c1.3-2.2,2.5-4.7,2.6-5.4c0.5-4.9,1-8.2,1.4-8.8c0.3-0.4,0.6-1.7,0.7-3
	c0.1-1.3,0.5-2.5,0.9-2.6c0.4-0.1,0.3-0.5-0.2-0.8c-0.7-0.4-0.3-1.7,1.6-5.5c1.4-2.7,3.3-6.1,4.2-7.6c1-1.4,1.6-2.7,1.5-2.9
	c-0.3-0.3-3.2,4-5.1,7.7c-0.8,1.6-1.6,2.9-1.8,2.9c-1,0,0.1-2.4,3.4-8c2-3.4,3.4-6.1,3.1-5.9c-0.3,0.2-1.9,2.5-3.4,5.1
	c-1.5,2.6-2.9,4.6-3.1,4.4c-0.5-0.5,2.2-6.2,4.6-9.6c1.2-1.7,2-3.3,1.8-3.4c-0.3-0.3-2.2,2.4-5.1,7.2c-2,3.3-1.8,1,0.2-2.6
	c1.8-3.2,2-3.8,1-3.1c-0.4,0.2-0.7,0.1-0.7-0.4c0-0.4,0.4-0.6,1-0.4c1.5,0.6,3.3-2.7,2.7-4.9c-0.3-1-0.5-3.3-0.6-5.2
	c-0.1-4.3-0.7-5.2-2.9-4.6c-1.7,0.4-1.7,0.4-0.6-1.2c0.6-0.9,1.1-1.9,1.1-2.3c0-0.4-0.7,0.5-1.6,1.9c-0.9,1.5-1.8,2.3-2,1.9
	c-0.2-0.4,0.4-1.8,1.4-3.1c1-1.3,1.7-2.5,1.5-2.7c-0.2-0.2-1.3,1.1-2.5,2.8c-2.4,3.6-2.9,2.4-0.6-1.6c1.2-2,1.2-2.4,0.3-1.6
	c-1,0.8-1.2,0.8-1.2,0c0-0.5-0.5-0.2-1.1,0.8c-0.6,0.9-1.3,1.8-1.4,2c-0.2,0.2-0.7-0.2-1.2-0.9c-1.5-2-7.7-3.9-12.7-3.9
	c-2.5,0-4.7-0.3-4.9-0.6c-0.7-1.1,1-6,4.1-12.7c3.2-6.8,3.5-7.9,2-7.3c-0.5,0.2-1.2,0-1.5-0.5c-0.3-0.5-1.6-1.4-2.9-2.1
	c-2.2-1.1-9.4-6.1-10.2-7.1c-0.2-0.2-1.7-1.5-3.4-2.8c-3.2-2.6-3.3-2.6-12.5-7.2c-8.3-4.2-9.3-5.2-9.5-10.3
	c-0.1-3.4-0.5-4.4-1.9-5.9c-2.1-2.1-4.4-1.8-7,0.8c-1.6,1.6-1.7,1.6-3.8,0.6c-3.5-1.7-6.5-0.6-9,3.4c-3.3,5.4-2.6,11.2,2,15.3
	c3.1,2.8,6.2,4,12,4.4c6.1,0.4,7.4,0.9,11.7,4.3c1.9,1.5,7.3,5.3,12.2,8.4c4.9,3.2,9.7,6.6,10.7,7.5c2,1.8,4.6,2.7,5.9,1.9
	c0.5-0.3-0.5-1.3-2.5-2.6c-1.8-1.2-6-3.9-9.4-6.2c-3.4-2.2-6.9-4.4-7.8-4.9c-0.9-0.5-3.2-2.1-5.2-3.7c-1.9-1.6-3.8-2.9-4.2-2.9
	c-0.4,0-0.8-0.3-1-0.7c-0.1-0.4-0.7-0.8-1.2-0.9c-0.6-0.1-1.6-0.5-2.4-0.9c-0.7-0.4-3.3-0.9-5.7-1.1c-8.8-0.8-14.9-5.8-14.9-12.1
	c0-2.8,0.3-3.7,2-5.3c1.2-1.2,2.7-2,3.8-2c1.9,0,4.5,1.1,5.2,2.3c0.5,0.7,3.3-1.2,3.2-2.2c-0.2-1.6,0.4-2.1,2.1-2.1
	c1.8,0,2.1,0.3,2.5,2.5c0.3,1.4,0.6,2.8,0.6,3c0.1,0.3,0.2,1.3,0.2,2.3c0.1,1.9,3.4,5.5,6.7,7.2c1,0.6,4,2.1,6.6,3.5
	c2.6,1.4,4.9,2.7,5.1,3c0.2,0.3,1.3,1,2.4,1.6c1.1,0.6,3.6,2.5,5.4,4.2c4.3,3.9,11.6,8.7,12.4,8.2c1.7-1,1.2,1.4-1.7,7.8
	c-1.7,3.9-3.3,8.4-3.4,10.1c-0.3,2.7-0.1,3.2,1.3,3.9c1.3,0.7,6,1.3,11.5,1.5c0.6,0,1.3,0.3,1.6,0.7c0.2,0.3,1,0.6,1.7,0.6
	c2.2,0,3.8,2.3,4.7,6.8c0.5,2.4,1,4.8,1.2,5.4c0.2,0.6,0.4,6.7,0.5,13.5c0.2,11.8-0.7,23.6-1.9,24.8c-0.3,0.3-0.5,0.9-0.5,1.5
	c0,1.1-2,5.7-2.7,6.3c-0.9,0.7-3.8,7.9-4.3,10.5c-0.9,4.7-0.8,9.4,0.1,11.3c1.7,3.4,7.4,6.8,11.2,6.8c1.7,0,1.9,0.2,1.9,2.3
	c0,2.5-1,9.7-2.1,15.5c-0.4,1.9-0.8,4.9-1,6.8c-0.2,1.9-0.5,4-0.6,4.7c-0.1,0.7-0.6,3.5-1,6.1c-0.4,2.6-1.4,5.9-2.2,7.3
	c-1.5,2.9-2.2,7.1-2.1,12.5c0.1,3.9,1.3,5.9,5.3,8.3l0,0c2.4,1.5,2.9,1.5,6.5,0.4c2.7-0.9,6.7-4.3,7-6c0.1-0.5,0.3-1.3,0.6-1.6
	c0.4-0.7,0.2-6.5-0.3-9.5c-0.8-4.3-6-8.6-9.8-8.1c-1.1,0.2-2.3,0-2.5-0.4c-0.2-0.4,0-2.9,0.6-5.6c0.5-2.7,1.2-6.1,1.4-7.6
	c0.3-2,0.7-2.4,1.2-1.9c0.6,0.6,0.6,1.3,0,3c-1.3,3.7-0.6,7.9,1.3,7.9c0.4,0,0.2-0.6-0.4-1.3c-0.9-1-1.1-1.9-0.8-3.6
	c1.2-6,1.2-6.6,0.1-7c-1.2-0.5-1.4-2.7-0.4-5.3c0.4-1,0.8-3.5,1-5.6c0.2-2.1,0.5-5.3,0.7-7c0.2-1.7,0.5-5.1,0.6-7.4
	c0.2-4,0.9-10.8,1.5-13.8c0.1-0.7-0.1-1.7-0.5-2.1c-1.5-1.8,18.2-2.2,21.5-0.4c0.7,0.4,1.7,0.8,2.3,1c0.9,0.3,1.1,1.8,1.2,9.6
	c0.1,5.1,0.3,9.5,0.5,9.7c0.2,0.2,0.4-4,0.4-9.3c0-8.5,0.1-9.6,1.1-9.3c0.6,0.2,1.3,0.4,1.5,0.4s0.5,4.3,0.5,9.5l0,9.5h-2.6H266
	v-9.5c0-13-1.4-12.8-4.1,0.7c-1.3,6.8-2,8.8-4,13.2c-0.7,1.5-2.3,5-3.5,7.8c-1.2,2.8-2.6,5.6-3.1,6.1c-0.5,0.6-0.9,1.3-0.9,1.6
	c0,0.3-1.2,3-2.6,6c-4.7,9.8-5,10.5-4.5,11.3c0.8,1.2,2.6-0.9,4.7-5.6c1.1-2.3,2.7-5.9,3.6-8c2.3-5.2,4.9-10.7,6.3-13.5
	c0.6-1.3,1.7-4,2.4-6.1c0.7-2,1.4-3.9,1.7-4.1s0.7-1.3,0.8-2.4c0.2-1.5,0.3-1.2,0.4,1.1c0.1,1.7,0.4,3.3,0.7,3.5
	c1.2,0.7,16.2,0.9,19.1,0.3c1.6-0.4,3.6-0.8,4.4-1c0.8-0.2,2.6-0.8,4-1.3c1.4-0.6,2.6-1,2.7-0.8c1.8,2.6,6.8,21.9,7.6,29.3
	c0.2,1.9,0.7,5.3,1,7.6c0.6,3.9,0.5,4.5-1,7.5c-2.1,4.2-2.7,7.7-1.7,11.2c0.9,3.4,2.9,5.3,7,6.9c2.6,1,3.5,1.1,5.8,0.4
	c4.6-1.4,8.2-7.7,7.7-13.6c-0.1-1.3-0.2-2.4-0.3-2.4s-0.2-0.5-0.3-1.1c-0.3-1.6-2.4-4.7-3.2-4.7c-0.4,0-0.5-0.3-0.2-0.6
	c0.2-0.3,0.5-2.4,0.7-4.6c0.2-2.2,0.5-4.7,0.6-5.5c0.5-2.4,0.5-20.8,0.1-25.8c-0.7-7.6-1.2-12.2-1.5-13.8c-1.2-6.3-1.3-5.9,1.1-5.9
	c2.3,0,2.2-0.1,0.9,3.2c-0.5,1.3,1,1,2.5-0.5c1.7-1.7,1.7-3.7,0-4.9c-0.7-0.5-1.5-2-1.8-3.3c-0.2-1.3-1.3-4.3-2.4-6.6
	c-1.1-2.4-1.9-4.7-1.9-5.2c0-0.5-0.4-1.1-0.9-1.4c-0.5-0.3-1.5-2.2-2.1-4.3c-0.7-2-1.6-4.5-2.1-5.4c-0.9-1.8-3-8.5-3.5-11.4
	c-0.3-1.9-1.5-6.9-2.1-9.2c-1.1-4.1-2.3-11.3-2-11.6c0.2-0.2,2.7-0.5,5.6-0.6c7.4-0.4,13.8-1.6,15.1-3c0.2-0.2,1.4-0.9,2.7-1.7
	c4-2.2,10.1-8.4,9.7-9.9c-0.4-1.5-0.9-1.6-2.2-0.5c-0.6,0.5-0.7,0.5-0.5,0.1c0.2-0.4,2.1-1.9,4.2-3.3s3.9-3,4.2-3.5
	c0.7-1.7-0.7-2.3-2.9-1.2c-1.4,0.8-4,1.1-8.8,1.1c-9.8,0.1-22.6-1.2-23.8-2.5c-0.2-0.2,0.7-1.5,2.2-2.9l2.6-2.5l-1.6-1.3
	c-0.9-0.7-2-1.3-2.3-1.3c-0.4,0,0.4-1,1.7-2.2c2.1-1.9,5.1-5.1,11.4-12.3c2.2-2.5,11.1-14.4,13.9-18.6c3.7-5.5,6.5-7.7,13.1-10.1
	c9.2-3.4,13-8.2,11.4-14.4c-0.5-2.1-1.1-2.7-3.4-3.6c-3.6-1.5-8.5-1.5-9.9-0.1c-1.5,1.5-0.6,2.2,1.6,1.2c2.2-1,4-1,6.9,0
	c5.7,2,2.9,11.5-4,13.5c-1.4,0.4-2.6,1.1-2.6,1.4c0,0.4-0.4,0.5-0.9,0.3c-0.5-0.2-2.3,0.4-4.1,1.3c-3.8,1.9-4.1,2-3.5,0.6
	c0.6-1.6-0.9-1.2-1.6,0.5c-0.6,1.4-3.1,5.2-4.6,7c-0.3,0.4-1.2,1.6-1.9,2.7c-0.7,1.1-1.5,2.2-1.7,2.4c-0.2,0.2-1.4,1.9-2.7,3.7
	c-1.3,1.9-2.5,3.5-2.8,3.6c-0.3,0.1-0.5,0.5-0.5,0.9c0,1.1-7.2,10.1-13.6,16.8l-3.7,4l-2.2-4.2l-2.2-4.2l4.2-4.3
	c2.3-2.4,5-5.5,6.1-6.9c1-1.4,4.3-5.3,7.3-8.5c2.9-3.2,6.8-7.5,8.7-9.5c1.8-2,3.6-4.6,4-5.8c0.4-1.2,1.2-3.2,1.8-4.5
	c0.6-1.3,1.4-3.6,1.8-5.1c0.4-1.5,0.9-3.4,1.1-4.3c0.3-1.3,0.8-1.5,2.5-1.4c1.4,0.1,2.4,0.7,2.9,1.7c0.8,1.6,1.6,1.4,1.6-0.6
	c0-1.6-2.5-3.3-4.9-3.3c-2.2,0-3.4,1.6-4.9,6.8c-2.5,8.2-5.8,13.3-15.6,23.7c-1.9,2-4.2,4.8-5.1,6.1c-0.9,1.3-1.8,2.5-2,2.7
	c-0.2,0.2-1.2,1.4-2.2,2.8c-1,1.4-3.2,3.9-5,5.6c-2.6,2.6-3.3,3-4.1,2.3c-0.8-0.6-1.3-0.7-2.3,0c-0.7,0.4-1.3,0.7-1.3,0.6
	c0-0.1,1.4-3.1,3-6.7c1.7-3.5,3-6.9,3-7.5c0-0.6,0.3-1.2,0.6-1.4c0.3-0.2,0.8-1.2,1-2.2c0.2-1,0.7-2.9,1-4.2
	c3.3-11.5,3.6-13.5,3.6-20c-0.1-13.7-2.9-22-11.1-32.2c-3.8-4.7-14.8-12.1-17.9-12.1c-0.4,0-2.1-0.6-3.9-1.4
	C272.4,0.3,271.1,0,268.3,0L268.3,0z M233.9,14.9c-0.3,0-0.6,0-1,0c-5.5,0.2-14.7,6.1-16.1,10.3c-0.2,0.8-1,2.2-1.7,3.1
	c-0.7,0.9-1.9,4.1-2.7,7.1c-1.2,4.5-1.4,6.4-1,11.7c0.2,3.5,0.8,7.8,1.2,9.5c0.4,1.7,0.8,3.8,0.9,4.5c0.4,2.5,1.5,5.4,4.9,13.2
	c2.6,5.9,4.4,9.9,5.1,11.2c0.4,0.7,0.9,2.6,1,4.1c0.2,1.5,0.6,3.1,1,3.6c1,1.2,0.1,1.9-1.2,0.8c-0.9-0.7-1-0.6-1,0.5
	c0,1.8,0.7,2.2,4.5,2.5c1.7,0.1,3.6,0.6,4.2,1.2c0.6,0.5,2.1,1.4,3.2,1.9c3.2,1.5,3.9,2.2,3,2.8c-1.1,0.7-2.6,0-2.6-1.2
	c0-0.5-0.3-0.8-0.7-0.6c-0.4,0.2-1.2,0.1-1.9-0.3c-0.7-0.4-1.6-0.5-1.9-0.2c-2,1.3-2.6,5.9-1.1,7.7h0c1,1.2,8.6,1.1,11.5,0
	c2.3-0.9,3.9-3,3.2-4.2c-0.2-0.4,0.1-1.1,0.8-1.6c1.1-0.8,1-0.9-1.5-1.3c-1.5-0.2-5.2-1.7-8.2-3.2c-3.5-1.8-6-2.7-6.9-2.4
	c-1.3,0.3-1.4,0.1-1.3-2.6c0.1-1.6,0.3-2.6,0.5-2.3c0.2,0.4,0.9-0.6,1.5-2.2c0.6-1.6,1-3,0.8-3.2c-0.2-0.2-0.7,0.7-1.1,1.9
	c-0.5,1.5-1,2-1.4,1.5c-0.4-0.4-0.2-2.1,0.8-4.9c0.8-2.3,1.3-4.4,1.2-4.5c-0.1-0.1-0.8,1.3-1.4,3.2c-0.6,1.9-1.4,3.3-1.8,3.1
	c-1-0.6-0.7-1.7,1-5.6c2.1-4.4,1.6-4.7-0.6-0.3c-1.3,2.6-1.7,3-2.1,2c-0.3-0.7,0.1-2.6,0.8-4.4c1.8-4.6,1.8-5,0-1.3
	c-0.9,1.8-1.8,3-2,2.6c-0.2-0.4,0.5-2.4,1.7-4.5c1.1-2.1,1.9-4,1.7-4.2c-0.2-0.2-1.1,1.2-1.9,3.1c-1.5,3.2-2.6,4.4-2.6,2.8
	c0-0.4,0.9-2.7,2-5.1c1.1-2.4,1.8-4.4,1.7-4.4s-1.2,1.9-2.3,4.2c-1.3,2.9-2.1,3.8-2.4,3.1c-0.2-0.6,0.5-3,1.7-5.3
	c1.2-2.3,2-4.3,1.8-4.5c-0.2-0.2-1.2,1.4-2.2,3.5c-1.1,2.1-2.2,3.7-2.5,3.7c-1.3,0-1.3-3.7,0.1-6.5c2-4.2,1.7-4.6-0.4-0.6
	c-2.4,4.5-2.8,2.4-0.6-2.6c2-4.6,1.7-5-0.5-0.7c-0.9,1.7-1.8,2.8-2,2.4c-0.2-0.4,0.4-2.4,1.5-4.5c1.1-2.1,1.5-3.5,1.1-3.1
	c-0.5,0.4-1.2,1.6-1.7,2.7c-0.5,1.1-1.1,1.8-1.4,1.6c-0.3-0.2,0.2-1.9,1.1-3.8c1-1.9,1.6-3.5,1.5-3.7c-0.1-0.1-1,1.2-1.9,2.9
	c-1.5,3-1.7,3.1-1.8,1.4c-0.1-1,0.6-3.4,1.6-5.3c1-1.9,1.7-3.6,1.5-3.8c-0.2-0.2-0.8,0.9-1.5,2.4c-1.3,2.9-2,3.4-2.2,1.5
	c-0.9-12.4-0.5-15,3.2-22.2c2.9-5.6,3.2-5.9,7.6-8.8c3.1-2,4.7-2.6,7.6-2.7c2-0.1,3.6-0.5,3.6-0.8C236.5,15.4,236,14.9,233.9,14.9
	L233.9,14.9z M249.6,37.2L249.6,37.2c0.5,0,1.3,0.8,2.4,2.2c1,1.3,2.8,2.8,4,3.5c7.8,4.1,8.1,4.2,17.1,4.6c2.6,0.1,5.4,0.6,6.3,1.1
	c2.1,1.1,4.2,0.4,3.7-1.3c-0.4-1.6,0.3-1.7,3.1-0.2c4.6,2.3,6.5,7.7,6.8,19.1c0.1,4.4-0.1,5.6-0.8,5.6c-0.6,0-1.4,1.6-2.2,3.9
	c-0.7,2.1-1.8,5-2.6,6.3c-2,3.5-8.5,8.7-13.4,10.8c-8.4,3.5-7,3-10.1,3.7c-1.3,0.3-5.1,0.7-8.5,1c-9.9,0.8-15.8-1.6-13-5.2
	c0.7-0.9,0.6-0.9-0.6,0.1c-0.9,0.8-2,1.1-2.9,0.8c-1.7-0.5-1.7-0.9-0.3-3c0.6-0.9,0.9-1.4,0.5-1.2c-0.4,0.2-0.6-1.3-0.5-3.5
	c0.1-4.2-1-10.1-2.5-12.9c-0.5-1-0.9-3.4-0.8-5.8c0.1-3.5,0.5-4.9,2.7-8.5c1.4-2.4,3.8-6,5.4-8c3-3.9,5.6-9.4,5.6-11.6
	C249.1,37.6,249.2,37.2,249.6,37.2L249.6,37.2z M101.1,37.5l-5.1,2.6c-3,1.5-5.2,2.3-5.3,1.9c-0.7-2.2-6.3,1.3-11.6,7.3
	c-7,7.9-13,19.9-10.5,20.8c1.3,0.5,1.2,1.1-0.4,3c-1.5,1.8-3.5,5.9-5.4,11.2c-2.8,7.8-0.3,26.4,3.9,28.9c0.5,0.3,0.9,1,0.9,1.5
	c0,0.5,0.2,1,0.5,1s1.1,1.1,1.7,2.5c1.2,2.7,6.1,8.3,7.3,8.3c0.4,0,0.7,0.2,0.7,0.5c0,0.3,0.8,1.1,1.7,1.7c1.2,0.9,3.4,1.3,7.9,1.6
	c3.4,0.2,6.5,0.6,6.8,0.9c0.3,0.3,0.2,1.4-0.2,2.4c-0.4,1-0.9,1.7-1.1,1.5c-0.8-0.8-2.2,1.1-2.2,2.9c0,2.5,1.3,6.1,2.8,7.7
	c3.7,4,17.8,0.1,22.6-6.1c2.6-3.4,4.4-5,5.1-4.6c0.4,0.2,0.5,0.7,0.3,1c-0.6,0.9,4,7,6.3,8.5c2.4,1.6,2.7,2.8,0.8,3.4
	c-1.9,0.6-6.1,7.7-6.1,10.3c0,2.2,0.3,3.2,2.8,8.9c1.1,2.5,1.5,2.8,2.5,2.2c1.7-0.9,2-0.4,1.6,3c-0.2,1.6,0,4.9,0.4,7.3
	c0.8,4.9,1.3,9.1,1.8,18.3l0.4,6.5l-3.2,1.6c-1.8,0.9-4,1.5-4.9,1.4c-2.2-0.2-7.6-1.6-8.5-2.2c-0.4-0.3-1.7-0.7-3-1
	c-1.3-0.3-3.4-1.1-4.7-1.7c-3.5-1.8-15.3-4.8-17.5-4.4c-4.8,1-8.5,1.1-9.1,0.2c-0.4-0.7-0.5-0.7-0.5,0c0,0.5-0.5,0.8-1.1,0.8
	c-0.8,0-0.9-0.3-0.3-1.5c0.7-1.4,0.7-1.5-0.3-0.2c-0.6,0.7-1.1,1.6-1.2,1.9c-0.1,0.3-0.7,0.7-1.2,0.8c-0.6,0.1-1.4,0.4-1.9,0.7
	c-1.2,0.7-1.1-0.3,0.5-3.9c0.7-1.7,1.2-3.1,1-3.1c-0.6,0-3,5.4-3,6.7c0,0.7-0.6,1.5-1.4,1.7c-1.9,0.5-1.7-0.7,0.6-5.2
	c2-3.9,2.8-8.2,1.8-9.9c-0.3-0.5-1.1-1.7-1.7-2.7c-0.6-0.9-0.7-1.5-0.3-1.2c0.8,0.5,2.5-2.6,2-3.5c-0.4-0.7,1.6-5.6,4-9.6l1.8-3
	l-1.8,2l-1.8,2l1.1-2.3c0.6-1.3,2.3-4.2,3.8-6.6c3.3-5.3,3.5-6.7,0.2-1.6c-1.3,2-2.4,3.4-2.4,3.1c0-0.7,4.6-9.9,5.6-11.1
	c0.4-0.5,0.5-1,0.3-1.2c-0.4-0.4-3.2,4.2-5.7,9.4c-1.5,3.2-1.6,3.3-1.3,1.2c0.2-1.3,1.9-5.4,3.8-9c3.7-7.4,4.2-9.5,0.7-3.1
	c-3.5,6.4-3.4,4.3,0.2-4.6c2.1-5.1,1.7-5.6-0.5-0.7c-1.4,3.1-1.6,3.3-1.4,1.4c0.4-3.7,3.2-7.3,6.4-8.1c2.1-0.6,3.6-2,3.1-2.9
	c-0.5-0.9-4.3-0.2-6.3,1.1c-0.8,0.5-1.5,0.9-1.5,0.7c0-0.2-1.1,0.1-2.4,0.7c-2.2,0.9-2.5,0.9-3.6-0.2c-1.4-1.4-4.9-6-4.9-6.5
	c0-0.2-1.2-2.1-2.6-4.3C64.1,118.6,57.8,103,57,96.5c-0.3-2.8,1.7-10,4-13.8c1.4-2.3,1.8-8,0.9-10.9c-0.8-2.4-3.5-2-5.1,0.7
	c-1.4,2.3-1.8,4.6-0.7,4.6c0.4,0,1.2-1.1,1.8-2.4c1-2.1,1.3-2.3,1.8-1.3c0.8,1.4,0.2,4.8-1.6,9c-1.6,3.6-2.7,8.7-2.9,12.7
	c-0.2,3,4.1,15.9,8.2,24.6c2.7,5.9,8,14.7,10.1,16.7c3.2,3.2,3.3,3.5,1.8,5.6c-0.8,1.1-1.4,2.3-1.4,2.7c0,0.4-0.3,0.7-0.7,0.7
	s-0.7,0.5-0.7,1.2c0,0.7-0.3,1.6-0.6,2.2c-0.5,0.8-1.1,0.5-3.3-1.7c-5.3-5.5-11.8-17.5-14.9-27.4c-1.5-4.9-3.6-15.7-3.6-18.7
	c0-1.6-0.4-2.9-0.9-3.1c-1.6-0.6-5.8-9.5-6.3-13.3c-0.9-6.9,2.9-10.3,7.7-6.9c2.1,1.5,5.5,2.5,5.5,1.6c-0.1-1.8-6.2-5.7-8.9-5.7
	c-2.1,0-5.1,1.9-5.6,3.5c-0.3,0.9-0.6,1.7-0.7,1.9c-0.1,0.2-0.4,0.9-0.7,1.5c-0.6,1.4,0.5,7.2,2.1,10.6c0.6,1.3,2.3,3.9,3.7,5.6
	c2.4,3,2.6,3.4,2.6,7.8c0,9.1,3.7,22.2,9.2,32.6c2.6,5,5,8.2,9.7,13.2c1.7,1.8,3.3,4.1,3.6,5.1c0.3,1,1.4,2.7,2.4,3.8
	c1.1,1.1,1.9,2.6,1.8,3.4c-0.8,5.3-1.3,7.3-3.5,13.1c-1.4,3.6-2.7,6.7-2.9,6.9c-0.4,0.3-4,8.8-5.8,13.7c-0.9,2.5-1.1,8.6-0.3,9.8
	c0.6,0.9,8.3,4.9,9.3,4.9c1.1,0,1.2,0.8,0.2,1.8c-1.1,1.1-0.9,13.4,0.3,19.2c0.8,3.8,1.5,5.4,2.7,6.4c1.4,1.1,1.7,2.2,2.1,6.4
	c0.4,4.3,1.2,8.5,3.5,18.7c0.2,0.8,1,2,1.7,2.7c1.3,1.2,1.4,1.2,1-1.6c-0.2-1.6-1-5.4-1.7-8.5c-1.8-7.5-3-15.4-2.5-15.9
	c0.2-0.2,3.1-0.4,6.3-0.5c3.4-0.1,6.7-0.5,7.8-1c2.1-1.1,1.9-2.2-0.3-1.7c-0.8,0.2-4.7,0.3-8.6,0.3c-9.3-0.1-9.5-0.2-10.2-9.6
	c-0.3-3.9-0.4-7.6-0.3-8.4c0.1-0.7,0.4-2.8,0.6-4.6c0.2-1.8,0.7-3.4,1.1-3.6c0.4-0.2,0.5-0.7,0.2-1.1c-0.4-0.7,1-7.3,1.7-8.2
	c0.5-0.6,12.2-1.5,12.2-0.9c0,0.2-0.6,2.7-1.4,5.5c-0.8,2.8-1.3,5.6-1.2,6.3c0.1,0.6,0.8-1.4,1.5-4.6c1.6-7.1,2.2-5.4,0.8,2
	c-1.2,5.7-1.3,7.3-0.4,5.2c1.4-3.5,2.3,11.3,1.1,17.9c-0.4,2.2-0.4,2.2,0.2,0.3c0.3-1.1,0.8-2.9,1-4c0.2-1.1,0.6-1.7,0.9-1.5
	c0.7,0.7,0.8,2.6,0.2,5.3c-0.3,1.5-0.3,2.4,0,2.2c0.3-0.2,0.6-1.1,0.6-2s0.2-1.7,0.4-1.7c0.5,0,2.3,1.8,2.3,2.4
	c0,0.2,1.1,2.4,2.5,4.8c2.8,4.8,5.3,6.6,8.9,6c1.9-0.3,2.2-0.2,2.2,1.2c0,0.9,0.6,2.6,1.4,3.8c1.6,2.6,1.6,2.9,0.4,2.9
	c-2.4,0-7.1,10.9-7.4,17.1c-0.1,1.8-0.3,3.2-0.6,3.2c-0.2,0-1.2-0.9-2.1-2c-0.9-1.1-2.5-2.2-3.5-2.5c-2.1-0.5-2.9-2.2-3.1-6.8
	c-0.1-1.8-0.3-3.6-0.5-3.9c-0.2-0.3-0.4-4.1-0.6-8.5c-0.3-7.3-0.9-9.8-2-8.7c-0.5,0.5-0.4,18.7,0.1,21.3c0.2,0.9,0.5,2.2,0.8,3
	c0.4,1.2,0.2,1.3-0.8,0.9c-3.3-1.3-4.8-1.2-5.3,0.2c-0.7,2.1,2.9,6.2,9.7,11.4c1.2,0.9,1.2,1-4.3,2.1c-1.9,0.4-4.6,1.1-6.1,1.5
	c-4.9,1.4-5.4,1.5-6.7,0.5c-1.1-0.8-1.1-1.2-0.5-2.4c1.3-2.4,4.8-4.1,8.3-4.1c3.5,0,4.9-1,2.2-1.6c-2.1-0.5-6.8,0.1-9.6,1.4
	c-4,1.8-4.2,7-0.4,9.2c2.1,1.2,2.2,1.2,6.1-0.1c6.2-2.1,14.2-3.6,15.5-2.9c0.6,0.3,1.6,1.8,2.2,3.2l1.1,2.6l-6.7,3.4
	c-9.7,4.9-11.3,8.4-6.2,12.9c2.2,2,10,6.1,14.6,7.7c1.3,0.5,4.8,1.7,7.8,2.8c5,1.8,9.8,2.6,9.8,1.6c0-0.8-2.3-2.2-3.6-2.3
	c-2.3,0-16.9-5.4-21.8-8.1c-10.7-5.8-10.6-7.9,1-13.5c3.8-1.9,5.9-2.6,6.4-2.1c1,1,1.8,0.8,1.8-0.3c0-0.6,1.2-1.2,3.2-1.6
	c8.5-1.8,11-2.2,11.6-1.9c0.3,0.2,0.6,2.6,0.7,5.3c0.1,2.7,0.3,5.7,0.4,6.6c0.7,3.5,1.4,11.1,1.3,14.6c-0.1,2,0.1,3.5,0.4,3.3
	c0.3-0.2,0.4,0.9,0.2,2.5c-0.3,2.5-0.1,3,1.6,4.4c2.8,2.3,5.3,3.3,11.8,4.7c6.7,1.4,6,1.4,11.1,0.4c2.2-0.4,5.9-1.1,8.1-1.5
	c2.2-0.4,5.1-1.3,6.3-2.1c1.9-1.2,2.2-1.7,2.2-4.2v-2.8l3.2,0.1c1.8,0,6.9,0.6,11.5,1.2c5.1,0.7,12.4,1.1,19,1.1
	c5.9,0,11.6,0.1,12.7,0.3c1.1,0.2,3.9,0.4,6.1,0.4c2.2,0.1,5.9,0.4,8.1,0.7c2.2,0.3,6.4,0.7,9.3,1c2.9,0.2,6.2,0.5,7.4,0.7
	c3.4,0.5,11.5,1.7,13.4,2c1,0.1,2.6,0.6,3.6,1c1,0.4,2.6,0.7,3.4,0.7s1.7,0.3,1.8,0.7c0.1,0.4,0.9,0.2,1.9-0.6
	c3.1-2.4,4.3-2.4,9.1,0.2c2.5,1.3,4.8,2.2,5.1,2c0.3-0.2,0.4-1.3,0.2-2.4c-0.3-1.7-0.1-2.1,1.2-2.6c2-0.7,4.7-0.1,5.6,1.4
	c0.5,0.8,0.4,1.5-0.6,2.5c-2,2.2,0,3,2.1,0.9c1.9-1.9,2.6-2,3.8-0.5c0.5,0.6,1.4,1.7,2.1,2.4h0c1.6,1.8,2.1,1.6,1.7-0.4l-0.3-1.7
	l9.2,0.2c8.6,0.2,19.9-0.4,23.8-1.3c0.9-0.2,2.8-0.5,4.1-0.7c1.3-0.2,5-0.8,8.1-1.4c3.2-0.6,6.6-1.2,7.6-1.3c1-0.2,1.8-0.1,1.7,0.3
	c-0.1,0.3,0.5,1.5,1.3,2.6c1.4,1.9,1.9,2.1,5.2,1.6c0.3,0,0.4-0.3,0.2-0.5c-0.3-0.3,1.8-2.6,4.5-5.1c2.7-2.6,4.3-4.4,3.6-4
	c-0.7,0.4-3.3,2.5-5.6,4.7c-4,3.8-4.3,4-5.3,2.8c-1.1-1.2-1-1.4,1.3-4.1c1.3-1.6,3.7-4.2,5.2-5.9c1.5-1.6,2.7-3.1,2.5-3.2
	c-0.1-0.1-2.5,2.1-5.2,5c-4.1,4.4-6.1,5.9-2.9,2.1c0.5-0.6,1.1-2.1,1.3-3.4c0.5-3.2,2.4-6,7-10.3c7.7-7.2,8.3-7.4,13-6.9
	c2.3,0.2,5.3,1,6.6,1.7c3.2,1.7,7.3,7.1,7.9,10.6c0.3,1.5,0.9,3.9,1.4,5.4c1.4,4.1,0.6,6.7-2.5,8.5c-2.6,1.4-3.8,3.3-1.6,2.5
	c0.6-0.2,1.7-0.6,2.5-0.8c3.6-0.9,5-5.8,3.6-12.8c-0.3-1.5-0.7-3.7-0.9-4.9c-0.2-1.2-0.7-2.2-1-2.2c-0.3,0-0.6-0.3-0.6-0.7
	c0-1.2-4.8-6.6-6.2-7.1c-0.9-0.3-1.2-0.8-1-1.7c0.2-0.7,0.1-1.3-0.3-1.3s-0.6,0.3-0.6,0.7c0,0.4-0.8,0.7-1.8,0.7
	c-1.8,0-1.8,0,1.2-3.2c2.3-2.4,2.6-2.8,1-1.8c-1.1,0.8-2.6,2-3.3,2.8c-1.4,1.5-2.8,1.8-3.4,0.8c-0.5-0.8,4.9-6.2,8.6-8.7
	c1.4-0.9,2.4-1.8,2.3-2c-0.4-0.4-4.7,2.6-7.9,5.5c-1.5,1.4-2.9,2.4-3.1,2.2c-0.6-0.6,4.8-6.1,8.8-9c2.1-1.5,3.7-2.9,3.8-3.2
	c0-0.7-5.3,3.1-9.2,6.5c-2.5,2.2-3,2.4-3,1.2c0-0.8,1.8-3,4.6-5.5c4.3-3.9,4.8-4.1,7.9-4.1c1.8,0,4.9,0.5,6.9,1.1
	c3.7,1.2,4.1,1.7,7.2,8.8c1.2,2.8-0.5,5.9-5,9.2l-1.6,1.2l1.8,0c1,0,2.3-0.4,2.8-1c0.6-0.6,1.3-1,1.6-1c0.3,0,1.3-1.3,2.2-3l1.6-3
	l-2-5c-2.3-5.9-2.4-5.9-6.7-8.1c-8.6-4.2-21.7-0.2-23.1,7.1c-0.3,1.4-0.7,2.4-0.9,2.3c-0.2-0.1-2.6-1.6-5.2-3.3
	c-6.4-4.2-10-6.1-15.2-8.1c-3.9-1.4-5.5-1.6-13.9-1.6c-14.2,0-31.7,0.9-41,2c-6.2,0.8-7.6,1-8,1.3c-0.2,0.1-2.7,0.5-5.5,0.7
	c-2.8,0.3-5.3,0.6-5.5,0.7c-0.2,0.1-2.1,0.4-4.1,0.6c-5.9,0.5-18.1,2.3-23.6,3.5c-3.2,0.7-9.7,1.2-17.6,1.3
	c-6.9,0.1-13.3,0.4-14.2,0.7c-0.9,0.2-5.6,0.6-10.4,0.9c-6.4,0.3-8.8,0.7-9.1,1.4c-0.3,0.8,1.3,0.8,9.1,0.4
	c5.2-0.3,14.7-0.6,21.2-0.8c6.5-0.2,13.6-0.6,15.9-1c2.3-0.4,5.6-1,7.5-1.3c1.9-0.3,4.9-0.8,6.8-1c9.4-1,15.7-1.9,23.7-3.1
	c12.2-1.9,11.4-1.8,19-2.6c7.7-0.8,28.6-1.6,38.1-1.5c7.3,0.1,10.7,1,19,5.3c9.9,5.1,12.9,7.8,12.9,11.5c0,2.3-0.2,2.4-4.7,3.3
	c-6.2,1.2-11.3,5.4-13.6,11c-0.9,2.1-2.2,5.6-3,7.9c-1.6,4.5-1.1,4.3-11.5,6.2c-3,0.5-7.5,1.4-10.2,2c-4.5,0.9-11.4,1.4-28.1,2
	c-7.5,0.3-12.8-0.8-14.9-3.1c-1.4-1.5-5-2.6-6.9-2.1c-2,0.5-3.9,2.2-3.9,3.4c0,0.7-0.6,0.6-2.7-0.4c-2.9-1.5-6.8-1.8-8.8-0.7
	c-0.9,0.5-3,0.4-6.9-0.3c-3.1-0.6-8.2-1.5-11.4-2s-8.6-1.2-12.2-1.4c-3.5-0.2-6.6-0.5-6.8-0.6c-0.2-0.1-3.4-0.4-7.1-0.6
	c-3.7-0.2-8.2-0.6-10.1-0.8c-1.9-0.2-8.7-0.5-15.2-0.5c-6.5,0-12.9-0.3-14.2-0.6c-4.7-0.9-6.5-1.2-12.7-1.6
	c-6.1-0.4-6.3-0.5-6.7-2.2c-0.6-2.9-3.7-8.7-5.5-10.5c-0.9-0.9-3.1-2.1-4.8-2.6c-3.5-1.1-11.7-1-14.5,0.2c-1.7,0.7-1.9,0.6-1.9-1
	c0-1-1-3.8-2.3-6.2c-1.3-2.5-2.8-6.6-3.4-9.2c-1-4.6-2.2-17.9-1.5-17.9c1.4,0,2.3,1,2,2.1c-0.6,2.1,0.5,8.7,1.6,9.8
	c1.2,1.2,3.8,0.8,6.4-1.1c2.5-1.7,5.3-7.6,5.3-11c0-3-2.7-7.8-4.3-7.8c-1.7,0-9.6-8.7-14.2-15.7l-2.5-3.8l2.9-3.7
	c1.6-2.1,3.3-3.8,3.8-3.8c1.2-0.1,1.1-0.6-1.1-3.3c-1.1-1.4-2.3-3.2-2.8-4.2c-0.5-0.9-1.1-1.8-1.3-2c-0.6-0.5-4.8-9.6-4.8-10.4
	c0-0.1,1.3-0.2,2.9-0.3c1.6-0.1,3.8-0.6,4.9-1.1c1.1-0.6,2.1-0.9,2.4-0.7c0.2,0.1,1-0.7,1.7-1.8c1.1-1.8,1.2-3,0.8-8.6
	c-0.6-8.6-1-12.4-1.5-14.7c-0.7-3.2-1.7-10.6-1.4-10.9c0.1-0.1,1,0.8,1.8,2c1.4,2,10.4,11.2,16,16.2c1.1,1,2.8,2,3.8,2.3
	c1.5,0.4,1.7,0.7,1.4,2c-0.2,0.9-0.1,2.1,0.3,2.9c0.6,1.2,1.4,1.3,8.5,1.2c6.9-0.1,8-0.2,9.2-1.5c1.9-1.9,1.9-8.4,0-9
	c-0.4-0.1-0.7-0.5-0.7-0.8c0-1.6-5.2-6.1-8.1-7.1c-3.2-1.1-6.3-3.2-9.6-6.6c-1-1-2-1.9-2.2-1.9c-0.7,0-10.7-10.7-13.7-14.8
	c-2.2-3-2.8-4.3-2.5-5.6c0.5-2.2-0.4-4.5-2.8-7.1c-1.1-1.1-3.5-3.9-5.5-6.1c-2.8-3.2-4.3-4.3-7.2-5.3c-3.6-1.2-3.7-1.3-3.9-4.4
	c-0.2-2.7,0-3.3,1.5-4.6c1-0.8,2-1.5,2.4-1.5c2.1-0.1,11.6-14.1,10.4-15.2c-0.9-0.9-2.6,0.6-3.9,3.5c-1.5,3.1-7.2,9.3-10.2,11
	c-7.5,4.3-13.9,5.9-24.6,6.1c-11.7,0.2-12.9-0.4-19.8-9.4c-3.5-4.6-5.6-8.5-5.6-10.5c0-0.6-0.3-1.7-0.7-2.3
	c-2.1-3.9-2.2-20-0.2-22.6c0.3-0.4,0.9-2.1,1.4-3.6c1.3-4.7,4.2-8.6,8.1-11.1c2-1.3,4-2.2,4.6-2.1c0.6,0.1,1-0.3,1-1.2
	c0-2-2-1.8-6.1,0.8c-1.9,1.2-3.6,1.9-3.9,1.7c-0.5-0.5,1.1-4,3.4-7.4c1-1.4,1.7-2.8,1.8-3c0-0.5,3.4-4.5,7.2-8.4
	c1.7-1.7,2.7-2.3,3.2-1.9c0.5,0.4,1.3,0.3,2.4-0.5c0.9-0.6,1.9-1.2,2.3-1.3c0.4-0.1,3.1-1.2,6.1-2.5c5.6-2.5,8.5-2.9,18.8-2.5
	c3.3,0.1,3.8,0.3,3.2,1.1c-1.1,1.3,0.2,2,3.5,2.1c1.5,0,3.1,0.6,4.1,1.4c0.8,0.8,2.5,1.7,3.6,2.2c2.1,0.8,5.7,3.8,5.7,4.7
	c0,0.3,0.5,1.1,1.2,1.8c1.7,1.9,5.6,7.7,5.6,8.4c0,0.3,0.6,1.8,1.3,3.2c0.7,1.4,1.5,3.6,1.7,4.9c0.2,1.3,0.6,3.3,0.9,4.4
	c0.3,1.1,0.5,3.6,0.4,5.4c-0.1,1.9,0.1,5.4,0.4,7.8c0.4,3.5,0.3,5.2-0.7,8.5c-0.7,2.2-1.6,5.3-2,6.8c-1.3,4.7-9.9,12.6-15.9,14.7
	c-4,1.4-4.5,2.9-1,3.2c1.8,0.1,3-0.2,4.4-1.4c1.1-0.9,3.1-2.2,4.5-2.9c1.4-0.7,3.3-2.2,4.2-3.4c0.9-1.1,2.2-2.7,2.9-3.5
	c2-2.2,3.4-5.2,3.9-8.5c0.2-1.6,0.9-3.6,1.4-4.4c1.1-1.7,1.3-19.3,0.3-23.2c-0.3-1.3-0.7-2.7-0.7-3c-0.2-1.1-2.6-7.2-4-10.2
	c-1.7-3.5-2.7-4.9-4.6-7.1c-0.9-1-2.1-2.6-2.7-3.7c-0.6-1.1-2.7-2.7-4.5-3.7s-5.5-3.1-8.1-4.8l-4.7-3.1h-9.5L101.1,37.5z
	 M275.1,55.6c-1.8,0-3.8,0.9-5.4,2.6c-1,1.1-1.8,2.8-1.8,3.7c0,2.3,0.7,2.1,3.2-0.7c1.5-1.7,2.7-2.4,4.2-2.4c1.3,0,2.1,0.3,2.1,0.9
	c0,1.4,1.6,2.5,2.6,1.8c1-0.6,1-1.2-0.4-3.6C278.7,56.3,277,55.5,275.1,55.6z M253.9,56.4c-1.2,0.1-1.9,0.5-2.9,1.6
	c-2,2.2-2.8,4.8-1.8,6c1.1,1.4,1.9,1,1.9-0.8c0-1.9,2.2-4.4,3.8-4.4c0.6,0,1.8,0.8,2.7,1.7c2,2.1,3,2.2,3,0.1c0-2.2-2.1-3.9-5.3-4.2
	C254.7,56.4,254.3,56.3,253.9,56.4L253.9,56.4z M82.3,59.4c-0.2,0-0.5,0.3-0.5,0.9c-0.3,2.9,0.6,7.2,1.7,9c1.1,1.6,1.4,1.7,4.3,1.3
	c1.7-0.2,3.7-0.6,4.3-0.8c2-0.6,1.3-1.6-1.1-1.6c-1.8,0-2.4-0.4-3.1-1.8c-0.6-1.2-1-1.6-1.5-1.1c-0.5,0.5-0.5,1.1,0,2.1
	c0.8,1.6-0.1,2.6-1.1,1.3c-1-1.3-2.2-5.3-2.2-7.4C83.2,60.3,82.7,59.5,82.3,59.4z M223.9,61.8c-0.1,0-0.8,1-1.9,3
	c-1.1,1.9-2,3.9-2,4.4c0,0.5,0.9-0.9,2-3C223.4,63.3,224.1,61.7,223.9,61.8z M106.8,63.1c-0.6,0-1.1,0-1.4,0.1
	c-0.9,0.3-1.6,0.4-1.6,0.3c0-0.1-1.6,0.5-3.6,1.3c-2,0.8-4.6,1.4-5.8,1.4c-2,0-2.1,0.1-0.9,1c1.3,1,2.8,1,4.1,0.2
	c0.4-0.2,2.6-0.9,5-1.5c6.7-1.7,11,0,14.5,5.6c1.7,2.8,1.7,6.1-0.1,11.6c-1.6,4.7-1.7,6.5-0.5,7c1.7,0.7,3,0.4,4.2-0.9
	c1.6-1.7,0.9-2.5-1.4-1.5c-1.6,0.7-1.7,0.7-1.3-1.1c0.2-1,0.6-2.3,0.8-2.9c0.5-1.3,0.5-1.1,1.5-5.5c0.8-3.4,0.8-4.1-0.3-6.3
	c-1.9-4-6-7.5-9.8-8.4C109.1,63.3,107.8,63.1,106.8,63.1z M263.2,69.7l1.4,2c0.8,1.1,1.4,2.3,1.4,2.7c0,0.9,2,1,2.1,0.1
	c0-0.4,0.1-1.1,0.2-1.5c0.2-1.4-1.8-3.2-3.5-3.2H263.2z M248.8,73.5c-0.4,0-0.7,0-1.1,0.1c-1.1,0.1-2.7,3.9-2.7,6.2
	c0,4.1,3.6,7.7,9.5,9.7c3.7,1.2,8.3-0.2,9.5-3.1c0.6-1.4,0.5-2.3-0.4-4.2C261.3,77.5,254.3,73.4,248.8,73.5z M77.7,75.7
	c-1.7,0-5,5.6-4.4,7.5c0.8,2.5,3.2,1.4,4.9-2.2C79.9,77.6,79.7,75.7,77.7,75.7z M250.9,76c0.2,0,0.4,0,0.6,0c2.3,0.2,7.1,2.2,7.1,3
	c0,1.2-2.5,2.7-3.9,2.3c-1.2-0.3-1.4-0.6-0.8-1.8c0.4-0.8-0.5-0.1-2,1.5c-2.3,2.5-2.8,2.8-3.2,1.8c-0.3-0.7,0.1-2.1,0.7-3.2
	c0.7-1.1,1-2.2,0.8-2.4c-0.2-0.2-1,0.7-1.8,1.9c-1.7,2.7-1.8,1.8-0.2-1.2C249.1,76.5,249.6,76,250.9,76L250.9,76z M253,77.1
	c-0.1,0-0.3,0.1-0.6,0.4c-0.5,0.4-1.5,1.8-2.2,3l-1.2,2.3l1.4-1.7c0.8-0.9,1.8-2.3,2.2-3C252.9,77.5,253.1,77.2,253,77.1z
	 M257.2,79.1c0,0-0.3,0.2-0.8,0.6c-0.7,0.5-1.2,1-1.2,1.2c0,0.6,0.6,0.2,1.4-0.9C257,79.4,257.2,79.2,257.2,79.1z M98.8,79.2
	L98.8,79.2c-1.1,0-1.6,0.4-2.4,1.9c-0.6,1.1-1.1,2.6-1.1,3.3s-0.3,1.6-0.8,2c-0.4,0.4-0.6,1.2-0.4,1.8c0.6,1.6,3.9,0.9,5.7-1.2
	c1.2-1.4,1.6-2.5,1.4-4.7c-0.2-2.5-0.4-2.8-2-3C99.1,79.2,98.9,79.2,98.8,79.2L98.8,79.2z M259.5,80.1c0.2,0,0.3,0,0.4,0.1
	c0.5,0.3,0.6,0.7,0.2,0.9c-0.4,0.2-0.9,0.9-1.3,1.6c-0.4,0.8-0.9,1-1.6,0.5c-0.9-0.5-0.8-0.8,0.4-2.1
	C258.2,80.5,258.9,80.1,259.5,80.1z M128.7,81.2c-0.8,0-1.8,0.4-2.9,1.1c-2.1,1.5-2.6,2.2-2.2,3.4c0.4,1.1,2.2,1.2,2.2,0.1
	c0-1.1,2.3-2.5,3.2-2c1.8,1.1,1.6,4-0.5,6.9c-1.1,1.6-2.1,3.3-2.1,3.8c0,1.1-1.6,2.9-2.6,2.9c-0.8,0-1.5,1.7-1,2.3
	c1.2,1.2,5.6-1,5.6-2.8c0-0.4,0.9-2.3,2-4.3c2.3-4.2,2.5-6.7,0.9-9.5C130.7,81.9,129.8,81.2,128.7,81.2L128.7,81.2z M260.7,81.8
	c0.3,0,0.6,0.3,0.6,1c0,0.6-0.3,1-0.7,1c-0.4,0-0.4,0.5,0.1,1.3c0.5,0.7,0.7,1.4,0.5,1.6c-1.1,1-4.3,0.8-7.7-0.4l-4-1.4l2.5-0.9
	c2.1-0.7,2.9-0.7,4.8,0.1c2.2,0.9,2.3,0.9,2.7-0.7C259.7,82.5,260.3,81.9,260.7,81.8z M242.2,88.4c-0.2,0-0.9,0.5-1.6,1.4
	c-0.9,1.1-1.7,2.3-1.7,2.6c0,0.8,3.4-3.1,3.4-3.9C242.3,88.4,242.3,88.4,242.2,88.4L242.2,88.4z M79.7,94.1c-0.7,0-1.5,0.3-1.9,0.9
	c-0.9,1.1-0.7,1.3,2.3,2c0.7,0.2,1.6,0.3,1.9,0.4c0.3,0,0.5-0.6,0.3-1.4C82.2,94.7,81,94.1,79.7,94.1z M277.8,100.1
	c-0.6,0-1.2,0.1-2,0.3c-1.8,0.4-2.1,1.4-1.1,3.1c0.5,0.8,0.8,0.8,1.7,0.1c0.6-0.5,1.1-0.7,1.1-0.5c0,1.4-2.8,10.1-4,12.4
	c-0.8,1.5-1.4,3.3-1.4,3.8c0,3.9,4.2-3.4,6.7-11.7C280.4,102.5,280.2,100.2,277.8,100.1z M232.4,102.1c0.5,0,1.4,0.6,2.1,1.4
	c1.5,1.7,3.9,1.7,5.4,0.2c1.1-1.1,1.2-1.1,2.1,0.1c1.1,1.5,1.2,2.1,0.3,2.7c-0.4,0.2-0.7,0-0.7-0.4c0-0.5-0.6-0.2-1.4,0.6
	c-1.6,1.7-4,2-4,0.4c0-0.7-0.4-0.9-1.1-0.7c-3.8,1.5-5.4,1.1-3.5-0.8c0.7-0.7,0.7-1-0.1-1.4C230.5,103.6,231.1,102.1,232.4,102.1z
	 M264.5,105.6c-0.1,0-0.3,0.2-0.8,0.6c-0.6,0.5-1.1,1.2-1.1,1.5c0,1,0.6,0.6,1.4-0.9C264.4,105.9,264.6,105.6,264.5,105.6z
	 M85.4,105.7c-1.5,0-2.3,0.3-3.3,0.9c-2.1,1.4-3.4,3.8-4.1,7.1c-0.4,2-0.1,2.8,1.3,4.5c1,1.2,2.6,2.2,3.6,2.4c1,0.2,3.7,0.2,5.9,0
	c4.8-0.3,8.4-2.7,9.6-6.4c1.7-5.1-1.2-7.7-9.3-8.4C87.5,105.8,86.4,105.7,85.4,105.7L85.4,105.7z M86.2,107.9c1.7,0,3.9,0.4,6.2,1.3
	c2.3,0.9,2.7,1.4,2.4,2.6c-0.2,1.1-0.1,1.2,0.3,0.6c0.5-0.7,0.7-0.6,1,0.5c0.3,1-0.3,1.9-2.1,3.4c-2,1.6-3.3,2-6.4,2.2
	c-2.2,0.1-4.1,0-4.2-0.2c-0.5-0.7,3.2-3,6.3-4c1.6-0.5,2.9-1.1,2.9-1.4c0-0.3,0.2-1.1,0.5-1.8c0.3-0.9,0-0.7-1,0.5
	c-1.7,2-2.6,1.5-1.5-0.8c0.5-1,0.1-0.8-1.2,0.8c-2.2,2.6-3.6,2.4-1.9-0.3c1.3-1.9,1.4-2.7,0.4-2.1c-0.4,0.2-0.7,0-0.7-0.5
	c0-0.5-0.6,0-1.3,1.1c-0.7,1.1-1.3,2.3-1.3,2.7c0,0.4,0.6-0.2,1.3-1.4c0.7-1.1,1.3-1.8,1.3-1.5c0,1.1-2.2,3.8-2.7,3.5
	c-0.3-0.2-1.1,0.6-1.7,1.9c-0.6,1.2-1.3,1.8-1.4,1.4c-0.2-0.5,0.7-2.5,1.9-4.6c1.2-2.1,2-3.7,1.8-3.7c-0.2,0-1,1.2-1.9,2.7
	c-0.8,1.5-1.8,2.5-2.2,2.3c-0.4-0.2-0.5-0.1-0.2,0.3c0.2,0.4,0.1,0.9-0.2,1.2c-0.4,0.2-0.7-0.1-0.7-0.8c0-1.5,1.6-3.7,2.2-3.1
	c0.2,0.2,0.4,0,0.4-0.5C82.5,108.8,84,108,86.2,107.9z M304.3,110c0.3,0,0.5,0.2,0.8,0.5c2.5,2.3,8,3.1,23.5,3.7
	c2.6,0.1,4.3,0.4,3.7,0.6c-0.6,0.2-1.2,0.6-1.4,0.8c-0.3,0.4-4,2.4-7.4,4c-2,0.9-0.2,1.7,3.5,1.6l4-0.1l-4,2.9
	c-4,2.9-7.9,4.4-12.7,5c-2.5,0.3-2.6,0.3-1.8-1.3c0.8-1.4,0.7-1.4-0.9,0.3c-1.6,1.7-3.9,2.5-3.9,1.4c0-0.2,0.8-1.5,1.8-2.8
	c1-1.3,1.6-2.5,1.4-2.6c-0.2-0.2-1.3,1.1-2.6,2.8c-2.1,3-3.3,3.8-3.3,2.4c0-0.4,0.9-1.7,2-3c1.1-1.3,2-2.5,2-2.8
	c0-0.9-2.7,1.8-4.1,4.2c-0.8,1.2-1.7,2.2-2,2.2c-1,0-0.7-0.6,2.1-4.3c1.5-2,2.7-3.8,2.7-4.1c0-0.3-1.1,0.9-2.5,2.6
	c-2.5,3.3-4,3.8-2,0.8c0.6-0.9,1.6-2.5,2.2-3.4c0.6-0.9,0.9-1.7,0.7-1.7c-0.2,0-1.5,1.7-2.9,3.8c-1.4,2.1-2.6,3.4-2.8,3
	c-0.1-0.4,0.9-2.5,2.3-4.6c1.4-2.1,2-3.4,1.4-2.9c-0.6,0.5-1.8,2-2.6,3.3s-1.6,2.2-1.7,2.1c-0.1-0.1-0.4-2.1-0.6-4.3
	c-0.3-3.8-0.2-4.2,2.1-7.3C303.1,110.7,303.7,110,304.3,110z M273.3,113c-0.1,0-0.4,0.2-0.8,0.6c-0.6,0.5-1.5,1.6-1.9,2.4
	c-0.6,1.2-0.6,1.3,0.3,0.6c0.6-0.5,1.3-0.6,1.6-0.3c0.3,0.3,0.4,0.2,0.1-0.1c-0.3-0.3-0.1-1.2,0.3-2
	C273.3,113.3,273.4,113,273.3,113z M234.3,116.4c-0.3,0-0.8,0.6-1,1.4c-0.2,0.7-0.2,1.4-0.1,1.4c0.1,0,0.6-0.6,1-1.4
	C234.6,117,234.6,116.4,234.3,116.4z M235.3,119.3c0.1,0,0.2,0,0.2,0.2c0,0.4-0.4,1.3-1,2c-0.5,0.7-1,1-1,0.6c0-0.4,0.4-1.3,1-2
	C234.8,119.6,235.1,119.3,235.3,119.3z M294.5,119.8L294.5,119.8c0.1,0,0.2,0,0.3,0c1.7,0.3,2,1.9,0.3,1.9c-2.5,0-3.8,4.4-1.8,6.1
	c0.6,0.5,1,1,1,1.3c0,0.7-2.6,0.7-3,0.1c-0.2-0.3-0.2-1,0-1.6c0.2-0.6-0.2-1.1-1.1-1.4c-2-0.5-1.5-2.9,0.6-2.7
	c1.2,0.1,1.5-0.1,1.1-1.1C291.6,121.2,293,119.7,294.5,119.8L294.5,119.8z M296.6,122.5c0.1,0,0.2,0,0.2,0.1
	c0.1,0.1,0.3,1.1,0.4,2.2c0.2,1.7,0,2.1-1.2,2.2c-1.7,0.2-2.5-0.7-1.9-2.5C294.4,123.6,295.9,122.4,296.6,122.5z M240.3,126.2
	c0.3,0,0.4,0.2,0.2,0.7c-0.2,0.5,0,1.4,0.4,2c0.5,0.7,0.6,1.4,0.2,2.1c-0.6,1.1-0.7,1-1.4-0.3c-1.1-2-0.9-4,0.2-4.4
	C240,126.2,240.2,126.2,240.3,126.2z M113.6,126.6c0.6,0,0.7,0.7,0.7,2.8c0,3.7,0.5,5.2,1.8,5.2c1.4,0,1.2,0.8-1,3.1
	c-4,4.2-5.8,5.2-11.5,6.5c-1.7,0.4-3.6,0.8-4.1,0.9c-2.7,0.7-5.7-2.2-6.5-6.3c-0.4-1.8-0.3-2.1,0.6-1.8c0.8,0.3,1.2-0.3,1.8-2.2
	c0.4-1.4,0.7-3,0.7-3.4c0-0.5,0.5-0.9,1.2-0.9c1,0,9.8-2.1,15.6-3.8C113.2,126.7,113.4,126.6,113.6,126.6z M302.2,127.4
	c0.2,0,0.3,0.1,0.3,0.4c0,0.4-0.3,0.9-0.7,1.1c-0.4,0.2-0.7,0.1-0.7-0.3c0-0.4,0.3-0.9,0.7-1.1C302,127.4,302.1,127.4,302.2,127.4z
	 M236.3,130c0.1,0,0.4,0.2,0.8,0.5c0.6,0.5,1.1,1.4,1.1,2c0,0.6-0.3,1.6-0.7,2.1c-0.5,0.8-0.7,0.8-0.7-0.3c0-0.7-0.2-2.1-0.5-3
	C236.2,130.4,236.1,130,236.3,130z M241.3,133.5c0.5,0,0.8,0.8,0.1,1.8c-0.5,0.7-1.2,1.3-1.7,1.3c-0.9,0-0.7-0.7,0.7-2.5
	C240.8,133.7,241.1,133.5,241.3,133.5z M237.9,138c0.4,0,0.9,0.6,1.2,1.5c0.2,0.8-0.1,2.1-0.6,2.9c-0.7,1-1,1.1-1,0.4
	c0-0.6,0.4-1.4,0.8-1.9c0.5-0.5,0.5-0.8,0.2-0.6c-0.7,0.2-1-0.3-1-1.5C237.5,138.2,237.7,138,237.9,138z M79.8,140.4l-1.1,2.7
	c-0.6,1.5-1.1,4.3-1.1,6.2c0,4.3-1.5,10-2.2,8.2c-0.3-0.7-0.3-1.6-0.1-2.1c0.2-0.5-0.1-1.6-0.6-2.4c-0.7-1-0.8-1.8-0.4-2.6
	c0.4-0.7,0.7-1.4,0.7-1.7c0.1-1,2.2-4.9,3.5-6.6L79.8,140.4z M130.6,149.6c0.6,0,1.7,1.6,2.6,3.7c0.9,2,1.8,3.7,2.1,3.7s1,1,1.7,2.2
	c0.7,1.2,2.4,3.4,3.7,4.9c5.5,6,9.2,9.9,9.6,9.9c0.2,0,1.2,0.6,2,1.3c0.9,0.7,3,2.5,4.7,3.9c1.7,1.4,4.4,3,6,3.5
	c2.3,0.8,3.4,1.7,5.6,4.9c3.8,5.5,3.5,7.5-1,8.3c-1.4,0.3-3,0.6-3.5,0.8c-0.6,0.2-0.9-0.4-0.9-2.4c0-1.5-0.3-3.3-0.7-3.9
	c-0.5-0.9-0.8-0.5-1.6,2.2c-0.7,2.5-1.3,3.4-2.4,3.5c-1.3,0.2-1.5-0.1-1.7-3c-0.2-2.9-0.4-3.3-1.7-3.3c-1.4,0-7.6-4.5-8.2-5.9
	c-0.1-0.3-2.1-2.5-4.4-4.8s-5.8-6.3-7.8-8.9c-2-2.6-3.9-4.8-4.2-5c-0.3-0.1-0.6-0.6-0.6-1.1c0-0.5-1.1-2.1-2.4-3.5
	c-1.9-2.1-2.3-3-2-4.5C125.9,153.8,129.2,149.5,130.6,149.6z M237.1,173.5c0,0-0.1,0-0.1,0.1c-0.4,0.3-1.1,1.1-1.4,1.8
	c-1,1.9-0.3,1.6,1-0.5C237.1,174,237.3,173.4,237.1,173.5L237.1,173.5z M237.1,176.9C237,176.9,237,176.9,237.1,176.9
	c-0.9,0.5-7,9.5-7,10.2c0,0.3,0.4,0.2,0.8,0c0.6-0.3,0.6-0.1,0.3,0.8c-0.7,1.8,0.1,0.8,3.9-4.7c1.7-2.5,2.9-4.4,2.5-4.2
	c-0.4,0.2-1.6,1.8-2.8,3.5c-1.2,1.7-2.3,2.9-2.4,2.7s1-2.2,2.5-4.5C236.3,178.5,237.3,176.8,237.1,176.9L237.1,176.9z M259.2,179.3
	c0.7,0,1.6,0.5,2.3,1.5c0.8,1.2,1.2,1.3,2,0.6c0.8-0.7,1.1-0.6,1.8,0.6c0.4,0.8,0.6,1.9,0.4,2.4c-0.5,1.3-1.3,1.2-2.7-0.3
	c-1.8-1.9-3.7-2.2-5.2-0.7c-0.7,0.7-1.9,1.2-2.5,1.1c-1-0.2-1.2-0.8-0.9-3.3c0.1-0.5,0.7-0.3,1.8,0.4c0.9,0.6,1.7,0.9,1.8,0.8
	c0-0.2,0.2-0.7,0.3-1c0.1-0.4,0.2-1,0.3-1.4C258.5,179.6,258.8,179.3,259.2,179.3z M309.8,180.9L309.8,180.9
	c1.1-0.1,2.4,1.3,1.6,2.1c-1.1,1.1-0.8,2.8,0.5,4.1c1.7,1.5,2.3,0.7,1-1.3c-1-1.5-1-1.6,0.1-2c0.6-0.2,1.2-0.3,1.3-0.2
	c0.8,1.1,3.8,6.7,3.8,7.2c0,0.3-1.4,0.6-3.1,0.6c-2.6,0-3.6-0.4-5.6-2.2c-2.4-2.2-2.4-2.2-0.9-2.6c1.5-0.4,2.1-1.6,0.8-1.6
	c-0.9,0-0.9-3.2,0-3.7C309.5,180.9,309.6,180.9,309.8,180.9L309.8,180.9z M238.4,181.4c-0.6,0-3.6,4.9-3.5,5.8c0,0.3,0.4,0,0.8-0.8
	c0.4-0.7,1.3-2.2,2.1-3.2C238.4,182.2,238.7,181.4,238.4,181.4z M259.6,183.6c0.4,0,1,0.2,1.4,0.7c0.9,0.9,0.8,1-0.7,1
	c-1.8,0-2.3-0.8-1-1.6C259.4,183.6,259.5,183.6,259.6,183.6z M71.8,186.4L71.8,186.4c0.6,0.1,1.1,1.2,1.4,3.3
	c0.5,2.8,0.3,3.5-1.2,5.9c-1,1.5-1.9,3.8-2.1,5.1c-0.3,2.1-0.6,2.3-2.7,2.3c-2.3,0-3.9-1.7-2.5-2.6c1-0.7,3-4.8,2.6-5.5
	c-0.2-0.3-0.1-1.3,0.3-2.2c0.6-1.4,0.7-1.4,0.3,0.4c-0.5,2.3-0.4,2.3,1.6-1.2c0.8-1.4,1.2-2.4,0.8-2.2c-0.4,0.2-0.4-0.5,0.1-1.7
	C70.9,186.9,71.3,186.3,71.8,186.4L71.8,186.4z M239.2,189.5c0.8,0,0.9,0.6,0.6,2.5c-0.5,3.5-0.9,3.6-1,0.5l-0.1-2.7l-0.5,2.7
	c-0.9,5-1.4,12.9-0.7,11.8c0.5-0.8,0.7-0.6,0.7,0.8c0,2,0,2-3.3,1l-2.3-0.7l0.5-6.1c0.3-3.4,0.8-6.4,1.2-6.8
	c0.5-0.5,0.6,0.1,0.3,1.7c-0.6,3.6-1.1,10-0.7,8.6c0.6-2,1.4-1.3,1.1,1c-0.3,2.5,0.4,2.3,0.9-0.2c0.2-0.9,0.5-3.7,0.8-6.4
	C237.1,191.6,237.8,189.5,239.2,189.5L239.2,189.5z M274.4,190.9c0.1,0.2,0.4,4.6,0.6,9.9c0.2,5.3,0.1,9.6-0.1,9.6
	c-2.7-0.5-2.8-0.7-2.9-5.6c-0.2-13.5-0.1-14.2,0.7-13.7c0.3,0.2,0.6,4.2,0.6,8.9c0,4.7,0.2,8.7,0.4,8.9c0.2,0.2,0.4-3.8,0.4-8.9
	C274.1,194.8,274.2,190.7,274.4,190.9z M278.9,191.8c1.5,0,3.1,0.2,3.8,0.7c0.3,0.2,0.7,4.2,0.8,8.9c0.1,5.8-0.1,8.4-0.6,8.1
	c-0.4-0.3-0.7-3.5-0.7-8.2c0-4.7-0.3-7.7-0.7-7.7c-0.4,0-0.5,2.9-0.3,8.1c0.2,4.5,0.1,8.1-0.2,8.1c-0.3,0-0.6-2.1-0.7-4.6
	c-0.1-2.5-0.1-6.3-0.2-8.5c0-2.2-0.3-3.8-0.7-3.6c-0.3,0.2-0.4,4-0.2,8.4c0.2,5.6,0.1,8.2-0.4,8.5c-0.5,0.3-0.8-1.2-0.8-5.5
	c0-3.3-0.3-7.3-0.6-9c-0.4-2.1-0.5-0.2-0.3,5.9c0.2,5.1,0.1,9-0.3,9c-0.7,0-1.6-16.6-1-18.1C276.1,192,277.4,191.7,278.9,191.8z
	 M269.3,192.1c-0.4,0-0.4,8.9,0,14.8c0.1,0.8,0.3,1.5,0.5,1.5C270.3,208.4,269.9,193,269.3,192.1
	C269.3,192.1,269.3,192.1,269.3,192.1L269.3,192.1z M235.9,192.3c0.1,0,0.1,0.3,0.1,0.9c0,1.1-0.2,3.4-0.5,5.1
	c-0.4,2.2-0.5,2.5-0.6,1c0-1.1,0.2-3.4,0.5-5.1C235.7,193,235.8,192.3,235.9,192.3z M285.6,192.9c1.4,0,1.8,1.6,2.3,10.7
	c0.2,3.6,0,4.9-0.5,4.9c-0.6,0-1.1-2.4-1.5-7.3l-0.7-7.3l0.2,7.6c0.1,4.2-0.1,7.6-0.4,7.6c-0.3,0-0.6-3.7-0.6-8.1
	C284.3,193.4,284.3,192.9,285.6,192.9z M232.4,193.4c0,0,0.1,0.1,0.1,0.3c0.2,0.7,0.2,1.7,0,2.4c-0.2,0.7-0.3,0.1-0.3-1.2
	C232.3,194,232.3,193.5,232.4,193.4z M291.8,193.5l2.2,0.5c1.2,0.3,6,0.4,10.7,0.4l8.6-0.1l0.4,2.9c0.2,1.6,0.6,4.3,0.8,5.9
	c0.2,1.6,0.5,3.2,0.7,3.6c0.6,0.9,0.8,31.7,0.3,34.4c-0.5,2.2-0.7,2.4-4.5,3.1l-4,0.8l4.2,0.1c3.5,0.1,4.2,0.3,4.2,1.3
	c0,2.1-1,2.7-4.4,2.8c-1.9,0-4.1,0.2-5,0.4c-1.5,0.3-1.6,0.2-1.3-2.2c0.2-1.4,0.1-4-0.3-5.9c-0.3-1.9-0.7-4.5-0.8-5.8
	c-0.9-7.7-4.5-22.4-6.6-26.7c-0.4-0.7-0.8-2-0.9-2.7c-0.4-1.8-1.3-4.6-3-9L291.8,193.5z M289.7,193.6c1.5,0,1.5,0.1,0.4,0.7
	c-1.3,0.7-1.3,1.5-0.1,11.3c0.2,1.8,0.1,2.9-0.4,2.9c-0.4,0-0.7-0.8-0.7-1.9c0-1-0.2-4.4-0.4-7.4
	C288.1,193.6,288.1,193.5,289.7,193.6z M231.2,193.9c0.1,0,0.1,0.5-0.1,1.6c-0.2,1.3-0.4,3.5-0.4,4.9c0,2.5-1,3.4-2.3,2.2
	c-0.7-0.7-0.6-2.8,0.2-3.2c0.3-0.2,0.5,0.3,0.3,1.1c-0.3,1.2-0.2,1.3,0.4,0.5c0.4-0.6,0.8-1.9,0.8-3c0-1.1,0.3-2.6,0.7-3.4
	C231,194.2,231.1,193.9,231.2,193.9z M265,195.7c0.1,0.1,0.2,1.8,0.3,5.8c0.1,4.4-0.2,7.8-0.6,8c-0.8,0.5-0.8-7.1,0-12.2
	C264.8,196.2,264.9,195.7,265,195.7z M229.1,195.9L229.1,195.9c0,0,0.1,0.1,0.1,0.2c0.2,0.5,0.2,1.2,0,1.7c-0.2,0.5-0.3,0.1-0.3-0.8
	C228.8,196.2,228.9,195.8,229.1,195.9L229.1,195.9z M238.6,196.9c0,0,0.1,0.2,0.1,0.6h0c0.2,1.2,0.2,3,0,4.1c-0.2,1-0.3,0-0.3-2.2
	C238.4,197.8,238.5,196.9,238.6,196.9L238.6,196.9z M290.8,197.2c0.3,0,0.8,1.7,1.2,4.7c0.3,1.8,0.8,3.2,1.1,3.2
	c0.3,0,0.6,0.6,0.6,1.4c0,0.9-0.5,1.4-1.4,1.4c-1,0-1.4-0.5-1.4-1.6c0-0.9-0.2-3.5-0.4-5.9C290.5,198.1,290.6,197.1,290.8,197.2z
	 M231.8,198.7c0,0,0.1,0.1,0.1,0.4c0.2,1,0.2,2.7,0,3.7c-0.2,1-0.3,0.2-0.3-1.9C231.7,199.6,231.7,198.8,231.8,198.7z M91.6,200.8
	c0.4,0,0.7,0.3,0.9,1c0.1,0.7-0.2,1.2-0.9,1.2c-0.7,0-1-0.4-0.9-1.1C90.9,201.2,91.3,200.8,91.6,200.8z M94.3,201.7
	c0.8,0,0.8,0.4,0.4,1.9c-0.3,1-0.7,2.3-0.9,2.9c-0.2,0.6-0.4-0.3-0.4-1.9C93.3,202.5,93.6,201.7,94.3,201.7z M96.7,202.5
	c1.9,0,7.5,1.3,7.9,1.9c0.2,0.3,0.9,0.6,1.7,0.6c0.7,0,1.3,0.3,1.3,0.6c0,0.3,0.5,0.6,1.2,0.6c1.1,0,5.2,1.2,9.8,2.9
	c1,0.4,1.7,0.9,1.5,1.2c-0.9,1.4,3.3,10.6,7.5,16.3l2.3,3.1l-2.2,1.5c-1.2,0.8-3.1,2.7-4.2,4.1c-2.1,2.6-7.9,6.1-10.3,6.1
	c-0.7,0-2.7,0.4-4.3,0.9c-3.3,1-4.7,0.8-4.7-0.6c0-0.5-0.2-1-0.5-1c-1.1,0-10.1-16-9.4-16.7c0.2-0.2-0.2-1.7-0.7-3.5
	c-0.6-1.8-0.8-4.3-0.6-5.9c0.7-4.8,2.5-11.9,3.1-12.2C96.2,202.6,96.4,202.5,96.7,202.5z M97.1,203.2L97.1,203.2
	c-0.5,0.3-3,9.3-3.4,12.3c-0.2,1.5-0.2,2.4,0,2C94.2,216.4,97.4,203.5,97.1,203.2C97.1,203.2,97.1,203.2,97.1,203.2L97.1,203.2z
	 M92.9,208L92.9,208c0.1,0,0.1,0.1,0.2,0.3c0.2,0.5,0.2,1.1-0.1,1.3c-0.2,0.2-0.4-0.2-0.4-0.9C92.7,208.2,92.8,208,92.9,208
	L92.9,208z M95.7,214.6L95.7,214.6L95.7,214.6z M95.7,214.6c-0.1,0-0.2,0.6-0.2,1.6h0c0,1.5,0.1,2.2,0.3,1.5c0.2-0.6,0.2-1.9,0-2.7
	C95.8,214.8,95.7,214.7,95.7,214.6L95.7,214.6z M89.5,217.4L89.5,217.4c-0.2,0.1-0.3,0.4-0.3,0.9c0,1.2-0.1,1.2-0.6-0.1
	c-0.5-1.2-0.6-1.1-0.8,0.7c-0.1,1.1-0.1,2.6-0.1,3.4c0,0.7-0.2,2.8-0.5,4.6c-0.3,1.8-0.3,3-0.1,2.7c0.7-0.8,2.9-11.8,2.5-12.2
	C89.6,217.4,89.6,217.3,89.5,217.4L89.5,217.4z M95.4,219.6L95.4,219.6C95.4,219.6,95.3,219.6,95.4,219.6c-0.5,0.3-0.5,1.6-0.1,2.9
	c0.2,0.7,0.5-0.1,0.5-1.5C95.8,220.2,95.6,219.6,95.4,219.6L95.4,219.6z M88.2,220.9c0.1,0,0.1,0.1,0.2,0.3c0.2,0.5,0.2,1.1-0.1,1.3
	c-0.2,0.2-0.4-0.2-0.4-0.9C88,221.1,88.1,220.8,88.2,220.9L88.2,220.9z M95.6,223.6c-0.1,0-0.2,0.2-0.2,0.7c0,0.7,0.1,1.1,0.4,0.9
	c0.2-0.2,0.2-0.8,0.1-1.3C95.7,223.7,95.7,223.6,95.6,223.6L95.6,223.6z M90.2,224.2c-0.1,0-0.2,0.2-0.2,0.7c0,0.7,0.1,1.1,0.4,0.9
	c0.2-0.2,0.2-0.8,0.1-1.3C90.3,224.4,90.3,224.3,90.2,224.2L90.2,224.2z M89.6,227.5c-0.2,0-0.8,1.7-1.2,4c-0.3,1.4-0.2,2,0.2,1.4
	c0.3-0.6,0.8-2.2,1-3.7C89.7,228,89.7,227.5,89.6,227.5L89.6,227.5z M123.6,239.7c0.7-0.1,1.2,0.5,1.6,1.7c0.9,2.4,6.2,9.6,8.9,12.3
	c1.2,1.2,3.1,2.5,4.2,2.9c1,0.4,1.7,1,1.5,1.4c-0.2,0.4,0.7,1.7,2,2.9c3.9,3.6,3.2,8-2,13.1c-1.6,1.6-3.5,2.4-4.1,1.8
	c-0.2-0.2-0.4-1.7-0.4-3.3c0-2.2,0.3-2.9,1-2.9c0.6,0,1-0.3,1-0.7c0-0.4-0.5-0.9-1-1.1c-1.4-0.6-1.3-3.1,0.4-6
	c0.8-1.3,1.3-2.6,1-2.8c-0.9-0.9-2.5,0.5-3.7,3.1l-1.3,2.8l-1.8-1.4c-1-0.8-2.1-1.4-2.4-1.4s-1.1-0.4-1.6-0.9
	c-0.5-0.5-2.6-2-4.7-3.3c-4.2-2.7-12.4-11.1-11.8-12c0.2-0.3,2.3-1.2,4.7-2s5.1-2,6-2.8C122.3,240.1,123,239.7,123.6,239.7z
	 M237.5,249.1c1.9,0,3,0.6,5.3,2.9c2.7,2.7,2.9,3.1,3.2,7.2c0.4,6.1-0.7,8.4-4.7,10.2c-3.8,1.6-3.5,1.6-6.2,0
	c-3-1.8-4.2-4.4-3.8-8.2c0.2-1.7,0.4-4,0.4-5.1c0.1-1.1,0.9-3.2,1.8-4.6C234.9,249.5,235.6,249.1,237.5,249.1L237.5,249.1z
	 M307.8,251.4c1.6,0,3.6,0.5,5.9,1.5c3,1.3,3.8,2.4,4.2,6.5c0.4,3.6,0,4.8-2.7,8.8c-1,1.5-1.7,1.9-4.1,1.8c-3.6,0-8.3-2.3-8.8-4.2
	c-1.1-4.2,0.2-10.6,2.8-13.5C305.6,251.7,306.6,251.4,307.8,251.4z M112.5,254.6L112.5,254.6c0.8,0,0.7,1.4-0.5,3.8
	c-2.1,4.2-3.3,8.7-2.8,10.7c0.2,1-0.1,2.2-1,3.2c-0.7,0.9-1.3,2-1.3,2.5c0,0.4-0.2,0.7-0.5,0.7c-0.6,0-0.5-5.2,0.1-8.5
	c1.3-6.5,2.2-8.9,4.5-11.3C111.6,254.9,112.1,254.6,112.5,254.6L112.5,254.6z M115.4,255.8l3.4,2.7c1.9,1.5,4.8,3.4,6.6,4.3
	c3.2,1.6,3.2,1.6,1.8,2.9c-0.8,0.7-1.4,1.6-1.4,2.1c0,1.5-1,1.6-3,0.1c-2.3-1.7-7.1-1.7-9.5-0.1c-3,2-2.9-0.9,0.3-8L115.4,255.8z
	 M75.6,262.7L75.6,262.7c-0.3,0-0.7,0.1-1.2,0.2c-1.8,0.6-8.4,5.8-7.9,6.2c0.2,0.2,1.3-0.4,2.5-1.4c2.5-2.1,6-4,6-3.3
	c0,0.8-2.3,4.1-3.8,5.5c-1.4,1.3-7.4,8.2-8.9,10.1c-0.8,1-0.9,1-0.8-0.2c0-0.7,0.4-2.5,0.9-3.9c0.9-2.5,0.9-2.5-0.3-1.5
	c-1.1,1-1.2,0.9-1.6-2.6c-0.7-7.2-4.6-10.3-6.4-5.1c-1,3-1.1,10-0.1,12.8c0.4,1.2,0.6,2.3,0.4,2.5c-0.2,0.2-1.6-0.6-3-1.8
	c-1.5-1.2-3.8-2.3-5.1-2.5c-2.2-0.4-2.5-0.2-2.5,1c0,0.8,0.9,2,2.1,2.9c1.6,1.2,1.9,1.7,1.3,2.4c-1.1,1.3-2.8,1.2-4.4-0.2
	c-1.7-1.5-4.7-2.9-6.4-2.9c-1.5,0-5,1.8-7.3,3.7c-4,3.3-5,5.1-3.5,6.1c0.4,0.2,0.7,0.1,0.7-0.2c0-2.1,8.1-7.3,11.1-7.1
	c0.7,0,2.6,1.2,4.2,2.5c2.3,1.8,3.5,2.4,5.5,2.4c2.2,0,2.4-0.1,1.5-0.9c-1.4-1-0.9-1.9,1.7-3c2.4-1.1,5-1.1,5.5,0
	c0.3,0.7,0.5,0.7,0.8,0c0.5-1.2,2-1.1,3,0.2c0.5,0.6,1.4,0.9,2.1,0.6c0.7-0.2-0.6,1.4-2.8,3.7c-2.2,2.2-4,4.5-4,5.1
	s-0.3,1.1-0.7,1.1c-0.4,0-0.7,0.3-0.7,0.7c0,1.3,1.9,0.7,3.1-1.1c1.8-2.4,3.7-4.4,6-6.4c1.1-0.9,0.7-0.3-1,1.5
	c-1.7,1.8-2.9,3.3-2.7,3.5c0.2,0.2,1.8-1.3,3.5-3.3c2.1-2.4,3.7-3.6,4.7-3.6c0.9,0,1.9-0.1,2.2-0.2c3-0.7,4.7,0.2,8.9,4.5
	c2.4,2.4,4.3,4.7,4.3,5.1c0,1.1,2.5,0.7,3-0.4c0.3-0.7-1.3-2.7-5-6.5c-4.2-4.2-5.4-5.8-5.4-7.3c0-1.1-0.3-2.1-0.6-2.3
	c-1.1-0.7-4.2,0.9-4.6,2.3c-0.2,0.7-0.5,1.4-0.8,1.4c-0.2,0-1.6,0.2-3,0.4c-1.4,0.2-2.5,0.2-2.5,0.1c0-0.2,0.6-1,1.4-1.9
	c0.8-0.9,2-2.3,2.7-3.2c0.7-0.8,1.3-1.7,1.3-1.9c0-0.2,0.9-1.2,2-2.3c1.1-1.1,2-2.1,2-2.3c0-0.2,0.9-1.4,2-2.5
	C77.9,266.2,78,262.8,75.6,262.7L75.6,262.7z M137.4,264.3c-0.5,0-0.8,0.2-0.8,0.7c0,0.5,0.6,1,1.4,1s1.4-0.3,1.4-0.6
	c0-0.3-0.6-0.8-1.4-1C137.8,264.4,137.6,264.3,137.4,264.3z M56.9,267L56.9,267c0.3,0,0.5,0.7,0.9,2.4c0.4,1.7,0.8,5.3,0.9,8
	c0.1,2.7,0.1,4.9-0.1,4.9c-1.6-0.2-2.5-1.9-3-5.6c-0.6-4.9-0.5-7.1,0.6-9C56.5,267.2,56.7,267,56.9,267L56.9,267z M118.7,269.4
	c0.7,0,1.5,0.3,2.6,0.8c2.5,1.1,2.8,2.5,1.5,6.9c-0.6,2.1-0.9,4-0.7,4.4c0.9,1.4-0.5,2.5-3.2,2.7c-1.6,0.1-3.4,0.3-4,0.5
	c-1.4,0.4-1.5-0.4-0.3-1.8c0.5-0.5-0.1-0.1-1.2,0.9c-3.7,3.3-3.9,2-0.4-2c1.9-2.1,3.3-4,3.1-4.2c-0.2-0.2-1.8,1.3-3.5,3.3
	c-1.8,2-3.6,4.1-4.1,4.7c-0.5,0.6-0.8,0.8-0.8,0.5c0-0.3,2-3.2,4.4-6.3c2.5-3.1,4.3-5.9,4.1-6.1c-0.2-0.2-2.2,2-4.5,4.9
	c-5.1,6.5-5.4,5.1-0.3-1.6c2.1-2.7,3.6-5.2,3.4-5.4c-0.4-0.4-1.2,0.5-4.5,5.1c-1.1,1.6-2.2,2.9-2.4,2.9c-0.5,0,1.6-3.9,2.4-4.4
	c0.4-0.2,0.7-0.7,0.7-1.1c0-0.4-0.5-0.3-1.2,0.2c-0.6,0.5-0.4,0,0.5-1.2c0.9-1.2,2-2.1,2.4-1.9c0.4,0.1,1.1-0.1,1.5-0.5
	c0.6-0.6,0.8-0.5,0.8,0.2c0,0.7,0.3,0.7,1.2-0.2C117.1,269.7,117.8,269.4,118.7,269.4z M127.4,269.6c0.1,0,0.1,0.1,0.2,0.3
	c0.2,0.5,0.2,1.1-0.1,1.3c-0.2,0.2-0.4-0.2-0.4-0.9C127.3,269.8,127.3,269.6,127.4,269.6L127.4,269.6z M90.9,269.7
	c0.2-0.1,1.1,0.3,2.2,0.8c1.5,0.8,3.4,1.6,4.4,1.8c2.2,0.5,6,4.3,6,5.9c0,0.7-0.1,1.2-0.2,1.2c-0.4,0-12-9-12.4-9.6
	C90.8,269.8,90.8,269.8,90.9,269.7z M66.1,270c-0.2,0-0.9,0.6-1.6,1.4c-0.7,0.7-1.1,1.4-0.9,1.4c0.2,0,0.9-0.6,1.6-1.4
	C65.9,270.7,66.3,270,66.1,270z M113,271.4c0,0-0.3,0.2-0.8,0.6c-0.7,0.5-1.2,1-1.2,1.2c0,0.6,0.6,0.2,1.4-0.9
	C112.8,271.7,113,271.4,113,271.4z M128,272.6c0.3,0,0.4,0.4,0.5,1.4c0.1,1,0.2,2.6,0.4,3.5c0.1,0.9,0.5,3.2,0.7,5.1
	c0.6,4.1,3,11.2,3.9,11.2c0.3,0,0.6,0.4,0.6,1c0,0.5,0.6,2.4,1.3,4.1c1.1,2.6,1.2,3.1,0.3,3.1c-0.6,0-1.2,0.5-1.4,1
	c-0.2,0.6-0.7,1-1.2,1c-0.4,0-1.8,1.2-3,2.7c-1.2,1.5-2.5,3.4-2.8,4.2c-0.5,1.2-0.6,0.6-0.7-2.8c-0.1-2.4-0.2-5-0.4-5.8
	c-0.9-4.6-1.2-7.7-1.2-15.2c0-4.7,0.1-9.2,0.4-10.2c0.2-0.9,0.5-2,0.5-2.4c0-0.4,0.6-1,1.3-1.5C127.5,272.7,127.8,272.6,128,272.6z
	 M185.3,274.3c-2.9,0-3.7,1.2-1.9,3.3c4,4.6,6.4,6.9,9,8.5c4.6,3,6.5,5,7.6,8.4c1.1,3.4,1.4,3.6,2.9,2.7c1-0.6,0.7-6.9-0.4-8.4
	c-0.3-0.4-1.1-2.6-1.8-4.7c-1-3.2-1.7-4.2-4.1-5.9c-3.7-2.5-6-3.4-9.8-3.8C186.2,274.3,185.7,274.3,185.3,274.3z M187.6,276.8
	c1.1-0.1,3.3,0.7,5.7,2.1c2,1.1,3.6,2.1,3.6,2.2c0,0.1,0.6,1.7,1.4,3.7c0.7,2,1.3,3.5,1.2,3.5c-1.5-0.3-12.7-10-12.7-10.9
	C186.8,277,187.1,276.8,187.6,276.8z M385.5,280.4c0.2,0,0.1,0.3-0.4,0.8c-1.3,1.6-4.7,3.9-4.7,3.2c0-0.8,2.8-3.2,4.3-3.8
	C385.1,280.5,385.4,280.4,385.5,280.4z M72.6,280.9L72.6,280.9c0.1,0,0.1,0.6-0.1,1.4c-0.2,0.7-0.6,1.4-1,1.4
	c-0.3,0-0.3-0.6,0.1-1.4C72.1,281.5,72.5,280.9,72.6,280.9L72.6,280.9z M141.2,282.8c-4.1,0-7.5,0.1-7.7,0.4c-0.2,0.2-0.2,0.8,0,1.4
	c0.3,0.8,1.7,0.9,7,0.7c7.9-0.3,22.8,0.8,28,2.1c4.4,1.1,22.1,1.4,22.7,0.4c0.6-1-1.6-1.3-11.5-1.6c-4.8-0.2-9.6-0.6-10.6-1
	c-1-0.4-4-0.9-6.8-1.1c-2.7-0.2-6.9-0.5-9.4-0.8C150,282.9,145.3,282.8,141.2,282.8L141.2,282.8z M66.8,287.3
	c-0.4,0.1-2,1.4-3.8,3.3c-2.2,2.1-4.2,3.7-4.5,3.4c-0.3-0.3-0.4-0.2-0.1,0.3c0.3,0.4,0.1,1-0.2,1.2c-0.4,0.2-0.7,0.8-0.7,1.2
	c0,0.4,2.1-1.3,4.7-3.9C64.8,290.1,66.9,287.7,66.8,287.3C66.9,287.3,66.9,287.3,66.8,287.3L66.8,287.3z M113.7,289.4
	c-1.3,0-2.6,0.6-4,1.6c-0.9,0.7-2.1,1.3-2.6,1.3c-0.5,0-2.1,0.8-3.6,1.7c-3.2,2-4.3,4.8-2.3,6.2c1.8,1.3,14.3,0.5,16.1-1.1
	c2.2-1.9,2.6-3.3,1.5-5.7C117.7,290.8,115.8,289.4,113.7,289.4z M65.8,290.4L65.8,290.4c-0.6,0.1-5.8,5.8-6.6,7.3
	c-0.3,0.6,1.1-0.7,3.2-3C64.5,292.5,66,290.6,65.8,290.4C65.9,290.4,65.8,290.4,65.8,290.4L65.8,290.4z M112.9,291.6
	c3.8-0.1,7,4.8,4.5,6.9c-0.5,0.4-2.9,0.9-5.2,1.1c-2.4,0.2-5.1,0.4-6,0.6c-1.9,0.3-4.1-0.1-5-1c-1-1,2.2-3.9,5.8-5
	c1.8-0.6,3.3-1.4,3.5-1.8C110.5,291.9,111.7,291.6,112.9,291.6z M65.2,294.8c-0.1,0-0.4,0.3-0.9,0.9c-0.8,0.9-1.4,2-1.4,2.4
	c0,0.7,0.9-0.5,2.1-2.7C65.2,295,65.2,294.8,65.2,294.8z M368.9,300.6c0.1,0,0.3,0,0.3,0.1c0.2,0.2-0.7,1.1-1.9,2.2
	c-1.2,1-3.2,2.8-4.5,4l-2.3,2.1l2.5-3.2C365.2,303.1,367.9,300.8,368.9,300.6L368.9,300.6z M148.6,301.6c1.8,0,3.2,0.1,3.4,0.2
	c0.2,0.2,0.6,0.4,0.9,0.4c1.4,0,5.6,3.7,6.6,5.8c0.6,1.3,1.4,2.8,1.6,3.4c0.6,1.3,1.2,4.2,1.6,7.5c0.3,2.1,0,2.6-1.5,3.5
	c-1,0.6-3.2,1.2-4.9,1.5c-1.7,0.2-4.4,0.7-6.1,1c-4.6,1-10.8,0.7-10.8-0.5c0-0.3,0.9-1.8,2-3.5s1.8-3.2,1.6-3.4
	c-0.4-0.4-0.9,0.3-3.3,4.7c-1.3,2.2-1.5,2.4-3.9,2.1l-2.6-0.3l1.8-2.7c1-1.5,2.9-4.1,4.3-5.8c4.1-5.1,4.5-5.9,1.9-3.4
	c-1.4,1.3-3.8,4.3-5.3,6.6c-2.4,3.7-4,5.2-4,3.9c0-0.7,4.2-6.6,8.3-11.6c2.2-2.7,3.7-4.9,3.3-4.9c-0.8,0-7.1,7.7-10.3,12.5
	c-1.2,1.9-2.4,3.5-2.5,3.7c-0.1,0.2-0.5,0-0.9-0.4c-0.7-0.7,3.1-6.2,9.5-13.8c1.7-2,3.4-4.2,3.7-4.7c1-2-7.1,7.2-10.9,12.4
	c-2.1,2.9-4,4.9-4.1,4.5c-0.2-0.7,6.5-10,11.5-15.8c2.2-2.5,2.3-2.6,7.2-2.7C147.4,301.6,148,301.6,148.6,301.6L148.6,301.6z
	 M371.9,302.9l-5.6,5.4c-3.1,3-6.3,6.3-7,7.4c-1.7,2.4-1.5,2.3,6.9-6.8L371.9,302.9z M138.2,303.7L138.2,303.7
	c0.4,0-1.1,2.4-3.8,5.7v0c-2.3,2.8-4.9,6-5.7,7.1c-1.9,2.5-2,0.8-0.1-1.8c0.8-1.1,1.2-2,0.9-2s-0.1-0.4,0.3-0.8
	c0.5-0.5,1.2-0.8,1.6-0.8s0.9-0.4,1.1-0.9c0.2-0.6,0-0.8-0.4-0.5c-0.5,0.3-0.6,0.1-0.4-0.6c0.2-0.6,0.7-1.1,1-1.1h0.9
	c0.2,0,1.2-1,2.3-2.2C137.2,304.3,138,303.7,138.2,303.7L138.2,303.7z M367.5,310.7c0,0-0.3,0.2-0.8,0.6c-0.7,0.5-1.2,1-1.2,1.2
	c0,0.6,0.6,0.2,1.4-0.9C367.4,311,367.6,310.7,367.5,310.7z M143.1,313.6c-0.7,0.1-5.8,7.5-5.8,8.5c0,0.5,1.4-1.1,3.1-3.6
	C142.1,315.9,143.4,313.7,143.1,313.6C143.2,313.6,143.2,313.6,143.1,313.6L143.1,313.6z M365.5,315.8c-0.1,0-0.2,0.1-0.4,0.2
	c-2.5,1.8-8.4,8.1-8.4,9.1c0,0.4,0.1,0.6,0.2,0.4c0.1-0.2,2.5-2.7,5.2-5.6C364.5,317.4,365.7,315.8,365.5,315.8z M144.5,319.7
	c-0.5,0.1-2.4,3.4-2.4,4.3c0,0.3,0.7-0.5,1.4-1.7C144.3,321.1,144.8,319.9,144.5,319.7C144.6,319.7,144.5,319.7,144.5,319.7
	L144.5,319.7z M368.3,321.2c0,0-0.1,0-0.1,0c-1.4,0.7-4.7,3.6-5.9,5.2c-1.8,2.3-0.1,1.1,3.5-2.3
	C367.4,322.5,368.4,321.3,368.3,321.2z M366.7,325.6c-0.1,0-0.3,0.2-0.8,0.6c-0.6,0.5-1.1,1.2-1.1,1.5c0,1,0.6,0.6,1.4-0.9
	C366.7,326,366.8,325.6,366.7,325.6z"/>
<g id="small_nodes">
	<g>
		<path class="st0" d="M265.5,22.2c-0.4,0-1.1,0.7-1.3,1.8c-0.8,3,2.8,8.8,7.4,12.3c2.2,1.6,4.8,2,5.5,0.8c0.2-0.4-0.5-0.9-1.6-1.1
			c-1.1-0.2-2.5-1.1-3-1.9c-0.5-0.8-1.5-2-2.1-2.6c-1.2-1.2-4.4-7.4-4.4-8.5C266,22.4,265.8,22.2,265.5,22.2z"/>
		<path class="st0" d="M275.6,24.9c-0.4,0-0.7,0.2-1,0.5c-0.7,0.7,1.6,3.7,4.2,5.4c3.8,2.5,4.6,2,1.9-1.5
			C278.3,26.3,276.8,24.9,275.6,24.9z"/>
		<path class="st0" d="M237.1,29.7c-0.5,0-0.6,1.7-0.6,5.3c0,4.7-0.3,6.3-1.3,7.9c-1.5,2.3-3.7,4.4-4.6,4.4c-0.3,0-0.4,0.3-0.2,0.7
			c0.8,1.3,3.5,0.7,5.2-1.2c2.1-2.2,2.4-3.1,3.3-8.7c0.6-3.6,0.5-4.7-0.3-6.4C237.9,30.4,237.4,29.7,237.1,29.7z"/>
		<path class="st0" d="M228.4,40.3c-0.2,0-0.4,0.1-0.7,0.3c-0.5,0.5-1,1.7-1,2.8c0,1.1-0.7,3.1-1.6,4.5c-0.9,1.4-1.8,3.2-2.1,4
			c-1.2,4.2,3.9-1,5.5-5.5C229.5,43.2,229.4,40.3,228.4,40.3L228.4,40.3z"/>
	</g>
	<g>
		<path class="st0" d="M245.3,114.3c-0.9,0,0,2.1,1.8,4c1.2,1.2,2.3,2,2.5,1.9C249.9,119.8,245.8,114.3,245.3,114.3z"/>
		<path class="st0" d="M268.8,137.6c-0.4-0.9-1.2-1.6-1.8-1.6c-0.6,0-1.2-0.8-1.5-2c-0.3-1.6-0.6-2.1-2.7-2.2c-0.7,0-1.5,0-2.6,0.1
			c-2.1,0.1-3.2,0.7-5,2.5c-1.3,1.3-2.3,3-2.3,3.8c0,3.8,0.6,6,1.9,6.9c1.5,1.2,4.1,1.3,4.7,0.3c0.3-0.4,1.3-0.5,2.4-0.3
			c3,0.7,4.6-0.2,6.1-3.2C269.2,139.7,269.3,138.9,268.8,137.6z M262.7,132.6c0.4,0,0.8,0.4,1,1c0.6,1.5,0,3.8-0.8,3.2
			C262,136.2,261.8,132.6,262.7,132.6z M258.9,143.9c-1.1,1.1-1.6,1.1-3.2,0.2c-1.5-0.8-1.5-2-0.2-2c0.9,0,0.9-0.2-0.1-1.7
			c-1.2-1.9-0.8-4.1,0.7-3.5c1.3,0.5,1.9-0.3,1-1.3c-0.8-1-0.3-2.3,1-2.3l0,0c1.6,0,1.8,2.9,0.4,4.2c-1.7,1.6-1.7,2.9,0,4.3
			C259.6,142.8,259.6,143.1,258.9,143.9z M260.6,140.9c-1.6,0.4-2.1,0-2.1-1.7c0-0.9,0.5-1.2,1.7-1.2c1.2,0,1.7,0.4,1.7,1.3
			C261.9,140,261.3,140.7,260.6,140.9z M266.2,140.1c-0.8,0-1,0.4-0.7,1.7c0.2,0.9,0.1,1.7-0.2,1.7s-1,0.1-1.5,0.3
			c-0.5,0.2-1.3,0-1.9-0.3c-0.8-0.5-0.7-0.9,0.8-2.1c1-0.8,1.8-2.1,1.8-2.8c0-0.7,0.2-1.1,0.6-1.1c0.1,0,0.3,0,0.5,0.1
			c0.6,0.2,1.2,0.4,1.4,0.4c0.2,0,0.3,0.5,0.3,1C267.3,139.6,266.8,140.1,266.2,140.1z"/>
		<path class="st0" d="M293.4,138.3c-0.1,0-0.2,0.1-0.4,0.4c-1,1.5-0.8,5.2,0.4,7.5c1.3,2.4,2,2.1,1.3-0.6c-0.3-1-0.6-2.1-0.7-2.4
			c-0.1-0.3-0.2-1.7-0.2-3C293.8,138.9,293.7,138.3,293.4,138.3z"/>
		<path class="st0" d="M240.6,156.3c-0.2,0-0.7,0.6-1.1,1.4c-0.4,0.7-0.6,1.4-0.4,1.4c0.2,0,0.7-0.6,1.1-1.4
			C240.7,156.9,240.8,156.3,240.6,156.3z"/>
		<path class="st0" d="M283.6,157c-0.5-1.1-1.3-2-1.7-2c-0.5,0-0.8-0.6-0.6-1.3c0.4-1.8-1.1-3.2-3.1-3.2c-0.3,0-0.6,0-0.9,0.1
			c-2,0.4-3.4,1.9-3.4,3.7c0,0.6-0.9,1-2.3,1.1c-2.7,0.2-3.6,1.3-3.1,4c0.2,1.1,0.4,2.5,0.4,3.2c0,1.9,1.9,3.3,4.4,3.2
			c1.3,0,2.5,0.1,2.8,0.4c0.2,0.2,1.3,0.4,2.3,0.4c1.9,0,4-2.1,4-4c0-0.5,0.5-1.5,1.1-2.2C284.3,159.2,284.3,158.7,283.6,157z
			 M274,163.3c-3.3,0.9-5.1-0.4-2.9-2c1.3-1,0.9-2.3-0.7-2.3c-1.7,0-0.6-1.7,1.2-1.9c0.2,0,0.4,0,0.5,0c0.1,0,0.3,0,0.4,0
			c0.7,0.1,0.7,0.5,0.5,1.8c-0.2,1.5,0.1,2.2,1.2,3l1.4,1L274,163.3z M275.3,160.5c-1.6-0.4-1.5-1.2,0.3-3c1-1,1.2-1.6,0.7-1.7
			c-1.4-0.5-0.9-2.9,0.7-3.5c0.4-0.2,0.9-0.2,1.2-0.3v0c0.4,0,0.7,0,0.8,0.2c0.6,0.6-0.1,4.1-0.9,4.1c-0.3,0-0.4,0.7-0.2,1.6
			C278.3,159.7,277,160.9,275.3,160.5z M280.5,163.1c-1.2,1.3-4.3,1.8-4.3,0.6c0-0.8,2.7-2.2,4.1-2.3c0.2,0,0.4,0,0.5,0.1
			C281.4,161.8,281.4,162.2,280.5,163.1z M282.1,159c-0.3,1-1.2,0.1-1.2-1.2c0-0.5,0.1-0.7,0.3-0.6c0.1,0,0.3,0.1,0.5,0.4
			C282,157.9,282.3,158.6,282.1,159z"/>
		<path class="st0" d="M301.2,159.4c-0.3,0.2-1.1-0.4-1.7-1.4c-0.8-1.2-2.1-1.7-3.3-1.6v0c-1.6,0.1-3.1,1-3.1,2.7
			c0,0.8-0.5,1.8-1,2.4c-1.1,1.1-1.4,4-0.4,4.6c0.4,0.3,0.4,0.9-0.2,1.8c-0.7,1.2-0.6,1.5,0.5,2.3v0c1.2,0.9,3.6,0.9,5.1,0
			c0.4-0.2,0.8-0.1,1.1,0.3c1.1,1.8,5.1,0.2,5.1-1.9c0-0.8-0.2-0.8-1.2,0.1c-0.7,0.6-1.6,1.1-2.1,1.1c-1.2,0,1.1-2.5,3.3-3.6
			c1-0.5,1.8-1.3,1.9-1.9C305.3,163.1,302,158.9,301.2,159.4z M297.2,162.5c-1.4,1.5-1.8,5.3-0.6,5.3c0.3,0,0.4,0.3,0.2,0.7
			c-0.5,0.9-3.7,0.9-3.7,0c0-0.4,0.3-0.8,0.7-1.1c0.4-0.2,0.7-0.8,0.7-1.2c0-0.4-0.2-0.5-0.4-0.3c-0.7,0.6-2.4-2.1-1.9-3
			c0.3-0.4,1.3-0.5,2.4-0.3c1.5,0.3,2,0.2,2-0.6c0-0.6-0.5-1.3-1.2-1.7c-0.9-0.5-1-0.9-0.4-1.5c0.3-0.3,0.7-0.5,1.1-0.5v0h0
			c0,0,0,0,0,0v0c0.9-0.1,1.9,0.5,2.3,1.5C298.4,160.5,298,161.7,297.2,162.5z M303.1,163.9c-1.2-1.2-1.6-1-2.4,0.9
			c-0.7,1.6-2.8,2.4-2.8,1c0-1.8,1.7-4.1,3-4.1c1.5,0,3.1,1.2,3.1,2.3C303.9,164.4,303.5,164.3,303.1,163.9z"/>
		<path class="st0" d="M258.7,157.9c-0.7-1.1-4-2.3-5.1-1.9c-0.5,0.2-1.6-0.6-2.4-1.7c-0.9-1.3-2.1-2-3-2c-0.7,0-1.3,0.3-1.6,1.1
			c-0.2,0.7-1.5,2.1-2.8,3.3c-2.2,1.9-2.3,2.3-1.6,3.8c0.6,1.3,0.6,1.8-0.2,2.3c-1.5,0.9-0.4,3,2.1,4.1c1.2,0.5,2.7,0.8,3.5,0.5
			c0.7-0.2,2.7-0.4,4.3-0.5c2.5-0.1,3.3-0.5,5.2-2.8C259.1,161.4,259.7,159.5,258.7,157.9z M248.3,153.6c0.7,0,3.1,2.6,2.8,3
			c-0.2,0.1-0.9,0.6-1.6,0.9c-1.2,0.6-1.4,0.5-1.5-1.6C247.8,154.6,248,153.6,248.3,153.6z M248,165.2L248,165.2
			c-0.5,0.8-3.1,0.8-4.3,0c-1.1-0.7-0.4-2.1,1-2.1c1.4,0,1.2-0.6-0.5-2c-1.5-1.2-1.5-1.3-0.2-2.6c0.8-0.9,1.5-1.4,2-1.5v0
			c0.1,0,0.1,0,0.2,0c0.6,0.1,0.8,1.1,0.6,3c-0.3,2.2-0.2,3.1,0.6,3.8C247.9,164.2,248.2,164.9,248,165.2z M250.9,161.7
			c-1,1.6-2.4,1.8-3,0.4c-0.6-1.6,0.2-3,1.7-3C251.5,159,252,160,250.9,161.7z M254.4,164.5c-1.2,0.7-3.3,0.8-2.2,0.1
			c0.4-0.3,1.1-1.1,1.5-1.9c0.4-0.6,0.5-1,0.7-1c0.2,0,0.3,0.3,0.5,0.9C255.2,163.4,255,164.1,254.4,164.5z M254.2,159.9
			c-0.2-0.6-0.3-1.2-0.1-1.4c0.1-0.1,0.3-0.2,0.5-0.2c1,0,2.6,1,2.6,1.7C257.2,161.4,254.7,161.3,254.2,159.9z"/>
	</g>
	<path class="st0" d="M303.4,114c-0.2,0-0.6,0.5-1.5,1.7c-0.9,1.2-1.8,3.1-1.8,4.2l-0.1,2l1.8-2.6c1-1.4,1.8-3.3,1.8-4.2
		C303.6,114.4,303.6,114,303.4,114z M302.6,117c-0.4,0.7-1,1.5-1.4,1.8c-0.4,0.3-0.2-0.3,0.4-1.3c0.8-1.2,1.3-1.8,1.5-1.7
		C303.1,115.7,303,116.2,302.6,117z"/>
	<g>
		<path class="st0" d="M310.2,253c-2,0-5,1.2-5,2c0,0.3,1.8,0.6,4.1,0.5c2.2,0,4.1-0.2,4.1-0.4c0-1.1-1.3-2-2.7-2.1
			C310.5,253,310.4,253,310.2,253L310.2,253z"/>
		<path class="st0" d="M309.3,256.9c-0.7,0-1.3,0.4-1.3,1c0,0.3,1,0.6,2.2,0.6c2,0,2.1-0.1,0.9-1
			C310.5,257.1,309.9,256.9,309.3,256.9z"/>
		<path class="st0" d="M308.9,259.7L308.9,259.7c-0.9,0-1.8,0.7-1.3,1.5c0.5,0.9,3.1,1,3.1,0.2c0-0.3-0.4-0.9-0.9-1.3
			C309.5,259.8,309.2,259.7,308.9,259.7L308.9,259.7z"/>
	</g>
	<g>
		<path class="st0" d="M337.5,227.5c-0.9,0-1.9,0.3-2.9,0.9c-2.2,1.5-1.7,1.9,1,0.9c1.2-0.4,2.3-0.6,2.5-0.5c0.2,0.2-1.8,2.4-4.3,5
			c-2.5,2.6-5.1,5.5-5.8,6.4l-1.2,1.7l0.3-2.7l0.3-2.7l-1,2c-0.5,1.1-1,3.3-1,4.9c0,1.6,0.1,2.9,0.2,2.9c0.1,0,1.1-1.3,2.1-2.9
			c1-1.6,4.1-5.1,6.9-7.8c3.7-3.6,4.9-5.3,4.8-6.4C339.5,228.1,338.6,227.6,337.5,227.5z"/>
		<path class="st0" d="M262.7,236.2c-1.8,0-2.8,3.2-1.3,4.6c0.4,0.4,1.5,0.8,2.2,0.8c1.7,0,4.6-2.5,4.2-3.6
			c-0.4-1.2-1.9-1.4-1.9-0.3c0,1-1.4,1.8-3.1,1.8c-0.7,0-0.8-0.4-0.3-1.7C262.9,237,263,236.2,262.7,236.2z"/>
		<path class="st0" d="M291.4,246c-1.1-5.2-3.7-8.6-5.8-8.6c-0.8,0-1.5,0.5-2.1,1.7c-0.6,1.3-0.4,2.3,1.4,5.7c1.2,2.3,2.1,4.5,2.1,5
			c0,0.5,0.5,1.6,1.1,2.4c1.3,1.9,1.7,1.9,3.2,0.1C292.4,251,292.4,250.7,291.4,246z M290.3,248.9c0,3.2-0.9,3.2-1.9,0
			c-0.5-1.6-1.6-3.7-2.4-4.9c-2.2-2.9-2.5-4.2-1.3-5.1c0.3-0.3,0.6-0.4,0.8-0.4v0c0.5,0,0.9,0.4,1.8,1.3
			C289,241.6,290.3,245.5,290.3,248.9L290.3,248.9z"/>
		<path class="st0" d="M352.3,248.9c-2.3,0-5.6,1-9.5,3c-7.4,3.9-16.8,16.3-14.2,18.9c0.2,0.2,1.8-1,3.6-2.7c1.9-1.8,6-4.5,9.9-6.5
			c3.7-1.9,6.9-3.6,7.1-3.9c0.2-0.3,0.9-0.7,1.7-0.9c2.2-0.7,5.1-3.6,5.1-5C356,249.9,354.6,248.9,352.3,248.9z M349.1,255.8
			c-0.3,0-1.8,0.9-3.5,2.1c-1.7,1.1-4.4,2.7-6.1,3.4c-1.7,0.7-4.4,2.4-6.1,3.7c-1.7,1.3-3.2,2.3-3.4,2.3c-1.6,0,7.6-10.2,11.6-12.7
			c3.5-2.2,7.4-3.6,9.7-3.8c1-0.1,1.8,0.2,2,0.7C353.5,252.6,350.4,255.8,349.1,255.8z"/>
		<path class="st0" d="M239.1,253.2c-1.2,0-2.6,0.5-3.6,1.3c-1.9,1.6-1.3,2.6,2.2,3.4c3.2,0.8,3.3,0.8,3.3,0c0-0.4-0.5-0.9-1-1.1
			c-1.7-0.6-1.1-1.8,0.7-1.4c1.8,0.4,2.1-0.1,0.9-1.4C240.9,253.4,240,253.1,239.1,253.2L239.1,253.2z"/>
		<path class="st0" d="M210.3,256c-1,0-1.8,0.2-2.7,0.5c-2.9,1-3.1,2.1-0.8,3.7c0.9,0.6,1.7,0.9,1.7,0.7c0-0.2,0.4-0.1,0.8,0.2
			c0.5,0.4,2.1,0.9,3.6,1.1c1.5,0.2,3.9,1.2,5.4,2c3.1,1.8,4.4,2.1,4.4,0.9c0-2.1-3.3-4.1-7.8-4.9c-4-0.7-7.1-1.7-6.8-2.3
			c0.6-0.9,7.8,0.5,10.2,1.9c2.6,1.5,3.7,1.8,3.7,0.8c0-1.1-4.3-3.3-8.2-4.1C212.3,256.2,211.2,256,210.3,256z"/>
		<path class="st0" d="M238.2,258.5c-0.7,0-1.4,0.3-1.4,0.7c0,0.4,0.6,0.7,1.4,0.7c0.7,0,1.4-0.3,1.4-0.7
			C239.6,258.8,239,258.5,238.2,258.5z"/>
		<path class="st0" d="M264.7,264c-0.9,0.1-2.8,2.3-2.8,3.5c0,0.7,0.5,1.7,1.2,2.2c1.6,1.2,1.7,1.2,3.8-0.5c1.1-0.9,1.7-2,1.6-2.8
			c-0.3-2-1.5-2.1-2.2-0.3c-0.8,1.7-3,2.5-3,1c0-0.5,0.5-1.4,1-1.8c0.6-0.5,0.9-1,0.7-1.2C264.9,264,264.8,264,264.7,264z"/>
	</g>
	<g>
		<path class="st0" d="M123.9,59.2c-0.7,0-0.8,1.1,0.1,2.5c1.2,1.9,1.5,4.3,0.8,7.2c-0.3,1.5-0.2,2.6,0.3,3.2
			c1.6,1.9,6.7,0.8,6.7-1.5c0-0.8-0.5-0.9-1.9-0.6c-1.8,0.4-1.9,0.3-1.7-1.3c0.3-2.3-1.5-7.4-3.1-8.8
			C124.7,59.4,124.2,59.2,123.9,59.2z"/>
		<path class="st0" d="M137.7,91.3c-0.7,0-1.6,3.4-1.2,4.4c0.7,1.9,1.6,1,1.6-1.7C138,92.5,137.9,91.3,137.7,91.3z"/>
		<path class="st0" d="M160.9,117.8c-1.1,0.1-1.2,0.2-0.4,0.4c1.4,0.4,1.6,2.6,0.2,3.1c-0.5,0.2-1.1-0.1-1.3-0.6
			c-0.2-0.5-0.8-0.9-1.2-0.9c-0.7,0-0.7,0.1,0,0.4c1.3,0.5,1,1.4-0.5,1.8c-1.9,0.5-3.2-1.2-1.6-2.2c1.1-0.7,1-0.7-0.5-0.6
			c-2.2,0.2-1.9,2.1,0.6,4.7c1,1.1,2.1,1.9,2.5,1.9c1.1,0,3-1.7,3-2.6c0-0.4,0.4-1.3,0.8-2C163.6,119.4,162.8,117.7,160.9,117.8
			L160.9,117.8z"/>
		<path class="st0" d="M150.7,148.2c-1.1,0-0.4,1.8,1.5,4.2c1.3,1.6,2.4,2.4,3.1,2.1c1.5-0.6,0.8-2.5-1.1-2.9
			c-0.9-0.2-2-1.1-2.4-1.9C151.5,148.9,151,148.2,150.7,148.2z"/>
		<path class="st0" d="M157.4,148.4c-0.2,0-0.2,0.3,0,0.8c0.2,0.6,0,1.4-0.5,1.7c-0.8,0.5-0.7,0.6,0.2,0.6c1.3,0,1.7-2.3,0.5-3
			C157.6,148.5,157.5,148.4,157.4,148.4z"/>
	</g>
	<g>
		<path class="st0" d="M19.6,36.5c-0.4,0-0.9,0.3-1.1,0.7c-0.2,0.4-0.1,0.7,0.3,0.7c0.4,0,0.9-0.3,1.1-0.7
			C20.1,36.8,20,36.5,19.6,36.5z"/>
		<path class="st0" d="M51.7,38.7c-0.2,0-0.3,0.2-0.3,0.4c0,0.4,0.3,0.7,0.7,0.7c0.4,0,0.7-0.1,0.7-0.3c0-0.2-0.3-0.5-0.7-0.7
			C51.9,38.8,51.8,38.7,51.7,38.7z"/>
	</g>
	<g>
		<path class="st0" d="M102.5,161.8c-0.2,0-0.3,0.5-0.3,1.6c0,1,0.8,2.6,2,3.7c2.5,2.5,3.3,2.5,1.7,0.1c-0.7-1-1.6-2.7-2.2-3.7
			C103.1,162.4,102.7,161.8,102.5,161.8z"/>
		<path class="st0" d="M107.7,162.5c-0.5,0,0,1.4,1.6,3.3c1,1.2,1.9,1.8,2.1,1.4c0.1-0.4-0.7-1.9-1.8-3.2
			C108.7,163,108,162.5,107.7,162.5z"/>
		<path class="st0" d="M81.8,164.4c0,0-0.3,0.2-0.8,0.6c-0.7,0.5-1.2,1-1.2,1.2c0,0.6,0.6,0.2,1.4-0.9
			C81.7,164.7,81.9,164.5,81.8,164.4z"/>
		<path class="st0" d="M79.8,170.2C79.8,170.2,79.8,170.2,79.8,170.2c-0.8,0.5-5.5,8.1-5.5,8.9c0,0.9,0.7-0.1,3.4-4.7
			C79.1,172,80,170.2,79.8,170.2L79.8,170.2z"/>
		<path class="st0" d="M90.7,173c-0.1,0-0.2,0-0.2,0.1c-1,1,1.8,8.8,4.3,12.2c1.2,1.6,2.2,2.7,2.4,2.5c0.2-0.2-0.8-2.3-2.1-4.8
			c-1.3-2.5-2.8-5.9-3.2-7.6C91.5,173.9,91.1,173.1,90.7,173z"/>
		<path class="st0" d="M74,184.3c-0.3,0-0.1,0.2,0.6,0.7c0.6,0.5,1,1.1,0.7,1.4c-0.2,0.2-0.1,0.4,0.3,0.4c0.4,0,1,0.7,1.2,1.5
			c0.3,0.8,0.8,2,1.2,2.5c0.6,0.8,0.8,0.8,1-0.2c0.3-1.7-2-5.3-3.9-5.9C74.5,184.5,74.1,184.3,74,184.3z"/>
		<path class="st0" d="M124.6,185.5c-0.7,0-2.1,1.6-2.1,2.6c0,0.9,0.3,0.7,1.4-0.5c0.7-0.9,1.2-1.8,1-2
			C124.8,185.5,124.7,185.5,124.6,185.5z"/>
		<path class="st0" d="M72.7,190.8c-0.4,0-4.4,7.2-5.1,9.2c-1.1,2.8-0.2,1.8,2.2-2.6C72.2,193.1,73.2,190.8,72.7,190.8z"/>
	</g>
	<g>
		<path class="st0" d="M21.1,326.7c-0.1,0-0.2,0.1-0.4,0.2c-0.3,0.3-0.4,0.5-0.3,1.3c0.1,0.9,0.1,1-0.3,1.1l-0.4,0.1l0.5,0.4
			c0.3,0.2,0.4,0.5,0.4,0.7c-0.1,0.3,0.4,0.8,0.8,0.8c0.1,0,0.2-0.2,0.2-0.5c0-0.5,0.1-0.6,0.5-0.3c0.2,0.1,0.2,0.4,0.2,0.9
			c-0.1,0.7-0.1,0.8,0.2,0.8c0.4,0,0.9-0.5,0.8-0.8c-0.1-0.1,0-0.5,0.2-0.9c0.2-0.4,0.2-0.6,0.1-0.7c-0.1-0.1-0.2-0.6-0.3-1.2
			c0-0.7-0.1-1.1-0.3-1.2c-0.3-0.1-0.6,0.6-0.7,1.4c-0.1,0.8-0.9,0.7-1-0.1c0-0.2,0-0.6-0.1-1c0-0.4-0.1-0.8-0.2-0.9
			C21.2,326.7,21.2,326.7,21.1,326.7L21.1,326.7z"/>
		<path class="st0" d="M19.2,330.6c-0.4-2.6-0.9-3.2-2.7-3.6c-0.2,0-0.6-0.1-1-0.1c-1.2,0-2.8,0.2-3.2,0.4c-0.4,0.2-0.4,0.6,0.2,0.8
			c0.5,0.2,0.7,0.9,0.8,3.2c0.1,1.1,0.1,1.1-0.5,1.3c-0.3,0.1-0.6,0.2-0.7,0.3c-0.1,0.2,0.3,0.5,0.9,0.6c0.3,0,0.5,0.1,0.6,0.2
			c0.1,0.1,0.1,1.4,0.1,2.9c0,2.2,0.1,2.8,0.3,3.1c0.4,0.4,0.9,0.3,0.8-0.2c-0.1-0.7-0.1-6.1,0-6.1c0,0,0.4-0.1,0.8-0.2
			c2-0.3,2.9-0.6,3.4-1.2C19.3,331.7,19.3,331.5,19.2,330.6z M16.5,332c-0.8,0.1-1.5,0.3-1.7,0.3c-0.3,0.1-0.4-0.1-0.5-1.6
			c-0.1-0.7-0.2-1.5-0.3-1.8c-0.2-0.5-0.2-0.7,0-0.8c0.2-0.1,0.5-0.2,1-0.2h0h0c0,0,0,0,0,0c0.5,0,1,0.1,1.6,0.2
			c1,0.2,1.2,0.4,1.5,2.1C18.4,331.6,18.3,331.7,16.5,332z"/>
		<path class="st0" d="M24.3,337c0.4-0.1-0.1-0.7-0.7-0.8c-0.5-0.1-0.7-0.2-0.8-0.6c-0.2-0.7-0.9-1.9-1.5-2.5
			c-0.2-0.2-0.3-0.3-0.5-0.3h0c-0.3,0-0.5,0.3-0.7,1.1c-0.3,1.3-0.6,1.8-0.9,1.8c-0.2,0-0.5,0.2-0.7,0.4c-0.3,0.3-0.3,0.4-0.1,0.6
			c0.1,0.1,0.4,0.2,0.5,0.2c0.2,0,0.2,0.1,0.1,0.2c-0.3,0.4-1.4,2.4-1.4,2.6c0,0.1,0.1,0.3,0.2,0.5c0.3,0.3,0.4,0.3,0.8-0.5
			c0.2-0.4,0.5-0.8,0.6-0.8c0.1-0.1,0.2-0.3,0.2-0.5c0-0.2,0.1-0.4,0.2-0.4c0.1,0,0.2-0.2,0.2-0.4c0-0.5,0.4-0.7,1.3-0.7
			c1.1,0,1.1,0.1,1.1,0.3c0,0.1,0.2,0.4,0.4,0.6s0.4,0.5,0.4,0.6c0,0.2,0.2,0.5,0.3,0.7c0.3,0.4,0.4,0.4,0.7,0.2
			c0.3-0.3,0.3-0.3-0.1-1.1C23.6,337.4,23.7,337.2,24.3,337z M21.9,336.1c-0.1,0-0.4-0.1-0.7-0.1c-0.5-0.1-0.5-0.1-0.4-0.6
			c0.1-0.4,0.2-0.6,0.3-0.6c0.1,0,0.3,0.2,0.5,0.6C21.8,335.8,22,336.1,21.9,336.1z"/>
		<path class="st0" d="M26.6,328.3c0-1.1-0.1-2-0.2-2.1c-0.1-0.1-0.1-0.2,0-0.4c0.1-0.1,0-0.5,0-0.7c-0.1-0.5-0.1-0.5-1.3-0.3
			c-2,0.2-5.2,0.1-10.8-0.4c-0.6-0.1-1.4-0.1-1.9-0.2c-0.5,0-1.2-0.1-1.6-0.2c-0.2,0-0.4-0.1-0.5-0.1l0,0c-0.2,0-0.4,0.1-0.6,0.2
			c-0.3,0.3-0.4,0.5-0.3,4.6c0,2.4,0.1,4.5,0.1,4.7c0.2,0.7,0.4,5.4,0.5,8.5c0,0.4,0.9,0.7,2.5,0.8c0.6,0.1,1.2,0.1,1.3,0.2
			c0.1,0,0.5,0.1,0.9,0.2c0.4,0.1,1,0.3,1.3,0.3c0.9,0.1,8-0.1,8-0.2c0,0,0.3-0.1,0.7-0.1c0.4,0,0.8-0.2,0.9-0.3s0.4-0.2,0.6-0.2
			s0.5-0.1,0.5-0.3c0.3-0.7,0.1-8.8-0.2-11.1C26.7,330.6,26.6,329.4,26.6,328.3z M25.6,341.3c-0.3,0-0.5,0.1-0.6,0.3
			s-0.4,0.3-0.7,0.4c-0.3,0-1,0.1-1.6,0.2c-2.8,0.3-6.8,0.1-8-0.3c-0.2-0.1-0.7-0.2-1.3-0.2c-0.6,0-1.3-0.2-1.7-0.2
			c-0.7-0.2-0.7,0.2-0.8-3.6c-0.1-2.5-0.2-4-0.4-5c-0.1-0.9-0.1-7.6,0-7.8c0-0.1,0.1-0.1,0.2-0.1h0c0.1,0,0.2,0,0.4,0.1
			c0.2,0.1,0.6,0.2,0.8,0.2c0.4,0,2.8,0.2,3.6,0.3c1.4,0.2,3.3,0.3,6.4,0.3c1.9,0,3.5,0.1,3.6,0.1c0.1,0.1,0.2,1.5,0.2,3.2
			s0.2,3.2,0.2,3.4c0.1,0.4,0.2,1.2,0.2,4.4C26.2,341.2,26.2,341.3,25.6,341.3z"/>
	</g>
	<path class="st0" d="M177.3,256.5c-0.7-0.4-1.2-0.6-1.5-0.6h0c-0.5,0-0.5,0.4-0.3,1.6c0.5,2-1.2,3.8-2.4,2.6
		c-0.6-0.6-0.5-1.1,0.2-1.9c0.9-1.1,0.8-1.1-0.6-0.3c-1.7,0.9-2,2.7-0.7,4c1.2,1.2,3.8,1,5.3-0.5C179,259.5,179,257.4,177.3,256.5z"
		/>
	<path class="st0" d="M36.2,312.1c-1.7-1.6-4.9-2.1-8.1-1.2l-2,0.5l1.2-1.8c0.6-1,1.7-2.4,2.3-3.1c1.5-1.8,5.5-9.4,5.5-10.5
		c0-0.6-0.3-0.8-0.7-0.8c-2,0-7.6,4.9-11.7,10.7c-2,2.8-2.2,2.9-2.5,1.4c-0.9-3.4-1.5-4.4-3.8-6.2c-2.7-2-4.8-2.4-5.3-0.9
		c-0.2,0.5,0.6,2.9,1.7,5.3c2.6,5.4,2.6,5.9,0.2,3.7c-2.7-2.5-7.6-5.4-8.3-4.9C3.4,305,4,307,6.3,309.7c1.3,1.5,2.4,3,2.4,3.4
		c0,0.4-1.8,0.7-4.2,0.7c-3.8,0-4.3,0.1-4.4,1.5c-0.4,2.5,2.5,3.8,8.7,3.8c3,0,5.6,0.3,5.8,0.6c0.6,0.9,1.4,0.7,2.4-0.5
		c0.8-1,0.7-1.2-0.4-1.9c-1.4-0.8-4.5-3.8-7-6.8c-2.3-2.8-2.6-3.3-1.1-2.5c1.6,0.8,4.4,3.9,6,6.5c1.1,1.7,1.3,1.8,1.6,0.8
		c0.4-1,0.6-1,1.4-0.2c1.7,1.7,4.3,2.5,5.9,1.9c3.2-1.2,5.3-1.5,9.8-1.4C38.3,315.4,39,314.7,36.2,312.1z M17.8,312
		c-0.3,0-4.4-8.9-4.4-9.6c0-0.2,0.2-0.2,0.4-0.2c0.2,0,0.6,0.1,1,0.3c1.7,0.9,3.3,4.7,3.2,7.4C18,311.1,17.9,312,17.8,312z
		 M23.4,311.3c-2.7,3.9-3.4,3.1-1.1-1.1c2.3-4.1,7.8-10.5,9.1-10.7v0c0.1,0,0.2,0,0.2,0c0.3,0.3-4.5,7.3-5.3,7.8
		C26.1,307.5,24.7,309.3,23.4,311.3z"/>
	<g>
		<path class="st0" d="M169.3,291.2c-0.4,0-0.8,0.1-1,0.4c-0.6,0.6,0,0.7,1.9,0.7c2.6-0.1,2.7-0.1,0.8-0.8
			C170.3,291.3,169.7,291.2,169.3,291.2z"/>
		<path class="st0" d="M176.4,291.9c-1.1,0.1-0.9,1,1.1,2c3.5,1.8,3.2,2.8-0.7,2.4c-2.2-0.3-2.7-0.2-1.5,0.2c5.4,1.8,8.5-1.9,3.4-4
			C177.7,292,176.9,291.8,176.4,291.9z"/>
		<path class="st0" d="M167.9,295.2c-0.9,0-1.7,0-2.3,0.1v0c-1.2,0.1-0.1,0.3,2.6,0.3c2.6,0,3.6-0.1,2.2-0.3
			C169.6,295.2,168.7,295.2,167.9,295.2L167.9,295.2z"/>
	</g>
	<g>
		<path class="st0" d="M204.4,301.9c-1.7,0-0.4,3.2,2.1,5.2c3,2.4,4.9,3,3,1c-1.3-1.4-0.8-2.4,0.9-1.5c0.6,0.3,1.5,0.4,2,0.1
			c1.1-0.7-0.3-1.9-2.6-2.2c-1.2-0.2-1.6-0.6-1.5-1.4c0.2-1.4-1.2-1.6-2.4-0.4c-0.6,0.6-0.8,0.6-0.8,0
			C205,302.2,204.7,301.9,204.4,301.9L204.4,301.9z"/>
		<path class="st0" d="M204.9,306.6c-0.2,0-0.9,0.6-1.6,1.4c-0.7,0.7-1.1,1.4-0.9,1.4c0.2,0,0.9-0.6,1.6-1.4
			C204.7,307.2,205.1,306.6,204.9,306.6z"/>
	</g>
	<g>
		<path class="st0" d="M265.7,295.3c0,0-0.1,0-0.1,0c-0.1,0-0.4,0.1-0.6,0.2c-3.4,1.2-4,3.5-1.5,5.2c0.9,0.6,2.8,1,4.6,1l3,0l-3-0.6
			c-1.7-0.3-3.5-1-4-1.6c-0.9-0.9-0.8-1.2,0.6-2.8C265.6,295.8,265.9,295.4,265.7,295.3L265.7,295.3z"/>
		<path class="st0" d="M250.4,295.8c-0.4,0-1.2,0.7-1.7,1.7c-1.3,2-0.8,4.3,1.3,5.1c2.2,0.9,2.2,0.8,0.5-1c-1.5-1.6-1.5-1.8-0.5-3.4
			C251.3,296.2,251.3,295.8,250.4,295.8z"/>
		<path class="st0" d="M291.7,295.8c-0.4,0-0.3,0.6,0.2,1.4c0.5,0.7,1.1,1.4,1.4,1.4c0.8,0,0.6,2.4-0.3,3.3
			c-0.6,0.6-0.6,0.8,0.2,0.8c1.2,0,2.6-1.3,2.6-2.5C295.8,299.1,292.6,295.8,291.7,295.8z"/>
		<path class="st0" d="M273.4,296.4c-0.1,0-0.4,0-0.9,0.1c-2.9,0.5-1.7,3.2,1.7,3.9h0c4,0.8,5.7,0.8,7.1-0.3c1.2-0.9,0.9-1-2.8-0.6
			c-2.7,0.3-4.7,0.1-5.7-0.4c-1.6-0.8-1.6-0.9-0.3-1.8C273.2,296.7,273.6,296.5,273.4,296.4L273.4,296.4z"/>
		<path class="st0" d="M283.6,296.5c-0.1,0,0,0.3,0.2,0.9c0.3,0.7,0.5,1.5,0.5,1.9c0,0.3,0.3,0.6,0.7,0.6c1.1,0,0.8-1.8-0.5-2.8
			C284,296.6,283.7,296.4,283.6,296.5z"/>
		<path class="st0" d="M233,296.5c-1.3,0-3.6,2.2-3.6,3.5c0,1.1,1.3,0.5,1.7-0.7c0.2-0.7,1.1-1.6,1.9-2l1.5-0.7L233,296.5z"/>
		<path class="st0" d="M299.3,297.8c-0.8,0-0.8,0.2,0.2,1.3c0.8,0.9,1.1,1.9,0.8,3c-0.6,2.2,0.7,2.3,1.7,0c0.6-1.4,0.6-1.9-0.5-3
			C300.8,298.4,299.8,297.8,299.3,297.8L299.3,297.8z"/>
	</g>
	<g>
		<path class="st0" d="M344.3,298.1c-0.3,0.1-0.9,0.7-1.9,1.9c-2.7,3.2-4.6,4.2-10.4,5.2c-4.7,0.8-10.5,3.5-12.7,6
			c-1.1,1.2-1.1,1.3,0,2.3c0.7,0.6,1.8,1.2,2.5,1.4c3.1,0.8,3.8,0.3,1-0.6c-1.7-0.6-3.3-1.3-3.6-1.6c-1.4-1.3,8.8-6.3,14.8-7.1
			c4.2-0.6,7.9-2.6,9.4-5.1C344.3,299,344.6,298.2,344.3,298.1C344.4,298.1,344.4,298.1,344.3,298.1L344.3,298.1z"/>
		<path class="st0" d="M347.3,299.3c-0.8,0-1.3,0.2-1.6,0.5c-0.6,0.6-0.4,0.8,0.6,0.8c0.7,0,2.3,0.6,3.5,1.3c3.1,1.9,3.1,5.2-0.1,8
			c-2.6,2.3-4.8,3.1-11.7,4.3c-2.7,0.5-4.9,1.1-4.9,1.4c0,0.3,0.4,0.4,0.8,0.3c0.5-0.1,2.5-0.4,4.6-0.6c8.9-0.9,13.9-4,15.3-9.4
			c0.7-2.6-1.8-5.7-4.8-6.3C348.3,299.3,347.8,299.3,347.3,299.3L347.3,299.3z"/>
		<path class="st0" d="M330.2,315.5c-0.5,0-1,0-1.4,0.1v0c-0.8,0.2-0.3,0.3,1.2,0.3c1.5,0,2.2-0.1,1.5-0.3
			C331.2,315.5,330.7,315.5,330.2,315.5L330.2,315.5z"/>
	</g>
	<g>
		<path class="st0" d="M326.3,279.5c-0.3,0-0.7,0.2-1.3,0.8c-1.3,1.3-0.9,3.7,0.9,5.1c2,1.6,4.7,1.3,6.1-0.7c1-1.4,0.7-3.2-0.6-4.1
			c-1.3-0.9-1.7-0.6-1.5,1.3c0.1,1.6-0.2,1.9-1.7,2.1c-2.2,0.3-3.2-1.4-2-3.4C326.6,280,326.6,279.6,326.3,279.5z"/>
		<path class="st0" d="M352.8,281.8c-0.3,0-0.7,0.3-1.2,0.7c-1.3,1.3-1.3,1.3-2.6,0c-0.9-0.9-1.1-0.9-1.1-0.1c0,0.5,0.2,1.2,0.5,1.4
			c0.9,0.9,4.3,0.5,4.7-0.6C353.5,282.2,353.3,281.7,352.8,281.8z"/>
		<path class="st0" d="M359,287.8c-1.7,0-2.3,0.8-0.8,1.4c1.2,0.5,2.7,0.2,3-0.6c0.1-0.4-0.7-0.7-1.8-0.8
			C359.3,287.8,359.2,287.8,359,287.8L359,287.8z"/>
	</g>
	<g>
		<path class="st0" d="M48.3,53.8c-1.6,1.1-1.7,1-1.8-0.7c0-1-0.2-2.1-0.3-2.4c-0.1-0.4-0.2-1.6-0.3-2.7c-0.1-2.2-1.6-4.1-3.4-4.1
			c-0.6,0-2,1.3-3,2.8c-1,1.6-1.8,2.4-1.8,1.8c0-1.6-4-6-5.4-6c-0.7,0-1.5-0.3-1.7-0.7c-0.3-0.5-1.1-0.7-2.1-0.7
			c-1.2,0-2.6,0.4-3.3,1.1c-1.8,1.8-2.2,3.2-2.3,7.1c0,3.6,0.1,3.8,3.6,7.2c3.2,3.1,3.5,3.5,2,3.3c-0.9-0.1-2.1-0.5-2.6-0.9
			c-1.3-1.1-3.4-1.3-3.7-0.4c-0.2,0.5,0.5,1,1.5,1.3c1,0.2,1.7,0.9,1.7,1.4c0,1.9,4.9,3.6,10.2,3.6c2.8,0,5.9,0.3,6.9,0.7
			c1,0.4,1.9,0.6,1.9,0.4c0-0.2,0.5,0,1.2,0.3c0.7,0.4,2.3,0.7,3.6,0.7c2.4,0,2-0.4-1.6-1.6c-1.2-0.4-1.1-0.6,0.8-1.9
			c2.9-2.2,7.3-6.7,7.8-8.1C57.2,52.8,51.4,51.8,48.3,53.8z M42.7,45.5L42.7,45.5c0,0,0.1,0,0.1,0c1,0.3,1.8,4.3,1.6,8.1
			c-0.1,2.6-0.5,3.5-1.3,3.7c-1.5,0.3-3.3-2.7-3.3-5.7C39.8,49.1,41.6,45.4,42.7,45.5z M47.5,61.2c-2.6,1.7-3.4,1.9-7.6,1.1
			c-3.2-0.6-13.4-8.9-13.6-11.1c0-0.5-0.2-1.7-0.4-2.8c-0.2-1.1,0.1-2.6,0.8-3.6c0.6-1,1.1-1.4,2-1.3c0.3,0,0.6,0.1,1,0.1
			c1,0.2,2.6,1.1,3.5,1.9c1.6,1.4,4.8,7.8,4.8,9.5c0,1.3,3.3,5.1,4.5,5.1c0.5,0,1-0.3,1-0.6c0-0.8,5.3-2.3,6.1-1.8
			C50.5,58.5,50,59.4,47.5,61.2z M53.9,54.9c-0.2,0.5-1.3,0.8-2.4,0.8c-1.9,0-2-0.1-1-0.8c0.6-0.5,1.7-0.8,2.4-0.8
			C53.6,54.1,54.1,54.4,53.9,54.9z"/>
		<path class="st0" d="M32.2,62.2L32.2,62.2c0.8,0,1.7,0.3,1.9,0.6c0.5,0.8-0.2,0.8-2,0C30.8,62.3,30.8,62.3,32.2,62.2L32.2,62.2z"
			/>
	</g>
	<g>
		<path class="st0" d="M87.4,331.8c-0.8-4.3-3.5-9.2-6.7-12.2c-3.6-3.3-6.4-5.5-6.9-5.5c-0.3,0-0.9-0.5-1.4-1c-0.5-0.7-1.9-1-3.8-1
			v0c-4-0.1-10.3,1.1-14.5,3.2c-3.2,1.6-10.4,8-13.4,11.9c-1.7,2.2-4.2,7.5-4.2,8.8c0,2.2,1.4,1,3.6-3c1.1-2.1,3.6-5.5,5.4-7.4
			c3.9-4.2,3.5-3.1-0.6,1.8c-2.7,3.2-4.4,5.8-4.4,6.8c0,0.2,1.2-1.2,2.7-3.2C51.9,319.3,56,316,62.5,315c5.7-0.8,6.7-0.7,9.5,1.3
			c1.5,1,3.6,2.5,4.8,3.3c1.1,0.8,2.7,2.4,3.4,3.5c2.9,4.6,4.3,7.4,4.3,8.5c0,0.6,0.4,1.7,0.9,2.4c0.8,1.2,0.7,1.6-0.8,3.4
			c-2.3,2.6-6.3,4.2-12.1,4.8c-2.5,0.2-4.7,0.5-4.8,0.7c-0.2,0.1-0.7-0.1-1.2-0.5c-0.6-0.5-0.9-0.5-0.9-0.1c0,0.4-0.6,0.8-1.4,1
			c-1.7,0.4-1.7,0.1,0-2.9l1.4-2.4l-1.7,1.9c-0.9,1-1.7,2.3-1.7,2.8c0,1.1-11.8,2.2-14.5,1.3l-1.8-0.6l5.8-7.2
			c3.2-4,5.8-7.4,5.8-7.8c0-0.7-2.1,1.7-7.7,8.7c-2.6,3.3-4.6,5.2-5.4,5.2c-1.5,0-1.9,0.5,6.2-9c3.1-3.7,5.5-6.8,5.3-7
			c-0.2-0.2-1.2,0.7-2.2,1.9c-1,1.3-3,3.5-4.3,5c-1.3,1.5-3.5,4.1-4.8,5.9c-1.4,1.8-2.7,2.9-3.1,2.7c-0.8-0.5,5.8-9.7,11.8-16.5
			c1.8-2,3.3-4.4,3.4-5.3c0.2-1.3-1-0.4-5.4,4.1c-5.8,6-11.7,13.3-11.2,13.9c0.2,0.2,1.8-1.5,3.5-3.8s3.4-3.9,3.6-3.7
			c0.2,0.2-0.8,1.8-2.3,3.6c-1.5,1.8-3.3,4.1-3.9,5.1c-0.8,1.3-1.6,1.8-2.5,1.6c-1.6-0.4-1.7,1.4-0.1,2.1c0.7,0.3,3.3,1.1,5.9,1.9
			c5.5,1.7,9.1,1.9,16,0.9c2.7-0.4,6.3-0.8,8-0.9c9.9-0.9,15.5-3,18.2-6.9C87.9,335.9,88,335.5,87.4,331.8z M50.8,325.9l3.5-3.4
			l-3,3.4c-1.6,1.9-3.2,3.7-3.5,4c-0.4,0.4-0.6,0.4-0.6,0C47.3,329.5,48.9,327.7,50.8,325.9z"/>
		<path class="st0" d="M57.9,331.9c-0.9,0.1-8.6,9.4-8.6,10.4c0,0.5,2-1.6,4.5-4.6C56.2,334.7,58.1,332.1,57.9,331.9
			C57.9,331.9,57.9,331.9,57.9,331.9L57.9,331.9z"/>
		<path class="st0" d="M58.9,334.3c-0.3,0-0.9,0.6-1.6,1.4c-3.3,4.1-5.3,7-5.3,7.6c0,0.4,1.6-1.4,3.7-4
			C57.7,336.8,59.2,334.6,58.9,334.3C59,334.4,59,334.3,58.9,334.3L58.9,334.3z"/>
		<path class="st0" d="M61.4,335.8c-0.1,0-0.5,0.2-1,0.7c-1.6,1.3-5,6.1-4.9,7c0,0.4,0.4,0.2,0.8-0.5c0.4-0.7,1.8-2.5,3-4
			C61,336.9,61.7,335.8,61.4,335.8z"/>
		<path class="st0" d="M63.4,337.3c-0.3,0-1,0.7-1.9,1.8c-1.1,1.3-2,2.6-2,3c0,0.4,0.9-0.4,2-1.7C62.6,339.1,63.5,337.8,63.4,337.3
			C63.5,337.3,63.5,337.3,63.4,337.3z"/>
	</g>
</g>
</svg>
