<?xml version="1.0" encoding="utf-8"?>
<!-- Generator: Adobe Illustrator 24.2.0, SVG Export Plug-In . SVG Version: 6.00 Build 0)  -->
<svg version="1.1" id="bird" xmlns="http://www.w3.org/2000/svg" xmlns:xlink="http://www.w3.org/1999/xlink" x="0px" y="0px"
	 viewBox="0 0 287.1 451.6" style="enable-background:new 0 0 287.1 451.6;" xml:space="preserve">
<style type="text/css">
	.st0{fill:#1E1E1E;}
</style>
<path id="main_path" class="st0" d="M190.8,97.6c-0.3,0-0.3,0.3-0.1,1c1.6,5.5,5.8,10.1,13.2,14.2c7.6,4.3,14.3,11.2,15.1,15.7
	c0.9,4.9-0.4,13.1-2.9,18.4c-2.2,4.6-7.9,12.6-10.6,14.8c-0.8,0.7-2.2,2.3-3.1,3.7c-1.7,2.7-13.1,10.6-18.1,12.7
	c-1.7,0.7-3.1,1.8-3.1,2.3c0,0.6-0.5,0.7-1.3,0.1c-1.5-1.1-2.8-1.1-4.6,0c-1.3,0.8-1.1,8.1,0.7,21.2c0.8,5.8,0.7,8.7-0.3,13.7
	c-2.4,11.7-4.1,17.4-5.3,17.8c-0.7,0.3-1.4,1.2-1.4,2c0,0.8-0.9,2.4-2,3.6c-1.1,1.2-2,2.8-2,3.5c0,1.3-3.5,6.4-9.8,14.2
	c-3.2,4-11.3,11.9-16.4,15.9c-2,1.6-4.2,3.4-5,4.1c-3.6,3.2-11,8.3-11.9,8.3c-0.6,0-1.6,0.8-2.3,1.8c-0.7,1-3.9,3.5-7,5.6
	c-3.1,2.1-6.7,4.7-7.9,5.7c-1.2,1-5.2,3.8-8.9,6.2c-3.7,2.4-6.9,4.6-7.2,4.9c-0.3,0.3-3.7,3.2-7.6,6.4
	c-23.4,19.4-37.6,34.3-48.8,50.9c-11.6,17.3-10.6,17.8,1.7,0.8c4.9-6.7,11.8-15.1,15.4-18.6c12.3-11.8,22.7-20.6,25.1-21.2
	c3.3-0.8,5.1,1.9,5.2,7.7c0,2.5,0.4,6.4,0.9,8.6c0.7,3.1,0.6,4.2-0.5,5c-0.8,0.6-1.5,2.2-1.5,3.6c0,1.4,0,10.4,0,20.1
	c0,9.7-0.2,21.5-0.4,26.2c-0.2,4.7-0.5,11.5-0.6,15c-0.2,7.8-2.8,12.1-11.5,19.7c-7.4,6.5-11.1,8.3-13.4,6.7c-3.1-2.2-10.7-5.4-14-6
	c-3.3-0.6-5,0-16.4,5.7c-3,1.5-7.2,3.3-9.3,4c-4.7,1.6-5.5,2.7-3.2,5.2c2.5,2.7,9,2.5,14.9-0.5c4-2,4.5-2.1,3-0.5
	c-0.9,1-1.3,1.9-0.8,1.9c1.4,0,6.4-5.4,6.4-6.8c0-0.7,0.4-1.2,0.9-1.2s1.2-0.9,1.5-1.9c0.6-1.8,2.7-2.3,4.2-0.8
	c0.4,0.4,1.6,0.7,2.6,0.7c2,0,8.1,3,8.6,4.3c0.2,0.4,1,0.8,1.8,0.8c0.8,0,3.1,0.8,5.2,1.8c2.1,1,5.5,1.9,7.8,2.1
	c3.8,0.2,4.3-0.1,7.8-4.8c4-5.4,5.1-8.4,2.1-6c-1.5,1.2-1.6,1.2-0.9-0.1c0.5-0.8,1.5-2.3,2.3-3.2c0.8-0.9,1.2-2.2,0.8-2.8
	c-0.6-1,3.3-9.1,4.4-9.1c0.3,0,4.3,3.6,8.9,8.1l8.3,8.1l-3.8,3.5c-2.1,1.9-5,3.8-6.6,4.1c-3.2,0.7-4,1.7-3.3,3.7
	c0.9,2.4,9.6,1.6,13.6-1.3c2.1-1.5,2.9-1.8,2.1-0.7c-0.8,0.9-0.9,1.7-0.4,1.7c1.7,0,3.3-2.7,2.7-4.4c-0.9-2.3,1.4-2.1,11.1,0.8
	c6,1.8,9,2.3,11.6,1.7l3.5-0.8l-4.3-0.8c-3.1-0.5-4.6-1.4-5.2-2.9c-0.7-1.7-0.9-1.8-0.9-0.4c-0.1,1.8-1.2,2.3-2.4,1.1
	c-0.4-0.4,0.3-1.8,1.6-3.2c1.6-1.8,1.8-2.3,0.6-1.9c-1.3,0.4-1.5,0.1-1.1-1.4c0.6-2.2,2.3-2,8.6,1.2c3.9,1.9,18.4,6,21.5,6
	c1,0,3-1.5,4.5-3.2c2.6-3.1,2.9-3.2,5.6-1.9c1.6,0.7,4,1.5,5.4,1.8c1.4,0.3,4.4,1.1,6.8,1.9c4.3,1.5,7.5,2.1,24.2,5
	c9.4,1.6,14.6,1.4,11.1-0.6c-0.9-0.5-3.8-1.2-6.5-1.5c-6.8-0.8-18.1-3.2-23.4-5.1c-2.5-0.8-5.7-1.7-7.1-1.9
	c-5.5-0.8-9.2-1.9-9.2-2.7c0-2-9.4-0.9-13.7,1.7c-4.1,2.4-4.6,2.5-7.8,1.1c-1.9-0.8-3.7-1.2-4-0.9c-0.3,0.3-1.1,0.1-1.8-0.5
	s-4.4-2.1-8.1-3.3l-6.8-2.3l-5.3,3.7c-6.1,4.2-7.1,4.4-8.9,1.9c-0.7-1-2.5-2.6-4-3.5c-1.5-0.9-5.6-4.7-9.1-8.3
	c-3.5-3.6-7.2-6.6-8.3-6.6c-1.8,0-1.9-0.6-1.3-9.3c0.4-5.1,0.9-19.1,1.3-31c0.6-20,0.8-21.8,2.6-23.2c1.6-1.3,1.9-2.3,1.3-4.8
	c-0.4-1.7-1.3-3.2-2.1-3.2c-1.1,0-1.1-0.9,0.1-5.1c0.9-3.1,1.4-8.1,1.2-12.6c-0.3-7.3-0.2-7.6,3-10.5c1.8-1.7,3.2-2.7,3.2-2.4
	c0,0.9,2.2-0.6,7.4-4.9c4.8-4,18.5-13.7,19.4-13.7c0.7,0,8.8-5.2,10-6.5c0.6-0.6,2.1-1.7,3.4-2.4c2.2-1.2,2.6-1,6,3
	c2,2.4,5.3,5.9,7.4,7.9c6.9,6.6,7.7,20,1.5,26.4c-7.1,7.3-16.7,9.1-23.7,4.4c-4.7-3.1-5.6-5.7-4.8-13.3c0.9-9,7.6-15.5,15.3-14.9
	c1.7,0.1,3.6,0.3,4.3,0.3c0.7,0,1.3,0.7,1.3,1.4c0,0.7,1.3,2.5,3,4c1.6,1.5,3.7,4,4.5,5.7c1.4,2.7,1.4,3.4-0.1,7.1
	c-1.6,3.9-5.9,8.1-8.5,8.1c-1,0-1-0.3,0-1.5c1.1-1.3,0.8-1.4-2-0.4c-2.6,0.9-3.9,0.8-6.7-0.5c-5.5-2.6-6.2-7.5-2.3-14.9
	c1.2-2.2,1.1-2.3-0.4-1c-0.9,0.8-2.2,3-2.8,5.1c-1.5,5.1,0.6,10.2,5.2,12.5c3.2,1.6,3.2,1.7,0.9,1.7c-3.8,0-7-3-8.5-8
	c-1.2-3.8-1.4-4-1.5-1.7c-0.2,7.3,6.1,12.5,13.9,11.4c14.1-1.9,20.8-17.8,10.8-25.3c-1.4-1.1-2.6-2.7-2.6-3.6c0-2.2-1.8-3.5-5.9-4.4
	c-5.3-1.1-11.7,1.2-15.8,5.7c-5.9,6.5-7.4,13.2-5,21.7c4.2,14.4,24.5,15.7,35.4,2.2c7.2-8.9,5.1-25.4-4.2-32.8
	c-1.9-1.5-3.5-3.3-3.5-4c0-0.7-0.9-1.5-2-1.8c-1.1-0.4-2-1.1-2-1.6c0-0.5-0.8-0.9-1.7-0.9c-1.3,0-1-0.6,1.2-2.3
	c1.6-1.2,3.7-3.1,4.7-4c1-1,2.3-1.8,2.8-1.8s1-0.5,1-1c0-0.6,0.5-1,1.1-1c3.7,0,30.2-25.3,32-30.5c0.2-0.7,0.7-1.4,1.1-1.7
	c3.2-2.2,9-22.3,8.4-29.2c-0.2-1.9-0.4-5.1-0.4-7c-0.3-5.9-2.2-15.1-3.1-15.1c-0.5,0-0.9-0.9-0.9-2.1c0-1.1-0.7-3.4-1.6-5.1
	c-1.5-2.9-1.5-3,0.3-2.8c2.4,0.3,6.6-1.4,6.3-2.6c-0.1-0.5,1.5-1.9,3.5-3c11-6.2,24.6-23,27.5-34.1c4.2-16.1-0.8-27-15.9-34.8
	c-3.2-1.7-7.7-5.3-10.4-8.3C192.5,98.9,191.3,97.7,190.8,97.6z M179.7,101c-0.3-0.1-0.6,1.2-0.6,3.6c0,4.3,2.5,9.2,7.2,14.2
	c4.2,4.5,6.1,10.1,5.4,16.4c-0.3,3.1-1,6.7-1.5,8c-2.2,5.8-10.4,12.6-22.6,18.7c-3.9,1.9-5.3,2.2-6.5,1.3c-5.7-4-8.6-4.6-23.3-4.6
	c-13.9,0-15.1,0.2-24.6,3.4c-9.1,3.1-21.8,9.9-30,16.1c-9,6.8-25.8,25.1-32.4,35.2c-3.8,5.8-9.3,14.4-12.3,19
	c-3,4.7-5.5,9.1-5.5,9.8c0,0.7-0.4,1.4-0.9,1.4c-1.2,0-8.1,14.3-14.1,29.2C7.3,300,3,315,1.4,331.6c-0.4,3.8-0.9,7.7-1.1,8.6
	c-0.4,1.4-0.4,1.4,0.5,0.1c0.5-0.8,1.3-4,1.6-7c2.2-17.3,8.2-36.6,19.8-63.7c3.3-7.6,6-14.1,6-14.3c0-0.3,1.6-2.9,3.5-6
	c1.9-3,3.5-5.7,3.5-6c0-0.7,5.2-8.9,14.6-23.2c8.3-12.7,23.3-27.9,35.8-36.4c9.7-6.6,25.2-14.8,32.9-17.4c6.9-2.3,23.8-3.1,25.7-1.2
	c0.6,0.6,2,1.1,3.1,1.1c2.7,0,8.7,2.2,8.7,3.2c0,0.4,0.7,0.8,1.5,0.8s1.5,0.5,1.5,1c0,1.4,4,2.8,6.3,2.2c1-0.3,1.8-1.4,1.8-2.7
	c0-1.7,1.7-3.1,7.6-6.2c9.2-4.8,13.2-8.9,17-17.5c5.3-11.8,3.9-21.3-4.4-31.8c-3.6-4.6-6-8.8-6.6-11.8
	C180.3,101.8,180,101,179.7,101z M155.8,193.6c0,0-0.1,0-0.1,0c-0.7,0.2-1,1.1-0.8,1.8c3.1,10.5,3.9,15.9,3.6,24
	c-0.2,4.9-0.8,9.9-1.4,11c-0.6,1.1-1.1,2.9-1.1,4c0,1.1-0.6,2.6-1.3,3.3c-0.7,0.7-2.6,3.1-4.2,5.4c-1.6,2.2-5.9,6.7-9.5,10.1
	c-3.6,3.3-9.7,9.1-13.6,12.9l-7.1,6.9l6.3-3.4c5.9-3.1,10.8-6.7,20.7-15.2c4.2-3.6,11.8-13.1,11.8-14.9c0-0.6,0.7-2.1,1.5-3.4
	c2.5-3.8,3.7-14.9,2.5-21.7c-0.5-2.5-1.1-6.3-1.4-8.4C160.8,200.9,157.3,193.5,155.8,193.6z"/>
<g id="small_nodes">
	<g>
		<path class="st0" d="M207.3,0c-1.4,0-1.3,5.2,0.1,8.7l1.1,2.8l1-3.5C210.5,4.5,209.3,0,207.3,0z"/>
		<path class="st0" d="M179.5,11.5c-0.2,0-0.3,0.2-0.3,0.6c0,0.9,0.9,2.6,2,3.8c3.8,4.1,4.3,1.8,0.5-2.5
			C180.6,12.2,179.9,11.6,179.5,11.5z"/>
		<path class="st0" d="M230.8,15.2c-1.2-0.1-5.4,4.1-4.8,5c0.3,0.4,1.1,0.6,1.8,0.3c1.6-0.6,4-4.5,3.3-5.2
			C231,15.3,230.9,15.3,230.8,15.2z"/>
		<path class="st0" d="M175.4,20.3c-0.2,0-0.3,0.1-0.3,0.4c0,0.6,0.3,1.3,0.7,1.7c0.4,0.4,0.9,0.4,1.2,0.1c0.3-0.3,0-1.1-0.7-1.7
			C175.9,20.6,175.6,20.4,175.4,20.3z"/>
		<path class="st0" d="M240.9,26.3c-0.3,0-0.7,0.1-1.3,0.1c-1.3,0.2-2.6,0.8-2.9,1.5c-0.6,1.7,1,1.6,3.3-0.3
			C241.5,26.5,241.9,26.2,240.9,26.3z"/>
	</g>
	<g>
		<path class="st0" d="M176.7,39.3c-0.7,0-4.8,2.7-9.2,6c-12.2,9.2-13.8,10.5-15,11.9c-0.6,0.7-3.1,3.4-5.6,5.9l-4.5,4.6l6-3.3
			c7.5-4.1,11.5-6.7,19-12.5c3.2-2.5,6.5-4.6,7.3-4.6s1.4-0.5,1.4-1.1c0-0.6,0.4-0.8,0.8-0.6c0.9,0.6,4.2-2.9,4.2-4.3
			C181.1,40.4,178.7,39.3,176.7,39.3L176.7,39.3z"/>
		<path class="st0" d="M183.7,62.4c-1.4,0-4.5,3.7-4.5,5.4c0,1.8,0.2,1.8,2.5-0.4C183.9,65.4,185,62.4,183.7,62.4z"/>
		<path class="st0" d="M225,68.8c-0.4,0-0.6,0.4-0.6,1.1c0,0.9,0.5,1.6,1,1.6s1-0.4,1-0.9c0-0.5-0.5-1.2-1-1.6
			C225.3,68.9,225.2,68.8,225,68.8z"/>
		<path class="st0" d="M208.2,75.7c-0.1,0-0.1,0-0.2,0c-1.6,0.5-2.1,4.1-1.3,8.6c0.9,4.9,2.5,2.3,2.5-4.2
			C209.3,77,209,75.6,208.2,75.7L208.2,75.7z"/>
	</g>
	<path class="st0" d="M197.3,163.1c-0.6,0-1.1,0.5-1.1,1.5c0,0.9-0.5,1.3-1,0.9c-0.6-0.3-1-0.1-1,0.5c0,0.7,0.8,0.9,2.3,0.4
		c2.9-0.9,3.1-1.1,2.3-2.4C198.4,163.5,197.8,163.1,197.3,163.1z"/>
	<g>
		<path class="st0" d="M158.9,323.2c-1.1,0-1.8,0.5-1.5,1c0.3,0.6,1.3,1,2.1,1c0.8,0,1.5-0.5,1.5-1
			C161,323.6,160.1,323.2,158.9,323.2z"/>
		<path class="st0" d="M107.4,326.2c-2.4,0.1-4.8,1.3-4.8,2.6c0,1.2,0.7,1.4,3.3,0.9c3.7-0.8,5.6-2.8,3.2-3.3
			C108.5,326.2,108,326.2,107.4,326.2z"/>
		<path class="st0" d="M114.2,336.6c-0.7,0.1-2.2,1.8-4.6,5.3c-1.7,2.5-2.6,4.5-2.1,4.5c1.3,0,7.2-7.2,7.2-8.8
			C114.7,336.8,114.5,336.5,114.2,336.6z"/>
		<path class="st0" d="M143.2,340.5c-0.6,0-0.4,1.3,0.4,3.5c0.7,1.8,0.7,1.8,1.1,0c0.2-1-0.1-2.4-0.7-3
			C143.7,340.7,143.4,340.5,143.2,340.5z"/>
	</g>
	<g>
		<path class="st0" d="M133.1,306.1c-2.7,0-2.2,2,0.5,2.1c0.9,0.1,0.1,0.6-1.8,1.2l-3.5,1.1l4,0.7c2.9,0.5,3.3,0.7,1.3,0.8
			c-2.5,0.1-5.9,2.4-5.9,3.9c0,0.3,0.5,0.1,1.2-0.6c3-3,9.4,0.2,7.2,3.7c-1.5,2.4-4.4,2.8-4.3,0.5c0-1.1,0.3-1.3,0.6-0.6
			c0.6,1.6,2.4,0.6,2.4-1.3c0-2.2-3.7-1.7-4.3,0.6c-0.7,2.8,3.6,5.8,5.8,4c0.8-0.7,1.5-0.8,1.5-0.3c0,3-6.4,4.6-8.9,2.1
			c-0.7-0.7-1.2-2.3-1.2-3.7c0-1.8-0.3-2.2-1.1-1.4c-1.3,1.3,1.2,6.8,3.3,7.7c3.1,1.3,5.8,0.5,8.2-2.4c2.9-3.5,3.4-8.1,1.1-10
			c-0.8-0.7-1.3-1.5-1-1.8c1.1-1.1,4.5,4.5,4.5,7.3c0,2.2,0.3,2.7,1.2,1.8c0.9-0.9,0.8-2.2-0.1-5.5
			C142.6,311,137.1,306.1,133.1,306.1z"/>
		<path class="st0" d="M123.3,312.5c-0.3,0.1-0.7,0.6-1,1.3c-0.5,1.4-0.4,1.6,0.6,0.6c0.7-0.7,1-1.5,0.7-1.8
			C123.5,312.5,123.4,312.5,123.3,312.5z"/>
	</g>
	<g>
		<path class="st0" d="M33.3,446.1c-1,0-3.2,2.1-3.2,3.2c0,0.6,0.9,0.2,2-0.8c1.1-1,1.8-2,1.5-2.3C33.6,446.1,33.5,446.1,33.3,446.1
			z"/>
		<path class="st0" d="M36.8,447.5c-0.5,0-0.9,0.2-1.1,0.5c-0.3,0.5,0.3,1,1.5,1c2.4,0,2.7-0.6,0.6-1.4
			C37.4,447.5,37.1,447.5,36.8,447.5z"/>
	</g>
	<path class="st0" d="M81.5,442.4c-0.7,0.5-1.1,0.2-1-0.6c0.3-2.2,0-3.6-0.6-3.6c-0.1,0-0.2,0-0.3,0.1c-2.1,1.3-6.3,8.6-5.6,9.8v0
		c0.5,0.8,1.7,0.2,3.7-2.2c2-2.3,2.6-2.7,1.8-1.1c-1.7,3.6-0.6,3.5,1.5,0C81.9,443.1,82.2,442,81.5,442.4z M75.8,446.4
		c-0.7,1.7-1.4,2.1-1.4,0.6c0-0.5,0.4-1.2,1-1.6c0.1-0.1,0.3-0.1,0.4-0.1c0,0,0,0,0,0h0c0,0,0,0,0,0C76,445.4,76.1,445.8,75.8,446.4
		z M79,442c-1,1.1-2,2-2.3,2s0.3-0.9,1.3-2c1-1.1,2-2,2.3-2S80,440.9,79,442z"/>
	<g>
		<path class="st0" d="M233.9,438.9c-0.1-0.5-0.1-1.7-0.2-2.8c0-1.1-0.1-2-0.2-2.1s-0.1-0.2,0-0.4c0.1-0.1,0-0.5,0-0.7
			c-0.1-0.5-0.1-0.5-1.3-0.3c-2,0.2-5.2,0.1-10.8-0.4c-0.6-0.1-1.4-0.1-1.9-0.2s-1.2-0.1-1.6-0.2c-0.2,0-0.4-0.1-0.5-0.1l0,0
			c-0.2,0-0.4,0.1-0.6,0.2c-0.3,0.3-0.4,0.5-0.3,4.6c0,2.4,0.1,4.5,0.1,4.7c0.2,0.7,0.4,5.4,0.5,8.5c0,0.4,0.9,0.7,2.5,0.8
			c0.6,0.1,1.2,0.1,1.3,0.2c0.1,0,0.5,0.1,0.9,0.2s1,0.3,1.3,0.3c0.9,0.1,8-0.1,8-0.2c0,0,0.3-0.1,0.7-0.1c0.4,0,0.8-0.2,0.9-0.3
			c0.1-0.1,0.4-0.2,0.6-0.2c0.2,0,0.5-0.1,0.5-0.3C234.3,449.3,234.2,441.2,233.9,438.9z M232.8,449.1c-0.3,0-0.5,0.1-0.6,0.3
			s-0.4,0.3-0.7,0.4c-0.3,0-1,0.1-1.6,0.2c-2.8,0.3-6.8,0.1-8-0.3c-0.2-0.1-0.7-0.2-1.3-0.2c-0.6,0-1.3-0.2-1.7-0.2
			c-0.7-0.2-0.7,0.1-0.8-3.6c-0.1-2.5-0.2-4-0.4-5c-0.1-0.9-0.1-7.6,0-7.8c0-0.1,0.1-0.1,0.2-0.1h0c0.1,0,0.2,0,0.4,0.1
			c0.2,0.1,0.6,0.2,0.8,0.2c0.4,0,2.8,0.2,3.6,0.3c1.4,0.2,3.2,0.3,6.4,0.3c1.9,0,3.5,0.1,3.6,0.1c0.1,0.1,0.2,1.5,0.2,3.2
			c0.1,1.7,0.2,3.2,0.2,3.4c0.1,0.4,0.2,1.2,0.2,4.4C233.3,449,233.3,449.1,232.8,449.1z"/>
		<path class="st0" d="M228.2,434.4c-0.1,0-0.2,0.1-0.4,0.2c-0.3,0.3-0.4,0.5-0.3,1.3c0.1,0.9,0.1,1-0.3,1.1l-0.4,0.1l0.5,0.4
			c0.3,0.2,0.4,0.5,0.4,0.7c-0.1,0.3,0.4,0.8,0.8,0.8c0.1,0,0.2-0.2,0.2-0.5c0-0.5,0.1-0.6,0.5-0.3c0.2,0.1,0.2,0.4,0.2,0.9
			c-0.1,0.7-0.1,0.8,0.2,0.8c0.4,0,0.9-0.5,0.8-0.8c-0.1-0.1,0-0.5,0.2-0.9c0.2-0.4,0.2-0.6,0.1-0.7c-0.1-0.1-0.2-0.6-0.3-1.2
			c0-0.7-0.1-1.1-0.3-1.2c-0.3-0.1-0.6,0.6-0.7,1.4c-0.1,0.8-0.9,0.7-1-0.1c0-0.2,0-0.6-0.1-1c0-0.4-0.1-0.8-0.2-0.9
			C228.3,434.5,228.3,434.4,228.2,434.4L228.2,434.4z"/>
		<path class="st0" d="M226.3,438.3c-0.4-2.6-0.9-3.2-2.7-3.6c-0.2,0-0.6-0.1-1-0.1c-1.2,0-2.8,0.2-3.2,0.4
			c-0.4,0.2-0.4,0.6,0.2,0.8c0.5,0.2,0.7,0.9,0.8,3.2c0.1,1.1,0.1,1.1-0.5,1.3c-0.3,0.1-0.6,0.2-0.7,0.3c-0.1,0.2,0.3,0.5,0.9,0.6
			c0.3,0,0.5,0.1,0.6,0.2c0.1,0.1,0.1,1.4,0.1,2.9c0,2.2,0.1,2.8,0.3,3.1c0.4,0.4,0.9,0.3,0.8-0.2c-0.1-0.7-0.1-6.1,0-6.1
			c0,0,0.4-0.1,0.8-0.2c2-0.3,2.9-0.6,3.4-1.2C226.4,439.5,226.4,439.3,226.3,438.3z M223.6,439.8c-0.8,0.1-1.5,0.3-1.7,0.3
			c-0.3,0.1-0.4-0.1-0.5-1.6c-0.1-0.7-0.2-1.5-0.3-1.8c-0.2-0.5-0.2-0.7,0-0.8c0.2-0.1,0.5-0.2,1-0.2h0h0c0,0,0,0,0,0
			c0.5,0,1,0.1,1.6,0.2c1,0.2,1.2,0.4,1.5,2.1C225.5,439.4,225.4,439.5,223.6,439.8z"/>
		<path class="st0" d="M231.4,444.8c0.4-0.1-0.1-0.7-0.7-0.8c-0.5-0.1-0.7-0.2-0.8-0.6c-0.2-0.7-0.9-1.9-1.5-2.5
			c-0.2-0.2-0.3-0.3-0.5-0.3c-0.3,0-0.5,0.3-0.7,1.1c-0.3,1.3-0.6,1.8-0.9,1.8c-0.2,0-0.5,0.2-0.7,0.4c-0.3,0.3-0.3,0.4-0.1,0.6
			c0.1,0.1,0.4,0.2,0.5,0.2c0.2,0,0.2,0.1,0.1,0.2c-0.3,0.4-1.4,2.4-1.4,2.6c0,0.1,0.1,0.3,0.2,0.5c0.3,0.3,0.4,0.3,0.8-0.5
			c0.2-0.4,0.5-0.8,0.6-0.8c0.1-0.1,0.2-0.3,0.2-0.5c0-0.2,0.1-0.4,0.2-0.4c0.1,0,0.2-0.2,0.2-0.3c0-0.5,0.4-0.7,1.3-0.7
			c1.1,0,1.1,0.1,1.1,0.3c0,0.1,0.2,0.4,0.4,0.6c0.2,0.2,0.4,0.5,0.4,0.6c0,0.2,0.2,0.5,0.3,0.7c0.3,0.4,0.4,0.4,0.7,0.2
			c0.3-0.3,0.3-0.3-0.1-1.1C230.7,445.2,230.8,445,231.4,444.8z M229,443.9c-0.1,0-0.4-0.1-0.7-0.1c-0.5-0.1-0.5-0.1-0.4-0.6
			c0.1-0.4,0.2-0.6,0.3-0.6c0.1,0,0.3,0.2,0.5,0.6C228.9,443.6,229.1,443.9,229,443.9z"/>
	</g>
	<g>
		<path class="st0" d="M188.2,37.2c-0.5,0-0.6,0.3-0.8,0.8c-0.2,0.5,1.6,1.8,4,3c2.4,1.2,5.4,2.2,6.8,2.2c1.9,0,1.1-0.7-3.5-3.1
			C190.7,38,189,37.2,188.2,37.2z"/>
		<path class="st0" d="M210.1,37.6c-0.4,0-0.9,0.1-1.4,0.2c-4.5,0.8-7.1,4.9-6.6,10.3c0.1,0.7,1.4,2.4,2.9,3.8
			c3.5,3.2,3.8,3.2,7.3-0.3C218.3,45.5,216.6,37.4,210.1,37.6L210.1,37.6z"/>
		<path class="st0" d="M242.7,46.2c-0.4,0-0.6,0.1-0.8,0.2c-0.7,0.6-3.6,1.2-6.6,1.4c-11.4,0.9-15.9,1.6-15.3,2.7
			c0.4,0.6,3.8,0.8,9.1,0.5l8.5-0.5l0.6,3c0.5,2.3,1.6,3.5,4.7,4.9c2.3,1,5,1.9,6.1,1.9c1.1,0,4.2,0.7,7,1.5c2.8,0.8,9,2.1,13.7,2.9
			c10.3,1.7,12.9,1.8,15.9,1c2.2-0.6,2.1-0.8-1.7-3.1c-2.2-1.3-5.4-2.6-7-2.8c-1.6-0.2-4.3-1.1-6-2c-1.7-0.9-3.7-1.6-4.4-1.6
			c-0.7,0-6.3-2.5-12.3-5.5C247.8,47.7,244.3,46.3,242.7,46.2L242.7,46.2z"/>
		<path class="st0" d="M199.2,49.4c-0.1,0-0.3,0-0.5,0.1c-4.5,0.9-10,16.8-10.5,30.6c-0.4,9.9,1.6,7.8,2.1-2.3
			C191,68,194,57.9,198,52.5C199.8,50.1,200.1,49.4,199.2,49.4L199.2,49.4z"/>
	</g>
</g>
</svg>
