<?xml version="1.0" encoding="utf-8"?>
<!-- Generator: Adobe Illustrator 24.2.0, SVG Export Plug-In . SVG Version: 6.00 Build 0)  -->
<svg version="1.1" id="moon" xmlns="http://www.w3.org/2000/svg" xmlns:xlink="http://www.w3.org/1999/xlink" x="0px" y="0px"
	 viewBox="0 0 506.5 374.2" style="enable-background:new 0 0 506.5 374.2;" xml:space="preserve">
<style type="text/css">
	.st0{fill:#1E1E1E;}
</style>
<path id="main_path" class="st0" d="M443.7,0c-11.6-0.1-24.4,2.2-31.5,6c-3.2,1.8-7.9,3.8-10.3,4.6c-2.4,0.8-4.4,1.8-4.4,2.3
	s-2.3,2.4-5,4.2c-5.6,3.7-11.4,9.8-11.4,12c0,0.8-0.5,1.5-1.2,1.5c-1.5,0-7.6,12.4-9.9,20.2c-3.9,13.6-3.5,29.8,1,38.7
	c0.8,1.6,3.1,6.4,5.1,10.6c9,19.2,25.3,31.5,47.6,35.8c11,2.1,36.8,0.8,44.2-2.3c2.1-0.9,3.8-1.3,3.8-1c0,0.9,4.6-1.8,10.4-6.2
	c17.4-13.1,25-29.9,24.3-53.3c-0.4-14.3-0.9-16.9-5.6-31.2c-4-12.2-6.8-16.9-14.6-24.5c-6.4-6.3-23-14.8-31.7-16.4
	C451.3,0.3,447.6,0,443.7,0L443.7,0z M444.2,4.5L444.2,4.5c9.3,0,13.1,1.3,24.5,6.7c7.8,3.7,12.2,6.7,16.8,11.5
	c3.4,3.6,6.2,6.8,6.2,7.3c0,0.4,1,2.2,2.2,3.9c1.2,1.7,2.8,5.8,3.6,9c3.5,14.8,4.9,21.5,5.3,25.5c0.2,2.4,0.7,4.8,1.1,5.4
	c0.4,0.6-0.4,2.3-1.7,3.8c-1.3,1.5-2.3,3.7-2.3,4.9s-0.5,2.2-1.2,2.2s-1.2-0.5-1.2-1.2c0-0.6-0.8-1.2-1.8-1.2
	c-1.4,0-1.5,0.5-0.6,2.3c0.7,1.3,1.2,3.4,1.2,4.7c0,1.3,0.6,2.4,1.3,2.4c0.9,0,0.9,0.5-0.1,1.8c-2.4,2.9-3.8,2-3-2.1l0.7-3.8
	l-2.4,2.8c-1.3,1.5-2.4,2.1-2.4,1.3c0-0.8-0.3-1.2-0.6-0.9c-0.3,0.3-0.1,2,0.6,3.7c1.5,3.9,6.1,4.2,8.7,0.5
	c2.7-3.7-2.9,9.2-6.2,14.4c-2.2,3.5-2.5,3.6-2,1.2c0.4-1.6,0.4-2.3,0-1.5c-0.4,0.8-1.4,1.1-2.3,0.8c-0.9-0.4-1.7-0.1-1.7,0.5
	c0,0.6-1.2,2.5-2.6,4.1c-1.5,1.6-3.5,4.6-4.6,6.5c-2.2,4-8,8.1-6,4.2c2.1-4.2,2.5-9.2,0.8-11.5c-2.1-2.9-2.2-18.7-0.1-23.6l1.5-3.5
	l0.8,3.8c0.4,2.1,1.3,3.8,1.9,3.8c1.3,0,0.6-5.2-1.8-12.4c-0.9-2.6-1.6-5.9-1.6-7.4c0-1.5-0.5-2.6-1.2-2.6c-1.6,0-1.5,5.1,0.1,8.7
	c1.1,2.4,0.9,3.6-1.4,7.3c-3.3,5.4-4.8,22.7-2.2,25.8c1.8,2.2,2.4,8.4,1.1,11.8c-0.6,1.6-3.1,3.2-7.2,4.5c-6,2-30,3.4-35.7,2.2
	c-1.3-0.3-3.5-0.8-5-1.1c-1.7-0.4-2.7-1.5-2.8-3.2c-0.1-2.6-0.1-2.6-0.9-0.1c-0.6,2.1-1.3,2.3-3.5,1.5c-1.9-0.7-2.5-1.7-2.1-3.1
	c0.3-1.1,0.9-3.7,1.3-5.6c0.4-2.4,0.1-2-1.2,1.5c-1,2.8-2.5,4.9-3.2,4.6c-0.7-0.2-2.1-4.6-3-9.7c-1.5-8.5-1.5-9.5,0.4-12.7
	c1.5-2.5,1.6-3.2,0.4-2.6c-0.9,0.5-0.7-0.1,0.5-1.5c2-2.3,7.5-12.1,5.9-10.5c-0.4,0.4-2-1.4-3.6-4.1c-2.6-4.3-3.3-4.8-6.6-4.3
	c-2,0.3-4.6,0.9-5.8,1.4c-1.4,0.6-2.1,0.4-2.1-0.9c0-2.1-3.2-3.6-4.2-2c-0.4,0.6-1.7,1.1-3,1.1c-3.3,0-2.9-4,1.2-12.4
	c1.9-3.9,3.5-8.3,3.5-9.8c0-1.5,0.8-4.2,1.7-6c2.2-4.2,1.5-4.8-5-4.8c-4.2,0-5.1-0.3-4.5-1.8c0.4-1.1,0.2-1.5-0.6-1
	c-1.7,1.1-0.3-3.5,2.6-8.2c2.4-4,2.7-5.4,1.2-5.4c-0.6,0-1.7,1.7-2.6,3.8c-0.9,2.1-3.9,6.7-6.8,10.3c-7.3,9.1-8.4,11-2.7,4.7
	c7-7.7,6.4-2.8-0.6,5.4c-6.2,7.1-7.7,7.9-6.2,3.2c0.6-1.8,1.9-6.4,3-10.3c2.4-8.5,10.8-21.8,16.5-26.2c2.3-1.8,5.4-4.4,7-5.9
	c1.6-1.4,5.1-3.2,7.9-3.9c2.7-0.7,6.6-2.3,8.5-3.4c5-3,13.7-4.7,25.3-4.9C441.5,4.5,442.9,4.5,444.2,4.5L444.2,4.5z M127,41.9
	L127,41.9c-0.9,0-1.7,0.2-2,0.7c-0.3,0.6-1.8,1-3.3,1c-4.9,0-26,9.9-34.4,16.1c-2,1.5-4,2.7-4.4,2.7c-0.7,0-13.8,9-16.9,11.7
	c-0.8,0.7-1.8,1.2-2.4,1.2c-0.5,0-2.3,1.2-3.9,2.6c-1.6,1.5-6.9,5.8-11.8,9.6s-12.5,10.9-17,15.6c-4.5,4.7-8.8,8.6-9.7,8.6
	c-5.1,0-12.8,8.7-19.8,22.3c-2.2,4.2-2,12.1,0.5,24.2c0.9,4.3,0.8,7.7-0.2,12.9c-2.2,10.7-1.8,43.5,0.9,64.2
	c1.4,10.9,6.7,34.9,9,40.6c5.2,12.8,6.3,15.3,9.4,20.2l0,0c1.8,2.8,3.7,5.1,4.2,5.1c1,0,6.4-13.1,5.7-13.8c-0.2-0.2-1.3,1.8-2.4,4.5
	l-2,4.9l-2.9-4.3c-3.7-5.4-7.6-14.5-6.7-15.4c0.4-0.4,0.1-0.7-0.5-0.7c-1.3,0-3.7-7.3-4.4-13.5c-0.2-1.9-0.5-3.5-0.6-3.5
	c-0.1,0-0.4-1.3-0.7-2.9c-0.3-1.6-1.1-5.2-1.8-8c-1.2-4.4-1.1-5.3,0.9-7.6c1.9-2.2,1.9-2.4,0.1-1c-2.7,2.1-4,0.8-1.9-1.9
	c0.9-1.1,1-1.7,0.3-1.2c-1.9,1.1-2.9-5.2-1.2-7.3c0.9-1.2,0.9-1.4,0.1-0.9c-0.9,0.5-1.6-1.1-2.1-4.6c-1.5-10.6-1.1-11.6,6-19.4
	c4.9-5.3,5.7-6.6,3-4.7c-2.1,1.5-5.1,4.3-6.8,6.4c-1.6,2.1-3,3-3,2.1c0-0.9,2.4-4.6,5.4-8.2l5.4-6.6l-5.3,5.6
	c-7.9,8.3-7.8,4.6,0.1-4.1c3.7-4.1,5.4-6.4,3.8-5.1c-1.6,1.3-4.6,4.1-6.6,6.3l-3.7,3.9l0.1-7.9l0.1-7.9l8.2-7.6
	c4.5-4.2,6.1-6,3.5-4.1c-2.6,2-6,4.9-7.6,6.6c-3.3,3.5-5.3,4-4,1c1.2-2.8,1.2-21.5-0.1-24.1c-0.8-1.6-0.5-2.1,1-2.1
	c1.4,0,1.8-0.6,1.3-1.9c-0.4-1-0.7-2.7-0.7-3.8c0-1.7-0.2-1.7-1.2-0.2c-1,1.5-1.2,1.4-1.3-0.6c-1-11.9,9.6-29.7,19.3-32.6
	c2.7-0.8,9.6-4.8,15.3-8.8c5.7-4,11-7.5,11.8-7.8c0.8-0.3,1.2-0.8,0.8-1.2c-0.4-0.4-4.9,2-10,5.3c-6.9,4.4-8.6,5.1-6.4,2.8
	c1.6-1.7,5.2-4.5,7.9-6.1c2.8-1.6,4.7-3.4,4.4-4c-0.4-0.6,0.3-0.7,1.4-0.3c1.4,0.5,1.7,0.3,1.2-0.6c-0.5-0.8-0.2-1.1,0.7-0.8
	c0.8,0.3,2.8-0.4,4.3-1.6c2.1-1.6,2.4-2.4,1.3-3.1c-1.1-0.7-1.2-0.5-0.6,0.6c0.6,1,0.5,1.3-0.4,0.7c-1.8-1.1-0.4-3.4,1.7-2.6
	c0.9,0.3,2,0,2.4-0.7c0.5-0.8,0.3-1-0.6-0.5c-1.8,1.1-1.7-0.3,0.1-2c0.8-0.8,4.9-3.7,9.1-6.6c4.2-2.9,11.9-8.1,17.1-11.7
	c12.3-8.5,31.2-17.8,36-17.8c2.2,0,4.4-0.9,5.4-2.1c1.5-2,1.7-1.9,3.4,0.2c1.8,2.4,2.3,8.6,0.9,10.8c-0.5,0.7-2.2,2-3.8,2.9
	l-2.9,1.6l3.8,1c3.1,0.8,3.8,1.6,3.8,4.2c0,6-11.9,20.2-17,20.2c-2.1,0-10.1,7.5-10.1,9.4c0,0.5-1.4,2.9-3.1,5.4
	c-5.6,8.1-10.7,17.8-11.6,21.9c-0.5,2.2-1.5,5.3-2.4,7c-0.9,1.7-1.9,5.7-2.3,8.8c-0.4,3.2-1.2,7.1-1.9,8.8c-0.7,1.7-1,5.4-0.8,8.2
	c0.3,4-0.2,5.6-2,7.1c-2.3,1.9-2.3,2,1.5,1.9c2.1-0.1,4.8,0.8,6,1.8c1.2,1.1,2.6,1.9,3.1,1.9s2,1.2,3.2,2.6c1.7,2,2.2,4.1,2,8.8
	c-0.3,7.2,0.7,9.1,2.5,4.6c3.1-8.3,1.2-12.8-8.6-20.4c-3.6-2.8-4-4.9-2.6-15c1.1-8,4.3-22.1,5.3-23.5c0.5-0.6,1.8-3.8,3-7.1
	c1.2-3.2,3.9-8.4,5.9-11.4c2.1-3,4.1-6.8,4.5-8.4c0.6-2.4,5.5-6.9,7.8-7.3c8.2-1.4,11.7-4.3,17.5-14.9c3.8-6.9,4.7-12.4,2.4-14.7
	c-0.8-0.8-0.9-2-0.3-2.9c2.2-3.6,2.8-12.2,1-14.9C132,43.3,129.1,42,127,41.9L127,41.9z M393.1,49.5c1.4,0.1,1.5,2.3,0.3,6.9
	c-0.8,3.1-2.1,6.6-2.8,7.9c-2.5,4.4-4.9,11.4-4.3,12.4c0.4,0.6-0.2,0.7-1.2,0.3c-2.2-0.8-2.4-4.1-0.4-6.3c1.2-1.4,1.2-1.4-0.3-0.3
	c-1,0.7-2.4,1-3.2,0.5c-0.9-0.6,0.3-2.9,3.8-7.3c2.9-3.5,5.2-6.9,5.3-7.5s-2.2,1.8-5,5.2c-2.8,3.5-6.2,7.5-7.6,9
	c-2.6,2.8-2.5,3.1,1.1,2.8c1.1-0.1,2.1,0.3,2.1,0.8c0,0.6-1.4,2.3-3,3.9l-3,2.9l0.8-3.1c0.4-1.7,0.2-3.4-0.4-3.9
	c-1.7-1-0.5-3.7,4.6-10.7C386.6,54,391.1,49.4,393.1,49.5z M385.7,49.5c2.7,0,1.7,2.3-4.2,9.9c-7.2,9.2-8.7,10.4-8.7,6.8
	C372.8,63.9,383.9,49.5,385.7,49.5z M371.2,67.6c0.1,0,0.1,0,0.2,0c0.1,0,0.2,0,0.2,0.1c0.6,0.4,1.2,1.5,1.2,2.4
	c0,0.9-0.5,1.7-1.2,1.7c-0.6,0-1.2-1.1-1.2-2.4C370.5,68.4,370.8,67.7,371.2,67.6L371.2,67.6z M381.5,75.8c0.5-0.1,0.8,0.7,0.8,2.4
	c0,2.7,0.4,3.1,2.3,2.5c3.4-1.1,4.2,1.6,1.3,4.6c-1.4,1.5-2.7,4.6-2.9,6.8c-0.2,2.3-0.9,5.1-1.5,6.2c-2.2,3.9-2.8-2.1-0.9-7.7
	c2.4-6.8,2.4-9.7,0-6.6c-1,1.3-1.5,3-1.2,3.9c0.4,0.9,0.1,1.2-0.7,0.8c-0.9-0.5-1,0.1-0.5,2c0.6,2.3,0.5,2.4-0.5,0.8
	c-0.9-1.4-0.8-3.7,0.3-7.9C379.1,78.9,380.6,75.9,381.5,75.8L381.5,75.8z M391.6,82.4c1.2,0.1,1.1,1.7-0.4,4.1c-1.1,1.6-2.5,3-3.2,3
	c-1.9,0-0.7-4.9,1.5-6.3c0.7-0.5,1.4-0.7,1.8-0.7C391.5,82.4,391.5,82.4,391.6,82.4L391.6,82.4z M405.8,84.3c1,0,1.7,0.5,2.8,1.6
	c2.9,2.9,1.7,8.6-2.9,13.4c-1.9,2-3.4,3.1-3.4,2.6c0-0.5-1.4,0.3-3.1,1.9c-1.7,1.6-4.1,5-5.3,7.6c-1.2,2.6-2.2,4-2.2,3.2
	c-0.1-3,3.6-10.1,9.4-18c3.2-4.5,5.9-8.5,5.9-9c0-1.5-14.2,18.5-15.9,22.4c-0.9,2.1-1.6,3-1.7,2.2c0-0.9,0.5-2.6,1.2-3.9
	c0.7-1.3,1.4-3.9,1.7-5.8c0.4-3.5,3.7-8.9,7-11.7c2-1.6,2.5-4.2,0.7-3c-2.1,1.3-8.5,11.3-8.8,13.9c-0.6,4.5-2.9,9.2-4.2,8.4
	c-0.7-0.5-0.3-2,1.2-4.1c2.8-3.9,3-4.9,0.9-4.4c-0.8,0.2-2.1,1.6-2.9,3.2c-0.8,1.6-1.4,2.2-1.5,1.4c-0.1-2.5,2.3-6.2,3.5-5.5
	c0.6,0.4,1.1-0.2,1.1-1.2c0-2.9-2.3-6.6-3.6-5.8c-0.6,0.4-1.1,0.1-1.1-0.7c0-0.8,0.8-1.1,1.9-0.7c1,0.4,2.4,0.7,3.1,0.7
	s0.9,0.9,0.4,2.1c-0.4,1.1,0.6,0.5,2.2-1.4c3.6-4.1,3.6-4.2,0.6-3.4c-2.6,0.7-3.1-0.8-0.9-3c1.8-1.8,4.9-1.9,3.8-0.1
	c-0.6,0.9-0.3,1,0.8,0.3c0.9-0.6,3.5-1.7,5.8-2.5c1.4-0.5,2.3-0.8,3.1-0.8C405.5,84.3,405.6,84.3,405.8,84.3z M51.3,90.1
	c0.1,0,0.3,0,0.4,0.1c0.5,0.3,0.7,1.1,0.3,1.7c-1,1.5-1.3,1.4-1.3-0.6C50.7,90.6,51,90.2,51.3,90.1z M385.1,95.8
	c1.3,0,1.3,0.6,0.3,3c-1.9,4.5-3.2,5.6-3.2,2.8c0-1.4,0.5-2.9,1.2-3.3c0.7-0.4,0.9-1.1,0.6-1.6C383.8,96.2,384.2,95.8,385.1,95.8z
	 M401.5,102.6L401.5,102.6C401.5,102.6,401.6,102.6,401.5,102.6c0.3,0.3,0.8,2.6,1.2,5.2c0.4,2.6,1.4,7.5,2.3,10.9
	c1.7,6.6,1.7,6.7-2.5,4.7c-2.5-1.2-2.7-1.9-2-6.7c0.7-5,0.6-5.2-1-2.5c-0.9,1.6-1.4,3.7-1.1,4.7c0.5,1.5,0.4,1.5-0.6,0.2
	c-0.7-1.1-0.8-2.7-0.1-4.5c1.7-4.6,1.1-4.7-1.3-0.3c-1.8,3.2-2.3,3.6-2.3,1.7C394,113.7,400.3,102.4,401.5,102.6L401.5,102.6z
	 M489,111.1L489,111.1C489,111.1,489,111.2,489,111.1c0.3,0.3-0.3,2.1-1.4,4.1c-2.6,5-3.4,4.6-1-0.5
	C487.6,112.7,488.7,111.1,489,111.1L489,111.1z M393.6,124.1c-0.4,0.1-1.5,0.9-3.2,2.8c-1.9,2.1-3.5,4.5-3.5,5.3
	c0,0.8,1.6-0.4,3.5-2.7C393.3,126.1,394.3,124,393.6,124.1z M324.4,128.5L324.4,128.5c-1.3,0.1-2.2,0.5-2.2,1.3c0,0.5-1,2.9-2.3,5.3
	c-2.6,4.8-2.9,7.1-1.3,9.7c0.9,1.4,1.4,1.4,2.9,0.2c1.6-1.3,1.9-1.2,1.9,0.9c0,1.6-1.4,3.1-4.1,4.4c-2.3,1.1-4.4,2.4-4.7,2.9
	c-0.3,0.5-2.4,0.5-4.7,0c-2.3-0.5-5.1-0.7-6.3-0.4c-1.2,0.3-3-0.3-4-1.3c-1-1-2.4-1.9-3.1-1.9c-1.8,0-1.6,7,0.2,7.1
	c6.6,0.4,13.6,1.5,15.4,2.5c1.7,0.9,3,0.6,5.6-1.3l3.4-2.5v2.9c0,1.6,0.5,3.2,1.2,3.7c0.7,0.5,1,3.5,0.6,7.7c-0.6,6.7-0.6,7,2.1,7
	c2.6,0,2.8,0.6,3.5,7.6c0.4,4.2,0.4,14.9,0,23.8c-0.6,14.5-1,16.8-3.7,21.5c-2.7,4.8-6.6,10.4-10.5,15.3c-0.8,1-3.1,4.1-5.1,6.9
	c-2.1,3-5.5,5.9-8,6.9c-2.4,1-4.6,2.2-4.9,2.6c-0.9,1.2-15.4,7.9-20,9.3c-13.5,3.9-25.8,7.7-28.8,8.9c-1.9,0.7-3.8,1.4-4.1,1.5
	c-0.3,0.1-1.4,0.4-2.4,0.7c-6.4,2.3-16.3,3.8-26.5,3.9c-15.1,0.2-15.9,0.3-15.9,1.7c0,2.3,15.3,3.4,27.7,2
	c3.3-0.4,10.7-2.1,16.5-3.8c5.8-1.7,12.1-3.6,14.1-4.1c1.9-0.5,7-2,11.2-3.3c4.2-1.3,9.8-2.9,12.4-3.7c5.9-1.8,17.1-6.9,19.4-8.9
	c2.9-2.5,7.8-2.9,7.9-0.7c0.3,5.5-6,22.5-8.3,22.5c-0.6,0-0.7,0.8-0.3,1.8c0.4,1,0.2,1.5-0.4,1.2c-0.6-0.4-2.9,2.5-5.2,6.3
	c-3.2,5.5-16.3,22.9-19.6,26c-2,1.9-8.2,10.6-10.1,14.1c-3,5.6-8.7,13-12.1,15.9c-6.8,5.7-20.1,11.3-25,10.5
	c-0.9-0.1-3.5-0.6-5.9-1.1c-3.3-0.6-4.5-0.4-5.3,1c-0.6,1-3.9,2.3-7.5,3c-3.6,0.6-9.6,2-13.5,3c-4.9,1.3-13.5,1.9-28.3,2
	c-22.6,0.2-23.6,0-50.5-8.9c-2.6-0.9-8.7-2.8-13.5-4.2c-8.6-2.6-31.7-13.8-35.4-17.1c-2.2-2-3.4-2.1-3.4-0.4
	c0,1.4,18.1,13.2,20.8,13.6c0.9,0.1,3.4,1.2,5.5,2.5c2.1,1.2,8.6,3.7,14.4,5.5c5.8,1.8,16.4,5.3,23.5,7.8c12.6,4.4,13.3,4.5,30,4.5
	c21,0,39.9-1.9,45.1-4.8c3.1-1.7,17.3-2.4,19-1c2.9,2.4,21.4-3.5,29.4-9.4c4.1-3.1,11.2-12.6,14.1-19.1c1.7-3.8,5.5-8.8,9.7-12.8
	c8.7-8.3,16.2-17.3,22.2-26.3c2.6-3.9,5-7.3,5.4-7.7c0.4-0.3,2.6-4.6,4.8-9.4c5.2-11.3,6.3-17.8,3.7-22.3c-1.9-3.3-1.9-3.4,2.9-9.6
	c2.7-3.5,5.3-6.9,5.8-7.5c0.5-0.6,2.6-3.4,4.7-6.1s4.5-6.4,5.3-8.2c0.8-1.8,2.9-5.6,4.7-8.3s3.2-5.3,3.2-5.7
	c0-1.3,9.8-17.4,15.3-25.2c3-4.2,7.5-11.6,10-16.5c2.5-4.9,6.1-11.1,7.9-13.8c1.8-2.8,2.9-5,2.3-5c-1.4,0-5.3,5.4-8.5,11.8
	c-1.5,2.9-3,5.5-3.5,5.8c-0.4,0.3-3.6,5.2-7,10.9c-8.1,13.4-9.7,14.7-9,7.8c0.3-3.5-0.4-7.9-2.2-13.3c-1.5-4.5-2.5-9.1-2.3-10.4
	c0.2-1.3-0.5-3.7-1.8-5.4c-2.7-3.8-4-9.2-2.5-10.1c0.6-0.4,2.5-0.1,4.2,0.5c2,0.8,4.8,0.8,8,0.1c3.4-0.8,5.2-0.7,5.7,0.2
	c1.4,2.2,4.8,0,4.3-2.9c-0.3-2.3-1-2.6-4.5-2.3c-6,0.5-19-1-18.2-2.1c0.3-0.6,0-1.4-0.7-1.8c-0.9-0.5-0.6-1.5,0.7-3
	c2.8-3.1,1.4-7-3.5-10.3C330,129.3,326.6,128.4,324.4,128.5L324.4,128.5z M335.3,177.6c0.9,0.2,4.5,16.4,4.5,20.8
	c0,4.4-0.8,7.3-3.4,11.8l-3.5,5.9l0.5-7.7c0.3-4.2,0.8-12.7,1.1-18.8c0.3-6.1,0.6-11.4,0.7-11.8
	C335.2,177.6,335.3,177.6,335.3,177.6z M95.9,192.5c-0.5,0-1,0.6-1.4,1.9c-0.5,1.5-2.8,4.4-5.1,6.5c-2.4,2-3.9,4.1-3.4,4.6
	s2-0.1,3.3-1.3c2.4-2.2,2.4-2.2,1.8,1.5c-1.3,7.1,12,36.1,22,48.3c4.8,5.8,11.3,12.1,12.6,12.1c0.7,0,1.2,0.5,1.2,1
	c0,0.9,15.4,10.7,16.9,10.7c0.3,0,2.1,0.6,3.9,1.4c1.8,0.8,5.7,2.3,8.6,3.5l0,0c5.8,2.3,11.9,2.4,12.6,0.3c0.2-0.7-0.8-1.6-2.3-2
	c-8.3-1.9-20.7-6.1-24.4-8.2c-2.3-1.3-5.6-3.1-7.2-3.9c-1.6-0.8-5.6-3.9-8.8-6.8c-3.2-2.9-6.3-5.3-6.8-5.3c-0.5,0-0.9-0.6-0.9-1.3
	c0-1.1-0.5-1.9-4.2-6.2c-4-4.7-14.4-24.6-17.6-33.8c-2.1-5.8-2.3-13.8-0.5-18.4c0.8-2,0.8-3.6,0.1-4.3
	C96.2,192.6,96,192.5,95.9,192.5L95.9,192.5z M25.9,303c-0.1,0-0.1,0-0.2,0.1c-3.7,2.3,4.9,25.9,11.6,32.3c2.4,2.2,7.7,5.2,9.1,5
	c0.2,0,1.8,0.6,3.8,1.4l0,0c3.7,1.5,13,2,13,0.6c0-1.4-2.4-2.4-6.9-2.8c-6.4-0.5-17-4.9-19.3-7.9c-1.8-2.4-5.6-9.4-8.3-15.7
	c-0.6-1.4-0.8-3.7-0.5-5.3c0.4-2.3,0.6-2.2,0.7,0.9c0.2,3.6,2,6.2,4.3,6.1c1.1-0.1,6.5-8.6,6.4-10.2c0-0.4-1.4,0.8-3,2.8
	c-2,2.4-2.6,2.7-1.7,1c1.6-3.1,1.6-3.9,0.2-3.9c-0.6,0-1.5,1.5-2,3.2l-0.9,3.2l-0.7-3.5c-0.5-2.6-0.2-3.7,1.1-4.3
	c1.6-0.7,8.2-0.1,9.3,0.8c0.2,0.2-1.2,3.4-3.2,7.2c-3.3,6.3-3.5,7-1.7,8.3c1.1,0.8,2.1,1.3,2.2,1.2c1.5-2.1,5.9-13.8,4.5-12.1
	c-1,1.3-2.6,3.9-3.5,5.9c-2.5,5.6-1.9,1.4,0.7-4.7l2.4-5.5l4.4,2.5l4.4,2.5l-3.9-3.4c-5.8-5.1-15.3-6.5-19.2-2.9
	c-2,1.8-2.2,1.8-2.2-0.7C26.8,303.7,26.4,302.9,25.9,303L25.9,303z"/>
<g id="small_nodes">
	<path class="st0" d="M232.7,8.4c-3.7-3.5-6.9-5.3-10.1-5.4c-1.9,0-3.9,0.5-6.1,1.6c-5.2,2.6-7.1,4.7-11.2,12.3
		c-5.2,9.5-3.4,18.5,4.4,22.2c4.8,2.3,16.6,1.9,21.6-0.7c5.2-2.7,7.5-6.7,8-13.7C239.9,17.1,238.6,14,232.7,8.4z M228.9,35.9
		c-3.4,1.7-10.6,2.2-15.6,0.9c-9.6-2.3-9.7-15.1-0.2-25.9c2.7-3.1,4.2-3.8,8.1-3.8c8.6,0,15.1,7.3,15.1,17.1
		C236.3,29.4,233.7,33.6,228.9,35.9z"/>
	<g>
		<path class="st0" d="M112.8,61.6c-9.4-0.1-13.9,14.6-6.5,22.5c1.6,1.7,3.5,2.8,4.2,2.4c0.8-0.5,0.1-2-1.8-4c-1.7-1.7-3-4.1-3-5.2
			c0-1.1-0.5-1.7-1.2-1.3c-1.9,1.1-1.4-0.8,1.5-5.9c2.2-3.9,3.4-4.8,7.1-5.3c5.4-0.7,5.8-2.6,0.6-3.1
			C113.4,61.6,113.1,61.6,112.8,61.6L112.8,61.6z"/>
		<path class="st0" d="M111.9,70.7c-1.4,0-4.2,7.9-3.3,9.4c1.2,2,2.3,1.3,2.5-1.5c0.1-1.5,0.5-3.8,1-5.3
			C112.6,71.9,112.5,70.7,111.9,70.7z"/>
	</g>
	<g>
		<path class="st0" d="M47.4,102.4c-1.6,0-22.9,14.5-22.9,15.6c0,0.5,0.8,0.9,1.8,0.9c1,0,2.7,1.5,3.7,3.4l1.9,3.4l5.1-3.6
			c2.8-2,4.8-3.8,4.5-4.1c-0.3-0.3-2.4,0.8-4.6,2.5l-4,3.1l-0.7-2.9c-0.4-1.6-1.3-2.9-1.9-2.9c-3.1,0-0.3-2.9,8.5-8.8
			C44.2,105.4,48,102.4,47.4,102.4z"/>
		<path class="st0" d="M47.8,106.7c-0.7-0.1-4.4,1.9-8.5,4.7c-4.4,2.9-7.7,5.6-7.4,6c0.3,0.3,2.3-0.6,4.3-2c2-1.4,3.9-2.3,4.3-2
			c0.3,0.3-1,1.5-2.9,2.5c-2,1-3.9,2.4-4.3,3c-1.3,2.1,0.5,1.3,6.8-3c4.1-2.8,5.1-4,3.2-3.5l-2.9,0.8l2.7-2.3
			c1.5-1.3,3.3-2.6,4.1-2.8c0.8-0.3,1.2-0.8,0.8-1.2C47.9,106.7,47.9,106.7,47.8,106.7z"/>
	</g>
	<g>
		<path class="st0" d="M20.4,122.8c-0.8,0-4.4,2.6-7.7,6.1c-2.2,2.3-3.3,4.2-2.5,4.2c1.2,0,1,0.6-0.5,2.4c-3.2,3.5-0.3,2.9,3-0.7
			c2.1-2.2,2.3-2.8,0.8-2.2c-2.8,1.1-2.5-0.5,0.5-3.2c2.8-2.4,4.5-2,2.3,0.5c-0.7,0.9-1,1.9-0.6,2.4c0.4,0.4,0.1,1.6-0.7,2.5
			c-1.2,1.5-1.2,1.8,0.1,1.8c2,0-6,6.9-8.1,7c-0.8,0-1.2,0.6-0.8,1.2c0.8,1.2,3.7-0.5,10.6-6.4c2.5-2.1,2.8-2.8,1.2-2.2
			c-2.2,0.7-2.2,0.6-0.6-1.3c1-1.2,1.8-3.8,1.8-5.8c0-2,0.5-4.4,1-5.3C20.7,123.1,20.7,122.8,20.4,122.8z"/>
		<path class="st0" d="M23.5,124.9c-0.3-0.1-0.1,0.5,0.2,1.8c0.4,1.4-0.1,4.4-1.1,6.8c-1,2.4-1.3,4.3-0.7,4.3s1.9-2.2,3-4.9
			c1.8-4.6,1.8-5,0-6.8C24.2,125.3,23.7,124.9,23.5,124.9L23.5,124.9z"/>
		<path class="st0" d="M13.1,136.6c-0.7,0-2.2,1-3.3,2.2c-1.1,1.3-2.8,2-3.7,1.6c-0.9-0.3-1.7,0-1.7,0.7c0,0.7,0.7,1.3,1.5,1.3
			C7.7,142.4,14.9,136.7,13.1,136.6z"/>
	</g>
	<g>
		<path class="st0" d="M26.9,138.9c-0.7,0-2.8,2.3-4.7,5.2c-2,2.8-4.4,5.5-5.4,5.8c-1,0.4-1.8,1.2-1.8,1.9c0,2.1,1.8,1.3,4.9-2
			C24.4,144.9,28.3,138.9,26.9,138.9z"/>
		<path class="st0" d="M22.2,151L22.2,151c-0.4,0-1.2,0.3-2.5,1.1c-1.2,0.8-2,1.8-1.7,2.2c0.3,0.5-0.1,1.2-0.8,1.7
			c-0.9,0.6-1.1,0.3-0.4-0.8c0.5-0.9-0.4-0.4-2.2,1.2c-1.7,1.6-3.1,2.2-3.1,1.5c0-0.8-1.1-1.4-2.5-1.4c-1.5,0-2.2,0.6-1.9,1.5
			c0.3,0.8,1.3,1.3,2.4,1.1c2-0.4,2.1,2.1,0.1,4.6c-0.7,0.9-1.6,2.3-2.1,3.1c-0.5,0.8,2.8-2.1,7.3-6.5
			C20.6,154.9,23.3,151.2,22.2,151z M14.4,158.9c-1.2,1.3-2.4,2.4-2.7,2.4s0.4-1.1,1.5-2.4c1.2-1.3,2.4-2.4,2.7-2.4
			C16.3,156.6,15.6,157.6,14.4,158.9z"/>
		<path class="st0" d="M20.4,159.9c-0.5,0-3.7,2.4-9.1,7.2c-3.7,3.3-5.4,5.7-5.4,7.7c0,2.8,0.4,2.6,6.9-3.1c7.2-6.3,9.3-8.8,3.7-4.6
			c-9,6.9-9.5,6.5-1.5-1.2C19.2,161.9,20.9,159.9,20.4,159.9z"/>
	</g>
	<g>
		<path class="st0" d="M45.4,163.6c-0.3,0-1.5,1.1-2.7,2.4c-1.2,1.3-1.9,2.4-1.5,2.4s1.5-1.1,2.7-2.4
			C45,164.7,45.7,163.6,45.4,163.6z"/>
		<path class="st0" d="M47.4,166.6l-3.8,3.5c-2.1,1.9-3.8,3.6-3.8,3.8c0,0.9,1,0.1,4.2-3.5L47.4,166.6z"/>
		<path class="st0" d="M47.8,173.2c-0.9-0.1-4.5,2.7-6.9,5.3c-2.6,2.9-2.3,2.8,2.1-0.7c2.8-2.2,5-4.1,5-4.4
			C48,173.3,47.9,173.2,47.8,173.2z"/>
		<path class="st0" d="M46.7,178.1c-0.2-0.1-1.6,0.8-3.7,2.5c-3.1,2.5-5.6,4.7-5.6,5c0,0.9,6.4-4,8.8-6.8
			C46.6,178.4,46.8,178.1,46.7,178.1z"/>
		<path class="st0" d="M48.4,183.8L48.4,183.8c-1.3,0-6.3,4.8-6.3,6.2c0,0.7,1.6-0.3,3.5-2.2c1.9-1.9,3.3-3.6,2.9-4
			C48.5,183.8,48.4,183.8,48.4,183.8L48.4,183.8z"/>
		<path class="st0" d="M47.1,190.7c-0.7,0-1.5,0.8-1.9,1.8c-0.4,1-0.5,1.8-0.3,1.8c0.2,0,1.1-0.8,1.9-1.8
			C47.6,191.5,47.8,190.7,47.1,190.7z"/>
	</g>
	<g>
		<path class="st0" d="M10.4,182.4L10.4,182.4c-0.2,0-0.3,0-0.4,0.2c-0.2,0.3-1.6,2.1-3.2,4l-2.9,3.5l3.8-3.4c2.1-1.9,3.5-3.7,3.2-4
			C10.7,182.5,10.6,182.4,10.4,182.4L10.4,182.4z"/>
		<path class="st0" d="M17.3,182.5c-0.3,0-3.5,2.9-7,6.5c-3.5,3.6-6.1,6.5-5.8,6.5c0.3,0,3.5-2.9,7-6.5
			C15,185.4,17.6,182.5,17.3,182.5z"/>
	</g>
	<g>
		<path class="st0" d="M14.6,205.4c-0.1,0-1.1,0.9-2.8,2.7c-2.8,2.9-5,5.8-5,6.5c0,0.7,0.9,0,1.9-1.6c1.1-1.6,3.3-4.5,5-6.5
			C14.4,205.8,14.6,205.4,14.6,205.4z"/>
		<path class="st0" d="M24.1,210.8c-0.2,0-0.4,0-0.6,0c-3,0.1-3,0.1,0.7,1.8c2.9,1.3,3.8,2.4,3.8,4.8c0,1.7,0.9,4.1,2,5.3
			c2.8,3.1,3,2.1,0.8-3.8C28.2,212.3,27.2,210.9,24.1,210.8L24.1,210.8z"/>
		<path class="st0" d="M29.9,234.3c-1.1,0-1.7,0.5-1.3,1.2c0.6,1-0.8,1.7-3.1,1.4c-6.6-0.9-11.9-2.5-8.1-2.5c1.1,0,0.9-0.7-0.6-2.4
			c-2.1-2.3-2.1-2.4,0-1.6c1.9,0.7,2,0.5,0.7-1.8c-0.8-1.5-1.1-4.1-0.6-6.3c0.7-3.4,0.6-3.6-1.1-2.1c-1.1,0.9-1.9,2.4-1.9,3.3
			c0,0.9-0.5,1.4-1.2,1c-1.5-0.9-1.5-6,0-8.9c0.7-1.3,0.8-2.3,0.2-2.3h0c-0.6,0-1.7,1.3-2.6,2.9c-1.3,2.4-1.3,3.9,0,8.5
			c0.8,3.1,2.4,6.7,3.4,7.9c1.7,2.1,1.7,2.2-0.2,1.5c-3.3-1.2-2.4,0.2,1.8,2.7c2.1,1.3,3.4,2.3,2.9,2.3c-0.5,0-1.1-0.1-1.3-0.3
			c-0.8-0.5-5.5,4.2-6.9,6.8c-1.1,2.1-1.1,2.2,0.7,0.8c1.2-1,2-1.1,2-0.4c0,0.7-0.5,1.6-1.2,2c-0.6,0.4-1.2,1.3-1.2,2.1h0
			c0,0.8,0.9,0.1,1.9-1.5c4.4-6.6,7.9-9.4,11.6-9.4c2.2,0,4.6-0.9,5.8-2.4C31.7,234.4,31.7,234.3,29.9,234.3z M14.4,243.7
			c-1,0.8-1.8,0.9-1.8,0.3c0-0.6,0.8-1.8,1.8-2.6c0.6-0.5,1.2-0.8,1.5-0.7c0.2,0,0.3,0.2,0.3,0.4C16.2,241.7,15.4,242.9,14.4,243.7z
			"/>
	</g>
	<g>
		<path class="st0" d="M22.3,240.1c-1.2,0-7.5,8.6-9.5,12.9l0,0c-1.2,2.5-1.1,2.6,0.1,0.7c0.8-1.2,3.5-4.8,5.9-7.9
			C21.3,242.7,22.9,240.1,22.3,240.1L22.3,240.1z"/>
		<path class="st0" d="M21.6,246.6c-0.5,0.1-5.3,6.2-7.1,9.2c-1.1,1.8-1.7,3.2-1.4,3.2c0.5,0,6.4-8.3,8.3-11.7
			C21.6,246.8,21.6,246.6,21.6,246.6z"/>
		<path class="st0" d="M21.6,251.9c-1,0-7.7,9.6-7.7,11c0,1.4-0.1,1.6,4.6-5.4C20.5,254.4,21.9,251.9,21.6,251.9z"/>
		<path class="st0" d="M22.1,257.8c0-0.1-0.5,0.3-1.5,1.1c-2.1,1.7-5.6,7.4-5.5,9.1l0,0c0,0.5,0.9-0.6,1.9-2.6
			c1-1.9,2.7-4.6,3.8-5.9C21.7,258.5,22.1,257.9,22.1,257.8L22.1,257.8z"/>
		<path class="st0" d="M21.9,261.6c-0.3,0.1-1,0.9-2.2,2.7c-1.3,1.9-2.3,4.1-2.3,4.7l0,0c0,0.6,1.1-0.6,2.3-2.7
			C21.5,263.5,22.2,261.8,21.9,261.6C22,261.6,21.9,261.6,21.9,261.6L21.9,261.6z"/>
	</g>
	<g>
		<path class="st0" d="M27,266.6l-3,3.5c-1.7,1.9-3,4-3,4.6c0,1.3,0,1.3,3.4-4L27,266.6z"/>
		<path class="st0" d="M27.7,271c0,0-0.1,0-0.1,0c-0.2,0-0.5,0.2-0.8,0.4c-1.2,0.8-5.9,9.3-5.9,10.8c0,0.5,1.6-1.6,3.5-4.7
			C27.3,272.9,28.3,271.1,27.7,271L27.7,271z"/>
		<path class="st0" d="M27.9,276.7c-0.7,0.1-5.8,8.7-5.8,9.9c0,0.6,1.3-1.1,2.9-3.9c1.6-2.8,2.9-5.5,2.9-5.9
			C27.9,276.7,27.9,276.7,27.9,276.7L27.9,276.7z"/>
		<path class="st0" d="M31,279.5c-0.4,0.1-0.8,0.7-1.1,1.5c-0.6,1.7-0.5,1.8,0.7,0.7c0.8-0.8,1.2-1.7,0.8-2.1
			C31.2,279.5,31.1,279.4,31,279.5z"/>
	</g>
	<g>
		<path class="st0" d="M34.3,289.6c-0.6,0-4,7.6-4,9c0,1.4,0.9,0,2.8-4.6C34.1,291.6,34.6,289.6,34.3,289.6z"/>
		<path class="st0" d="M45.9,296.6c-12.6,0-11.7,1.9,1.3,2.8c10.6,0.7,13.7,2.7,17.3,11.1c1.2,2.8,2.7,5,3.3,5
			c2.3,0-3.2-11-7.4-14.8C56.2,296.7,55.8,296.6,45.9,296.6z"/>
	</g>
	<g>
		<path class="st0" d="M47.5,313.5c-0.8,0-5.4,8.2-5.4,9.6c0,0.3,0.3,0.6,0.6,0.6C43.6,323.7,48.2,314.1,47.5,313.5
			C47.5,313.5,47.5,313.5,47.5,313.5L47.5,313.5z"/>
		<path class="st0" d="M50.1,314.6c-0.2,0-1.4,2-3.4,6.1c-2.5,5.2-3,7.2-2,7.9v0c2,1.2,2,1.2,1.3-0.7c-0.4-0.9,0.5-4.2,1.8-7.2
			C49.7,316.6,50.4,314.6,50.1,314.6L50.1,314.6z"/>
		<path class="st0" d="M54.2,314.6c-0.9-0.1,0.1,2.2,2.7,5.9c1.7,2.5,3.3,4.2,3.6,3.9c0.8-0.8-2.6-7.1-4.8-9
			C55,315,54.5,314.7,54.2,314.6z"/>
		<path class="st0" d="M51.2,318.5c-0.3,0-0.8,0.6-1.4,1.7c-0.9,1.6-1.7,3.7-1.7,4.7c0,1,0.7,0.5,1.7-1.2c0.9-1.6,1.7-3.7,1.7-4.7
			C51.4,318.6,51.3,318.5,51.2,318.5z"/>
		<path class="st0" d="M72,319.3c0,0-0.1,0-0.1,0.1c-0.3,0.3-0.2,1.7,0.2,3.1c0.4,1.4,1.1,2.3,1.4,1.9c0.3-0.3,0.2-1.7-0.2-3.1
			C72.9,320.1,72.4,319.3,72,319.3z"/>
		<path class="st0" d="M32.8,320.8C32.8,320.8,32.8,320.9,32.8,320.8c-0.3,0.3,0.4,1.6,1.6,2.9c2.9,3.2,3.5,3,0.9-0.5
			C34.4,321.9,33.3,320.9,32.8,320.8C32.9,320.8,32.9,320.8,32.8,320.8z"/>
		<path class="st0" d="M40.9,329.6c0,0.1,0.5,0.7,1.7,2.1c1.2,1.5,3.4,2.6,4.7,2.5c2.4-0.1,2.4-0.2,0.1-0.7
			c-1.3-0.3-3.4-1.4-4.7-2.5C41.5,330,40.9,329.5,40.9,329.6z"/>
		<path class="st0" d="M71.6,330.8c-1.2,0.1-3.6,2.9-3.6,4.6c0,1.4,0.6,1.2,2.3-1c1.2-1.6,2-3.1,1.8-3.4
			C71.9,330.8,71.8,330.8,71.6,330.8z"/>
		<path class="st0" d="M59.3,332c-1,0-2.1,0.5-2.5,1.2c-0.4,0.6,0.1,1.2,1,1.2c1,0,2.1-0.5,2.5-1.2C60.7,332.5,60.3,332,59.3,332z"
			/>
	</g>
	<g>
		<path class="st0" d="M71,170.7c-3.1,0-4.5,3.3-3.7,9.1c1.1,7.8,4,17.8,6.2,21.1c1,1.5,2.3,2.8,2.8,2.8c1.1,0,0.1-3-3.2-9.4
			c-2.6-5.1-3.5-15.2-1.8-20C72.3,171.5,72.2,170.7,71,170.7z"/>
		<path class="st0" d="M86.1,170.7c-1.1,0-1.3,5.7-0.5,11.5c0,0.2,0.6,0,1.3-0.4c0.7-0.4,0.9-2.2,0.5-4.2c-0.9-4.3,0-4.4,2.3-0.2
			c1,1.8,1.8,2.6,1.8,1.9C91.6,177.1,87.5,170.7,86.1,170.7z"/>
		<path class="st0" d="M80.9,180.1c-0.2,0-0.7,0.4-1.3,0.9c-0.7,0.7-1,2.2-0.6,3.2c1.1,2.8,3.2,2.2,2.6-0.8
			c-0.3-1.5-0.5-2.9-0.6-3.2C81,180.1,81,180.1,80.9,180.1z"/>
		<path class="st0" d="M91.2,190.8L91.2,190.8c-0.1,0-0.3,0.6-0.5,1.7c-0.6,2.3-0.6,2.3-1.4,0.1c-0.7-2-1.2-1.8-4,2.3
			c-1.7,2.5-3.1,5-3.1,5.5c0,0.5,0.5,0.9,1.2,0.9c0.6,0,1.2-0.5,1.2-1.2c0-0.6,0.6-1.2,1.4-1.2c2.4,0,5.7-3.8,5.5-6.4
			C91.3,191.4,91.3,190.8,91.2,190.8L91.2,190.8z"/>
	</g>
	<g>
		<path class="st0" d="M82.4,246c-0.6,0-3.9,3.7-7.4,8.2c-4.2,5.4-6.7,7.7-7.3,6.8c-1.6-2.6-1-10.3,1.3-14.7
			c1.2-2.4,2.2-4.9,2.1-5.5c-0.1-0.6,1.6-1.6,3.8-2.1c3.4-0.9,4.2-1.5,2.8-1.5c-0.8,0-2.5,0.1-4.7,0.6c-5.2,0.9-10.1,4.3-9,6.1
			c0.3,0.6-0.2,2.2-1.2,3.6c-3.6,5.1-1.4,13.6,4.4,17.3c2,1.3,3,2.4,2.2,2.4c-0.8,0-1.2,0.5-0.8,1.2c0.8,1.4,2.2,1.5,3.3,0.4
			c0.4-0.4-0.1-1.8-1.2-3c-1.9-2.1-1.8-2.4,1.6-6C77.8,253.9,83.6,246,82.4,246z M65,254.6c0,3.1,0,5.6-0.1,5.6
			c-1,0-1.7-2.6-1.7-6.4c0-3.7,0.8-5.8,3.6-8.9l3.6-4.1l-2.7,4.1C65.9,247.7,65,250.7,65,254.6z"/>
		<g>
			<polygon class="st0" points="78.2,241.6 78.2,241.6 78.2,241.6 			"/>
			<path class="st0" d="M78.4,244.4c-1,0.6-1.1,0.2-0.5-1.4c0.3-0.8,0.5-1.3,0.3-1.4c0,0,0,0-0.1,0c-0.4,0.2-1.9,2-5.2,6.4
				c-2.1,2.8-3.5,5.7-3.1,6.6c0.4,1,0.1,2.1-0.6,2.5c-0.7,0.4-1.3,1.3-1.3,1.9c0,2.1,1,1.1,6.4-6.5
				C79.9,244.9,80.8,242.9,78.4,244.4z M74.4,250.1c-4.3,5.6-4.9,5.3-1-0.5c1.6-2.4,3.2-4.2,3.6-4.2c0,0,0,0,0,0h0c0,0,0,0,0,0
				c0,0,0.1,0,0.1,0C77.4,245.6,76.2,247.8,74.4,250.1z"/>
		</g>
		<path class="st0" d="M91.8,246.2c-0.3,0-0.1,0.5,0.3,1.6c0.5,1.3,1.2,3.9,1.4,5.9c0.3,1.9,0.7,4.3,1,5.2c0.3,0.9,0.8,1.4,1.1,1.1
			c1-1-1.5-11.7-3-13.1C92.2,246.4,91.9,246.2,91.8,246.2z"/>
		<path class="st0" d="M84.1,250.1c-0.2,0-1.3,1-3.1,3c-2.7,2.9-5.4,6.4-6.1,7.7c-1.5,2.9,5.2-4.5,8.5-9.4
			C84,250.5,84.2,250.1,84.1,250.1z"/>
		<path class="st0" d="M86.5,252.5L86.5,252.5c-1,0.1-9.5,10.7-10.2,12.7c-0.3,0.8,2-1.6,5.1-5.4C84.5,256,86.9,252.7,86.5,252.5
			C86.6,252.5,86.5,252.5,86.5,252.5L86.5,252.5z"/>
		<path class="st0" d="M59.1,256c-0.2-0.1-0.4,0.6-0.4,1.8c0,1.6,0.3,2.3,0.6,1.5c0.3-0.8,0.3-2.1,0-2.9
			C59.3,256.1,59.2,256,59.1,256z"/>
		<path class="st0" d="M86.4,258.2c-0.8-0.1-5.5,6.8-5.5,8.2c0,1.6,1.1,0.6,3.6-3.4C85.9,260.7,86.8,258.6,86.4,258.2
			C86.5,258.3,86.5,258.2,86.4,258.2L86.4,258.2z"/>
		<path class="st0" d="M60,262.3c-0.1,0-0.2,0.1-0.2,0.3c-0.1,3.2,5.1,9.8,9.4,11.9c4.5,2.3,4.7,2.3,4.7,1.5c0-0.3-2-1.6-4.6-2.9
			c-3.1-1.6-5.3-3.9-7-7.4C61.3,263.7,60.4,262.4,60,262.3z"/>
		<path class="st0" d="M76.9,269.6c-1,0-1.8,0.5-1.8,1.2c0,0.6,0.5,1.2,1.1,1.2s1.4-0.5,1.8-1.2C78.4,270.1,77.9,269.6,76.9,269.6z"
			/>
		<path class="st0" d="M91.4,270.3L91.4,270.3c-0.4-0.1-2.3,0.8-4.6,2.3c-2.6,1.7-4.7,3.3-4.7,3.5c0,1,1.9,0.3,5.5-2.2
			c2.1-1.5,3.9-3.1,3.9-3.5C91.5,270.4,91.5,270.3,91.4,270.3L91.4,270.3z"/>
		<path class="st0" d="M111.9,288.9c-0.1,0-0.2,0-0.4,0.1c-0.6,0.4-1.2,1.2-1.2,1.8c0,1.7,0.8,1.3,1.6-0.7
			C112.3,289.3,112.3,288.9,111.9,288.9L111.9,288.9z"/>
		<path class="st0" d="M115.5,292.4c-0.1,0-0.2,0-0.4,0.1c-0.6,0.4-1.2,1.2-1.2,1.8c0,1.7,0.8,1.3,1.6-0.7
			C115.8,292.9,115.8,292.4,115.5,292.4L115.5,292.4z"/>
	</g>
	<g>
		<path class="st0" d="M139.6,315.7c-2.6-0.1-6.3,2.1-9.9,6c-2.8,3-3.2,3.7-1,1.8c1.9-1.7,5.9-3.9,8.7-4.8c2.8-0.9,4.6-2.1,3.9-2.5
			C140.7,315.9,140.2,315.8,139.6,315.7z"/>
		<path class="st0" d="M141.8,320.4c-1.8,0-0.1,1.4,4.7,3.4c8.2,3.5,9.5,5.1,10.4,13c0.9,7.8,2.2,8.9,3.2,2.8
			c1.3-8.2-5.6-16.6-15.4-18.8C143.4,320.5,142.4,320.4,141.8,320.4z"/>
		<path class="st0" d="M121.8,332.3c-0.2,0-0.5,0.4-1,1.2c-1.5,2.5-0.4,9.7,2,13.4c0.9,1.5,2.5,2.6,3.4,2.6c1.3,0,1-1.2-1.2-5.5
			c-1.6-3-2.9-7.1-2.9-9.1C122.1,333.2,122,332.4,121.8,332.3z"/>
		<path class="st0" d="M150.1,334.3c-0.7,0-0.8,0.9-0.3,2.1c0.5,1.1,1.1,3,1.4,4.1c0.5,1.7,2.7,3,2.7,1.6
			C153.9,340.2,151.1,334.3,150.1,334.3z"/>
		<path class="st0" d="M136.9,333.8c-2.4,3.2-2.2,0.5,0.2-2.9c1.1-1.5,1.4-2.4,0.6-2c-0.8,0.5-2.7,3.2-4.4,6.1
			c-1.7,2.9-3.3,5.2-3.6,5.2s-0.4-1.6-0.2-3.4c0.1-1.9,0.8-3.1,1.4-2.7c0.7,0.4,0.8-0.2,0.3-1.5c-0.5-1.2-0.5-1.8,0-1.4
			c0.5,0.5,1.6-0.3,2.5-1.6c0.9-1.3,1.4-2.7,1-3.1c-0.4-0.4,0.4-1.7,1.8-2.9c1.4-1.2,1.9-2.2,1.2-2.2h0c-1.9,0-10.8,9.7-10.9,11.8
			c0,1.6-0.2,1.6-1.3,0c-2.5-3.6,0.4,4.1,3.3,8.7h0c3,4.7,4.6,4.6,5.6-0.4c0.3-1.5,1.3-3.9,2.3-5.5
			C139.1,332.4,139.1,330.8,136.9,333.8z M132.2,328.1c0.3-0.9,0.8-1.5,1.1-1.5c0.1,0,0.2,0,0.3,0.1c0.4,0.4,0,1.3-0.8,2.1
			C131.7,329.9,131.6,329.8,132.2,328.1z M132.8,340.4c-3,3.6-3,1.3,0-2.5c0.9-1.2,1.8-1.9,2.1-1.9h0c0.1,0,0.2,0.1,0.2,0.3
			C135.1,337,134,338.8,132.8,340.4z"/>
		<path class="st0" d="M139.9,337.2l-2.4,2.9c-2.7,3.3-3.2,7.8-0.9,8.6c2.2,0.8,2.8-0.3,0.9-1.5c-1.4-0.9-1.4-1.7,0.4-5.5
			L139.9,337.2z"/>
		<path class="st0" d="M152.2,344.2c-0.4,0.1-0.8,0.7-1.1,1.5c-0.6,1.7-0.5,1.8,0.7,0.7c0.8-0.8,1.2-1.7,0.8-2.1
			C152.4,344.2,152.3,344.2,152.2,344.2z"/>
		<path class="st0" d="M146.3,349.6c-1,0-1.6,0.5-1.2,1.2c0.4,0.6,0.9,1.2,1.2,1.2c0.2,0,0.8-0.5,1.2-1.2
			C147.8,350.1,147.3,349.6,146.3,349.6z"/>
		<path class="st0" d="M136.3,353.2c-0.7,0-1.3,0.5-0.9,1.4c0.3,0.8,2,1.8,3.9,2.2c5.2,1.1,6.8,1.1,8.7-0.2c1.3-0.8,0.2-1.1-3.8-1.2
			c-3,0-5.8-0.5-6.2-1.2C137.6,353.6,136.9,353.2,136.3,353.2z"/>
		<path class="st0" d="M153.8,354c0,0-0.1,0-0.2,0.1c-0.9,0.7-3.1,4-4.9,7.3c-4.5,8.3-3,7.4,2.2-1.4C153,356.5,154.2,354,153.8,354z
			"/>
		<path class="st0" d="M156.5,357.3c-0.1,0-0.2,0-0.3,0.2c-0.9,0.8-2.6,3-3.8,5c-3.1,5.4-1.6,4.4,2.2-1.4
			C156,358.8,156.8,357.3,156.5,357.3z"/>
		<path class="st0" d="M157.2,360.5c-0.5,0.1-1.8,2-3.4,5c-0.9,1.8-0.7,1.8,1.2-0.4c1.3-1.5,2.4-3.4,2.4-4.1
			C157.4,360.7,157.4,360.5,157.2,360.5C157.2,360.5,157.2,360.5,157.2,360.5L157.2,360.5z"/>
		<path class="st0" d="M163.1,361.6c-0.2,0-0.6,0.3-0.9,0.9c-0.6,1-1.1,2.3-1.1,2.9c0,0.6,0.5,0.4,1.1-0.6c0.6-1,1.1-2.3,1.1-2.9
			C163.3,361.7,163.2,361.6,163.1,361.6z"/>
		<path class="st0" d="M175.2,363.7c-0.7,0-1.2,0.5-1.2,1.2c0,0.6,0.2,1.2,0.5,1.2c0.3,0,0.8-0.5,1.2-1.2
			C176.1,364.3,175.8,363.7,175.2,363.7z"/>
	</g>
	<g>
		<path class="st0" d="M181.4,277.5L181.4,277.5c-1.1,0-2.3,0.1-3.5,0.4c-2.5,0.7-5,1.7-5.6,2.3c-2,1.9,0.3,2.6,4.2,1.2
			c3-1.1,4.3-1,6.2,0.4c3.2,2.3,6.7,2.4,5.8,0.1C187.4,279.3,184.7,277.6,181.4,277.5L181.4,277.5z"/>
		<path class="st0" d="M195.1,283.7c-0.6,0-1.2,0.5-1.2,1.2c0,0.6,0.5,1.2,1.2,1.2c0.6,0,1.2-0.5,1.2-1.2
			C196.3,284.2,195.7,283.7,195.1,283.7z"/>
	</g>
	<g>
		<path class="st0" d="M289.5,345.7c-0.1-0.5-0.1-1.7-0.2-2.8s-0.1-2-0.2-2.1c-0.1-0.1-0.1-0.2,0-0.4c0.1-0.1,0-0.5,0-0.7
			c-0.1-0.5-0.1-0.5-1.3-0.3c-2,0.2-5.2,0.1-10.8-0.4c-0.6-0.1-1.4-0.1-1.9-0.2c-0.5,0-1.2-0.1-1.6-0.2c-0.2,0-0.4-0.1-0.5-0.1h0
			c-0.2,0-0.4,0.1-0.6,0.2c-0.3,0.3-0.4,0.5-0.3,4.6c0,2.4,0.1,4.5,0.1,4.7c0.2,0.7,0.4,5.4,0.5,8.5c0,0.4,0.9,0.7,2.5,0.8
			c0.6,0.1,1.2,0.1,1.3,0.2c0.1,0,0.5,0.1,0.9,0.2c0.4,0.1,1,0.3,1.3,0.3c0.9,0.1,8-0.1,8-0.2c0,0,0.3-0.1,0.7-0.1
			c0.4,0,0.8-0.2,0.9-0.3s0.4-0.2,0.6-0.2s0.5-0.1,0.5-0.3C289.9,356.1,289.8,348,289.5,345.7z M288.4,356c-0.3,0-0.5,0.1-0.6,0.3
			c-0.1,0.2-0.4,0.3-0.7,0.4c-0.3,0-1,0.1-1.6,0.2c-2.8,0.3-6.8,0.1-8-0.3c-0.2-0.1-0.7-0.2-1.3-0.2c-0.6,0-1.3-0.2-1.7-0.2
			c-0.7-0.2-0.7,0.2-0.8-3.6c-0.1-2.5-0.2-4-0.4-5c-0.1-0.9-0.1-7.6,0-7.8c0-0.1,0.1-0.1,0.2-0.1h0c0.1,0,0.2,0,0.4,0.1
			c0.2,0.1,0.6,0.2,0.8,0.2c0.4,0,2.8,0.2,3.6,0.3c1.4,0.2,3.3,0.3,6.4,0.3c1.9,0,3.5,0.1,3.6,0.1c0.1,0.1,0.2,1.5,0.2,3.2
			s0.2,3.2,0.2,3.4c0.1,0.4,0.2,1.2,0.2,4.4C288.9,355.9,288.9,356,288.4,356z"/>
		<path class="st0" d="M283.8,341.3c-0.1,0-0.2,0.1-0.4,0.2c-0.3,0.3-0.4,0.5-0.3,1.3c0.1,0.9,0.1,1-0.3,1.1l-0.4,0.1l0.5,0.4
			c0.3,0.2,0.4,0.5,0.4,0.7c-0.1,0.3,0.4,0.8,0.8,0.8c0.1,0,0.2-0.2,0.2-0.5c0-0.5,0.1-0.6,0.5-0.3c0.2,0.1,0.2,0.4,0.2,0.9
			c-0.1,0.7-0.1,0.8,0.2,0.8c0.4,0,0.9-0.5,0.8-0.8c-0.1-0.1,0-0.5,0.2-0.9c0.2-0.4,0.2-0.6,0.1-0.7c-0.1-0.1-0.2-0.6-0.3-1.2
			c0-0.7-0.1-1.1-0.3-1.2c-0.3-0.1-0.6,0.6-0.7,1.4c-0.1,0.8-0.9,0.7-1-0.1c0-0.2,0-0.6-0.1-1c0-0.4-0.1-0.8-0.2-0.9
			C283.9,341.3,283.9,341.3,283.8,341.3L283.8,341.3z"/>
		<path class="st0" d="M281.9,345.2c-0.4-2.6-0.9-3.2-2.7-3.6c-0.2,0-0.6-0.1-1-0.1c-1.2,0-2.8,0.2-3.2,0.4
			c-0.4,0.2-0.4,0.6,0.2,0.8c0.5,0.2,0.7,0.9,0.8,3.2c0.1,1.1,0.1,1.1-0.5,1.3c-0.3,0.1-0.6,0.2-0.7,0.3c-0.1,0.2,0.3,0.5,0.9,0.6
			c0.3,0,0.5,0.1,0.6,0.2c0.1,0.1,0.1,1.4,0.1,2.9c0,2.2,0.1,2.8,0.3,3.1c0.4,0.4,0.9,0.3,0.8-0.2c-0.1-0.7-0.1-6.1,0-6.1
			c0,0,0.4-0.1,0.8-0.2c2-0.3,2.9-0.6,3.4-1.2C282,346.3,282,346.1,281.9,345.2z M279.2,346.6c-0.8,0.1-1.5,0.3-1.7,0.3
			c-0.3,0.1-0.4-0.1-0.5-1.6c-0.1-0.7-0.2-1.5-0.3-1.8c-0.2-0.5-0.2-0.7,0-0.8c0.2-0.1,0.5-0.2,1-0.2h0h0c0,0,0,0,0,0
			c0.5,0,1,0.1,1.6,0.2c1,0.2,1.2,0.4,1.5,2.1C281.1,346.2,281,346.4,279.2,346.6z"/>
		<path class="st0" d="M287,351.6c0.4-0.1-0.1-0.7-0.7-0.8c-0.5-0.1-0.7-0.2-0.8-0.6c-0.2-0.7-0.9-1.9-1.5-2.5
			c-0.2-0.2-0.3-0.3-0.5-0.3c-0.3,0-0.5,0.3-0.7,1.1c-0.3,1.3-0.6,1.8-0.9,1.8c-0.2,0-0.5,0.2-0.7,0.4c-0.3,0.3-0.3,0.4-0.1,0.6
			c0.1,0.1,0.4,0.2,0.5,0.2c0.2,0,0.2,0.1,0.1,0.2c-0.3,0.4-1.4,2.4-1.4,2.6c0,0.1,0.1,0.3,0.2,0.5c0.3,0.3,0.4,0.3,0.8-0.5
			c0.2-0.4,0.5-0.8,0.6-0.8c0.1-0.1,0.2-0.3,0.2-0.5c0-0.2,0.1-0.4,0.2-0.4c0.1,0,0.2-0.2,0.2-0.4c0-0.5,0.4-0.7,1.3-0.7
			c1.1,0,1.1,0.1,1.1,0.3c0,0.1,0.2,0.4,0.4,0.6c0.2,0.2,0.4,0.5,0.4,0.6c0,0.2,0.2,0.5,0.3,0.7c0.3,0.4,0.4,0.4,0.7,0.2
			c0.3-0.3,0.3-0.3-0.1-1.1C286.3,352,286.4,351.9,287,351.6z M284.6,350.7c-0.1,0-0.4-0.1-0.7-0.1c-0.5-0.1-0.5-0.1-0.4-0.6
			c0.1-0.4,0.2-0.6,0.3-0.6c0.1,0,0.3,0.2,0.5,0.6C284.5,350.4,284.7,350.7,284.6,350.7z"/>
	</g>
	<g>
		<path class="st0" d="M251.4,326.8c-0.8,0-1.6,0.2-2.3,0.6c-1.3,0.8-1.2,1,0.4,1c1.1,0,3.5,1.3,5.3,2.9c3.6,3.1,5.3,1.9,2.2-1.6
			C255.3,327.8,253.2,326.8,251.4,326.8z"/>
		<path class="st0" d="M241.6,327.3c-0.6,0-2,0.5-2.9,1.1c-1,0.6-1.2,1.1-0.6,1.1s2-0.5,2.9-1.1C242,327.8,242.2,327.3,241.6,327.3z
			"/>
		<path class="st0" d="M234.5,329.6c-0.6,0-2.7,1.3-4.6,2.9c-4.6,3.8-3.4,3.8,1.8,0C233.8,330.9,235.1,329.6,234.5,329.6
			L234.5,329.6z"/>
		<path class="st0" d="M246.9,333.1c-1.8,0-3.5,0.4-4.7,1.2c-1.3,0.8,0,1.1,4.4,1.2c3.4,0,6.2,0.5,6.2,1.2l0,0
			c0,0.6,0.9,1.2,1.9,1.2c1.8,0,1.7-0.2-0.2-2.4C253.1,333.9,249.9,333,246.9,333.1L246.9,333.1z"/>
		<path class="st0" d="M243.4,337.3c-1.3,0.2-9.5,10.9-9.5,12.7c0,0.4,0.7,0.7,1.5,0.5c2.7-0.5,9.8-12.1,8.1-13.1
			C243.5,337.3,243.5,337.3,243.4,337.3z"/>
		<path class="st0" d="M248.9,338.3c-0.9,0.2-8.7,9.8-10.7,13.4l0,0c-0.5,0.8-0.6,1.5-0.2,1.5C238.9,353.1,249.5,338.9,248.9,338.3
			C248.9,338.3,248.9,338.3,248.9,338.3L248.9,338.3z"/>
		<path class="st0" d="M231.8,353c-0.3,0.8-1,1.1-1.6,0.7c-0.6-0.4,0.5-3.7,2.5-7.4c1.6-3,2.5-4.8,2.1-4.7c-0.1,0-0.2,0.2-0.4,0.4
			c-1.1,1.3-2.4,2.2-3,2.1c-0.6-0.1-2.1,1.3-3.5,3.2c-1.6,2.3-3.1,3.2-4.3,2.7c-1.5-0.6-1.8-0.1-1.4,2.9c0.5,3.4,0.4,3.5-2.2,2.3
			c-3.1-1.4-4.4-5.3-3.4-10l0.7-3.2l-1.9,3.5c-1.8,3.3-1.8,3.7,0.7,8.4c1.4,2.7,3.7,5.4,5.1,6c4,1.8,10.7-0.5,13-4.4
			c1.1-1.8,2-3.6,2-3.9C236.3,350.4,232.3,351.6,231.8,353z M228.1,350.1c0-0.6,0.8-2.2,1.7-3.5c0.6-0.8,1.2-1.3,1.5-1.4
			c0,0,0.1,0,0.1,0c0.1,0,0.1,0.1,0.1,0.3c0,0.6-0.8,2.2-1.7,3.5C228.8,350.2,228.1,350.7,228.1,350.1z"/>
		<path class="st0" d="M255.5,342.3c-0.2-0.3-0.4-0.5-0.7-0.5c-0.4,0-1,0.4-1.5,1.2c-0.8,1.1-2.1,1.9-2.9,1.9c-1.5,0-4.6,3.3-4.7,5
			c0,0.5,1,0.9,2.2,0.9C250.6,350.8,256.6,344,255.5,342.3z M249.4,347.5c-1.5,2-2.5,2.6-2.5,1.6c0-0.2,0.9-1.2,2.1-2.1
			c0.9-0.7,1.4-1.1,1.5-1C250.5,346.1,250.1,346.6,249.4,347.5z"/>
		<path class="st0" d="M238,354.7c-0.4,0.1-1.1,0.6-1.7,1.3c-0.9,1.1-1,1.8-0.2,1.8c1.4,0,3.1-2.2,2.3-3c0,0-0.1-0.1-0.1-0.1
			C238.2,354.7,238.1,354.7,238,354.7z"/>
	</g>
	<g>
		<path class="st0" d="M281.3,280.3L281.3,280.3l-3.2,0.1l2.9,0.9c1.6,0.5,3.1,1,3.2,1.1c0.2,0.1,0.3-0.4,0.3-1.1
			C284.5,280.7,283.1,280.2,281.3,280.3L281.3,280.3z"/>
		<path class="st0" d="M276.8,282c-0.4,0-1.4,0.6-3.4,1.8c-2.3,1.3-4.1,3-4.1,3.6c0,0.6,0.5,0.8,1.2,0.4c0.7-0.4,1.2,0.6,1.2,2.3
			c0,1.7,0.5,3,1.1,3c0.6,0,0.8-1.5,0.4-3.5c-0.4-2.2-0.2-3.5,0.6-3.5c0.7,0,1.8-1,2.5-2.3C276.9,282.6,277.2,282,276.8,282z"/>
		<path class="st0" d="M294.9,289.7c-0.1,0-0.7,0.5-1.7,1.4c-1.3,1.1-3.5,4.3-5,7.1c-1.5,2.8-1.9,4-0.9,2.7c1-1.3,2.2-2.9,2.7-3.5
			c0.5-0.6,1.9-2.8,3.2-4.7C294.5,290.6,295.1,289.7,294.9,289.7z"/>
		<path class="st0" d="M269,295.8c-0.7,0-0.5,0.2,0.3,0.8c1,0.7,2.8,1.2,4,1.2c3,0,2.1-0.6-2.3-1.6C270,296,269.4,295.8,269,295.8z"
			/>
	</g>
	<g>
		<path class="st0" d="M348.9,120.4c-0.8,0-1.1,0.8-0.3,2c0.4,0.7,1.7,1.3,2.7,1.3c1.8,0,1.8-0.2,0-2
			C350.4,120.7,349.5,120.3,348.9,120.4L348.9,120.4z"/>
		<path class="st0" d="M338.1,124.8l2.9,1.7c3.6,2.2,5,2.3,4.4,0.4c-0.3-0.8-2-1.6-3.9-1.8L338.1,124.8z"/>
		<path class="st0" d="M301.9,162.5c-0.7,0-0.6,0.7,0.3,1.8c0.8,1,1.6,1.8,1.9,1.8s0.1-0.8-0.3-1.8
			C303.4,163.3,302.6,162.5,301.9,162.5z"/>
		<path class="st0" d="M296.6,165.5c-0.2,0-0.3,0.3-0.3,1c0,1.2,0.9,3.2,1.9,4.4c2.9,3.2,3.2,1.8,0.5-2.7
			C297.6,166.4,297,165.5,296.6,165.5z"/>
		<path class="st0" d="M376.1,168c-0.3,0-0.9,0.9-1.6,2.6c-0.9,2.2-1.7,4.3-1.7,4.7c0.1,1.5,3.4-5.2,3.4-6.9
			C376.3,168.1,376.2,168,376.1,168z"/>
	</g>
	<g>
		<path class="st0" d="M449.3,10.6c0-0.1-0.5,0.2-1.3,0.9c-1,0.8-2.3,1.1-2.8,0.6c-0.5-0.5-0.6-0.2-0.1,0.6c1.1,1.9,1.3,1.9,3.2-0.6
			C449,11.2,449.4,10.7,449.3,10.6z"/>
		<path class="st0" d="M452.1,12.3c-0.1,0-0.2,0-0.4,0.1c-0.6,0.4-1.2,1.2-1.2,1.8c0,1.7,0.8,1.3,1.6-0.7
			C452.4,12.7,452.4,12.3,452.1,12.3L452.1,12.3z"/>
		<path class="st0" d="M444.2,19c-2.5,0.1-2.5,0.1,0.1,1.4c1.8,0.9,2.6,2.3,2.6,4.4c0,1.7,0.4,3.6,0.9,4.1c1.5,1.5,1.7-6.4,0.2-8.2
			C447.3,19.6,445.6,18.9,444.2,19z"/>
		<path class="st0" d="M459.8,20.1c-0.6,0-0.8,0.5-0.4,1.2c0.4,0.6,1.3,1.2,1.9,1.2c0.6,0,0.8-0.5,0.4-1.2
			C461.3,20.6,460.4,20.1,459.8,20.1z"/>
		<path class="st0" d="M479.4,23c0,0-0.1,0-0.1,0c-0.3,0.1-0.6,0.7-0.8,1.7c-0.5,2-0.4,2.4,0.5,1.5c0.7-0.7,1-1.9,0.7-2.8
			C479.6,23.2,479.5,23,479.4,23L479.4,23z"/>
		<path class="st0" d="M484.2,23.9c-0.1-0.1-0.6,0.2-1.3,0.8c-2.2,1.8-2.4,4-0.3,2.8c0.9-0.5,1.1-0.4,0.5,0.2
			c-0.5,0.6-1.5,1.1-2.1,1.2c-0.6,0.1-1.6,0.2-2.3,0.3c-0.7,0.1-0.9,0.6-0.6,1.2c1,1.7,5.3,0.1,6.7-2.5c1-1.8,0.9-2.1-0.2-1.4
			c-1.1,0.7-1.3,0.3-0.7-1.2C484.2,24.5,484.3,24,484.2,23.9z"/>
		<path class="st0" d="M453.8,25.5c-0.8,0-1.6,0.4-2.2,1.1c-1.2,1.4-1.1,1.6,0.4,1c1-0.4,2.2-0.1,2.6,0.6c1.1,1.7,1.8,1.6,1.8-0.4
			C456.4,26.3,455.2,25.5,453.8,25.5z"/>
		<path class="st0" d="M485.3,30.6c-0.3,0-0.8,0.5-1.2,1.2c-0.4,0.6-0.2,1.2,0.5,1.2s1.2-0.5,1.2-1.2
			C485.8,31.2,485.6,30.6,485.3,30.6z"/>
		<path class="st0" d="M488.2,33c-0.7,0-1.2,0.5-1.2,1.2c0,0.6,0.2,1.2,0.5,1.2c0.3,0,0.8-0.5,1.2-1.2C489.1,33.5,488.9,33,488.2,33
			z"/>
		<path class="st0" d="M461.7,47.1c-1.7,0-3,0.5-3,1.2c0,0.6,1,1.2,2.3,1.2s2.6-0.5,3-1.2C464.4,47.6,463.5,47.1,461.7,47.1z"/>
		<path class="st0" d="M464.1,53.6c-0.4,0-0.9,0.3-1.4,0.7c-0.9,0.8-1.3,1.9-1,2.5c0.4,0.7,1.4,0.5,2.3-0.3c0.9-0.8,1.3-1.9,1-2.5
			C464.9,53.7,464.6,53.5,464.1,53.6z"/>
		<path class="st0" d="M452.9,60.8l-2.4,2.5c-3,3.2-2.9,3.5,0.3,4.1c1.5,0.3,3,0.6,3.3,0.7c0.4,0.1,1.6-0.8,2.7-2
			c1.9-2.1,1.9-2.2-0.3-2.8c-1.5-0.4-2.5,0.1-2.9,1.3c-0.3,1.2-0.6,0.8-0.7-0.9L452.9,60.8z"/>
		<path class="st0" d="M467,67.4L467,67.4c-0.5,0-1,0.3-1.7,0.9c-1,0.8-1.8,2.2-1.8,3.1c0,1.8,1.4,1.9,5.9,0.4l2.9-0.9l-3.3-0.1
			c-1.9-0.1-3-0.6-2.6-1.3c0.4-0.7,1.4-0.8,2.1-0.4c1,0.6,1,0.4,0-0.8C467.9,67.7,467.5,67.4,467,67.4L467,67.4z"/>
	</g>
	<g>
		<path class="st0" d="M494.9,55.4c-0.8,0-0.7,0.5,0.4,1.2c2.3,1.5,2.7,1.5,1.8,0C496.6,55.9,495.6,55.4,494.9,55.4z"/>
		<path class="st0" d="M491.1,55.4c-0.6,0-2.5,1.1-4.1,2.4c-2,1.6-2.2,2-0.6,1.2C490.2,57,492.4,55.4,491.1,55.4z"/>
		<path class="st0" d="M497,58.6l-5.7,4c-3.1,2.2-6.8,4.6-8.2,5.4c-2.5,1.4-2.5,1.5,0.4,1.4c3.2,0,4.7-1.1,10-6.9L497,58.6z"/>
		<path class="st0" d="M492.6,67.1c-0.2,0-0.4,0.4-1,1.2c-0.6,1-1.1,2.6-1.1,3.5c0,1.6,0.1,1.6,1.1,0c0.6-1,1.1-2.6,1.1-3.5
			C492.8,67.5,492.8,67.1,492.6,67.1z"/>
		<path class="st0" d="M477.6,68.3c-0.9,0-0.9,0.8,0.1,2.5c0.7,1.4,1.6,2.2,2,1.8C480.5,71.6,479,68.3,477.6,68.3z"/>
		<path class="st0" d="M486.8,76.6c-0.3,0-0.9,1-2.1,3.5c-1.3,2.8-1.3,2.8,0.4,0.7c1-1.3,1.8-2.8,1.8-3.4
			C487,76.8,486.9,76.6,486.8,76.6z"/>
		<path class="st0" d="M486.5,82.9c-0.5-0.1-1.3,0.8-2,2.1c-1.3,2.6-1.3,2.7,0.7,0.7c1.2-1.1,1.8-2.4,1.4-2.7
			C486.7,82.9,486.6,82.9,486.5,82.9z"/>
		<path class="st0" d="M488.6,84c-0.2,0-0.3,0.4-0.3,1.3c-0.1,1.2,0.2,1.9,0.6,1.5c0.4-0.4,0.4-1.4,0.1-2.3
			C488.8,84.2,488.7,84,488.6,84z"/>
	</g>
	<g>
		<path class="st0" d="M402.1,16.5c-1.6,0-2.6,3.2-1.7,5.4c0.8,2.1,3.2,1.8,9.9-0.9c2.7-1.1,4.1-1.2,4.7-0.3
			c1.1,1.7,11.3,3.3,10.3,1.7c-0.4-0.7-2.3-1.2-4.2-1.2c-1.9,0-3.5-0.5-3.5-1.2c0-0.6,0.5-1.2,1.2-1.2c0.6,0,1.2-0.5,1.2-1.1
			c0-1.4-7.9-0.3-12.2,1.8c-4.6,2.2-5.8,2-5.1-0.7C402.9,17.6,402.7,16.5,402.1,16.5z"/>
		<path class="st0" d="M435.4,24c-0.6,0-1.2,0.1-1.8,0.2c-3.6,0.9-4.1,2.5-1.1,3.2c3.6,0.9,4.8,0.8,5.7-0.5
			C439.2,25.3,437.8,24,435.4,24z"/>
		<path class="st0" d="M427.2,27.6L427.2,27.6c-1.1-0.1-1.9,0.5-2.5,1.7c-1.5,2.9-0.4,4,2.4,2.5c2.5-1.4,2.6-1.2,1,3.1
			c-0.7,1.7-0.9,4.1-0.5,5.3c0.6,1.9,1.2,1.6,4.4-2.2c5.8-6.9,6.6-8.5,1.6-3.3c-3.9,4.1-4.5,4.4-3.7,1.9c0.5-1.6,1.6-4,2.4-5.4
			c1.1-1.8,1.2-2.5,0.2-2.5c-0.8,0-2.5-0.4-3.9-0.8C428,27.7,427.6,27.6,427.2,27.6L427.2,27.6z"/>
		<path class="st0" d="M439.7,32.3c-1,0.2-6.6,6.6-8.1,9.5c-0.7,1.3,0.9,0,3.5-2.9c2.6-2.9,4.8-5.8,4.8-6.4
			C439.9,32.3,439.8,32.3,439.7,32.3z"/>
		<path class="st0" d="M425,34.7c-0.4,0-1,0.8-2,2.7c-1.1,2.1-1.6,3.8-1,3.8c1.8,0,3.9-3.3,3.4-5.5C425.4,35.1,425.2,34.7,425,34.7z
			"/>
		<path class="st0" d="M441.1,37.7c-0.1,0-1.5,1.5-4.5,4.6c-3.3,3.5-5.7,6.9-5.3,7.5c0.4,0.6,1.3,0.2,1.9-1.1c0.7-1.2,3-4.6,5.3-7.5
			C440.2,38.9,441.2,37.7,441.1,37.7z"/>
		<path class="st0" d="M425.5,40.1c-0.5,0-0.9,1.4-0.9,3c0,1.7,0.5,2.7,1.1,2.3C427,44.6,426.9,40.1,425.5,40.1z"/>
		<path class="st0" d="M445.1,40.4c-0.1,0-0.1,0-0.2,0.1c-0.7,0.5-2.5,2.5-4,4.5c-1.5,2-2,3.3-1.3,2.9c0.7-0.5,2.5-2.5,4-4.5
			C444.9,41.6,445.5,40.3,445.1,40.4z"/>
		<path class="st0" d="M447.6,46.5c0-0.1-1,0.9-3.2,2.8c-4.3,3.9-4.3,3.9-5.7,1.4c-1.1-2-1.7-2.3-3.1-1.2c-2.3,1.9-2.1,3.5,0.4,3.5
			c1.8,0,1.8,0.2,0.3,1.2c-1.3,0.8-1.3,1.2-0.2,1.2c0.8,0,1.2,0.5,0.8,1.2c-0.4,0.6-2,1.2-3.6,1.2c-2.4,0-2.9,0.6-2.9,3.4
			c0,1.9-1,4.6-2.2,6.2c-1.2,1.5-2.6,4.1-3,5.7c-0.8,2.9-0.8,2.9,1.1,0.6c1-1.3,2.6-3.4,3.5-4.7c1.2-1.7,1.9-2,2.6-0.9
			c0.8,1.1,5.8,1.3,8.5,0.3c0.3-0.1,1.5-0.1,2.5,0c1.3,0.1,2.1-1,2.4-3.4c0.3-2,0.5-3.6,0.4-3.6c0,0-2.7,1.3-5.9,2.8
			c-3.2,1.6-6.3,2.6-6.8,2.3c-1.6-1-1-4,1.4-6.6c2.9-3.1,4.6-1.8,2.5,1.8c-0.8,1.4,1.4-0.3,4.9-3.9c6.6-6.6,8.3-10.2,2-4.1
			c-5.3,5.1-5.8,2.4-0.5-3.3C446.4,47.9,447.6,46.6,447.6,46.5L447.6,46.5z"/>
		<path class="st0" d="M424.4,47.1c-0.8,0-0.7,0.7,0.2,1.8c0.8,1,1.7,1.6,2,1.3C427.5,49.4,425.8,47.1,424.4,47.1z"/>
		<path class="st0" d="M441.5,71.1c-0.1,0-0.3,0-0.5,0.1c-0.6,0.4-1.2,1.2-1.2,1.8c0,0.6,0.5,1.1,1.2,1.1s1.2-0.8,1.2-1.8
			C442.3,71.6,442,71.1,441.5,71.1z"/>
	</g>
	<g>
		<path class="st0" d="M450.4,69.5c-0.7,0-0.9,0.5-0.5,1.2c0.4,0.6-0.3,1.2-1.6,1.2s-2.7,0.5-3.1,1.2c-0.4,0.7,0.1,0.9,1.1,0.5
			c1-0.4,1.8-0.2,1.8,0.3c0,1.7-8.2,8.6-10.2,8.6c-1.1,0-1.6,0.4-1.1,0.8c0.4,0.4-0.1,1.8-1.2,2.9c-1.3,1.4-1.4,2.2-0.5,2.2
			c0.8,0,4.8-3.6,9-7.9C451.3,72.9,453.2,69.5,450.4,69.5z"/>
		<path class="st0" d="M453.1,74.8l-8.5,8.6c-6.9,7-8.2,8.9-7.1,10.3c1.5,1.8,0.3,2.2-2,0.8c-1.9-1.2-3.9-6.7-3.9-10.7
			c0-3.5,4.3-6.5,7.4-5.3c0.9,0.3,2.3-0.2,3.1-1.2c1.3-1.5,1.1-1.8-0.8-1.8c-9.3,0-14.7,5.1-12.2,11.6c0.6,1.7,1.5,4.4,1.8,6.1
			c0.3,1.6,1.8,3.5,3.3,4.1c2,0.9,2.9,2.5,3.4,6.4c0.8,6.2,6.4,11.7,15,14.9c3,1.1,5.9,2.4,6.6,3c1.6,1.4,8.6,1.2,9.5-0.2
			c0.4-0.7-0.7-1.2-2.5-1.2c-5,0-22.7-9.3-24.5-12.9c-1.5-2.9-1.3-3.4,4.3-9.8c3.2-3.7,5.4-6.7,4.7-6.7c-0.6,0-2.9,2.2-5,5
			c-2.1,2.8-4.2,5.5-4.7,6c-0.5,0.6-0.7-0.9-0.5-3.2c0.3-3.2,2.1-6.3,8.3-13.4l8-9.2l-8.3,8.5c-4.6,4.7-8.6,8.5-9,8.5
			c-1.8,0-0.1-2.7,6.5-10.1L453.1,74.8z"/>
		<path class="st0" d="M451.1,86.6l-5,4.7c-2.7,2.6-5,5.2-5,5.8c0,0.7,0.3,0.8,0.9,0.1c0.5-0.6,2.7-3.2,5-5.8L451.1,86.6z"/>
		<path class="st0" d="M454.8,94.7c-0.4,0-2,1.8-3.6,4.2c-1.7,2.6-2.9,4.7-2.7,4.7C449.5,103.6,455.4,95.2,454.8,94.7
			C454.9,94.7,454.9,94.7,454.8,94.7L454.8,94.7z"/>
		<path class="st0" d="M449.1,98.9c-0.3,0-1.8,1.3-3.4,2.9c-1.5,1.6-2.5,2.9-2.2,2.9s1.8-1.3,3.4-2.9
			C448.5,100.2,449.5,98.9,449.1,98.9z"/>
		<path class="st0" d="M456.3,99.4c-0.3-0.1-1.5,1.1-2.9,3c-1.6,2.2-2.9,4.3-2.9,4.6c0.1,1.1,5.8-6.3,5.8-7.5
			C456.4,99.5,456.4,99.4,456.3,99.4z"/>
	</g>
	<path class="st0" d="M418.3,120.6c-0.2,0-0.4,0.5-0.8,1.3c-0.6,1.3-1,3.1-1,4.1c0,1.1,0.4,0.9,1-0.6c0.6-1.3,1-3.1,1-4.1
		C418.6,120.9,418.5,120.6,418.3,120.6C418.4,120.6,418.4,120.6,418.3,120.6L418.3,120.6z"/>
</g>
</svg>
