<?xml version="1.0" encoding="utf-8"?>
<!-- Generator: Adobe Illustrator 24.2.0, SVG Export Plug-In . SVG Version: 6.00 Build 0)  -->
<svg version="1.1" id="peao" xmlns="http://www.w3.org/2000/svg" xmlns:xlink="http://www.w3.org/1999/xlink" x="0px" y="0px"
	 viewBox="0 0 528 313.1" style="enable-background:new 0 0 528 313.1;" xml:space="preserve">
<style type="text/css">
	.st0{fill:#1E1E1E;}
</style>
<path id="main_path" class="st0" d="M240.2,0c-1.7,0-3.4,0.2-5.3,0.5c-3.2,0.5-6.8,1.1-7.9,1.2c-7.5,1-14.8,6.4-14.7,11
	c0,1.3,0.9,8.5,2,16c1.1,7.5,2,13.9,2,14c0,0.2-0.6,0.2-1.3,0c-1.3-0.3-8.7,2-10.4,3.2c-0.6,0.4-3.1,1.3-5.6,2
	c-11,3.1-33,15.5-40.4,22.8c-8.4,8.2-20.5,27.7-20.5,33c0,1.3-0.3,1.3-2-0.2c-3.2-2.9-14.8-2.6-20.9,0.6
	c-8.8,4.6-19.4,10.4-19.8,10.9c-0.3,0.3-2.3,1.5-4.6,2.6c-2.2,1.1-4.3,2.3-4.6,2.6c-0.3,0.3-2,1.5-3.8,2.5c-1.8,1.1-3.3,2.3-3.3,2.7
	s-0.8,0.8-1.8,0.8c-1,0-2.6,0.9-3.5,2c-1,1.1-2.3,2-3.1,2s-3.9,1.3-7.1,2.9c-3.1,1.6-7,3.2-8.6,3.6c-1.6,0.4-4.2,1.3-5.9,2.1
	c-1.7,0.7-4.5,1.6-6.2,1.9c-2.8,0.5-3.4,0.2-4.4-2.3c-3.7-8.9-11.2-9.7-14.3-1.6l-1,2.7l-3.5-2.9c-1.9-1.6-3.5-3.3-3.6-3.9
	c-0.1-0.6-1-2.2-2.1-3.6c-1.1-1.4-2-3.3-2-4.3c0-1-0.4-1.8-0.9-1.8c-0.5,0-1.1-0.9-1.4-2c-0.3-1.1-1.1-2-1.8-2
	c-0.9,0-1.1,1.3-0.6,4.6c0.7,5,0.4,5.2-3.4,3c-4.9-2.8-5.3-1.5-0.4,1.8c2.7,1.8,5.1,3.9,5.3,4.7c0.3,0.9,0,1.1-0.7,0.7
	c-0.6-0.4-2.4-0.9-3.9-1.2c-2.3-0.4-2.5-0.3-1,0.6c1,0.6,2.5,2.5,3.4,4.2c1.1,2.2,3.5,3.9,8.1,6c3.6,1.6,7.4,3,8.6,3
	c1.1,0,2.4,0.8,2.8,1.8c0.4,1,1.7,2.8,3,4.1c2.9,2.9,6.1,2.3,10.1-1.9c1.6-1.6,3.8-3,4.9-3c2.3,0,10.4-2.3,13.4-3.8
	c1-0.5,4.9-2.4,8.5-4.2c11.6-5.7,16.7-8.7,19.1-11c1.3-1.3,2.8-2.3,3.4-2.3c0.6,0,3.2-1.4,5.6-3c2.5-1.7,4.9-3,5.4-3
	c0.5,0,1.5-0.6,2.2-1.3c0.7-0.7,2.5-1.8,3.9-2.5c1.4-0.7,3.2-1.6,4.1-2.1c10.2-5.8,14.5-7.5,19.4-7.6c7.1-0.2,7.6,0.7,5.2,10.2
	c-1.1,4.4-2.3,10.2-2.7,12.8c-0.4,2.7-1.2,4.8-1.9,4.8c-3.5,0-4,7.1-0.8,12.9c0.6,1.2,1.2,3.6,1.2,5.3c0,1.7,0.5,3.1,1.1,3.1
	c0.8,0,0.8,0.4,0.1,1.3c-0.6,0.7-1.3,2.9-1.7,4.9c-0.7,3.8-1,3.3,8,13.4c1.9,2.1,2.3,3.5,1.9,5.8c-0.4,2-0.2,3.1,0.6,3.1
	c0.8,0,1,0.8,0.6,2.1c-1.3,4.2,0.5,8.1,4.5,9.9c3.2,1.4,4.1,2.5,5.7,6.8c1,2.8,3.1,7.1,4.7,9.5c1.6,2.4,2.9,4.6,2.9,4.9
	c0,0.3,1,2,2.3,3.7c1.7,2.3,2.3,4.6,2.3,8.8c5.5,6,2.5,9.1,7.5,11.2c2.4,0,4.1,1.6,10.5,9.6c7.4,9.3,19,20.3,31.8,30
	c6.9,5.3,21.9,19.7,21.9,21.1c0,0.5,0.9,1.8,2,2.8c1.4,1.3,1.8,2.6,1.4,4.5c-0.4,2.1-0.3,2.3,0.5,1.1c0.9-1.3,1.1-1.2,1.1,0.6
	c0,0.7,0.3,1.5,0.7,2.2l4-2.2c0-0.4-0.1-0.9-0.2-1.4c-0.5-2.5-0.2-3.3,0.9-3.3c1.6,0,4.8-3.1,4.5-4.3c-0.1-0.4,5.4-6.6,12.2-13.7
	c6.8-7.1,13.9-14.9,15.8-17.2c1.9-2.3,4.7-5.7,6.2-7.6c1.5-1.9,2.8-4,2.8-4.7c0-0.7,0.4-1.3,0.8-1.3c0.5,0,1.6-1.7,2.6-3.8
	c3.4-7.2,6.9-11.2,12.8-14.9c3.3-2,6.5-3.7,7.2-3.7c1.9,0,10.1-4.3,10.1-5.3c0-0.5,0.6-0.8,1.3-0.9c0.7,0,2.4-1.2,3.7-2.5
	c5.9-4.3,4.1-1.4,14.4-10.7c9.2-7.6,17-15.2,22-20.9c7.4-7.5,13.5-14,13.6-14.4c0-0.4,2.5-3.5,5.6-6.8c3.1-3.4,5.6-6.7,5.6-7.3
	c0-0.7,0.9-1.7,2-2.3c1.1-0.6,2-1.6,2-2.2c0-0.6,1.7-2.8,3.8-4.9c5.1-5.1,11.4-12.1,11.4-12.7c0-0.3,2.4-2.7,5.3-5.5
	c8.2-7.6,10.5-9.7,13.1-11.4c1.3-0.8,3.4-2.6,4.7-3.8c2.4-2.3,7.3-5.2,12.7-7.4c1.5-0.6,2.8-1.6,2.8-2.1c0-0.5,0.3-0.8,0.8-0.7
	c0.4,0.1,3.2-1,6.3-2.5c3-1.5,6.1-2.7,6.9-2.7c0.7,0,2.1-0.4,3.1-0.9c2.1-1.1,7.8-2.6,15.5-4.1c3.3-0.6,7.5-0.9,11.9-0.9
	c7.2,0.1,14.8,1.1,19.6,2.8c8.2,3,9,3.6,11.2,8.8c5.5,12.7,0.2,27.8-15,43.3c-8.9,9.1-9.5,9.6-13.7,12.2c-1.5,1-3.9,2.8-5.3,4.1
	c-1.4,1.3-5.2,4-8.5,6.1c-9.1,5.8-9.7,6.2-11.5,7.9c-0.9,0.8-3.9,3.4-6.6,5.6c-2.7,2.2-5.4,4.6-6,5.3c-0.6,0.7-2.9,3.2-5.1,5.6
	c-2.2,2.4-5.6,6.4-7.6,8.9c-2,2.5-4.1,4.9-4.5,5.2c-0.5,0.3-1.4,1.5-2,2.7c-0.8,1.4-2.4,3.7-4.1,6.2c3.6,3.4-0.3,3-0.6,5.4
	c0,0.4,2.7-0.4,2.5,0.2c2.3,2.8,2.6,0.1,2.6-2.9c1-1.4,2.2-2.8,3.5-4.5c9.5-12.5,26.4-30.1,32.9-34.1c2.5-1.6,4.8-3.2,5.1-3.6
	c0.3-0.4,2.9-2,5.8-3.5c2.9-1.5,5.3-3.2,5.3-3.7c0-0.5,0.7-0.9,1.5-0.9c0.8,0,1.5-0.4,1.5-0.8c0-0.4,1.1-1.5,2.5-2.3
	c3.9-2.4,24-21.6,24-22.9c0-0.7,1-2.1,2.2-3.1c2.4-2.1,6.4-10.3,6.1-12.3c-0.1-0.7,0.4-2.3,1.2-3.6c0.8-1.3,1.5-4.6,1.6-7.3
	c0.1-2.8,0.4-5.4,0.7-5.8c0.3-0.4,0-1-0.6-1.4c-0.6-0.4-0.8-1-0.5-1.5c1.6-2.6-5.3-12.7-11.4-16.4c-4.8-3-17.9-5.9-26.3-5.9
	c-7.1,0-25,3.1-28.5,4.9c-1,0.5-4.3,2.1-7.4,3.5c-14.8,6.6-21.7,10.1-23.7,12c-1.2,1.1-3.6,2.7-5.3,3.5c-1.7,0.8-5.6,3.8-8.6,6.5
	c-3,2.8-5.6,5-5.8,5c-0.7,0-14.4,15.1-21.7,23.9c-2.3,2.8-5.6,6.7-7.4,8.7c-1.8,2-3.9,4.7-4.7,6.1c-11.8,13.3-31.7,32.7-39.7,39.9
	c-1.4,1.2-4,3.3-5.7,4.5c-5.4,4.2-8.9,6.2-14.3,9.5c-3.4,2.1-7.2,4.1-8.5,4.5c-2.2,0.7-2.2,0.7-0.5-2c1-1.5,2.8-4.7,4.1-7.1
	c1.8-3.1,3.6-5.7,4.2-8.5c0.4-1,1.5-3.8,2.4-6.3c1.6-5.5,2.7-6.4,4.3-11.3c0.6-1.9,2.7-4.8,4.5-6.5c3.4-3,9.6-13.6,9.6-16.4
	c0-2.2-3.5-1.7-5.7,0.8c-1.7,2-1.8,2.1-0.2,1.6c1-0.4,1.8-0.2,1.8,0.3c0,0.5-0.4,1-1,1c-0.5,0-2,1.1-3.3,2.5
	c-3.2,3.3-12.4,7.9-28.5,13.9c-14.3,5.4-27.3,8.5-41.4,9.9c-13.5,1.3-63.9,0.9-68.1-0.6c-2-0.7-8.4-2.4-14.2-3.9
	c-5.9-1.5-11.1-3-11.7-3.5c-1-0.8-11-5-13.2-5.5c-5.3-1.3-8.6-3.8-8.6-6.5c0-1,0.8-0.8,2.8,0.6c3.4,2.3,7.9,4.2,11.9,4.9
	c1.7,0.3,3.6,1.1,4.4,1.7c2.3,1.9,21.3,7.5,25.1,7.4c1.9-0.1,3.5,0.2,3.5,0.6c0,0.4,0.8,0.7,1.8,0.7c1,0,6.1,0.3,11.4,0.8
	c9,0.8,28.7,1,34.6,0.4c26.3-2.7,44.3-5.7,54.4-8.9c10.9-3.5,21.5-8.1,24.4-10.6c1.3-1.2,6-4.4,10.3-7.3c4.4-2.9,8.9-6.7,10.1-8.5
	c2.9-4.3,2.7-8.7-0.4-9.2c-1.8-0.3-2.1-0.9-1.8-3.3c0.4-3,3.2-7.7,6.1-10.1c2-1.7,2-5,0-5.8c-0.9-0.3-1.3-1.3-1.1-2.3
	c0.8-2.8-1.7-5.1-5.6-4.9c-3,0.1-3.5,0.5-3.2,2.5c0.2,1.5-0.7,3.4-2.7,5.3c-3.2,3.2-15.4,10.2-17.8,10.2c-0.8,0-2,0.7-2.7,1.5
	c-0.7,0.9-1.5,1.3-1.8,1c-0.3-0.3-1.6,0.2-2.9,1c-1.3,0.9-2.4,1.2-2.4,0.9c0-0.4-0.8,0-1.8,0.8c-1,0.8-3.1,1.6-4.8,1.7
	c-1.6,0.1-3.2,0.6-3.6,1c-0.3,0.5-1.7,1.1-3.1,1.5c-2.2,0.5-12.1,3.7-17.3,5.5c-0.8,0.3-2.2,0.6-3,0.7c-0.8,0.1-3.4,0.6-5.6,1
	c-2.2,0.5-4.5,0.8-4.9,0.6c-0.5-0.1-1.4,0.3-2.1,0.8c-0.7,0.6-4,1.3-7.3,1.6c-3.3,0.3-9.2,0.8-13.1,1.2c-12.3,1.3-39.4,0.5-46.8-1.3
	c-1.1-0.3-3.2-0.7-4.6-0.8c-1.4-0.2-3.2-0.6-4.1-0.8c-13.3-4.3-16.3-5.4-16.3-6c0-0.4-1.3-1-2.8-1.4c-1.5-0.4-4.4-1.7-6.4-3
	c-2-1.3-4.6-2.7-5.9-3.1c-2.2-0.7-2.2-0.9-0.7-3.2c2.5-3.7,1.9-4.4-0.9-1c-3,3.7-3.4,1.6-0.5-2.9c2.1-3.2,2.1-3.2-1,0.3
	c-4.1,4.7-5,3.3-1.7-2.6c3.7-6.7,3.3-7-0.8-0.6c-2.1,3.2-3.7,4.9-4.1,4.2c-0.4-0.6,0.7-3.5,2.5-6.3c1.8-2.8,3-5.3,2.8-5.6
	c-0.2-0.2-1.9,1.9-3.7,4.7c-4.4,6.8-5,6.5-1.1-0.6c3.5-6.5,3.4-8.8-0.1-2.7l-2.3,3.9l-0.4-4.1c-0.4-4.6,2-19.3,2.7-16.3
	c0.4,2.1,10.1,13.8,11.4,13.8c0.4,0,1.2-1.3,1.9-2.8c1-2.4,1-2.5-0.2-1.1c-1,1.3-1.7,1.5-2.6,0.6c-1.7-1.7-1.5-2.9,1.4-7.1
	c1.4-2.1,2.3-3.8,2-3.8c-0.3,0-1.7,1.8-3.2,4c-2.2,3.4-3,3.9-4.6,3c-1.1-0.6-1.9-1.4-1.9-1.9c0-0.5,2.1-4,4.7-7.8
	c5.8-8.6,6.4-9.8,3-5.9c-1.5,1.7-4,5.3-5.7,8.1c-1.8,3-3,4.3-3,3.2c0-1,2.6-5.6,5.7-10.2c3.1-4.6,4.8-7.4,3.6-6.4
	c-1.2,1-3.8,4.4-5.9,7.4c-2.7,4-4,5.1-4.6,4.1c-1.5-2.7,1.3-8.5,9.8-20c4.8-6.4,8.6-11.9,8.6-12.2c0-1-7.1,7.6-11.8,14.4
	c-2.6,3.8-5,6.7-5.2,6.4c-0.6-0.6,6.8-11.4,12.5-18.4c4.7-5.8,5.7-7.8,2.8-5.4c-1,0.8-0.2-0.5,1.7-2.9c1.9-2.4,3.7-4.3,4-4.3
	c0.3,0,1.7-1,3.1-2.3c1.4-1.3,4.7-3.6,7.5-5.1c3.8-2.1,4.8-2.4,4.3-1.1c-0.6,1.4-0.4,1.5,1.1,0.2c1.6-1.3,1.6-1.2,0.5,0.9
	c-0.7,1.3-1.7,2.2-2.3,2c-1.2-0.3-3,4.8-2.1,5.8c0.3,0.3,1.3-0.7,2.2-2.4c2.8-5.3,12.2-14.3,16.7-16c10-3.7,14.3-4.7,14.7-3.6
	c0.4,1.3,6.3,4.6,7,3.9c0.3-0.3-0.7-1.4-2.2-2.6c-2.6-2-2.6-2.1-0.6-3.2c2.8-1.5,6.3-1.3,8.2,0.4c2.1,1.9,15.7,3.3,16.7,1.7
	c0.4-0.7-0.1-1.1-1.4-1.1c-2.5,0-2.6-0.8-0.4-4.1c1.6-2.3,1.6-2.4,0-1.2c-0.9,0.7-2,2.3-2.3,3.4c-0.5,1.6-1.2,1.9-3.3,1.3
	c-1.5-0.4-2.9-0.8-3.1-1.1c-0.2-0.2,1.1-3,2.9-6.3c1.8-3.2,2.6-5.3,1.6-4.5c-0.9,0.8-1.7,1-1.7,0.6c0-0.4-0.8-0.1-1.7,0.6
	c-1.4,1.1-1.4,0.8,0.2-1.7c1.9-3,1.9-3-0.1-1.5c-1.7,1.3-1.7,1.1,0.3-1.4c1.2-1.6,2.3-3.7,2.3-4.7c0-2.7,3.2-4.8,6.9-4.4
	c1.8,0.2,5-0.4,7-1.2c4.5-1.9,5.9-1.9,4.8-0.2c-0.5,0.7-0.2,0.6,0.7-0.3c1.6-1.7,6.1-3.3,6.1-2.2c0,0.4-0.9,4.8-2,9.8
	c-1.1,5-2,10.3-2,11.8c0,2.4-0.6,2.8-5.5,4c-3,0.7-6,1-6.6,0.6c-0.7-0.4-0.9-0.1-0.6,0.8c0.3,0.8,1.6,1.7,2.8,2
	c2.5,0.6,10.9-2,12-3.7c0.5-0.8,1.1-0.8,2.2,0.1c1.2,1,1.6,1,2-0.1c0.3-0.7,0.6-0.4,0.6,0.8c0.2,4.3-7.3,8.9-17.9,11.1
	c-4.3,0.9-12.9,0.9-15.8,0c-1.9-0.6-2.1-0.5-1.1,0.6c0.8,0.9,4.2,1.3,10.2,1.3c14.1-0.1,25.5-4.8,25.7-10.6c0.1-3.6,2.7-4.2,7.8-1.9
	c2.7,1.2,8.3,3.3,12.5,4.7c11.6,3.8,20.5,10.5,28.6,21.2c3.7,5,7.6,11.1,8.5,13.7c1,2.6,2.6,6.1,3.7,8c1.1,1.8,1.7,3.3,1.4,3.3
	c-0.3,0-0.2,0.8,0.4,1.8c0.5,1,1.3,4.3,1.6,7.3c0.3,3,1.1,5.8,1.6,6.1c0.5,0.3,1.1,2.6,1.3,5c0.4,4.4,2.9,7.3,4.2,5.1
	c0.9-1.4-1.4-13.9-3.2-17.4c-0.8-1.5-1.3-3.1-1.2-3.6c1-3.9-12-29-17.5-33.8c-0.3-0.3-0.9-1.3-1.2-2.2c-0.8-2.2-12.7-11-20.1-14.9
	c-3.1-1.6-7.9-3.5-10.7-4.2c-2.8-0.7-6.7-2.2-8.8-3.3c-2.7-1.5-5-2-8.9-1.7c-2.9,0.2-5.2,0-5.2-0.5c0-0.5,0.9-5.3,2-10.7
	c3.4-16.8,3.6-20.7,1.3-23C252.6,2.3,247.4-0.1,240.2,0L240.2,0z M237.9,4L237.9,4c1.8,0,3.3,0.2,6.2,0.6c6.8,1,13.8,8.2,10.5,10.8
	c-2.1,1.6-11.1,4.2-16.8,4.7c-4.5,0.4-5.3,0.3-4.9-1c0.3-0.8,0.2-1.5-0.3-1.5c-0.5,0-1.1,0.7-1.5,1.5c-0.7,1.9-3.7,2-3.7,0.2
	c0-0.7,1.2-3.1,2.7-5.2c1.5-2.2,2.2-3.6,1.5-3.2c-0.6,0.4-2.3,2.7-3.8,5.2c-1.5,2.5-2.8,4.5-3.1,4.5c-1.1,0-0.1-2.6,2.5-6.4
	c4.1-6,4.7-7.2,3.5-6.5c-0.6,0.4-2.8,3.2-4.9,6.3c-5.1,7.4-6,6.3-1-1.2c3-4.6,3.3-5.3,1.3-3.5c-1.4,1.3-3.4,3.9-4.4,5.8
	c-1,1.9-2.3,3.5-2.7,3.5c-0.5,0-0.3-0.9,0.2-2c1.5-2.7,1.3-3.6-0.4-2.2c-2.3,1.9-3-0.5-1-3.5c0.9-1.4,1.9-2.6,2.2-2.6
	c0.3,0-0.2,1.1-1.1,2.5c-2.1,3.1-2.1,4.2-0.1,2.6c0.8-0.7,1.5-0.9,1.5-0.5c0,0.4,0.7,0.2,1.5-0.5c0.8-0.7,1.5-1.7,1.5-2.3
	c0-0.6-0.8-0.4-1.7,0.4c-1.2,1-1,0.4,0.5-1.8c1.9-2.8,3.1-3.3,8.1-4C234.1,4.2,236.1,4,237.9,4L237.9,4z M216.8,20.7
	c0.4,0,1.2,0.5,2.1,1.4c0.8,0.8,1.2,2.2,0.8,3c-0.3,0.9-1.1,1.6-1.6,1.6s-0.7-0.7-0.4-1.7c0.4-0.9,0.1-2.3-0.5-3
	C216.4,21.1,216.4,20.6,216.8,20.7z M222.9,23.6L222.9,23.6c0.3,0,0.3,0.4-0.2,1.3c-0.5,0.9-0.2,0.8,1-0.1c2-1.6,2.2-0.9,0.6,2.1
	c-0.8,1.5-0.8,1.9,0,1.4c0.6-0.4,1.1-0.2,1.1,0.4c0,0.6,0.5,0.9,1,0.5c0.6-0.3,1-1.1,1-1.6c0-0.6-0.5-0.7-1-0.4
	c-0.6,0.3-1,0.2-1-0.4c0-0.6,0.5-1.3,1-1.6c0.6-0.3,1-0.1,1,0.6c0,0.8,0.5,0.8,1.7-0.2c1.4-1.2,1.4-0.8-0.3,2
	c-2.2,3.9-4.9,6.6-3.9,4c0.4-1.1,0.1-1.5-1.2-1.3c-1,0.1-2,0.9-2.2,1.7c-0.3,1.1-0.1,1.1,0.8-0.1c1-1.4,1.1-1.4,0.8,0
	c-0.2,0.8-1,1.5-1.8,1.5c-0.7,0-1.6,0.6-1.8,1.4c-0.3,0.8,0,1.1,0.7,0.7c0.7-0.4,0.9-0.1,0.5,0.9c-0.7,1.7-1.3,2-1.5,0.8
	c-0.7-4-0.3-9.3,0.9-11.2C221.1,24.5,222.4,23.6,222.9,23.6L222.9,23.6z M225.7,40.3c0.3-0.1,0,0.8-0.8,2.1c-1,1.5-1.9,2.7-2.2,2.7
	c-0.7,0,1.6-3.9,2.8-4.6C225.6,40.3,225.7,40.3,225.7,40.3L225.7,40.3z M227.2,42.1c0,0.1-0.2,0.7-0.8,1.9c-1.5,3.1-2,3.7-2,2.4
	c0-0.5,0.7-1.9,1.6-3C226.7,42.5,227.1,42,227.2,42.1z M30.2,134.5L30.2,134.5c0.6,0,1.5,0.6,2.6,1.9c2,2.2,1.8,6.1-0.2,5.4
	c-0.7-0.2-1.3-1.1-1.3-1.9c0-0.8-0.5-1.4-1-1.4c-0.6,0-1-0.9-1-2C29.3,135.2,29.6,134.6,30.2,134.5L30.2,134.5z M338,136.4
	L338,136.4c0.2,0,0.3,0.2,0.3,0.4c0,2.8-12,11.9-22.4,17c-7.2,3.5-20.4,9.1-21.5,9.2c-0.4,0-2,0.5-3.6,1.1c-1.6,0.6-2.9,1-2.9,0.9
	c0-0.1-1.3,0.3-2.8,0.9c-1.6,0.6-4.3,1.3-6.1,1.6c-1.8,0.3-3.7,1-4.4,1.5c-0.6,0.5-1.4,0.7-1.6,0.5c-0.3-0.3-2,0-4,0.5
	c-4.2,1.1-25.5,3.7-38.1,4.6c-5,0.4-10.5,0.7-12.2,0.8c-4.5,0.2-20.9-1.1-21.6-1.8c-0.7-0.7-0.7-0.7,20.6-0.8
	c22.1-0.1,58.5-6,67.8-11.1c1-0.5,2.5-1,3.3-1c5.9,0,32.4-13.1,44.7-22.2C335.9,137.1,337.4,136.3,338,136.4L338,136.4z
	 M331.9,150.2c0.2,0.1,0.3,0.7,0.3,1.7c0,3.3-9.3,10.5-21.8,17c-5.6,2.9-10.5,5.2-10.9,5.2c-0.5,0-2.8,0.9-5.1,1.9
	c-6,2.7-18.6,5.9-36,9.1c-4,0.7-31,1.4-27.8,0.6c0.8-0.2,5.6-0.9,10.7-1.5c5-0.7,9.8-1.4,10.7-1.7c0.8-0.3,3.6-0.6,6.1-0.8
	c2.5-0.2,8.2-1.3,12.7-2.5c4.5-1.2,9.2-2.5,10.6-2.7c1.3-0.3,3.7-1.1,5.3-1.9c1.6-0.8,3.4-1.5,4-1.5s2.6-1,4.4-2.3
	c1.8-1.3,3.2-2.1,3.2-1.8c0.1,1,24.4-11.6,26.9-14c1.4-1.3,2.8-2.3,3.2-2.3c0.4,0,1.4-0.7,2.3-1.6
	C331.3,150.4,331.7,150.1,331.9,150.2L331.9,150.2z M334.8,158.3c0.1,0,0.2,0.1,0.3,0.3c0.2,0.8-0.2,2.1-0.9,3
	c-0.7,0.8-2.7,2.5-4.4,3.8c-3,2.2-3,2.1,0.9-3c1.9-2.4,3.3-3.8,4-4C334.7,158.3,334.7,158.3,334.8,158.3L334.8,158.3z M138.3,164.5
	c0.5,0.1,1.7,0.7,3,1.7c7.9,5.8,43.1,18.4,55.9,20c14.8,1.8,17.3,2,30.5,2.7c7.1,0.4,12.8,0.8,12.6,1c-0.5,0.5-24.6,1.5-25.1,1
	c-0.3-0.3-6.8-1-14.6-1.6c-7.8-0.7-16.9-2.1-20.3-3.1c-3.4-1.1-7.1-1.9-8.3-2c-1.1,0-2.5-0.4-3.1-0.9c-0.5-0.5-4.7-2.1-9.3-3.7
	c-4.6-1.6-9.3-3.9-10.6-5.2c-1.3-1.3-2.9-2.4-3.6-2.4c-0.7,0-1.3-0.5-1.3-1c0-0.6-0.5-1-1.1-1c-1.2,0-4.9-4-5-5.4
	C138.1,164.5,138.2,164.5,138.3,164.5z M159.6,165c0.9,0,2,0.4,2.3,1c0.8,1.3-0.5,1.3-2.5,0C158.1,165.1,158.1,165,159.6,165
	L159.6,165z M172.5,170c0.6,0,1.1,0.5,1.1,1c0,0.6-0.2,1-0.4,1c-0.2,0-0.7-0.5-1.1-1C171.7,170.5,171.9,170,172.5,170z M176.2,171.2
	c0.8,0,2,0.2,2.9,0.7c2.6,1.3,22.8,5.3,26.6,5.3c1.5,0,2.4,0.4,2.1,0.9c-0.9,1.4-11.8,1-16.4-0.6c-2.2-0.8-5.2-1.6-6.7-1.8
	c-1.5-0.2-3.5-0.8-4.6-1.4c-1.1-0.6-2.8-1.3-3.9-1.7c-1.4-0.5-1.6-0.9-0.7-1.2C175.7,171.2,175.9,171.2,176.2,171.2L176.2,171.2z
	 M249.3,175.4c0.3,0,0.1,0.2-0.5,0.6c-0.8,0.5-5.7,1.2-10.9,1.6c-5.1,0.3-10.1,0.9-10.9,1.2c-0.9,0.3-1.6,0.1-1.6-0.4
	c0-0.6,4.3-1.3,9.9-1.7c5.5-0.4,11.1-0.9,12.5-1.1c0.5-0.1,0.8-0.1,1.1-0.2C249.1,175.4,249.2,175.4,249.3,175.4L249.3,175.4z
	 M213.7,177.8c4.2,0,10,0.3,10.5,0.8c0.3,0.3-2.9,0.5-7.2,0.4c-4.3-0.1-7.8-0.5-7.8-0.8C209.2,177.9,211.2,177.8,213.7,177.8z
	 M226.4,185.4c0.4,0,0.7,0.1,0.8,0.3c0.3,0.3-0.3,0.6-1.3,0.5c-1.2,0-1.4-0.3-0.6-0.6C225.6,185.4,226,185.4,226.4,185.4
	L226.4,185.4z M318.3,193c0.9,0.1,0.3,1.5-1.4,5c-1.1,2.2-2,4.7-2,5.5c-0.1,2.9-10.2,22.1-14.2,26.9c-2.2,2.6-12.6,7.4-19.4,8.9
	c-3.1,0.7-6.5,1.8-7.6,2.6s-3,1.3-4.2,1.3c-1.2,0-3.5,0.7-5.1,1.5c-5.8,2.9-33.3,3.6-47.2,1.2c-14-2.4-29.5-6.5-29.5-7.8
	c0-0.5-0.6-0.6-1.3-0.4c-0.7,0.3-2,0-2.8-0.5c-1.2-0.8-1.3-1.5-0.3-4.1c1.5-4,0.8-4-1.3,0.1c-1.1,2.2-2,2.8-2.7,2.1
	c-0.7-0.7-0.5-2.1,0.6-4.3c0.9-1.8,1.5-3.5,1.2-3.7c-0.2-0.2-1.3,1.3-2.4,3.4c-3,5.9-3.7,2.3-0.7-3.8c2.1-4.3,2.2-4.9,0.6-2.8
	c-1.1,1.4-2.6,3.8-3.2,5.3c-0.6,1.5-1.6,2.8-2.1,2.8c-1.6,0-1-3,1.7-8.4c1.5-3.1,1.8-4.3,0.8-2.9c-1,1.3-2.6,4.3-3.5,6.6
	c-1.3,3.2-1.8,3.8-2.4,2.4c-0.4-1,0.4-3.9,1.9-6.9c3.7-7.4,3.2-7.7-1-0.5c-3.8,6.6-4.9,5.2-1.4-1.8c1.5-3,1.7-3.9,0.6-3
	c-0.9,0.7-2.1,2.7-2.8,4.4c-0.8,1.9-1.6,2.7-2.2,2.1c-0.6-0.6-0.1-2.6,1.2-5.4c2.1-4.3,2.1-4.3,0.1-1.9c-2.7,3.3-2.7,1,0-4.2
	c1.2-2.3,1.8-4.4,1.5-4.7c-1-1-4.9,9-4.3,11c0.8,3-1,1.3-3.9-3.6l-2.6-4.5l2.3-4.4c1.2-2.4,2.4-3.8,2.7-3.2c0.2,0.7-0.3,2.6-1.2,4.3
	c-0.9,1.7-1.6,3.7-1.6,4.4c0,0.7,1-0.9,2.2-3.5c1.2-2.7,2.5-4.8,3-4.8c1.2,0,1.2,0.2-1.1,5.2c-1.1,2.4-2,5.1-2,6
	c0,0.8,1.1-1,2.3-4.1c2.2-5.4,2.5-5.6,5.8-5.3c1.9,0.2,4.4,0.7,5.5,1.1c3,1.3,19.4,5,26.9,6.2c15,2.3,44.7,0.8,58.4-2.8
	c2.2-0.6,5.4-1.3,7.1-1.6c4.6-0.7,29-7.4,32.5-8.9c1.7-0.7,3.5-1.4,4.1-1.4c2.9-0.4,7.5-2,10.9-3.7C316.8,193.4,317.8,193,318.3,193
	L318.3,193z M152.9,198.6c0.2,0,0.3,0.2,0.3,0.7c0,0.6,0.7,1.3,1.6,1.4c1.4,0.3,1.4,0.6,0.1,2.3c-1.4,1.9-1.5,1.8-2.1-0.9
	c-0.4-1.6-0.5-3.1-0.1-3.4C152.8,198.6,152.9,198.6,152.9,198.6z M184.7,200.6c0.4,0,0.7,0.1,0.8,0.3c0.3,0.3-0.3,0.6-1.3,0.5
	c-1.2,0-1.4-0.3-0.6-0.6C183.9,200.7,184.3,200.6,184.7,200.6z M158.5,201.8c0.3,0,0.6,0.1,0.9,0.4c0.5,0.5,0.2,2.3-0.9,4.3
	c-1.8,3.5-3.2,3.4-3.2-0.3C155.3,203.9,157.1,201.8,158.5,201.8z M192.9,202.6c0.6,0,1.1,0.5,1.1,1c0,0.6-0.2,1-0.4,1
	c-0.2,0-0.7-0.5-1.1-1C192.1,203,192.3,202.6,192.9,202.6L192.9,202.6z M198.6,203.8c0.8,0,2.2,0.1,4.5,0.2
	c3.6,0.2,9.3,0.5,12.6,0.5c3.3,0,5.7,0.4,5.3,0.7c-1.2,1.2-18.7,0.9-21.7-0.4C197.7,204.1,197.3,203.8,198.6,203.8L198.6,203.8z
	 M228.4,204.7c1.1,0,2.2,0.1,2.9,0.2c1.5,0.2,0,0.4-3.3,0.4c-3.4,0-4.6-0.2-2.8-0.4C226.1,204.8,227.3,204.7,228.4,204.7z
	 M290.1,245.2L290.1,245.2c0.2,0,0.4,0,0.4,0.1c0,1.6-4.5,9.5-6.8,12.1c-1.3,1.4-2.3,2.9-2.3,3.3c0,2.5-31.9,36.8-36.5,39.2
	c-2.9,1.5-2.5,1.6-3.8-0.5c-0.6-1-2.8-2.7-4.9-3.8c-2.1-1.1-6.4-4.6-9.7-7.9c-3.3-3.2-6.5-5.8-7.1-5.8c-1.6,0-5.3-3-13.9-11.3
	l-7.3-7.1l2.5-5.6c1.4-3.1,2.1-5.3,1.6-5c-0.5,0.3-1.7,2.6-2.6,5.1c-1,2.5-2.4,4.6-3.1,4.6c-2,0-1.7-2.5,0.7-7.2
	c1.1-2.2,1.8-4,1.5-4c-0.3,0-1.6,2.2-3,4.8c-1.4,2.7-2.5,4.2-2.6,3.5c0-0.7,0.7-2.7,1.6-4.4c0.9-1.7,1.4-3.3,1.1-3.5
	c-0.2-0.2-1.3,1.2-2.2,3.3l-1.8,3.8l-2.9-3.5c-3-3.6-3.5-7-1-7.8c1.1-0.3,1.2,0.3,0.7,3l-0.6,3.4l2-3.6c1.7-3,2.5-3.4,2.3-1
	c0,0.3,1.4,0.4,3.2,0.3c1.8-0.2,6,0.4,9.3,1.1c9.1,2.1,14.6,2.7,32.9,3.3c17,0.6,30-0.6,36.1-3.2
	C281.1,247.7,288.4,245.2,290.1,245.2L290.1,245.2z M182.8,245.2L182.8,245.2c0.6,0,1,0.5,1,1.1c0,0.6,0.4,0.8,0.9,0.5
	c0.5-0.3,0.7,0.3,0.4,1.5c-0.6,2.4-1.3,2.7-1.3,0.4c0-0.9-0.5-1.3-1-1c-0.6,0.3-1-0.1-1-1C181.7,245.9,182.2,245.2,182.8,245.2
	L182.8,245.2z"/>
<g id="small_nodes">
	<g>
		<path class="st0" d="M25.1,159c-0.1-0.6-0.2-2.4-0.2-3.9c0-1.5-0.1-2.8-0.2-2.9c-0.1-0.1-0.1-0.3,0-0.5c0.1-0.2,0.1-0.7,0-1
			c-0.2-0.6-0.2-0.7-1.7-0.5c-2.7,0.3-7.1,0.2-14.6-0.6c-0.8-0.1-1.9-0.2-2.5-0.2c-0.6-0.1-1.6-0.2-2.2-0.3C3.2,149.1,3,149,2.8,149
			l0,0c-0.3,0-0.6,0.1-0.8,0.3c-0.5,0.4-0.5,0.7-0.5,6.2c0,3.2,0.1,6.1,0.2,6.4c0.2,0.9,0.6,7.4,0.7,11.5c0,0.5,1.3,0.9,3.4,1.1
			c0.8,0.1,1.6,0.2,1.8,0.2c0.1,0,0.7,0.2,1.3,0.3c0.6,0.2,1.4,0.3,1.8,0.4c1.2,0.2,10.9-0.1,10.9-0.3c0,0,0.5-0.1,1-0.2
			c0.6-0.1,1.1-0.2,1.3-0.4c0.1-0.1,0.5-0.2,0.8-0.2s0.7-0.2,0.7-0.4C25.7,173.1,25.5,162.1,25.1,159z M23.6,172.9
			c-0.3,0-0.7,0.2-0.9,0.4c-0.1,0.2-0.6,0.5-1,0.5c-0.4,0-1.4,0.1-2.2,0.2c-3.8,0.4-9.3,0.2-10.9-0.5c-0.2-0.1-1-0.2-1.8-0.3
			c-0.8-0.1-1.8-0.2-2.3-0.3c-1-0.2-0.9,0.2-1.1-4.9c-0.2-3.4-0.3-5.4-0.5-6.8c-0.2-1.3-0.2-10.3,0-10.6c0.1-0.1,0.1-0.1,0.3-0.1h0
			l0,0c0,0,0,0,0,0h0c0.1,0,0.3,0,0.5,0.1c0.3,0.1,0.8,0.2,1.1,0.2c0.5,0,3.8,0.3,4.9,0.5c1.9,0.3,4.4,0.4,8.7,0.4
			c2.6,0,4.8,0.1,4.9,0.2c0.1,0.1,0.2,2,0.3,4.3s0.2,4.4,0.3,4.7c0.2,0.6,0.2,1.6,0.3,6C24.3,172.8,24.3,172.9,23.6,172.9z"/>
		<path class="st0" d="M17.4,152.9c-0.1,0-0.3,0.1-0.5,0.3c-0.4,0.4-0.5,0.7-0.4,1.8c0.1,1.2,0.1,1.3-0.4,1.5l-0.6,0.2l0.7,0.6
			c0.4,0.3,0.6,0.7,0.5,0.9c-0.1,0.4,0.6,1,1.1,1c0.2,0,0.3-0.3,0.3-0.6c0-0.7,0.2-0.8,0.7-0.4c0.2,0.2,0.3,0.5,0.2,1.3
			c-0.1,0.9-0.1,1,0.3,1c0.6,0,1.3-0.7,1.1-1.1c-0.1-0.2,0.1-0.7,0.3-1.2c0.3-0.5,0.3-0.9,0.2-1c-0.1-0.1-0.3-0.8-0.3-1.7
			c0-0.9-0.2-1.5-0.4-1.6c-0.3-0.1-0.8,0.9-0.9,1.9c-0.1,1.1-1.3,1-1.3-0.1c0-0.2,0-0.8-0.1-1.3c0-0.5-0.2-1.1-0.3-1.3
			C17.5,153,17.4,152.9,17.4,152.9L17.4,152.9z"/>
		<path class="st0" d="M14.8,158.3c-0.5-3.5-1.2-4.4-3.7-4.8c-0.3-0.1-0.8-0.1-1.3-0.1c-1.6,0-3.8,0.3-4.4,0.6
			c-0.6,0.3-0.5,0.8,0.3,1.1c0.7,0.3,0.9,1.3,1.1,4.3c0.1,1.5,0.1,1.5-0.7,1.7c-0.4,0.1-0.9,0.3-0.9,0.4c-0.2,0.3,0.4,0.7,1.2,0.8
			c0.4,0.1,0.7,0.2,0.8,0.2c0.1,0.1,0.2,1.8,0.2,3.9c0,3,0.1,3.9,0.4,4.2c0.5,0.6,1.2,0.4,1.1-0.2c-0.1-0.9-0.1-8.3,0-8.3
			c0,0,0.5-0.1,1.1-0.2c2.7-0.4,3.9-0.8,4.6-1.6C14.9,159.8,14.9,159.5,14.8,158.3z M11.1,160.2c-1.1,0.2-2.1,0.4-2.3,0.4
			c-0.4,0.2-0.5-0.2-0.7-2.2c-0.1-0.9-0.3-2-0.4-2.5c-0.2-0.7-0.2-0.9,0.1-1.1c0.2-0.2,0.7-0.2,1.4-0.2c0.6,0,1.4,0.1,2.1,0.3
			c1.4,0.3,1.6,0.5,2.1,2.8C13.7,159.6,13.5,159.8,11.1,160.2z"/>
		<path class="st0" d="M21.8,167c0.5-0.2-0.1-0.9-1-1c-0.7-0.1-0.9-0.3-1-0.8c-0.2-0.9-1.3-2.6-2-3.4c-0.2-0.2-0.5-0.4-0.7-0.4h0
			c-0.4,0-0.7,0.4-1,1.5c-0.5,1.8-0.8,2.4-1.2,2.4c-0.2,0-0.6,0.2-0.9,0.5c-0.4,0.4-0.4,0.6-0.1,0.8c0.2,0.1,0.5,0.2,0.7,0.2
			c0.2,0,0.3,0.1,0.1,0.3c-0.5,0.6-1.8,3.3-1.8,3.6c0,0.2,0.1,0.5,0.3,0.6c0.5,0.5,0.5,0.4,1.1-0.6c0.3-0.5,0.6-1,0.8-1.2
			c0.2-0.1,0.3-0.4,0.3-0.7s0.1-0.5,0.3-0.5c0.1,0,0.3-0.2,0.3-0.5c0-0.7,0.5-1,1.8-0.9c1.5,0.1,1.5,0.1,1.5,0.5
			c0,0.2,0.2,0.5,0.5,0.8c0.3,0.3,0.5,0.6,0.5,0.9c0,0.2,0.2,0.7,0.4,1c0.4,0.5,0.5,0.5,0.9,0.2c0.5-0.3,0.5-0.4-0.1-1.6
			C20.8,167.5,20.8,167.3,21.8,167z M18.4,165.8c-0.1,0-0.5-0.1-0.9-0.1c-0.6-0.1-0.7-0.2-0.5-0.8c0.1-0.6,0.3-0.9,0.4-0.9h0
			c0.2,0,0.4,0.3,0.7,0.8C18.4,165.3,18.5,165.8,18.4,165.8z"/>
	</g>
	<g>
		<path class="st0" d="M153.1,93.9C153.1,93.9,153.1,93.9,153.1,93.9c-0.2,0.1-0.6,0.4-1.1,0.8c-1.8,1.4-11.9,16.8-11.9,18.1
			c0,1.1,0.4,0.6,6.3-8.3C151.7,96.4,153.3,94,153.1,93.9L153.1,93.9z"/>
		<path class="st0" d="M154.2,108c-0.1,0-0.5,0.3-1.2,0.8c-1.9,1.5-7.9,10.6-7.9,11.9c0,0.7,6.2-7.7,8.6-11.7
			C154.2,108.4,154.3,108.1,154.2,108L154.2,108z"/>
		<path class="st0" d="M154.2,118.1c-0.1,0-0.2,0-0.5,0.3c-1.1,0.9-2.8,3.1-3.8,4.8c-2.7,4.7-1.5,3.8,2.4-1.7
			C153.7,119.5,154.4,118.2,154.2,118.1L154.2,118.1z"/>
		<path class="st0" d="M158.5,121.7l-2.6,2.9c-1.4,1.6-2.6,3.4-2.6,4c0,1.3,0,1.4,3-3.3L158.5,121.7z"/>
		<path class="st0" d="M160.2,124.3C160.2,124.3,160.2,124.3,160.2,124.3c-0.3,0.1-0.6,0.4-1.2,0.8c-0.9,0.8-1.7,1.8-1.7,2.3
			c0,1.6,0.9,1,2.2-1.4C160.1,124.9,160.4,124.4,160.2,124.3L160.2,124.3z"/>
		<path class="st0" d="M162.4,126.3c0-0.1-0.5,0.2-1.3,0.9c-1,0.8-1.8,1.9-1.8,2.5c0,0.6,0.1,0.9,0.3,0.6c0.2-0.2,1-1.3,1.8-2.5
			C162.1,126.9,162.5,126.4,162.4,126.3L162.4,126.3z"/>
		<path class="st0" d="M163.8,128.7c-0.1,0-0.2,0-0.4,0.1c-0.6,0.3-1,1.1-1,1.6c0,1.5,0.7,1.1,1.4-0.6
			C164.1,129.2,164.1,128.8,163.8,128.7L163.8,128.7z"/>
	</g>
	<g>
		<path class="st0" d="M189.7,58.7c-0.5,0.1-2.8,2.2-5.4,5.2c-3,3.4-5.5,6.6-5.5,7.1c0,0.6,2.5-1.7,5.5-5.1c3-3.4,5.5-6.6,5.5-7.1
			C189.8,58.7,189.7,58.6,189.7,58.7L189.7,58.7z"/>
		<path class="st0" d="M190.6,66.8c0,0-0.1,0-0.1,0c-1.4,0.5-8.7,8.6-8.7,9.8c0,0.5,2.1-1.4,4.7-4.2C189.1,69.6,191,67.1,190.6,66.8
			C190.6,66.8,190.6,66.8,190.6,66.8L190.6,66.8z"/>
		<path class="st0" d="M190.2,71.2c-0.2,0.1-1.1,0.9-2.6,2.6c-2.1,2.2-3.8,4.4-3.8,5c0,0.5,1.2-0.6,2.7-2.4
			C189.1,73.1,190.4,71.4,190.2,71.2C190.3,71.2,190.3,71.2,190.2,71.2L190.2,71.2z"/>
		<path class="st0" d="M193,72.5c-0.2,0.1-1.1,0.9-2.5,2.3c-2,2.1-3.7,4.4-3.7,5.1c0,0.7,0.8,0.1,1.7-1.3c0.9-1.4,2-2.7,2.3-3
			c0.3-0.3,1.2-1.4,2-2.5C193,72.7,193.1,72.5,193,72.5C193,72.5,193,72.5,193,72.5L193,72.5z"/>
		<path class="st0" d="M193.2,76.4c-0.2,0-0.8,0.6-1.7,1.6c-1.4,1.7-2.6,3.5-2.6,4.1c0,1.2,2.7-2.1,4.2-5.1
			C193.3,76.6,193.3,76.4,193.2,76.4L193.2,76.4z"/>
		<path class="st0" d="M197.7,76.5c-1,0-4.8,4.3-4.8,5.4c0,0.5,0.1,0.8,0.3,0.6c0.1-0.2,1.4-1.7,2.7-3.2
			C197.2,77.8,198.1,76.5,197.7,76.5L197.7,76.5z"/>
		<path class="st0" d="M180.7,79.6c-0.1,0.1,0.3,0.5,0.9,1.3c0.8,1,1.6,1.8,1.8,1.8c0.8,0,0.3-0.8-1.4-2.2
			C181.2,79.8,180.8,79.5,180.7,79.6L180.7,79.6z"/>
		<path class="st0" d="M198.3,79.9c0,0-0.1,0-0.2,0.1c-0.6,0.4-1.6,1.6-2.2,2.7c-1.5,2.9-0.5,2.4,1.5-0.7
			C198.3,80.7,198.6,79.9,198.3,79.9L198.3,79.9z"/>
		<path class="st0" d="M204.6,81c-0.2,0.1-0.6,0.5-1.4,1.5c-1.1,1.3-2.1,2.9-2.1,3.6c0,1.2,1.4-0.5,3.1-3.9
			C204.6,81.3,204.7,80.9,204.6,81L204.6,81z"/>
		<path class="st0" d="M201.3,81.1c-0.1,0-0.3,0.1-0.6,0.4c-1,0.8-2.2,2.3-2.8,3.3c-1.5,2.9-0.5,2.2,2.1-1.4
			C201.2,81.9,201.6,81.1,201.3,81.1z"/>
		<path class="st0" d="M206.7,83.6c-0.3,0-1,0.9-1.6,2c-0.6,1.1-0.9,2-0.6,2c0.3,0,1-0.9,1.6-2C206.7,84.6,207,83.6,206.7,83.6
			L206.7,83.6z"/>
		<path class="st0" d="M188.9,84.7c-1,0-0.8,0.4,0.5,0.9c2.8,1.2,4.4,1.2,2.5,0C191.1,85.1,189.7,84.7,188.9,84.7z"/>
		<path class="st0" d="M212.1,90.9c-0.6,0-1.1,0.1-1.6,0.2c-1,0.3-0.4,0.5,1.3,0.5c1.7,0,2.5-0.2,1.8-0.5
			C213.2,91,212.7,90.9,212.1,90.9z"/>
		<path class="st0" d="M188.4,63.7c-1.1,0.3-6.3,5.8-8.9,9.6c-0.9,1.3-2.2,2.1-2.8,1.7c-0.7-0.4-0.9-0.1-0.5,0.9
			c0.6,1.6,2.4,2.2,2.4,0.8c0-0.4,2.3-3.4,5.2-6.7c2.9-3.2,5-6.1,4.7-6.3C188.6,63.7,188.5,63.7,188.4,63.7L188.4,63.7z"/>
	</g>
	<path class="st0" d="M218,55.3c-0.5,0-0.7,0.3-0.7,0.9c0,0.6,1.3,1,2.8,0.9c2.5-0.1,2.6-0.2,0.8-0.9
		C219.5,55.6,218.6,55.3,218,55.3z"/>
	<path class="st0" d="M224.5,7.4c-0.6,0-1.1,0.5-1.1,1c0,0.6,0.2,1,0.5,1c0.2,0,0.7-0.5,1.1-1C225.3,7.9,225.1,7.4,224.5,7.4z"/>
	<path class="st0" d="M222,26.7c-0.3,0-1,0.9-1.6,2c-0.6,1.1-0.9,2-0.6,2c0.3,0,1-0.9,1.6-2C222,27.6,222.2,26.7,222,26.7z"/>
	<path class="st0" d="M250.2,27.1c-0.1,0-0.2,0-0.4,0.1c-0.6,0.3-1,1.1-1,1.6c0,1.5,0.7,1.1,1.4-0.6
		C250.5,27.5,250.4,27.1,250.2,27.1L250.2,27.1z"/>
	<path class="st0" d="M234.6,39.4c-0.6,0.3-1,0-1-0.7c0-0.2-0.1-0.2-0.2-0.2l0,0c-0.4,0.1-1.3,1.3-2.3,2.9c-1.4,2.2-2.5,4.5-2.5,5.1
		c0,0.6,0.7-0.1,1.5-1.5l1.5-2.5l-0.6,3c-0.5,2.8-0.3,2.6,2-1.4C235.8,39.3,236.1,38.5,234.6,39.4z M232.6,42.5
		c-0.6,0.3-1,0.2-1-0.4s0.5-1.3,1-1.6c0.1-0.1,0.3-0.1,0.4-0.2c0.1,0,0.2,0,0.3,0c0.2,0,0.4,0.2,0.4,0.6
		C233.6,41.4,233.1,42.1,232.6,42.5z"/>
	<g>
		<path class="st0" d="M295.9,62.4c-0.2,0-0.3,0.2-0.3,0.4c0,0.9,2.5,5,3.5,5.7c1.5,1.1,1.7,0.3,0.6-2.5
			C299.1,64.4,296.7,62.3,295.9,62.4L295.9,62.4z"/>
		<path class="st0" d="M298.2,74.8c-0.1,0-0.2,0-0.3,0c-0.1,0-0.3,0.1-0.4,0.2c-0.6,0.3-1,1.1-1,1.6c0,0.6,0.5,0.7,1,0.4
			c0.6-0.3,1-1.1,1-1.6C298.6,75.1,298.5,74.9,298.2,74.8L298.2,74.8z"/>
		<path class="st0" d="M259,90.9c-0.6,0-1.3,0.1-1.8,0.2c-1,0.3-0.2,0.5,1.8,0.5c2,0,2.8-0.2,1.8-0.5
			C260.3,90.9,259.6,90.9,259,90.9z"/>
		<path class="st0" d="M324.9,115.7c-0.6,0.1-3.7,2.7-7.2,6.1c-3.7,3.6-6.4,6.6-5.9,6.6C313.1,128.4,325.6,116.4,324.9,115.7
			C325,115.7,324.9,115.7,324.9,115.7L324.9,115.7z"/>
		<path class="st0" d="M276,121.4c0-0.1-0.4,0.4-1.2,1.3c-0.9,1.1-1.6,2.4-1.6,3c0,1.3,0.5,0.7,2-2.4
			C275.7,122.1,276,121.5,276,121.4z"/>
		<path class="st0" d="M270.9,123.4c0-0.1-0.4,0.4-1.2,1.3c-0.9,1.1-1.6,2.4-1.6,3c0,1.3,0.5,0.7,2-2.4
			C270.6,124.1,270.9,123.5,270.9,123.4L270.9,123.4z"/>
		<path class="st0" d="M266.6,123.7c-0.1-0.1-0.4,0.2-0.8,0.6c-0.8,0.8-1.9,2.7-2.3,4.1c-0.9,3.2-0.2,2.5,2-2
			C266.4,124.6,266.8,123.8,266.6,123.7z"/>
		<path class="st0" d="M261.9,125.3c0,0-0.1,0-0.1,0l0,0c-0.3,0.1-0.8,1.1-1.7,3c-1.1,2.4-1.1,2.4,0.4,0.6c0.9-1.1,1.6-2.4,1.6-3
			C262,125.6,262,125.4,261.9,125.3L261.9,125.3z"/>
		<path class="st0" d="M282.3,140.7c-0.8,0-2.7,0.4-5,1.3v0c-2.3,0.9-2.8,1.4-1.5,1.4c1.1,0,3.4-0.6,5.1-1.4
			C282.8,141.2,283.1,140.8,282.3,140.7L282.3,140.7z"/>
		<path class="st0" d="M195.9,145.8c-0.4,0-0.8,0-1.1,0.2c-0.8,0.3-0.6,0.6,0.6,0.6c1.1,0,1.7-0.2,1.3-0.5
			C196.5,145.9,196.2,145.8,195.9,145.8L195.9,145.8z"/>
		<path class="st0" d="M201.9,145.8c-0.6,0-1.1,0.1-1.6,0.2v0c-1,0.3-0.4,0.5,1.3,0.5c1.7,0,2.5-0.2,1.8-0.5
			C203,145.8,202.5,145.8,201.9,145.8L201.9,145.8z"/>
		<path class="st0" d="M232.9,147.8c-6.3,0.1-8,0.4-5.9,0.9c4.6,1.2,13.5,1.2,14.2,0C241.6,148,238.6,147.7,232.9,147.8z"/>
	</g>
	<path class="st0" d="M326.3,174.1L326.3,174.1c-1.1,0-3.3,2.2-3.3,3.3c0,0.5,0.9,0.4,2-0.2C327,176.1,327.8,174.1,326.3,174.1"/>
	<path class="st0" d="M186.4,234.4c-0.1,0-0.2,0-0.3,0c-0.1,0-0.3,0.1-0.4,0.2c-0.6,0.3-1,1.1-1,1.6c0,0.6,0.5,0.7,1,0.4
		c0.6-0.3,1-1.1,1-1.6C186.8,234.6,186.7,234.4,186.4,234.4L186.4,234.4z"/>
	<path class="st0" d="M293.2,224.2c-0.2,0-0.5,0.1-1,0.3c-0.9,0.4-1.7,1-1.7,1.5c0,1.3,0.6,1.1,2.1-0.6
		C293.2,224.6,293.4,224.2,293.2,224.2z"/>
	<g>
		<path class="st0" d="M204.8,257.6c0-0.1-0.4,0.4-1.2,1.3c-0.9,1.1-1.6,2.4-1.6,3c0,1.3,0.5,0.7,2-2.4
			C204.6,258.3,204.9,257.7,204.8,257.6z"/>
		<path class="st0" d="M209.7,260.5c-0.6,0-3.6,5.6-3.6,6.7c0,1.1,0.6,0.3,2.4-3.4C209.5,262,210,260.5,209.7,260.5z"/>
		<path class="st0" d="M211.6,262.9c-0.1,0-0.2,0-0.4,0.1c-0.6,0.3-1,1-1,1.6c0,1.5,0.7,1.1,1.4-0.6
			C211.9,263.3,211.8,262.9,211.6,262.9L211.6,262.9z"/>
		<path class="st0" d="M214.2,263.5c-0.5-0.2-3.9,6.7-3.9,8.1c0,0.8,0.9-0.5,2-2.9c1.1-2.4,2-4.7,2-5.1
			C214.2,263.6,214.2,263.5,214.2,263.5L214.2,263.5z"/>
		<path class="st0" d="M213.6,271c-0.2,0-0.3,0.4-0.3,1.1c0,1.1,0.2,1.7,0.5,1.3c0.3-0.3,0.4-1.2,0.1-1.9
			C213.8,271.2,213.7,271,213.6,271L213.6,271z"/>
		<path class="st0" d="M253.9,277.8c-0.5,0-1,0.7-1,1.5s0.2,1.5,0.4,1.5c0.2,0,0.7-0.7,1-1.5C254.6,278.4,254.4,277.8,253.9,277.8
			L253.9,277.8z"/>
	</g>
</g>
</svg>
