<?xml version="1.0" encoding="utf-8"?>
<!-- Generator: Adobe Illustrator 24.2.0, SVG Export Plug-In . SVG Version: 6.00 Build 0)  -->
<svg version="1.1" id="tablet" xmlns="http://www.w3.org/2000/svg" xmlns:xlink="http://www.w3.org/1999/xlink" x="0px" y="0px"
	 viewBox="0 0 386.1 342.2" style="enable-background:new 0 0 386.1 342.2;" xml:space="preserve">
<style type="text/css">
	.st0{fill:#1E1E1E;}
</style>
<path id="main_path" class="st0" d="M357.4,0c-5.3,0-18.4,2.3-21,3.6c-0.7,0.4-3.2,1.5-5.4,2.5c-10.9,4.9-16,7.4-17.4,8.8
	c-0.9,0.8-2.7,2-3.9,2.6c-1.3,0.6-4.1,2.8-6.3,4.8c-2.2,2-4.1,3.7-4.2,3.7c-0.5,0-10.6,11.1-15.9,17.6c-1.7,2.1-4.1,4.9-5.4,6.4
	c-1.3,1.5-2.9,3.5-3.5,4.5c-1.4,2.2-14.5,15.9-21.3,22.5c-2.9,1.4-4.6,2.3-5.4,3c-1-0.3-2-0.7-3.4-1.4c-0.1-0.5-0.4-0.9-1.3-0.9
	c-0.6-0.3-1.2-0.6-1.7-0.8c-0.8-0.5-1.6-1-2.6-1.7c-3.8-1.6-7.3-4-11.2-5.1c-2.8-1.4-5.6-3-8.6-4c-0.6-0.3-1.2-0.5-1.6-0.7
	c-1.9-0.8-3.1-1.6-6.6-3.3c-0.5-0.2-1-0.3-1.5-0.4c-0.3-0.1-0.5-0.2-0.8-0.3c-1.9-0.8-3.1-1.6-6.6-3.3c-0.5-0.2-1-0.3-1.5-0.4
	c-0.7-0.7-1.8-1.1-2.6-0.3c-0.1,0-0.1,0.1-0.1,0.1c0,0-0.1,0.1-0.1,0.1c-5.4,2.6-11,4.8-15.8,8.2c-4.7,2.8-10.1,4.7-14.2,8.2
	c-1.3,2.1-4.2,1.8-6,2.9c-3.4,3.4-8.5,4.7-12.7,6.9c-0.9,0.6-1.6,1.3-2.2,2c-1.5,0.9-3,1.8-4.5,2.8c-3.8,2.4-8.2,4-11.6,7
	c-1,1.8-3.4,1.5-4.9,2.5c-2.8,2.9-6.9,4-10.4,5.9c-0.5,0.4-1,0.9-1.5,1.3c-1.1,0.6-2.8,1.5-4.2,2.3c-1.6,0.9-5.5,3.2-8.6,4.9
	s-6.7,3.9-8.1,4.7c-2.7,1.6-4.3,1.4-7.6-0.8c-1-0.7-3.7-2-6-3c-2.3-1-6.3-2.8-9-4.1c-2.7-1.3-5.9-2.6-7.1-2.9s-3.2-1-4.5-1.6
	c-5-2.2-19.7-3.3-21.9-1.6c-0.5,0.4-2.1,0.7-3.5,0.7c-3.8-0.1-12.2,6.4-13.5,10.5c-0.2,0.7-0.7,1.3-0.9,1.3c-0.3,0-1.1,1.3-1.9,2.8
	c-0.8,1.5-1.7,3.4-2,4.1c-0.4,0.7-0.9,2.6-1.1,4.1c-0.2,1.5-0.6,3.5-0.9,4.3c-1.3,4.4,1.3,16.1,3.5,16.1c0.4,0,0.6,0.3,0.4,0.7
	c-0.5,0.8,2.6,4.2,5.8,6.5l2.1,1.5l-8.7,5.5c-4.8,3-10.4,7.1-12.5,9.1c-3.7,3.5-3.8,3.7-3.4,6.8c0.7,5.1,3.6,8,13.2,12.8
	c1.8,0.9,3.6,2,3.8,2.3c0.2,0.3,1.6,1.2,3,1.9c1.4,0.8,5.6,3.2,9.3,5.3c3.7,2.2,9.1,5.1,12,6.6c2.9,1.4,7.6,4.1,10.4,6
	c6,3.9,16.2,9.1,17.9,9.1c0.6,0,1.3,0.3,1.4,0.6c0.1,0.3,1.8,1.3,3.8,2.3c2,1,3.6,2,3.6,2.2c0,0.6,3.7,2.4,5,2.4c0.5,0,1,0.3,1,0.6
	c0,0.3,1.1,1,2.4,1.5c1.3,0.5,4.7,2.4,7.5,4.2c5.3,3.5,8.1,4.9,16.6,8.7c4.5,2,11.1,6,12.3,7.5c0.2,0.2,0.9,0.7,1.5,0.9
	s2.8,1.5,4.9,2.7c9,5.3,8.5,5.2,14.4,4.2c2.9-0.5,6-1.4,6.7-2.1c1.5-1.3,13.6-9.6,14.1-9.6c0.2,0,1.9-1,3.8-2.2
	c1.9-1.2,3.7-2.2,4-2.2c0.3,0,1.3,1.7,2.2,3.7c1.4,3,1.8,5,1.8,10.3c0.1,7.1-0.5,15.2-1.2,16.3c-0.2,0.4-0.6,2-0.9,3.6
	c-0.5,2.8-2.1,6-3.8,7.5c-0.5,0.4-1.6,1.9-2.6,3.4c-1,1.4-3,3.8-4.6,5.2c-1.6,1.4-2.8,3-2.8,3.5c0,0.5-0.5,0.9-1,0.9
	c-0.6,0-1.6,0.7-2.4,1.5c-0.7,0.8-1.8,1.5-2.4,1.5c-0.6,0-1,0.3-1,0.7c0,0.4-0.5,0.7-1.1,0.7c-0.6,0-1.8,0.6-2.5,1.4
	c-0.8,0.8-2.2,1.7-3.2,2c-1,0.3-1.9,0.8-2.1,1c-0.2,0.3-2.6,1.6-5.2,2.9s-6.3,3.3-8,4.3l-3.2,1.8l-6.4-1.5c-3.5-0.8-7.8-1.5-9.6-1.5
	c-3.6,0-8.7,1.8-9.6,3.4c-0.3,0.6-1,1-1.6,1c-1.4,0-8,3.6-9.7,5.2c-2.1,2-2.5,7-0.8,9.3c0.8,1.1,1.8,1.9,2.3,1.9
	c0.5,0,0.9,0.3,0.9,0.7c0,0.4,1.3,1.2,2.8,1.9c1.5,0.7,4,1.8,5.4,2.6c1.4,0.8,3.8,1.9,5.2,2.6c3.1,1.4,2.9,1.3,5,0.8
	c0.9-0.2,1.7-0.9,1.7-1.4c0-0.5,1.7-1.6,3.7-2.6c3.3-1.5,7.2-5.3,5.4-5.3c-0.4,0-0.9,0.3-1.2,0.7c-0.3,0.4-1.1,0.7-1.8,0.7
	c-1.5,0-2.5-2.6-2-5.4c0.2-0.9,0.1-1.3,0-0.7c-0.2,0.5-0.7,0.9-1.1,0.9c-0.4,0-0.6-0.4-0.4-0.9c0.2-0.5,0.6-1.8,0.8-2.8
	c0.4-1.6,0.3-1.5-0.5,0.3c-0.7,1.5-1.1,1.9-1.5,1.1c-0.3-0.6-0.3-0.3-0.1,0.6c0.3,1.3,0.2,1.6-0.8,1.2c-0.6-0.2-1.2-0.8-1.2-1.2
	c0-0.4-0.4-0.5-0.8-0.2c-0.5,0.3-0.6-0.3-0.4-1.6l0.4-2.1l-0.9,1.9c-0.7,1.5-0.9,1.6-1.2,0.6c-0.4-1.6,1.9-6,2.8-5.4
	c0.4,0.2,0.7-0.1,0.7-0.7c0-0.8-0.7-1.2-2.1-1.2c-1.3,0-1.7,0.2-1.1,0.6c0.5,0.3,0.7,1.2,0.5,1.9c-0.3,0.7-0.8,1.1-1.1,0.8
	c-0.4-0.2-0.4,0.2-0.2,0.9c0.3,0.8,0.2,1.1-0.3,0.8c-0.4-0.3-1-0.1-1.1,0.4c-0.2,0.7-1,0.5-2.6-0.7c-1.2-0.9-3.6-1.9-5.2-2.2
	c-1.6-0.3-2.4-0.7-1.8-0.9c0.6-0.2,2.9-1.2,5.2-2.2c8.7-3.9,19.2-1.5,22.3,5.2c0.8,1.7,0.7,1.9-0.5,1.6c-1.2-0.3-1.3-0.1-0.7,2.5
	c0.4,1.7,0.4,3.2-0.1,3.6c-0.4,0.4-0.7,1-0.7,1.3c0,1.2,1.7,0.5,3.8-1.5c2-2,2.1-2.5,1.7-6.2l-0.4-4l2.9-1.3
	c4.8-2.2,6.2-3.1,6.2-3.7c0-0.3,0.6-0.6,1.4-0.6c0.8,0,1.8-0.5,2.3-1.1c0.5-0.6,3.4-2.3,6.4-3.8c3.1-1.5,5.9-3.2,6.4-3.8
	c0.5-0.6,1.3-1,1.9-1c0.6,0,1-0.3,1-0.7c0-0.4,0.5-0.7,1-0.7c0.5,0,3.9-3,7.4-6.7c4.5-4.7,7.1-8.2,8.8-11.8c1.3-2.8,2.7-5.6,3-6.3
	c0.6-1.2,1.6-5.3,1.9-7.8c0.1-0.8,0.2-1.5,0.3-1.5c0.1,0,0.3-3,0.5-6.7c0.5-8.4-1.5-16.3-4.8-19.7c-1.4-1.5-1.2-2.1,1.2-3.1
	c1.2-0.5,2.8-1.5,3.5-2.2c0.8-0.7,3.6-2.7,6.2-4.4c2.7-1.7,5.3-3.5,5.8-3.9c0.5-0.4,1.2-0.8,1.6-0.8c0.4,0,0.8-0.3,1-0.6
	c0.1-0.3,2.7-2.1,5.7-3.8l5.5-3.2l1.5,1.6c0.8,0.9,1.9,1.6,2.4,1.6c0.5,0,2.2,0.7,3.9,1.6c5.3,2.8,16,5.9,21.9,6.4
	c3.2,0.2,6.8,0.7,8.2,1.2c3.1,1,16,0.9,20.3,0c5-1.1,8.8-2.6,10.7-4.4c2.2-2,7.5-8.2,8.3-9.8c0.4-0.7,0.9-1.4,1.1-1.6
	c0.9-0.8,3.8-6.7,3.8-7.8c0-0.6,0.7-2.3,1.6-3.8c0.9-1.5,1.9-3.8,2.2-5.1c0.3-1.3,1.3-4.9,2.1-8c0.8-3.1,1.7-7.1,1.9-8.8
	c0.2-1.8,0.6-3.5,0.8-3.9s0.5-1.6,0.7-2.8c0.1-1.2,0.6-4.1,1.1-6.6c0.5-2.5,0.8-5,0.7-5.6c-0.4-3.6,0.3-4.6,6.8-9.5
	c3.7-2.8,6.7-5.3,6.7-5.6c0-0.3,0.3-0.6,0.7-0.6c0.7,0,7.4-4.2,8.3-5.2c0.9-1,9.8-6.8,10.5-6.8c0.4,0,0.7-0.3,0.7-0.6
	c0-0.3,1.2-1.2,2.7-2c3.1-1.7,7-7,7-9.5c0-2.4-1.7-4.7-3.2-4.1c-0.6,0.2-1.6,0-2.1-0.7c-0.5-0.6-2.6-1.9-4.7-2.8
	c-7.5-3.4-10.6-4.8-13.5-5.9c-6.4-2.4-11.9-5.3-10.9-5.6c1.7-0.6,3.9-3,10.2-11.3c7-9.2,19.4-22.1,24.2-25.1
	c1.8-1.1,3.5-2.3,3.7-2.6c0.2-0.3,2.1-1.5,4.3-2.6c2.2-1.1,3.9-2.3,3.9-2.7c0-0.4,0.5-0.7,1.1-0.7s1.1-0.3,1.1-0.6s0.8-1.1,1.8-1.7
	c2.8-1.7,17.6-15.9,17.6-16.8c0-0.5,0.7-1.5,1.6-2.3c1.7-1.6,4.7-7.6,4.5-9.1c-0.1-0.5,0.3-1.7,0.9-2.6c0.6-0.9,1.1-3.4,1.2-5.4
	c0.1-2,0.3-3.9,0.5-4.2c0.2-0.3,0-0.8-0.4-1c-0.4-0.3-0.6-0.8-0.4-1.1c1.2-1.9-3.9-9.3-8.4-12.1C373.3,2.2,363.6,0,357.4,0L357.4,0z
	 M356.9,4.6c5.3,0.1,10.9,0.8,14.4,2.1c6.1,2.2,6.6,2.6,8.3,6.4c4,9.4,0.2,20.5-11,31.8c-6.6,6.7-7,7-10.1,9c-1.1,0.7-2.8,2-3.9,3
	c-1,0.9-3.8,3-6.2,4.5c-6.7,4.3-7.1,4.6-8.5,5.8c-0.7,0.6-2.9,2.5-4.8,4.1c-2,1.6-4,3.4-4.4,3.9c-0.5,0.5-2.2,2.4-3.7,4.1
	c-1.6,1.7-4.1,4.7-5.6,6.5c-1.5,1.8-3,3.6-3.3,3.8s-1,1.1-1.5,2c-1.6,2.8-7.4,10.8-8.8,12.2c-1.8,1.8-1.6,1.8-7.1-1.1
	c-4.4-2.3-9.3-4.5-12.6-5.7c-0.8-0.3-3.6-1.4-6.1-2.5c-2.5-1.1-4.8-2-5.1-2c-0.5,0-2.5-0.8-10.5-4.4c-2.5-1.1-6.4-2.8-8.6-3.7
	l-4.2-1.7l10-10c5.5-5.5,10-10.3,10-10.6c0-0.3,1.9-2.6,4.1-5c2.2-2.5,4.1-4.9,4.1-5.4c0-0.5,0.7-1.3,1.5-1.7
	c0.8-0.4,1.5-1.2,1.5-1.6c0-0.4,1.3-2.1,2.8-3.6c3.8-3.7,8.4-8.9,8.4-9.3c0-0.2,1.8-2,3.9-4c6-5.6,7.8-7.1,9.6-8.4
	c0.9-0.6,2.5-1.9,3.5-2.8c1.8-1.7,5.4-3.8,9.3-5.4c1.1-0.5,2.1-1.2,2.1-1.5c0-0.4,0.3-0.6,0.6-0.5c0.3,0.1,2.4-0.8,4.6-1.9
	c2.2-1.1,4.5-2,5.1-2c0.5,0,1.6-0.3,2.3-0.7c1.5-0.8,5.7-1.9,11.4-3C350.7,4.8,353.7,4.6,356.9,4.6z M200.5,59.8
	c0.6,0.3,1.1,0.7,1.9,1.1c3.4,1.8,8.5,5.1,16.9,8.5c2.8,1.5,6.2,3.1,10.4,4.7c2,0.7,4,1.5,5.9,2.3c2.5,1.2,5,2.5,7.5,3.9
	c0.2,0,0.3-0.1,0.5-0.2c2.8,1.4,5.6,2.8,8.4,4.3c0.1,0,0.1,0,0.2,0c0.1,0.1,0.2,0.1,0.4,0.2c0.4,0,0.8,0.2,1,0.7
	c0.3,0.4,0.9,0.7,1.5,0.7c0.6,0,3.6,1.2,6.6,2.6c3.1,1.4,5.8,2.6,6.1,2.6c0.3,0,3.7,1.4,7.7,3.1c4,1.7,8.2,3.5,9.5,4
	c6,2.5,13.6,6,14.6,6.7c1.8,1.4,13.3,6.7,25,11.6c4.1,1.7,9,3.8,10.8,4.7c2.9,1.4,3.2,1.7,1.9,2.4c-0.8,0.4-2.4,1.7-3.7,2.7
	c-2.1,1.8-9.3,6.8-12.3,8.5c-3.1,1.9-10.2,6.6-11.1,7.3c-2.2,2-3.2,2.7-3.6,2.7c-0.2,0-0.8,0.3-1.3,0.8c-1.5,1.3-17.8,11.9-18.3,12
	c-0.3,0-1.7,1-3.1,2.2c-1.4,1.2-3,2.2-3.4,2.2c-0.5,0-1.5,0.6-2.3,1.4c-0.8,0.8-2.6,2-4,2.7c-1.4,0.7-2.8,1.6-3.3,2
	c-0.8,0.7-10.1,7.3-13.4,9.6c-0.9,0.6-4.1,2.9-7.1,5.2c-6.2,4.6-12.8,9.1-13.3,9.1c-0.6,0-14.1,9.3-14.3,9.9
	c-0.1,0.3-0.6,0.6-1.1,0.6s-1.3,0.5-2,1s-3.5,2.3-6.4,3.8c-2.9,1.5-6.1,3.3-7.1,3.8c-2.6,1.4-3,1.3-5.7-1.1
	c-1.3-1.2-3.4-2.7-4.7-3.4c-3.3-1.7-3-3.5,0.8-5.6c6.4-3.4,9.8-5.5,12.6-7.6c1.5-1.2,3-2.2,3.3-2.2c0.3,0,3-1.7,6.1-3.7
	c3.1-2.1,5.9-3.7,6.3-3.7c0.4,0,0.7-0.3,0.7-0.7c0-0.4,0.7-0.9,1.5-1.2c0.8-0.3,1.9-0.9,2.4-1.4c0.5-0.5,3.1-2.2,5.8-3.9
	c2.7-1.6,5-3.1,5.2-3.4c0.5-0.5,11.3-7.7,12.3-8.1c0.4-0.2,2.8-1.8,5.4-3.6c2.6-1.8,4.9-3.3,5.2-3.3c0.3,0,4.3-2.7,8.8-5.9
	c4.5-3.2,13.5-9.5,19.9-13.8c6.4-4.4,12.4-8.6,13.3-9.4c2.1-1.8,3.1-5.4,2-6.9c-0.8-1.1-7.9-5.4-7.9-4.8c0,0.6-14.5-5.7-22.8-9.8
	c-4.5-2.3-9.9-5-12-6c-2.1-1-4.6-2.5-5.7-3.3c-1.1-0.8-3.4-1.9-5.1-2.5c-1.7-0.6-4.1-1.6-5.5-2.1c-0.9-0.4-1.8-0.8-2.6-1.1l0,0
	c-0.1-0.1-0.3-0.2-0.5-0.2c-0.2-0.1-0.6-0.2-0.7-0.3c0,0,0,0,0,0c0,0,0,0,0,0.1c-3.9-2-5.1-1.2-12.8-6.4c-4.2-1.7-8-4.4-12.4-5.5
	c-5-2.5-7.5-3.8-9-4.3c-1.9-0.8-3.1-1.6-6.6-3.3c-0.5-0.1-0.9-0.3-1.4-0.4c-1.1-0.8-2.2-1.9-3.6-1.2c-3.4,0.7-6.6,2.5-10.1,2.8
	c-5.7,1.6-10.8,4.5-16.2,6.7c-12.4,6.8-24.2,14.7-36,22.4c-4.4,3.1-9.2,6-13.6,8.7c-0.4,0.2-0.8,0.4-1.2,0.7
	c-2.9,1.8-5.6,3.5-7.6,4.9c0,0,0,0.1,0,0.1c-1.1,0.6-2.5,1.4-4,2.3c-3.1,1.8-6,3.4-6.4,3.4s-0.7,0.3-0.7,0.7c0,0.4-0.9,0.8-2.1,1.1
	c-1.5,0.3-3.1-0.2-5.7-1.9l-3.4-2.2l1.8-1.4c1-0.7,2.2-1.4,2.7-1.4c0.5,0,0.9-0.3,0.9-0.6s0.9-1,2.1-1.5c1.1-0.5,3.9-2.2,6.3-3.6
	c2.6-1.2,5.9-3,8.8-4.7c2.9-0.9,9.2-4.3,21.4-12.5c4.4-3.1,9.1-5.5,13.9-7.9c1.8-0.7,4.2-1.9,7.4-3.7c0.2-0.1,0.5-0.2,0.7-0.4
	c0,0,0,0,0,0c4.1-2.3,9.3-5.4,16.1-9.8C182.3,68,191.6,64.2,200.5,59.8L200.5,59.8z M200.6,73.3c0.8,0.6,2,1.3,4,2.3
	c3.6,1.9,9,5.5,18.4,9.1c7.3,2.6,13.9,5.8,20.7,9.4c0,0,0,0.1-0.1,0.1c0.2,0.1,0.5,0.2,0.8,0.3c0.3,0.2,0.7,0.3,1,0.5
	c0.1,0,0.2,0,0.2-0.1c3.3,1.3,8.1,3.7,15.6,7.5c6.2,3.1,13.8,7.1,17,8.8c3.2,1.7,6.2,3.1,6.6,3.1c1.2,0,10,3.5,15.7,6.2
	c7.9,3.8,8,3.7-11.5,17c-7.7,5.2-11.2,7.8-15.3,11c-2.5,2-5,3.6-13.9,9.2c-7.6,4.8-12,7.6-21.2,13.8c-3.7,2.5-7,4.6-7.4,4.8
	c-0.4,0.2-3.6,2.3-7.1,4.7c-3.5,2.4-6.9,4.7-7.5,5.1c-1.5,1-8.8,5.4-10.6,6.3c-0.8,0.4-1.4,1-1.4,1.3c0,0.3-0.4,0.6-1,0.6
	c-0.5,0-1.7,0.6-2.5,1.3s-3.7,2.4-6.3,3.8c-2.6,1.3-5,2.4-5.2,2.4c-0.6-0.1-3.3-2.4-14.9-12.3c-2.9-2.5-5.2-4.9-5.3-5.3
	c0-0.5-1.1-1.6-2.4-2.6c-1.3-1-3.3-2.7-4.4-3.8c-1.1-1.1-2.4-2.1-2.9-2.1c-0.5,0-0.9-0.3-0.9-0.8c0-1-4.6-5.2-5.8-5.2
	c-0.5,0-1-0.4-1-1c0-0.5-1.7-2.1-3.8-3.6c-2.1-1.4-5.1-4-6.9-5.6c-1.7-1.7-4.1-3.7-5.3-4.6l-2.2-1.5l1.7-2.5l1.7-2.5l-1.9,2.2
	c-1.5,1.7-2.1,2-2.6,1.2c-0.3-0.5-0.9-1-1.3-1c-0.4,0-0.6-0.3-0.5-0.7c0.1-0.4-0.1-0.5-0.5-0.3c-1.9,1.2-1.4-1.6,1-5.2
	c1.5-2.2,2.5-4.1,2.4-4.1s-1.4,1.6-2.7,3.6c-1.3,2-2.5,3.7-2.6,3.8c-0.1,0.1-0.6,0-1-0.2c-0.5-0.3,1.4-3.6,4.9-8.7
	c3.1-4.5,5.5-8.2,5.3-8.2c-0.2,0-2.8,3.5-5.8,7.8c-3,4.3-5.6,7.8-5.8,7.8c-0.2,0-0.9-0.3-1.5-0.7c-1-0.6-0.9-1.1,0.6-3.9
	c0.9-1.8,1.2-2.5,0.6-1.7c-0.6,0.8-1.5,2.1-2.1,2.8c-0.9,1.2-1.2,1.1-4.3-1.7c-1.8-1.7-3.3-3.3-3.2-3.7c0.1-0.4-0.3-0.5-1-0.3
	c-1.3,0.5-4.3-1.8-3.6-2.9c0.2-0.4,0.1-0.6-0.2-0.5c-0.8,0.3-5.5-2.6-5.5-3.3c0-0.3-0.6-0.6-1.4-0.6c-1.2,0-2.3-1.3-2.3-2.7
	c0-0.2,2.3-1.5,5-2.9c4.3-2.2,6-3.2,10-5.9c0.2-0.1,0.3-0.2,0.4-0.3c0.5-0.4,1.2-0.8,1.8-1.2c3.8-2.1,7.8-4.1,11.1-6.9
	c3.7-2.6,8-4.4,11.2-7.6c0.9-1.8,3.3-1.7,4.7-2.8c2.6-3.1,6.7-4.4,10-6.5c3.3-1.9,6.6-3.8,9.6-6.1c6-3.2,12.2-6.3,18.6-8.8
	c4.6-1.3,8.8-4,13.6-4.6C199.3,73.6,200,73.4,200.6,73.3z M38.3,107.7c6.5,0,18.7,1.6,19.6,2.9c0.2,0.4,1.2,0.7,2.1,0.7
	s3.4,0.8,5.6,1.9c2.1,1,4.2,1.9,4.7,1.9c0.7,0,6.6,3.1,11.4,6l2.1,1.3l-3.6,2.3c-2,1.3-3.9,2.3-4.2,2.3c-0.3,0-1.6,0.8-2.9,1.7
	c-2.9,2.1-7.7,4.8-10.4,6c-1.1,0.5-2.1,1.1-2.1,1.5c0,0.3-0.4,0.6-0.9,0.6s-2.7,1.2-4.8,2.6c-2.1,1.4-4,2.6-4.2,2.6
	c-0.5,0-9.7,5.4-10.2,5.9c-0.2,0.2-2.9,1.7-6.1,3.2c-3.1,1.5-5.9,2.8-6.2,2.8c-0.3,0-0.5-0.6-0.5-1.4c0-0.8-0.6-1.6-1.4-1.9
	c-0.8-0.3-2.7-1.9-4.1-3.6c-4-4.7-3.9-4.4-4.8-9.5c-0.9-5.2,2.8-15.9,7.4-21.1c1.3-1.4,2.3-2.9,2.3-3.3c0-0.4,1.6-1.5,3.5-2.5
	c2-1,3.7-2,3.9-2.3C34.6,107.9,36.2,107.7,38.3,107.7z M86.3,124.1L86.3,124.1c1.3,0,2.5,0.7,3.9,2c0.6,0.5,1.7,1.3,2.6,1.8
	c1.6,0.8,1.6,0.8-0.2,2.2c-1,0.8-2.3,1.4-2.9,1.4c-0.6,0-3.5,1.5-6.5,3.4c-3,1.8-5.6,3.4-5.9,3.4c-0.3,0-2.4,1.3-4.8,2.9
	c-3.8,2.6-5,3.2-7.2,3.9c-0.4,0.1-3.5,2-6.9,4.2c-3.4,2.2-6.4,4-6.7,4c-0.3,0-1.4,0.8-2.4,1.7c-1,0.9-3,2.5-4.3,3.4
	c-1.4,1-2.4,2.4-2.4,3.3c0,2.1,4.8,6.5,9.8,9c2.2,1.1,4.9,2.8,6,3.8c3.3,3.1,10.4,7.1,29.5,16.8c3.7,1.9,25.2,13.9,28.4,15.9
	c1.6,1,4.6,2.6,6.5,3.6c2,0.9,3.6,2,3.6,2.3c0,0.3,0.6,0.8,1.3,1c1.6,0.5,4.9,2.5,8,4.7c3.3,2.3,9.8,5.3,11.4,5.1
	c6.4-0.6,10-1.6,14.2-4c2.6-1.5,6.7-3.6,9-4.8c2.3-1.1,4.7-2.4,5.4-2.8c4-2.6,12.1-6.2,12.5-5.6c0.3,0.4,1.5,1.4,2.8,2.2
	c2.6,1.7,3.1,2,5.9,4.5c1.9,1.7,2.2,3.4,0.5,3.4c-0.4,0-2.5,1.1-4.6,2.5c-2.2,1.4-6,3.5-8.4,4.6c-2.5,1.2-7.6,4.1-11.4,6.5
	c-6.5,4.1-11,6.7-16.2,9.4c-1.2,0.6-3.3,2-4.6,3c-1.3,1-2.9,1.9-3.6,2c-1.2,0.2-6.4,4.8-6.4,5.8c0,0.3,0.7,0.3,1.6,0.1
	c1.2-0.3,1.5-0.2,1,0.6c-0.3,0.6,0.4,0,1.7-1.4c1.3-1.3,2.8-2.4,3.4-2.4c0.6,0,1.7-0.7,2.4-1.5c0.7-0.8,1.5-1.3,1.7-1.2
	c0.2,0.2,1.5-0.5,2.9-1.6c1.4-1.1,2.5-1.7,2.5-1.3s0.9-0.2,2-1.2c1.1-1,1.7-1.3,1.4-0.7c-0.3,0.6,0.2,0.4,1.2-0.6
	c1-0.9,2.1-1.7,2.5-1.7c0.3,0,0,0.8-0.8,1.7c-0.8,0.9,0.5-0.3,2.9-2.6c2.4-2.4,4.6-4.1,5-3.9c0.4,0.2,0.8,0.1,1.1-0.3
	c0.4-0.7,4.7-3,5.5-3c0.2,0-0.1,0.6-0.7,1.3c-0.9,1.2-0.9,1.2,0.3,0.3c0.7-0.6,1.1-1.2,0.9-1.4c-0.4-0.4,3.3-3.1,4.4-3.1
	c0.4,0,0,0.8-0.7,1.7c-0.8,0.9-0.1,0.5,1.6-1c2.5-2.3,7.9-5.5,9.3-5.5c0.2,0,1.6-0.9,3.1-2.1c2.5-1.9,5.1-2.2,5.1-0.4
	c0,0.4,0.3,0.5,0.7,0.3c0.4-0.3,0.7-0.3,0.7-0.2c0,0.4-8.1,5.8-8.7,5.8c-0.3,0,0.4-1.1,1.6-2.4c1.2-1.3,0.2-0.5-2.2,1.9
	c-2.4,2.4-4.8,4.2-5.3,4c-0.5-0.2-1.6,0.4-2.3,1.4c-1.2,1.6-8.8,7-11.4,8.1c-0.6,0.3-1.9,1.1-3,1.8c-1.4,1-1.7,1-1.1,0.2
	c0.4-0.6-0.3-0.4-1.5,0.6c-7.5,5.8-16.2,11.4-17,10.9c-0.5-0.3-0.7-0.3-0.4,0.1c0.7,0.7-5.6,5.6-7.2,5.6c-0.7,0-1.4-0.9-1.6-2.3
	c-0.7-3.4-1.8-3.4-1.8,0c0,1.9-0.3,3-0.9,3c-1.5,0-13.1-6-15.9-8.3c-2.5-2-9.4-6-16.7-9.8c-3.8-2-7.8-4.3-8.9-5.1
	c-1-0.8-2.3-1.5-2.7-1.5c-0.4,0-1.3-0.5-2-1c-1-0.9-7.5-4.4-20.2-11c-3.8-2-6.9-3.3-8.6-3.6c-0.4-0.1-1.2-0.5-1.8-1
	c-1.1-0.9-3.3-2.2-6.1-3.7c-1-0.5-3.6-2-5.8-3.4c-2.1-1.3-7-4-10.8-5.8c-9.1-4.4-14.6-7.4-16.2-8.8c-0.7-0.6-4.8-2.8-9.2-5
	c-4.4-2.2-8.3-4.3-8.7-4.8c-0.8-1,0.3-5.7,1.3-5.7c0.4,0,0.5,1,0.3,2.2c-0.2,1.2-0.1,2.7,0.3,3.5c0.6,1.1,0.8,1,1.5-1
	c0.5-1.3,1.3-2.3,2-2.3c0.9,0,1,0.3,0.4,1.4c-0.4,0.8-0.7,2.1-0.7,2.8c0,0.8,0.4,0.3,0.9-1.1c0.4-1.3,1.1-2.4,1.5-2.4
	s0.5,1.1,0.3,2.4c-0.4,2.2-0.4,2.3,0.4,0.7c1.3-2.6,2.2-2,1.8,1.1l-0.4,2.8l0.8-2.4c1-3.1,3.3-2.7,2.6,0.4l-0.4,2l1-1.8
	c1.2-2.2,2.2-1,1.6,1.9c-0.4,1.9-0.3,1.9,0.3,0.4c0.7-1.7,2.3-2.3,2.3-1c0,0.4,0.5,0.5,1.1,0.3c1.3-0.5,1.4-0.3,0.4,2.3
	c-0.4,1.1-0.6,1.9-0.4,1.9c0.2,0,0.7-0.9,1.1-1.9c0.9-2.3,2.1-1.9,1.9,0.6c-0.1,0.9,0,1.1,0.1,0.4c0.2-0.7,0.6-1.3,0.9-1.3
	c0.3,0,3.8,1.8,7.6,4s7.5,4.2,8.1,4.5c0.6,0.3,2.5,1.4,4.1,2.4c1.6,1,4.5,2.5,6.4,3.4s4.4,2.3,5.6,3.3c1.2,0.9,4.3,2.8,6.7,4.1
	c2.5,1.3,7.2,4.1,10.5,6.1c3.3,2.1,7.5,4.5,9.3,5.4c1.8,0.9,3.5,1.8,3.7,2c0.5,0.5,2.6,1.7,18.7,9.9c7.2,3.7,14.4,7.6,16.1,8.7
	c3.8,2.6,7.7,4.1,8.4,3.4c0.3-0.3,0.1-0.7-0.3-0.9c-0.5-0.2-1.6-1-2.5-1.8c-0.9-0.8-2-1.5-2.4-1.5c-0.4,0-2.1-1-3.8-2.1
	c-2.9-2-9.4-5.5-26.7-14.4c-3.5-1.8-6.5-3.5-6.8-3.8c-0.2-0.3-1.7-1.1-3.3-1.7c-1.6-0.7-5.8-3-9.4-5.2c-3.6-2.2-7.3-4.4-8.3-4.8
	c-1-0.4-2.5-1.2-3.3-1.7c-7.5-4.7-11.7-7.1-24.3-13.5c-8-4.1-15.5-8.1-16.6-8.8c-1.1-0.8-2.4-1.4-2.8-1.4c-0.5,0-0.8-0.3-0.8-0.7
	c0-0.4-0.4-0.7-0.9-0.6c-0.5,0.1-0.9-0.2-0.8-0.7c0.1-0.5-0.4-0.8-1.2-0.8c-2,0.2-10.7-5.4-10.1-6.4c0.3-0.6,0.1-0.6-0.5,0.1
	c-1.5,1.4-2.4,1.1-1.5-0.6c0.6-1.1,0.6-1.5-0.1-1.5c-0.5,0-0.7-0.5-0.4-1.1c1-2.5-0.4-0.9-2.1,2.6c-2.4,4.7-2.4,6,0,1.5
	c1-1.8,1.8-3,1.8-2.6c0,0.4-0.5,1.6-1.1,2.6c-0.6,1-1.1,2.6-1.1,3.5c0,0.9-0.5,1.7-1,1.7c-1.6,0-2.8-1.7-2.7-3.7l0.1-1.9l0.6,1.9
	c0.4,1.3,0.6,1.5,0.7,0.5c0-0.7,0.7-2.7,1.6-4.3c1.9-3.7,1.9-4.7,0-2.2L5.2,176l0.4-1.9c0.2-1-0.5-0.2-1.5,1.9
	c-1,2.1-1.9,3.3-1.9,2.8c-0.1-1.7,3-7,3.7-6.5c0.6,0.4,1-0.6,0.8-2.1c0-0.3,0.4-0.6,0.9-0.6c0.6,0,1.5-0.5,2-1.2
	c1.9-2.3,13.1-9.1,23.9-14.5c2.7-1.3,7.6-4.1,10.9-6.1c3.3-2,6.4-3.6,6.9-3.6c0.5,0,0.9-0.3,0.9-0.7c0-0.4,0.4-0.7,0.9-0.7
	c0.5,0,2.8-1.3,5.2-3c2.3-1.6,4.4-3,4.7-3c0.2,0,2.2-1,4.3-2.3c2.2-1.3,6.1-3.5,8.8-5c2.7-1.5,5.3-3,5.9-3.4
	C83.7,124.7,85,124,86.3,124.1L86.3,124.1z M340.9,124.5c0.3,0,0.2,0.4,0,1.3c-0.8,3.5-4.1,6.4-15.6,14.2
	c-6.5,4.4-13.6,9.5-15.8,11.3s-5,4-6.2,4.7c-1.2,0.7-2.2,1.6-2.2,1.9s-0.7,0.6-1.5,0.6c-0.8,0-2.1,0.6-2.8,1.4
	c-0.7,0.7-4.7,3.6-8.8,6.3c-4.1,2.7-9.2,6.1-11.2,7.5c-9.3,6.3-28.6,18.9-30.3,19.7c-2.2,1.1-3.2,1.8-13.2,8.5c-4,2.7-9,5.9-11.1,7
	s-4.1,2.3-4.6,2.7c-0.4,0.4-1,0.4-1.3,0.2c-0.3-0.3-0.7,0.1-0.9,0.7c-0.3,0.7-1.6,1.9-3.1,2.7c-3.8,2.2-4.7,1.9-1.7-0.8l2.6-2.3
	l-2.4,1.7c-1.8,1.3-2.6,1.5-3.3,0.8c-0.7-0.7-0.4-1.1,0.9-1.6c1.9-0.8,2.7-1.3,7.9-4.7c1.7-1.1,3.3-2.1,3.6-2.1
	c0.4,0,9.5-6,16.5-10.8c0.8-0.6,4-2.6,7.1-4.6s5.9-3.9,6.4-4.4c0.7-0.7,9.6-7,12.9-9c0.7-0.4,1.7-1.1,2.4-1.6
	c0.6-0.5,2.8-2.1,4.7-3.5c2-1.5,3.8-2.7,4-2.7c0.5,0,11.2-6.8,16.5-10.5c1.7-1.2,3.3-2.2,3.6-2.2c0.7,0,8-5.1,10.4-7.3
	c0.6-0.5,1.4-0.9,1.8-0.9c0.4,0,0.8-0.3,0.8-0.6c0-0.3,0.6-0.9,1.4-1.3c3.1-1.7,10.9-6.9,13.1-8.8c1.3-1.1,2.6-2,3-2.1
	c0.8,0,9-6.1,9.4-6.9c0.1-0.3,0.7-0.6,1.2-0.6c0.5,0,1.6-0.7,2.4-1.6c0.8-0.9,2-1.9,2.7-2.2C340.5,124.5,340.7,124.4,340.9,124.5z
	 M97,131.1L97,131.1c0.1,0,0.2,0,0.2,0.1c0.4,0.2,0.5,0.7,0.3,1.1c-0.2,0.4,0.1,0.5,0.7,0.2c1.4-0.5,1.5,0.5,0.2,2
	c-0.5,0.6-0.2,0.5,0.6-0.2c1.4-1.2,1.6-1.2,2.8,0.2c0.7,0.8,1.8,1.5,2.4,1.5s1.1,0.5,1.1,1.1c0,0.6,0.4,1,0.9,0.9
	c0.5-0.1,0.9,0.4,0.8,1.1c-0.1,0.7,0.3,1.1,0.8,0.9c0.5-0.2,2.9,1.2,5.3,3c2.5,1.9,4.8,3.4,5.2,3.4c0.4,0,1.3,0.6,2,1.3
	c1.5,1.6,6.6,6.2,17.4,15.4c1.2,1.1,2.6,1.9,3.1,1.9c0.5,0,1,0.5,1.3,1.1c0.2,0.6,2.2,2.5,4.4,4.1c5.3,4.1,15.5,13.5,21.5,19.6
	c2.7,2.8,5.1,5,5.4,5c0.3,0,1.7,1.1,3.1,2.4c1.4,1.3,3.8,3.4,5.3,4.6c2.6,2.1,2.7,2.3,1.5,3.5c-0.7,0.8-1.5,1.4-1.9,1.4
	c-0.8,0-4.2,1.7-11.1,5.5c-2.7,1.5-6,3.3-7.5,4c-1.4,0.7-3.6,2-4.8,2.8c-4.8,3.2-15,1.6-22.8-3.5c-9.7-6.5-13.5-8.8-14.6-8.8
	c-0.6,0-1.4-0.5-1.8-1.1c-0.3-0.6-3.1-2.2-6-3.7c-3-1.4-5.9-2.9-6.4-3.3c-0.5-0.4-3.1-1.9-5.8-3.2s-5-2.7-5.2-2.9
	c-0.2-0.2-6.1-3.2-13.1-6.7c-7-3.5-13.7-7.1-15-8c-1.3-0.9-2.6-1.7-2.9-1.7c-0.3,0-2.3-1.3-4.5-2.9c-2.1-1.6-5.5-3.8-7.5-4.8
	c-5.2-2.7-6.2-3.7-6.7-6.2c-0.4-2-0.1-2.4,3.5-4.8c6.3-4.2,5.6-3.8,24.9-14.7C89.7,134.2,95.6,131.1,97,131.1L97,131.1z
	 M295.9,163.6l-0.4,4.3c-0.2,2.4-0.7,5.5-1.1,6.9c-0.4,1.4-0.5,2.8-0.3,3.1c0.2,0.3,0.1,0.8-0.3,1c-0.4,0.2-0.9,2.2-1.2,4.3
	c-0.3,2.2-0.8,4.3-1.2,4.7c-0.4,0.4-0.8,1.6-1,2.6c-0.2,1-0.5,2.4-0.7,3c-0.2,0.6-1,3.1-1.7,5.6c-0.7,2.5-2.6,7-4.2,10.1
	c-1.6,3.1-2.9,6-2.9,6.4s-0.6,1.3-1.3,1.9c-0.7,0.6-2.5,2.6-4,4.3c-1.5,1.7-3,3.1-3.4,3.1c-0.4,0-1.5,0.6-2.5,1.4
	c-1,0.8-3.1,1.6-4.8,1.9c-4.4,0.7-10.6,1.2-10.9,0.9c-0.2-0.2-2.6-0.5-5.5-0.8c-2.9-0.3-6.4-0.6-7.8-0.8c-1.4-0.2-4.3-0.5-6.4-0.8
	c-2.1-0.2-4.8-0.9-6.1-1.5s-2.7-1.1-3.2-1.1s-1.9-0.5-3.3-1.1s-4.2-1.8-6.4-2.8l-4-1.7l1.7-1.4c0.9-0.8,3.2-2.2,5.1-3.2
	c5.8-3.2,18.7-11.4,21.9-13.9c1.7-1.3,4.4-3.1,6.1-3.9c2.8-1.4,25.8-16.5,40-26.4c3.1-2.2,6.6-4.4,7.8-5.1L295.9,163.6z M11.8,180.1
	c0.1,0,0.1,0.3,0.1,0.7c0,0.6-0.3,1.8-0.7,2.6l-0.6,1.5l0-1.5c0-0.8,0.3-2,0.7-2.6C11.5,180.3,11.7,180.1,11.8,180.1L11.8,180.1z
	 M96.5,322.4c3,0.1,7.7,2,13.1,5.5c6.6,4.2,7.5,5.3,6.4,8c-0.6,1.4-1.8,1.6-1.8,0.2c0-1.6-3.5-4.6-7.9-6.9c-2.3-1.1-4.3-2.4-4.5-2.7
	c-0.6-0.9-5.5-2.8-7.3-2.9c-1.4,0-1.4-0.1-0.4-0.7c0.5-0.3,1-0.4,1.7-0.4C96.1,322.4,96.3,322.4,96.5,322.4L96.5,322.4z M93.2,326
	c1.5,0,5.5,1.2,6.5,2.1c0.4,0.4-0.4,0.3-1.7-0.2c-2.4-0.8-3.5-0.5-3.5,1c0,0.4-0.4,0.9-0.8,1.1c-1,0.3-1.9-3.4-0.9-4
	C92.8,326.1,93,326,93.2,326z M102.6,329.9c0.1,0,0.5,0.2,1.3,0.5c3.7,1.7,8.2,5.4,8.2,6.7v0c0,0.7-0.3,1.5-0.6,1.6
	c-0.8,0.4-5-1.2-5.6-2.2c-0.3-0.5-1.2-0.7-2.1-0.5c-0.8,0.2-1.5,0-1.5-0.4c0-0.5-0.7-0.8-1.5-0.8s-1.5-0.5-1.5-1.1
	c0-1.4,1.7-2.4,2.1-1.3c0.2,0.5,0.6,0.7,1,0.5c0.4-0.2,0.7-0.1,0.7,0.3c0,0.8,4.5,2.6,5.1,2c0.4-0.4-2.6-3.3-4.7-4.7
	C102.8,330.1,102.5,329.9,102.6,329.9L102.6,329.9z M97,330.6c1.1,0,2.3,0.5,2.3,1.2c0,0.3-0.5,0.8-1.2,1c-1.6,0.6-1.5,0.6-2.5-0.6
	c-0.7-0.8-0.6-1.1,0.3-1.5C96.3,330.7,96.7,330.6,97,330.6z"/>
<g id="small_nodes">
	<g>
		<path class="st0" d="M85.5,325.2c-0.1-0.5-0.1-1.7-0.2-2.8c0-1.1-0.1-2-0.2-2.1c-0.1-0.1-0.1-0.2,0-0.4c0.1-0.1,0-0.5,0-0.7
			c-0.1-0.5-0.1-0.5-1.3-0.3c-2,0.2-5.2,0.1-10.8-0.4c-0.6-0.1-1.4-0.1-1.9-0.2c-0.5,0-1.2-0.1-1.6-0.2c-0.2,0-0.4-0.1-0.5-0.1h0
			c-0.2,0-0.4,0.1-0.6,0.2c-0.3,0.3-0.4,0.5-0.3,4.6c0,2.4,0.1,4.5,0.1,4.7c0.2,0.7,0.4,5.4,0.5,8.5c0,0.4,0.9,0.7,2.5,0.8
			c0.6,0.1,1.2,0.1,1.3,0.2c0.1,0,0.5,0.1,0.9,0.2c0.4,0.1,1,0.3,1.3,0.3c0.9,0.1,8-0.1,8-0.2c0,0,0.3-0.1,0.7-0.1
			c0.4,0,0.8-0.2,0.9-0.3c0.1-0.1,0.4-0.2,0.6-0.2s0.5-0.1,0.5-0.3C86,335.6,85.9,327.5,85.5,325.2z M84.4,335.5
			c-0.3,0-0.5,0.1-0.6,0.3c-0.1,0.2-0.4,0.3-0.7,0.4c-0.3,0-1,0.1-1.6,0.2c-2.8,0.3-6.8,0.1-8-0.3c-0.2-0.1-0.7-0.2-1.3-0.2
			c-0.6,0-1.3-0.2-1.7-0.2c-0.7-0.2-0.7,0.2-0.8-3.6c-0.1-2.5-0.2-4-0.4-5c-0.1-0.9-0.1-7.6,0-7.8c0-0.1,0.1-0.1,0.2-0.1h0h0
			c0.1,0,0.2,0,0.4,0.1c0.2,0.1,0.6,0.2,0.8,0.2c0.4,0,2.8,0.2,3.6,0.3c1.4,0.2,3.3,0.3,6.4,0.3c1.9,0,3.5,0.1,3.6,0.1
			c0.1,0.1,0.2,1.5,0.2,3.2c0.1,1.7,0.2,3.2,0.2,3.4c0.1,0.4,0.2,1.2,0.2,4.4C85,335.4,85,335.5,84.4,335.5z"/>
		<path class="st0" d="M79.9,320.8c-0.1,0-0.2,0.1-0.4,0.2c-0.3,0.3-0.4,0.5-0.3,1.3c0.1,0.9,0.1,1-0.3,1.1l-0.4,0.1L79,324
			c0.3,0.2,0.4,0.5,0.4,0.7c-0.1,0.3,0.4,0.8,0.8,0.8c0.1,0,0.2-0.2,0.2-0.5c0-0.5,0.1-0.6,0.5-0.3c0.2,0.1,0.2,0.4,0.2,0.9
			c-0.1,0.7-0.1,0.8,0.2,0.8c0.4,0,0.9-0.5,0.8-0.8c-0.1-0.1,0-0.5,0.2-0.9c0.2-0.4,0.2-0.6,0.1-0.7c-0.1-0.1-0.2-0.6-0.3-1.2
			c0-0.7-0.1-1.1-0.3-1.2c-0.3-0.1-0.6,0.6-0.7,1.4c-0.1,0.8-0.9,0.7-1-0.1c0-0.2,0-0.6-0.1-1c0-0.4-0.1-0.8-0.2-0.9
			C80,320.8,80,320.8,79.9,320.8L79.9,320.8z"/>
		<path class="st0" d="M78,324.7c-0.4-2.6-0.9-3.2-2.7-3.6c-0.2,0-0.6-0.1-1-0.1v0c-1.2,0-2.8,0.2-3.2,0.4c-0.4,0.2-0.4,0.6,0.2,0.8
			c0.5,0.2,0.7,0.9,0.8,3.2c0.1,1.1,0,1.1-0.5,1.3c-0.3,0.1-0.6,0.2-0.7,0.3c-0.1,0.2,0.3,0.5,0.9,0.6c0.3,0,0.5,0.1,0.6,0.2
			c0.1,0.1,0.1,1.4,0.1,2.9c0,2.2,0.1,2.8,0.3,3.1c0.4,0.4,0.9,0.3,0.8-0.2c-0.1-0.7-0.1-6.1,0-6.1c0,0,0.4-0.1,0.8-0.2
			c2-0.3,2.9-0.6,3.4-1.2C78.1,325.8,78.1,325.6,78,324.7z M75.3,326.2c-0.8,0.1-1.5,0.3-1.7,0.3c-0.3,0.1-0.4-0.1-0.5-1.6
			c-0.1-0.7-0.2-1.5-0.3-1.8c-0.2-0.5-0.2-0.7,0-0.8c0.2-0.1,0.5-0.2,1-0.2c0.5,0,1,0.1,1.6,0.2c1,0.2,1.2,0.4,1.5,2.1
			C77.2,325.7,77.1,325.9,75.3,326.2z"/>
		<g>
			<path class="st0" d="M83.1,331.1c0.4-0.1-0.1-0.7-0.7-0.8c-0.5-0.1-0.7-0.2-0.8-0.6c-0.2-0.7-0.9-1.9-1.5-2.5
				c-0.2-0.2-0.3-0.3-0.5-0.3c-0.3,0-0.5,0.3-0.7,1.1c-0.3,1.3-0.6,1.8-0.9,1.8c-0.2,0-0.5,0.2-0.7,0.4c-0.3,0.3-0.3,0.4-0.1,0.6
				c0.1,0.1,0.4,0.2,0.5,0.2c0.2,0,0.2,0.1,0.1,0.2c-0.3,0.4-1.4,2.4-1.4,2.6c0,0.1,0.1,0.3,0.2,0.5c0.3,0.3,0.4,0.3,0.8-0.5
				c0.2-0.4,0.5-0.8,0.6-0.8c0.1-0.1,0.2-0.3,0.2-0.5c0-0.2,0.1-0.4,0.2-0.4c0.1,0,0.2-0.2,0.2-0.4c0-0.5,0.4-0.7,1.3-0.7
				c1.1,0,1.1,0.1,1.1,0.3c0,0.1,0.2,0.4,0.4,0.6c0.2,0.2,0.4,0.5,0.4,0.6s0.2,0.5,0.3,0.7c0.3,0.4,0.4,0.4,0.7,0.2
				c0.3-0.3,0.3-0.3-0.1-1.1C82.4,331.5,82.5,331.4,83.1,331.1z M80.7,330.2c-0.1,0-0.4-0.1-0.7-0.1c-0.5-0.1-0.5-0.1-0.4-0.6
				c0.1-0.4,0.2-0.6,0.3-0.6c0.1,0,0.3,0.2,0.5,0.6C80.6,329.9,80.7,330.2,80.7,330.2z"/>
			<polygon class="st0" points="79.7,327 79.7,327 79.7,327 			"/>
		</g>
	</g>
	<g>
		<path class="st0" d="M122.8,320.9c0,0-0.1,0-0.2,0.1c-1,1-3.1,7.5-3,9.2c0,0.7,0.5-0.2,1-2.1c0.5-1.8,1.4-4.4,1.8-5.6
			C122.8,321.5,123,320.9,122.8,320.9z"/>
		<path class="st0" d="M114.9,322.3c-0.1,0-0.3,0.2-0.6,0.6c-0.4,0.6-0.7,1.6-0.7,2.2c0,0.7,0.3,0.6,0.7-0.4
			C114.9,323.3,115.1,322.3,114.9,322.3z"/>
		<path class="st0" d="M124.5,322.4c-0.1,0-0.3,0.5-0.6,1.4c-0.5,1.1-1.1,2.1-1.5,2.1c-0.3,0-0.6,1.2-0.6,2.6c0,1.4,0.3,2.6,0.7,2.6
			c0.7,0,0.8-0.2,1.1-3.7c0.1-1,0.4-2.7,0.6-3.7C124.4,322.8,124.5,322.4,124.5,322.4L124.5,322.4z"/>
	</g>
	<g>
		<path class="st0" d="M164.4,241.4c0,0-0.3,0.2-0.9,0.7c-0.7,0.6-1.3,1.2-1.3,1.3c0,0.6,0.6,0.2,1.6-1
			C164.2,241.7,164.4,241.4,164.4,241.4z"/>
		<path class="st0" d="M161.7,241.8l-1.8,1.5c-1.8,1.5-1.8,1.5-1.3,0c0.6-1.6-1.1,0.2-5.6,6c-2.1,2.7-2.1,2.7,0.7-0.4
			c1.7-1.8,3.3-3.3,3.7-3.2c0.4,0.1,1.5-0.8,2.5-1.9L161.7,241.8z"/>
		<path class="st0" d="M162.1,244.4c0,0-0.3,0.2-0.9,0.7c-0.7,0.6-1.3,1.2-1.3,1.3c0,0.6,0.6,0.2,1.6-1
			C161.9,244.7,162.2,244.4,162.1,244.4z"/>
		<path class="st0" d="M154.3,244.7l-2.2,1.9c-1.2,1-2.6,2.1-3,2.4c-0.4,0.4-0.4,0.6,0,0.6c0.4,0,1.7-1.1,3-2.4L154.3,244.7z"/>
		<path class="st0" d="M157.5,246.6c-0.2,0-1,0.7-1.7,1.5c-0.7,0.8-1.2,1.5-1,1.5c0.2,0,1-0.7,1.7-1.5
			C157.3,247.3,157.7,246.6,157.5,246.6z"/>
		<path class="st0" d="M148.8,250.4c-0.5,0-1.2,0.7-1.6,1.5c-0.4,0.8-0.7,1.5-0.5,1.5c0.2,0,0.9-0.7,1.6-1.5
			C149,251,149.3,250.4,148.8,250.4z"/>
	</g>
	<g>
		<path class="st0" d="M194.9,222c-0.2,0-1.5,1.2-2.9,2.6c-1.4,1.4-2.4,2.6-2.2,2.6c0.2,0,1.5-1.2,2.9-2.6
			C194.2,223.1,195.1,222,194.9,222z"/>
		<path class="st0" d="M181.4,231.7c-0.2,0-1.2,0.8-2.1,1.9c-1,1-1.6,1.9-1.4,1.9c0.2,0,1.2-0.8,2.1-1.9
			C181,232.5,181.6,231.7,181.4,231.7z"/>
		<path class="st0" d="M177,233.9c-0.2,0-1.2,0.8-2.1,1.9c-1,1-1.6,1.9-1.4,1.9c0.2,0,1.2-0.8,2.1-1.9
			C176.5,234.7,177.2,233.9,177,233.9z"/>
	</g>
	<path class="st0" d="M86.6,195.8c-0.9,0-2-0.5-2.6-1.1c-0.5-0.5-1-0.7-1.6-0.7c-1.3,0-2.9,1-4.7,3c-2.5,2.8-2.9,5.5-1.1,7.3
		c2.5,2.5,9.3,0.9,11.8-2.9C90,199.1,88.9,195.8,86.6,195.8z M84.8,201.3c-2.9,1.9-6.2,2.3-6.8,0.9c-0.7-1.8,0.1-3.3,2.7-4.6
		c1-0.5,1.8-0.8,2.5-0.8c1.1-0.1,1.9,0.5,2.6,1.9C86.5,199.9,86.3,200.3,84.8,201.3z"/>
	<g>
		<path class="st0" d="M31.8,158c-0.7,0-3,2.6-3.2,3.7c-0.1,0.5-0.4,1.6-0.7,2.4c-0.4,1.2-0.4,1.3,0.4,0.4c0.7-0.9,0.8-0.8,0.5,0.6
			c-0.5,2.3-0.2,2.1,1.7-1.1c1.6-2.8,1.6-2.8,0.1-1.4c-2,1.8-2,0.9,0-1.9c0.9-1.2,1.4-2.4,1.2-2.5C31.9,158,31.8,158,31.8,158
			L31.8,158z"/>
		<path class="st0" d="M32.3,163.9c0,0-0.1,0-0.1,0.1c-0.5,0.3-1.2,1.2-1.6,2c-1.1,2.1-0.4,1.8,1.1-0.5
			C32.3,164.5,32.6,163.9,32.3,163.9L32.3,163.9z"/>
		<path class="st0" d="M33.4,165.2c-0.1,0-0.3,0.3-0.9,1.1c-0.6,0.8-1.1,2-1.1,2.6c0.1,1,0.1,1,0.5,0c0.2-0.6,0.7-1.8,1.1-2.6
			C33.3,165.5,33.5,165.2,33.4,165.2L33.4,165.2z"/>
	</g>
	<g>
		<path class="st0" d="M97,133.8c-0.2,0-1.2,0.8-2.1,1.9c-1,1-1.6,1.9-1.4,1.9c0.2,0,1.2-0.8,2.1-1.9
			C96.6,134.6,97.2,133.8,97,133.8z"/>
		<path class="st0" d="M100.1,138.2c0,0-0.3,0.2-0.9,0.7c-0.7,0.6-1.3,1.2-1.3,1.3c0,0.6,0.6,0.2,1.6-1
			C99.9,138.6,100.1,138.3,100.1,138.2z"/>
		<path class="st0" d="M106.9,140.9l-1.2,1.5c-0.7,0.8-1.5,2.2-2,3l-0.7,1.5l1.2-1.5c0.7-0.8,1.5-2.2,2-3L106.9,140.9z"/>
		<path class="st0" d="M110.5,141.5c-0.4,0.1-2.2,2.5-3.9,5.2c-0.7,1.1-1.1,2.1-0.9,2.1C106.1,148.7,110.6,142.2,110.5,141.5
			C110.6,141.5,110.5,141.5,110.5,141.5L110.5,141.5z"/>
		<path class="st0" d="M83.5,143.7c0,0-0.1,0-0.1,0c-0.2,0-0.4,0.1-0.7,0.3c-1.5,0.9-18.4,21.3-18.4,22.2c0,1.3,10.1-9.6,15.9-17.3
			C82.9,145.3,83.9,143.8,83.5,143.7L83.5,143.7z"/>
		<path class="st0" d="M70.4,148.9c-0.5,0.1-1.6,0.8-3.3,2.4c-2.8,2.7-7.4,9.5-7.4,11c0,1.2,1.5-0.3,3.8-3.8
			c1.3-1.9,3.5-4.8,4.9-6.4C70.5,150,71,148.9,70.4,148.9z"/>
		<path class="st0" d="M82.9,153.9c-0.1,0-0.3,0.2-0.6,0.3c-1.3,0.8-9.9,11.7-9.9,12.5c0,1.2,0.5,0.6,4.9-5.1
			C82.1,155.3,83.1,153.9,82.9,153.9z"/>
		<path class="st0" d="M80.5,165.2c-0.1,0-0.4,0.3-1,1c-0.6,0.8-1.1,1.9-1.1,2.5c0,0.9,0.2,0.9,1.1,0.1c0.6-0.5,1.1-1.6,1.1-2.5
			C80.6,165.6,80.6,165.2,80.5,165.2L80.5,165.2z"/>
		<polygon class="st0" points="117.9,173.7 117.9,173.7 117.9,173.7 		"/>
		<path class="st0" d="M117.9,173.7c-0.7,0-2,1.6-4.2,4.8c-3.9,5.6-3.6,6,0.6,0.8l3.1-3.8v2.9c0,1.6,0.3,3.4,0.7,4
			c0.5,0.8,0.7-0.4,0.7-4C118.8,175.2,118.6,173.7,117.9,173.7z"/>
	</g>
	<g>
		<path class="st0" d="M122.5,124.8c0,0-0.3,0.2-0.9,0.7c-0.7,0.6-1.3,1.2-1.3,1.3c0,0.6,0.6,0.2,1.6-1
			C122.3,125.1,122.6,124.8,122.5,124.8z"/>
		<path class="st0" d="M115.5,128.5c-0.2,0-1.1,1-2,2.2c-0.9,1.2-1.4,2.2-1.2,2.2c0.2,0,1.1-1,2-2.2
			C115.2,129.5,115.7,128.5,115.5,128.5z"/>
		<path class="st0" d="M119.2,128.8c-0.1,0-0.4,0.3-1,1c-1.1,1.3-2.7,3.5-3.5,4.9c-1.9,3.4-0.6,1.9,2.8-3.1
			C118.8,129.7,119.4,128.8,119.2,128.8z"/>
		<path class="st0" d="M150.2,131c0,0-0.3,0.2-0.9,0.7c-0.7,0.6-1.3,1.2-1.3,1.3c0,0.6,0.6,0.2,1.6-1
			C150,131.4,150.3,131.1,150.2,131z"/>
		<path class="st0" d="M132.2,131.5c0,0-0.3,0.2-0.9,0.7c-0.7,0.6-1.3,1.2-1.3,1.3c0,0.6,0.6,0.2,1.6-1
			C132,131.9,132.3,131.6,132.2,131.5z"/>
		<path class="st0" d="M139.8,131.9l-1.5,1.8c-0.8,1-2,2.9-2.7,4.1l-1.3,2.3l1.5-1.8c0.8-1,2-2.8,2.7-4.1L139.8,131.9z"/>
		<path class="st0" d="M144.9,133.8c0,0-0.3,0.2-0.9,0.7c-0.7,0.6-1.3,1.2-1.3,1.3c0,0.6,0.6,0.2,1.6-1
			C144.7,134.1,145,133.8,144.9,133.8z"/>
		<path class="st0" d="M147.7,134c-0.2,0-1.1,1-2,2.2c-0.9,1.2-1.4,2.2-1.2,2.2c0.2,0,1.1-1,2-2.2C147.4,135,147.9,134,147.7,134z"
			/>
		<path class="st0" d="M129.7,134.5c-0.2,0-0.9,0.9-1.6,2c-0.7,1.1-0.9,1.7-0.5,1.5C128.5,137.4,130.3,134.5,129.7,134.5z"/>
		<path class="st0" d="M142.4,136.8c-0.2,0-1.1,1-2,2.2c-0.9,1.2-1.4,2.2-1.2,2.2c0.2,0,1.1-1,2-2.2
			C142.1,137.8,142.6,136.8,142.4,136.8z"/>
		<path class="st0" d="M152.5,137c0,0-0.3,0.2-0.9,0.7c-0.7,0.6-1.3,1.2-1.3,1.3c0,0.6,0.6,0.2,1.6-1
			C152.3,137.4,152.5,137.1,152.5,137z"/>
		<path class="st0" d="M155.5,137.8c0,0-0.3,0.2-0.9,0.7c-0.7,0.6-1.3,1.2-1.3,1.3c0,0.6,0.6,0.2,1.6-1
			C155.3,138.1,155.5,137.8,155.5,137.8z"/>
		<path class="st0" d="M147.2,139.7c0,0-0.3,0.2-0.9,0.7c-0.7,0.6-1.3,1.2-1.3,1.3c0,0.6,0.6,0.2,1.6-1
			C147,140.1,147.2,139.8,147.2,139.7z"/>
		<path class="st0" d="M150.2,140.5c0,0-0.3,0.2-0.9,0.7c-0.7,0.6-1.3,1.2-1.3,1.3c0,0.6,0.6,0.2,1.6-1
			C150,140.8,150.2,140.5,150.2,140.5z"/>
		<path class="st0" d="M152.9,140.8c-0.2,0-1.1,1-2,2.2c-0.9,1.2-1.4,2.2-1.2,2.2c0.2,0,1.1-1,2-2.2
			C152.6,141.8,153.1,140.8,152.9,140.8z"/>
		<path class="st0" d="M159.4,141c-0.7,0.8-1.7,2-2.8,3.4c-1.9,2.5-3.3,4.5-3.1,4.5c0.2,0,1.9-2,3.8-4.5c0.9-1.2,1.7-2.3,2.3-3.1
			C159.5,141.3,159.5,141.2,159.4,141z"/>
		<path class="st0" d="M147.6,143.5c-0.2,0-1.1,1-2,2.2c-0.9,1.2-1.4,2.2-1.2,2.2c0.2,0,1.1-1,2-2.2
			C147.3,144.5,147.9,143.5,147.6,143.5z"/>
		<path class="st0" d="M154.1,143.8c-0.7,0.8-1.7,2-2.8,3.4c-1.9,2.5-3.3,4.5-3.1,4.5c0.2,0,1.9-2,3.8-4.5c0.9-1.2,1.7-2.3,2.3-3.1
			C154.2,144,154.2,143.9,154.1,143.8z"/>
		<path class="st0" d="M164.2,147.6c-0.2,0.1-0.4,0.3-0.7,0.5c-0.7,0.6-1.3,1.2-1.3,1.3c0,0.6,0.6,0.2,1.6-1
			c0.3-0.3,0.4-0.5,0.5-0.7C164.3,147.7,164.2,147.6,164.2,147.6z"/>
		<path class="st0" d="M158.9,150.3c-0.2,0.1-0.4,0.3-0.7,0.5c-0.7,0.6-1.3,1.2-1.3,1.3c0,0.6,0.6,0.2,1.6-1
			c0.3-0.3,0.4-0.5,0.5-0.7C159,150.4,159,150.3,158.9,150.3z"/>
		<path class="st0" d="M162.2,150.5c0,0-0.3,0.2-0.9,0.7c-0.7,0.6-1.3,1.2-1.3,1.3c0,0.6,0.6,0.2,1.6-1
			C162,150.8,162.2,150.5,162.2,150.5z"/>
		<path class="st0" d="M156.9,153.2c0,0-0.3,0.2-0.9,0.7c-0.7,0.6-1.3,1.2-1.3,1.3c0,0.6,0.6,0.2,1.6-1
			C156.7,153.5,156.9,153.2,156.9,153.2z"/>
	</g>
	<g>
		<path class="st0" d="M209.3,144.3c-0.8,0-2.3,2.2-4.8,7.1c-1.3,2.5-5,9-8.4,14.6c-6.6,10.9-7.3,12.3-6.5,13.1
			c0.3,0.3,0.7-0.3,1-1.4c0.3-1,3.9-7.3,8.1-13.9c4.2-6.6,7.6-12.3,7.6-12.6c0-0.3,0.6-1.2,1.2-2.1c1.1-1.5,1.2-1.4,0.6,0.4
			c-0.3,1-1.8,4.8-3.4,8.4c-1.6,3.6-2.9,7-2.9,7.5c0,1.1,7.1-14.1,7.7-16.4c0.2-0.9,0.1-1.7-0.4-1.7c-0.4,0-0.4-0.5,0.2-1.1
			c0.5-0.6,0.7-1.4,0.4-1.7C209.5,144.3,209.4,144.3,209.3,144.3z"/>
		<path class="st0" d="M201.3,166.9c-0.1,0-0.2,0.3-0.2,0.8c0,0.8,0.1,1.2,0.4,1c0.2-0.2,0.3-0.9,0.1-1.4
			C201.4,167,201.3,166.9,201.3,166.9L201.3,166.9z"/>
	</g>
	<g>
		<path class="st0" d="M198.5,105.2c0,0-0.3,0.2-0.9,0.7c-0.7,0.6-1.3,1.2-1.3,1.3c0,0.6,0.6,0.2,1.6-1
			C198.3,105.6,198.5,105.3,198.5,105.2z"/>
		<path class="st0" d="M209.4,107.9c0,0-0.3,0.2-0.9,0.7c-0.7,0.6-1.3,1.2-1.3,1.3c0,0.6,0.6,0.2,1.6-1
			C209.2,108.3,209.4,108,209.4,107.9z"/>
		<path class="st0" d="M196,108.2c-0.2,0-1.1,1-2,2.2c-0.9,1.2-1.4,2.2-1.2,2.2c0.2,0,1.1-1,2-2.2
			C195.6,109.2,196.2,108.2,196,108.2z"/>
		<path class="st0" d="M206.8,110.9c-0.2,0-1.1,1-2,2.2c-0.9,1.2-1.4,2.2-1.2,2.2c0.2,0,1.1-1,2-2.2
			C206.5,111.9,207.1,110.9,206.8,110.9z"/>
		<path class="st0" d="M200.7,111.2c0,0-0.3,0.2-0.9,0.7c-0.7,0.6-1.3,1.2-1.3,1.3c0,0.6,0.6,0.2,1.6-1
			C200.5,111.6,200.8,111.3,200.7,111.2z"/>
		<path class="st0" d="M203.7,112c0,0-0.3,0.2-0.9,0.7c-0.7,0.6-1.3,1.2-1.3,1.3c0,0.6,0.6,0.2,1.6-1
			C203.5,112.3,203.8,112,203.7,112z"/>
		<path class="st0" d="M254.2,112.8c-0.4,0-2.3,2.4-4.3,5.4c-5.3,8.3-16.8,26.8-16.8,27.1c0,0.2-1,2-2.2,4.1s-2.2,4.2-2.2,4.6
			c0,1.1,2.2-1.8,5.3-6.9c1.4-2.3,3.4-5.3,4.6-6.7c1.2-1.4,2.1-2.9,2.1-3.2c0-0.3,1.2-2.4,2.6-4.7c1.4-2.2,2.6-4.3,2.6-4.5
			c0-0.2,1.9-3.3,4.1-6.8C254.6,114.4,255.3,112.8,254.2,112.8z"/>
		<path class="st0" d="M211.6,113.9c0,0-0.3,0.2-0.9,0.7c-0.7,0.6-1.3,1.2-1.3,1.3c0,0.6,0.6,0.2,1.6-1
			C211.4,114.3,211.6,114,211.6,113.9z"/>
		<path class="st0" d="M214.6,114.7c0,0-0.3,0.2-0.9,0.7c-0.7,0.6-1.3,1.2-1.3,1.3c0,0.6,0.6,0.2,1.6-1
			C214.4,115,214.6,114.7,214.6,114.7z"/>
		<path class="st0" d="M201.2,115c-0.2,0-1.1,1-2,2.2c-0.9,1.2-1.4,2.2-1.2,2.2c0.2,0,1.1-1,2-2.2S201.4,115,201.2,115z"/>
		<path class="st0" d="M207.6,115.2c-0.7,0.8-1.7,2-2.8,3.4c-1.9,2.5-3.3,4.5-3.1,4.5c0.2,0,1.9-2,3.8-4.5c0.9-1.2,1.7-2.3,2.3-3.1
			C207.8,115.5,207.7,115.4,207.6,115.2z"/>
		<path class="st0" d="M260.9,116.6c-0.4,0-2.9,3-5.5,6.8c-2.6,3.7-6.4,9.2-8.5,12.1c-2.1,3-4,6-4.3,6.7c-0.3,0.9-0.2,1.2,0.3,0.9
			c1.1-0.7,10.1-13,14.2-19.4C261.7,116.6,261.7,116.6,260.9,116.6z"/>
		<path class="st0" d="M269.9,117.2c-0.3-0.1-1,0.9-4.1,5.6c-1.9,2.8-3.5,5.5-3.5,6c0,0.7,1.1-0.4,4.5-4.6c1.8-2.2,3.8-6.3,3.4-6.7
			C270.1,117.4,270,117.3,269.9,117.2z"/>
		<path class="st0" d="M212.1,117.7c-0.2,0-1.1,1-2,2.2c-0.9,1.2-1.4,2.2-1.2,2.2c0.2,0,1.1-1,2-2.2S212.3,117.7,212.1,117.7z"/>
		<path class="st0" d="M218.5,118c-0.7,0.8-1.7,2-2.8,3.4c-1.9,2.5-3.3,4.5-3.1,4.5c0.2,0,1.9-2,3.8-4.5c0.9-1.2,1.7-2.3,2.3-3.1
			C218.7,118.2,218.6,118.1,218.5,118z"/>
		<path class="st0" d="M212.5,121.8c-0.2,0.1-0.4,0.3-0.7,0.5c-0.7,0.6-1.3,1.2-1.3,1.3c0,0.6,0.6,0.2,1.6-1
			c0.3-0.3,0.4-0.5,0.5-0.7C212.5,121.9,212.5,121.8,212.5,121.8z"/>
		<path class="st0" d="M274.8,122.9c-0.3,0-0.6,0.4-1.1,1.2c-0.5,1-1,2.1-1,2.5c0,0.4,0.7,0,1.6-0.9c0.9-0.9,1.4-2,1-2.5
			C275.2,123,275,122.9,274.8,122.9z"/>
		<path class="st0" d="M223.3,124.5c-0.2,0.1-0.4,0.3-0.7,0.5c-0.7,0.6-1.3,1.2-1.3,1.3c0,0.6,0.6,0.2,1.6-1
			c0.3-0.3,0.4-0.5,0.5-0.7C223.4,124.6,223.4,124.5,223.3,124.5z"/>
		<path class="st0" d="M210.4,124.7c0,0-0.3,0.2-0.9,0.7c-0.7,0.6-1.3,1.2-1.3,1.3c0,0.6,0.6,0.2,1.6-1
			C210.3,125,210.5,124.7,210.4,124.7z"/>
		<path class="st0" d="M221.3,127.4c0,0-0.3,0.2-0.9,0.7c-0.7,0.6-1.3,1.2-1.3,1.3c0,0.6,0.6,0.2,1.6-1
			C221.1,127.7,221.4,127.4,221.3,127.4z"/>
	</g>
	<g>
		<path class="st0" d="M301.4,113.1c-0.1,0-0.2,0-0.3,0.1c-0.4,0.3-0.7,0.8-0.7,1.2c0,1.1,0.5,0.8,1-0.5
			C301.6,113.4,301.6,113.1,301.4,113.1L301.4,113.1z"/>
		<path class="st0" d="M306.8,115.3c-0.1,0-0.1,0-0.2,0c-0.1,0-0.2,0.1-0.3,0.1c-0.4,0.3-0.7,0.8-0.7,1.2c0,0.4,0.3,0.5,0.7,0.3
			c0.4-0.3,0.7-0.8,0.7-1.2C307.1,115.5,307,115.4,306.8,115.3L306.8,115.3z"/>
		<path class="st0" d="M308.4,116c-0.1,0-0.4,0.2-0.6,0.6c-0.4,0.6-0.7,1.5-0.7,1.9c0,0.4,0.3,0.2,0.7-0.4c0.4-0.6,0.7-1.5,0.7-1.9
			C308.6,116,308.5,116,308.4,116L308.4,116z"/>
	</g>
</g>
</svg>
