<svg xmlns="http://www.w3.org/2000/svg" viewBox="0 0 506.57 374.3">
    <defs>
        <style>.nodules{fill:#1e1e1e;}</style>
    </defs>
    <g id="moon">
        <path class="main-path-fill" d="M443.82,0c-11.6-.1-24.4,2.2-31.5,6A72,72,0,0,1,402,10.6c-2.4.8-4.4,1.8-4.4,2.3s-2.3,2.4-5,4.2c-5.6,3.7-11.4,9.8-11.4,12a1.37,1.37,0,0,1-1.2,1.5c-1.5,0-7.6,12.4-9.9,20.2-3.9,13.6-3.5,29.8,1,38.7.8,1.6,3.1,6.4,5.1,10.6,9,19.2,25.3,31.5,47.6,35.8,11,2.1,36.8.8,44.2-2.3,2.1-.9,3.8-1.3,3.8-1,0,.9,4.6-1.8,10.4-6.2,17.4-13.1,25-29.9,24.3-53.3-.4-14.3-.9-16.9-5.6-31.2-4-12.2-6.8-16.9-14.6-24.5-6.4-6.3-23-14.8-31.7-16.4a51.54,51.54,0,0,0-10.8-1Zm.5,4.5h0c9.3,0,13.1,1.3,24.5,6.7,7.8,3.7,12.2,6.7,16.8,11.5,3.4,3.6,6.2,6.8,6.2,7.3a15.17,15.17,0,0,0,2.2,3.9,33.6,33.6,0,0,1,3.6,9c3.5,14.8,4.9,21.5,5.3,25.5a17.34,17.34,0,0,0,1.1,5.4c.4.6-.4,2.3-1.7,3.8a9.39,9.39,0,0,0-2.3,4.9c0,1.2-.5,2.2-1.2,2.2a1.16,1.16,0,0,1-1.2-1.2c0-.6-.8-1.2-1.8-1.2-1.4,0-1.5.5-.6,2.3a11.68,11.68,0,0,1,1.2,4.7c0,1.3.6,2.4,1.3,2.4.9,0,.9.5-.1,1.8-2.4,2.9-3.8,2-3-2.1l.7-3.8-2.4,2.8c-1.3,1.5-2.4,2.1-2.4,1.3s-.3-1.2-.6-.9-.1,2,.6,3.7c1.5,3.9,6.1,4.2,8.7.5s-2.9,9.2-6.2,14.4c-2.2,3.5-2.5,3.6-2,1.2.4-1.6.4-2.3,0-1.5a1.87,1.87,0,0,1-2.3.8c-.9-.4-1.7-.1-1.7.5s-1.2,2.5-2.6,4.1a42.38,42.38,0,0,0-4.6,6.5c-2.2,4-8,8.1-6,4.2,2.1-4.2,2.5-9.2.8-11.5-2.1-2.9-2.2-18.7-.1-23.6l1.5-3.5.8,3.8c.4,2.1,1.3,3.8,1.9,3.8,1.3,0,.6-5.2-1.8-12.4a29.18,29.18,0,0,1-1.6-7.4c0-1.5-.5-2.6-1.2-2.6-1.6,0-1.5,5.1.1,8.7,1.1,2.4.9,3.6-1.4,7.3-3.3,5.4-4.8,22.7-2.2,25.8,1.8,2.2,2.4,8.4,1.1,11.8-.6,1.6-3.1,3.2-7.2,4.5-6,2-30,3.4-35.7,2.2-1.3-.3-3.5-.8-5-1.1a3.31,3.31,0,0,1-2.8-3.2c-.1-2.6-.1-2.6-.9-.1-.6,2.1-1.3,2.3-3.5,1.5-1.9-.7-2.5-1.7-2.1-3.1.3-1.1.9-3.7,1.3-5.6.4-2.4.1-2-1.2,1.5-1,2.8-2.5,4.9-3.2,4.6s-2.1-4.6-3-9.7c-1.5-8.5-1.5-9.5.4-12.7,1.5-2.5,1.6-3.2.4-2.6-.9.5-.7-.1.5-1.5,2-2.3,7.5-12.1,5.9-10.5-.4.4-2-1.4-3.6-4.1-2.6-4.3-3.3-4.8-6.6-4.3a30.86,30.86,0,0,0-5.8,1.4c-1.4.6-2.1.4-2.1-.9,0-2.1-3.2-3.6-4.2-2a4,4,0,0,1-3,1.1c-3.3,0-2.9-4,1.2-12.4,1.9-3.9,3.5-8.3,3.5-9.8a16.61,16.61,0,0,1,1.7-6c2.2-4.2,1.5-4.8-5-4.8-4.2,0-5.1-.3-4.5-1.8.4-1.1.2-1.5-.6-1-1.7,1.1-.3-3.5,2.6-8.2,2.4-4,2.7-5.4,1.2-5.4-.6,0-1.7,1.7-2.6,3.8A59.19,59.19,0,0,1,381,45.5c-7.3,9.1-8.4,11-2.7,4.7,7-7.7,6.4-2.8-.6,5.4-6.2,7.1-7.7,7.9-6.2,3.2.6-1.8,1.9-6.4,3-10.3,2.4-8.5,10.8-21.8,16.5-26.2,2.3-1.8,5.4-4.4,7-5.9a22.45,22.45,0,0,1,7.9-3.9,41.82,41.82,0,0,0,8.5-3.4c5-3,13.7-4.7,25.3-4.9a27,27,0,0,0,4.6.3ZM127.12,41.9h0a2.32,2.32,0,0,0-2,.7c-.3.6-1.8,1-3.3,1-4.9,0-26,9.9-34.4,16.1A18.25,18.25,0,0,1,83,62.4c-.7,0-13.8,9-16.9,11.7a4.49,4.49,0,0,1-2.4,1.2c-.5,0-2.3,1.2-3.9,2.6s-6.9,5.8-11.8,9.6a190.24,190.24,0,0,0-17,15.6c-4.5,4.7-8.8,8.6-9.7,8.6-5.1,0-12.8,8.7-19.8,22.3-2.2,4.2-2,12.1.5,24.2.9,4.3.8,7.7-.2,12.9-2.2,10.7-1.8,43.5.9,64.2,1.4,10.9,6.7,34.9,9,40.6,5.2,12.8,6.3,15.3,9.4,20.2h0c1.8,2.8,3.7,5.1,4.2,5.1,1,0,6.4-13.1,5.7-13.8-.2-.2-1.3,1.8-2.4,4.5l-2,4.9-2.9-4.3c-3.7-5.4-7.6-14.5-6.7-15.4.4-.4.1-.7-.5-.7-1.3,0-3.7-7.3-4.4-13.5a15.94,15.94,0,0,0-.6-3.5,13.78,13.78,0,0,1-.7-2.9c-.3-1.6-1.1-5.2-1.8-8-1.2-4.4-1.1-5.3.9-7.6s1.9-2.4.1-1c-2.7,2.1-4,.8-1.9-1.9.9-1.1,1-1.7.3-1.2-1.9,1.1-2.9-5.2-1.2-7.3.9-1.2.9-1.4.1-.9s-1.6-1.1-2.1-4.6c-1.5-10.6-1.1-11.6,6-19.4,4.9-5.3,5.7-6.6,3-4.7a41,41,0,0,0-6.8,6.4c-1.6,2.1-3,3-3,2.1s2.4-4.6,5.4-8.2l5.4-6.6-5.3,5.6c-7.9,8.3-7.8,4.6.1-4.1,3.7-4.1,5.4-6.4,3.8-5.1a73.69,73.69,0,0,0-6.6,6.3l-3.7,3.9.1-7.9.1-7.9,8.2-7.6c4.5-4.2,6.1-6,3.5-4.1a78.38,78.38,0,0,0-7.6,6.6c-3.3,3.5-5.3,4-4,1,1.2-2.8,1.2-21.5-.1-24.1-.8-1.6-.5-2.1,1-2.1s1.8-.6,1.3-1.9a12.17,12.17,0,0,1-.7-3.8c0-1.7-.2-1.7-1.2-.2s-1.2,1.4-1.3-.6c-1-11.9,9.6-29.7,19.3-32.6,2.7-.8,9.6-4.8,15.3-8.8s11-7.5,11.8-7.8,1.2-.8.8-1.2-4.9,2-10,5.3c-6.9,4.4-8.6,5.1-6.4,2.8a44.17,44.17,0,0,1,7.9-6.1c2.8-1.6,4.7-3.4,4.4-4s.3-.7,1.4-.3c1.4.5,1.7.3,1.2-.6s-.2-1.1.7-.8,2.8-.4,4.3-1.6c2.1-1.6,2.4-2.4,1.3-3.1s-1.2-.5-.6.6.5,1.3-.4.7c-1.8-1.1-.4-3.4,1.7-2.6a2.09,2.09,0,0,0,2.4-.7c.5-.8.3-1-.6-.5-1.8,1.1-1.7-.3.1-2,.8-.8,4.9-3.7,9.1-6.6s11.9-8.1,17.1-11.7c12.3-8.5,31.2-17.8,36-17.8a7.44,7.44,0,0,0,5.4-2.1c1.5-2,1.7-1.9,3.4.2,1.8,2.4,2.3,8.6.9,10.8a14.72,14.72,0,0,1-3.8,2.9l-2.9,1.6,3.8,1c3.1.8,3.8,1.6,3.8,4.2,0,6-11.9,20.2-17,20.2-2.1,0-10.1,7.5-10.1,9.4,0,.5-1.4,2.9-3.1,5.4-5.6,8.1-10.7,17.8-11.6,21.9a33.83,33.83,0,0,1-2.4,7,32.74,32.74,0,0,0-2.3,8.8,43.82,43.82,0,0,1-1.9,8.8c-.7,1.7-1,5.4-.8,8.2.3,4-.2,5.6-2,7.1-2.3,1.9-2.3,2,1.5,1.9a10.17,10.17,0,0,1,6,1.8,7.37,7.37,0,0,0,3.1,1.9c.5,0,2,1.2,3.2,2.6,1.7,2,2.2,4.1,2,8.8-.3,7.2.7,9.1,2.5,4.6,3.1-8.3,1.2-12.8-8.6-20.4-3.6-2.8-4-4.9-2.6-15,1.1-8,4.3-22.1,5.3-23.5a45.34,45.34,0,0,0,3-7.1,68.59,68.59,0,0,1,5.9-11.4,35.38,35.38,0,0,0,4.5-8.4c.6-2.4,5.5-6.9,7.8-7.3,8.2-1.4,11.7-4.3,17.5-14.9,3.8-6.9,4.7-12.4,2.4-14.7a2.28,2.28,0,0,1-.3-2.9c2.2-3.6,2.8-12.2,1-14.9a9.68,9.68,0,0,0-6.1-2.8Zm266.1,7.6c1.4.1,1.5,2.3.3,6.9a45.17,45.17,0,0,1-2.8,7.9c-2.5,4.4-4.9,11.4-4.3,12.4.4.6-.2.7-1.2.3-2.2-.8-2.4-4.1-.4-6.3,1.2-1.4,1.2-1.4-.3-.3a3.22,3.22,0,0,1-3.2.5c-.9-.6.3-2.9,3.8-7.3,2.9-3.5,5.2-6.9,5.3-7.5s-2.2,1.8-5,5.2-6.2,7.5-7.6,9c-2.6,2.8-2.5,3.1,1.1,2.8,1.1-.1,2.1.3,2.1.8s-1.4,2.3-3,3.9l-3,2.9.8-3.1c.4-1.7.2-3.4-.4-3.9-1.7-1-.5-3.7,4.6-10.7C386.72,54,391.22,49.4,393.22,49.5Zm-7.4,0c2.7,0,1.7,2.3-4.2,9.9-7.2,9.2-8.7,10.4-8.7,6.8C372.92,63.9,384,49.5,385.82,49.5Zm-14.5,18.1h.2c.1,0,.2,0,.2.1a3.29,3.29,0,0,1,1.2,2.4c0,.9-.5,1.7-1.2,1.7s-1.2-1.1-1.2-2.4c.1-1,.4-1.7.8-1.8Zm10.3,8.2c.5-.1.8.7.8,2.4,0,2.7.4,3.1,2.3,2.5,3.4-1.1,4.2,1.6,1.3,4.6a13.47,13.47,0,0,0-2.9,6.8,20,20,0,0,1-1.5,6.2c-2.2,3.9-2.8-2.1-.9-7.7,2.4-6.8,2.4-9.7,0-6.6-1,1.3-1.5,3-1.2,3.9s.1,1.2-.7.8-1,.1-.5,2c.6,2.3.5,2.4-.5.8-.9-1.4-.8-3.7.3-7.9,1.1-4.7,2.6-7.7,3.5-7.8Zm10.1,6.6c1.2.1,1.1,1.7-.4,4.1-1.1,1.6-2.5,3-3.2,3-1.9,0-.7-4.9,1.5-6.3a3.44,3.44,0,0,1,1.8-.7c.2-.1.2-.1.3-.1Zm14.2,1.9c1,0,1.7.5,2.8,1.6,2.9,2.9,1.7,8.6-2.9,13.4-1.9,2-3.4,3.1-3.4,2.6s-1.4.3-3.1,1.9a29.27,29.27,0,0,0-5.3,7.6c-1.2,2.6-2.2,4-2.2,3.2-.1-3,3.6-10.1,9.4-18,3.2-4.5,5.9-8.5,5.9-9,0-1.5-14.2,18.5-15.9,22.4-.9,2.1-1.6,3-1.7,2.2a10.05,10.05,0,0,1,1.2-3.9,22.07,22.07,0,0,0,1.7-5.8c.4-3.5,3.7-8.9,7-11.7,2-1.6,2.5-4.2.7-3-2.1,1.3-8.5,11.3-8.8,13.9-.6,4.5-2.9,9.2-4.2,8.4-.7-.5-.3-2,1.2-4.1,2.8-3.9,3-4.9.9-4.4-.8.2-2.1,1.6-2.9,3.2s-1.4,2.2-1.5,1.4c-.1-2.5,2.3-6.2,3.5-5.5.6.4,1.1-.2,1.1-1.2,0-2.9-2.3-6.6-3.6-5.8-.6.4-1.1.1-1.1-.7s.8-1.1,1.9-.7a10.37,10.37,0,0,0,3.1.7c.7,0,.9.9.4,2.1s.6.5,2.2-1.4c3.6-4.1,3.6-4.2.6-3.4-2.6.7-3.1-.8-.9-3,1.8-1.8,4.9-1.9,3.8-.1-.6.9-.3,1,.8.3a35,35,0,0,1,5.8-2.5,10,10,0,0,1,3.1-.8C405.62,84.3,405.72,84.3,405.92,84.3ZM51.42,90.1a.6.6,0,0,1,.4.1,1.23,1.23,0,0,1,.3,1.7c-1,1.5-1.3,1.4-1.3-.6C50.82,90.6,51.12,90.2,51.42,90.1Zm333.8,5.7c1.3,0,1.3.6.3,3-1.9,4.5-3.2,5.6-3.2,2.8,0-1.4.5-2.9,1.2-3.3a1.18,1.18,0,0,0,.6-1.6C383.92,96.2,384.32,95.8,385.22,95.8Zm16.4,6.8h0c.3.3.8,2.6,1.2,5.2s1.4,7.5,2.3,10.9c1.7,6.6,1.7,6.7-2.5,4.7-2.5-1.2-2.7-1.9-2-6.7.7-5,.6-5.2-1-2.5-.9,1.6-1.4,3.7-1.1,4.7.5,1.5.4,1.5-.6.2a5,5,0,0,1-.1-4.5c1.7-4.6,1.1-4.7-1.3-.3-1.8,3.2-2.3,3.6-2.3,1.7-.1-2.3,6.2-13.6,7.4-13.4Zm87.5,8.5h0c.3.3-.3,2.1-1.4,4.1-2.6,5-3.4,4.6-1-.5,1-2,2.1-3.6,2.4-3.6Zm-95.4,13c-.4.1-1.5.9-3.2,2.8-1.9,2.1-3.5,4.5-3.5,5.3s1.6-.4,3.5-2.7C393.42,126.1,394.42,124,393.72,124.1Zm-69.2,4.4h0c-1.3.1-2.2.5-2.2,1.3a23.41,23.41,0,0,1-2.3,5.3c-2.6,4.8-2.9,7.1-1.3,9.7.9,1.4,1.4,1.4,2.9.2s1.9-1.2,1.9.9c0,1.6-1.4,3.1-4.1,4.4-2.3,1.1-4.4,2.4-4.7,2.9s-2.4.5-4.7,0a18,18,0,0,0-6.3-.4,4.78,4.78,0,0,1-4-1.3,6.31,6.31,0,0,0-3.1-1.9c-1.8,0-1.6,7,.2,7.1,6.6.4,13.6,1.5,15.4,2.5s3,.6,5.6-1.3l3.4-2.5v2.9c0,1.6.5,3.2,1.2,3.7s1,3.5.6,7.7c-.6,6.7-.6,7,2.1,7s2.8.6,3.5,7.6a231,231,0,0,1,0,23.8c-.6,14.5-1,16.8-3.7,21.5a123.1,123.1,0,0,1-10.5,15.3c-.8,1-3.1,4.1-5.1,6.9-2.1,3-5.5,5.9-8,6.9a20.79,20.79,0,0,0-4.9,2.6c-.9,1.2-15.4,7.9-20,9.3-13.5,3.9-25.8,7.7-28.8,8.9l-4.1,1.5c-.3.1-1.4.4-2.4.7-6.4,2.3-16.3,3.8-26.5,3.9-15.1.2-15.9.3-15.9,1.7,0,2.3,15.3,3.4,27.7,2a133.56,133.56,0,0,0,16.5-3.8c5.8-1.7,12.1-3.6,14.1-4.1s7-2,11.2-3.3,9.8-2.9,12.4-3.7c5.9-1.8,17.1-6.9,19.4-8.9,2.9-2.5,7.8-2.9,7.9-.7.3,5.5-6,22.5-8.3,22.5-.6,0-.7.8-.3,1.8s.2,1.5-.4,1.2-2.9,2.5-5.2,6.3c-3.2,5.5-16.3,22.9-19.6,26-2,1.9-8.2,10.6-10.1,14.1-3,5.6-8.7,13-12.1,15.9-6.8,5.7-20.1,11.3-25,10.5-.9-.1-3.5-.6-5.9-1.1-3.3-.6-4.5-.4-5.3,1-.6,1-3.9,2.3-7.5,3s-9.6,2-13.5,3c-4.9,1.3-13.5,1.9-28.3,2-22.6.2-23.6,0-50.5-8.9-2.6-.9-8.7-2.8-13.5-4.2-8.6-2.6-31.7-13.8-35.4-17.1-2.2-2-3.4-2.1-3.4-.4,0,1.4,18.1,13.2,20.8,13.6a19.74,19.74,0,0,1,5.5,2.5c2.1,1.2,8.6,3.7,14.4,5.5s16.4,5.3,23.5,7.8c12.6,4.4,13.3,4.5,30,4.5,21,0,39.9-1.9,45.1-4.8,3.1-1.7,17.3-2.4,19-1,2.9,2.4,21.4-3.5,29.4-9.4,4.1-3.1,11.2-12.6,14.1-19.1,1.7-3.8,5.5-8.8,9.7-12.8a157.37,157.37,0,0,0,22.2-26.3c2.6-3.9,5-7.3,5.4-7.7s2.6-4.6,4.8-9.4c5.2-11.3,6.3-17.8,3.7-22.3-1.9-3.3-1.9-3.4,2.9-9.6,2.7-3.5,5.3-6.9,5.8-7.5s2.6-3.4,4.7-6.1a52.13,52.13,0,0,0,5.3-8.2,70.44,70.44,0,0,1,4.7-8.3,28.69,28.69,0,0,0,3.2-5.7c0-1.3,9.8-17.4,15.3-25.2a157.11,157.11,0,0,0,10-16.5c2.5-4.9,6.1-11.1,7.9-13.8s2.9-5,2.3-5c-1.4,0-5.3,5.4-8.5,11.8-1.5,2.9-3,5.5-3.5,5.8a124.08,124.08,0,0,0-7,10.9c-8.1,13.4-9.7,14.7-9,7.8.3-3.5-.4-7.9-2.2-13.3-1.5-4.5-2.5-9.1-2.3-10.4a8.47,8.47,0,0,0-1.8-5.4c-2.7-3.8-4-9.2-2.5-10.1.6-.4,2.5-.1,4.2.5,2,.8,4.8.8,8,.1,3.4-.8,5.2-.7,5.7.2,1.4,2.2,4.8,0,4.3-2.9-.3-2.3-1-2.6-4.5-2.3-6,.5-19-1-18.2-2.1a1.42,1.42,0,0,0-.7-1.8c-.9-.5-.6-1.5.7-3,2.8-3.1,1.4-7-3.5-10.3a13.78,13.78,0,0,0-8-2.6Zm10.9,49.1c.9.2,4.5,16.4,4.5,20.8s-.8,7.3-3.4,11.8l-3.5,5.9.5-7.7c.3-4.2.8-12.7,1.1-18.8s.6-11.4.7-11.8C335.32,177.6,335.42,177.6,335.42,177.6ZM96,192.5c-.5,0-1,.6-1.4,1.9-.5,1.5-2.8,4.4-5.1,6.5s-3.9,4.1-3.4,4.6,2-.1,3.3-1.3c2.4-2.2,2.4-2.2,1.8,1.5-1.3,7.1,12,36.1,22,48.3,4.8,5.8,11.3,12.1,12.6,12.1a1.13,1.13,0,0,1,1.2,1c0,.9,15.4,10.7,16.9,10.7a21.15,21.15,0,0,1,3.9,1.4c1.8.8,5.7,2.3,8.6,3.5h0c5.8,2.3,11.9,2.4,12.6.3.2-.7-.8-1.6-2.3-2-8.3-1.9-20.7-6.1-24.4-8.2-2.3-1.3-5.6-3.1-7.2-3.9a58.68,58.68,0,0,1-8.8-6.8c-3.2-2.9-6.3-5.3-6.8-5.3s-.9-.6-.9-1.3c0-1.1-.5-1.9-4.2-6.2-4-4.7-14.4-24.6-17.6-33.8-2.1-5.8-2.3-13.8-.5-18.4.8-2,.8-3.6.1-4.3a.54.54,0,0,0-.4-.3ZM26,303c-.1,0-.1,0-.2.1-3.7,2.3,4.9,25.9,11.6,32.3,2.4,2.2,7.7,5.2,9.1,5a37,37,0,0,1,3.8,1.4h0c3.7,1.5,13,2,13,.6s-2.4-2.4-6.9-2.8c-6.4-.5-17-4.9-19.3-7.9-1.8-2.4-5.6-9.4-8.3-15.7a10.5,10.5,0,0,1-.5-5.3c.4-2.3.6-2.2.7.9.2,3.6,2,6.2,4.3,6.1,1.1-.1,6.5-8.6,6.4-10.2,0-.4-1.4.8-3,2.8-2,2.4-2.6,2.7-1.7,1,1.6-3.1,1.6-3.9.2-3.9-.6,0-1.5,1.5-2,3.2l-.9,3.2-.7-3.5c-.5-2.6-.2-3.7,1.1-4.3,1.6-.7,8.2-.1,9.3.8.2.2-1.2,3.4-3.2,7.2-3.3,6.3-3.5,7-1.7,8.3a5.77,5.77,0,0,0,2.2,1.2c1.5-2.1,5.9-13.8,4.5-12.1a35.35,35.35,0,0,0-3.5,5.9c-2.5,5.6-1.9,1.4.7-4.7l2.4-5.5,4.4,2.5,4.4,2.5-3.9-3.4c-5.8-5.1-15.3-6.5-19.2-2.9-2,1.8-2.2,1.8-2.2-.7,0-1.4-.4-2.2-.9-2.1Z"/>
        <path class="main-path" d="M443.82,0c-11.6-.1-24.4,2.2-31.5,6A72,72,0,0,1,402,10.6c-2.4.8-4.4,1.8-4.4,2.3s-2.3,2.4-5,4.2c-5.6,3.7-11.4,9.8-11.4,12a1.37,1.37,0,0,1-1.2,1.5c-1.5,0-7.6,12.4-9.9,20.2-3.9,13.6-3.5,29.8,1,38.7.8,1.6,3.1,6.4,5.1,10.6,9,19.2,25.3,31.5,47.6,35.8,11,2.1,36.8.8,44.2-2.3,2.1-.9,3.8-1.3,3.8-1,0,.9,4.6-1.8,10.4-6.2,17.4-13.1,25-29.9,24.3-53.3-.4-14.3-.9-16.9-5.6-31.2-4-12.2-6.8-16.9-14.6-24.5-6.4-6.3-23-14.8-31.7-16.4a51.54,51.54,0,0,0-10.8-1Zm.5,4.5h0c9.3,0,13.1,1.3,24.5,6.7,7.8,3.7,12.2,6.7,16.8,11.5,3.4,3.6,6.2,6.8,6.2,7.3a15.17,15.17,0,0,0,2.2,3.9,33.6,33.6,0,0,1,3.6,9c3.5,14.8,4.9,21.5,5.3,25.5a17.34,17.34,0,0,0,1.1,5.4c.4.6-.4,2.3-1.7,3.8a9.39,9.39,0,0,0-2.3,4.9c0,1.2-.5,2.2-1.2,2.2a1.16,1.16,0,0,1-1.2-1.2c0-.6-.8-1.2-1.8-1.2-1.4,0-1.5.5-.6,2.3a11.68,11.68,0,0,1,1.2,4.7c0,1.3.6,2.4,1.3,2.4.9,0,.9.5-.1,1.8-2.4,2.9-3.8,2-3-2.1l.7-3.8-2.4,2.8c-1.3,1.5-2.4,2.1-2.4,1.3s-.3-1.2-.6-.9-.1,2,.6,3.7c1.5,3.9,6.1,4.2,8.7.5s-2.9,9.2-6.2,14.4c-2.2,3.5-2.5,3.6-2,1.2.4-1.6.4-2.3,0-1.5a1.87,1.87,0,0,1-2.3.8c-.9-.4-1.7-.1-1.7.5s-1.2,2.5-2.6,4.1a42.38,42.38,0,0,0-4.6,6.5c-2.2,4-8,8.1-6,4.2,2.1-4.2,2.5-9.2.8-11.5-2.1-2.9-2.2-18.7-.1-23.6l1.5-3.5.8,3.8c.4,2.1,1.3,3.8,1.9,3.8,1.3,0,.6-5.2-1.8-12.4a29.18,29.18,0,0,1-1.6-7.4c0-1.5-.5-2.6-1.2-2.6-1.6,0-1.5,5.1.1,8.7,1.1,2.4.9,3.6-1.4,7.3-3.3,5.4-4.8,22.7-2.2,25.8,1.8,2.2,2.4,8.4,1.1,11.8-.6,1.6-3.1,3.2-7.2,4.5-6,2-30,3.4-35.7,2.2-1.3-.3-3.5-.8-5-1.1a3.31,3.31,0,0,1-2.8-3.2c-.1-2.6-.1-2.6-.9-.1-.6,2.1-1.3,2.3-3.5,1.5-1.9-.7-2.5-1.7-2.1-3.1.3-1.1.9-3.7,1.3-5.6.4-2.4.1-2-1.2,1.5-1,2.8-2.5,4.9-3.2,4.6s-2.1-4.6-3-9.7c-1.5-8.5-1.5-9.5.4-12.7,1.5-2.5,1.6-3.2.4-2.6-.9.5-.7-.1.5-1.5,2-2.3,7.5-12.1,5.9-10.5-.4.4-2-1.4-3.6-4.1-2.6-4.3-3.3-4.8-6.6-4.3a30.86,30.86,0,0,0-5.8,1.4c-1.4.6-2.1.4-2.1-.9,0-2.1-3.2-3.6-4.2-2a4,4,0,0,1-3,1.1c-3.3,0-2.9-4,1.2-12.4,1.9-3.9,3.5-8.3,3.5-9.8a16.61,16.61,0,0,1,1.7-6c2.2-4.2,1.5-4.8-5-4.8-4.2,0-5.1-.3-4.5-1.8.4-1.1.2-1.5-.6-1-1.7,1.1-.3-3.5,2.6-8.2,2.4-4,2.7-5.4,1.2-5.4-.6,0-1.7,1.7-2.6,3.8A59.19,59.19,0,0,1,381,45.5c-7.3,9.1-8.4,11-2.7,4.7,7-7.7,6.4-2.8-.6,5.4-6.2,7.1-7.7,7.9-6.2,3.2.6-1.8,1.9-6.4,3-10.3,2.4-8.5,10.8-21.8,16.5-26.2,2.3-1.8,5.4-4.4,7-5.9a22.45,22.45,0,0,1,7.9-3.9,41.82,41.82,0,0,0,8.5-3.4c5-3,13.7-4.7,25.3-4.9a27,27,0,0,0,4.6.3ZM127.12,41.9h0a2.32,2.32,0,0,0-2,.7c-.3.6-1.8,1-3.3,1-4.9,0-26,9.9-34.4,16.1A18.25,18.25,0,0,1,83,62.4c-.7,0-13.8,9-16.9,11.7a4.49,4.49,0,0,1-2.4,1.2c-.5,0-2.3,1.2-3.9,2.6s-6.9,5.8-11.8,9.6a190.24,190.24,0,0,0-17,15.6c-4.5,4.7-8.8,8.6-9.7,8.6-5.1,0-12.8,8.7-19.8,22.3-2.2,4.2-2,12.1.5,24.2.9,4.3.8,7.7-.2,12.9-2.2,10.7-1.8,43.5.9,64.2,1.4,10.9,6.7,34.9,9,40.6,5.2,12.8,6.3,15.3,9.4,20.2h0c1.8,2.8,3.7,5.1,4.2,5.1,1,0,6.4-13.1,5.7-13.8-.2-.2-1.3,1.8-2.4,4.5l-2,4.9-2.9-4.3c-3.7-5.4-7.6-14.5-6.7-15.4.4-.4.1-.7-.5-.7-1.3,0-3.7-7.3-4.4-13.5a15.94,15.94,0,0,0-.6-3.5,13.78,13.78,0,0,1-.7-2.9c-.3-1.6-1.1-5.2-1.8-8-1.2-4.4-1.1-5.3.9-7.6s1.9-2.4.1-1c-2.7,2.1-4,.8-1.9-1.9.9-1.1,1-1.7.3-1.2-1.9,1.1-2.9-5.2-1.2-7.3.9-1.2.9-1.4.1-.9s-1.6-1.1-2.1-4.6c-1.5-10.6-1.1-11.6,6-19.4,4.9-5.3,5.7-6.6,3-4.7a41,41,0,0,0-6.8,6.4c-1.6,2.1-3,3-3,2.1s2.4-4.6,5.4-8.2l5.4-6.6-5.3,5.6c-7.9,8.3-7.8,4.6.1-4.1,3.7-4.1,5.4-6.4,3.8-5.1a73.69,73.69,0,0,0-6.6,6.3l-3.7,3.9.1-7.9.1-7.9,8.2-7.6c4.5-4.2,6.1-6,3.5-4.1a78.38,78.38,0,0,0-7.6,6.6c-3.3,3.5-5.3,4-4,1,1.2-2.8,1.2-21.5-.1-24.1-.8-1.6-.5-2.1,1-2.1s1.8-.6,1.3-1.9a12.17,12.17,0,0,1-.7-3.8c0-1.7-.2-1.7-1.2-.2s-1.2,1.4-1.3-.6c-1-11.9,9.6-29.7,19.3-32.6,2.7-.8,9.6-4.8,15.3-8.8s11-7.5,11.8-7.8,1.2-.8.8-1.2-4.9,2-10,5.3c-6.9,4.4-8.6,5.1-6.4,2.8a44.17,44.17,0,0,1,7.9-6.1c2.8-1.6,4.7-3.4,4.4-4s.3-.7,1.4-.3c1.4.5,1.7.3,1.2-.6s-.2-1.1.7-.8,2.8-.4,4.3-1.6c2.1-1.6,2.4-2.4,1.3-3.1s-1.2-.5-.6.6.5,1.3-.4.7c-1.8-1.1-.4-3.4,1.7-2.6a2.09,2.09,0,0,0,2.4-.7c.5-.8.3-1-.6-.5-1.8,1.1-1.7-.3.1-2,.8-.8,4.9-3.7,9.1-6.6s11.9-8.1,17.1-11.7c12.3-8.5,31.2-17.8,36-17.8a7.44,7.44,0,0,0,5.4-2.1c1.5-2,1.7-1.9,3.4.2,1.8,2.4,2.3,8.6.9,10.8a14.72,14.72,0,0,1-3.8,2.9l-2.9,1.6,3.8,1c3.1.8,3.8,1.6,3.8,4.2,0,6-11.9,20.2-17,20.2-2.1,0-10.1,7.5-10.1,9.4,0,.5-1.4,2.9-3.1,5.4-5.6,8.1-10.7,17.8-11.6,21.9a33.83,33.83,0,0,1-2.4,7,32.74,32.74,0,0,0-2.3,8.8,43.82,43.82,0,0,1-1.9,8.8c-.7,1.7-1,5.4-.8,8.2.3,4-.2,5.6-2,7.1-2.3,1.9-2.3,2,1.5,1.9a10.17,10.17,0,0,1,6,1.8,7.37,7.37,0,0,0,3.1,1.9c.5,0,2,1.2,3.2,2.6,1.7,2,2.2,4.1,2,8.8-.3,7.2.7,9.1,2.5,4.6,3.1-8.3,1.2-12.8-8.6-20.4-3.6-2.8-4-4.9-2.6-15,1.1-8,4.3-22.1,5.3-23.5a45.34,45.34,0,0,0,3-7.1,68.59,68.59,0,0,1,5.9-11.4,35.38,35.38,0,0,0,4.5-8.4c.6-2.4,5.5-6.9,7.8-7.3,8.2-1.4,11.7-4.3,17.5-14.9,3.8-6.9,4.7-12.4,2.4-14.7a2.28,2.28,0,0,1-.3-2.9c2.2-3.6,2.8-12.2,1-14.9a9.68,9.68,0,0,0-6.1-2.8Zm266.1,7.6c1.4.1,1.5,2.3.3,6.9a45.17,45.17,0,0,1-2.8,7.9c-2.5,4.4-4.9,11.4-4.3,12.4.4.6-.2.7-1.2.3-2.2-.8-2.4-4.1-.4-6.3,1.2-1.4,1.2-1.4-.3-.3a3.22,3.22,0,0,1-3.2.5c-.9-.6.3-2.9,3.8-7.3,2.9-3.5,5.2-6.9,5.3-7.5s-2.2,1.8-5,5.2-6.2,7.5-7.6,9c-2.6,2.8-2.5,3.1,1.1,2.8,1.1-.1,2.1.3,2.1.8s-1.4,2.3-3,3.9l-3,2.9.8-3.1c.4-1.7.2-3.4-.4-3.9-1.7-1-.5-3.7,4.6-10.7C386.72,54,391.22,49.4,393.22,49.5Zm-7.4,0c2.7,0,1.7,2.3-4.2,9.9-7.2,9.2-8.7,10.4-8.7,6.8C372.92,63.9,384,49.5,385.82,49.5Zm-14.5,18.1h.2c.1,0,.2,0,.2.1a3.29,3.29,0,0,1,1.2,2.4c0,.9-.5,1.7-1.2,1.7s-1.2-1.1-1.2-2.4c.1-1,.4-1.7.8-1.8Zm10.3,8.2c.5-.1.8.7.8,2.4,0,2.7.4,3.1,2.3,2.5,3.4-1.1,4.2,1.6,1.3,4.6a13.47,13.47,0,0,0-2.9,6.8,20,20,0,0,1-1.5,6.2c-2.2,3.9-2.8-2.1-.9-7.7,2.4-6.8,2.4-9.7,0-6.6-1,1.3-1.5,3-1.2,3.9s.1,1.2-.7.8-1,.1-.5,2c.6,2.3.5,2.4-.5.8-.9-1.4-.8-3.7.3-7.9,1.1-4.7,2.6-7.7,3.5-7.8Zm10.1,6.6c1.2.1,1.1,1.7-.4,4.1-1.1,1.6-2.5,3-3.2,3-1.9,0-.7-4.9,1.5-6.3a3.44,3.44,0,0,1,1.8-.7c.2-.1.2-.1.3-.1Zm14.2,1.9c1,0,1.7.5,2.8,1.6,2.9,2.9,1.7,8.6-2.9,13.4-1.9,2-3.4,3.1-3.4,2.6s-1.4.3-3.1,1.9a29.27,29.27,0,0,0-5.3,7.6c-1.2,2.6-2.2,4-2.2,3.2-.1-3,3.6-10.1,9.4-18,3.2-4.5,5.9-8.5,5.9-9,0-1.5-14.2,18.5-15.9,22.4-.9,2.1-1.6,3-1.7,2.2a10.05,10.05,0,0,1,1.2-3.9,22.07,22.07,0,0,0,1.7-5.8c.4-3.5,3.7-8.9,7-11.7,2-1.6,2.5-4.2.7-3-2.1,1.3-8.5,11.3-8.8,13.9-.6,4.5-2.9,9.2-4.2,8.4-.7-.5-.3-2,1.2-4.1,2.8-3.9,3-4.9.9-4.4-.8.2-2.1,1.6-2.9,3.2s-1.4,2.2-1.5,1.4c-.1-2.5,2.3-6.2,3.5-5.5.6.4,1.1-.2,1.1-1.2,0-2.9-2.3-6.6-3.6-5.8-.6.4-1.1.1-1.1-.7s.8-1.1,1.9-.7a10.37,10.37,0,0,0,3.1.7c.7,0,.9.9.4,2.1s.6.5,2.2-1.4c3.6-4.1,3.6-4.2.6-3.4-2.6.7-3.1-.8-.9-3,1.8-1.8,4.9-1.9,3.8-.1-.6.9-.3,1,.8.3a35,35,0,0,1,5.8-2.5,10,10,0,0,1,3.1-.8C405.62,84.3,405.72,84.3,405.92,84.3ZM51.42,90.1a.6.6,0,0,1,.4.1,1.23,1.23,0,0,1,.3,1.7c-1,1.5-1.3,1.4-1.3-.6C50.82,90.6,51.12,90.2,51.42,90.1Zm333.8,5.7c1.3,0,1.3.6.3,3-1.9,4.5-3.2,5.6-3.2,2.8,0-1.4.5-2.9,1.2-3.3a1.18,1.18,0,0,0,.6-1.6C383.92,96.2,384.32,95.8,385.22,95.8Zm16.4,6.8h0c.3.3.8,2.6,1.2,5.2s1.4,7.5,2.3,10.9c1.7,6.6,1.7,6.7-2.5,4.7-2.5-1.2-2.7-1.9-2-6.7.7-5,.6-5.2-1-2.5-.9,1.6-1.4,3.7-1.1,4.7.5,1.5.4,1.5-.6.2a5,5,0,0,1-.1-4.5c1.7-4.6,1.1-4.7-1.3-.3-1.8,3.2-2.3,3.6-2.3,1.7-.1-2.3,6.2-13.6,7.4-13.4Zm87.5,8.5h0c.3.3-.3,2.1-1.4,4.1-2.6,5-3.4,4.6-1-.5,1-2,2.1-3.6,2.4-3.6Zm-95.4,13c-.4.1-1.5.9-3.2,2.8-1.9,2.1-3.5,4.5-3.5,5.3s1.6-.4,3.5-2.7C393.42,126.1,394.42,124,393.72,124.1Zm-69.2,4.4h0c-1.3.1-2.2.5-2.2,1.3a23.41,23.41,0,0,1-2.3,5.3c-2.6,4.8-2.9,7.1-1.3,9.7.9,1.4,1.4,1.4,2.9.2s1.9-1.2,1.9.9c0,1.6-1.4,3.1-4.1,4.4-2.3,1.1-4.4,2.4-4.7,2.9s-2.4.5-4.7,0a18,18,0,0,0-6.3-.4,4.78,4.78,0,0,1-4-1.3,6.31,6.31,0,0,0-3.1-1.9c-1.8,0-1.6,7,.2,7.1,6.6.4,13.6,1.5,15.4,2.5s3,.6,5.6-1.3l3.4-2.5v2.9c0,1.6.5,3.2,1.2,3.7s1,3.5.6,7.7c-.6,6.7-.6,7,2.1,7s2.8.6,3.5,7.6a231,231,0,0,1,0,23.8c-.6,14.5-1,16.8-3.7,21.5a123.1,123.1,0,0,1-10.5,15.3c-.8,1-3.1,4.1-5.1,6.9-2.1,3-5.5,5.9-8,6.9a20.79,20.79,0,0,0-4.9,2.6c-.9,1.2-15.4,7.9-20,9.3-13.5,3.9-25.8,7.7-28.8,8.9l-4.1,1.5c-.3.1-1.4.4-2.4.7-6.4,2.3-16.3,3.8-26.5,3.9-15.1.2-15.9.3-15.9,1.7,0,2.3,15.3,3.4,27.7,2a133.56,133.56,0,0,0,16.5-3.8c5.8-1.7,12.1-3.6,14.1-4.1s7-2,11.2-3.3,9.8-2.9,12.4-3.7c5.9-1.8,17.1-6.9,19.4-8.9,2.9-2.5,7.8-2.9,7.9-.7.3,5.5-6,22.5-8.3,22.5-.6,0-.7.8-.3,1.8s.2,1.5-.4,1.2-2.9,2.5-5.2,6.3c-3.2,5.5-16.3,22.9-19.6,26-2,1.9-8.2,10.6-10.1,14.1-3,5.6-8.7,13-12.1,15.9-6.8,5.7-20.1,11.3-25,10.5-.9-.1-3.5-.6-5.9-1.1-3.3-.6-4.5-.4-5.3,1-.6,1-3.9,2.3-7.5,3s-9.6,2-13.5,3c-4.9,1.3-13.5,1.9-28.3,2-22.6.2-23.6,0-50.5-8.9-2.6-.9-8.7-2.8-13.5-4.2-8.6-2.6-31.7-13.8-35.4-17.1-2.2-2-3.4-2.1-3.4-.4,0,1.4,18.1,13.2,20.8,13.6a19.74,19.74,0,0,1,5.5,2.5c2.1,1.2,8.6,3.7,14.4,5.5s16.4,5.3,23.5,7.8c12.6,4.4,13.3,4.5,30,4.5,21,0,39.9-1.9,45.1-4.8,3.1-1.7,17.3-2.4,19-1,2.9,2.4,21.4-3.5,29.4-9.4,4.1-3.1,11.2-12.6,14.1-19.1,1.7-3.8,5.5-8.8,9.7-12.8a157.37,157.37,0,0,0,22.2-26.3c2.6-3.9,5-7.3,5.4-7.7s2.6-4.6,4.8-9.4c5.2-11.3,6.3-17.8,3.7-22.3-1.9-3.3-1.9-3.4,2.9-9.6,2.7-3.5,5.3-6.9,5.8-7.5s2.6-3.4,4.7-6.1a52.13,52.13,0,0,0,5.3-8.2,70.44,70.44,0,0,1,4.7-8.3,28.69,28.69,0,0,0,3.2-5.7c0-1.3,9.8-17.4,15.3-25.2a157.11,157.11,0,0,0,10-16.5c2.5-4.9,6.1-11.1,7.9-13.8s2.9-5,2.3-5c-1.4,0-5.3,5.4-8.5,11.8-1.5,2.9-3,5.5-3.5,5.8a124.08,124.08,0,0,0-7,10.9c-8.1,13.4-9.7,14.7-9,7.8.3-3.5-.4-7.9-2.2-13.3-1.5-4.5-2.5-9.1-2.3-10.4a8.47,8.47,0,0,0-1.8-5.4c-2.7-3.8-4-9.2-2.5-10.1.6-.4,2.5-.1,4.2.5,2,.8,4.8.8,8,.1,3.4-.8,5.2-.7,5.7.2,1.4,2.2,4.8,0,4.3-2.9-.3-2.3-1-2.6-4.5-2.3-6,.5-19-1-18.2-2.1a1.42,1.42,0,0,0-.7-1.8c-.9-.5-.6-1.5.7-3,2.8-3.1,1.4-7-3.5-10.3a13.78,13.78,0,0,0-8-2.6Zm10.9,49.1c.9.2,4.5,16.4,4.5,20.8s-.8,7.3-3.4,11.8l-3.5,5.9.5-7.7c.3-4.2.8-12.7,1.1-18.8s.6-11.4.7-11.8C335.32,177.6,335.42,177.6,335.42,177.6ZM96,192.5c-.5,0-1,.6-1.4,1.9-.5,1.5-2.8,4.4-5.1,6.5s-3.9,4.1-3.4,4.6,2-.1,3.3-1.3c2.4-2.2,2.4-2.2,1.8,1.5-1.3,7.1,12,36.1,22,48.3,4.8,5.8,11.3,12.1,12.6,12.1a1.13,1.13,0,0,1,1.2,1c0,.9,15.4,10.7,16.9,10.7a21.15,21.15,0,0,1,3.9,1.4c1.8.8,5.7,2.3,8.6,3.5h0c5.8,2.3,11.9,2.4,12.6.3.2-.7-.8-1.6-2.3-2-8.3-1.9-20.7-6.1-24.4-8.2-2.3-1.3-5.6-3.1-7.2-3.9a58.68,58.68,0,0,1-8.8-6.8c-3.2-2.9-6.3-5.3-6.8-5.3s-.9-.6-.9-1.3c0-1.1-.5-1.9-4.2-6.2-4-4.7-14.4-24.6-17.6-33.8-2.1-5.8-2.3-13.8-.5-18.4.8-2,.8-3.6.1-4.3a.54.54,0,0,0-.4-.3ZM26,303c-.1,0-.1,0-.2.1-3.7,2.3,4.9,25.9,11.6,32.3,2.4,2.2,7.7,5.2,9.1,5a37,37,0,0,1,3.8,1.4h0c3.7,1.5,13,2,13,.6s-2.4-2.4-6.9-2.8c-6.4-.5-17-4.9-19.3-7.9-1.8-2.4-5.6-9.4-8.3-15.7a10.5,10.5,0,0,1-.5-5.3c.4-2.3.6-2.2.7.9.2,3.6,2,6.2,4.3,6.1,1.1-.1,6.5-8.6,6.4-10.2,0-.4-1.4.8-3,2.8-2,2.4-2.6,2.7-1.7,1,1.6-3.1,1.6-3.9.2-3.9-.6,0-1.5,1.5-2,3.2l-.9,3.2-.7-3.5c-.5-2.6-.2-3.7,1.1-4.3,1.6-.7,8.2-.1,9.3.8.2.2-1.2,3.4-3.2,7.2-3.3,6.3-3.5,7-1.7,8.3a5.77,5.77,0,0,0,2.2,1.2c1.5-2.1,5.9-13.8,4.5-12.1a35.35,35.35,0,0,0-3.5,5.9c-2.5,5.6-1.9,1.4.7-4.7l2.4-5.5,4.4,2.5,4.4,2.5-3.9-3.4c-5.8-5.1-15.3-6.5-19.2-2.9-2,1.8-2.2,1.8-2.2-.7,0-1.4-.4-2.2-.9-2.1Z"/>
        <g id="small_nodes">
            <path class="nodules" d="M232.82,8.4c-3.7-3.5-6.9-5.3-10.1-5.4a13.54,13.54,0,0,0-6.1,1.6c-5.2,2.6-7.1,4.7-11.2,12.3-5.2,9.5-3.4,18.5,4.4,22.2,4.8,2.3,16.6,1.9,21.6-.7,5.2-2.7,7.5-6.7,8-13.7C240,17.1,238.72,14,232.82,8.4ZM229,35.9c-3.4,1.7-10.6,2.2-15.6.9-9.6-2.3-9.7-15.1-.2-25.9,2.7-3.1,4.2-3.8,8.1-3.8,8.6,0,15.1,7.3,15.1,17.1A12.44,12.44,0,0,1,229,35.9Z"/><path class="nodules" d="M112.92,61.6c-9.4-.1-13.9,14.6-6.5,22.5,1.6,1.7,3.5,2.8,4.2,2.4s.1-2-1.8-4c-1.7-1.7-3-4.1-3-5.2s-.5-1.7-1.2-1.3c-1.9,1.1-1.4-.8,1.5-5.9,2.2-3.9,3.4-4.8,7.1-5.3,5.4-.7,5.8-2.6.6-3.1a2.77,2.77,0,0,0-.9-.1Z"/><path class="nodules" d="M112,70.7c-1.4,0-4.2,7.9-3.3,9.4,1.2,2,2.3,1.3,2.5-1.5a24.74,24.74,0,0,1,1-5.3C112.72,71.9,112.62,70.7,112,70.7Z"/><path class="nodules" d="M47.52,102.4c-1.6,0-22.9,14.5-22.9,15.6,0,.5.8.9,1.8.9s2.7,1.5,3.7,3.4l1.9,3.4,5.1-3.6c2.8-2,4.8-3.8,4.5-4.1s-2.4.8-4.6,2.5l-4,3.1-.7-2.9c-.4-1.6-1.3-2.9-1.9-2.9-3.1,0-.3-2.9,8.5-8.8C44.32,105.4,48.12,102.4,47.52,102.4Z"/><path class="nodules" d="M47.92,106.7c-.7-.1-4.4,1.9-8.5,4.7-4.4,2.9-7.7,5.6-7.4,6s2.3-.6,4.3-2,3.9-2.3,4.3-2-1,1.5-2.9,2.5a15,15,0,0,0-4.3,3c-1.3,2.1.5,1.3,6.8-3,4.1-2.8,5.1-4,3.2-3.5l-2.9.8,2.7-2.3a15.58,15.58,0,0,1,4.1-2.8c.8-.3,1.2-.8.8-1.2C48,106.7,48,106.7,47.92,106.7Z"/><path class="nodules" d="M20.52,122.8c-.8,0-4.4,2.6-7.7,6.1-2.2,2.3-3.3,4.2-2.5,4.2,1.2,0,1,.6-.5,2.4-3.2,3.5-.3,2.9,3-.7,2.1-2.2,2.3-2.8.8-2.2-2.8,1.1-2.5-.5.5-3.2,2.8-2.4,4.5-2,2.3.5-.7.9-1,1.9-.6,2.4s.1,1.6-.7,2.5c-1.2,1.5-1.2,1.8.1,1.8,2,0-6,6.9-8.1,7-.8,0-1.2.6-.8,1.2.8,1.2,3.7-.5,10.6-6.4,2.5-2.1,2.8-2.8,1.2-2.2-2.2.7-2.2.6-.6-1.3a10.5,10.5,0,0,0,1.8-5.8,13.82,13.82,0,0,1,1-5.3C20.82,123.1,20.82,122.8,20.52,122.8Z"/><path class="nodules" d="M23.62,124.9c-.3-.1-.1.5.2,1.8s-.1,4.4-1.1,6.8-1.3,4.3-.7,4.3,1.9-2.2,3-4.9c1.8-4.6,1.8-5,0-6.8-.7-.8-1.2-1.2-1.4-1.2Z"/><path class="nodules" d="M13.22,136.6c-.7,0-2.2,1-3.3,2.2s-2.8,2-3.7,1.6-1.7,0-1.7.7A1.44,1.44,0,0,0,6,142.4C7.82,142.4,15,136.7,13.22,136.6Z"/><path class="nodules" d="M27,138.9c-.7,0-2.8,2.3-4.7,5.2s-4.4,5.5-5.4,5.8-1.8,1.2-1.8,1.9c0,2.1,1.8,1.3,4.9-2C24.52,144.9,28.42,138.9,27,138.9Z"/><path class="nodules" d="M22.32,151h0a6.14,6.14,0,0,0-2.5,1.1c-1.2.8-2,1.8-1.7,2.2s-.1,1.2-.8,1.7c-.9.6-1.1.3-.4-.8.5-.9-.4-.4-2.2,1.2s-3.1,2.2-3.1,1.5-1.1-1.4-2.5-1.4-2.2.6-1.9,1.5a2.09,2.09,0,0,0,2.4,1.1c2-.4,2.1,2.1.1,4.6-.7.9-1.6,2.3-2.1,3.1s2.8-2.1,7.3-6.5C20.72,154.9,23.42,151.2,22.32,151Zm-7.8,7.9a10.54,10.54,0,0,1-2.7,2.4c-.3,0,.4-1.1,1.5-2.4a10.54,10.54,0,0,1,2.7-2.4C16.42,156.6,15.72,157.6,14.52,158.9Z"/><path class="nodules" d="M20.52,159.9c-.5,0-3.7,2.4-9.1,7.2-3.7,3.3-5.4,5.7-5.4,7.7,0,2.8.4,2.6,6.9-3.1,7.2-6.3,9.3-8.8,3.7-4.6q-13.5,10.35-1.5-1.2C19.32,161.9,21,159.9,20.52,159.9Z"/><path class="nodules" d="M45.52,163.6a10.54,10.54,0,0,0-2.7,2.4c-1.2,1.3-1.9,2.4-1.5,2.4s1.5-1.1,2.7-2.4S45.82,163.6,45.52,163.6Z"/><path class="nodules" d="M47.52,166.6l-3.8,3.5a29.32,29.32,0,0,0-3.8,3.8c0,.9,1,.1,4.2-3.5Z"/><path class="nodules" d="M47.92,173.2c-.9-.1-4.5,2.7-6.9,5.3-2.6,2.9-2.3,2.8,2.1-.7,2.8-2.2,5-4.1,5-4.4A.22.22,0,0,0,47.92,173.2Z"/><path class="nodules" d="M46.82,178.1c-.2-.1-1.6.8-3.7,2.5-3.1,2.5-5.6,4.7-5.6,5,0,.9,6.4-4,8.8-6.8C46.72,178.4,46.92,178.1,46.82,178.1Z"/><path class="nodules" d="M48.52,183.8h0c-1.3,0-6.3,4.8-6.3,6.2,0,.7,1.6-.3,3.5-2.2s3.3-3.6,2.9-4Z"/><path class="nodules" d="M47.22,190.7c-.7,0-1.5.8-1.9,1.8s-.5,1.8-.3,1.8a6.6,6.6,0,0,0,1.9-1.8C47.72,191.5,47.92,190.7,47.22,190.7Z"/><path class="nodules" d="M10.52,182.4h0c-.2,0-.3,0-.4.2s-1.6,2.1-3.2,4L4,190.1l3.8-3.4c2.1-1.9,3.5-3.7,3.2-4s-.3-.3-.5-.3Z"/><path class="nodules" d="M17.42,182.5c-.3,0-3.5,2.9-7,6.5s-6.1,6.5-5.8,6.5,3.5-2.9,7-6.5S17.72,182.5,17.42,182.5Z"/><path class="nodules" d="M14.72,205.4a21.46,21.46,0,0,0-2.8,2.7c-2.8,2.9-5,5.8-5,6.5s.9,0,1.9-1.6,3.3-4.5,5-6.5A5,5,0,0,0,14.72,205.4Z"/><path class="nodules" d="M24.22,210.8h-.6c-3,.1-3,.1.7,1.8,2.9,1.3,3.8,2.4,3.8,4.8a9.1,9.1,0,0,0,2,5.3c2.8,3.1,3,2.1.8-3.8-2.6-6.6-3.6-8-6.7-8.1Z"/><path class="nodules" d="M30,234.3c-1.1,0-1.7.5-1.3,1.2.6,1-.8,1.7-3.1,1.4-6.6-.9-11.9-2.5-8.1-2.5,1.1,0,.9-.7-.6-2.4-2.1-2.3-2.1-2.4,0-1.6,1.9.7,2,.5.7-1.8a10,10,0,0,1-.6-6.3c.7-3.4.6-3.6-1.1-2.1a5.19,5.19,0,0,0-1.9,3.3c0,.9-.5,1.4-1.2,1-1.5-.9-1.5-6,0-8.9.7-1.3.8-2.3.2-2.3h0c-.6,0-1.7,1.3-2.6,2.9-1.3,2.4-1.3,3.9,0,8.5a26,26,0,0,0,3.4,7.9c1.7,2.1,1.7,2.2-.2,1.5-3.3-1.2-2.4.2,1.8,2.7,2.1,1.3,3.4,2.3,2.9,2.3a2.27,2.27,0,0,1-1.3-.3c-.8-.5-5.5,4.2-6.9,6.8-1.1,2.1-1.1,2.2.7.8,1.2-1,2-1.1,2-.4a2.54,2.54,0,0,1-1.2,2,2.84,2.84,0,0,0-1.2,2.1h0c0,.8.9.1,1.9-1.5,4.4-6.6,7.9-9.4,11.6-9.4a7.75,7.75,0,0,0,5.8-2.4C31.82,234.4,31.82,234.3,30,234.3Zm-15.5,9.4c-1,.8-1.8.9-1.8.3a4.7,4.7,0,0,1,1.8-2.6c.6-.5,1.2-.8,1.5-.7s.3.2.3.4A4.7,4.7,0,0,1,14.52,243.7Z"/><path class="nodules" d="M22.42,240.1c-1.2,0-7.5,8.6-9.5,12.9h0c-1.2,2.5-1.1,2.6.1.7.8-1.2,3.5-4.8,5.9-7.9s4.1-5.7,3.5-5.7Z"/><path class="nodules" d="M21.72,246.6c-.5.1-5.3,6.2-7.1,9.2-1.1,1.8-1.7,3.2-1.4,3.2.5,0,6.4-8.3,8.3-11.7A2.26,2.26,0,0,0,21.72,246.6Z"/><path class="nodules" d="M21.72,251.9c-1,0-7.7,9.6-7.7,11s-.1,1.6,4.6-5.4C20.62,254.4,22,251.9,21.72,251.9Z"/><path class="nodules" d="M22.22,257.8c0-.1-.5.3-1.5,1.1-2.1,1.7-5.6,7.4-5.5,9.1h0c0,.5.9-.6,1.9-2.6a40.13,40.13,0,0,1,3.8-5.9,7.35,7.35,0,0,0,1.3-1.7Z"/><path class="nodules" d="M22,261.6c-.3.1-1,.9-2.2,2.7a14.48,14.48,0,0,0-2.3,4.7h0c0,.6,1.1-.6,2.3-2.7,1.8-2.8,2.5-4.5,2.2-4.7Z"/><path class="nodules" d="M27.12,266.6l-3,3.5c-1.7,1.9-3,4-3,4.6,0,1.3,0,1.3,3.4-4Z"/><path class="nodules" d="M27.82,271h-.1a2,2,0,0,0-.8.4c-1.2.8-5.9,9.3-5.9,10.8,0,.5,1.6-1.6,3.5-4.7,2.9-4.6,3.9-6.4,3.3-6.5Z"/><path class="nodules" d="M28,276.7c-.7.1-5.8,8.7-5.8,9.9,0,.6,1.3-1.1,2.9-3.9a34.21,34.21,0,0,0,2.9-5.9v-.1Z"/><path class="nodules" d="M31.12,279.5c-.4.1-.8.7-1.1,1.5-.6,1.7-.5,1.8.7.7.8-.8,1.2-1.7.8-2.1C31.32,279.5,31.22,279.4,31.12,279.5Z"/><path class="nodules" d="M34.42,289.6c-.6,0-4,7.6-4,9s.9,0,2.8-4.6C34.22,291.6,34.72,289.6,34.42,289.6Z"/><path class="nodules" d="M46,296.6c-12.6,0-11.7,1.9,1.3,2.8,10.6.7,13.7,2.7,17.3,11.1,1.2,2.8,2.7,5,3.3,5,2.3,0-3.2-11-7.4-14.8C56.32,296.7,55.92,296.6,46,296.6Z"/><path class="nodules" d="M47.62,313.5c-.8,0-5.4,8.2-5.4,9.6a.65.65,0,0,0,.6.6c.9,0,5.5-9.6,4.8-10.2Z"/><path class="nodules" d="M50.22,314.6c-.2,0-1.4,2-3.4,6.1-2.5,5.2-3,7.2-2,7.9h0c2,1.2,2,1.2,1.3-.7-.4-.9.5-4.2,1.8-7.2,1.9-4.1,2.6-6.1,2.3-6.1Z"/><path class="nodules" d="M54.32,314.6c-.9-.1.1,2.2,2.7,5.9,1.7,2.5,3.3,4.2,3.6,3.9.8-.8-2.6-7.1-4.8-9A12,12,0,0,0,54.32,314.6Z"/><path class="nodules" d="M51.32,318.5c-.3,0-.8.6-1.4,1.7a12.87,12.87,0,0,0-1.7,4.7c0,1,.7.5,1.7-1.2a12.87,12.87,0,0,0,1.7-4.7C51.52,318.6,51.42,318.5,51.32,318.5Z"/><path class="nodules" d="M72.12,319.3a.1.1,0,0,0-.1.1c-.3.3-.2,1.7.2,3.1s1.1,2.3,1.4,1.9.2-1.7-.2-3.1C73,320.1,72.52,319.3,72.12,319.3Z"/><path class="nodules" d="M32.92,320.8h0c-.3.3.4,1.6,1.6,2.9,2.9,3.2,3.5,3,.9-.5a6.53,6.53,0,0,0-2.5-2.4Z"/><path class="nodules" d="M41,329.6a16.15,16.15,0,0,0,1.7,2.1,6.69,6.69,0,0,0,4.7,2.5c2.4-.1,2.4-.2.1-.7a13.47,13.47,0,0,1-4.7-2.5C41.62,330,41,329.5,41,329.6Z"/><path class="nodules" d="M71.72,330.8c-1.2.1-3.6,2.9-3.6,4.6,0,1.4.6,1.2,2.3-1,1.2-1.6,2-3.1,1.8-3.4A.55.55,0,0,0,71.72,330.8Z"/><path class="nodules" d="M59.42,332a3,3,0,0,0-2.5,1.2c-.4.6.1,1.2,1,1.2a3,3,0,0,0,2.5-1.2C60.82,332.5,60.42,332,59.42,332Z"/><path class="nodules" d="M71.12,170.7c-3.1,0-4.5,3.3-3.7,9.1,1.1,7.8,4,17.8,6.2,21.1,1,1.5,2.3,2.8,2.8,2.8,1.1,0,.1-3-3.2-9.4-2.6-5.1-3.5-15.2-1.8-20C72.42,171.5,72.32,170.7,71.12,170.7Z"/><path class="nodules" d="M86.22,170.7c-1.1,0-1.3,5.7-.5,11.5,0,.2.6,0,1.3-.4s.9-2.2.5-4.2c-.9-4.3,0-4.4,2.3-.2,1,1.8,1.8,2.6,1.8,1.9C91.72,177.1,87.62,170.7,86.22,170.7Z"/><path class="nodules" d="M81,180.1a4.2,4.2,0,0,0-1.3.9,3.32,3.32,0,0,0-.6,3.2c1.1,2.8,3.2,2.2,2.6-.8-.3-1.5-.5-2.9-.6-3.2C81.12,180.1,81.12,180.1,81,180.1Z"/><path class="nodules" d="M91.32,190.8h0c-.1,0-.3.6-.5,1.7-.6,2.3-.6,2.3-1.4.1-.7-2-1.2-1.8-4,2.3-1.7,2.5-3.1,5-3.1,5.5s.5.9,1.2.9a1.22,1.22,0,0,0,1.2-1.2,1.34,1.34,0,0,1,1.4-1.2c2.4,0,5.7-3.8,5.5-6.4a8.29,8.29,0,0,0-.3-1.7Z"/><path class="nodules" d="M82.52,246c-.6,0-3.9,3.7-7.4,8.2-4.2,5.4-6.7,7.7-7.3,6.8-1.6-2.6-1-10.3,1.3-14.7,1.2-2.4,2.2-4.9,2.1-5.5s1.6-1.6,3.8-2.1c3.4-.9,4.2-1.5,2.8-1.5a22.31,22.31,0,0,0-4.7.6c-5.2.9-10.1,4.3-9,6.1.3.6-.2,2.2-1.2,3.6-3.6,5.1-1.4,13.6,4.4,17.3,2,1.3,3,2.4,2.2,2.4s-1.2.5-.8,1.2a1.93,1.93,0,0,0,3.3.4c.4-.4-.1-1.8-1.2-3-1.9-2.1-1.8-2.4,1.6-6C77.92,253.9,83.72,246,82.52,246Zm-17.4,8.6a55.78,55.78,0,0,1-.1,5.6c-1,0-1.7-2.6-1.7-6.4s.8-5.8,3.6-8.9l3.6-4.1-2.7,4.1A17,17,0,0,0,65.12,254.6Z"/><path class="nodules" d="M78.52,244.4c-1,.6-1.1.2-.5-1.4.3-.8.5-1.3.3-1.4h-.1c-.4.2-1.9,2-5.2,6.4-2.1,2.8-3.5,5.7-3.1,6.6a2,2,0,0,1-.6,2.5A2.67,2.67,0,0,0,68,259c0,2.1,1,1.1,6.4-6.5C80,244.9,80.92,242.9,78.52,244.4Zm-4,5.7c-4.3,5.6-4.9,5.3-1-.5,1.6-2.4,3.2-4.2,3.6-4.2h.1C77.52,245.6,76.32,247.8,74.52,250.1Z"/><path class="nodules" d="M91.92,246.2c-.3,0-.1.5.3,1.6a27,27,0,0,1,1.4,5.9,48.57,48.57,0,0,0,1,5.2c.3.9.8,1.4,1.1,1.1,1-1-1.5-11.7-3-13.1C92.32,246.4,92,246.2,91.92,246.2Z"/><path class="nodules" d="M84.22,250.1c-.2,0-1.3,1-3.1,3a54.11,54.11,0,0,0-6.1,7.7c-1.5,2.9,5.2-4.5,8.5-9.4C84.12,250.5,84.32,250.1,84.22,250.1Z"/><path class="nodules" d="M86.62,252.5h0c-1,.1-9.5,10.7-10.2,12.7-.3.8,2-1.6,5.1-5.4s5.5-7.1,5.1-7.3Z"/><path class="nodules" d="M59.22,256c-.2-.1-.4.6-.4,1.8,0,1.6.3,2.3.6,1.5a4.78,4.78,0,0,0,0-2.9C59.42,256.1,59.32,256,59.22,256Z"/><path class="nodules" d="M86.52,258.2c-.8-.1-5.5,6.8-5.5,8.2,0,1.6,1.1.6,3.6-3.4,1.4-2.3,2.3-4.4,1.9-4.8.1.1.1,0,0,0Z"/><path class="nodules" d="M60.12,262.3c-.1,0-.2.1-.2.3-.1,3.2,5.1,9.8,9.4,11.9,4.5,2.3,4.7,2.3,4.7,1.5,0-.3-2-1.6-4.6-2.9a15.31,15.31,0,0,1-7-7.4C61.42,263.7,60.52,262.4,60.12,262.3Z"/><path class="nodules" d="M77,269.6c-1,0-1.8.5-1.8,1.2a1.2,1.2,0,0,0,1.1,1.2,2.37,2.37,0,0,0,1.8-1.2C78.52,270.1,78,269.6,77,269.6Z"/><path class="nodules" d="M91.52,270.3h0c-.4-.1-2.3.8-4.6,2.3a28,28,0,0,0-4.7,3.5c0,1,1.9.3,5.5-2.2,2.1-1.5,3.9-3.1,3.9-3.5a.1.1,0,0,0-.1-.1Z"/><path class="nodules" d="M112,288.9a.76.76,0,0,0-.4.1,2.66,2.66,0,0,0-1.2,1.8c0,1.7.8,1.3,1.6-.7q.6-1.2,0-1.2Z"/><path class="nodules" d="M115.62,292.4a.76.76,0,0,0-.4.1,2.66,2.66,0,0,0-1.2,1.8c0,1.7.8,1.3,1.6-.7.3-.7.3-1.2,0-1.2Z"/><path class="nodules" d="M139.72,315.7c-2.6-.1-6.3,2.1-9.9,6-2.8,3-3.2,3.7-1,1.8a29.18,29.18,0,0,1,8.7-4.8c2.8-.9,4.6-2.1,3.9-2.5A5.49,5.49,0,0,0,139.72,315.7Z"/><path class="nodules" d="M141.92,320.4c-1.8,0-.1,1.4,4.7,3.4,8.2,3.5,9.5,5.1,10.4,13s2.2,8.9,3.2,2.8c1.3-8.2-5.6-16.6-15.4-18.8A13.71,13.71,0,0,0,141.92,320.4Z"/><path class="nodules" d="M121.92,332.3c-.2,0-.5.4-1,1.2-1.5,2.5-.4,9.7,2,13.4.9,1.5,2.5,2.6,3.4,2.6,1.3,0,1-1.2-1.2-5.5-1.6-3-2.9-7.1-2.9-9.1C122.22,333.2,122.12,332.4,121.92,332.3Z"/><path class="nodules" d="M150.22,334.3c-.7,0-.8.9-.3,2.1a33.09,33.09,0,0,1,1.4,4.1c.5,1.7,2.7,3,2.7,1.6C154,340.2,151.22,334.3,150.22,334.3Z"/><path class="nodules" d="M137,333.8c-2.4,3.2-2.2.5.2-2.9,1.1-1.5,1.4-2.4.6-2s-2.7,3.2-4.4,6.1-3.3,5.2-3.6,5.2-.4-1.6-.2-3.4.8-3.1,1.4-2.7.8-.2.3-1.5-.5-1.8,0-1.4,1.6-.3,2.5-1.6,1.4-2.7,1-3.1.4-1.7,1.8-2.9,1.9-2.2,1.2-2.2h0c-1.9,0-10.8,9.7-10.9,11.8,0,1.6-.2,1.6-1.3,0-2.5-3.6.4,4.1,3.3,8.7h0c3,4.7,4.6,4.6,5.6-.4a19.58,19.58,0,0,1,2.3-5.5C139.22,332.4,139.22,330.8,137,333.8Zm-4.7-5.7c.3-.9.8-1.5,1.1-1.5a.37.37,0,0,1,.3.1c.4.4,0,1.3-.8,2.1C131.82,329.9,131.72,329.8,132.32,328.1Zm.6,12.3c-3,3.6-3,1.3,0-2.5A5,5,0,0,1,135,336h0c.1,0,.2.1.2.3C135.22,337,134.12,338.8,132.92,340.4Z"/><path class="nodules" d="M140,337.2l-2.4,2.9c-2.7,3.3-3.2,7.8-.9,8.6s2.8-.3.9-1.5c-1.4-.9-1.4-1.7.4-5.5Z"/><path class="nodules" d="M152.32,344.2c-.4.1-.8.7-1.1,1.5-.6,1.7-.5,1.8.7.7.8-.8,1.2-1.7.8-2.1A.76.76,0,0,0,152.32,344.2Z"/><path class="nodules" d="M146.42,349.6c-1,0-1.6.5-1.2,1.2s.9,1.2,1.2,1.2.8-.5,1.2-1.2S147.42,349.6,146.42,349.6Z"/><path class="nodules" d="M136.42,353.2a.92.92,0,0,0-.9,1.4c.3.8,2,1.8,3.9,2.2,5.2,1.1,6.8,1.1,8.7-.2,1.3-.8.2-1.1-3.8-1.2-3,0-5.8-.5-6.2-1.2A2.21,2.21,0,0,0,136.42,353.2Z"/><path class="nodules" d="M153.92,354a.31.31,0,0,0-.2.1c-.9.7-3.1,4-4.9,7.3-4.5,8.3-3,7.4,2.2-1.4C153.12,356.5,154.32,354,153.92,354Z"/><path class="nodules" d="M156.62,357.3c-.1,0-.2,0-.3.2a26.58,26.58,0,0,0-3.8,5c-3.1,5.4-1.6,4.4,2.2-1.4C156.12,358.8,156.92,357.3,156.62,357.3Z"/><path class="nodules" d="M157.32,360.5c-.5.1-1.8,2-3.4,5-.9,1.8-.7,1.8,1.2-.4,1.3-1.5,2.4-3.4,2.4-4.1,0-.3,0-.5-.2-.5Z"/><path class="nodules" d="M163.22,361.6c-.2,0-.6.3-.9.9a7.58,7.58,0,0,0-1.1,2.9c0,.6.5.4,1.1-.6a7.58,7.58,0,0,0,1.1-2.9C163.42,361.7,163.32,361.6,163.22,361.6Z"/><path class="nodules" d="M175.32,363.7a1.16,1.16,0,0,0-1.2,1.2c0,.6.2,1.2.5,1.2s.8-.5,1.2-1.2S175.92,363.7,175.32,363.7Z"/><path class="nodules" d="M181.52,277.5h0a14.47,14.47,0,0,0-3.5.4c-2.5.7-5,1.7-5.6,2.3-2,1.9.3,2.6,4.2,1.2,3-1.1,4.3-1,6.2.4,3.2,2.3,6.7,2.4,5.8.1a7.68,7.68,0,0,0-7.1-4.4Z"/><path class="nodules" d="M195.22,283.7a1.2,1.2,0,1,0,1.2,1.2A1.22,1.22,0,0,0,195.22,283.7Z"/><path class="nodules" d="M289.62,345.7c-.1-.5-.1-1.7-.2-2.8a13.71,13.71,0,0,0-.2-2.1c-.1-.1-.1-.2,0-.4s0-.5,0-.7c-.1-.5-.1-.5-1.3-.3a64.53,64.53,0,0,1-10.8-.4c-.6-.1-1.4-.1-1.9-.2a7.77,7.77,0,0,1-1.6-.2,4.33,4.33,0,0,1-.5-.1h0a1.42,1.42,0,0,0-.6.2c-.3.3-.4.5-.3,4.6,0,2.4.1,4.5.1,4.7.2.7.4,5.4.5,8.5,0,.4.9.7,2.5.8a7,7,0,0,1,1.3.2,8.14,8.14,0,0,1,.9.2,7.89,7.89,0,0,0,1.3.3c.9.1,8-.1,8-.2a2.44,2.44,0,0,1,.7-.1,1.56,1.56,0,0,0,.9-.3,1.07,1.07,0,0,1,.6-.2c.2,0,.5-.1.5-.3C290,356.1,289.92,348,289.62,345.7Zm-1.1,10.3a.6.6,0,0,0-.6.3c-.1.2-.4.3-.7.4a13.7,13.7,0,0,0-1.6.2,27.67,27.67,0,0,1-8-.3,3.47,3.47,0,0,0-1.3-.2c-.6,0-1.3-.2-1.7-.2-.7-.2-.7.2-.8-3.6a36.4,36.4,0,0,0-.4-5c-.1-.9-.1-7.6,0-7.8s.1-.1.2-.1h0a.76.76,0,0,1,.4.1,2.35,2.35,0,0,0,.8.2c.4,0,2.8.2,3.6.3a47.12,47.12,0,0,0,6.4.3c1.9,0,3.5.1,3.6.1a14.84,14.84,0,0,1,.2,3.2c0,1.7.2,3.2.2,3.4a22.11,22.11,0,0,1,.2,4.4C289,355.9,289,356,288.52,356Z"/><path class="nodules" d="M283.92,341.3c-.1,0-.2.1-.4.2-.3.3-.4.5-.3,1.3s.1,1-.3,1.1l-.4.1.5.4a.87.87,0,0,1,.4.7c-.1.3.4.8.8.8.1,0,.2-.2.2-.5,0-.5.1-.6.5-.3.2.1.2.4.2.9-.1.7-.1.8.2.8s.9-.5.8-.8c-.1-.1,0-.5.2-.9s.2-.6.1-.7a3.87,3.87,0,0,1-.3-1.2q0-1.05-.3-1.2c-.3-.1-.6.6-.7,1.4s-.9.7-1-.1a4.14,4.14,0,0,0-.1-1,1.69,1.69,0,0,0-.2-.9c.2-.1.2-.1.1-.1Z"/><path class="nodules" d="M282,345.2c-.4-2.6-.9-3.2-2.7-3.6-.2,0-.6-.1-1-.1a11.33,11.33,0,0,0-3.2.4c-.4.2-.4.6.2.8s.7.9.8,3.2c.1,1.1.1,1.1-.5,1.3a2.39,2.39,0,0,0-.7.3c-.1.2.3.5.9.6a.85.85,0,0,1,.6.2,16.51,16.51,0,0,1,.1,2.9c0,2.2.1,2.8.3,3.1.4.4.9.3.8-.2-.1-.7-.1-6.1,0-6.1l.8-.2c2-.3,2.9-.6,3.4-1.2C282.12,346.3,282.12,346.1,282,345.2Zm-2.7,1.4c-.8.1-1.5.3-1.7.3s-.4-.1-.5-1.6a16.45,16.45,0,0,0-.3-1.8c-.2-.5-.2-.7,0-.8a2.15,2.15,0,0,1,1-.2h0a10,10,0,0,1,1.6.2c1,.2,1.2.4,1.5,2.1C281.22,346.2,281.12,346.4,279.32,346.6Z"/><path class="nodules" d="M287.12,351.6c.4-.1-.1-.7-.7-.8s-.7-.2-.8-.6a7.25,7.25,0,0,0-1.5-2.5c-.2-.2-.3-.3-.5-.3s-.5.3-.7,1.1c-.3,1.3-.6,1.8-.9,1.8a1.27,1.27,0,0,0-.7.4c-.3.3-.3.4-.1.6a1.06,1.06,0,0,0,.5.2c.2,0,.2.1.1.2a17.09,17.09,0,0,0-1.4,2.6,1.69,1.69,0,0,0,.2.5c.3.3.4.3.8-.5.2-.4.5-.8.6-.8a.76.76,0,0,0,.2-.5c0-.2.1-.4.2-.4s.2-.2.2-.4c0-.5.4-.7,1.3-.7,1.1,0,1.1.1,1.1.3a1.52,1.52,0,0,0,.4.6,1.52,1.52,0,0,1,.4.6,2.12,2.12,0,0,0,.3.7c.3.4.4.4.7.2s.3-.3-.1-1.1S286.52,351.9,287.12,351.6Zm-2.4-.9a5.64,5.64,0,0,0-.7-.1c-.5-.1-.5-.1-.4-.6s.2-.6.3-.6.3.2.5.6S284.82,350.7,284.72,350.7Z"/><path class="nodules" d="M251.52,326.8a4.65,4.65,0,0,0-2.3.6c-1.3.8-1.2,1,.4,1,1.1,0,3.5,1.3,5.3,2.9,3.6,3.1,5.3,1.9,2.2-1.6A7.91,7.91,0,0,0,251.52,326.8Z"/><path class="nodules" d="M241.72,327.3a7,7,0,0,0-2.9,1.1c-1,.6-1.2,1.1-.6,1.1a7,7,0,0,0,2.9-1.1C242.12,327.8,242.32,327.3,241.72,327.3Z"/><path class="nodules" d="M234.62,329.6c-.6,0-2.7,1.3-4.6,2.9-4.6,3.8-3.4,3.8,1.8,0,2.1-1.6,3.4-2.9,2.8-2.9Z"/><path class="nodules" d="M247,333.1a8.64,8.64,0,0,0-4.7,1.2c-1.3.8,0,1.1,4.4,1.2,3.4,0,6.2.5,6.2,1.2h0c0,.6.9,1.2,1.9,1.2,1.8,0,1.7-.2-.2-2.4-1.4-1.6-4.6-2.5-7.6-2.4Z"/><path class="nodules" d="M243.52,337.3c-1.3.2-9.5,10.9-9.5,12.7,0,.4.7.7,1.5.5,2.7-.5,9.8-12.1,8.1-13.1C243.62,337.3,243.62,337.3,243.52,337.3Z"/><path class="nodules" d="M249,338.3c-.9.2-8.7,9.8-10.7,13.4h0c-.5.8-.6,1.5-.2,1.5.9-.1,11.5-14.3,10.9-14.9Z"/><path class="nodules" d="M231.92,353c-.3.8-1,1.1-1.6.7s.5-3.7,2.5-7.4c1.6-3,2.5-4.8,2.1-4.7-.1,0-.2.2-.4.4-1.1,1.3-2.4,2.2-3,2.1s-2.1,1.3-3.5,3.2c-1.6,2.3-3.1,3.2-4.3,2.7-1.5-.6-1.8-.1-1.4,2.9.5,3.4.4,3.5-2.2,2.3-3.1-1.4-4.4-5.3-3.4-10l.7-3.2-1.9,3.5c-1.8,3.3-1.8,3.7.7,8.4,1.4,2.7,3.7,5.4,5.1,6,4,1.8,10.7-.5,13-4.4a19.67,19.67,0,0,0,2-3.9C236.42,350.4,232.42,351.6,231.92,353Zm-3.7-2.9a9.73,9.73,0,0,1,1.7-3.5,4.34,4.34,0,0,1,1.5-1.4h.1c.1,0,.1.1.1.3a9.73,9.73,0,0,1-1.7,3.5C228.92,350.2,228.22,350.7,228.22,350.1Z"/><path class="nodules" d="M255.62,342.3c-.2-.3-.4-.5-.7-.5s-1,.4-1.5,1.2a4.46,4.46,0,0,1-2.9,1.9c-1.5,0-4.6,3.3-4.7,5,0,.5,1,.9,2.2.9C250.72,350.8,256.72,344,255.62,342.3Zm-6.1,5.2c-1.5,2-2.5,2.6-2.5,1.6a7.44,7.44,0,0,1,2.1-2.1c.9-.7,1.4-1.1,1.5-1A10.34,10.34,0,0,1,249.52,347.5Z"/><path class="nodules" d="M238.12,354.7a4.23,4.23,0,0,0-1.7,1.3c-.9,1.1-1,1.8-.2,1.8,1.4,0,3.1-2.2,2.3-3l-.1-.1Z"/><path class="nodules" d="M281.42,280.3h0l-3.2.1,2.9.9a30.82,30.82,0,0,1,3.2,1.1c.2.1.3-.4.3-1.1s-1.4-1.1-3.2-1Z"/><path class="nodules" d="M276.92,282c-.4,0-1.4.6-3.4,1.8-2.3,1.3-4.1,3-4.1,3.6s.5.8,1.2.4,1.2.6,1.2,2.3.5,3,1.1,3,.8-1.5.4-3.5c-.4-2.2-.2-3.5.6-3.5s1.8-1,2.5-2.3S277.32,282,276.92,282Z"/><path class="nodules" d="M295,289.7a10.77,10.77,0,0,0-1.7,1.4,30.47,30.47,0,0,0-5,7.1c-1.5,2.8-1.9,4-.9,2.7s2.2-2.9,2.7-3.5,1.9-2.8,3.2-4.7C294.62,290.6,295.22,289.7,295,289.7Z"/><path class="nodules" d="M269.12,295.8c-.7,0-.5.2.3.8a8.12,8.12,0,0,0,4,1.2c3,0,2.1-.6-2.3-1.6A16.75,16.75,0,0,0,269.12,295.8Z"/><path class="nodules" d="M349,120.4c-.8,0-1.1.8-.3,2a3.52,3.52,0,0,0,2.7,1.3c1.8,0,1.8-.2,0-2a3,3,0,0,0-2.4-1.3Z"/><path class="nodules" d="M338.22,124.8l2.9,1.7c3.6,2.2,5,2.3,4.4.4-.3-.8-2-1.6-3.9-1.8Z"/><path class="nodules" d="M302,162.5c-.7,0-.6.7.3,1.8s1.6,1.8,1.9,1.8.1-.8-.3-1.8S302.72,162.5,302,162.5Z"/><path class="nodules" d="M296.72,165.5c-.2,0-.3.3-.3,1a8.48,8.48,0,0,0,1.9,4.4c2.9,3.2,3.2,1.8.5-2.7C297.72,166.4,297.12,165.5,296.72,165.5Z"/><path class="nodules" d="M376.22,168c-.3,0-.9.9-1.6,2.6a32.42,32.42,0,0,0-1.7,4.7c.1,1.5,3.4-5.2,3.4-6.9C376.42,168.1,376.32,168,376.22,168Z"/><path class="nodules" d="M449.42,10.6c0-.1-.5.2-1.3.9-1,.8-2.3,1.1-2.8.6s-.6-.2-.1.6c1.1,1.9,1.3,1.9,3.2-.6C449.12,11.2,449.52,10.7,449.42,10.6Z"/><path class="nodules" d="M452.22,12.3a.76.76,0,0,0-.4.1,2.66,2.66,0,0,0-1.2,1.8c0,1.7.8,1.3,1.6-.7q.45-1.2,0-1.2Z"/><path class="nodules" d="M444.32,19c-2.5.1-2.5.1.1,1.4a4.43,4.43,0,0,1,2.6,4.4c0,1.7.4,3.6.9,4.1,1.5,1.5,1.7-6.4.2-8.2A4.44,4.44,0,0,0,444.32,19Z"/><path class="nodules" d="M459.92,20.1c-.6,0-.8.5-.4,1.2a2.85,2.85,0,0,0,1.9,1.2c.6,0,.8-.5.4-1.2A2.53,2.53,0,0,0,459.92,20.1Z"/><path class="nodules" d="M479.52,23h-.1c-.3.1-.6.7-.8,1.7-.5,2-.4,2.4.5,1.5a2.92,2.92,0,0,0,.7-2.8c-.1-.2-.2-.4-.3-.4Z"/><path class="nodules" d="M484.32,23.9c-.1-.1-.6.2-1.3.8-2.2,1.8-2.4,4-.3,2.8.9-.5,1.1-.4.5.2a4.11,4.11,0,0,1-2.1,1.2c-.6.1-1.6.2-2.3.3s-.9.6-.6,1.2c1,1.7,5.3.1,6.7-2.5,1-1.8.9-2.1-.2-1.4s-1.3.3-.7-1.2C484.32,24.5,484.42,24,484.32,23.9Z"/><path class="nodules" d="M453.92,25.5a3,3,0,0,0-2.2,1.1c-1.2,1.4-1.1,1.6.4,1a2.18,2.18,0,0,1,2.6.6c1.1,1.7,1.8,1.6,1.8-.4A2.34,2.34,0,0,0,453.92,25.5Z"/><path class="nodules" d="M485.42,30.6c-.3,0-.8.5-1.2,1.2s-.2,1.2.5,1.2a1.16,1.16,0,0,0,1.2-1.2C485.92,31.2,485.72,30.6,485.42,30.6Z"/><path class="nodules" d="M488.32,33a1.16,1.16,0,0,0-1.2,1.2c0,.6.2,1.2.5,1.2s.8-.5,1.2-1.2S489,33,488.32,33Z"/><path class="nodules" d="M461.82,47.1c-1.7,0-3,.5-3,1.2s1,1.2,2.3,1.2a3.66,3.66,0,0,0,3-1.2C464.52,47.6,463.62,47.1,461.82,47.1Z"/><path class="nodules" d="M464.22,53.6a2.63,2.63,0,0,0-1.4.7c-.9.8-1.3,1.9-1,2.5s1.4.5,2.3-.3,1.3-1.9,1-2.5C465,53.7,464.72,53.5,464.22,53.6Z"/><path class="nodules" d="M453,60.8l-2.4,2.5c-3,3.2-2.9,3.5.3,4.1,1.5.3,3,.6,3.3.7s1.6-.8,2.7-2c1.9-2.1,1.9-2.2-.3-2.8-1.5-.4-2.5.1-2.9,1.3s-.6.8-.7-.9Z"/><path class="nodules" d="M467.12,67.4h0a2.82,2.82,0,0,0-1.7.9,4.82,4.82,0,0,0-1.8,3.1c0,1.8,1.4,1.9,5.9.4l2.9-.9-3.3-.1c-1.9-.1-3-.6-2.6-1.3a1.55,1.55,0,0,1,2.1-.4c1,.6,1,.4,0-.8-.6-.6-1-.9-1.5-.9Z"/><path class="nodules" d="M495,55.4c-.8,0-.7.5.4,1.2,2.3,1.5,2.7,1.5,1.8,0A3.07,3.07,0,0,0,495,55.4Z"/><path class="nodules" d="M491.22,55.4c-.6,0-2.5,1.1-4.1,2.4q-3,2.4-.6,1.2C490.32,57,492.52,55.4,491.22,55.4Z"/><path class="nodules" d="M497.12,58.6l-5.7,4c-3.1,2.2-6.8,4.6-8.2,5.4-2.5,1.4-2.5,1.5.4,1.4,3.2,0,4.7-1.1,10-6.9Z"/><path class="nodules" d="M492.72,67.1c-.2,0-.4.4-1,1.2a8.35,8.35,0,0,0-1.1,3.5c0,1.6.1,1.6,1.1,0a8.35,8.35,0,0,0,1.1-3.5C492.92,67.5,492.92,67.1,492.72,67.1Z"/><path class="nodules" d="M477.72,68.3c-.9,0-.9.8.1,2.5.7,1.4,1.6,2.2,2,1.8C480.62,71.6,479.12,68.3,477.72,68.3Z"/><path class="nodules" d="M486.92,76.6c-.3,0-.9,1-2.1,3.5-1.3,2.8-1.3,2.8.4.7a8.58,8.58,0,0,0,1.8-3.4C487.12,76.8,487,76.6,486.92,76.6Z"/><path class="nodules" d="M486.62,82.9c-.5-.1-1.3.8-2,2.1-1.3,2.6-1.3,2.7.7.7,1.2-1.1,1.8-2.4,1.4-2.7C486.82,82.9,486.72,82.9,486.62,82.9Z"/><path class="nodules" d="M488.72,84c-.2,0-.3.4-.3,1.3-.1,1.2.2,1.9.6,1.5a2.53,2.53,0,0,0,.1-2.3C488.92,84.2,488.82,84,488.72,84Z"/><path class="nodules" d="M402.22,16.5c-1.6,0-2.6,3.2-1.7,5.4s3.2,1.8,9.9-.9c2.7-1.1,4.1-1.2,4.7-.3,1.1,1.7,11.3,3.3,10.3,1.7-.4-.7-2.3-1.2-4.2-1.2s-3.5-.5-3.5-1.2a1.22,1.22,0,0,1,1.2-1.2,1.2,1.2,0,0,0,1.2-1.1c0-1.4-7.9-.3-12.2,1.8-4.6,2.2-5.8,2-5.1-.7C403,17.6,402.82,16.5,402.22,16.5Z"/><path class="nodules" d="M435.52,24a11,11,0,0,0-1.8.2c-3.6.9-4.1,2.5-1.1,3.2,3.6.9,4.8.8,5.7-.5C439.32,25.3,437.92,24,435.52,24Z"/><path class="nodules" d="M427.32,27.6h0a2.49,2.49,0,0,0-2.5,1.7c-1.5,2.9-.4,4,2.4,2.5,2.5-1.4,2.6-1.2,1,3.1a9.15,9.15,0,0,0-.5,5.3c.6,1.9,1.2,1.6,4.4-2.2,5.8-6.9,6.6-8.5,1.6-3.3-3.9,4.1-4.5,4.4-3.7,1.9a32.82,32.82,0,0,1,2.4-5.4c1.1-1.8,1.2-2.5.2-2.5a19.22,19.22,0,0,1-3.9-.8,4.41,4.41,0,0,0-1.4-.3Z"/><path class="nodules" d="M439.82,32.3c-1,.2-6.6,6.6-8.1,9.5-.7,1.3.9,0,3.5-2.9s4.8-5.8,4.8-6.4C440,32.3,439.92,32.3,439.82,32.3Z"/><path class="nodules" d="M425.12,34.7c-.4,0-1,.8-2,2.7-1.1,2.1-1.6,3.8-1,3.8,1.8,0,3.9-3.3,3.4-5.5C425.52,35.1,425.32,34.7,425.12,34.7Z"/><path class="nodules" d="M441.22,37.7c-.1,0-1.5,1.5-4.5,4.6-3.3,3.5-5.7,6.9-5.3,7.5s1.3.2,1.9-1.1a83.34,83.34,0,0,1,5.3-7.5C440.32,38.9,441.32,37.7,441.22,37.7Z"/><path class="nodules" d="M425.62,40.1c-.5,0-.9,1.4-.9,3s.5,2.7,1.1,2.3C427.12,44.6,427,40.1,425.62,40.1Z"/><path class="nodules" d="M445.22,40.4c-.1,0-.1,0-.2.1a29.11,29.11,0,0,0-4,4.5c-1.5,2-2,3.3-1.3,2.9a29.11,29.11,0,0,0,4-4.5C445,41.6,445.62,40.3,445.22,40.4Z"/><path class="nodules" d="M447.72,46.5c0-.1-1,.9-3.2,2.8-4.3,3.9-4.3,3.9-5.7,1.4-1.1-2-1.7-2.3-3.1-1.2-2.3,1.9-2.1,3.5.4,3.5,1.8,0,1.8.2.3,1.2-1.3.8-1.3,1.2-.2,1.2.8,0,1.2.5.8,1.2s-2,1.2-3.6,1.2c-2.4,0-2.9.6-2.9,3.4a12,12,0,0,1-2.2,6.2,18.45,18.45,0,0,0-3,5.7c-.8,2.9-.8,2.9,1.1.6,1-1.3,2.6-3.4,3.5-4.7,1.2-1.7,1.9-2,2.6-.9s5.8,1.3,8.5.3a10,10,0,0,1,2.5,0c1.3.1,2.1-1,2.4-3.4a20.42,20.42,0,0,0,.4-3.6s-2.7,1.3-5.9,2.8-6.3,2.6-6.8,2.3c-1.6-1-1-4,1.4-6.6,2.9-3.1,4.6-1.8,2.5,1.8-.8,1.4,1.4-.3,4.9-3.9,6.6-6.6,8.3-10.2,2-4.1-5.3,5.1-5.8,2.4-.5-3.3a40.32,40.32,0,0,0,3.8-3.9Z"/><path class="nodules" d="M424.52,47.1c-.8,0-.7.7.2,1.8s1.7,1.6,2,1.3C427.62,49.4,425.92,47.1,424.52,47.1Z"/><path class="nodules" d="M441.62,71.1a1.09,1.09,0,0,0-.5.1,2.66,2.66,0,0,0-1.2,1.8,1.13,1.13,0,0,0,1.2,1.1c.7,0,1.2-.8,1.2-1.8C442.42,71.6,442.12,71.1,441.62,71.1Z"/><path class="nodules" d="M450.52,69.5c-.7,0-.9.5-.5,1.2s-.3,1.2-1.6,1.2-2.7.5-3.1,1.2.1.9,1.1.5,1.8-.2,1.8.3c0,1.7-8.2,8.6-10.2,8.6-1.1,0-1.6.4-1.1.8s-.1,1.8-1.2,2.9c-1.3,1.4-1.4,2.2-.5,2.2s4.8-3.6,9-7.9C451.42,72.9,453.32,69.5,450.52,69.5Z"/><path class="nodules" d="M453.22,74.8l-8.5,8.6c-6.9,7-8.2,8.9-7.1,10.3,1.5,1.8.3,2.2-2,.8-1.9-1.2-3.9-6.7-3.9-10.7,0-3.5,4.3-6.5,7.4-5.3a3.17,3.17,0,0,0,3.1-1.2c1.3-1.5,1.1-1.8-.8-1.8-9.3,0-14.7,5.1-12.2,11.6a46.91,46.91,0,0,1,1.8,6.1,6.2,6.2,0,0,0,3.3,4.1c2,.9,2.9,2.5,3.4,6.4.8,6.2,6.4,11.7,15,14.9a33.39,33.39,0,0,1,6.6,3c1.6,1.4,8.6,1.2,9.5-.2.4-.7-.7-1.2-2.5-1.2-5,0-22.7-9.3-24.5-12.9-1.5-2.9-1.3-3.4,4.3-9.8,3.2-3.7,5.4-6.7,4.7-6.7s-2.9,2.2-5,5-4.2,5.5-4.7,6-.7-.9-.5-3.2c.3-3.2,2.1-6.3,8.3-13.4l8-9.2-8.3,8.5c-4.6,4.7-8.6,8.5-9,8.5-1.8,0-.1-2.7,6.5-10.1Z"/><path class="nodules" d="M451.22,86.6l-5,4.7c-2.7,2.6-5,5.2-5,5.8s.3.8.9.1,2.7-3.2,5-5.8Z"/><path class="nodules" d="M454.92,94.7c-.4,0-2,1.8-3.6,4.2-1.7,2.6-2.9,4.7-2.7,4.7,1,0,6.9-8.4,6.3-8.9Z"/><path class="nodules" d="M449.22,98.9a15.84,15.84,0,0,0-3.4,2.9c-1.5,1.6-2.5,2.9-2.2,2.9a15.84,15.84,0,0,0,3.4-2.9C448.62,100.2,449.62,98.9,449.22,98.9Z"/><path class="nodules" d="M456.42,99.4c-.3-.1-1.5,1.1-2.9,3a25.72,25.72,0,0,0-2.9,4.6c.1,1.1,5.8-6.3,5.8-7.5C456.52,99.5,456.52,99.4,456.42,99.4Z"/><path class="nodules" d="M418.42,120.6c-.2,0-.4.5-.8,1.3a11.63,11.63,0,0,0-1,4.1c0,1.1.4.9,1-.6a11.63,11.63,0,0,0,1-4.1c.1-.4,0-.7-.2-.7Z"/>
        </g>
    </g>
</svg>