<svg id="acp-logo" xmlns="http://www.w3.org/2000/svg" viewBox="0 0 980.64 820.83"><g id="bottom"><path d="M228.42,811.89l3.49,3a22,22,0,0,1-14.81,5.91A20.35,20.35,0,0,1,202.4,815a19,19,0,0,1-.89-26.86c.28-.3.58-.6.89-.89a20.27,20.27,0,0,1,14.7-5.83,22,22,0,0,1,14.82,5.94l-3.49,3q-5.49-4.68-11.33-4.68a15.32,15.32,0,0,0-11,4.48c-6.27,5.66-7.12,14.94-1.46,21.21a1.71,1.71,0,0,0,1.46.73,15.39,15.39,0,0,0,11,4.47Q222.94,816.57,228.42,811.89Z"/><path d="M236.76,820.37V781.88h5v34.29H256.1v4.2Z"/><path d="M272.71,772.28,264,778.67h-5.24l5.77-6.39Zm-6.77,9.6v38.49h-5V781.88Z"/><path d="M277.31,781.88,300,812.64V781.88h5v38.49H299.5l-22.14-30v30h-5V781.88Z"/><path d="M316.46,781.88v38.49h-5V781.88Z"/><path d="M353.93,811.89l3.49,3a22,22,0,0,1-14.83,5.91,20.35,20.35,0,0,1-14.7-5.79,19,19,0,0,1-.89-26.86c.28-.3.58-.6.89-.89a20.27,20.27,0,0,1,14.7-5.83,22,22,0,0,1,14.83,5.94l-3.49,3q-5.49-4.68-11.34-4.68a15.45,15.45,0,0,0-11.32,26.1l.32.32a15.31,15.31,0,0,0,11,4.47Q348.44,816.57,353.93,811.89Z"/><path d="M378.1,781.88l14.44,38.49h-5.21l-6-16H370.5l-6.12,16H359.1l14.63-38.49Zm1.63,18.32L375.91,790,372.1,800.2Z"/><path d="M418.25,781.88q10,.06,15.52,5.43a19.07,19.07,0,0,1,.67,27c-.25.27-.52.54-.79.79q-5.43,5.25-15.4,5.3h-8.43V781.88Zm-3.41,4.28v30h3.38q7.42,0,11.67-4a15.37,15.37,0,0,0,.36-21.73l-.36-.36q-4.25-3.92-11.67-3.91Z"/><path d="M466.22,781.88v4.23H449.53v12.95h16.69v4.2H449.53V816.2h16.69v4.2h-21.7V781.88Z"/><path d="M491.52,807.77v12.6h-5V781.88h11.42a14.22,14.22,0,0,1,8.34,3.91,12.14,12.14,0,0,1,3.91,9,12.3,12.3,0,0,1-4,9.12,13.42,13.42,0,0,1-9.75,3.85Zm0-21.66v17.44h4.93a8.59,8.59,0,0,0,6.1-2.5,8.32,8.32,0,0,0,2.6-6.25,8.21,8.21,0,0,0-2.6-6.2,8.56,8.56,0,0,0-6.1-2.49Z"/><path d="M526.15,800.11a17.15,17.15,0,0,1-6.89-3.88,8.12,8.12,0,0,1-2.61-6.07,8.32,8.32,0,0,1,2.7-6.11,9.25,9.25,0,0,1,6.72-2.63,9.5,9.5,0,0,1,6.79,2.7,9.22,9.22,0,0,1,2.3,3.9l-4.49,1.69a8.64,8.64,0,0,0-1.49-2.81,4.28,4.28,0,0,0-6-.13l-.13.13a4.4,4.4,0,0,0-1.34,3.3,4.63,4.63,0,0,0,1.38,3.37A14.26,14.26,0,0,0,527,796a20.07,20.07,0,0,1,8,4.6,11.32,11.32,0,0,1,.67,16c-.21.23-.44.46-.67.67a13.06,13.06,0,0,1-17.94-.09,12,12,0,0,1-3.55-7.14l4.82-1.69q.45,4.2,2.47,6.13a7.35,7.35,0,0,0,5.26,2.14,7.45,7.45,0,0,0,5.36-2.21,7.69,7.69,0,0,0,0-10.88l0,0A16.58,16.58,0,0,0,526.15,800.11Z"/><path d="M548.57,781.88v38.49h-5V781.88Z"/><path d="M586,811.89l3.49,3a22,22,0,0,1-14.82,5.91A20.37,20.37,0,0,1,560,815a19.07,19.07,0,0,1-.81-26.94q.39-.42.81-.81a20.29,20.29,0,0,1,14.71-5.83,22,22,0,0,1,14.82,5.94l-3.49,3q-5.49-4.68-11.33-4.68a15.45,15.45,0,0,0-11.32,26.1l.32.32a15.39,15.39,0,0,0,11,4.47Q580.55,816.57,586,811.89Z"/><path d="M628.45,787.18A19,19,0,0,1,629.4,814c-.31.33-.62.65-.95,1A21.51,21.51,0,0,1,599,815a19,19,0,0,1-.95-26.85c.31-.33.62-.65.95-1A21.49,21.49,0,0,1,628.45,787.18Zm-14.73-1.61a15.51,15.51,0,0,0-11.31,26.2l.31.31a15.82,15.82,0,0,0,22.09,0,15.31,15.31,0,0,0,.35-21.65l-.35-.35A15.38,15.38,0,0,0,613.72,785.57Z"/><path d="M639.3,820.37V781.88h5v34.29h14.32v4.2Z"/><path d="M695.24,787.18a19.06,19.06,0,0,1,.86,26.94c-.28.3-.56.58-.86.86a21.51,21.51,0,0,1-29.43,0,19,19,0,0,1-.95-26.85c.31-.33.62-.65.95-1A21.49,21.49,0,0,1,695.24,787.18Zm-14.73-1.61a15.51,15.51,0,0,0-11.35,26.16l.35.35a15.81,15.81,0,0,0,22.08,0,15.31,15.31,0,0,0,.35-21.65l-.35-.35a15.34,15.34,0,0,0-11.08-4.51Z"/><path d="M740,815.11a21.15,21.15,0,0,1-29-.12,19,19,0,0,1-.89-26.86c.28-.3.58-.6.89-.89a20.27,20.27,0,0,1,14.7-5.83,21.93,21.93,0,0,1,14.83,5.94l-3.49,3q-5.49-4.68-11.34-4.68a15.45,15.45,0,0,0-11.32,26.1l.32.32a15.31,15.31,0,0,0,11,4.47,14.69,14.69,0,0,0,9.26-2.94V801.91h5Z"/><path d="M751,781.88v38.49h-5V781.88Z"/><path d="M773.37,781.88l14.44,38.49H782.6l-6-16H765.75l-6.12,16h-5.24L769,781.88ZM775,800.2,771.18,790l-3.85,10.21Z"/></g><g id="middle"><path d="M71.25,675.49V676H50.58v-.51c5,0,7.17-2.1,4.26-9.42-.94-2.6-3.85-9.72-7.17-18h-28c-2.59,6.71-4.67,11.72-5.09,12.72-3,7.52-2,14.73,5.82,14.73V676H0v-.51c5.82-1.9,9.77-4.6,12.78-11.82,3.63-8.72,23.47-57.83,23.47-57.83h.52s19.62,49.78,22.33,56.24S64.7,675.49,71.25,675.49ZM47.47,647.63c-5.61-14-12.47-31.06-13.82-34.27-3.55,8.82-9.45,23.55-13.81,34.27Z"/><path d="M130.54,675.49V676h-18.9v-.51c5.92,0,6.54-3.6,6.54-11V641c0-6.82-3.53-14.83-13.81-14.83-4.26,0-11.32,3.3-13.91,9-.11,1.9-.21,4.21-.21,6.81v22.45c.1,7.42.62,11,6.54,11V676H78v-.51c5.92,0,6.44-3.6,6.55-11V638c-.11-7.41-.63-11-6.55-11v-.5H92v.5c-.62.3-1.24,2.5-1.55,7.11a18.79,18.79,0,0,1,16-8.61c10,0,17.55,4.1,17.55,16v23C124,671.89,124.62,675.49,130.54,675.49Z"/><path d="M185.38,675.19v.61a8.53,8.53,0,0,1-4.57,1.2c-6.44,0-10.7-1.7-10.8-11.73-2.39,5-6,9.32-11.32,10.83-7.79,2.3-17.87.4-17.14-9.53.83-10.22,14.54-12,21.7-14.33a26.17,26.17,0,0,0,6.76-3.3v-8.12c0-8.52-2.5-14.83-10.08-14.83-6.75,0-10.18,2-11.84,5.31-1.45,3.2,1.46,4,2.18,6.81s-1.45,4.91-4.36,4.31-3.74-4-2-7.71,5.19-9.12,16.2-9.12c9.87,0,15.68,4.81,15.68,14.73v25.25c0,6.82,1.46,10.73,6.23,10.73A6.62,6.62,0,0,0,185.38,675.19ZM170,664.67V649.44a26.12,26.12,0,0,1-6.34,3c-5,1.91-15.89,2.71-16.93,11.83C145.6,674.79,154,678,160.45,675.09,165,672.89,168,669,170,664.67Z"/><path d="M280.6,666.57v1.54c-5.61,4.31-12.15,7.92-23.68,8.62-21.49,1.3-39.77-11.33-41.74-32.37s13.6-37.39,35.1-39.19c6.64-.6,16.2,1.2,20.46,2.1s8.1,2,8.1-4.81h.41v23.76h-.41c0-7.12-6-13.43-12-16.84a29.57,29.57,0,0,0-16.41-3.71c-15.89,1.3-30.63,15.94-28.45,38,2.28,22.44,18.59,33,35,32.57A37,37,0,0,0,280.6,666.57Z"/><path d="M335.44,675.19v.61a8.53,8.53,0,0,1-4.57,1.2c-6.44,0-10.7-1.7-10.81-11.73-2.38,5-6,9.32-11.32,10.83-7.78,2.3-17.86.4-17.13-9.53.83-10.22,14.54-12,21.7-14.33a25.79,25.79,0,0,0,6.75-3.3v-8.12c0-8.52-2.49-14.83-10.07-14.83-6.75,0-10.18,2-11.84,5.31-1.45,3.2,1.46,4,2.18,6.81s-1.45,4.91-4.36,4.31-3.74-4-2-7.71,5.19-9.12,16.2-9.12c9.86,0,15.68,4.81,15.68,14.73v25.25c0,6.82,1.45,10.73,6.23,10.73A6.62,6.62,0,0,0,335.44,675.19ZM320.1,664.67V649.44a25.88,25.88,0,0,1-6.33,3c-5,1.91-15.89,2.71-16.93,11.83-1.14,10.52,7.27,13.73,13.71,10.82C315.1,672.89,318.1,669,320.1,664.67Z"/><path d="M378.53,630.2a3.76,3.76,0,0,1-4.11,3.38,3.81,3.81,0,0,1-1.81-.68c-2.49-1.5-1.87-4.81-5.71-3.71-3.43.91-9.14,7.82-10.91,13.33v22c.11,7.42.63,11,6.55,11V676h-18.8v-.51c5.92,0,6.44-3.6,6.54-11V638c-.1-7.41-.62-11-6.54-11v-.5h14v.5c-.94.4-1.66,4.71-1.77,14.33,3.22-8.22,11.53-15.33,16.1-15.83C376.24,625.11,378.84,627,378.53,630.2Z"/><path d="M439.18,648.94c1,14.73-7.79,26.66-22.54,28-15.37,1.4-27.21-7-29-23.35-1.77-15.64,8.72-27.06,24.2-28.06C426.61,624.48,438.1,634.2,439.18,648.94Zm-6,.4c-1-14.73-10.28-24.35-21.18-23.55-11.42.9-19.84,10.92-18.07,27.16s11.42,24.65,22.74,23.55c10.15-1,17.52-12.39,16.48-27.16Z"/><path d="M462,664.47c0,7.32.63,11,6.54,11V676h-18.9v-.51c5.92,0,6.55-3.7,6.55-11V613.66c0-7.32-.63-10.92-6.55-10.92v-.5h14.13v.5c-1,.4-1.77,4.91-1.77,15Z"/><path d="M492.35,664.47c0,7.32.62,11,6.54,11V676H480v-.51c5.92,0,6.54-3.7,6.54-11V638c0-7.41-.62-11-6.54-11v-.5H494.1v.5c-1,.5-1.76,5-1.76,15Zm1.66-54a4.65,4.65,0,0,1-4.57,4.61,4.54,4.54,0,0,1-4.47-4.61A4.47,4.47,0,0,1,489.4,606h0a4.56,4.56,0,0,1,4.57,4.49Z"/><path d="M562.86,675.49V676H544v-.51c5.92,0,6.54-3.6,6.54-11V641c0-6.82-3.53-14.83-13.81-14.83-4.26,0-11.32,3.3-13.92,9-.1,1.9-.21,4.21-.21,6.81v22.45c.11,7.42.63,11,6.55,11V676h-18.8v-.51c5.92,0,6.44-3.6,6.54-11V638c-.1-7.41-.62-11-6.54-11v-.5h14v.5c-.62.3-1.25,2.5-1.56,7.11a18.79,18.79,0,0,1,16-8.61c10,0,17.55,4.1,17.55,16v23C556.32,671.89,556.94,675.49,562.86,675.49Z"/><path d="M617.69,675.19v.61a8.44,8.44,0,0,1-4.57,1.2c-6.44,0-10.69-1.7-10.8-11.73-2.39,5-6,9.32-11.32,10.83-7.79,2.3-17.86.4-17.13-9.53.83-10.22,14.54-12,21.7-14.33a25.79,25.79,0,0,0,6.75-3.3v-8.12c0-8.52-2.49-14.83-10.07-14.83-6.75,0-10.18,2-11.84,5.31-1.45,3.2,1.45,4,2.18,6.81s-1.45,4.91-4.36,4.31-3.74-4-2-7.71,5.2-9.12,16.21-9.12c9.86,0,15.68,4.81,15.68,14.73v25.25c0,6.82,1.45,10.73,6.23,10.73A6.55,6.55,0,0,0,617.69,675.19Zm-15.37-10.52V649.44a25.88,25.88,0,0,1-6.33,3c-5,1.91-15.89,2.71-16.93,11.83-1.14,10.52,7.27,13.73,13.71,10.82,4.57-2.2,7.58-6.11,9.55-10.42Z"/><path d="M698.1,625.79c0,13.12-9.56,19.84-23.26,19.84H660.1v18.84c.1,7.42.62,11,6.54,11V676H647.81v-.51c5.91,0,6.43-3.6,6.54-11v-47.1c-.11-7.32-.63-11-6.54-11v-.5h27C688.51,605.84,698.1,612.66,698.1,625.79Zm-6.54,0c0-13.13-7.27-19.45-17.76-19.45h-7.2c-5.92,0-6.44,3.71-6.54,11V645.2h13.71c10.49,0,17.76-6.29,17.76-19.41Z"/><path d="M712.5,642.62a30.66,30.66,0,0,0-.83,10.23c1.35,14.93,12,23.85,23.16,23.65a24.11,24.11,0,0,0,16-6.92v1.1c-4.05,3.11-8.1,5.72-16,6.22-14.64,1-28.14-6.72-29.39-23.75-1.24-15.94,10.07-26.46,24.51-27.56,12.26-.91,21.29,5.61,23.37,17Zm.11-.4h34.06c-.83-8.32-5.82-16.13-16.51-16.23C722.16,625.79,715.2,632.8,712.61,642.22Z"/><path d="M798,630.2a3.76,3.76,0,0,1-4.11,3.38,3.81,3.81,0,0,1-1.81-.68c-2.49-1.5-1.87-4.81-5.71-3.71-3.43.91-9.14,7.82-10.91,13.33v22c.11,7.42.63,11,6.55,11V676h-18.8v-.51c5.92,0,6.44-3.6,6.54-11V638c-.1-7.41-.62-11-6.54-11v-.5h14v.5c-.93.4-1.66,4.71-1.77,14.33,3.22-8.22,11.53-15.33,16.1-15.83C795.69,625.11,798.28,627,798,630.2Z"/><path d="M812.51,642.62a30.66,30.66,0,0,0-.83,10.23c1.35,14.93,12,23.85,23.16,23.65a24.11,24.11,0,0,0,16-6.92v1.1c-4.05,3.11-8.1,5.72-16,6.22-14.65,1-28.15-6.72-29.39-23.75-1.25-15.94,10.07-26.46,24.51-27.56,12.25-.91,21.29,5.61,23.36,17Zm.1-.4h34.07c-.83-8.32-5.82-16.13-16.52-16.23-8-.2-14.95,6.81-17.55,16.23Z"/><path d="M875.55,664.47c0,7.32.62,11,6.54,11V676h-18.9v-.51c5.92,0,6.54-3.7,6.54-11V638c0-7.41-.62-11-6.54-11v-.5h14.12v.5c-1,.5-1.76,5-1.76,15Zm1.66-54a4.65,4.65,0,0,1-4.57,4.61,4.54,4.54,0,0,1-4.47-4.61h0a4.46,4.46,0,0,1,4.41-4.51h.06a4.56,4.56,0,0,1,4.57,4.49Z"/><path d="M928.3,630.2a3.76,3.76,0,0,1-4.11,3.38,3.81,3.81,0,0,1-1.81-.68c-2.49-1.5-1.87-4.81-5.71-3.71-3.43.91-9.14,7.82-10.91,13.33v22c.11,7.42.63,11,6.55,11V676h-18.8v-.51c5.92,0,6.44-3.6,6.54-11V638c-.1-7.41-.62-11-6.54-11v-.5h14v.5c-.94.4-1.66,4.71-1.77,14.33,3.22-8.22,11.53-15.33,16.1-15.83C926,625.11,928.61,627,928.3,630.2Z"/><path d="M980.64,675.19v.61a8.44,8.44,0,0,1-4.57,1.2c-6.44,0-10.69-1.7-10.8-11.73-2.39,5-6,9.32-11.32,10.83-7.79,2.3-17.86.4-17.13-9.53.83-10.22,14.54-12,21.7-14.33a26.11,26.11,0,0,0,6.75-3.3v-8.12c0-8.52-2.49-14.83-10.07-14.83-6.75,0-10.18,2-11.84,5.31-1.46,3.2,1.45,4,2.18,6.81s-1.45,4.91-4.36,4.31-3.74-4-2-7.71,5.2-9.12,16.2-9.12c9.87,0,15.69,4.81,15.69,14.73v25.25c0,6.82,1.45,10.73,6.23,10.73A6.55,6.55,0,0,0,980.64,675.19Zm-15.37-10.52V649.44a25.88,25.88,0,0,1-6.33,3c-5,1.91-15.89,2.71-16.93,11.83-1.14,10.52,7.27,13.73,13.71,10.82,4.57-2.2,7.58-6.11,9.55-10.42Z"/></g><g id="top"><path d="M676.93,365.8v8.57C646.1,399,610.1,419.52,546.62,423.52,428.31,431,327.72,358.94,316.86,238.91S391.73,25.73,510,15.44c36.58-3.43,89.16,6.86,112.6,12,24,5.71,44.58,11.43,44.58-27.44h2.28V135.46h-2.28c0-40.58-33.15-76.59-66.3-96-28.58-16-61.16-24-90.31-21.14C423.16,25.75,342,109.19,354,234.93c12.57,128,102.3,188,192.61,185.75C600.35,419.52,644.93,395,676.93,365.8Z"/><path d="M352.62,356.68v1.56H288.2v-1.56c15.54,0,22.33-6.56,13.27-29.37-2.91-8.12-12-30.31-22.34-56.24h-87.4c-8.09,20.93-14.57,36.56-15.86,39.68-9.39,23.43-6.15,45.93,18.13,45.93v1.56H130.55v-1.56c18.13-5.94,30.43-14.37,39.82-36.87,11.33-27.18,73.16-180.27,73.16-180.27h1.57s61.19,155.28,69.6,175.27C323.48,334.81,332.22,356.68,352.62,356.68Zm-74.13-86.86C261,226.08,239.64,173,235.43,163c-11,27.5-29.45,73.42-43,106.85Z"/><path d="M842.39,208.74c0,39.58-28.8,59.82-70.13,59.82H727.81v56.81c.31,22.36,1.88,33.23,19.72,33.23v1.51H690.86v-1.52c17.85,0,19.41-10.87,19.73-33.23v-142c-.32-22.05-1.88-33.23-19.73-33.23v-1.52h81.4C813.59,148.61,842.39,169.11,842.39,208.74Zm-19.72,0c0-39.63-21.92-58.63-53.57-58.63H747.5c-17.84,0-19.41,11.18-19.72,33.23v84H769.1C800.75,267.35,822.67,248.32,822.67,208.74Z"/></g></svg>