<svg id="Grupo_341" data-name="Grupo 341" xmlns="http://www.w3.org/2000/svg" width="61.514" height="68.356" viewBox="0 0 61.514 68.356">
  <path id="Caminho_238" data-name="Caminho 238" d="M-141.092,17.071h4.768a1.957,1.957,0,0,0,1.955-1.955V10.348a1.957,1.957,0,0,0-1.955-1.955h-4.768a1.957,1.957,0,0,0-1.955,1.955v4.768A1.957,1.957,0,0,0-141.092,17.071Zm.048-6.675h4.673v4.673h-4.673Zm-.048,19.359h4.768a1.957,1.957,0,0,0,1.955-1.955V23.031a1.957,1.957,0,0,0-1.955-1.955h-4.768a1.957,1.957,0,0,0-1.955,1.955V27.8A1.957,1.957,0,0,0-141.092,29.754Zm.048-6.675h4.673v4.673h-4.673ZM-154.7,17.071h4.768a1.957,1.957,0,0,0,1.955-1.955V10.348a1.957,1.957,0,0,0-1.955-1.955H-154.7a1.957,1.957,0,0,0-1.955,1.955v4.768A1.957,1.957,0,0,0-154.7,17.071Zm.048-6.675h4.673v4.673h-4.673Zm-22.493,22.769h-4.768a1.957,1.957,0,0,0-1.955,1.955v4.768a1.957,1.957,0,0,0,1.955,1.955h4.768a1.957,1.957,0,0,0,1.955-1.955V35.12A1.957,1.957,0,0,0-177.143,33.165Zm-.048,6.675h-4.673V35.168h4.673Zm.048-31.447h-4.768a1.957,1.957,0,0,0-1.955,1.955v4.768a1.957,1.957,0,0,0,1.955,1.955h4.768a1.957,1.957,0,0,0,1.955-1.955V10.348A1.957,1.957,0,0,0-177.143,8.393Zm-.048,6.675h-4.673V10.4h4.673ZM-154.7,29.457h4.768a1.957,1.957,0,0,0,1.955-1.955V22.734a1.957,1.957,0,0,0-1.955-1.955H-154.7a1.957,1.957,0,0,0-1.955,1.955V27.5A1.957,1.957,0,0,0-154.7,29.457Zm.048-6.675h4.673v4.673h-4.673Zm21.276-34.706h-4.281v-1.531A3.048,3.048,0,0,0-140.7-16.5h-.46a3.048,3.048,0,0,0-3.045,3.045v1.531H-174.03v-1.531a3.048,3.048,0,0,0-3.045-3.045h-.46a3.048,3.048,0,0,0-3.045,3.045v1.531h-4.281a5.019,5.019,0,0,0-5.013,5.013v53.76a5.012,5.012,0,0,0,5.007,5.007h51.5a5.012,5.012,0,0,0,5.007-5.007V-6.911a5.019,5.019,0,0,0-5.013-5.013Zm-8.828-1.531A1.043,1.043,0,0,1-141.16-14.5h.46a1.043,1.043,0,0,1,1.042,1.042v1.531H-142.2Zm-36.375,0a1.043,1.043,0,0,1,1.042-1.042h.46a1.043,1.043,0,0,1,1.042,1.042v1.531h-2.544v-1.531Zm48.214,60.3a3.007,3.007,0,0,1-3,3h-51.5a3.007,3.007,0,0,1-3-3v-.006a4.987,4.987,0,0,0,3.011,1.008h40.6a4.98,4.98,0,0,0,3.545-1.468l10.355-10.355Zm-11.377-2.278a4.284,4.284,0,0,0,.121-1.01V36.878a2.288,2.288,0,0,1,2.286-2.286h6.684a4.283,4.283,0,0,0,1.01-.121Zm11.377-42.187h-42.666a1,1,0,0,0-1,1,1,1,0,0,0,1,1h42.666V30.3a2.289,2.289,0,0,1-2.286,2.286h-6.684a4.293,4.293,0,0,0-4.289,4.288v6.684a2.289,2.289,0,0,1-2.286,2.286h-38.953a3.014,3.014,0,0,1-3.011-3.011V4.388h10.837a1,1,0,0,0,1-1,1,1,0,0,0-1-1h-10.837v-9.3a3.014,3.014,0,0,1,3.011-3.011h4.281v2.944a3.048,3.048,0,0,0,3.045,3.045,1,1,0,0,0,1-1,1,1,0,0,0-1-1,1.043,1.043,0,0,1-1.042-1.042V-9.922H-144.2v2.944a3.048,3.048,0,0,0,3.045,3.045,1,1,0,0,0,1-1,1,1,0,0,0-1-1A1.043,1.043,0,0,1-142.2-6.977V-9.922h8.828a3.014,3.014,0,0,1,3.011,3.011Zm-46.78,18.394h-4.768a1.957,1.957,0,0,0-1.955,1.955V27.5a1.957,1.957,0,0,0,1.955,1.955h4.768a1.957,1.957,0,0,0,1.955-1.955V22.734A1.957,1.957,0,0,0-177.143,20.779Zm-.048,6.675h-4.673V22.782h4.673Zm8.886-10.383h4.768a1.957,1.957,0,0,0,1.955-1.955V10.348a1.957,1.957,0,0,0-1.955-1.955H-168.3a1.957,1.957,0,0,0-1.955,1.955v4.768A1.957,1.957,0,0,0-168.3,17.071Zm.048-6.675h4.673v4.673h-4.673Zm13.605,29.445a1,1,0,0,0-1-.954,1,1,0,0,0-1,1,1.957,1.957,0,0,0,1.955,1.955h4.768a1.957,1.957,0,0,0,1.955-1.955V35.12a1.957,1.957,0,0,0-1.955-1.955H-154.7a1.957,1.957,0,0,0-1.955,1.955V36.5a1,1,0,0,0,1,1,1,1,0,0,0,1-1V35.168h4.673V39.84ZM-168.3,29.457h4.768a1.957,1.957,0,0,0,1.955-1.955V22.734a1.957,1.957,0,0,0-1.955-1.955H-168.3a1.957,1.957,0,0,0-1.955,1.955V27.5A1.957,1.957,0,0,0-168.3,29.457Zm.048-6.675h4.673v4.673h-4.673Zm-.048,19.061h4.768a1.957,1.957,0,0,0,1.955-1.955V35.12a1.957,1.957,0,0,0-1.955-1.955H-168.3a1.957,1.957,0,0,0-1.955,1.955v4.768A1.957,1.957,0,0,0-168.3,41.843Zm.048-6.675h4.673V39.84h-4.673Z" transform="translate(189.874 16.5)" fill="#0babc5"/>
</svg>
