<svg xmlns="http://www.w3.org/2000/svg" width="18.667" height="12.601" viewBox="0 0 18.667 12.601">
  <path id="Caminho_213" data-name="Caminho 213" d="M149.754,391.832l.027-.021.02-.013.027-.018.022-.012.029-.015.023-.01.03-.013.023-.009.032-.01.023-.007.034-.008.022,0,.038-.005.019,0c.019,0,.039,0,.058,0h17.267c.02,0,.04,0,.058,0l.019,0,.038.005.022,0,.034.007.023.007.032.01.023.009.03.013.023.01.029.015.021.012.027.018.02.013.027.021.014.011-8.581,8.581a.7.7,0,0,1-.989,0l-8.581-8.581.014-.011Zm-.273,1.732,4.425,4.425-4.425,4.424Zm17.967,10.719H150.193a.7.7,0,0,1-.442-.16l5.145-5.144,2.435,2.434a2.1,2.1,0,0,0,2.968,0l2.446-2.447,5.152,5.153a.7.7,0,0,1-.449.164Zm.7-1.893-4.413-4.413,4.413-4.413Z" transform="translate(-149.481 -391.683)" fill="#0babc5"/>
</svg>
