<svg xmlns="http://www.w3.org/2000/svg" width="17.677" height="22.936" viewBox="0 0 17.677 22.936">
  <path id="Caminho_214" data-name="Caminho 214" d="M159.133,200.482a8.849,8.849,0,0,0-8.838,8.839,15.673,15.673,0,0,0,4.216,10.188,22.339,22.339,0,0,0,4.188,3.78.793.793,0,0,0,.867,0,22.319,22.319,0,0,0,4.188-3.78,15.672,15.672,0,0,0,4.217-10.188A8.85,8.85,0,0,0,159.133,200.482Zm0,12.346a3.508,3.508,0,1,1,3.508-3.508A3.512,3.512,0,0,1,159.134,212.828Z" transform="translate(-150.295 -200.482)" fill="#0babc5"/>
</svg>
