<svg xmlns="http://www.w3.org/2000/svg" width="19.001" height="19" viewBox="0 0 19.001 19">
  <path id="Caminho_212" data-name="Caminho 212" d="M150.36,148.854a2.234,2.234,0,0,1,2.232-2.237h3a2.226,2.226,0,0,1,2.217,1.974,10.863,10.863,0,0,0,.406,1.955,2.229,2.229,0,0,1-.552,2.235l-1.214,1.215a14.007,14.007,0,0,0,5.536,5.537l1.214-1.215a2.229,2.229,0,0,1,2.235-.551,10.874,10.874,0,0,0,1.956.406,2.226,2.226,0,0,1,1.974,2.217v3a2.234,2.234,0,0,1-2.443,2.222,18.315,18.315,0,0,1-16.549-16.548c-.006-.069-.009-.137-.009-.205Z" transform="translate(-150.36 -146.617)" fill="#0babc5"/>
</svg>
